<?xml version="1.0" encoding="utf-8"?>
<!-- Generator: Adobe Illustrator 16.0.0, SVG Export Plug-In . SVG Version: 6.00 Build 0)  -->
<!DOCTYPE svg PUBLIC "-//W3C//DTD SVG 1.1//EN" "http://www.w3.org/Graphics/SVG/1.1/DTD/svg11.dtd">
<svg version="1.1" id="Layer_1" xmlns="http://www.w3.org/2000/svg" xmlns:xlink="http://www.w3.org/1999/xlink" x="0px" y="0px"
	 width="56.693px" height="56.693px" viewBox="-7.087 -7.087 56.693 56.693" enable-background="new -7.087 -7.087 56.693 56.693"
	 xml:space="preserve">
<path fill="#BD0926" d="M4.783,3.572v20.144l6.644,2.535v-2.001c-1.869-0.267-3.743-0.717-5.193-2.229l1.121-1.075
	c1.009,1.053,2.411,1.435,4.009,1.692L9.189,4.571C7.748,4.296,6.27,3.994,4.783,3.572z M37.763,3.573
	c-5.413,1.444-11.489,0.009-15.88,5.881v17.341c1.644-2.421,3.773-3.394,5.873-3.863c2.816-0.632,5.496-0.596,7.599-2.295
	l0.976,1.207c-2.596,2.098-5.668,2.025-8.234,2.601c-2.434,0.545-4.482,1.464-6,5.247l15.667-5.977V3.573L37.763,3.573z
	 M10.697,4.093l2.276,18.947l0.005,0.047V41.1l1.656-3.262l1.7,3.169V24.65L13.999,4.776L10.697,4.093L10.697,4.093z M15.719,6.107
	l2.125,18.086c0.347,0.191,0.686,0.412,1.012,0.67c0.536,0.423,1.031,0.943,1.474,1.575V9.094
	C19.043,7.643,17.474,6.741,15.719,6.107L15.719,6.107z M1.703,6.177v19.915l0.508,0.188l9.216,3.387v-1.653L3.254,25.01V6.177
	H1.703z M39.289,6.179V25.01l-18.016,6.618l-3.387-1.243v3.179c1.927,0.667,4.823,0.565,7.163-0.21v-1.459l15.283-5.615l0.508-0.188
	V6.18L39.289,6.179L39.289,6.179z M17.886,26.072v2.642l2.289,0.875c-0.584-1.731-1.375-2.796-2.278-3.509
	C17.893,26.076,17.89,26.074,17.886,26.072L17.886,26.072z"/>
<g>
	<path fill-rule="evenodd" clip-rule="evenodd" fill="#BD0926" d="M40.84,9.439V6.18h-1.551v0.157
		C39.874,7.339,40.4,8.368,40.84,9.439z"/>
	<path fill-rule="evenodd" clip-rule="evenodd" fill="#BD0926" d="M5.192,3.842C5.23,3.794,5.271,3.75,5.31,3.703
		c-0.176-0.047-0.35-0.082-0.526-0.132v0.795C4.919,4.192,5.053,4.015,5.192,3.842z"/>
	<path fill-rule="evenodd" clip-rule="evenodd" fill="#BD0926" d="M37.234,4.152c0.191,0.089,0.362,0.203,0.528,0.322v-0.9
		c-0.351,0.094-0.704,0.174-1.06,0.246C36.874,3.94,37.043,4.062,37.234,4.152z"/>
	<path fill-rule="evenodd" clip-rule="evenodd" fill="#BD0926" d="M48.503,18.538c-0.301-1.719-0.776-3.392-1.381-5.026
		c-1.235-3.34-2.9-6.471-4.704-9.535C42.1,3.435,41.686,2.987,41.19,2.601c-0.527-0.413-1.07-0.805-1.622-1.188
		c-0.689-0.478-1.36-0.977-1.992-1.532c-0.896-0.788-1.89-1.436-2.982-1.929c-0.786-0.353-1.517-0.797-2.243-1.257
		c-1.267-0.799-2.578-1.5-4.085-1.754c-0.57-0.096-1.09-0.358-1.61-0.601c-1.55-0.721-3.172-1.123-4.891-1.141
		c-1.269-0.014-2.535,0.021-3.8,0.103c-0.799,0.052-1.565,0.219-2.289,0.579c-0.564,0.281-1.16,0.493-1.772,0.649
		c-0.814,0.208-1.606,0.477-2.38,0.802c-1.056,0.443-2.09,0.923-2.988,1.653C8.2-2.742,7.821-2.553,7.364-2.512
		C6.712-2.454,6.162-2.129,5.645-1.749c-0.264,0.193-0.477,0.441-0.72,0.655c-0.203,0.179-0.412,0.355-0.681,0.42
		c-0.137,0.034-0.262,0.082-0.375,0.16c-1.19,0.806-2.216,1.777-3.015,2.977C0.299,3.295-0.148,4.188-0.657,5.047
		C-0.827,5.335-1.001,5.62-1.216,5.879c-0.172,0.207-0.376,0.349-0.655,0.374c-0.261,0.024-0.453,0.166-0.59,0.385
		c-0.114,0.181-0.203,0.375-0.283,0.571c-0.283,0.696-0.631,1.348-1.073,1.965c-0.699,0.979-1.182,2.076-1.551,3.218
		c-0.234,0.725-0.261,1.506-0.584,2.209c-0.518,1.995-0.696,4.014-0.476,6.066c0.154,1.433,0.426,2.841,0.776,4.237
		c0.207,0.823,0.443,1.642,0.571,2.482c0.079,0.519,0.11,1.036,0.111,1.559c0.001,0.297,0.045,0.592,0.32,0.784
		c0.132,0.09,0.237,0.204,0.329,0.333c0.223,0.315,0.399,0.657,0.54,1.018c0.475,1.216,0.967,2.425,1.556,3.593
		c0.625,1.24,1.427,2.34,2.475,3.265c0.739,0.651,1.485,1.294,2.254,1.91c0.563,0.451,1.164,0.854,1.725,1.308
		c0.771,0.621,1.428,1.355,2.021,2.144c0.506,0.673,1.141,1.174,1.913,1.514c1.663,0.734,3.321,1.48,4.985,2.214
		c0.99,0.436,2.004,0.812,3.019,1.188c0.395,0.146,0.796,0.311,1.097,0.612c0.214,0.214,0.457,0.328,0.739,0.39
		c0.557,0.122,1.122,0.126,1.686,0.075c0.612-0.051,1.202-0.178,1.737-0.513c0.312-0.195,0.67-0.299,1.04-0.317
		c0.419-0.021,0.832-0.078,1.236-0.183c0.905-0.234,1.814-0.458,2.742-0.579c0.883-0.116,1.739-0.326,2.56-0.667
		c2.038-0.844,4.025-1.796,5.971-2.833c1.009-0.54,2.003-1.109,2.791-1.963c0.089-0.097,0.196-0.185,0.326-0.22
		c0.111-0.031,0.204-0.085,0.293-0.154c0.355-0.273,0.673-0.589,0.99-0.903c1.541-1.54,2.882-3.248,4.18-4.99
		c0.717-0.962,1.345-1.975,1.774-3.102c0.27-0.705,0.599-1.385,0.935-2.06c0.233-0.467,0.448-0.944,0.598-1.443
		c0.288-0.954,0.57-1.909,0.842-2.868c0.207-0.73,0.398-1.466,0.437-2.229c0.023-0.45,0.089-0.891,0.252-1.307
		c0.265-0.668,0.354-1.357,0.341-1.987C48.736,20.101,48.638,19.317,48.503,18.538z M44.01,19.018
		c-0.09,1.268-0.196,2.534-0.325,3.799c-0.136,1.339-0.264,2.679-0.575,3.992c-0.114,0.485-0.287,0.945-0.539,1.381
		c-0.31,0.542-0.501,1.139-0.709,1.724c-0.31,0.876-0.697,1.715-1.185,2.508c-0.141,0.229-0.26,0.471-0.398,0.699
		c-0.097,0.16-0.099,0.35-0.184,0.513c-0.141,0.271-0.306,0.525-0.492,0.767c-1.217,1.582-2.573,3.033-4.115,4.307
		c-0.225,0.185-0.466,0.342-0.721,0.483c-0.354,0.197-0.676,0.444-0.921,0.765c-0.437,0.574-0.983,1.024-1.571,1.428
		c-1.19,0.815-2.454,1.489-3.832,1.945c-1.085,0.36-2.202,0.528-3.345,0.535c-0.565,0.002-1.129,0-1.695,0
		c-0.968,0.012-1.934,0.003-2.899-0.062c-0.183-0.012-0.364-0.036-0.545-0.059c-0.04-0.005-0.087-0.009-0.117-0.032
		c-0.35-0.259-0.771-0.294-1.178-0.377c-0.606-0.121-1.209-0.259-1.812-0.396c-0.01,0.002-0.019,0.007-0.029,0.01
		c-0.162,0.041-0.326,0.061-0.488,0.061c-0.473,0-0.927-0.173-1.285-0.475c-0.191-0.043-0.382-0.087-0.573-0.13
		c-0.379,0.435-0.919,0.697-1.497,0.697c-0.154,0-0.311-0.018-0.466-0.055c-0.9-0.216-1.535-1.021-1.535-1.945V40.91
		c-0.911-0.577-1.847-1.105-2.82-1.574c-0.325-0.156-0.64-0.334-0.94-0.533c-0.294-0.194-0.56-0.407-0.743-0.725
		c-0.174-0.301-0.438-0.536-0.717-0.739c-0.637-0.464-1.146-1.05-1.598-1.683c-0.668-0.937-1.407-1.809-2.284-2.562
		c-0.525-0.45-0.892-1.005-1.077-1.674c-0.088-0.318-0.198-0.628-0.336-0.927c-0.106-0.23-0.219-0.455-0.411-0.634
		c-0.124-0.115-0.21-0.266-0.231-0.437c-0.054-0.462-0.204-0.897-0.363-1.328c-0.46-1.248-0.761-2.538-1.037-3.834
		c-0.24-1.13-0.441-2.265-0.567-3.413c-0.089-0.811-0.059-1.617,0.05-2.423c0.223-1.643,0.574-3.257,1.101-4.831
		c0.178-0.533,0.378-1.058,0.646-1.555c0.015-0.028,0.037-0.053,0.053-0.081V6.177c0-1.104,0.896-2,2-2h1.081V3.572
		c0-0.627,0.294-1.218,0.795-1.596C3.929,1.71,4.353,1.572,4.783,1.572c0.183,0,0.367,0.025,0.547,0.076
		c0.486,0.139,0.977,0.251,1.466,0.367C7.104,1.69,7.41,1.364,7.738,1.056c0.163-0.153,0.333-0.298,0.511-0.434
		c0.294-0.224,0.62-0.355,0.992-0.395c0.465-0.049,0.877-0.224,1.242-0.527c0.942-0.782,1.99-1.404,3.083-1.953
		c1.183-0.593,2.402-1.098,3.698-1.393c1.278-0.291,2.578-0.357,3.884-0.306c0.932,0.037,1.855,0.139,2.768,0.344
		c0.664,0.15,1.284,0.409,1.895,0.702c1.094,0.524,2.233,0.956,3.31,1.519c0.587,0.307,1.108,0.715,1.688,1.034
		c1.321,0.725,2.548,1.585,3.738,2.496c0.931-0.124,1.833-0.271,2.7-0.503c0.17-0.045,0.344-0.067,0.516-0.067
		c0.436,0,0.865,0.143,1.219,0.414c0.492,0.378,0.781,0.964,0.781,1.586V4.18h1.077c1.104,0,2,0.896,2,2v8.328
		c0.315,0.761,0.646,1.516,0.917,2.295C44.008,17.524,44.064,18.263,44.01,19.018z"/>
	<path fill-rule="evenodd" clip-rule="evenodd" fill="#BD0926" d="M2.206,8.273c0.314-0.617,0.673-1.204,1.048-1.78V6.177H1.703
		v2.89C1.893,8.816,2.063,8.552,2.206,8.273z"/>
</g>
</svg>
