<?xml version="1.0" encoding="UTF-8" standalone="no"?>
<!-- Generator: Adobe Illustrator 16.0.0, SVG Export Plug-In . SVG Version: 6.00 Build 0)  -->

<svg
   xmlns:dc="http://purl.org/dc/elements/1.1/"
   xmlns:cc="http://creativecommons.org/ns#"
   xmlns:rdf="http://www.w3.org/1999/02/22-rdf-syntax-ns#"
   xmlns:svg="http://www.w3.org/2000/svg"
   xmlns="http://www.w3.org/2000/svg"
   xmlns:sodipodi="http://sodipodi.sourceforge.net/DTD/sodipodi-0.dtd"
   xmlns:inkscape="http://www.inkscape.org/namespaces/inkscape"
   version="1.1"
   id="Layer_1"
   x="0px"
   y="0px"
   width="56.693px"
   height="56.693px"
   viewBox="-7.087 -7.087 56.693 56.693"
   enable-background="new -7.087 -7.087 56.693 56.693"
   xml:space="preserve"
   sodipodi:docname="Alignement-Mauvais.svg"
   inkscape:version="0.92.0 r15299"><metadata
   id="metadata19"><rdf:RDF><cc:Work
       rdf:about=""><dc:format>image/svg+xml</dc:format><dc:type
         rdf:resource="http://purl.org/dc/dcmitype/StillImage" /></cc:Work></rdf:RDF></metadata><defs
   id="defs17" /><sodipodi:namedview
   pagecolor="#ffffff"
   bordercolor="#666666"
   borderopacity="1"
   objecttolerance="10"
   gridtolerance="10"
   guidetolerance="10"
   inkscape:pageopacity="0"
   inkscape:pageshadow="2"
   inkscape:window-width="1280"
   inkscape:window-height="961"
   id="namedview15"
   showgrid="false"
   inkscape:zoom="4.1627714"
   inkscape:cx="-47.684579"
   inkscape:cy="28.3465"
   inkscape:window-x="1272"
   inkscape:window-y="-8"
   inkscape:window-maximized="1"
   inkscape:current-layer="Layer_1" />
<path
   d="m 28.851562,0.28515625 c -1.268999,-0.014 -2.533828,0.0215156 -3.798828,0.10351563 -0.799,0.052 -1.565062,0.22007812 -2.289062,0.58007812 -0.564,0.281 -1.161438,0.4924375 -1.773438,0.6484375 -0.814,0.208 -1.604906,0.4777344 -2.378906,0.8027344 -1.056,0.443 -2.090281,0.9223437 -2.988281,1.6523437 -0.336,0.273 -0.714875,0.4609531 -1.171875,0.5019532 -0.652,0.058 -1.20175,0.3836718 -1.71875,0.7636718 -0.264,0.193 -0.477703,0.4402969 -0.720703,0.6542969 -0.203,0.179 -0.412641,0.3549219 -0.681641,0.4199219 -0.137,0.034 -0.262,0.082156 -0.375,0.1601562 -1.1899998,0.806 -2.2146716,1.7785158 -3.0136718,2.9785156 -0.5549999,0.8319998 -1.0027187,1.7249848 -1.5117187,2.5839848 -0.17,0.288 -0.3435938,0.573031 -0.5585937,0.832031 -0.172,0.207 -0.3752969,0.348047 -0.6542969,0.373047 -0.261,0.024 -0.4528438,0.165765 -0.5898438,0.384765 -0.114,0.181 -0.2032031,0.376266 -0.2832031,0.572266 -0.283,0.696 -0.6322187,1.347844 -1.0742188,1.964844 -0.6989999,0.979 -1.1817812,2.074797 -1.5507812,3.216797 -0.234,0.725 -0.2609844,1.505984 -0.5839844,2.208984 -0.51799994,1.995 -0.69656247,4.014406 -0.47656248,6.066406 0.15400001,1.433 0.42734378,2.840328 0.77734378,4.236328 0.207,0.823 0.4423125,1.642422 0.5703125,2.482422 0.079,0.519 0.1103281,1.035594 0.1113281,1.558594 10e-4,0.297 0.045313,0.593156 0.3203125,0.785156 0.132,0.09 0.236125,0.203032 0.328125,0.332032 0.223,0.314999 0.4000156,0.658531 0.5410156,1.019531 0.475,1.216 0.9656875,2.423797 1.5546875,3.591797 0.625,1.24 1.4285625,2.340625 2.4765625,3.265625 0.146,0.129 0.2983125,0.248953 0.4453125,0.376953 l 1.3769531,-2.488282 c 0.3010001,-0.543998 0.8394068,-0.893281 1.4414058,-0.988281 -0.5,-0.622 -1.0276714,-1.218187 -1.6386714,-1.742187 -0.525,-0.45 -0.8911719,-1.004828 -1.0761718,-1.673828 -0.088,-0.318 -0.1979376,-0.628735 -0.3359376,-0.927735 -0.1059998,-0.23 -0.2201093,-0.455765 -0.4121093,-0.634765 -0.124,-0.115 -0.2094688,-0.264547 -0.2304688,-0.435547 -0.054,-0.462 -0.2042812,-0.897125 -0.3632812,-1.328125 -0.46,-1.248 -0.7611094,-2.537985 -1.0371094,-3.833985 -0.24,-1.13 -0.4404062,-2.266062 -0.5664063,-3.414062 -0.089,-0.811 -0.060172,-1.615875 0.048828,-2.421875 0.223,-1.643 0.5745625,-3.258031 1.1015625,-4.832031 0.178,-0.533 0.3784844,-1.057688 0.6464843,-1.554688 0.077,-0.143 0.1625782,-0.280297 0.2675782,-0.404297 0.315,-0.375 0.5626719,-0.793281 0.7636718,-1.238281 0.1130001,-0.249 0.2284844,-0.495844 0.3964844,-0.714844 0.089,-0.118 0.1882656,-0.222875 0.3222656,-0.296875 0.1230002,-0.066 0.2011563,-0.182015 0.2851563,-0.291015 0.198,-0.258 0.3734844,-0.533266 0.5214844,-0.822266 0.8150003,-1.598 1.8683753,-3.035641 2.9843753,-4.431641 0.787,-0.9839992 1.625875,-1.9221559 2.546875,-2.7851559 0.163,-0.153 0.333719,-0.2975937 0.511719,-0.4335937 0.294,-0.224 0.618234,-0.3545313 0.990234,-0.3945313 0.465,-0.049 0.877188,-0.2243437 1.242187,-0.5273437 0.942002,-0.782 1.990985,-1.404125 3.083985,-1.953125 1.183,-0.593 2.401266,-1.0975782 3.697265,-1.3925782 1.278,-0.2909999 2.578766,-0.3576406 3.884766,-0.3066406 0.932,0.037 1.854578,0.13875 2.767578,0.34375 0.664,0.15 1.28353,0.410125 1.894532,0.703125 1.094,0.524 2.233546,0.9545782 3.310546,1.5175782 0.587,0.307 1.1075,0.7161562 1.6875,1.0351562 1.808,0.992 3.439016,2.2325782 5.041016,3.517578 0.444,0.356 0.863766,0.742328 1.384766,0.986328 0.458,0.213 0.835875,0.518813 1.171875,0.882813 0.278,0.304 0.50089,0.650906 0.71289,1.003906 0.808,1.35 1.516828,2.747516 2.048828,4.228516 0.111,0.307 0.150469,0.631359 0.230469,0.943359 0.091,0.354 0.198141,0.702078 0.494141,0.955078 0.125,0.109 0.159031,0.271688 0.207031,0.429688 0.154,0.514 0.370314,1.004953 0.570312,1.501953 0.361002,0.901 0.768891,1.784125 1.087891,2.703125 0.251,0.722 0.306953,1.460843 0.251953,2.214843 -0.09,1.268001 -0.195218,2.533829 -0.324218,3.798829 -0.136001,1.339 -0.265172,2.679187 -0.576172,3.992187 -0.114,0.485 -0.287063,0.94486 -0.539063,1.38086 -0.31,0.542 -0.500984,1.139609 -0.708984,1.724609 -0.31,0.876 -0.695594,1.714812 -1.183594,2.507812 -0.141,0.229 -0.260438,0.471219 -0.398437,0.699219 -0.097,0.16 -0.09859,0.350672 -0.183594,0.513672 -0.141,0.271 -0.306188,0.523625 -0.492188,0.765625 -0.816,1.062 -1.703203,2.057328 -2.658203,2.986328 0.604,0.813 1.251125,1.604281 1.953125,2.363281 0.306,0.33 0.468813,0.746735 0.507813,1.177735 1.527,-1.532 2.859437,-3.228032 4.148437,-4.957031 0.717,-0.962002 1.346391,-1.976516 1.775391,-3.103516 0.27,-0.705 0.597594,-1.383594 0.933593,-2.058594 0.233,-0.467 0.447657,-0.944359 0.597657,-1.443359 0.288,-0.954 0.57175,-1.910141 0.84375,-2.869141 0.207,-0.73 0.396547,-1.465516 0.435547,-2.228516 0.023,-0.449998 0.08895,-0.89064 0.251953,-1.30664 0.265,-0.668 0.354797,-1.356328 0.341797,-1.986328 10e-4,-0.87 -0.09742,-1.654594 -0.232422,-2.433594 -0.301,-1.719 -0.77586,-3.391391 -1.38086,-5.025391 -1.235,-3.34 -2.899125,-6.471156 -4.703125,-9.535156 -0.318,-0.542 -0.732515,-0.990953 -1.228515,-1.376953 C 47.750344,9.2745 47.206297,8.883 46.654297,8.5 45.965297,8.022 45.294109,7.52375 44.662109,6.96875 43.766109,6.18075 42.773641,5.5320625 41.681641,5.0390625 40.895641,4.6860625 40.1635,4.24125 39.4375,3.78125 c -1.267,-0.799 -2.576984,-1.4999063 -4.083984,-1.7539062 -0.57,-0.096 -1.091328,-0.3566094 -1.611328,-0.5996094 -1.55,-0.72100006 -3.171626,-1.12457815 -4.890626,-1.14257815 z m -6.753906,8.70898435 -1.470703,0.4960938 2.103516,6.2617186 1.470703,-0.5 z m 6.136719,6.5253904 -8.691406,2.958985 0.841797,2.478515 c 0.69,-0.81 1.477937,-1.452453 2.335937,-1.939453 0.601,2.283 1.382594,4.494719 2.308594,6.636719 1.08,-0.462 2.194453,-0.847625 3.314453,-1.140625 -0.579,-2.22 -1.3135,-4.415938 -2.1875,-6.585938 0.938,-0.103 1.916828,-0.07488 2.923828,0.07813 z m 15.917969,7.326172 c -1.615,-0.009 -3.510688,0.816328 -5.054688,2.361328 -0.48,0.479 -0.886609,0.993485 -1.224609,1.521485 -2.387,-1.438 -5.794297,-1.516157 -9.154297,-0.660157 -0.001,-0.008 -0.0019,-0.01644 -0.0039,-0.02344 -1.026,0.261 -2.053875,0.601484 -3.046875,1.021484 l 0.01563,0.03516 c -7.252,3.114001 -12.614281,10.296297 -3.988282,16.779297 H 10.910156 v 0.002 L 9.3378906,46.720751 8.5195312,48.19536 h 2.7343748 c 7.14e-4,5.71e-4 0.0012,0.0014 0.002,0.002 h 7.138672 c -0.0012,-7.96e-4 -0.0027,-0.0012 -0.0039,-0.002 h 13.371094 l -7.996094,-9.332031 c 2.194,-2.414 6.095625,-3.952219 8.765625,-4.074219 1.247,4.075001 3.277375,10.258297 6.484375,13.404297 h 0.703125 c -7.35e-4,5.53e-4 -0.0012,0.0014 -0.002,0.002 h 4.800781 c -3.29e-4,-3.56e-4 3.3e-4,-0.0016 0,-0.002 -0.434863,-0.469817 -0.85476,-0.963844 -1.265625,-1.46875 -0.113176,-0.13935 -0.222801,-0.282007 -0.333984,-0.423828 -3.097809,-3.948696 -5.390123,-8.87857 -5.808594,-14.363281 0.146,0.293 0.334359,0.561875 0.568359,0.796875 1.688,1.687 5.059297,1.051078 7.529297,-1.419922 2.47,-2.471 3.104922,-5.843297 1.419922,-7.529297 -0.632,-0.631 -1.503609,-0.934453 -2.474609,-0.939453 z m -6.597656,26.710938 c -0.649001,0.336 -1.322391,0.625422 -2.025391,0.857421 -1.085,0.36 -2.20075,0.528157 -3.34375,0.535157 -0.565,0.002 -1.129313,0 -1.695313,0 -0.968,0.012 -1.933437,0.0045 -2.898437,-0.06055 -0.183,-0.012 -0.363922,-0.03755 -0.544922,-0.06055 -0.04,-0.005 -0.08719,-0.0082 -0.117187,-0.03125 -0.350001,-0.259 -0.770735,-0.293953 -1.177735,-0.376953 -0.339,-0.068 -0.676625,-0.147656 -1.015625,-0.222656 h -11.55664 c 0.05,0.064 0.108203,0.124453 0.158203,0.189453 0.506,0.673 1.140109,1.173672 1.912109,1.513672 1.663,0.734 3.320375,1.47889 4.984375,2.21289 0.99,0.436 2.004531,0.813453 3.019531,1.189453 0.395,0.146 0.796656,0.310328 1.097656,0.611328 0.214,0.214 0.456282,0.328626 0.738282,0.390626 0.557,0.121999 1.121547,0.125216 1.685547,0.07422 0.612,-0.051 1.203281,-0.178672 1.738281,-0.513672 0.312,-0.195 0.669062,-0.298406 1.039062,-0.316406 0.419,-0.021 0.83233,-0.07859 1.236328,-0.183594 0.905001,-0.234 1.814188,-0.457125 2.742188,-0.578125 0.883,-0.116 1.739547,-0.326968 2.560547,-0.667968 2.038,-0.844 4.024703,-1.795032 5.970703,-2.832032 0.617,-0.33 1.223156,-0.680796 1.785156,-1.091797 h -4.832031 c -0.523,0 -1.026391,-0.205265 -1.400391,-0.572265 -0.021,-0.021 -0.03955,-0.04641 -0.06055,-0.06641 z"
   transform="translate(-7.087,-7.087)"
   id="path2"
   inkscape:connector-curvature="0"
   style="display:inline" />

</svg>