<?xml version="1.0" encoding="UTF-8" standalone="no"?>
<!-- Generator: Adobe Illustrator 16.0.0, SVG Export Plug-In . SVG Version: 6.00 Build 0)  -->

<svg
   xmlns:dc="http://purl.org/dc/elements/1.1/"
   xmlns:cc="http://creativecommons.org/ns#"
   xmlns:rdf="http://www.w3.org/1999/02/22-rdf-syntax-ns#"
   xmlns:svg="http://www.w3.org/2000/svg"
   xmlns="http://www.w3.org/2000/svg"
   xmlns:sodipodi="http://sodipodi.sourceforge.net/DTD/sodipodi-0.dtd"
   xmlns:inkscape="http://www.inkscape.org/namespaces/inkscape"
   version="1.1"
   id="Layer_1"
   x="0px"
   y="0px"
   width="56.693px"
   height="56.693px"
   viewBox="-7.087 -7.087 56.693 56.693"
   enable-background="new -7.087 -7.087 56.693 56.693"
   xml:space="preserve"
   sodipodi:docname="Alignement-Loyal.svg"
   inkscape:version="0.92.0 r15299"><metadata
   id="metadata21"><rdf:RDF><cc:Work
       rdf:about=""><dc:format>image/svg+xml</dc:format><dc:type
         rdf:resource="http://purl.org/dc/dcmitype/StillImage" /></cc:Work></rdf:RDF></metadata><defs
   id="defs19">
	
	
	
	
	
</defs><sodipodi:namedview
   pagecolor="#ffffff"
   bordercolor="#666666"
   borderopacity="1"
   objecttolerance="10"
   gridtolerance="10"
   guidetolerance="10"
   inkscape:pageopacity="0"
   inkscape:pageshadow="2"
   inkscape:window-width="1280"
   inkscape:window-height="961"
   id="namedview17"
   showgrid="false"
   inkscape:zoom="4.1627714"
   inkscape:cx="-3.8435933"
   inkscape:cy="28.3465"
   inkscape:window-x="-8"
   inkscape:window-y="-8"
   inkscape:window-maximized="1"
   inkscape:current-layer="Layer_1" />
<path
   d="M 28.851562 0.28515625 C 27.582563 0.27115625 26.317734 0.30667188 25.052734 0.38867188 C 24.253734 0.44067187 23.487672 0.60875 22.763672 0.96875 C 22.199672 1.24975 21.602234 1.4611875 20.990234 1.6171875 C 20.176234 1.8251875 19.385328 2.0949219 18.611328 2.4199219 C 17.555328 2.8629219 16.521047 3.3422656 15.623047 4.0722656 C 15.287047 4.3452656 14.908172 4.5332187 14.451172 4.5742188 C 13.799172 4.6322187 13.249422 4.9578906 12.732422 5.3378906 C 12.468422 5.5308906 12.254719 5.7781875 12.011719 5.9921875 C 11.808719 6.1711875 11.599078 6.3471094 11.330078 6.4121094 C 11.193078 6.4461094 11.068078 6.4942656 10.955078 6.5722656 C 9.7650781 7.3782656 8.7404063 8.3507813 7.9414062 9.5507812 C 7.3864063 10.382781 6.9386875 11.275766 6.4296875 12.134766 C 6.2596875 12.422766 6.0860937 12.707797 5.8710938 12.966797 C 5.6990938 13.173797 5.4957969 13.314844 5.2167969 13.339844 C 4.9557969 13.363844 4.7639531 13.505609 4.6269531 13.724609 C 4.5129531 13.905609 4.42375 14.100875 4.34375 14.296875 C 4.06075 14.992875 3.7115313 15.644719 3.2695312 16.261719 C 2.5705313 17.240719 2.08775 18.336516 1.71875 19.478516 C 1.48475 20.203516 1.4577656 20.9845 1.1347656 21.6875 C 0.61676563 23.6825 0.43820313 25.701906 0.65820312 27.753906 C 0.81220312 29.186906 1.0855469 30.594234 1.4355469 31.990234 C 1.6425469 32.813234 1.8778594 33.632656 2.0058594 34.472656 C 2.0848594 34.991656 2.1161875 35.50825 2.1171875 36.03125 C 2.1181875 36.32825 2.1625 36.624406 2.4375 36.816406 C 2.5695 36.906406 2.673625 37.019438 2.765625 37.148438 C 2.988625 37.463438 3.1656406 37.806969 3.3066406 38.167969 C 3.7816406 39.383969 4.2723281 40.591766 4.8613281 41.759766 C 5.4863281 42.999766 6.2898906 44.100391 7.3378906 45.025391 C 8.0768906 45.676391 8.8227969 46.319547 9.5917969 46.935547 C 10.154797 47.386547 10.755406 47.788187 11.316406 48.242188 C 12.087406 48.863187 12.744891 49.597719 13.337891 50.386719 C 13.843891 51.059719 14.478 51.560391 15.25 51.900391 C 16.913 52.634391 18.570375 53.381234 20.234375 54.115234 C 21.224375 54.551234 22.238906 54.926734 23.253906 55.302734 C 23.648906 55.448734 24.050562 55.613062 24.351562 55.914062 C 24.565562 56.128062 24.807844 56.242688 25.089844 56.304688 C 25.646844 56.426687 26.211391 56.431859 26.775391 56.380859 C 27.387391 56.329859 27.978672 56.202187 28.513672 55.867188 C 28.825672 55.672187 29.182734 55.568781 29.552734 55.550781 C 29.971734 55.529781 30.385063 55.472187 30.789062 55.367188 C 31.694063 55.133187 32.60325 54.908109 33.53125 54.787109 C 34.41425 54.671109 35.270797 54.462094 36.091797 54.121094 C 38.129797 53.277094 40.1165 52.324109 42.0625 51.287109 C 43.0715 50.747109 44.065516 50.178219 44.853516 49.324219 C 44.942516 49.227219 45.049687 49.140469 45.179688 49.105469 C 45.290687 49.074469 45.383656 49.020172 45.472656 48.951172 C 45.827656 48.678172 46.145891 48.362828 46.462891 48.048828 C 48.003891 46.508828 49.344578 44.800594 50.642578 43.058594 C 51.359578 42.096594 51.987016 41.082078 52.416016 39.955078 C 52.686016 39.250078 53.015563 38.571484 53.351562 37.896484 C 53.584563 37.429484 53.799219 36.952125 53.949219 36.453125 C 54.237219 35.499125 54.519016 34.544937 54.791016 33.585938 C 54.998016 32.855938 55.189516 32.118469 55.228516 31.355469 C 55.251516 30.905469 55.317469 30.464828 55.480469 30.048828 C 55.745469 29.380828 55.833313 28.6925 55.820312 28.0625 C 55.822313 27.1885 55.724844 26.404 55.589844 25.625 C 55.288844 23.906 54.813984 22.233609 54.208984 20.599609 C 52.973984 17.259609 51.309859 14.128453 49.505859 11.064453 C 49.187859 10.522453 48.773344 10.0735 48.277344 9.6875 C 47.750344 9.2745 47.206297 8.883 46.654297 8.5 C 45.965297 8.022 45.294109 7.52375 44.662109 6.96875 C 43.766109 6.18075 42.773641 5.5320625 41.681641 5.0390625 C 40.895641 4.6860625 40.1635 4.24125 39.4375 3.78125 C 38.1705 2.98225 36.860516 2.2813437 35.353516 2.0273438 C 34.783516 1.9313437 34.262188 1.6707344 33.742188 1.4277344 C 32.192188 0.70673437 30.570562 0.30315625 28.851562 0.28515625 z M 27.257812 3.1210938 C 27.583313 3.1175312 27.907875 3.1220156 28.234375 3.1347656 C 29.166375 3.1717656 30.090906 3.2735156 31.003906 3.4785156 C 31.667906 3.6285156 32.287438 3.8886406 32.898438 4.1816406 C 33.992438 4.7056406 35.130031 5.1362188 36.207031 5.6992188 C 36.794031 6.0062188 37.316484 6.415375 37.896484 6.734375 C 39.217484 7.459375 40.444766 8.3194687 41.634766 9.2304688 C 42.565766 9.1064687 43.466984 8.9585625 44.333984 8.7265625 C 44.503984 8.6815625 44.677609 8.6601562 44.849609 8.6601562 C 45.285609 8.6601562 45.714359 8.8032187 46.068359 9.0742188 C 46.560359 9.4522188 46.849609 10.038156 46.849609 10.660156 L 46.849609 11.267578 L 47.927734 11.267578 C 49.031734 11.267578 49.927734 12.163578 49.927734 13.267578 L 49.927734 21.595703 C 50.242734 22.356703 50.57275 23.111625 50.84375 23.890625 C 51.09475 24.611625 51.151656 25.350469 51.097656 26.105469 C 51.007656 27.373469 50.900484 28.639297 50.771484 29.904297 C 50.635484 31.243297 50.508266 32.583484 50.197266 33.896484 C 50.083266 34.381484 49.910203 34.841344 49.658203 35.277344 C 49.348203 35.819344 49.157219 36.416953 48.949219 37.001953 C 48.639219 37.877953 48.251672 38.716766 47.763672 39.509766 C 47.622672 39.738766 47.503234 39.979031 47.365234 40.207031 C 47.268234 40.367031 47.266641 40.557703 47.181641 40.720703 C 47.040641 40.991703 46.875453 41.246281 46.689453 41.488281 C 45.472453 43.070281 44.116219 44.520922 42.574219 45.794922 C 42.349219 45.979922 42.108516 46.136344 41.853516 46.277344 C 41.499516 46.474344 41.178594 46.721969 40.933594 47.042969 C 40.496594 47.616969 39.949328 48.066703 39.361328 48.470703 C 38.171328 49.285703 36.907297 49.960016 35.529297 50.416016 C 34.444297 50.776016 33.328547 50.944172 32.185547 50.951172 C 31.620547 50.953172 31.056234 50.951172 30.490234 50.951172 C 29.522234 50.963172 28.556797 50.953672 27.591797 50.888672 C 27.408797 50.876672 27.227875 50.853078 27.046875 50.830078 C 27.006875 50.825078 26.959688 50.821828 26.929688 50.798828 C 26.579687 50.539828 26.158953 50.504875 25.751953 50.421875 C 25.145953 50.300875 24.542453 50.162391 23.939453 50.025391 C 23.929453 50.027391 23.920156 50.032156 23.910156 50.035156 C 23.748156 50.076156 23.583875 50.095703 23.421875 50.095703 C 22.948875 50.095703 22.494719 49.923094 22.136719 49.621094 C 21.945719 49.578094 21.755453 49.533234 21.564453 49.490234 C 21.185453 49.925234 20.644406 50.1875 20.066406 50.1875 C 19.912406 50.1875 19.756563 50.169813 19.601562 50.132812 C 18.701563 49.916813 18.066406 49.1115 18.066406 48.1875 L 18.066406 47.996094 C 17.155406 47.419094 16.219094 46.892828 15.246094 46.423828 C 14.921094 46.267828 14.606641 46.089625 14.306641 45.890625 C 14.012641 45.696625 13.7455 45.482062 13.5625 45.164062 C 13.3885 44.863062 13.124703 44.628781 12.845703 44.425781 C 12.208703 43.961781 11.700047 43.375188 11.248047 42.742188 C 10.580047 41.805188 9.8418437 40.934641 8.9648438 40.181641 C 8.4398437 39.731641 8.0717187 39.176812 7.8867188 38.507812 C 7.7987187 38.189812 7.6887812 37.879078 7.5507812 37.580078 C 7.4447812 37.350078 7.332625 37.124313 7.140625 36.945312 C 7.016625 36.830313 6.9292031 36.680766 6.9082031 36.509766 C 6.8542031 36.047766 6.705875 35.612641 6.546875 35.181641 C 6.086875 33.933641 5.7857656 32.643656 5.5097656 31.347656 C 5.2697656 30.217656 5.0674062 29.081594 4.9414062 27.933594 C 4.8524062 27.122594 4.8831875 26.317719 4.9921875 25.511719 C 5.2151875 23.868719 5.56675 22.253687 6.09375 20.679688 C 6.27175 20.146687 6.4702813 19.622 6.7382812 19.125 C 6.7532812 19.097 6.7769687 19.072922 6.7929688 19.044922 L 6.7929688 13.263672 C 6.7929688 12.159672 7.6889687 11.263672 8.7929688 11.263672 L 9.8730469 11.263672 L 9.8730469 10.658203 C 9.8730469 10.031203 10.166969 9.4405 10.667969 9.0625 C 11.015969 8.7965 11.439141 8.6582031 11.869141 8.6582031 C 12.052141 8.6582031 12.237969 8.683375 12.417969 8.734375 C 12.903969 8.873375 13.393813 8.9855625 13.882812 9.1015625 C 14.190812 8.7765625 14.496219 8.4505781 14.824219 8.1425781 C 14.987219 7.9895781 15.157937 7.8449844 15.335938 7.7089844 C 15.629937 7.4849844 15.956125 7.3544531 16.328125 7.3144531 C 16.793125 7.2654531 17.205312 7.0901094 17.570312 6.7871094 C 18.512313 6.0051094 19.559344 5.3829844 20.652344 4.8339844 C 21.835344 4.2409844 23.055563 3.7364062 24.351562 3.4414062 C 25.310063 3.2231563 26.281312 3.1317812 27.257812 3.1210938 z M 11.869141 10.658203 L 11.869141 30.802734 L 18.513672 33.337891 L 18.513672 31.337891 C 16.644672 31.070891 14.770312 30.619422 13.320312 29.107422 L 14.441406 28.033203 C 15.450406 29.086203 16.853172 29.467609 18.451172 29.724609 L 16.275391 11.658203 C 15.00542 11.415842 13.704765 11.137027 12.396484 10.789062 C 12.220484 10.742063 12.047094 10.708203 11.871094 10.658203 C 11.871094 10.658203 11.869141 10.658203 11.869141 10.658203 z M 44.849609 10.660156 C 44.499223 10.753992 44.14443 10.834348 43.789062 10.90625 C 38.655899 11.947493 33.076962 11.049794 28.970703 16.541016 L 28.970703 33.882812 C 30.614703 31.461812 32.74375 30.488531 34.84375 30.019531 C 37.65975 29.387531 40.338406 29.423609 42.441406 27.724609 L 43.417969 28.931641 C 40.821969 31.029641 37.749594 30.95525 35.183594 31.53125 C 32.749594 32.07625 30.701594 32.996297 29.183594 36.779297 L 44.851562 30.802734 L 44.851562 10.660156 L 44.849609 10.660156 z M 17.783203 11.179688 L 20.060547 30.126953 L 20.064453 30.173828 L 20.064453 48.1875 L 21.720703 44.925781 L 23.421875 48.09375 L 23.421875 31.736328 L 21.085938 11.863281 L 17.783203 11.179688 z M 22.806641 13.193359 L 24.931641 31.279297 C 25.278641 31.470297 25.617359 31.691219 25.943359 31.949219 C 26.479359 32.372219 26.974969 32.893391 27.417969 33.525391 L 27.417969 16.181641 C 26.130969 14.730641 24.561641 13.827359 22.806641 13.193359 z M 8.7890625 13.263672 L 8.7890625 16.154297 L 8.7890625 33.179688 L 9.2988281 33.367188 L 18.513672 36.753906 L 18.513672 35.101562 L 10.341797 32.097656 L 10.341797 13.580078 L 10.341797 13.263672 L 8.7890625 13.263672 z M 46.376953 13.265625 L 46.376953 13.267578 L 46.376953 13.423828 L 46.376953 32.097656 L 28.359375 38.714844 L 24.972656 37.472656 L 24.972656 40.650391 C 26.899656 41.317391 29.796719 41.216406 32.136719 40.441406 L 32.136719 38.982422 L 47.419922 33.367188 L 47.927734 33.179688 L 47.927734 16.525391 L 47.927734 13.267578 L 46.376953 13.265625 z M 24.972656 33.158203 L 24.972656 35.800781 L 27.261719 36.675781 C 26.677719 34.944781 25.887375 33.880969 24.984375 33.167969 C 24.980375 33.163969 24.976656 33.160203 24.972656 33.158203 z "
   transform="translate(-7.087,-7.087)"
   id="path2" />

</svg>