<?xml version="1.0" encoding="UTF-8" standalone="no"?>
<!-- Generator: Adobe Illustrator 16.0.0, SVG Export Plug-In . SVG Version: 6.00 Build 0)  -->

<svg
   xmlns:dc="http://purl.org/dc/elements/1.1/"
   xmlns:cc="http://creativecommons.org/ns#"
   xmlns:rdf="http://www.w3.org/1999/02/22-rdf-syntax-ns#"
   xmlns:svg="http://www.w3.org/2000/svg"
   xmlns="http://www.w3.org/2000/svg"
   xmlns:sodipodi="http://sodipodi.sourceforge.net/DTD/sodipodi-0.dtd"
   xmlns:inkscape="http://www.inkscape.org/namespaces/inkscape"
   version="1.1"
   id="Layer_1"
   x="0px"
   y="0px"
   width="56.693px"
   height="56.693px"
   viewBox="-7.087 -7.087 56.693 56.693"
   enable-background="new -7.087 -7.087 56.693 56.693"
   xml:space="preserve"
   sodipodi:docname="Alignement-Chaotique.svg"
   inkscape:version="0.92.0 r15299"><metadata
   id="metadata33"><rdf:RDF><cc:Work
       rdf:about=""><dc:format>image/svg+xml</dc:format><dc:type
         rdf:resource="http://purl.org/dc/dcmitype/StillImage" /></cc:Work></rdf:RDF></metadata><defs
   id="defs31">
		
		
		
		
		
		
		
		
	
	
	

		
	</defs><sodipodi:namedview
   pagecolor="#ffffff"
   bordercolor="#666666"
   borderopacity="1"
   objecttolerance="10"
   gridtolerance="10"
   guidetolerance="10"
   inkscape:pageopacity="0"
   inkscape:pageshadow="2"
   inkscape:window-width="1280"
   inkscape:window-height="961"
   id="namedview29"
   showgrid="false"
   inkscape:zoom="4.1627714"
   inkscape:cx="-3.8435933"
   inkscape:cy="66.782433"
   inkscape:window-x="-8"
   inkscape:window-y="-8"
   inkscape:window-maximized="1"
   inkscape:current-layer="Layer_1" />
<path
   style="fill:#bd0926"
   d="M 28.851562 0.28515625 C 27.582562 0.27115625 26.315781 0.30667188 25.050781 0.38867188 C 24.251781 0.44067187 23.485719 0.60875 22.761719 0.96875 C 22.197719 1.24975 21.602234 1.4611875 20.990234 1.6171875 C 20.176234 1.8251875 19.383375 2.0949219 18.609375 2.4199219 C 17.553375 2.8629219 16.519094 3.3422656 15.621094 4.0722656 C 15.286094 4.3452656 14.908219 4.5342188 14.449219 4.5742188 C 13.798219 4.6312187 13.248469 4.9578906 12.730469 5.3378906 C 12.467469 5.5308906 12.252766 5.7781875 12.009766 5.9921875 C 11.806766 6.1711875 11.597125 6.3471094 11.328125 6.4121094 C 11.191125 6.4471094 11.066125 6.4942656 10.953125 6.5722656 C 9.762125 7.3782656 8.7384531 8.3488281 7.9394531 9.5488281 C 7.3854531 10.380828 6.9367344 11.273813 6.4277344 12.132812 C 6.2577344 12.420813 6.0841406 12.706844 5.8691406 12.964844 C 5.6971406 13.171844 5.4938437 13.312891 5.2148438 13.337891 C 4.9538437 13.361891 4.7600469 13.503656 4.6230469 13.722656 C 4.5080469 13.903656 4.4217969 14.097922 4.3417969 14.294922 C 4.0587969 14.989922 3.7085781 15.642766 3.2675781 16.259766 C 2.5685781 17.238766 2.0857969 18.334563 1.7167969 19.476562 C 1.4827969 20.200563 1.4558125 20.981547 1.1328125 21.685547 C 0.6148125 23.680547 0.43625 25.699953 0.65625 27.751953 C 0.81025 29.183953 1.0835938 30.592281 1.4335938 31.988281 C 1.6405937 32.811281 1.8759062 33.629703 2.0039062 34.470703 C 2.0829062 34.989703 2.1142344 35.507297 2.1152344 36.029297 C 2.1162344 36.326297 2.1605469 36.622453 2.4355469 36.814453 C 2.5675469 36.904453 2.6716719 37.017484 2.7636719 37.146484 C 2.9866719 37.462484 3.1646875 37.804063 3.3046875 38.164062 C 3.7796875 39.380062 4.270375 40.589812 4.859375 41.757812 C 5.484375 42.998812 6.2879375 44.098438 7.3359375 45.023438 C 8.0749375 45.674437 8.8198438 46.317594 9.5898438 46.933594 C 10.152844 47.385594 10.753453 47.786234 11.314453 48.240234 C 12.084453 48.862234 12.742938 49.596766 13.335938 50.384766 C 13.841938 51.057766 14.477047 51.558437 15.248047 51.898438 C 16.911047 52.633437 18.567422 53.380281 20.232422 54.113281 C 21.222422 54.549281 22.236953 54.925781 23.251953 55.300781 C 23.646953 55.446781 24.048609 55.610109 24.349609 55.912109 C 24.563609 56.126109 24.804891 56.240734 25.087891 56.302734 C 25.644891 56.424734 26.209437 56.429906 26.773438 56.378906 C 27.385438 56.327906 27.976719 56.200234 28.511719 55.865234 C 28.822719 55.670234 29.180781 55.567828 29.550781 55.548828 C 29.969781 55.527828 30.383109 55.469234 30.787109 55.365234 C 31.692109 55.131234 32.601297 54.906156 33.529297 54.785156 C 34.412297 54.669156 35.269844 54.460141 36.089844 54.119141 C 38.127844 53.275141 40.115547 52.322156 42.060547 51.285156 C 43.069547 50.745156 44.063563 50.176266 44.851562 49.322266 C 44.940562 49.225266 45.047734 49.138516 45.177734 49.103516 C 45.288734 49.072516 45.381703 49.018219 45.470703 48.949219 C 45.825703 48.676219 46.143938 48.360875 46.460938 48.046875 C 48.001937 46.506875 49.342625 44.798641 50.640625 43.056641 C 51.356625 42.094641 51.984062 41.080125 52.414062 39.953125 C 52.684062 39.247125 53.013609 38.569531 53.349609 37.894531 C 53.583609 37.428531 53.798266 36.950172 53.947266 36.451172 C 54.235266 35.497172 54.518062 34.541031 54.789062 33.582031 C 54.997062 32.852031 55.188563 32.117516 55.226562 31.353516 C 55.249562 30.902516 55.315516 30.462875 55.478516 30.046875 C 55.743516 29.378875 55.832359 28.689547 55.818359 28.060547 C 55.822359 27.188547 55.725844 26.404 55.589844 25.625 C 55.288844 23.907 54.811031 22.234609 54.207031 20.599609 C 52.972031 17.258609 51.307906 14.127453 49.503906 11.064453 C 49.184906 10.522453 48.770391 10.0735 48.275391 9.6875 C 47.748391 9.2745 47.206297 8.882 46.654297 8.5 C 45.965297 8.023 45.294109 7.52375 44.662109 6.96875 C 43.766109 6.18075 42.772688 5.5320625 41.679688 5.0390625 C 40.893687 4.6860625 40.1645 4.24025 39.4375 3.78125 C 38.1705 2.98325 36.858562 2.2813438 35.351562 2.0273438 C 34.781562 1.9313437 34.263188 1.6697344 33.742188 1.4277344 C 32.192187 0.70673437 30.570563 0.30315625 28.851562 0.28515625 z M 27.255859 3.1230469 C 27.581406 3.1194844 27.907625 3.1239687 28.234375 3.1367188 C 29.166375 3.1727188 30.089953 3.2744688 31.001953 3.4804688 C 31.666953 3.6304687 32.286484 3.8905937 32.896484 4.1835938 C 33.990484 4.7075938 35.131031 5.1381719 36.207031 5.7011719 C 36.793031 6.0081719 37.314531 6.4173281 37.894531 6.7363281 C 39.702531 7.7283281 41.333547 8.9689062 42.935547 10.253906 C 43.380547 10.610906 43.799312 10.996234 44.320312 11.240234 C 44.778312 11.453234 45.156188 11.758047 45.492188 12.123047 C 45.770188 12.427047 45.993078 12.773953 46.205078 13.126953 C 47.013078 14.475953 47.721906 15.873469 48.253906 17.355469 C 48.364906 17.661469 48.404375 17.986828 48.484375 18.298828 C 48.575375 18.652828 48.682516 19.000906 48.978516 19.253906 C 49.103516 19.362906 49.137547 19.525594 49.185547 19.683594 C 49.339547 20.196594 49.555859 20.688547 49.755859 21.185547 C 50.116859 22.086547 50.52475 22.969672 50.84375 23.888672 C 51.09475 24.609672 51.150703 25.349516 51.095703 26.103516 C 51.005703 27.371516 50.900484 28.637344 50.771484 29.902344 C 50.635484 31.241344 50.507312 32.581531 50.195312 33.894531 C 50.081312 34.379531 49.90825 34.839391 49.65625 35.275391 C 49.34625 35.817391 49.155266 36.415 48.947266 37 C 48.637266 37.876 48.250672 38.714812 47.763672 39.507812 C 47.623672 39.735812 47.504234 39.978031 47.365234 40.207031 C 47.268234 40.367031 47.266641 40.557703 47.181641 40.720703 C 47.041641 40.991703 46.876453 41.245328 46.689453 41.486328 C 45.472453 43.068328 44.116219 44.521922 42.574219 45.794922 C 42.349219 45.978922 42.108516 46.135344 41.853516 46.277344 C 41.498516 46.475344 41.176641 46.722969 40.931641 47.042969 C 40.495641 47.616969 39.949328 48.067703 39.361328 48.470703 C 38.171328 49.285703 36.907297 49.958062 35.529297 50.414062 C 34.444297 50.774062 33.326594 50.942219 32.183594 50.949219 C 31.618594 50.951219 31.054281 50.949219 30.488281 50.949219 C 29.521281 50.960219 28.555937 50.951672 27.585938 50.888672 C 27.403937 50.876672 27.222016 50.852078 27.041016 50.830078 C 27.001016 50.825078 26.953828 50.821828 26.923828 50.798828 C 26.573828 50.539828 26.153094 50.504875 25.746094 50.421875 C 24.202094 50.112875 22.674766 49.728484 21.134766 49.396484 C 20.140766 49.180484 19.249109 48.761891 18.412109 48.212891 C 17.395109 47.545891 16.338188 46.953781 15.242188 46.425781 C 14.918188 46.269781 14.603734 46.091578 14.302734 45.892578 C 14.008734 45.697578 13.744547 45.484969 13.560547 45.167969 C 13.386547 44.866969 13.12275 44.630734 12.84375 44.427734 C 12.20675 43.963734 11.696141 43.377141 11.244141 42.744141 C 10.576141 41.807141 9.8379375 40.936594 8.9609375 40.183594 C 8.4359375 39.733594 8.0697656 39.178766 7.8847656 38.509766 C 7.7967656 38.190766 7.6878281 37.881031 7.5488281 37.582031 C 7.4418281 37.351031 7.3277188 37.126266 7.1367188 36.947266 C 7.0127188 36.831266 6.92725 36.682719 6.90625 36.511719 C 6.85225 36.049719 6.7019687 35.614594 6.5429688 35.183594 C 6.0829688 33.935594 5.7818594 32.645609 5.5058594 31.349609 C 5.2658594 30.219609 5.0654531 29.083547 4.9394531 27.935547 C 4.8504531 27.125547 4.8792813 26.319672 4.9882812 25.513672 C 5.2112812 23.870672 5.5638438 22.255641 6.0898438 20.681641 C 6.2678437 20.147641 6.4683281 19.623953 6.7363281 19.126953 C 6.8143281 18.984953 6.8999062 18.847656 7.0039062 18.722656 C 7.3189063 18.347656 7.5665781 17.929375 7.7675781 17.484375 C 7.8805781 17.235375 7.9960625 16.988531 8.1640625 16.769531 C 8.2540625 16.651531 8.3542812 16.546656 8.4882812 16.472656 C 8.6112813 16.406656 8.6894375 16.290641 8.7734375 16.181641 C 8.9704375 15.923641 9.1459688 15.648375 9.2929688 15.359375 C 10.107969 13.761375 11.163297 12.325687 12.279297 10.929688 C 13.066297 9.9456875 13.903219 9.0055781 14.824219 8.1425781 C 14.987219 7.9905781 15.158937 7.8459375 15.335938 7.7109375 C 15.629938 7.4859375 15.954172 7.3554062 16.326172 7.3164062 C 16.791172 7.2674062 17.203359 7.0920625 17.568359 6.7890625 C 18.510359 6.0070625 19.559344 5.3849375 20.652344 4.8359375 C 21.834344 4.2429375 23.053609 3.7383594 24.349609 3.4433594 C 25.308109 3.2251094 26.279219 3.1337344 27.255859 3.1230469 z M 28.345703 9.3535156 L 25.423828 14.439453 L 27.609375 14.435547 L 27.609375 17.683594 C 25.234618 17.849303 23.075466 18.793035 21.380859 20.265625 L 19.078125 17.962891 L 20.617188 16.417969 L 14.947266 14.910156 L 16.476562 20.574219 L 18.019531 19.025391 L 20.320312 21.326172 C 18.847497 23.02016 17.904825 25.17854 17.738281 27.552734 L 14.486328 27.552734 L 14.480469 25.369141 L 9.40625 28.3125 L 14.494141 31.236328 L 14.488281 29.052734 L 17.738281 29.052734 C 17.904799 31.426555 18.847894 33.585428 20.320312 35.279297 L 18.017578 37.580078 L 16.470703 36.039062 L 14.964844 41.710938 L 20.628906 40.179688 L 19.080078 38.638672 L 21.378906 36.339844 C 23.073323 37.812935 25.232578 38.755726 27.607422 38.921875 L 27.607422 42.171875 L 25.421875 42.177734 L 28.367188 47.253906 L 31.289062 42.164062 L 29.107422 42.169922 L 29.107422 38.921875 C 31.480369 38.754992 33.638656 37.811736 35.332031 36.339844 L 37.632812 38.640625 L 36.089844 40.189453 L 41.763672 41.695312 L 40.230469 36.03125 L 38.691406 37.576172 L 36.394531 35.279297 C 37.866331 33.585609 38.808139 31.425979 38.974609 29.052734 L 42.226562 29.052734 L 42.230469 31.236328 L 47.306641 28.292969 L 42.21875 25.369141 L 42.222656 27.552734 L 38.974609 27.552734 C 38.80808 25.178652 37.865268 23.020128 36.392578 21.326172 L 38.693359 19.025391 L 40.242188 20.566406 L 41.748047 14.896484 L 36.083984 16.427734 L 37.632812 17.96875 L 35.333984 20.267578 C 33.640407 18.795012 31.481003 17.850521 29.107422 17.683594 L 29.107422 14.431641 L 31.291016 14.427734 L 28.345703 9.3535156 z M 27.609375 19.185547 L 27.609375 24.253906 C 27.851773 24.210087 28.099133 24.177734 28.355469 24.177734 C 28.613469 24.177734 28.862422 24.208906 29.107422 24.253906 L 29.107422 19.185547 C 31.068344 19.345986 32.853639 20.123619 34.271484 21.328125 L 30.691406 24.908203 C 31.106406 25.194203 31.464953 25.55375 31.751953 25.96875 L 35.332031 22.388672 C 36.536039 23.806577 37.314571 25.591697 37.474609 27.552734 L 32.404297 27.552734 C 32.450297 27.796734 32.480469 28.045734 32.480469 28.302734 C 32.480469 28.559734 32.450297 28.808734 32.404297 29.052734 L 37.474609 29.052734 C 37.314602 31.013838 36.535992 32.798868 35.332031 34.216797 L 31.753906 30.638672 C 31.467906 31.053672 31.106406 31.412219 30.691406 31.699219 L 34.271484 35.279297 C 32.854044 36.482793 31.067702 37.261519 29.107422 37.421875 L 29.107422 32.351562 C 28.862422 32.397562 28.613469 32.427734 28.355469 32.427734 C 28.098469 32.427734 27.850422 32.398516 27.607422 32.353516 L 27.607422 37.421875 C 25.646234 37.261944 23.859404 36.483266 22.441406 35.279297 L 26.021484 31.699219 C 25.606484 31.413219 25.247937 31.053672 24.960938 30.638672 L 21.380859 34.21875 C 20.175958 32.800514 19.398365 31.014734 19.238281 29.052734 L 24.306641 29.052734 C 24.261641 28.808734 24.230469 28.559734 24.230469 28.302734 C 24.230469 28.045734 24.261641 27.796734 24.306641 27.552734 L 19.238281 27.552734 C 19.398365 25.590735 20.175958 23.804955 21.380859 22.386719 L 24.958984 25.966797 C 25.244984 25.551797 25.605484 25.19225 26.021484 24.90625 L 22.441406 21.326172 C 23.859866 20.12181 25.647436 19.345126 27.609375 19.185547 z "
   transform="translate(-7.087,-7.087)"
   id="path2" />

</svg>