<?xml version="1.0" encoding="UTF-8" standalone="no"?>
<!-- Generator: Adobe Illustrator 16.0.0, SVG Export Plug-In . SVG Version: 6.00 Build 0)  -->

<svg
   xmlns:dc="http://purl.org/dc/elements/1.1/"
   xmlns:cc="http://creativecommons.org/ns#"
   xmlns:rdf="http://www.w3.org/1999/02/22-rdf-syntax-ns#"
   xmlns:svg="http://www.w3.org/2000/svg"
   xmlns="http://www.w3.org/2000/svg"
   xmlns:sodipodi="http://sodipodi.sourceforge.net/DTD/sodipodi-0.dtd"
   xmlns:inkscape="http://www.inkscape.org/namespaces/inkscape"
   version="1.1"
   id="Layer_1"
   x="0px"
   y="0px"
   width="56.693px"
   height="56.693px"
   viewBox="-7.087 -7.087 56.693 56.693"
   enable-background="new -7.087 -7.087 56.693 56.693"
   xml:space="preserve"
   sodipodi:docname="Carte_Zone.svg"
   inkscape:version="0.92.0 r15299"><metadata
   id="metadata29"><rdf:RDF><cc:Work
       rdf:about=""><dc:format>image/svg+xml</dc:format><dc:type
         rdf:resource="http://purl.org/dc/dcmitype/StillImage" /></cc:Work></rdf:RDF></metadata><defs
   id="defs27">
	
	

	
	
	
	
	
	
	
</defs><sodipodi:namedview
   pagecolor="#ffffff"
   bordercolor="#666666"
   borderopacity="1"
   objecttolerance="10"
   gridtolerance="10"
   guidetolerance="10"
   inkscape:pageopacity="0"
   inkscape:pageshadow="2"
   inkscape:window-width="1280"
   inkscape:window-height="961"
   id="namedview25"
   showgrid="false"
   inkscape:zoom="4.1627714"
   inkscape:cx="-3.8435933"
   inkscape:cy="28.3465"
   inkscape:window-x="-8"
   inkscape:window-y="-8"
   inkscape:window-maximized="1"
   inkscape:current-layer="Layer_1" />

<path
   style="fill:#bd0926"
   d="M 28.851562 0.28515625 C 27.582563 0.27115625 26.317734 0.30667228 25.052734 0.38867188 C 24.253734 0.44067187 23.487672 0.60875 22.763672 0.96875 C 22.199672 1.24975 21.602234 1.4611875 20.990234 1.6171875 C 20.176234 1.8251875 19.385328 2.0949219 18.611328 2.4199219 C 17.555328 2.8629219 16.521047 3.3422656 15.623047 4.0722656 C 15.287047 4.3452656 14.908172 4.5332187 14.451172 4.5742188 C 13.799172 4.6322187 13.249422 4.9578906 12.732422 5.3378906 C 12.468422 5.5308906 12.254719 5.7781875 12.011719 5.9921875 C 11.808719 6.1711875 11.599078 6.3471094 11.330078 6.4121094 C 11.193078 6.4461094 11.068078 6.4942654 10.955078 6.5722656 C 9.7650782 7.3782656 8.7404064 8.3507814 7.9414062 9.5507812 C 7.3864063 10.382781 6.9386875 11.275766 6.4296875 12.134766 C 6.2596875 12.422766 6.0860937 12.707797 5.8710938 12.966797 C 5.6990938 13.173797 5.4957969 13.314844 5.2167969 13.339844 C 4.9557969 13.363844 4.7639531 13.505609 4.6269531 13.724609 C 4.5129531 13.905609 4.42375 14.100875 4.34375 14.296875 C 4.06075 14.992875 3.7115313 15.644719 3.2695312 16.261719 C 2.5705313 17.240719 2.08775 18.336516 1.71875 19.478516 C 1.48475 20.203516 1.4577656 20.9845 1.1347656 21.6875 C 0.61676563 23.6825 0.43820313 25.701906 0.65820312 27.753906 C 0.81220312 29.186906 1.0855469 30.594234 1.4355469 31.990234 C 1.6425469 32.813234 1.8778594 33.632656 2.0058594 34.472656 C 2.0848594 34.991656 2.1161875 35.50825 2.1171875 36.03125 C 2.1181875 36.32825 2.1625005 36.624406 2.4375 36.816406 C 2.5695 36.906406 2.673625 37.019438 2.765625 37.148438 C 2.988625 37.463438 3.1656406 37.806969 3.3066406 38.167969 C 3.7816406 39.383969 4.2723281 40.591766 4.8613281 41.759766 C 5.4863281 42.999766 6.2898906 44.100391 7.3378906 45.025391 C 8.0768906 45.676391 8.8227969 46.319547 9.5917969 46.935547 C 10.154797 47.386547 10.755406 47.788187 11.316406 48.242188 C 12.087406 48.863186 12.744891 49.597719 13.337891 50.386719 C 13.843891 51.059719 14.478 51.560391 15.25 51.900391 C 16.913 52.634391 18.570375 53.381234 20.234375 54.115234 C 21.224375 54.551234 22.238906 54.926734 23.253906 55.302734 C 23.648906 55.448734 24.050562 55.613062 24.351562 55.914062 C 24.565562 56.128062 24.807844 56.242688 25.089844 56.304688 C 25.646844 56.426687 26.211391 56.43186 26.775391 56.380859 C 27.387391 56.329859 27.978672 56.202186 28.513672 55.867188 C 28.825672 55.672186 29.182734 55.568781 29.552734 55.550781 C 29.971734 55.529781 30.385064 55.47219 30.789062 55.367188 C 31.694063 55.133186 32.60325 54.908109 33.53125 54.787109 C 34.41425 54.671109 35.270797 54.462094 36.091797 54.121094 C 38.129797 53.277094 40.1165 52.324109 42.0625 51.287109 C 43.0715 50.747109 44.065516 50.178219 44.853516 49.324219 C 44.942516 49.227219 45.049687 49.140469 45.179688 49.105469 C 45.290687 49.074469 45.383656 49.020169 45.472656 48.951172 C 45.774656 48.719172 46.047359 48.4545 46.318359 48.1875 C 46.040359 48.3335 45.727578 48.423828 45.392578 48.423828 L 39.421875 48.423828 C 39.400875 48.438828 39.383328 48.455703 39.361328 48.470703 C 38.171328 49.285703 36.907297 49.958062 35.529297 50.414062 C 34.444297 50.774062 33.326594 50.942219 32.183594 50.949219 C 31.618594 50.951219 31.054281 50.949219 30.488281 50.949219 C 29.520281 50.961219 28.554844 50.953722 27.589844 50.888672 C 27.406844 50.876672 27.225922 50.851125 27.044922 50.828125 C 27.004922 50.823125 26.957732 50.819925 26.927734 50.796875 C 26.577734 50.537875 26.157 50.502922 25.75 50.419922 C 24.206 50.109922 22.677672 49.726531 21.138672 49.394531 C 20.143672 49.178531 19.254969 48.759937 18.417969 48.210938 C 17.399969 47.543937 16.342094 46.951828 15.246094 46.423828 C 14.921094 46.267828 14.606641 46.089625 14.306641 45.890625 C 14.012641 45.696625 13.747453 45.484016 13.564453 45.166016 C 13.390453 44.865016 13.126656 44.630734 12.847656 44.427734 C 12.343656 44.060734 11.931734 43.603141 11.552734 43.119141 L 11.121094 43.119141 C 10.080094 43.119141 9.2139063 42.320203 9.1289062 41.283203 L 9.1191406 41.183594 L 9.109375 41.070312 C 9.090375 40.841313 9.1207344 40.615484 9.1777344 40.396484 C 9.1027344 40.328484 9.0398906 40.248641 8.9628906 40.181641 C 8.4378906 39.731641 8.0697656 39.176814 7.8847656 38.507812 C 7.8537656 38.396814 7.8035786 38.292594 7.7675781 38.183594 L 6.1191406 38.183594 C 5.0151406 38.183594 4.1191406 37.287594 4.1191406 36.183594 L 4.1191406 35.65625 C 4.1191406 35.61125 4.1298125 35.568439 4.1328125 35.523438 C 4.1298125 35.479438 4.1191406 35.437578 4.1191406 35.392578 L 4.1191406 34.337891 C 4.1191406 34.099891 4.1611406 33.863625 4.2441406 33.640625 C 4.3751406 33.288625 4.5191562 32.966297 4.6601562 32.654297 C 4.8671562 32.196297 5.0814219 31.721875 5.1074219 31.421875 C 5.1504219 30.921875 5.1894688 30.410297 5.2304688 29.904297 C 5.1154687 29.251297 5.0124531 28.5965 4.9394531 27.9375 C 4.8504531 27.1265 4.8812344 26.319672 4.9902344 25.513672 C 5.1612344 24.250672 5.4118594 23.00525 5.7558594 21.78125 C 5.7908594 21.08625 5.8254214 20.395688 5.8574219 19.679688 C 5.9394219 17.823688 6.9571094 16.631266 8.6621094 16.322266 C 8.7011094 16.277266 8.7374374 16.229646 8.7734375 16.181641 C 8.9714375 15.923641 9.1469219 15.648375 9.2949219 15.359375 C 10.109922 13.761375 11.163297 12.323734 12.279297 10.927734 C 13.066297 9.9437348 13.905172 9.0055781 14.826172 8.1425781 C 14.989172 7.9895781 15.159891 7.8449844 15.337891 7.7089844 C 15.631891 7.4849844 15.956125 7.3544531 16.328125 7.3144531 C 16.793125 7.2654531 17.205314 7.0901094 17.570312 6.7871094 C 18.512314 6.0051094 19.561297 5.3829844 20.654297 4.8339844 C 21.837297 4.2409844 23.055563 3.7364062 24.351562 3.4414062 C 25.629562 3.1504063 26.930328 3.0837656 28.236328 3.1347656 C 29.168328 3.1717656 30.090906 3.2735156 31.003906 3.4785156 C 31.667906 3.6285156 32.287436 3.8886406 32.898438 4.1816406 C 33.992438 4.7056406 35.131984 5.1362187 36.208984 5.6992188 C 36.795984 6.0062187 37.316484 6.415375 37.896484 6.734375 C 39.704484 7.726375 41.3355 8.9669532 42.9375 10.251953 C 43.3815 10.607953 43.801266 10.994281 44.322266 11.238281 C 44.780266 11.451281 45.158141 11.757094 45.494141 12.121094 C 45.772141 12.425094 45.995031 12.772 46.207031 13.125 C 47.015031 14.475 47.723859 15.872516 48.255859 17.353516 C 48.366859 17.660516 48.406328 17.984875 48.486328 18.296875 C 48.577328 18.650875 48.684469 18.998953 48.980469 19.251953 C 49.105469 19.360953 49.1395 19.523641 49.1875 19.681641 C 49.3415 20.195641 49.557814 20.686594 49.757812 21.183594 C 50.118814 22.084594 50.526703 22.967719 50.845703 23.886719 C 51.096703 24.608719 51.152656 25.347563 51.097656 26.101562 C 51.007656 27.369563 50.902438 28.635391 50.773438 29.900391 C 50.637438 31.239391 50.508266 32.579578 50.197266 33.892578 C 50.083266 34.377578 49.910203 34.837438 49.658203 35.273438 C 49.348203 35.815438 49.157219 36.413047 48.949219 36.998047 C 48.639219 37.874047 48.253625 38.712859 47.765625 39.505859 C 47.624625 39.734859 47.505188 39.977078 47.367188 40.205078 C 47.270188 40.365078 47.268598 40.55575 47.183594 40.71875 C 47.042594 40.98975 46.877406 41.242375 46.691406 41.484375 C 46.034406 42.339375 45.331937 43.152828 44.585938 43.923828 L 45.675781 44.0625 C 46.740781 44.1975 47.508016 45.175094 47.416016 46.246094 L 47.386719 46.578125 C 47.366719 46.822125 47.301129 47.050719 47.203125 47.261719 C 48.437125 45.932719 49.558578 44.510641 50.642578 43.056641 C 51.359578 42.094641 51.987016 41.080125 52.416016 39.953125 C 52.686016 39.248125 53.015563 38.569531 53.351562 37.894531 C 53.584564 37.427531 53.799219 36.950172 53.949219 36.451172 C 54.237219 35.497172 54.519016 34.541031 54.791016 33.582031 C 54.998016 32.852031 55.189516 32.116516 55.228516 31.353516 C 55.251516 30.903516 55.317466 30.462875 55.480469 30.046875 C 55.745469 29.378875 55.833313 28.690547 55.820312 28.060547 C 55.822312 27.188547 55.724842 26.404 55.589844 25.625 C 55.288844 23.906 54.813984 22.233609 54.208984 20.599609 C 52.973984 17.259609 51.309859 14.128453 49.505859 11.064453 C 49.187859 10.522453 48.773344 10.0735 48.277344 9.6875 C 47.750347 9.2745 47.206297 8.883 46.654297 8.5 C 45.965297 8.022 45.294109 7.52375 44.662109 6.96875 C 43.766109 6.18075 42.773641 5.5320625 41.681641 5.0390625 C 40.895641 4.6860625 40.1635 4.24125 39.4375 3.78125 C 38.1705 2.98225 36.860516 2.2813437 35.353516 2.0273438 C 34.783516 1.9313437 34.262188 1.6707344 33.742188 1.4277344 C 32.192188 0.70673437 30.570563 0.30315625 28.851562 0.28515625 z M 30.755859 8.6074219 C 29.754317 8.635621 28.736984 8.7788748 27.705078 9.0429688 C 24.613078 9.8349687 22.389078 11.848922 20.205078 14.419922 C 21.197078 14.524922 21.853766 14.595062 22.509766 14.664062 C 21.976766 14.895062 21.456406 14.924672 20.941406 14.888672 C 20.003406 14.822672 19.363375 15.228672 19.234375 16.138672 C 19.035375 17.533672 18.235797 17.772453 16.966797 17.814453 C 16.028797 17.845453 14.790594 17.487125 14.308594 18.453125 C 13.787594 18.293125 13.325281 18.02925 12.863281 18.03125 C 11.697281 18.03725 10.532234 18.168281 9.3652344 18.238281 C 8.3972344 18.295281 7.9064219 18.653625 7.8574219 19.765625 C 7.6824219 23.711625 7.4405625 27.656797 7.1015625 31.591797 C 7.0205625 32.527797 6.4600938 33.421937 6.1210938 34.335938 L 6.1210938 35.390625 C 6.6250938 35.342625 7.1284531 35.294345 7.3144531 35.277344 C 7.2724531 34.640344 7.1716564 34.151734 7.2226562 33.677734 C 7.3946563 32.070734 7.6835938 30.473281 7.8085938 28.863281 C 8.0445937 25.844281 8.1957186 22.818875 8.3867188 19.796875 C 8.4377188 18.990875 8.7450937 18.543187 9.7460938 18.992188 L 9.7460938 21.177734 L 9.7460938 23.318359 C 10.138094 22.191359 10.283125 21.066547 10.328125 19.935547 C 10.395125 18.232547 11.748109 18.737828 12.662109 18.548828 C 13.751109 18.323828 13.692484 19.160234 13.771484 19.865234 C 13.867484 20.728234 14.007906 21.586266 14.128906 22.447266 C 14.468906 21.910266 14.504922 21.404438 14.544922 20.898438 C 14.750922 18.268438 15.005078 18.083359 17.705078 18.193359 C 18.575078 18.229359 19.006531 18.507344 19.019531 19.402344 C 19.030531 20.152344 19.108251 20.901391 19.15625 21.650391 L 19.267578 21.644531 C 19.344578 20.629531 19.423 19.615609 19.5 18.599609 C 19.641 18.605609 19.780875 18.611187 19.921875 18.617188 C 19.921875 20.516187 20.153137 22.450641 19.869141 24.306641 C 19.380141 27.496641 19.869422 30.617766 20.107422 33.759766 C 20.180422 34.728766 20.579844 35.548656 21.714844 35.722656 C 22.786844 35.886656 23.857875 36.062625 24.921875 36.265625 C 25.275875 36.332625 25.888203 36.469906 25.908203 36.628906 C 26.055203 37.894906 26.986109 38.014781 27.912109 38.050781 C 28.846109 38.088781 29.039391 38.625813 29.025391 39.382812 C 29.015391 39.903813 29.097871 40.471547 28.921875 40.935547 C 28.710875 41.485547 28.32525 42.006641 27.90625 42.431641 C 27.41225 42.932641 26.800281 43.316 26.238281 43.75 C 26.300281 43.884 26.363781 44.019344 26.425781 44.152344 L 33.691406 44.152344 C 33.698406 44.054344 33.704937 43.957375 33.710938 43.859375 L 27.453125 43.859375 C 28.135125 43.061375 28.680922 42.361516 29.294922 41.728516 C 29.668922 41.342516 30.122937 40.820531 30.585938 40.769531 C 33.098937 40.495531 35.625436 40.342062 38.148438 40.164062 C 38.540438 40.137062 38.958266 40.120375 39.322266 40.234375 C 39.544266 40.302375 39.685281 40.630797 39.863281 40.841797 C 39.700281 40.955797 39.538 41.069594 39.375 41.183594 C 39.603 42.787594 39.828406 44.390312 40.066406 46.070312 C 38.930406 45.956312 38.161578 45.814312 37.392578 45.820312 C 36.578578 45.826313 35.764172 45.973594 34.951172 46.058594 C 34.954172 46.179594 34.956984 46.300875 34.958984 46.421875 L 41.636719 46.421875 L 45.392578 46.421875 L 45.396484 46.421875 C 45.406484 46.296875 45.417734 46.171875 45.427734 46.046875 C 44.609752 45.94385 43.730075 45.833171 42.681641 45.699219 C 42.549599 45.682349 42.475756 45.672194 42.335938 45.654297 C 42.335938 43.742297 42.19911 41.651656 42.412109 39.597656 C 42.485109 38.899656 42.665469 37.813141 43.855469 37.494141 C 44.376469 37.353141 44.909422 36.620922 45.107422 36.044922 C 45.419422 35.136922 45.902094 34.901953 46.746094 35.126953 L 46.746094 34.599609 C 46.540094 34.313609 46.298578 34.046328 46.142578 33.736328 C 45.725578 32.907328 46.316609 31.527156 44.849609 31.285156 C 44.388609 31.209156 43.894547 31.341 43.435547 31.375 L 43.435547 33.128906 C 43.121547 33.108906 42.868641 33.092078 42.681641 33.080078 C 42.613641 32.169078 42.455719 31.310797 42.511719 30.466797 C 42.572719 29.564797 41.877906 29.204125 41.378906 29.203125 C 40.864906 29.203125 40.093437 29.680578 39.898438 30.142578 C 39.612437 30.823578 39.694219 31.676078 39.699219 32.455078 C 39.705219 33.362078 39.841359 34.271734 39.818359 35.177734 C 39.813359 35.384734 39.390436 35.580391 39.023438 35.900391 C 38.941437 34.786391 38.995248 33.930437 38.78125 33.148438 C 38.62425 32.573437 38.223328 31.849859 37.736328 31.630859 C 37.076328 31.334859 36.544 31.939234 36.375 32.615234 C 36.197155 33.327612 36.12654 34.065587 36.011719 34.792969 C 35.801444 34.566582 35.43642 34.336581 35.441406 34.117188 C 35.475406 32.522188 35.591641 30.930891 35.681641 29.337891 L 35.65625 29.314453 C 36.86125 30.341453 38.827328 29.758437 39.736328 27.898438 L 35.783203 27.898438 C 37.242203 27.234437 38.826469 28.105813 40.230469 27.382812 C 40.224469 27.222812 40.219854 27.063297 40.214844 26.904297 L 35.664062 26.904297 C 35.670063 26.762297 35.675641 26.620516 35.681641 26.478516 C 36.920641 26.539516 38.182484 26.472516 39.396484 26.478516 C 40.398484 26.483516 40.886125 26.388156 41.328125 25.535156 C 42.439125 23.389156 42.734266 21.134719 42.572266 18.761719 C 42.507266 17.798719 42.196531 17.347953 41.144531 17.376953 C 38.825531 17.439953 36.502641 17.396484 34.181641 17.396484 C 34.180641 17.197484 34.179734 16.997828 34.177734 16.798828 L 42.191406 16.798828 C 41.392406 14.079828 40.455906 11.866781 38.128906 10.550781 C 36.080788 9.3914575 33.954375 8.7241211 31.751953 8.6171875 C 31.42159 8.6011475 31.089707 8.5980222 30.755859 8.6074219 z M 22.798828 16.242188 C 23.012828 16.566187 23.386156 16.88075 23.410156 17.21875 C 23.489156 18.30675 23.439176 19.403625 23.701172 20.515625 C 23.867172 19.240625 24.033219 17.964453 24.199219 16.689453 C 24.267219 16.683453 24.336297 16.677875 24.404297 16.671875 C 24.488297 16.953875 24.572031 17.235453 24.707031 17.689453 C 24.920031 17.197453 25.068797 16.855672 25.216797 16.513672 C 25.326797 16.518672 25.436875 16.524297 25.546875 16.529297 C 25.546875 16.957297 25.559972 17.383547 25.544922 17.810547 C 25.424922 21.140547 25.302828 24.471781 25.173828 27.800781 C 25.085828 30.074781 24.953828 32.346094 24.923828 34.621094 C 24.919828 34.912094 25.407859 35.210891 25.630859 35.462891 C 24.688859 35.947891 22.077969 35.672141 21.167969 34.869141 C 20.293969 34.098141 20.550371 31.046219 21.109375 30.074219 C 21.699375 29.048219 21.941141 27.717859 21.994141 26.505859 C 22.103141 24.023859 21.983031 21.531969 21.957031 19.042969 L 21.939453 19.068359 C 22.057453 18.432359 22.139641 17.787063 22.306641 17.164062 C 22.394641 16.836063 22.629828 16.548186 22.798828 16.242188 z M 11.632812 21.710938 C 11.376812 25.566938 11.343391 29.421437 11.400391 33.273438 C 11.413391 34.170438 11.135687 34.730141 10.429688 35.244141 C 9.051687 36.249141 7.5801875 35.809297 6.1171875 35.654297 L 6.1171875 36.181641 L 20.570312 36.181641 C 19.946312 35.850641 18.872875 35.613172 18.421875 34.951172 C 17.903875 34.190172 17.783766 33.058031 17.759766 32.082031 C 17.692766 29.273031 17.776669 26.462344 17.761719 23.652344 C 17.758719 23.151344 17.565936 22.651391 17.460938 22.150391 C 17.287937 22.149391 17.114406 22.148438 16.941406 22.148438 C 16.830406 22.603437 16.632047 23.057625 16.623047 23.515625 C 16.574047 26.061625 16.608109 28.61025 16.537109 31.15625 C 16.495109 32.64825 16.309453 34.137906 16.189453 35.628906 C 16.005453 35.623906 15.821672 35.618291 15.638672 35.613281 L 15.638672 30.009766 C 15.508672 30.011766 15.378047 30.014578 15.248047 30.017578 C 15.248047 31.523578 15.283609 33.030203 15.224609 34.533203 C 15.208609 34.921203 14.935891 35.598906 14.712891 35.628906 C 13.455891 35.794906 12.177516 35.804141 10.853516 35.869141 C 11.176516 35.307141 11.635844 34.883391 11.589844 34.525391 C 11.313844 32.409391 12.287172 30.607641 12.826172 28.681641 C 13.243172 27.188641 13.610484 25.817359 15.771484 25.568359 C 14.535484 25.218359 13.116156 25.845047 12.910156 26.623047 C 12.639156 27.647047 12.466953 28.698281 12.251953 29.738281 C 12.172953 29.718281 12.094625 29.700641 12.015625 29.681641 C 11.888625 27.024641 11.760813 24.367938 11.632812 21.710938 z M 17.027344 23.28125 C 17.086344 23.29425 17.144125 23.305359 17.203125 23.318359 L 17.203125 28.480469 L 17.027344 28.480469 L 17.027344 23.28125 z M 19.982422 25.474609 C 21.253422 26.245609 21.753516 27.026141 21.478516 28.119141 C 21.323516 28.732141 21.071281 29.323828 20.863281 29.923828 C 20.679281 29.894828 20.494547 29.864937 20.310547 29.835938 C 20.206547 28.462937 20.103422 27.087609 19.982422 25.474609 z M 32.785156 26.246094 C 32.941605 26.223964 33.128437 26.231141 33.351562 26.275391 C 33.817563 26.367391 34.143609 27.1605 34.474609 27.6875 L 34.474609 28.609375 C 34.474609 28.678375 34.530609 28.734375 34.599609 28.734375 C 34.668609 28.734375 34.724609 28.678375 34.724609 28.609375 L 34.724609 27.359375 C 34.724609 27.354375 34.71975 27.350673 34.71875 27.345703 C 34.73675 27.275703 34.752484 27.203859 34.771484 27.130859 L 35.056641 27.130859 C 35.056641 29.137859 35.061781 31.144344 35.050781 33.152344 C 35.048781 33.586344 34.919749 34.028172 34.96875 34.451172 C 35.05675 35.212172 35.455953 35.288936 36.001953 34.835938 C 36.003953 34.832937 36.005813 34.828239 36.007812 34.824219 C 36.009713 34.814819 36.011872 34.805525 36.013672 34.796875 C 36.019372 34.802975 36.02585 34.808153 36.03125 34.814453 C 36.02025 34.823453 36.011953 34.830891 36.001953 34.837891 C 35.853953 35.118891 35.750062 35.571906 35.539062 35.628906 C 35.045064 35.763906 34.497656 35.695703 33.972656 35.720703 C 31.113656 35.855703 30.553391 35.008203 31.400391 32.158203 C 31.639391 31.352203 31.435547 30.415109 31.435547 29.537109 L 31.042969 29.546875 C 30.938969 30.818875 30.792234 32.087328 30.740234 33.361328 C 30.688234 34.651328 30.728104 35.945469 30.537109 37.230469 C 30.546109 33.956469 30.059906 26.955437 31.003906 27.023438 C 31.433906 27.054437 31.207828 28.218859 31.298828 28.755859 C 32.046953 28.016484 31.690012 26.40101 32.785156 26.246094 z M 29.904297 28.935547 C 29.966297 28.938547 30.025891 28.941359 30.087891 28.943359 L 30.087891 39.904297 C 30.025891 39.905297 29.966297 39.904297 29.904297 39.904297 L 29.904297 28.935547 z M 34.597656 29.695312 C 34.528656 29.695312 34.472656 29.751313 34.472656 29.820312 L 34.472656 33.361328 C 34.472656 33.430328 34.528656 33.486328 34.597656 33.486328 C 34.666656 33.486328 34.722656 33.430328 34.722656 33.361328 L 34.722656 29.820312 C 34.722656 29.750312 34.666656 29.695312 34.597656 29.695312 z M 41.957031 30.111328 C 42.031031 31.501328 42.105594 32.890844 42.183594 34.339844 C 42.228594 34.351844 42.4345 34.402547 42.5625 34.435547 C 41.1255 35.927547 42.313531 37.711328 41.644531 39.236328 L 41.644531 30.130859 C 41.748531 30.124859 41.853031 30.117328 41.957031 30.111328 z M 33.107422 30.392578 C 32.372422 30.576578 32.017687 31.039672 32.054688 31.763672 L 32.054688 34.722656 C 32.054688 34.791656 32.110687 34.847656 32.179688 34.847656 C 32.248687 34.847656 32.304688 34.791656 32.304688 34.722656 L 32.304688 31.757812 C 32.273687 31.146812 32.547969 30.789766 33.167969 30.634766 C 33.234969 30.617766 33.275763 30.551376 33.259766 30.484375 C 33.244766 30.417375 33.173426 30.373581 33.107422 30.392578 z M 17.041016 30.898438 C 17.233016 32.203436 17.487906 33.928375 17.753906 35.734375 L 16.751953 35.734375 C 16.857953 33.961375 16.960016 32.234437 17.041016 30.898438 z M 25.849609 31.121094 C 29.100609 31.516094 30.059078 33.323062 28.455078 36.164062 C 28.299078 35.396062 28.0905 34.768813 28.0625 34.132812 C 28.0255 33.271813 27.627047 33.235141 26.998047 33.494141 C 26.998254 33.490041 27 33.486742 27 33.482422 C 26.79 33.522422 26.578422 33.564812 26.232422 33.632812 C 26.106422 32.802813 25.980609 31.978094 25.849609 31.121094 z M 38.335938 32.818359 C 38.335938 33.403359 38.31276 33.989266 38.34375 34.572266 C 38.36975 35.075266 38.31587 35.908812 38.546875 36.007812 C 39.059875 36.226813 39.730969 36.074219 40.417969 36.074219 C 40.416969 36.630219 40.417969 37.314703 40.417969 37.845703 C 39.764969 37.642703 39.145531 37.299109 38.519531 37.287109 C 37.346531 37.266109 36.943719 36.698625 37.011719 35.640625 C 37.069719 34.729625 37.160219 33.819203 37.449219 32.908203 C 37.449219 33.593203 37.469302 34.279844 37.445312 34.964844 C 37.376312 37.024844 37.776141 37.337344 39.869141 36.777344 C 39.783141 36.673344 39.718625 36.515766 39.640625 36.509766 C 37.670625 36.349766 37.671344 36.352484 37.902344 34.396484 C 37.964344 33.875484 38.005938 33.353359 38.335938 32.818359 z M 26.998047 33.496094 C 26.996447 33.515334 26.993688 33.535918 26.992188 33.554688 C 26.990088 33.536777 26.988028 33.519633 26.986328 33.501953 C 26.991328 33.499953 26.993027 33.498094 26.998047 33.496094 z M 26.994141 33.574219 C 27.074361 34.281953 27.217098 34.991541 27.201172 35.697266 C 27.179172 36.778266 27.631328 37.130172 28.861328 36.826172 C 27.012328 36.710172 27.586484 35.505141 27.521484 34.869141 C 27.788484 35.251141 28.170734 35.79775 28.552734 36.34375 C 28.907734 35.99975 29.263406 35.657234 29.566406 35.365234 C 29.568406 36.836234 29.568359 38.502922 29.568359 40.169922 C 29.519359 40.170922 29.472829 40.172828 29.423828 40.173828 C 29.423828 39.754828 29.450009 39.333016 29.417969 38.916016 C 29.355969 38.105016 29.160859 37.395281 28.130859 37.363281 C 26.940859 37.326281 26.705937 36.592313 26.835938 35.570312 C 26.919528 34.909526 26.945597 34.240996 26.994141 33.574219 z M 42.513672 35.595703 C 43.176672 35.668703 43.839906 35.741453 44.503906 35.814453 C 44.549906 35.936453 44.597526 36.057688 44.644531 36.179688 C 43.923531 36.482686 43.201219 36.787203 42.324219 37.158203 C 42.414219 36.412203 42.464672 36.003703 42.513672 35.595703 z M 40.941406 36.306641 C 41.029406 36.308641 41.117078 36.312453 41.205078 36.314453 L 41.205078 45.962891 C 40.602078 45.024891 40.823188 44.000328 40.867188 42.986328 C 40.915188 41.851328 40.927453 40.715125 40.939453 39.578125 C 40.950453 38.488125 40.941406 37.396641 40.941406 36.306641 z M 33.355469 36.328125 C 34.099969 36.310875 34.841266 36.317703 35.572266 36.408203 C 35.981266 36.458203 36.269891 37.475891 36.712891 38.212891 L 39.673828 38.212891 C 39.736828 38.357891 39.800281 38.502484 39.863281 38.646484 C 39.285281 38.990484 38.739094 39.538672 38.121094 39.638672 C 36.424094 39.910672 34.697547 39.994203 32.935547 40.158203 C 33.172547 37.233203 33.172922 37.233484 31.169922 36.896484 C 31.152922 36.730484 31.136141 36.564438 31.119141 36.398438 C 31.863141 36.386937 32.610969 36.345375 33.355469 36.328125 z M 38.109375 40.513672 C 37.596875 40.496172 37.005469 40.700234 36.417969 41.177734 L 39.330078 41.177734 C 39.055578 40.770234 38.621875 40.531172 38.109375 40.513672 z M 39.330078 41.177734 C 39.336078 41.186734 39.343609 41.191219 39.349609 41.199219 C 39.356609 41.194219 39.365094 41.189624 39.371094 41.183594 C 39.371094 41.181594 39.369141 41.178781 39.369141 41.175781 C 39.356141 41.176781 39.344078 41.177734 39.330078 41.177734 z M 16.341797 40.583984 C 14.595797 40.690984 12.849516 40.79825 11.103516 40.90625 C 11.109516 40.97725 11.115094 41.048141 11.121094 41.119141 L 16.373047 41.119141 C 16.362047 40.940141 16.351797 40.762984 16.341797 40.583984 z "
   transform="translate(-7.087,-7.087)"
   id="path2" />
</svg>