<?xml version="1.0" encoding="utf-8"?>
<!-- Generator: Adobe Illustrator 16.0.0, SVG Export Plug-In . SVG Version: 6.00 Build 0)  -->
<!DOCTYPE svg PUBLIC "-//W3C//DTD SVG 1.1//EN" "http://www.w3.org/Graphics/SVG/1.1/DTD/svg11.dtd">
<svg version="1.1" id="Layer_1" xmlns="http://www.w3.org/2000/svg" xmlns:xlink="http://www.w3.org/1999/xlink" x="0px" y="0px"
	 width="56.693px" height="56.693px" viewBox="-7.087 -7.087 56.693 56.693" enable-background="new -7.087 -7.087 56.693 56.693"
	 xml:space="preserve">
<path fill="#BD0926" d="M22.959,18.645c-0.137-0.187-0.101-0.343,0.013-0.565c0.271-0.53,0.443-1.28,0.516-2.23
	c0.059-0.768,0.206-1.22,0.438-1.344c0.316-0.167,0.616,0.001,0.863,0.518c0.165,0.348,0.181,0.507,0.245,2.423
	c0.021,0.618,0.05,1.01,0.074,1.215c0.015-0.009,0.03-0.019,0.047-0.029c0.062-0.035,0.1-0.084,0.145-0.258
	c0.036-0.141,0.091-0.352,0.276-0.352c0.096,0,0.188,0.068,0.227,0.163c0.015-0.003,0.03-0.004,0.047-0.004
	c0.17,0,0.299,0.164,0.301,0.382c0.039-0.031,0.09-0.071,0.148-0.122c0.189-0.166,0.221-0.219,0.226-0.235
	c-0.008-0.007-0.034-0.09,0.019-0.161c0.053-0.072,0.144-0.072,0.173-0.072c0.08,0,0.19,0.037,0.244,0.118
	c0.067,0.105,0.193,0.511,0.227,0.712c0.017-0.016,0.038-0.037,0.063-0.064c0.106-0.112,0.274-0.216,0.392-0.242
	c0.175-0.039,0.175-0.039,0.601-0.286c0.272-0.159,0.41-0.202,0.701-0.22c0.085-0.004,0.148-0.007,0.192-0.007
	c0.062,0,0.176,0,0.204,0.106c0.013,0.047,0.007,0.115-0.094,0.172c-0.043,0.024-0.111,0.079-0.143,0.115
	c-0.065,0.073-0.229,0.15-0.355,0.188c-0.239,0.072-0.306,0.15-0.31,0.167c0.003,0.015,0.034,0.115,0.086,0.229
	c0.056,0.122,0.15,0.378,0.21,0.571c0.062,0.2,0.129,0.397,0.154,0.455c0.005,0.012,0.457,1.102,0.334,1.225l-0.037,0.037
	L29.11,21.26c-0.117,0-0.203-0.116-0.296-0.401c-0.126-0.39-0.39-0.83-0.688-1.148l-0.215-0.228l-0.187,0.129
	c-0.226,0.156-0.603,0.596-0.631,0.694c0.002,0.098-0.075,0.156-0.151,0.156c-0.087,0-0.168-0.073-0.202-0.179
	c-0.001,0-0.003,0.001-0.004,0.001c-0.266,0.067-0.331-0.127-0.345-0.263c-0.001,0.001-0.002,0.001-0.003,0.002
	c-0.063,0.066-0.16,0.146-0.261,0.146c-0.058,0-0.11-0.028-0.14-0.075c-0.009,0.001-0.019,0.002-0.029,0.002
	c-0.083,0-0.118-0.062-0.167-0.147c-0.05-0.086-0.088-0.22-0.089-0.312c-0.001-0.043-0.017-0.089-0.025-0.101
	c-0.111-0.11-0.054-0.262-0.029-0.327c0.02-0.049,0.035-0.126,0.048-0.209c-0.086,0.152-0.254,0.314-0.378,0.314
	c0.006,0.001-0.014,0.021-0.026,0.056c-0.034,0.091-0.1,0.202-0.15,0.259c-0.014,0.021-0.016,0.102-0.005,0.145
	c0.043,0.022,0.103,0.084,0.198,0.255c0.06,0.105,0.141,0.179,0.188,0.195c0.256,0.089,0.442,0.474,0.424,0.875
	c-0.007,0.14,0.001,0.24,0.006,0.261c0.006,0.005,0.034,0.053,0.07,0.682c0.038,0.711-0.01,0.972-0.192,1.033l-0.045,0.008h-0.053
	l-0.049-0.043c-0.051-0.052-0.072-0.131-0.066-0.463c0.006-0.313-0.013-0.369-0.052-0.412c-0.123-0.136-0.12-0.246-0.088-0.745
	c0.041-0.623-0.033-0.704-0.048-0.714c-0.145,0-0.29-0.192-0.347-0.275c-0.081-0.121-0.198-0.288-0.26-0.372
	c-0.127-0.17-0.145-0.306-0.198-1.076c-0.032-0.461-0.076-1.467-0.097-2.244c-0.023-0.933-0.052-1.23-0.066-1.325
	c-0.015-0.003-0.033-0.006-0.053-0.008c0,0.008,0,0.018,0,0.03c0,0.301-0.195,1.137-0.312,1.334
	c-0.049,0.083-0.126,0.252-0.167,0.371c-0.044,0.126-0.102,0.277-0.128,0.333c-0.137,0.292-0.242,0.563-0.312,0.809
	c-0.062,0.218-0.157,0.467-0.344,0.467C23.097,18.754,23.024,18.735,22.959,18.645z M29.218,21.368c-0.079,0-0.173,0.05-0.173,0.287
	c0,0.237,0.094,0.286,0.173,0.286l0.05-0.008c0.104-0.036,0.142-0.173,0.142-0.278c0-0.106-0.037-0.242-0.145-0.279L29.218,21.368z
	 M16.252,15.087c0.149,0,0.292-0.124,0.438-0.379c0.138-0.243,0.307-0.587,0.413-0.842c0.002,0.036,0.005,0.076,0.007,0.12
	c0.038,0.718,0.133,0.999,0.462,1.366c0.239,0.266,0.326,0.266,0.363,0.266l0.091-0.007l0.035-0.069
	c0.041-0.081,0.004-0.18-0.135-0.366c-0.196-0.264-0.323-0.547-0.376-0.844c-0.021-0.118-0.024-0.642-0.017-1.096
	c0.061,0.201,0.129,0.393,0.175,0.487c0.053,0.109,0.108,0.328,0.121,0.478c0.011,0.133,0.047,0.363,0.104,0.457
	c0.202,0.327,0.341,1.349,0.226,1.657c-0.05,0.135-0.049,0.243,0.005,0.321c0.022,0.032,0.074,0.085,0.176,0.095
	c0.004,0.187,0.133,0.392,0.306,0.392l0.072-0.013c0.131-0.049,0.157-0.194,0.186-0.702c0.027-0.492,0.044-0.526,0.102-0.578
	c0.332-0.292,0.623-0.749,0.918-1.438l0.021-0.049c0.022,0.031,0.048,0.068,0.075,0.106l0.062,0.088
	c0.084,0.119,0.126,0.178,0.209,0.178c0.052,0,0.139-0.024,0.139-0.188c0.065,0.204,0.124,0.421,0.155,0.593
	c0.031,0.173,0.135,0.455,0.238,0.641c0.125,0.224,0.24,0.374,0.392,0.374c0.142,0,0.226-0.13,0.277-0.229
	c0.06-0.116,0.127-0.192,0.185-0.211c0.029,0.048,0.084,0.192,0.124,0.506c0.037,0.294,0.211,0.756,0.412,1.099
	c0.019,0.03,0.035,0.058,0.051,0.082c-0.018-0.001-0.032-0.001-0.045-0.001c-0.083,0-0.233,0.014-0.309,0.107
	c-0.066,0.083-0.159,0.416-0.163,0.431c-0.085,0.312-0.394,1.003-0.634,1.422c-0.049,0.085-0.158,0.296-0.111,0.42
	c0.032,0.085,0.099,0.135,0.178,0.135c0.302,0,0.682-0.909,0.831-1.3c0.03-0.082,0.06-0.153,0.086-0.214
	c0.09,0.712,0.213,0.811,0.26,0.847c0.074,0.061,0.13,0.086,0.186,0.086l0.082-0.011l0.037-0.044
	c0.056-0.065,0.053-0.163,0.03-0.297c-0.016-0.102-0.042-0.435-0.056-0.768c-0.014-0.301-0.036-0.51-0.068-0.624l0.05-0.065
	c0.065-0.116-0.055-0.357-0.166-0.54c-0.1-0.165-0.264-0.712-0.307-1.093c-0.044-0.403-0.18-0.634-0.372-0.634
	c-0.188,0-0.414,0.145-0.537,0.344c-0.014,0.022-0.027,0.041-0.04,0.056c-0.069-0.103-0.18-0.355-0.242-0.651
	c-0.122-0.582-0.313-1.154-0.455-1.363c-0.118-0.173-0.21-0.226-0.394-0.226c-0.106,0-0.123-0.028-0.131-0.042
	c-0.026-0.042-0.095-0.15-0.219-0.15c-0.107,0-0.199,0.077-0.331,0.219c-0.148,0.159-0.211,0.29-0.242,0.502
	c-0.054,0.375-0.362,1.059-0.524,1.311c-0.021-0.057-0.046-0.132-0.073-0.222c-0.058-0.198-0.16-0.498-0.227-0.669
	c-0.414-1.056-0.53-1.389-0.568-1.622c-0.026-0.16-0.074-0.369-0.109-0.477c-0.166-0.512-0.226-0.661-0.318-0.795
	c-0.04-0.059-0.066-0.123-0.069-0.135c0-0.188-0.257-0.296-0.393-0.214c-0.098,0.06-0.105,0.229-0.105,0.279
	c0,0.044-0.009,0.08-0.005,0.077c-0.049,0.029-0.117,0.07-0.226,0.825c-0.054,0.373-0.136,0.809-0.178,0.953
	c-0.435,1.484-0.463,1.633-0.333,1.763C16.126,15.072,16.202,15.087,16.252,15.087z M34.271,3.431c0.082,0,0.124-0.059,0.146-0.102
	c-0.006,0.115-0.009,0.252-0.009,0.416V4.2l-0.133,0.117c-0.078,0.068-0.143,0.112-0.167,0.125
	c-0.087,0.015-0.147,0.104-0.147,0.222c0,0.128,0.076,0.225,0.178,0.225c0.165,0,0.591-0.339,0.633-0.505
	c0.021-0.093,0.032-0.463,0.033-0.688c0.002-0.317,0.011-0.588,0.015-0.626c0.015-0.112-0.038-0.217-0.125-0.248L34.64,2.813
	c-0.114,0-0.176,0.078-0.207,0.314c-0.013-0.045-0.035-0.089-0.066-0.124c-0.092-0.107-0.302-0.602-0.306-0.693
	c0.001-0.096,0.11-0.481,0.183-0.617c0.016-0.027,0.03-0.032,0.049-0.012c0.104,0.338,0.56,1.197,0.737,1.392
	c0.149,0.167,0.373,0.689,0.373,0.873c0,0.111,0.078,0.199,0.177,0.199c0.068,0,0.127-0.029,0.163-0.083
	c0.072-0.106,0.046-0.285-0.093-0.635c-0.091-0.232-0.143-0.381-0.146-0.391c0-0.029,0-0.106-0.204-0.257
	c-0.063-0.047-0.174-0.197-0.24-0.346c-0.567-1.275-0.697-1.275-0.782-1.275c-0.322,0-0.613,0.795-0.614,1.17
	c-0.001,0.225,0.299,0.901,0.458,1.034C34.163,3.397,34.21,3.431,34.271,3.431z M29.75,22.374c0.019,0.136,0.062,0.327,0.099,0.427
	c0.015,0.041,0.096,0.247,0.241,0.247c0.107,0,0.152-0.058,0.17-0.093c0.048-0.097-0.014-0.198-0.078-0.284
	c-0.02-0.025-0.049-0.117-0.05-0.197c-0.003-0.304-0.17-0.861-0.432-0.861c-0.034,0-0.068,0.01-0.098,0.028l-0.063,0.053
	l-0.011,0.052c-0.016,0.072,0.012,0.152,0.095,0.275C29.676,22.098,29.735,22.263,29.75,22.374z M35.892,5.84
	c-0.017-0.027-0.027-0.074,0.007-0.228c0.051-0.224,0.039-0.312-0.068-0.52c-0.06-0.116-0.115-0.264-0.128-0.324
	c-0.021-0.099-0.079-0.227-0.18-0.261c-0.017-0.005-0.034-0.008-0.051-0.008l-0.09,0.012l-0.037,0.058
	c-0.092,0.147,0.067,0.506,0.119,0.613c0.112,0.235,0.07,0.837-0.077,1.092c-0.072,0.124-0.172,0.421-0.227,0.675
	c-0.065,0.3-0.141,0.458-0.164,0.483c-0.094,0.099-0.213,0.419-0.262,0.575c-0.004,0.013-0.009,0.026-0.013,0.041
	c-0.155-0.206-0.396-0.45-0.474-0.508C34.03,7.375,33.7,7.281,33.342,7.281c-0.308,0-0.594,0.069-0.809,0.192
	c0.049-0.091,0.136-0.249,0.213-0.384c0.006-0.009,0.503-0.891,0.562-1.118c0.014-0.025,0.081-0.111,0.191-0.224
	c0.224-0.227,0.29-0.351,0.245-0.459c-0.013-0.031-0.056-0.102-0.173-0.102c-0.137,0-0.607,0.458-0.606,0.578
	c-0.019,0.091-0.312,0.668-0.58,1.098c-0.328,0.529-0.417,0.672-0.293,0.797c0.044,0.043,0.097,0.066,0.153,0.066
	c0.015,0,0.031-0.001,0.048-0.005c-0.002,0.018,0,0.038,0.008,0.058c0.008,0.022,0.041,0.096,0.147,0.096
	c0.071,0,0.189-0.036,0.349-0.106c0.624-0.277,1.219-0.108,1.614,0.461c0.071,0.104,0.128,0.164,0.174,0.199
	c-0.058,0.151-0.118,0.304-0.17,0.421c-0.223,0.506-0.308,0.785-0.189,1.007c0.015,0.032,0.05,0.183,0.059,0.906
	c0.005,0.418,0.024,0.931,0.049,1.055c0.04,0.199,0.102,0.287,0.199,0.287l0.005,0c-0.031,0.366-0.062,1.222,0.04,1.325
	c0.046,0.045,0.092,0.068,0.137,0.068c0.142,0,0.142,0,0.142-0.821c0-0.741-0.035-0.821-0.175-0.821l-0.014,0.001
	c0.02-0.457,0.062-1.841-0.049-2.11l0.008-0.003c-0.007-0.017-0.02-0.087-0.02-0.181c0-0.154,0.165-0.628,0.379-1.008
	c0.041-0.073,0.099-0.294,0.124-0.401c0.04-0.177,0.073-0.219,0.065-0.219h-0.001c0.142-0.039,0.206-0.235,0.227-0.318
	c0.028-0.108,0.062-0.23,0.076-0.272c0.018-0.053,0.053-0.21,0.076-0.332c0.023-0.122,0.124-0.388,0.22-0.582
	C35.922,6.127,35.984,5.987,35.892,5.84z M31.747,10.462c0.032,0,0.089-0.009,0.141-0.06c0.012,0.002,0.022,0.003,0.032,0.003
	c0.071,0,0.135-0.041,0.332-0.191c0.134-0.102,0.264-0.16,0.398-0.178c0.409-0.054,0.614-0.081,0.614-0.28
	c0-0.042-0.016-0.181-0.214-0.181c-0.039,0-0.092,0.005-0.163,0.014c-0.462,0.06-0.697,0.146-0.899,0.331
	c-0.046,0.042-0.083,0.08-0.111,0.113c-0.075-0.168-0.12-0.834-0.036-1.341c0.067-0.401,0.076-0.495,0.016-0.566l-0.053-0.051
	h-0.058c-0.044,0-0.079,0.018-0.104,0.034c-0.277,0.171-0.297,1.71-0.169,2.081C31.531,10.363,31.631,10.462,31.747,10.462z
	 M30.088,17.825c0.007,0,0.015,0,0.021-0.001c-0.009,0.038,0,0.069,0.019,0.099c0.04,0.065,0.106,0.102,0.182,0.102
	c0.078,0,0.211-0.032,0.469-0.305c0.206-0.217,0.446-0.534,0.446-0.715c0-0.138-0.093-0.175-0.148-0.175
	c-0.061,0-0.116,0.034-0.196,0.13c0.198-0.366,0.295-0.729,0.295-1.109c0-0.079,0-0.226,0.011-0.24
	c0.318-0.064,0.484-0.04,0.501-0.03c0.091,0.057,0.221,0.078,0.298-0.029c0.027-0.01,0.106-0.026,0.262-0.026
	c0.207,0,0.432,0.029,0.558,0.073c0.176,0.062,0.246,0.081,0.3,0.081l0.091-0.009l0.038-0.052c0.03-0.042,0.035-0.095,0.015-0.155
	c-0.059-0.176-0.575-0.275-0.735-0.276c-0.042,0-0.084-0.013-0.11-0.027c0.009-0.01,0.021-0.024,0.038-0.042l0.217-0.23
	l-0.251-0.183c-0.053-0.039-0.083-0.086-0.086-0.088c0-0.086-0.049-0.188-0.106-0.234c-0.012-0.017-0.033-0.086-0.034-0.165
	c0-0.022-0.001-0.059,0-0.083c0.024-0.005,0.062-0.011,0.086-0.015l0.396-0.058c0.224-0.033,0.375-0.122,0.416-0.243
	c0.025-0.077,0.004-0.157-0.059-0.22c-0.055-0.054-0.12-0.079-0.212-0.079c-0.061,0-0.138,0.01-0.276,0.035
	c-0.038,0.007-0.074,0.013-0.107,0.018c0.055-0.051,0.128-0.106,0.21-0.146c0.274-0.133,0.655-0.136,0.844-0.006
	c0.082,0.056,0.192,0.162,0.236,0.226c0.091,0.137,0.161,0.193,0.241,0.193c0.016,0,0.156-0.005,0.156-0.195
	c0-0.216-0.483-0.625-0.714-0.688c-0.46-0.126-0.949-0.021-1.262,0.272c-0.014-0.123-0.034-0.312-0.065-0.593
	c-0.186-1.698-0.295-1.734-0.372-1.76l-0.04-0.012l-0.088,0.004l-0.037,0.043c-0.059,0.067-0.059,0.067,0.054,0.858l0.015,0.101
	c0.048,0.338,0.084,0.819,0.099,1.15c-0.062-0.011-0.139,0.02-0.18,0.079c-0.039,0.056-0.046,0.127-0.021,0.192
	c0.032,0.13-0.119,0.852-0.203,0.964c-0.087,0.117-0.126,0.252-0.106,0.361c0.009,0.102-0.231,0.448-0.329,0.475
	c-0.212,0.051-0.208,0.155-0.19,0.651c0.015,0.447,0.01,0.483-0.122,0.773c-0.076,0.168-0.227,0.394-0.327,0.494
	c-0.15,0.146-0.253,0.263-0.209,0.44c0.004,0.014,0.004,0.027,0.004,0.037c-0.046,0.039-0.085,0.099-0.085,0.166
	C29.93,17.766,30.01,17.825,30.088,17.825z M26.002,33.345c-0.175,0-0.295,0.286-0.296,0.289c-0.044,0.104-0.038,0.186,0.017,0.241
	c0.055,0.054,0.111,0.065,0.149,0.065c0.089,0,0.161-0.061,0.213-0.112c0.101-0.101,0.14-0.253,0.094-0.363
	C26.148,33.391,26.081,33.345,26.002,33.345z M25.109,41.551c0.145-0.286,0.07-0.364,0.043-0.393
	c-0.048-0.048-0.1-0.058-0.134-0.058c-0.155,0-0.281,0.179-0.434,0.616c-0.081,0.233-0.209,0.548-0.279,0.687
	c-0.055,0.106-0.146,0.296-0.146,0.368c0,0.097,0.078,0.176,0.175,0.176c0.182,0,0.424-0.489,0.424-0.618
	c0-0.015,0.007-0.03-0.007-0.024c0.054-0.039,0.112-0.147,0.175-0.323C24.973,41.855,25.055,41.66,25.109,41.551z M34.722,14.241
	l-0.072,0.007l-0.037,0.042c-0.042,0.048-0.064,0.122-0.038,0.327l0.017,0.131c0.14,1.103,0.14,1.103-0.158,1.939l-0.035,0.099
	c-0.102,0.287-0.218,0.64-0.266,0.803c-0.046,0.162-0.136,0.351-0.188,0.419c-0.083,0.11-0.153,0.296-0.172,0.453
	c-0.019,0.16-0.018,0.242,0.035,0.3l0.057,0.05h0.057l0.059-0.01c0.129-0.043,0.191-0.263,0.202-0.305
	c0.025-0.096,0.089-0.243,0.139-0.321c0.071-0.111,0.148-0.335,0.183-0.488c0.088-0.396,0.212-0.761,0.391-1.147
	c0.215-0.462,0.245-0.779,0.139-1.475C34.923,14.351,34.906,14.241,34.722,14.241z M33.048,37.637l0.123,0.039l-0.412,0.1
	c-0.01,0.002-0.02,0.005-0.028,0.007c-0.011,0.002-0.021,0.005-0.03,0.007h-0.003c-0.132,0.028-0.222,0.02-0.306-0.027
	c-0.012-0.006-0.024-0.011-0.038-0.016c0.016,0.052,0.019,0.102-0.01,0.147c-0.047,0.079-0.14,0.079-0.174,0.079
	c-0.112,0-0.2-0.076-0.2-0.173c-0.006-0.019-0.07-0.104-0.193-0.2l-0.015-0.011c-0.001,0-0.001-0.001-0.001-0.001l-0.017-0.013
	c-0.081-0.06-0.161-0.104-0.225-0.124c-0.486-0.155-0.703-0.17-1.253-0.076c-0.077,0.014-0.223,0.038-0.25,0.056
	c0.015,0.021,0.023,0.04,0.027,0.045c0.088,0.028,0.15,0.128,0.132,0.229c-0.019,0.101-0.106,0.168-0.219,0.168
	c-0.29,0-0.374-0.364-0.422-0.758c-0.029-0.231-0.065-0.478-0.081-0.547c-0.006-0.029-0.012-0.059-0.013-0.089
	c-0.039,0-0.118-0.004-0.166-0.07c-0.053-0.072-0.025-0.158-0.011-0.204c0.047-0.143,0.062-0.35,0.05-0.56
	c-0.012,0.201-0.053,0.374-0.122,0.506c-0.033,0.065-0.055,0.13-0.057,0.147c0,0.072-0.049,0.171-0.077,0.218
	c-0.016,0.024-0.03,0.047,0.012,0.184c0.033,0.112,0.054,0.275,0.029,0.37c-0.039,0.153-0.205,0.249-0.319,0.184
	c-0.027,0.313-0.139,0.672-0.289,0.776c-0.031,0.021-0.052,0.037-0.052,0.212c0,0.199-0.041,0.333-0.121,0.398
	c-0.009,0.01-0.029,0.056-0.029,0.096c-0.002,0.277-0.14,0.376-0.268,0.376l-0.052-0.005c-0.178-0.037-0.192-0.242-0.211-0.479
	c-0.015-0.194-0.026-0.388-0.027-0.43c-0.001-0.047-0.016-0.127-0.034-0.204c-0.034,0.085-0.073,0.196-0.112,0.327
	c-0.028,0.093-0.109,0.281-0.221,0.34c-0.05,0.037-0.211,0.323-0.247,0.512c-0.023,0.122-0.141,0.342-0.292,0.342
	c-0.077,0-0.152-0.067-0.181-0.096c-0.077-0.077-0.098-0.24-0.098-0.325c-0.001-0.146-0.173-0.755-0.245-0.868
	c-0.07,0.002-0.201,0.115-0.201,0.216c0,0.146-0.341,0.936-0.51,1c-0.088,0.034-0.193,0.006-0.263-0.052
	c-0.005,0.002-0.014,0.007-0.026,0.015c-0.044,0.027-0.094,0.054-0.154,0.054c-0.083,0-0.144-0.048-0.198-0.098
	c-0.137-0.124-0.144-0.249-0.147-0.711c-0.003-0.388-0.039-0.637-0.073-0.77c-0.106,0.242-0.351,0.72-0.476,0.932
	c-0.178,0.304-0.28,0.446-0.455,0.446l-0.048-0.003c-0.188-0.028-0.228-0.208-0.298-0.535c-0.051-0.238-0.123-0.62-0.161-0.852
	c-0.029-0.173-0.059-0.349-0.084-0.491c-0.164,0.471-0.607,1.143-0.887,1.143c-0.202,0-0.35-0.147-0.35-0.351
	c0-0.029-0.008-0.061-0.012-0.068c-0.019-0.016-0.06-0.057-0.067-0.689c-0.004-0.332-0.023-0.604-0.043-0.771
	c-0.113,0.127-0.265,0.314-0.33,0.42c-0.129,0.211-0.284,0.291-0.592,0.309h-0.001c-0.218,0-0.25-0.181-0.289-0.408
	c-0.031-0.178-0.069-0.478-0.085-0.67c-0.019-0.214-0.038-0.335-0.053-0.404c-0.003,0.005-0.007,0.012-0.012,0.018
	c-0.201,0.307-0.486,0.52-0.693,0.52c-0.112,0.001-0.201-0.062-0.237-0.164c-0.013-0.035-0.047-0.094-0.071-0.123
	c-0.084-0.101-0.106-0.462-0.11-0.533c-0.004-0.081-0.009-0.146-0.015-0.195c-0.022,0.062-0.05,0.145-0.081,0.259
	c-0.051,0.183-0.108,0.39-0.296,0.39c-0.199,0-0.236-0.208-0.248-0.277c-0.059-0.327-0.145-0.37-0.145-0.37
	c-0.291-0.092-0.351-0.436-0.351-0.922c0-0.271-0.026-0.498-0.054-0.637c-0.011,0.015-0.022,0.03-0.033,0.047
	c-0.048,0.068-0.068,0.107-0.076,0.127c0.079,0.11,0.076,0.308,0.051,0.422c-0.024,0.117-0.075,0.191-0.149,0.22
	c-0.026,0.01-0.054,0.015-0.082,0.015c-0.23,0-0.402-0.331-0.403-0.628c0-0.181-0.271-1.028-0.445-1.344
	c-0.161-0.292-0.202-0.389-0.202-0.567c0-0.047-0.009-0.086-0.015-0.103c-0.06-0.058-0.185-0.228-0.372-0.506
	c-0.301-0.45-0.797-1.129-0.948-1.296c-0.05-0.057-0.139-0.172-0.201-0.264c-0.054-0.077-0.238-0.316-0.426-0.548
	c-0.076-0.094-0.278-0.344-0.334-0.344l-0.031-0.123v0.125c-0.175,0-0.254-0.139-0.379-0.384c-0.085-0.166-0.24-0.392-0.337-0.492
	c-0.042-0.043-0.125-0.149-0.218-0.279c0.03,0.141,0.078,0.344,0.12,0.511c0.025,0.101,0.115,0.472,0.141,0.754
	c0.015-0.013,0.031-0.023,0.045-0.032c0.028-0.016,0.071-0.038,0.125-0.038c0.107,0,0.178,0.082,0.261,0.188
	c0.072,0.093,0.252,0.306,0.395,0.466c0.443,0.498,1.036,1.31,1.219,1.67c0.026,0.053,0.084,0.147,0.129,0.213
	c0.048,0.07,0.133,0.202,0.189,0.293c0.055,0.09,0.202,0.323,0.327,0.519c0.116,0.181,0.254,0.422,0.282,0.513
	c0.019,0.061,0.075,0.188,0.123,0.276c0.061,0.114,0.107,0.279,0.107,0.385c0,0.057,0.014,0.11,0.021,0.124
	c0.099,0.097,0.174,0.957,0.132,1.073c-0.033,0.091-0.103,0.145-0.186,0.145c-0.109,0-0.207-0.096-0.255-0.249
	c-0.029-0.097-0.08-0.333-0.112-0.527c-0.075-0.438-0.267-0.981-0.455-1.295c-0.089-0.148-0.178-0.303-0.197-0.342
	c-0.099-0.202-0.357-0.61-0.65-1.043c0.02,0.037,0.04,0.075,0.061,0.115c0.181,0.353,0.469,0.982,0.516,1.142
	c0.018,0.062,0.046,0.123,0.055,0.137c0.047,0.063,0.128,0.329,0.138,0.359c0.05,0.161,0.104,0.315,0.123,0.359
	c0.087,0.202,0.173,0.995,0.137,1.266c-0.001,0.009-0.124,0.833-0.263,1.009c-0.003,0.008-0.01,0.031-0.01,0.062
	c0,0.106-0.063,0.238-0.126,0.313l-0.311,0.371c-0.041,0.091-0.088,0.182-0.132,0.255c-0.077,0.13-0.135,0.235-0.164,0.291
	c0.017,0.023,0.043,0.058,0.076,0.095c0.146,0.165,0.358,0.467,0.413,0.609c0.044,0.01,0.142-0.031,0.285-0.183
	c0.224-0.237,0.705-0.602,0.927-0.671c0.04-0.013,0.197-0.096,0.353-0.197c0.226-0.146,0.228-0.159,0.25-0.309
	c0.032-0.214-0.013-0.591-0.068-0.694c-0.04-0.075-0.037-0.166,0.009-0.242c0.076-0.128,0.25-0.161,0.347-0.064
	c0.011,0.012,0.031,0.033,0.053,0.119c0.006-0.01,0.012-0.019,0.02-0.026c0.045-0.048,0.094-0.058,0.127-0.058
	c0.14,0,0.228,0.161,0.229,0.42c0,0.07,0.043,0.24,0.105,0.37c0.065,0.137,0.144,0.311,0.174,0.386
	c0.018,0.043,0.055,0.07,0.068,0.072c0.11,0.017,0.224,0.114,0.277,0.202c0.043,0.07,0.128,0.202,0.189,0.296
	c0.048,0.073,0.13,0.224,0.132,0.32c0.004,0.021,0.072,0.061,0.141,0.34c0.078,0.306,0.507,0.814,0.807,0.955
	c0.184,0.088,0.382,0.245,0.545,0.432c0.008,0.009,0.016,0.019,0.023,0.026c-0.021-0.087-0.046-0.188-0.071-0.287
	c-0.069-0.278-0.121-0.404-0.191-0.464c-0.114-0.094-0.161-0.208-0.126-0.306c0.03-0.082,0.112-0.132,0.219-0.132
	c0.277,0,0.454,0.47,0.521,0.872c0.037,0.219,0.208,0.554,0.266,0.6c0.05,0.017,0.09,0.056,0.102,0.109
	c0.02,0.083-0.039,0.146-0.067,0.176c-0.021,0.021-0.046,0.046-0.079,0.062c0.085,0.139,0.154,0.241,0.17,0.26
	c0.045,0.035,0.084,0.152,0.099,0.2c0.018,0.06,0.039,0.1,0.056,0.125c0.015-0.055,0.052-0.155,0.161-0.155
	c0.068,0,0.115,0.047,0.138,0.069c0.021,0.021,0.077,0.079,0.07,0.16c0,0.003-0.001,0.007-0.001,0.011
	c0.017-0.032,0.038-0.064,0.064-0.096c0.083-0.096,0.19-0.153,0.288-0.153c0.1,0,0.238,0.131,0.336,0.241
	c0.177,0.194,0.213,0.283,0.213,0.528c0,0.152-0.011,0.307-0.129,0.39c0.004,0.006,0.007,0.013,0.012,0.021
	c0.018,0.032,0.038,0.057,0.05,0.067c0.102,0.027,0.253,0.162,0.342,0.289c0.013-0.046,0.022-0.098,0.022-0.145
	c0-0.192,0.104-0.279,0.207-0.279c0.029,0,0.065,0.007,0.104,0.03c-0.007-0.098-0.023-0.221-0.046-0.258
	c-0.119-0.097-0.435-0.514-0.479-0.654c-0.034-0.111-0.006-0.227,0.072-0.294c0.045-0.036,0.087-0.043,0.114-0.043
	c0.116,0,0.188,0.103,0.313,0.32c0.052,0.091,0.115,0.203,0.14,0.219c0.019-0.001,0.041-0.006,0.07-0.011l0.327-0.059l-0.055,0.724
	c-0.023,0.292-0.041,0.72-0.039,0.935c0.004,0.256,0.006,0.409-0.095,0.486c0.032,0.001,0.071,0.002,0.117,0.002
	c0.307-0.002,0.316-0.006,0.565-0.193c0.149-0.112,0.253-0.223,0.269-0.253c0.041-0.159,0.156-0.173,0.19-0.173
	c0.03,0,0.081,0.009,0.129,0.056c0.023-0.031,0.059-0.08,0.109-0.161c0.247-0.39,0.815-0.923,1.191-1.117
	c0.217-0.111,0.419-0.171,0.585-0.171c0.236,0,0.389,0.131,0.389,0.333c0,0.215-0.208,0.215-0.375,0.215
	c-0.149,0-0.256,0.027-0.354,0.091c-0.014,0.009-0.025,0.018-0.036,0.024c0.486,0.19,0.876,0.525,1.075,0.92
	c0.043,0.086,0.085,0.15,0.112,0.188c0.026-0.013,0.066-0.032,0.107-0.057c0.079-0.047,0.113-0.093,0.221-0.459
	c0.146-0.498,0.217-0.64,0.587-1.168c0.194-0.277,0.188-0.288,0.168-0.327c-0.088-0.162-0.064-0.478,0.067-0.936
	c0.041-0.14,0.066-0.286,0.066-0.331c0-0.22,0.489-1.175,0.682-1.378c0.091-0.096,0.226-0.209,0.351-0.209
	c0.068,0,0.127,0.034,0.154,0.093c0.045,0.091,0.008,0.209-0.111,0.361c-0.203,0.259-0.569,1.045-0.576,1.167
	c0,0.096-0.054,0.323-0.105,0.489c-0.081,0.268-0.091,0.394-0.09,0.445c0.053,0.015,0.107,0.045,0.146,0.083
	c0.136,0.137-0.02,0.327-0.156,0.496c-0.109,0.133-0.178,0.233-0.196,0.266c-0.009,0.039-0.042,0.117-0.162,0.295
	c-0.178,0.266-0.304,0.552-0.434,0.989c-0.079,0.265-0.149,0.425-0.296,0.517c-0.056,0.036-0.112,0.075-0.132,0.094
	c-0.063,0.078-0.297,0.188-0.405,0.188c-0.197,0-0.771-0.662-0.9-0.831c-0.117-0.155-0.209-0.231-0.314-0.264
	c-0.237-0.07-0.299-0.045-0.299-0.042c-0.029,0.058-0.131,0.092-0.211,0.092c-0.004,0.006-0.09,0.071-0.179,0.179
	c-0.226,0.275-0.877,0.949-1.065,0.986c-0.057,0.012-0.222,0.034-0.362,0.049c-0.133,0.015-0.308,0.039-0.388,0.055
	c-0.034,0.008-0.065,0.011-0.096,0.011c-0.129,0-0.225-0.064-0.391-0.211c-0.14-0.123-0.302-0.334-0.37-0.48
	c-0.217-0.472-0.413-0.717-0.471-0.743c-0.095-0.043-0.189-0.132-0.189-0.233c-0.009-0.003-0.116-0.113-0.431-0.271
	c-0.278-0.14-0.465-0.271-0.465-0.456c-0.002,0-0.016-0.02-0.033-0.03c-0.093-0.06-0.283-0.327-0.37-0.461
	c-0.326-0.494-1.004-1.201-1.2-1.288c-0.148-0.066-0.399-0.302-0.57-0.493c-0.079-0.088-0.147-0.158-0.207-0.214
	c0.046,0.071,0.1,0.169,0.17,0.299c0.164,0.305,0.193,0.358,0.142,0.444c-0.043,0.073-0.122,0.073-0.168,0.073h-0.001
	c-0.128,0-0.257-0.181-0.307-0.259c-0.225-0.355-0.274-0.554-0.166-0.662c0.054-0.052,0.102-0.051,0.138-0.053
	c-0.043-0.029-0.073-0.044-0.091-0.051c-0.183-0.073-0.276-0.163-0.357-0.346c-0.005-0.011-0.009-0.021-0.013-0.029
	c-0.125,0.088-0.282,0.061-0.35-0.048c-0.018-0.004-0.054-0.008-0.117-0.008c-0.279,0-0.803,0.091-1.109,0.221
	c-0.172,0.073-0.319,0.34-0.288,0.464c0.015,0.06,0.036,0.143-0.016,0.209c-0.027,0.034-0.061,0.074-0.209,0.055
	c-0.211-0.031-0.225-0.168-0.22-0.331c0-0.009,0-0.017,0-0.023c-0.007,0.004-0.016,0.007-0.025,0.012
	c-0.037,0.017-0.088,0.077-0.115,0.16c-0.062,0.194-0.104,0.323-0.232,0.323c-0.083,0-0.133-0.066-0.16-0.103
	c-0.002,0.001-0.004,0.002-0.007,0.004c-0.02,0.011-0.035,0.022-0.044,0.03c-0.024,0.074-0.113,0.126-0.266,0.155
	c-0.059,0.011-0.241,0.104-0.403,0.23c-0.289,0.224-0.396,0.224-0.432,0.224l-0.054-0.007c0,0.003-0.057,0.025-0.152,0.107
	c-0.178,0.156-0.278,0.194-0.565,0.213c-0.061,0.004-0.112,0.006-0.156,0.006c-0.138,0-0.245-0.02-0.321-0.111
	c0,0-0.041-0.034-0.202-0.034c-0.276,0-0.432-0.075-0.725-0.351c-0.236-0.221-0.216-0.393-0.183-0.476
	c0.072-0.183,0.324-0.253,0.648-0.175c0.242,0.058,0.373,0.089,0.438,0.089c0.03,0,0.033,0,0.1-0.066
	c0.011-0.011,0.026-0.027,0.042-0.043c-0.102-0.089-0.102-0.143-0.102-0.164c0-0.059,0-0.08,0.5-0.58
	c0.49-0.49,0.647-0.696,0.935-1.23l0.04-0.073c0.458-0.852,0.458-0.852,0.487-1.313l0.003-0.041c0.018-0.279,0.008-0.701-0.021-0.96
	c-0.031-0.262-0.077-0.723-0.103-1.024c-0.075-0.858-0.343-1.639-0.652-1.898c-0.062-0.052-0.198-0.113-0.285-0.128
	c-0.076-0.013-0.305-0.051-0.305-0.234c0-0.058,0.021-0.178,0.242-0.184c-0.169-0.17-0.301-0.55-0.373-0.909
	c-0.022-0.108-0.065-0.195-0.405-0.235c-0.09-0.011-0.151-0.019-0.196-0.019c-0.038,0.01-0.063,0.049-0.084,0.084
	c-0.178,0.287-0.361,0.348-0.483,0.348c-0.046,0-0.092-0.009-0.136-0.025c-0.095-0.036-0.146-0.084-0.174-0.146
	c-0.038,0.049-0.092,0.098-0.167,0.098c-0.114,0-0.173-0.112-0.199-0.16c-0.009-0.017-0.03-0.031-0.039-0.034h-0.001
	c-0.082,0-0.189-0.051-0.251-0.098c-0.051-0.039-0.08-0.045-0.092-0.045c-0.027,0-0.066,0.033-0.11,0.093
	c-0.093,0.125-0.215,0.2-0.327,0.2c-0.041,0-0.111,0.019-0.141,0.038c-0.033,0.021-0.083,0.047-0.147,0.047
	c-0.079,0-0.146-0.037-0.237-0.102c-0.069-0.05-0.209-0.095-0.318-0.103c-0.277-0.021-0.308-0.054-0.333-0.079
	c-0.012-0.012-0.024-0.024-0.04-0.079c-0.006,0.009-0.012,0.016-0.018,0.022c-0.015,0.015-0.058,0.057-0.122,0.057
	c-0.077,0-0.12-0.033-0.15-0.123c-0.062,0.02-0.16,0.02-0.317,0.021c-0.189,0.001-0.374,0.033-0.417,0.056
	c-0.358,0.18-0.8,0.394-0.871,0.394c-0.027,0-0.098,0-0.212-0.163c-0.164-0.234-0.129-0.589,0.085-0.883
	c0.203-0.278,0.354-0.415,0.522-0.472c0.039-0.013,0.15-0.067,0.249-0.128c0.1-0.062,0.27-0.142,0.384-0.182
	c0.094-0.032,0.311-0.142,0.475-0.24c0.2-0.121,0.531-0.253,0.864-0.343c0.306-0.083,0.597-0.181,0.676-0.22
	c0.093-0.045,0.302-0.196,0.664-0.698c0.155-0.215,0.244-0.291,0.34-0.291c0.04,0,0.169,0.017,0.169,0.231
	c0,0.159-0.057,0.219-0.105,0.241c-0.023,0.024-0.075,0.092-0.137,0.19c-0.326,0.519-0.698,0.809-1.137,0.886
	c-0.339,0.06-0.99,0.288-1.069,0.353c-0.015,0.012-0.024,0.021-0.03,0.026c0.003,0.004,0.007,0.014,0.013,0.025
	c0.015,0.03,0.03,0.069,0.046,0.113c0.025-0.021,0.064-0.04,0.122-0.04c0.262,0,0.281,0.271,0.305,0.613l0.02,0.267l0.089,0.007
	c0.134,0.012,0.3,0.071,0.385,0.14c0.03,0.023,0.058,0.042,0.079,0.055c0.05-0.031,0.145-0.096,0.27-0.189
	c0.198-0.149,0.298-0.224,0.423-0.224c0.057,0,0.109,0.016,0.167,0.034c0.059,0.02,0.193,0.069,0.253,0.136
	c0.007,0.002,0.017,0.005,0.028,0.006c-0.002-0.032-0.006-0.072-0.009-0.096c-0.013-0.117-0.061-0.261-0.096-0.31
	c-0.043-0.062-0.116-0.19-0.116-0.284c0-0.142,0.087-0.205,0.174-0.205c0.146,0,0.271,0.177,0.333,0.281
	c0.068,0.117,0.097,0.138,0.102,0.141c-0.003-0.008,0.017-0.011,0.037-0.011c0.156,0,0.221,0.164,0.261,0.263
	c0.018,0.045,0.035,0.096,0.049,0.147c0.008-0.017,0.017-0.031,0.028-0.045c0.064-0.083,0.166-0.126,0.294-0.103
	c0.074,0.011,0.254,0.032,0.402,0.046c0.014,0.001,0.027,0.002,0.04,0.003c-0.032-0.086-0.07-0.215-0.116-0.406
	c-0.173-0.717-0.435-1.428-0.536-1.537c-0.05-0.056-0.159-0.131-0.232-0.162c-0.11-0.047-0.19-0.081-0.221-0.166
	c-0.029-0.081,0.009-0.152,0.049-0.228c0.017-0.03,0.059-0.109,0.136-0.143c-0.097-0.051-0.197-0.115-0.253-0.168
	c-0.14-0.13-0.309-0.418-0.284-0.595c-0.105-0.072-0.113-0.239-0.113-0.478c0-0.229-0.028-0.393-0.093-0.544
	c-0.057-0.132-0.111-0.32-0.096-0.422c0.021-0.142,0.109-0.24,0.215-0.24c0.084,0,0.174,0.066,0.174,0.214
	c0,0.029,0.024,0.115,0.06,0.178c0.032,0.057,0.075,0.156,0.112,0.257c0.009-0.048,0.037-0.117,0.079-0.159
	c-0.009,0.016-0.003-0.028-0.003-0.077c0-0.229,0.349-0.766,0.672-1.132c0.321-0.361,0.505-0.453,0.68-0.392
	c0.018,0.007,0.033,0.015,0.047,0.022c0.053-0.17,0.136-0.35,0.207-0.425c0.068-0.075,0.068-0.075,0.007-0.32
	c-0.012-0.046-0.023-0.085-0.035-0.118c-0.035,0.031-0.081,0.051-0.131,0.051c-0.073,0.007-0.432,0.194-0.746,0.446
	c-0.299,0.239-0.521,0.492-0.793,0.904c-0.179,0.269-0.221,0.332-0.314,0.332c-0.042,0-0.14-0.019-0.14-0.186
	c0-0.201,0.663-1.077,0.855-1.255c0.373-0.344,0.817-0.608,1.067-0.641c0.004-0.062,0.028-0.127,0.07-0.182
	c0.018-0.024,0.045-0.103,0.046-0.164c0.001-0.1,0.042-0.22,0.099-0.299c-0.162-0.118-0.395-0.375-0.504-0.507
	c-0.043-0.053-0.101-0.087-0.12-0.091h-0.001c-0.063,0-0.218-0.025-0.218-0.243c0-0.031-0.02-0.075-0.032-0.086
	c-0.09-0.074-0.104-0.172-0.1-0.246c-0.1,0.017-0.19-0.06-0.295-0.156c-0.062-0.055-0.109-0.09-0.132-0.105
	c-0.04-0.002-0.106-0.022-0.218-0.206c-0.036-0.06-0.079-0.1-0.093-0.107c-0.081,0.014-0.162-0.074-0.202-0.147
	c-0.042-0.056-0.574-0.61-1.264-1.302c-0.687-0.69-1.417-1.452-1.627-1.699c-0.209-0.246-0.463-0.542-0.562-0.658
	C8.553,15.705,8.416,15.52,8.461,15.4c-0.007,0-0.042-0.115-0.117-0.261c-0.09-0.177-0.17-0.425-0.182-0.563
	c-0.04-0.455-0.059-0.565-0.144-0.844c-0.141-0.459-0.161-1.312-0.041-1.69c0.066-0.208,0.081-0.42,0.078-1.132
	c-0.002-0.532-0.022-1.005-0.038-1.114C7.995,9.646,7.97,9.478,8.116,9.405C8.114,9.368,8.093,9.27,7.978,9.02
	C7.859,8.76,7.491,8.393,7.249,8.291C7.071,8.218,5.951,7.185,5.951,6.945c0-0.097-0.093-0.316-0.265-0.53
	C5.508,6.194,5.503,6.141,5.503,5.636c0-0.452-0.012-0.463-0.071-0.517c-0.21-0.193-0.77-0.541-0.867-0.563
	c-0.331-0.077-0.885-0.762-0.997-1.15c-0.031-0.108-0.04-0.262-0.02-0.358c0.033-0.162,0.176-0.271,0.357-0.271
	c0.123,0,0.242,0.052,0.327,0.142c0.185,0.196,0.526,0.292,1.18,0.333c0.784,0.049,1.583,0.238,1.898,0.448
	c0.245,0.164,1.137,1.057,1.344,1.346C8.727,5.147,8.913,5.384,9.07,5.573c0.16,0.195,0.362,0.463,0.451,0.598
	C9.606,6.3,9.763,6.506,9.873,6.632c0.113,0.13,0.317,0.376,0.455,0.548c0.242,0.301,0.944,1.019,1.367,1.396
	c0.241,0.215,0.264,0.28,0.341,0.698c0.042,0.232,0.119,0.548,0.171,0.705c0.102,0.305,0.204,0.695,0.114,0.82l-0.038,0.052
	l-0.08,0.009c-0.05,0-0.093-0.023-0.126-0.057c0.021,0.323,0.101,0.837,0.145,0.942c0.191,0.455,0.325,0.689,0.398,0.698
	c0.13,0.015,0.266,0.116,0.454,0.338l0.053,0.062c0.246,0.291,0.409,0.483,0.457,0.5c0.001-0.001,0.024-0.01,0.042-0.017
	c0.084-0.032,0.137-0.048,0.186-0.048c0.04,0,0.107,0.012,0.153,0.083c0.06-0.184,0.125-0.268,0.294-0.328
	c0.186-0.069,0.5,0.031,0.582,0.244c0.009,0.022,0.077,0.137,0.172,0.271c0.06,0.085,0.591,0.875,0.591,1.021
	c0,0.074-0.046,0.134-0.111,0.151c0.082,0.051,0.163,0.107,0.221,0.152c0.093,0.073,0.355,0.227,0.573,0.336
	c0.321,0.161,0.545,0.326,0.887,0.656c0.008,0.008,0.868,0.85,0.868,1.069c-0.003-0.015,0.044,0.069,0.118,0.184
	c0.1,0.158,0.115,0.158,0.189,0.159c0.119,0,0.438,0,0.44,0.291c0,0.031,0.023,0.12,0.057,0.186c0.078,0.148,0.07,0.271-0.02,0.328
	h0c0.009,0,0.038,0.072,0.139,0.152c0.221,0.176,0.221,0.259,0.221,0.287c0.003,0.004,0.042,0.105,0.11,0.244
	c0.019,0.039,0.065,0.135,0.099,0.222c0.014-0.018,0.03-0.041,0.047-0.067c0.3-0.449,0.521-0.648,0.716-0.648
	c0.077,0,0.184,0.03,0.262,0.176c0.158,0.296,0.266,0.896,0.155,1.082c-0.033,0.055-0.086,0.087-0.146,0.087
	c-0.2,0-0.2-0.237-0.2-0.327c0-0.14-0.033-0.319-0.064-0.437c-0.053,0.074-0.166,0.229-0.266,0.364l-0.174,0.237l0.032,0.449
	c0.006,0.077,0.014,0.154,0.023,0.229c0.087-0.056,0.219-0.119,0.408-0.205c0.182-0.082,0.428-0.175,0.544-0.132
	c0.04,0.015,0.122,0.047,0.134,0.136c0.014,0.093-0.06,0.149-0.137,0.209c-0.084,0.063-0.218,0.127-0.312,0.148
	c-0.051,0.012-0.108,0.053-0.119,0.07c-0.117,0.185-0.334,0.163-0.449,0.15c0.008,0.033,0.017,0.06,0.024,0.079
	c0.063,0.161,0.063,0.161,0.208,0.186c0.156,0.027,0.252,0.054,0.316,0.117c0.002-0.019,0.008-0.037,0.018-0.053l0.036-0.064
	l0.101-0.013c0.098,0,0.178,0.079,0.178,0.175c0,0.167-0.154,0.201-0.235,0.145c0.002,0.008,0.004,0.017,0.006,0.025
	c0.042,0.173-0.029,0.266-0.167,0.368c-0.082,0.06-0.216,0.141-0.301,0.173c-0.03,0.011-0.047,0.018-0.071,0.197
	c-0.043,0.318-0.128,0.361-0.206,0.361c-0.064,0-0.12-0.035-0.15-0.088c-0.093,0.036-0.306,0.14-0.382,0.199
	c-0.077,0.059-0.805,0.361-0.836,0.374c-0.445,0.185-0.792,0.336-0.835,0.358c-0.042,0.022-0.567,0.243-0.936,0.383
	c0.057,0.046,0.12,0.111,0.196,0.202c0.006,0.007,0.583,0.722,0.583,0.885c0.002,0,0.023,0.055,0.059,0.125
	c0.046,0.089,0.097,0.251,0.115,0.367c0.002,0.013,0.006,0.038,0.01,0.062c0.001-0.001,0.002-0.001,0.004-0.001
	c0.214-0.045,0.288,0.057,0.427,0.242c0.071,0.096,0.134,0.158,0.16,0.179c0.048,0.013,0.141,0.065,0.335,0.271
	c0.247,0.259,0.381,0.366,0.798,0.638c0.464,0.303,0.899,0.767,1.329,1.419c0.054,0.082,0.102,0.14,0.125,0.162
	c0.07,0.022,0.121,0.09,0.121,0.171c-0.001-0.01,0.016,0.017,0.035,0.037c0.084,0.084,0.111,0.207,0.067,0.313
	c-0.043,0.104-0.143,0.169-0.26,0.169c-0.046,0-0.129,0.021-0.171,0.043c-0.209,0.112-0.504,0.153-0.683,0.092
	c-0.069-0.023-0.196-0.021-0.362,0.009c-0.114,0.021-0.192,0.03-0.253,0.03c-0.055,0-0.137-0.007-0.207-0.063
	c-0.088-0.074-0.83-0.463-1.034-0.546c-0.005,0.006-0.01,0.012-0.015,0.019c-0.095,0.131-0.267,0.133-0.351,0.015
	c0-0.001,0-0.001-0.001-0.002c-0.01,0.009-0.021,0.017-0.031,0.023c0.011,0.025,0.025,0.056,0.034,0.074
	c0.027,0.057,0.055,0.096,0.07,0.114c0.05,0.019,0.131,0.084,0.278,0.313c0.195,0.305,0.229,0.321,0.377,0.357
	c0.096,0.023,0.219,0.075,0.287,0.121c0.019,0.013,0.076,0.041,0.226,0.041c0.163,0,0.389-0.032,0.673-0.096
	c0.251-0.056,0.58-0.119,0.735-0.143c0.27-0.039,0.421-0.139,0.438-0.174c-0.002-0.093,0.085-0.18,0.194-0.18
	c0.179,0,0.318,0.087,0.347,0.208c0.098,0.029,0.193,0.126,0.214,0.147c0.111,0.12,0.143,0.226,0.108,0.366
	c-0.009,0.034-0.013,0.078,0.012,0.106c0.083,0.098,0.467,0.704,0.467,0.833c0,0.1-0.084,0.181-0.188,0.181
	c-0.195,0-0.709-0.792-0.77-0.915c-0.101-0.201-0.143-0.237-0.156-0.243c-0.1,0.059-0.28,0.088-0.405,0.091
	c-0.105,0.003-0.267,0.04-0.344,0.078c-0.213,0.106-0.79,0.236-1.143,0.277c-0.192,0.022-0.344-0.001-0.582-0.093
	c-0.474-0.182-0.562-0.24-0.774-0.516c0.088,0.211,0.272,0.408,0.49,0.511c0.146,0.069,0.25,0.109,0.271,0.114c0,0,0.001,0,0.001,0
	c0.055,0,0.176,0.07,0.265,0.13c0.084,0.057,0.273,0.145,0.414,0.192c0.404,0.137,0.725,0.331,0.98,0.593
	c0.172,0.177,0.192,0.177,0.346,0.177c0.15,0,0.241,0,0.299,0.074c0.053,0.067,0.033,0.147,0.019,0.205
	c-0.001,0.005-0.002,0.01-0.003,0.014c0.071,0.026,0.209,0.086,0.334,0.142c0.4,0.182,0.701,0.263,0.822,0.263
	c0.005,0.003-0.027,0.033-0.027,0.076c0-0.169,0.632-0.524,0.723-0.524c0.067,0,0.127,0.039,0.155,0.097
	c0.215,0.014,0.446,0.166,0.466,0.334c0.143-0.129,0.583-0.36,0.701-0.36h0.043c-0.046-0.081-0.032-0.201-0.016-0.341
	c0.025-0.213,0.015-0.265-0.099-0.503c-0.02-0.04-0.073-0.153-0.105-0.196c-0.065,0.02-0.159,0.044-0.225,0.058
	c-0.031,0.008-0.152,0.08-0.264,0.186c-0.367,0.352-0.767,0.419-0.976,0.188c-0.115-0.127-0.097-0.226-0.075-0.273
	c0.048-0.11,0.194-0.145,0.358-0.068c0.038,0.017,0.069,0.025,0.099,0.025c0.084,0,0.195-0.07,0.374-0.232
	c0.181-0.166,0.303-0.245,0.437-0.235c-0.017-0.031-0.042-0.071-0.082-0.123c-0.346-0.435-0.479-0.645-0.55-0.896
	c-0.069,0.093-0.183,0.152-0.342,0.181l-0.522,0.095l0.494-0.616l-0.048-0.789c-0.026-0.456-0.062-0.773-0.079-0.843
	c-0.07-0.114-0.21-0.482-0.232-0.691c-0.081-0.03-0.165-0.119-0.28-0.292c-0.125-0.189-0.242-0.295-0.5-0.448
	c-0.468-0.278-0.65-0.46-0.883-0.882c-0.064-0.116-0.259-0.47-0.366-0.47c-0.06,0.013-0.091,0.018-0.118,0.018
	c-0.03,0-0.178-0.01-0.178-0.2c0-0.015-0.018-0.05-0.032-0.062c-0.098-0.081-0.12-0.232-0.098-0.347
	c0.02-0.103,0.076-0.177,0.154-0.202l0.05-0.008c0.087,0,0.17,0.07,0.211,0.179c0.067,0.175,0.09,0.233,0.686,0.233
	c0.59,0,0.632,0.042,0.663,0.072l0.047,0.047l-0.01,0.075c-0.007,0.035-0.021,0.109-0.259,0.212
	c-0.194,0.082-0.31,0.096-0.451,0.056c-0.037-0.011-0.068-0.018-0.094-0.023c0.043,0.071,0.105,0.172,0.181,0.288
	c0.208,0.319,0.368,0.472,0.653,0.626c0.217,0.119,0.348,0.204,0.437,0.284c0.017,0.016,0.046,0.029,0.057,0.03h0.001
	c0.134,0,0.234,0.18,0.253,0.216c0.031,0.059,0.109,0.14,0.163,0.167c0.09,0.046,0.194,0.123,0.241,0.18
	c0.073,0.088,0.289,0.184,0.413,0.184c0.066,0,0.267,0,0.267,0.229c0,0.046-0.005,0.098-0.037,0.143
	c-0.034,0.048-0.088,0.072-0.158,0.072c-0.027,0-0.063-0.004-0.11-0.012c-0.062-0.009-0.145-0.026-0.213-0.043
	c0.017,0.081,0.036,0.187,0.048,0.262c0.024,0.158,0.058,0.298,0.085,0.396c0.007-0.01,0.014-0.019,0.021-0.029
	c0.094-0.131,0.166-0.186,0.244-0.186h0.072l0.054,0.073c0.018,0.03,0.07,0.122-0.093,0.399c-0.12,0.205-0.136,0.271-0.06,0.644
	c0.028,0.133,0.058,0.283,0.071,0.354c0.031-0.006,0.058-0.009,0.079-0.009c0.17,0,0.206,0.156,0.222,0.223
	c0.016,0.07,0.07,0.22,0.117,0.32c0.032,0.068,0.106,0.237,0.106,0.311c0.011,0.068,0.176,0.315,0.238,0.354
	c0.083,0.044,0.146,0.138,0.157,0.23c0.005,0,0.01,0,0.016,0c0.171,0,0.276,0.1,0.424,0.296c0.183,0.246,0.176,0.343,0.145,0.404
	l-0.034,0.069l-0.097,0.011c-0.041,0-0.1-0.015-0.198-0.102c0.016,0.081,0.02,0.165,0.021,0.291
	c0.002,0.161,0.015,0.285,0.021,0.309c0.019,0.056,0.011,0.116-0.022,0.163c-0.039,0.051-0.15,0.11-0.324,0.068l-0.019-0.005
	c-0.018-0.005-0.033-0.01-0.047-0.017c0.015,0.026,0.021,0.056,0.019,0.085c-0.009,0.095-0.07,0.146-0.451,0.419
	c-0.111,0.079-0.194,0.177-0.207,0.204c-0.041,0.104-0.121,0.168-0.209,0.168l-0.029-0.002c-0.08,0.046-0.408,0.382-0.485,0.51
	c0.025,0.033,0.077,0.089,0.152,0.148c0.097,0.075,0.225,0.183,0.291,0.245c0.023-0.102,0.095-0.25,0.274-0.592
	c0.069-0.133,0.656-0.783,0.835-0.783c0.113,0,0.152,0.067,0.164,0.097c0.043,0.107-0.036,0.208-0.229,0.394
	c-0.229,0.22-0.682,0.907-0.723,1.068c-0.009,0.034-0.008,0.046-0.008,0.049c0.002,0,0.013,0.012,0.052,0.037
	c0.009,0.006,0.021,0.014,0.032,0.021c0.008-0.01,0.015-0.02,0.021-0.026c0.039-0.052,0.085-0.158,0.097-0.224
	c0.043-0.226,0.403-0.804,0.591-0.905c0.094-0.05,0.246-0.066,0.438-0.04c0.335,0.042,0.484,0.122,0.485,0.259
	c0.003,0.182-0.262,0.221-0.375,0.238c-0.069,0.01-0.107,0.022-0.126,0.03c-0.021,0.073-0.081,0.15-0.123,0.199l0.021,0.003
	c0.488,0.053,0.704,0.234,0.769,0.647c0.025,0.156,0.093,0.413,0.24,0.916c0.054,0.183,0.053,0.298-0.004,0.373
	c-0.074,0.098-0.211,0.1-0.384-0.043c-0.126-0.105-0.318-0.184-0.407-0.184c-0.005,0.003-0.047,0.06-0.078,0.139
	c-0.007,0.017-0.018,0.043-0.026,0.066c0.176,0.092,0.146,0.242,0.128,0.325c-0.018,0.092,0.046,0.267,0.196,0.427
	c-0.01-0.13,0.021-0.234,0.092-0.317c0.131-0.153,0.384-0.216,0.874-0.216c0.228,0,0.443,0.011,0.586,0.101
	c-0.015-0.071-0.033-0.149-0.053-0.229c-0.036-0.144-0.315-1.522-0.155-1.686c0.119-0.121,0.422-0.027,0.423,0.175
	c0.007,0.001,0.092,0.138,0.24,0.322c0.14,0.175,0.311,0.439,0.354,0.578c0.004,0.014,0.009,0.027,0.013,0.041
	c0.054-0.065,0.125-0.158,0.214-0.281c0.031-0.045,0.062-0.088,0.096-0.125c-0.078-0.026-0.151-0.07-0.211-0.126
	c-0.085-0.079-0.167-0.23-0.189-0.353c-0.033-0.18,0.022-0.407,0.134-0.542c0.102-0.122,0.23-0.11,0.254-0.123
	c0.043-0.08,0.215-0.091,0.285-0.091c0.066,0,0.119,0.006,0.161,0.021c-0.009-0.05-0.02-0.097-0.032-0.14
	c-0.079-0.271-0.24-0.467-0.299-0.478c-0.091,0-0.21-0.067-0.281-0.131c-0.045-0.038-0.096-0.064-0.111-0.068
	c-0.001,0-0.002,0-0.002,0c-0.094,0-0.179-0.081-0.179-0.181c0-0.017,0.006-0.162,0.205-0.162c0.031,0,0.071,0.004,0.119,0.012
	l0.01,0.001l-0.002-0.013c-0.018-0.107-0.033-0.232-0.034-0.276c-0.002-0.104-0.207-0.179-0.341-0.11
	c-0.229,0.117-0.312,0.095-0.373,0.007c-0.021-0.033-0.032-0.072-0.032-0.122c0-0.195,0.312-0.336,0.522-0.336
	c0.019,0,0.037,0.001,0.056,0.003c-0.033-0.107-0.112-0.291-0.151-0.381c-0.195-0.459-0.265-0.911-0.203-1.346
	c-0.073,0.066-0.145,0.123-0.198,0.16c-0.057,0.041-0.074,0.075-0.075,0.148c-0.003,0.284-0.207,0.507-0.465,0.507
	c-0.028,0-0.045,0.001-0.052,0.003c-0.005,0.021-0.028,0.195-0.047,0.336c-0.018,0.14-0.11,0.189-0.185,0.189
	c-0.058,0-0.11-0.027-0.152-0.074c-0.042,0.234-0.084,0.335-0.228,0.335l-0.054-0.007c-0.058-0.012-0.104-0.046-0.134-0.097
	c-0.047-0.079-0.081-0.229,0.062-0.69c0.062-0.199,0.13-0.334,0.278-0.391c0.021-0.008,0.032-0.013,0.036-0.016
	c-0.005-0.011-0.016-0.137-0.024-0.238c-0.016-0.185-0.042-0.521-0.06-0.747c-0.013-0.168-0.033-0.278-0.046-0.326
	c-0.01-0.007-0.018-0.016-0.025-0.024c-0.043-0.056-0.049-0.133-0.018-0.261c0.016-0.07,0.03-0.344,0.025-0.623
	c-0.007-0.393,0.015-0.567,0.081-0.668c0.019-0.037,0.073-0.271,0.108-0.597c0.016-0.152,0.03-0.28,0.045-0.389
	c-0.042,0.057-0.088,0.104-0.118,0.134c-0.229,0.225-0.472,0.28-0.6,0.152l-0.06-0.059l0.033-0.098
	c0.042-0.103,0.499-0.573,0.662-0.573c0.066,0,0.123,0.027,0.156,0.075c0.062-0.188,0.162-0.298,0.362-0.475
	c0.222-0.193,0.298-0.301,0.429-0.603c0.083-0.195,0.202-0.445,0.258-0.523c0.07-0.102,0.171-0.163,0.27-0.163
	c0.12,0,0.208,0.094,0.208,0.222c0,0.101-0.047,0.182-0.116,0.212c-0.031,0.042-0.103,0.164-0.188,0.35
	c-0.116,0.256-0.312,0.561-0.485,0.758c-0.163,0.189-0.271,0.374-0.279,0.416c-0.013,0.064-0.016,0.397,0.002,0.771
	c0.017,0.361,0.004,1.026-0.028,1.482c-0.032,0.451-0.069,1.06-0.083,1.354l-0.009,0.197c0.05-0.143,0.136-0.284,0.209-0.36
	c0.009-0.01,0.024-0.025,0.039-0.041c-0.101-0.104-0.117-0.245-0.122-0.512c-0.009-0.453,0.065-0.641,0.397-1l0.161-0.175
	l0.051-0.638c0.062-0.767,0.076-0.948,0.308-0.948c0.193,0,0.194,0.225,0.196,0.534c0,0.017,0,0.034,0,0.051
	c0.05-0.057,0.104-0.115,0.148-0.162c0.103-0.107,0.202-0.244,0.223-0.296c0.046-0.106,0.165-0.243,0.254-0.319
	c0.067-0.056,0.113-0.12,0.12-0.14c-0.002-0.095,0.216-0.604,0.352-0.77c-0.004-0.031-0.019-0.109-0.077-0.274
	c-0.051-0.147-0.127-0.398-0.127-0.488c-0.001-0.017-0.024-0.067-0.055-0.096c-1.108-1.03-1.187-1.267-1.173-1.407
	c0.005-0.046,0.023-0.087,0.055-0.118c-0.001-0.002-0.002-0.004-0.004-0.006c-0.029-0.055-0.072-0.137-0.025-0.216
	c0.019-0.03,0.043-0.048,0.067-0.059c-0.073-0.148-0.229-0.432-0.337-0.58c-0.224-0.313-0.276-0.44-0.224-0.542
	c0.014-0.026,0.056-0.087,0.154-0.087c0.101,0,0.181,0.064,0.196,0.15c0.022,0.041,0.114,0.173,0.272,0.363
	c0.248,0.3,0.327,0.444,0.327,0.595c0,0.042,0.008,0.078,0.013,0.096c0.064,0.054,0.122,0.177,0.146,0.23
	c0.062,0.145,0.197,0.291,0.855,0.922c0.508,0.483,0.544,0.584,0.503,0.687l-0.031,0.079l-0.112,0.013
	c-0.03,0-0.061-0.011-0.091-0.027c0.008,0.012,0.016,0.024,0.024,0.038c0.081,0.122,0.134,0.21,0.114,0.3
	c-0.01,0.043-0.033,0.078-0.07,0.107c0.003,0.015,0.011,0.038,0.023,0.075c0.146,0.405,0.023,1.048-0.264,1.374
	c-0.04,0.046-0.065,0.08-0.082,0.104l0.058-0.002c0.038,0,0.117,0,0.174,0.059c0.059,0.062,0.055,0.146,0.052,0.219
	c-0.005,0.108-0.067,0.284-0.146,0.409c-0.099,0.157-0.101,0.16-0.063,0.71c0.035,0.54,0.027,0.653-0.066,0.931
	c-0.056,0.168-0.089,0.298-0.091,0.324c0,0.083-0.121,0.335-0.174,0.438c-0.137,0.276-0.146,0.293-0.135,0.771
	c0.006,0.267,0.043,0.617,0.081,0.766c0.027,0.103,0.078,0.316,0.078,0.385c0.005,0.013,0.056,0.131,0.148,0.287
	c0.254,0.426,0.368,0.848,0.33,1.218c-0.015,0.151-0.028,0.29-0.029,0.311c-0.001,0.024-0.004,0.074-0.148,0.247
	c-0.068,0.082-0.097,0.165-0.121,0.469c-0.019,0.222-0.046,0.495-0.062,0.606c-0.017,0.113-0.008,0.199,0.086,0.403
	c0.015,0.031,0.029,0.064,0.044,0.1c0.008-0.169,0.054-0.25,0.241-0.288l0.047-0.009l0.027-0.486
	c0.027-0.489,0.054-0.654,0.166-0.735c0.028-0.056,0.028-0.538,0.027-1.004l-0.002-1.009l-0.115-0.184
	c-0.135-0.214-0.153-0.302-0.135-0.626c0.004-0.058,0.007-0.122,0.009-0.173c-0.03,0.005-0.057,0.007-0.081,0.007
	c-0.16,0-0.285-0.076-0.319-0.193c-0.03-0.108,0.022-0.218,0.143-0.293c0.024-0.015,0.042-0.035,0.045-0.043
	c-0.006-0.142,0.175-0.239,0.434-0.038c0.052,0.041,0.182,0.105,0.286,0.133c0.109,0.03,0.238,0.051,0.351,0.062
	c-0.086-0.061-0.194-0.13-0.31-0.19c-0.282-0.146-0.544-0.518-0.597-0.845c-0.014-0.082-0.055-0.156-0.071-0.172
	c-0.165-0.114-0.126-0.225-0.059-0.356c0.04-0.074,0.112-0.185,0.17-0.243c0.164-0.163,0.229-0.367,0.297-1.252
	c0.044-0.568,0.016-0.705,0.006-0.733c-0.024-0.07-0.07-0.243,0.044-0.315c0.094-0.058,0.209-0.038,0.29,0.038
	c-0.006-0.064-0.017-0.147-0.033-0.256c-0.064-0.443-0.062-0.52,0.031-0.816c0.061-0.196,0.449-0.865,0.695-1.019
	c0.002-0.014,0.004-0.034,0.004-0.058c0-0.103,0.047-0.271,0.108-0.393c0.076-0.148,0.699-0.812,0.886-0.812h0.052l0.082,0.077
	l0.004,0.069c-0.002,0.163-0.329,0.542-0.495,0.698c-0.135,0.127-0.217,0.259-0.225,0.296c-0.01,0.053-0.04,0.174-0.104,0.234
	c-0.004,0.011-0.008,0.032-0.008,0.057c0,0.087-0.028,0.205-0.11,0.256c-0.084,0.053-0.396,0.518-0.473,0.753
	c-0.066,0.204-0.072,0.255-0.019,0.589c0.077,0.471,0.046,0.671-0.165,1.067c-0.112,0.208-0.129,0.286-0.129,0.598
	c0,0.36-0.027,0.477-0.206,0.89c-0.171,0.396-0.178,0.44-0.147,0.615c0.023,0.134,0.062,0.282,0.085,0.337
	c0.034,0.084,0.365,0.39,0.454,0.419c0.001,0,0.002,0,0.002,0c0.066,0,0.188,0.094,0.253,0.149c0.069,0.058,0.216,0.142,0.318,0.183
	c0.089,0.036,0.327,0.131,0.293,0.312c-0.016,0.079-0.05,0.263-0.952,0.271l-0.431,0.003l-0.002,0.033
	c-0.009,0.135,0.006,0.21,0.018,0.241c0.276,0.021,0.286,0.329,0.289,1.727l0.002,1.329l0.192,0.202
	c0.128,0.134,0.297,0.338,0.375,0.453c0.075,0.11,0.187,0.262,0.249,0.337c0.007,0.008,0.014,0.017,0.022,0.026
	c0.143-0.152,0.431-0.096,0.43,0.21c0,0.149,0.17,0.729,0.29,0.942c0.139,0.247,0.38,0.596,0.663,0.962
	c0.002-0.005,0.004-0.011,0.006-0.017c0.029-0.064,0.093-0.104,0.172-0.104c0.187,0.002,0.587,0.556,0.668,0.725
	c0.04,0.086,0.124,0.206,0.179,0.257c0.081,0.076,0.184,0.191,0.151,0.323C33.096,37.575,33.075,37.609,33.048,37.637z
	 M13.513,39.408c-0.099,0-0.24-0.015-0.48-0.05c0.076,0.037,0.154,0.056,0.235,0.056c0.122,0,0.29,0.034,0.375,0.101
	c0.02,0.015,0.059,0.028,0.085,0.028c0.035-0.009,0.081-0.016,0.127-0.021v-0.008l0.125-0.001c0.062,0,0.231-0.171,0.562-0.53
	c-0.038-0.019-0.073-0.047-0.102-0.081c-0.048-0.057-0.067-0.114-0.059-0.171c0.008-0.048,0.036-0.09,0.081-0.117
	c0.032-0.02,0.067-0.029,0.106-0.029c0.097,0,0.234,0.062,0.29,0.154c0.199-0.109,0.245-0.189,0.245-0.21
	c0-0.145,0.092-0.195,0.171-0.195c0.028,0,0.058,0.006,0.096,0.018c0.051-0.001,0.172-0.1,0.182-0.144
	c-0.017-0.036-0.22-0.329-0.393-0.502c-0.022-0.022-0.055-0.059-0.086-0.1c-0.126,0.11-0.355,0.365-0.404,0.481
	c-0.038,0.09-0.112,0.196-0.172,0.247c-0.019,0.016-0.033,0.033-0.04,0.042c-0.008,0.04-0.043,0.123-0.195,0.339
	c-0.128,0.183-0.151,0.246-0.151,0.429c0,0.089,0,0.36-0.19,0.36c-0.088,0-0.15-0.069-0.196-0.146
	C13.658,39.402,13.58,39.408,13.513,39.408z M14.863,30.841c-0.17-0.234-0.329-0.445-0.454-0.597
	c0.016,0.059,0.029,0.117,0.036,0.164c0.012,0.077,0.037,0.128,0.213,0.255C14.728,30.713,14.796,30.773,14.863,30.841z
	 M31.924,36.975c-0.026-0.029-0.053-0.058-0.074-0.081c-0.6-0.651-0.797-0.931-1.115-1.572c-0.26-0.527-0.988-1.457-1.138-1.527
	c-0.039-0.006-0.086-0.027-0.129-0.058c-0.006,0.051-0.013,0.119-0.02,0.212c-0.026,0.344-0.026,0.344,0.196,0.78
	c0.236,0.465,0.252,0.522,0.276,1.025c0.02,0.412,0.024,0.498-0.042,0.567l-0.059,0.041c0.068,0.065,0.111,0.165,0.111,0.277
	c-0.005,0.022,0.014,0.019,0.038-0.003c0.109-0.099,0.281-0.12,0.541-0.125l0.111-0.002c0.273,0,0.377,0.039,0.781,0.238
	C31.713,36.9,31.835,36.956,31.924,36.975z M6.448,3.99c0-0.05,0.017-0.095,0.047-0.128C6.488,3.86,6.483,3.858,6.482,3.858
	C6.187,3.754,5.831,3.698,5.171,3.65c-0.561-0.04-0.814-0.107-1.154-0.318c0.003,0.01,0.007,0.021,0.012,0.032
	c0.097,0.258,0.458,0.693,0.597,0.749c0.073,0.029,0.262,0.119,0.419,0.199C5.088,4.334,5.128,4.353,5.164,4.37
	C5.147,4.213,5.179,4.059,5.249,3.974c0.043-0.052,0.1-0.081,0.162-0.081c0.123,0,0.299,0.151,0.319,0.168
	c0.082,0.071,0.2,0.164,0.256,0.202l0.178,0.118L6.079,4.956C5.991,5.554,6.025,5.928,6.062,5.988
	c0.027,0.026,0.057,0.07,0.074,0.118c0.145-0.387,0.405-1.044,0.487-1.187c0.021-0.11-0.046-0.628-0.095-0.741
	C6.473,4.13,6.448,4.052,6.448,3.99z M9.075,6.917C9.032,6.902,9.004,6.899,8.987,6.899c-0.016,0-0.024,0.003-0.026,0.004
	C8.959,6.906,8.951,6.927,8.958,6.977c0.011,0.073,0.036,0.249,0.055,0.39c0.025,0.19,0.055,0.204,0.071,0.211
	C9.102,7.587,9.156,7.614,9.18,7.614c0.034,0,0.127-0.103,0.171-0.152c0.102-0.113,0.255-0.246,0.35-0.282
	c0.011,0.002,0.01-0.057-0.174-0.231C9.512,6.933,9.498,6.921,9.486,6.91C9.413,6.99,9.327,7.005,9.075,6.917z M10.244,7.839
	c-0.199-0.251-0.239-0.263-0.292-0.263c-0.072,0-0.162,0.022-0.316,0.282C9.537,8.025,9.437,8.059,9.37,8.059L9.322,8.053
	C9.311,8.05,9.299,8.049,9.29,8.049c-0.028,0-0.035,0.012-0.038,0.016C9.241,8.083,9.238,8.123,9.266,8.178
	c0.288,0.556,0.457,1.318,0.228,1.579C9.46,9.795,9.413,9.872,9.371,9.947C9.421,9.933,9.475,9.92,9.522,9.908
	C9.64,9.879,9.836,9.806,9.951,9.749L10.25,9.6l0.208,0.179c0.079,0.067,0.095,0.082,0.242,0.082c0.066,0,0.152-0.004,0.267-0.01
	c0.514-0.025,0.573-0.09,0.579-0.103c-0.017-0.088-0.041-0.147-0.05-0.161c-0.109-0.151-0.13-0.42-0.042-0.562l0.007,0.001
	c-0.054-0.065-0.235-0.225-0.536-0.491l-0.15-0.132C10.621,8.269,10.383,8.015,10.244,7.839z M14.292,13.946
	c0.239,0.184,0.767,0.533,0.975,0.646c-0.197-0.245-0.594-0.826-0.703-0.995c-0.076-0.117-0.129-0.144-0.143-0.144
	c-0.004,0-0.031,0.015-0.065,0.085C14.246,13.771,14.26,13.921,14.292,13.946z M17.118,16.465c-0.061,0.129-0.174,0.446-0.277,0.735
	c0.071-0.12,0.153-0.276,0.188-0.362c0.051-0.123,0.127-0.209,0.209-0.243C17.191,16.54,17.15,16.495,17.118,16.465z M16.412,15.849
	c-0.032,0.074-0.073,0.21-0.091,0.27c-0.01,0.032-0.095,0.314-0.133,0.377c-0.011,0.022-0.065,0.177-0.123,0.369
	c-0.08,0.266-0.152,0.425-0.289,0.452c-0.13,0.024-0.167-0.027-0.189-0.055c-0.05-0.066-0.026-0.147-0.017-0.178l0.134-0.441
	c0.058-0.189,0.151-0.496,0.161-0.591c-0.005-0.007-0.009-0.014-0.013-0.021c-0.087,0.252-0.146,0.46-0.149,0.5
	c-0.002,0.156-0.115,0.546-0.315,0.546c-0.052,0-0.099-0.025-0.13-0.068c-0.022-0.031-0.075-0.105-0.009-0.441
	c-0.037,0.037-0.088,0.061-0.145,0.061c-0.09,0-0.136-0.047-0.156-0.075c-0.04-0.056-0.05-0.123-0.02-0.264
	c-0.06,0.148-0.133,0.223-0.217,0.223h0c-0.036,0-0.155-0.016-0.155-0.216c0-0.081,0.267-1.074,0.359-1.166l0.037-0.037l0.069-0.005
	c0.039,0,0.081,0.013,0.118,0.037c0.119,0.074,0.106,0.25-0.045,0.606c-0.015,0.033-0.046,0.135-0.076,0.251
	c0.028-0.084,0.062-0.181,0.102-0.294l0.178-0.501l-0.05-0.041c-0.061-0.05-0.209-0.148-0.324-0.215l-0.127-0.075l-0.04,0.049
	c-0.037,0.046-0.11,0.217-0.145,0.391c-0.003,0.014-0.068,0.334-0.126,0.427c-0.022,0.035-0.051,0.092-0.064,0.126
	c-0.074,0.197-0.188,0.407-0.292,0.536c-0.065,0.08-0.065,0.08-0.001,0.355l0.095,0.407l-0.23,0.202
	c-0.089,0.078-0.229,0.225-0.305,0.322c-0.109,0.137-0.109,0.137-0.074,0.261c0.014,0.051,0.024,0.097,0.028,0.14
	c0.04-0.073,0.124-0.105,0.286-0.074c0.096,0.021,0.248,0.072,0.347,0.117c0.059,0.028,0.129,0.042,0.168,0.042
	c0.039-0.008,0.07-0.011,0.104-0.011c0.071,0,0.46,0.045,0.46,0.247c0,0.035-0.012,0.066-0.03,0.094
	c0.215,0.154,0.297,0.244,0.264,0.353c-0.024,0.077-0.095,0.116-0.211,0.116c-0.068,0-0.165-0.011-0.304-0.035
	c-0.187-0.031-0.339-0.061-0.459-0.092c-0.03,0.061-0.095,0.143-0.221,0.259c-0.158,0.146-0.313,0.389-0.395,0.605
	c0.008-0.01,0.016-0.021,0.024-0.032c0.005-0.007,0.539-0.697,0.735-0.697c0.118,0,0.197,0.145,0.226,0.207
	c0.037,0.079,0.049,0.139,0.042,0.192c0.005,0,0.011-0.001,0.016-0.001c0.075,0,0.132,0.036,0.158,0.096
	c0.022,0.05,0.073,0.169-0.319,0.58c-0.12,0.126-0.222,0.246-0.28,0.321c0.144,0.009,0.265,0.064,0.342,0.158
	c0.064,0.078,0.092,0.175,0.081,0.278c0.086-0.012,0.148-0.01,0.197,0.003c-0.006-0.047-0.002-0.104,0.011-0.174
	c0.061-0.322,0.249-0.543,0.503-0.591c0.194-0.037,0.366,0.032,0.473,0.171c0.102,0.134,0.13,0.317,0.079,0.504
	c-0.046,0.168-0.284,0.497-0.461,0.497c-0.006,0-0.035,0.007-0.061,0.017l-0.064,0.011c-0.085,0-0.181-0.05-0.242-0.098
	c-0.045-0.035-0.075-0.068-0.094-0.099c-0.024,0.092-0.108,0.205-0.266,0.365c-0.043,0.044-0.132,0.134-0.177,0.19
	c0.078,0.074,0.088,0.146,0.082,0.198c-0.008,0.062-0.049,0.146-0.196,0.203c-0.004,0.002-0.007,0.003-0.011,0.005
	c0.004,0.013,0.009,0.03,0.016,0.051c0.027,0.085,0.06,0.208,0.076,0.289c0.028-0.032,0.067-0.067,0.125-0.067h0.057l0.042,0.045
	c0.05,0.057,0.041,0.126,0.019,0.293c-0.038,0.286-0.078,0.54-0.333,0.47c-0.001,0-0.003,0-0.004,0
	c-0.053,0-0.105,0.062-0.153,0.227c-0.041,0.146-0.1,0.303-0.275,0.33c-0.007,0.001-0.015,0.002-0.021,0.002
	c0.01,0.038,0.007,0.074,0.005,0.099c0.058,0.012,0.1,0.03,0.129,0.052c0.056-0.124,0.141-0.243,0.241-0.243
	c0.076,0,0.142,0.047,0.17,0.122c0.048,0.124-0.004,0.312-0.113,0.411c-0.156,0.141-0.275,0.136-0.336,0.054
	c-0.022,0.018-0.049,0.036-0.08,0.055c-0.057,0.033-0.135,0.115-0.164,0.171c-0.042,0.083-0.155,0.273-0.251,0.425
	c-0.135,0.213-0.215,0.377-0.253,0.528c0.031-0.062,0.097-0.087,0.125-0.098c0.074-0.027,0.157-0.041,0.256,0.048
	c0.012-0.067,0.042-0.132,0.09-0.195c0.017-0.022,0.048-0.118,0.048-0.208c0-0.12-0.02-0.422,0.344-0.331
	c0.207,0.055,0.191,0.209,0.169,0.423c-0.012,0.119-0.007,0.176-0.003,0.197c0.06,0.054,0.088,0.147,0.088,0.219
	c0.001,0,0.017,0.019,0.057,0.034c0.188,0.071,0.391,0.226,0.391,0.396c0.009,0.04,0.173,0.141,0.359,0.141
	c0.064,0,0.102-0.015,0.114-0.027c0.027-0.043,0.038-0.283-0.024-0.437c-0.122-0.304-0.155-0.333-0.244-0.38
	c-0.155-0.079-0.221-0.17-0.197-0.269c0.012-0.051,0.059-0.135,0.23-0.135c0.265,0,0.526,0.316,0.607,0.735
	c0.012,0.059,0.023,0.108,0.033,0.147c0.005-0.003,0.01-0.007,0.015-0.011c0.123-0.099,0.323-0.188,0.557-0.008
	c0.053,0.041,0.174,0.07,0.293,0.07c0.117,0,0.183-0.027,0.195-0.039c0.013-0.021,0.05-0.139,0.065-0.356
	c0.008-0.128,0.033-0.393,0.07-0.479c0-0.131-0.427-0.842-0.562-0.909c-0.066,0.003-0.169-0.073-0.169-0.245
	c0-0.018,0.001-0.034,0.002-0.049c-0.089-0.006-0.14-0.066-0.152-0.126c-0.022-0.112,0.079-0.217,0.189-0.262
	c0.088-0.036,0.919-0.402,1.71-0.754c0.16-0.07,0.226-0.093,0.259-0.101c0.05-0.019,0.305-0.136,0.668-0.312
	c0.612-0.296,0.614-0.303,0.643-0.426c0.001-0.007,0.003-0.014,0.005-0.021c-0.017,0.007-0.032,0.011-0.045,0.011
	c0.015,0-0.01,0.015-0.035,0.037c-0.071,0.061-0.966,0.561-1.091,0.561c-0.003,0.003-0.087,0.035-0.198,0.09
	c-0.12,0.06-0.432,0.186-0.695,0.281c-1.08,0.395-1.328,0.509-1.383,0.542c-0.047,0.06-0.135,0.081-0.209,0.081
	c-0.106,0-0.155-0.047-0.177-0.087c-0.027-0.048-0.024-0.107,0.007-0.158c0.083-0.135,0.932-0.487,1.184-0.569
	c0.289-0.094,0.738-0.271,1.067-0.422c0.236-0.107,0.281-0.107,0.298-0.107c0.083-0.029,0.968-0.544,1.087-0.655
	c0.141-0.13,0.183-0.169-0.233-0.953c-0.082-0.153-0.099-0.277-0.051-0.369c0.028-0.097-0.128-0.697-0.329-1.004
	c-0.224-0.341-0.334-0.474-0.386-0.525c-0.107,0.089-0.362,0.32-0.7,0.65c-0.726,0.708-0.757,0.708-0.814,0.708h-0.052l-0.022-0.021
	c-0.034,0.024-0.088,0.069-0.152,0.14c-0.191,0.211-0.277,0.24-0.341,0.24c-0.051,0-0.098-0.024-0.126-0.065
	c-0.02-0.029-0.03-0.064-0.03-0.105c0-0.041,0-0.097,0.346-0.453c0.172-0.177,0.443-0.48,0.603-0.675
	c0.165-0.201,0.376-0.452,0.47-0.559c0.221-0.254,0.335-0.508,0.332-0.567c-0.041-0.087-0.096-0.187-0.16-0.291
	c-0.006,0.067-0.024,0.137-0.056,0.198c-0.023,0.046-0.071,0.146-0.106,0.219c-0.06,0.128-0.159,0.208-0.258,0.208
	c-0.085,0-0.176-0.062-0.176-0.199c0-0.103,0.103-0.297,0.114-0.319c0.052-0.097,0.083-0.192,0.085-0.216
	c0-0.016,0.002-0.032,0.005-0.046l0,0.001c-0.063,0.093-0.1,0.173-0.104,0.192c0.001,0.074-0.062,0.165-0.12,0.212
	c-0.007,0.009-0.028,0.059-0.028,0.108c0,0.139-0.031,0.268-0.255,0.268c-0.059,0-0.146,0-0.201-0.07
	c-0.018-0.023-0.028-0.048-0.032-0.073c-0.055,0.097-0.104,0.127-0.17,0.127c-0.049,0-0.117-0.023-0.16-0.132
	c-0.015-0.038-0.01-0.108,0.006-0.197c-0.063,0.057-0.168,0.057-0.25-0.023c-0.185-0.185,0.157-1.029,0.267-1.283l0.162-0.376
	l-0.047-0.044C16.414,15.851,16.413,15.85,16.412,15.849z M19.633,30.85c-0.004,0.015-0.045-0.02-0.178-0.065
	c-0.324-0.112-0.904-0.328-1.021-0.427c-0.022-0.017-0.142-0.075-0.292-0.124c-0.224-0.073-0.361-0.172-0.612-0.439
	c-0.196-0.21-0.278-0.317-0.312-0.377c-0.054-0.002-0.117-0.006-0.162-0.043c0.027,0.111,0.057,0.201,0.08,0.231
	c0.046,0.056,0.138,0.204,0.199,0.316c0.074,0.136,0.14,0.197,0.271,0.255c0.299,0.128,0.298,0.201,0.29,0.679l0,0.039
	c-0.003,0.169-0.055,0.359-0.143,0.524c-0.111,0.209-0.107,0.277-0.101,0.297c0.003,0.009,0.015,0.018,0.035,0.027
	c0.022,0.011,0.031,0.016,0.04,0.018c0.03-0.007,0.183-0.111,0.415-0.269l0.053-0.036c0.087-0.06,0.225-0.177,0.3-0.255
	c0.127-0.136,0.358-0.243,0.525-0.243c0.096,0,0.152,0.036,0.182,0.065c0.089,0.091,0.107,0.242,0.045,1.013
	c-0.008,0.095-0.014,0.179-0.018,0.251c0.114-0.136,0.241-0.311,0.257-0.366c0.002-0.11,0.354-0.51,0.49-0.51h0.053l0.043,0.04
	c0.048,0.046,0.088,0.123-0.089,0.417c-0.014,0.024-0.028,0.047-0.042,0.069c0.112-0.054,0.233-0.019,0.361,0.065
	c0.184,0.12,0.233,0.403,0.127,0.738c-0.023,0.071-0.052,0.224-0.064,0.331c-0.001,0.014-0.004,0.037-0.006,0.062l0.002-0.001
	c0.053-0.165,0.158-0.184,0.201-0.184c0.033,0,0.143,0.013,0.192,0.172c0.013,0.039,0.04,0.104,0.062,0.146
	c0.052-0.161,0.141-0.396,0.204-0.538c0.065-0.148,0.117-0.264,0.213-0.304c-0.013-0.015-0.023-0.025-0.031-0.032
	c-0.041-0.016-0.099-0.061-0.168-0.199c-0.058-0.117-0.459-0.513-0.622-0.599C20.264,31.521,19.649,31.043,19.633,30.85z
	 M23.921,33.695c-0.001,0.002-0.011,0.013-0.03,0.058c-0.037,0.082-0.101,0.192-0.15,0.243c-0.014,0.015-0.026,0.041-0.027,0.051
	c0,0.065-0.042,0.136-0.104,0.179c0.028,0.079,0.146,0.272,0.421,0.559c0.068,0.07,0.128,0.133,0.172,0.176
	c0.033-0.077,0.083-0.188,0.125-0.275c0.048-0.101,0.121-0.24,0.163-0.299c-0.002,0-0.023-0.039-0.107-0.146
	c-0.161-0.202-0.192-0.29-0.21-0.561c-0.066,0.042-0.155,0.055-0.246,0.032l-0.026-0.119c0,0-0.001,0-0.002,0v0.114
	C23.904,33.705,23.916,33.699,23.921,33.695z M27.916,27.721c0.041-0.109,0.081-0.257,0.096-0.354
	c0.028-0.191,0.075-0.309,0.14-0.349c-0.005-0.015-0.015-0.138-0.037-0.168c-0.009-0.006-0.051-0.021-0.087-0.021
	c-0.015,0-0.035,0-0.097,0.139c-0.055,0.125-0.169,0.32-0.26,0.446c-0.011,0.015-0.029,0.04-0.047,0.065
	c0.01,0.002,0.021,0.004,0.032,0.006C27.798,27.509,27.871,27.603,27.916,27.721z M28.44,31.701
	c0.014,0.122,0.026,0.227,0.039,0.316c-0.011-0.199-0.032-0.398-0.056-0.467C28.429,31.597,28.435,31.648,28.44,31.701z
	 M28.829,35.679c-0.115,0.027-0.242-0.078-0.242-0.217c0-0.063-0.032-0.146-0.064-0.201c-0.021,0.07-0.05,0.209-0.081,0.479
	c-0.055,0.491-0.117,0.69-0.357,0.829c-0.055,0.031-0.188,0.207-0.271,0.343c0.009-0.004,0.015-0.008,0.02-0.011
	c0.049-0.079,0.228-0.099,0.367-0.099c0.028,0,0.095,0,0.13-0.005c0.001-0.003,0.002-0.007,0.002-0.012
	c0.014-0.092,0.082-0.229,0.159-0.319c0.046-0.056,0.152-0.251,0.229-0.44C28.78,35.883,28.812,35.789,28.829,35.679z M28.18,31.074
	c-0.101-0.136-0.158-0.249-0.18-0.361c-0.01,0.195-0.005,0.376,0.009,0.53c0.014-0.077,0.042-0.114,0.082-0.139
	C28.121,31.086,28.15,31.076,28.18,31.074z M27.503,35.949c-0.002-0.005,0.006-0.007,0.019-0.007c0.014,0,0.032,0.002,0.048,0.004
	c0.075,0.008,0.154,0.017,0.203,0.022c0.009-0.035,0.019-0.104,0.019-0.166c0-0.171,0.07-0.343,0.215-0.524
	c0.012-0.025,0.05-0.19,0.065-0.404c0.027-0.346,0.017-0.358-0.052-0.443c-0.02-0.025-0.04-0.046-0.057-0.062
	c-0.037,0.042-0.094,0.114-0.156,0.21c-0.152,0.234-0.184,0.33-0.24,0.731C27.518,35.653,27.482,35.899,27.503,35.949z
	 M12.671,25.759c0,0.212,0.02,0.358,0.03,0.387c0.033,0.034,0.293,0.133,0.5,0.134c0.068,0,0.225,0.009,0.299,0.084
	c0.022,0.007,0.073,0.017,0.136,0.017c0.161,0,0.27,0.04,0.318,0.117c0.027,0.013,0.118,0.045,0.357,0.079
	c0.216,0.031,0.521,0.104,0.657,0.17c0.102,0.048,0.326,0.11,0.488,0.137c0.687,0.107,0.745,0.219,0.745,0.323
	c0,0.023-0.006,0.048-0.019,0.069c0.127,0.002,0.333,0.128,0.463,0.246c0.147,0.134,0.153,0.247,0.153,0.659v0.306
	c0.161-0.027,0.22,0.058,0.235,0.094c0.02,0.048,0.024,0.123-0.061,0.218c-0.008,0.067,0.012,0.229,0.043,0.39
	c0.017-0.044,0.046-0.088,0.076-0.134c0.078-0.12,0.086-0.578-0.009-0.759c-0.104-0.197-0.153-0.462-0.231-1.23
	c-0.025-0.256-0.051-0.401-0.077-0.432c-0.051-0.029-0.193-0.132-0.297-0.213c-0.311-0.241-0.568-0.379-0.688-0.408
	c-0.07,0.19-0.386,0.369-0.564,0.369c-0.208,0-0.523-0.168-0.708-0.33c-0.079-0.069-0.166-0.114-0.189-0.118c0,0,0,0-0.001,0
	c-0.086,0-0.198-0.065-0.26-0.154c-0.011-0.016-0.024-0.022-0.026-0.023c0.022,0.013-0.104,0.037-0.198-0.07
	c-0.011,0.053-0.029,0.106-0.056,0.159c-0.139,0.276-0.445,0.373-0.626,0.192c-0.041-0.042-0.07-0.096-0.084-0.153
	c-0.055,0-0.104-0.007-0.155-0.034c-0.105-0.055-0.187-0.103-0.25-0.149C12.671,25.722,12.671,25.742,12.671,25.759z M14.844,27.346
	c0.034,0.073,0.066,0.207,0.082,0.31c0.057,0.376,0.082,0.479,0.156,0.653c0.001,0.003,0.002,0.005,0.003,0.008
	c0.015-0.065,0.033-0.163,0.045-0.273c0.021-0.182,0.068-0.444,0.106-0.587c0.016-0.059,0.027-0.11,0.033-0.15
	c-0.043,0.049-0.12,0.081-0.354,0.049C14.889,27.351,14.865,27.348,14.844,27.346z M15.575,29.183c0.009-0.017,0.02-0.04,0.03-0.07
	c0.037-0.105,0.097-0.26,0.134-0.344c0.305-0.705,0.368-0.852,0.529-0.852c0.024,0,0.047,0.005,0.067,0.013
	c-0.017-0.065-0.062-0.128-0.124-0.163c-0.13-0.073-0.243-0.229-0.208-0.362c0.004-0.019,0.012-0.034,0.021-0.049
	c-0.014-0.002-0.035-0.001-0.054-0.004c0.001,0.006,0.002,0.011,0.002,0.016c0.021,0.122,0.02,0.284-0.03,0.374
	c-0.041,0.074-0.235,0.718-0.34,1.165C15.568,29.057,15.568,29.14,15.575,29.183z M23.33,35.868
	c-0.006,0.026-0.012,0.048,0.149,0.196c0.087,0.078,0.159,0.132,0.197,0.156c0.049-0.034,0.126-0.124,0.136-0.162
	c-0.001-0.139,0.204-0.493,0.376-0.474c-0.497-0.352-0.972-0.928-1.165-1.423c-0.102-0.262-0.168-0.332-0.316-0.412
	c-0.14-0.076-0.219-0.167-0.234-0.27c-0.008-0.054-0.001-0.132,0.067-0.213c-0.018-0.025-0.059-0.057-0.081-0.057
	c-0.1,0.026-0.227-0.022-0.324-0.129c-0.036-0.039-0.128-0.089-0.241-0.105l-0.054-0.008l0.014,0.153
	c0.025,0.273-0.012,0.723-0.095,1.165c0.059-0.091,0.166-0.188,0.279-0.203c0.014-0.012,0.02-0.129,0.021-0.173
	c0.017-0.354,0.042-0.606,0.233-0.606l0.054,0.01c0.128,0.042,0.144,0.202,0.13,0.57c-0.004,0.101-0.012,0.339,0.029,0.381
	c0.016,0.017,0.072,0.024,0.168,0.024c0.261,0,0.443,0.19,0.443,0.463c0,0.19-0.075,0.297-0.214,0.428
	c-0.153,0.145-0.156,0.147-0.072,0.469l0.01,0.039l0.012-0.011c0.108-0.103,0.184-0.158,0.271-0.158c0.047,0,0.09,0.017,0.129,0.049
	C23.33,35.633,23.359,35.748,23.33,35.868z M24.324,35.679c0.1,0.142,0.135,0.4,0.135,0.517c0,0.213,0.084,0.443,0.127,0.482
	c0.027,0.005,0.119,0.042,0.184,0.073c0.014,0.006,0.036,0.012,0.055,0.012c0.09-0.053,0.354-0.068,0.383-0.07
	c0.047-0.003,0.087-0.004,0.122-0.004c0.161,0,0.242,0.038,0.323,0.153c0.065,0.092,0.101,0.27,0.101,0.39
	c0,0.178,0.067,0.288,0.234,0.383c0.036,0.021,0.101,0.032,0.172,0.032c0.129,0,0.225-0.038,0.241-0.06
	c0.004,0-0.006-0.021-0.057-0.09c-0.047-0.062-0.122-0.17-0.141-0.252c-0.015-0.019-0.055-0.059-0.112-0.099
	c-0.197-0.14-0.298-0.248-0.516-0.554c-0.132-0.186-0.341-0.275-0.42-0.24c-0.03,0.011-0.059,0.017-0.086,0.017
	c-0.056,0-0.154-0.023-0.193-0.179c-0.006-0.017-0.053-0.071-0.105-0.1c-0.088-0.046-0.198-0.138-0.229-0.23
	C24.533,35.849,24.454,35.774,24.324,35.679z M26.595,37.04l0.067,0.138l0.153-0.018c0.096-0.012,0.171-0.026,0.214-0.037
	c0.026-0.136,0.017-0.527-0.019-0.608c-0.034,0.008-0.087,0.024-0.113,0.033c-0.13,0.04-0.368,0.101-0.53,0.133
	c-0.033,0.007-0.061,0.014-0.084,0.02C26.401,36.753,26.515,36.876,26.595,37.04z M26.648,36.025
	c-0.023-0.022-0.051-0.063-0.051-0.128c0,0.001-0.001,0.001-0.001,0.001c-0.011,0-0.068-0.068-0.156-0.14
	c-0.085-0.068-0.139-0.109-0.163-0.109c-0.022,0-0.064,0.014-0.114,0.03c-0.119,0.038-0.341,0.061-0.493,0.043
	c-0.021-0.002-0.041-0.003-0.059-0.005c0.004,0.003,0.007,0.005,0.01,0.007c0.091,0.06,0.182,0.167,0.182,0.272
	c0.027,0.051,0.282,0.212,0.384,0.212c0.052-0.02,0.229-0.062,0.335-0.084c0.101-0.021,0.164-0.039,0.205-0.056
	C26.689,36.06,26.664,36.041,26.648,36.025z M26.954,34.371c-0.038-0.088-0.113-0.207-0.185-0.295l0.002,0.028
	c0.035,0.379,0.06,0.509,0.19,0.988c0.047,0.17,0.084,0.409,0.084,0.544c0,0.072,0.009,0.134,0.021,0.182
	c0.005-0.021,0.01-0.045,0.015-0.07C27.148,35.39,27.082,34.669,26.954,34.371z M22.594,32.218c-0.156-0.032-0.432-0.067-0.54-0.052
	c-0.09,0.011-0.16,0.009-0.211-0.002c-0.051-0.013-0.083-0.039-0.102-0.069c-0.038-0.02-0.124-0.049-0.208-0.069
	c0.078,0.071,0.166,0.176,0.219,0.246c0.088,0.116,0.155,0.176,0.197,0.177c0.078,0.001,0.195,0.026,0.264,0.071
	c0.031,0.02,0.047,0.023,0.054,0.023c0.033,0,0.106-0.066,0.219-0.196C22.527,32.297,22.564,32.254,22.594,32.218z M6.5,6.445
	c0.004-0.011,0.008-0.023,0.013-0.036C6.605,6.151,6.803,5.601,6.84,5.362C6.731,5.575,6.568,6.105,6.5,6.445z M13.506,17.183
	c0.006,0-0.012,0.04-0.031,0.1l0.227-0.24l-0.04-0.144c-0.026-0.095-0.041-0.118-0.045-0.124l-0.001,0
	c-0.001,0.016-0.002,0.04-0.002,0.075C13.613,16.971,13.595,17.128,13.506,17.183C13.506,17.183,13.506,17.183,13.506,17.183z
	 M9.934,14.43c-0.109-0.15-0.181-0.434-0.204-0.621c-0.02-0.163-0.061-0.428-0.089-0.591c-0.071-0.394-0.089-0.987-0.04-1.401
	c-0.017,0.027-0.032,0.052-0.045,0.073c-0.111,0.173-0.116,0.224-0.101,0.322c0.023,0.152,0.012,0.269-0.111,0.381
	c-0.029,0.026-0.053,0.077-0.057,0.105c0.042,0,0.167,0.001,0.222,0.102c0.053,0.097,0,0.204-0.066,0.305
	c-0.034,0.053-0.034,0.053,0.028,0.189c0.104,0.228,0.216,0.844,0.197,1.08c-0.015,0.008-0.002,0.014,0.041,0.024
	C9.783,14.414,9.863,14.426,9.934,14.43z M11.391,10.285c-0.149,0.026-0.326,0.032-0.445,0.032c-0.054,0-0.134-0.001-0.222-0.007
	l0.014,0.005C11.085,10.436,11.21,10.443,11.391,10.285z M9.588,15.685c0.015,0.023,0.05,0.065,0.125,0.141
	c0.26,0.26,0.385,0.349,0.441,0.379c0.029-0.053,0.074-0.152,0.119-0.287c0.056-0.171,0.132-0.383,0.17-0.467
	c-0.035-0.007-0.093-0.014-0.171-0.014c-0.101,0-0.162,0.012-0.175,0.018c-0.049,0.045-0.279,0.131-0.305,0.141
	C9.671,15.641,9.614,15.669,9.588,15.685z M10.665,17.21c0.273,0.293,0.729,0.733,0.889,0.833c0.034,0.021,0.075,0.051,0.115,0.084
	c-0.142-0.131-0.357-0.334-0.553-0.523C10.869,17.366,10.744,17.257,10.665,17.21z M15.334,20.791
	c0.096,0.023,0.168-0.059,0.168-0.182c0-0.098-0.079-0.192-0.11-0.198c-0.012,0.011-0.104,0.122-0.147,0.275
	c-0.009,0.031-0.018,0.06-0.028,0.085C15.253,20.774,15.292,20.781,15.334,20.791z M14.085,14.426l-0.143-0.131
	c-0.183-0.167-0.282-0.243-0.333-0.276c-0.013,0.022-0.029,0.051-0.046,0.087c-0.054,0.116-0.185,0.287-0.296,0.388
	c-0.094,0.085-0.291,0.313-0.431,0.498c-0.191,0.251-0.272,0.339-0.368,0.348c0.001,0.007,0.001,0.014,0.001,0.021
	c0,0.184-0.266,0.201-0.654,0.185h0c-0.075,0-0.188,0.027-0.256,0.059c-0.067,0.031-0.129,0.051-0.194,0.06
	c0.022,0.045,0.037,0.105,0.04,0.183c0,0.022,0.002,0.04,0.003,0.054c0.002-0.001,0.005-0.003,0.008-0.004
	c0.054-0.029,0.108-0.055,0.166-0.055c0.1,0,0.157,0.074,0.19,0.119c0.036,0.047,0.097,0.147,0.1,0.227
	c0.023,0.057,0.252,0.281,0.325,0.304c0.057,0.01,0.198,0.057,0.2,0.262c0,0,0,0.001,0,0.001c0.08,0.008,0.142,0.047,0.177,0.109
	c0.085,0.149-0.007,0.369-0.1,0.527c-0.074,0.125-0.139,0.284-0.152,0.349c-0.012,0.06-0.049,0.24-0.241,0.271
	c0.025,0.02,0.047,0.036,0.063,0.047c0.052-0.036,0.157-0.121,0.283-0.249c0.225-0.228,0.319-0.301,0.37-0.325
	c0.026-0.026,0.088-0.103,0.166-0.218c0.149-0.225,0.26-0.539,0.33-0.934c0.043-0.244,0.504-1.371,0.686-1.706L14.085,14.426z
	 M12.891,13.624c-0.198-0.124-0.712-0.901-0.938-1.371c-0.223-0.463-0.349-0.998-0.353-1.506c0-0.012,0-0.023-0.001-0.034
	c-0.018,0.01-0.038,0.021-0.06,0.034c-0.114,0.067-0.281,0.106-0.458,0.106c-0.103,0-0.356-0.015-0.491-0.15
	c-0.029-0.029-0.089-0.04-0.166-0.035c-0.064,0.005-0.083,0.011-0.088,0.014c0.001,0.001-0.007,0.019-0.022,0.08
	c-0.023,0.097-0.074,0.289-0.112,0.427c-0.205,0.727-0.241,1.7-0.144,1.831c0.054,0.072,0.09,0.255,0.094,0.275
	c0.019,0.096,0.051,0.208,0.068,0.25c0.029,0.07,0.08,0.269,0.112,0.42c0.035,0.166,0.086,0.299,0.104,0.324
	c0.053,0.062,0.093,0.171,0.094,0.256c0.005,0.001,0.016,0.005,0.035,0.008c0.234,0.045,0.744,0.188,0.874,0.253
	c0.025,0.013,0.05,0.018,0.062,0.018c0.012-0.013,0.059-0.024,0.114-0.024c0.064,0,0.238,0.021,0.306,0.119
	c0.055-0.019,0.133-0.052,0.22-0.104c0.307-0.182,0.828-0.67,0.995-0.933c0.048-0.076,0.084-0.137,0.108-0.177
	c-0.025-0.027-0.06-0.062-0.098-0.1c-0.003,0.006-0.007,0.012-0.012,0.017l-0.038,0.048l-0.07,0.004
	C12.978,13.677,12.941,13.656,12.891,13.624z M8.737,5.936l-0.085-0.11C8.089,5.103,7.343,4.284,7.203,4.188
	C7.178,4.18,7.14,4.162,7.071,4.114c0.034,0.107,0.035,0.255,0.026,0.511C7.091,4.798,7.091,4.798,7.333,5.027
	c0.009,0.009,0.893,0.871,0.895,1.055l0.001,0.053L8.152,6.214L8.091,6.217c-0.17,0-0.699-0.494-0.758-0.55
	C7.278,5.615,7.231,5.578,7.196,5.554C7.179,5.6,7.152,5.674,7.127,5.765C7.109,5.829,7.066,5.98,7.076,6.007
	c0.076,0.086,0.12,0.212,0.12,0.316c0,0.009,0,0.016,0.001,0.023L7.23,6.382c0.045,0.056,0.052,0.193,0.043,0.336
	c0.012-0.008,0.025-0.015,0.039-0.02l0.053-0.008c0.053,0,0.1,0.023,0.135,0.067c0.037,0.046,0.055,0.109,0.061,0.174
	c0.068-0.088,0.123-0.104,0.167-0.104h0.06L7.84,6.882c0.025,0.031,0.038,0.07,0.039,0.122c0.026-0.017,0.055-0.027,0.088-0.027
	h0.069L8.097,7.05c0.027,0.042,0.034,0.102,0.03,0.168C8.201,7.057,8.306,6.826,8.36,6.703L8.525,6.33
	C8.56,6.253,8.599,6.153,8.613,6.108C8.641,6.016,8.683,5.958,8.737,5.936z M16.493,30.812c0.113-0.286,0.264-0.641,0.327-0.741
	c0.068-0.109,0.068-0.109-0.028-0.256c-0.061-0.092-0.12-0.226-0.154-0.342c-0.084,0.128-0.217,0.281-0.336,0.409l-0.315,0.338
	l0.14,0.19c0.109,0.148,0.257,0.361,0.334,0.481C16.472,30.865,16.482,30.838,16.493,30.812z M16.775,31.369
	c0.061,0.1,0.179,0.258,0.257,0.364c0.025,0.034,0.065,0.089,0.103,0.149c0.006-0.02,0.013-0.039,0.022-0.06
	c0.024-0.061,0.024-0.077,0.024-0.08c-0.099-0.119-0.107-0.372-0.093-0.587c-0.026,0.101-0.077,0.217-0.244,0.217l-0.034-0.001
	C16.798,31.371,16.787,31.37,16.775,31.369z M19.24,28.031c0.097,0.055,0.298,0.18,0.362,0.259c0.005,0.006,0.049,0.028,0.269,0.021
	c0.061-0.003,0.155-0.007,0.198-0.016c0.001-0.006,0.001-0.013,0.003-0.022c0.006-0.059-0.059-0.164-0.234-0.377
	c-0.246-0.3-0.293-0.4-0.302-0.446c-0.014-0.022-0.057-0.076-0.123-0.134c-0.25-0.228-0.458-0.337-0.636-0.337
	c-0.123,0-0.123,0-0.178,0.102C18.379,27.487,18.974,27.88,19.24,28.031z M9.652,29.529c-0.006-0.045-0.012-0.096-0.019-0.149
	c-0.042-0.344-0.076-0.431-0.131-0.486c-0.017-0.018-0.046-0.047-0.056-0.052c-0.01,0.002-0.082,0.029-0.145,0.053
	c-0.134,0.051-0.242,0.11-0.263,0.127c-0.063,0.054-0.234,0.139-0.333,0.183c-0.202,0.09-0.391,0.316-0.44,0.527
	c0,0.004-0.001,0.008-0.002,0.011c0.02-0.006,0.047-0.017,0.085-0.036c0.086-0.044,0.231-0.092,0.33-0.092
	c0.021,0,0.04-0.008,0.045-0.013c0.005-0.024,0.049-0.141,0.477-0.141C9.299,29.46,9.516,29.468,9.652,29.529z M18.436,23.708
	c-0.083-0.336-0.361-0.712-0.608-0.712c-0.063,0-0.119,0.023-0.161,0.065c-0.068,0.065-0.07,0.158,0.127,0.416
	c0.082,0.107,0.177,0.288,0.204,0.387c0.113,0.418,0.26,0.625,0.656,0.924c0.4,0.301,0.448,0.303,0.472,0.298
	c0.113,0.025,0.669,0.456,0.809,0.666c0.264,0.397,0.498,0.715,0.694,0.944c0.086,0.099,0.142,0.194,0.147,0.203
	c0,0.111,0.097,0.204,0.186,0.242c0.049,0.021,0.117,0.312,0.194,0.659c0.167,0.747,0.26,1.014,0.452,1.299
	c0.106,0.155,0.182,0.22,0.264,0.22l0.084-0.009l0.037-0.058c0.035-0.056,0.054-0.151-0.077-0.435
	c-0.097-0.209-0.26-0.802-0.349-1.268c-0.089-0.462-0.295-0.869-0.596-1.179c-0.082-0.083-0.133-0.152-0.146-0.178
	c-0.011-0.047-0.066-0.159-0.35-0.521c-0.359-0.458-0.832-0.891-1.149-1.052C18.737,24.321,18.537,24.115,18.436,23.708z
	 M15.213,21.51c-0.153,0.085-0.344,0.218-0.384,0.372c-0.016,0.059-0.008,0.115,0.022,0.164c0.09,0.144,0.308,0.129,0.389-0.024
	c0.017,0.033,0.039,0.062,0.061,0.085c0.063,0.062,0.155,0.097,0.261,0.097c0.147,0,0.301-0.063,0.411-0.17
	c0.073-0.07,0.17-0.18,0.172-0.318c0.001-0.096-0.042-0.186-0.133-0.277C15.845,21.271,15.631,21.277,15.213,21.51z M33.692,19.063
	c-0.118,0-0.226,0.13-0.318,0.386c-0.07,0.191-0.228,0.435-0.496,0.765c-0.201,0.248-0.425,0.525-0.528,0.656
	c0.007-0.081,0.005-0.163-0.007-0.225c-0.127-0.653-0.195-0.745-0.219-0.776c-0.016-0.021-0.06-0.105-0.092-0.191
	c-0.12-0.324-0.614-1.42-0.725-1.607c-0.149-0.252-0.251-0.252-0.284-0.252c-0.073,0-0.148,0.057-0.148,0.165
	c0,0.027,0,0.064,0.211,0.47c-0.05-0.05-0.108-0.1-0.18-0.158c-0.242-0.198-0.361-0.269-0.455-0.269
	c-0.086,0-0.173,0.061-0.173,0.197c0,0.008,0.001,0.016,0.003,0.024c-0.044-0.022-0.094-0.045-0.15-0.069
	c-0.253-0.106-0.35-0.119-0.401-0.119c-0.055,0-0.1,0.017-0.132,0.049c-0.06,0.061-0.064,0.122-0.058,0.163
	c0.009,0.057,0.042,0.103,0.104,0.149c-0.008,0.02-0.013,0.042-0.013,0.065c0,0.083,0.072,0.154,0.216,0.21
	c0.121,0.048,0.191,0.066,0.252,0.066c0.064,0,0.12-0.022,0.149-0.055c0.009-0.004,0.039-0.012,0.072-0.012
	c0.168,0,0.218-0.075,0.23-0.137c0.001-0.005,0.002-0.011,0.003-0.016c0.031,0.022,0.064,0.044,0.101,0.067
	c0.284,0.181,0.284,0.181,0.426,0.547c0.172,0.445,0.336,0.778,0.449,0.912c0.021,0.024,0.08,0.135,0.127,0.251
	c0.116,0.295,0.228,0.295,0.264,0.295l0.024-0.003c0.01,0.083,0.016,0.159,0.017,0.218c-0.013-0.004-0.026-0.006-0.042-0.006
	c-0.125,0-0.147,0.122-0.173,0.25c-0.029,0.158-0.024,0.273,0.085,0.394c0.004,0.004,0.008,0.008,0.011,0.012
	c-0.037,0.048-0.071,0.118-0.071,0.184c0,0.179,0.136,0.184,0.151,0.184c0.086,0,0.16-0.064,0.352-0.27
	c1.054-1.129,1.588-1.897,1.588-2.283C33.861,19.074,33.721,19.063,33.692,19.063z M21.125,30.924c0,0.21,0.143,0.227,0.186,0.227
	l0.048-0.005c0.087-0.017,0.158-0.078,0.189-0.165c0.037-0.102,0.015-0.22-0.058-0.308c-0.057-0.068-0.117-0.083-0.157-0.083
	C21.285,30.59,21.126,30.615,21.125,30.924z M26.434,32.685c0.009-0.08-0.041-0.14-0.062-0.163
	c-0.049-0.061-0.137-0.122-0.217-0.122c-0.018-0.002-0.086-0.024-0.153-0.06c-0.188-0.1-0.329-0.111-0.49-0.052
	c-0.16,0.062-0.162,0.177-0.158,0.21c0.011,0.111,0.121,0.193,0.303,0.224c0.093,0.016,0.212,0.067,0.252,0.1
	c0.084,0.07,0.14,0.117,0.22,0.117c0.073,0,0.125-0.04,0.192-0.091C26.371,32.809,26.426,32.761,26.434,32.685z"/>
<g>
	<path fill-rule="evenodd" clip-rule="evenodd" fill="#BD0926" d="M34.243,1.692c0.009-0.016,0.019-0.024,0.027-0.024
		c0.007,0,0.014,0.004,0.021,0.012c0.03,0.098,0.092,0.241,0.165,0.397c0.241,0.184,0.479,0.37,0.718,0.557
		c-0.042-0.061-0.085-0.13-0.116-0.202c-0.567-1.275-0.697-1.275-0.782-1.275c-0.165,0-0.321,0.209-0.435,0.463
		c0.11,0.082,0.221,0.164,0.331,0.247C34.197,1.797,34.222,1.733,34.243,1.692z"/>
	<path fill-rule="evenodd" clip-rule="evenodd" fill="#BD0926" d="M4.625,4.113c-0.139-0.056-0.5-0.491-0.597-0.749
		C4.024,3.352,4.021,3.342,4.017,3.332c0.34,0.211,0.594,0.279,1.154,0.318c0.064,0.004,0.112,0.01,0.171,0.015
		c0.106-0.131,0.22-0.257,0.329-0.386C5.584,3.27,5.499,3.257,5.412,3.251c-0.654-0.041-0.996-0.137-1.18-0.333
		c-0.084-0.09-0.204-0.142-0.327-0.142c-0.181,0-0.325,0.109-0.357,0.271c-0.02,0.096-0.011,0.25,0.02,0.358
		c0.111,0.389,0.666,1.073,0.997,1.15c0.009,0.002,0.037,0.018,0.052,0.025c0.089-0.116,0.18-0.232,0.27-0.348
		C4.777,4.181,4.674,4.132,4.625,4.113z"/>
	<path fill-rule="evenodd" clip-rule="evenodd" fill="#BD0926" d="M48.503,18.538c-0.301-1.719-0.776-3.392-1.381-5.026
		c-1.235-3.34-2.9-6.471-4.704-9.535C42.1,3.435,41.686,2.987,41.19,2.601c-0.527-0.413-1.07-0.805-1.622-1.188
		c-0.689-0.478-1.36-0.977-1.992-1.532c-0.896-0.788-1.89-1.436-2.982-1.929c-0.786-0.353-1.517-0.797-2.243-1.257
		c-1.267-0.799-2.578-1.5-4.085-1.754c-0.57-0.096-1.09-0.358-1.61-0.601c-1.55-0.721-3.172-1.123-4.891-1.141
		c-1.269-0.014-2.535,0.021-3.8,0.103c-0.799,0.052-1.565,0.219-2.289,0.579c-0.564,0.281-1.16,0.493-1.772,0.649
		c-0.814,0.208-1.606,0.477-2.38,0.802c-1.056,0.443-2.09,0.923-2.988,1.653C8.2-2.742,7.821-2.553,7.364-2.512
		C6.712-2.454,6.162-2.129,5.645-1.749c-0.264,0.193-0.477,0.441-0.72,0.655c-0.203,0.179-0.412,0.355-0.681,0.42
		c-0.137,0.034-0.262,0.082-0.375,0.16c-1.19,0.806-2.216,1.777-3.015,2.977C0.299,3.295-0.148,4.188-0.657,5.047
		C-0.827,5.335-1.001,5.62-1.216,5.879c-0.172,0.207-0.376,0.349-0.655,0.374c-0.261,0.024-0.453,0.166-0.59,0.385
		c-0.114,0.181-0.203,0.375-0.283,0.571c-0.283,0.696-0.631,1.348-1.073,1.965c-0.699,0.979-1.182,2.076-1.551,3.218
		c-0.234,0.725-0.261,1.506-0.584,2.209c-0.518,1.995-0.696,4.014-0.476,6.066c0.154,1.433,0.426,2.841,0.776,4.237
		c0.207,0.823,0.443,1.642,0.571,2.482c0.079,0.519,0.11,1.036,0.111,1.559c0.001,0.297,0.045,0.592,0.32,0.784
		c0.132,0.09,0.237,0.204,0.329,0.333c0.223,0.315,0.399,0.657,0.54,1.018c0.475,1.216,0.967,2.425,1.556,3.593
		c0.625,1.24,1.427,2.34,2.475,3.265c0.739,0.651,1.485,1.294,2.254,1.91c0.563,0.451,1.164,0.854,1.725,1.308
		c0.771,0.621,1.428,1.355,2.021,2.144c0.506,0.673,1.141,1.174,1.913,1.514c1.663,0.734,3.321,1.48,4.985,2.214
		c0.99,0.436,2.004,0.812,3.019,1.188c0.395,0.146,0.796,0.311,1.097,0.612c0.214,0.214,0.457,0.328,0.739,0.39
		c0.557,0.122,1.122,0.126,1.686,0.075c0.612-0.051,1.202-0.178,1.737-0.513c0.312-0.195,0.67-0.299,1.04-0.317
		c0.419-0.021,0.832-0.078,1.236-0.183c0.905-0.234,1.814-0.458,2.742-0.579c0.883-0.116,1.739-0.326,2.56-0.667
		c2.038-0.844,4.025-1.796,5.971-2.833c1.009-0.54,2.003-1.109,2.791-1.963c0.089-0.097,0.196-0.185,0.326-0.22
		c0.111-0.031,0.204-0.085,0.293-0.154c0.355-0.273,0.673-0.589,0.99-0.903c1.541-1.54,2.882-3.248,4.18-4.99
		c0.717-0.962,1.345-1.975,1.774-3.102c0.27-0.705,0.599-1.385,0.935-2.06c0.233-0.467,0.448-0.944,0.598-1.443
		c0.288-0.954,0.57-1.909,0.842-2.868c0.207-0.73,0.398-1.466,0.437-2.229c0.023-0.45,0.089-0.891,0.252-1.307
		c0.265-0.668,0.354-1.357,0.341-1.987C48.736,20.101,48.638,19.317,48.503,18.538z M44.01,19.018
		c-0.09,1.268-0.196,2.534-0.325,3.799c-0.136,1.339-0.264,2.679-0.575,3.992c-0.114,0.485-0.287,0.945-0.539,1.381
		c-0.31,0.542-0.501,1.139-0.709,1.724c-0.31,0.876-0.697,1.715-1.185,2.508c-0.141,0.229-0.26,0.471-0.398,0.699
		c-0.097,0.16-0.099,0.35-0.184,0.513c-0.141,0.271-0.306,0.525-0.492,0.767c-1.217,1.582-2.573,3.033-4.115,4.307
		c-0.225,0.185-0.466,0.342-0.721,0.483c-0.354,0.197-0.676,0.444-0.921,0.765c-0.437,0.574-0.983,1.024-1.571,1.428
		c-0.391,0.268-0.793,0.514-1.202,0.748c-0.032,0.045-0.061,0.089-0.097,0.134c-0.077,0.152-0.163,0.287-0.244,0.407
		c-0.029,0.043-0.083,0.124-0.18,0.449c-0.099,0.333-0.329,1.104-1.102,1.608c-0.455,0.375-1.082,0.617-1.647,0.617
		c-0.234,0-0.732,0-1.418-0.514c-0.602,0.485-0.991,0.562-1.146,0.593c-0.088,0.018-0.343,0.057-0.548,0.078
		c-0.075,0.008-0.17,0.021-0.219,0.028c-0.159,0.032-0.321,0.049-0.484,0.049c-0.908,0-1.493-0.517-1.713-0.71
		c-0.312-0.276-0.599-0.659-0.794-1.029c-0.326-0.011-0.652-0.019-0.979-0.041c-0.183-0.012-0.364-0.036-0.545-0.059
		c-0.04-0.005-0.087-0.009-0.117-0.032c-0.35-0.259-0.771-0.294-1.178-0.377c-1.544-0.31-3.073-0.693-4.612-1.025
		c-0.553-0.12-1.072-0.309-1.569-0.541c-0.571-0.146-0.991-0.439-1.324-0.747c-0.965-0.623-1.963-1.184-2.998-1.683
		c-0.325-0.156-0.64-0.334-0.94-0.533c-0.294-0.194-0.56-0.407-0.743-0.725c-0.174-0.301-0.438-0.536-0.717-0.739
		c-0.637-0.464-1.146-1.05-1.598-1.683c-0.668-0.937-1.407-1.809-2.284-2.562c-0.525-0.45-0.892-1.005-1.077-1.674
		c-0.088-0.318-0.198-0.628-0.336-0.927c-0.106-0.23-0.219-0.455-0.411-0.634c-0.124-0.115-0.21-0.266-0.231-0.437
		c-0.054-0.462-0.204-0.897-0.363-1.328c-0.46-1.248-0.761-2.538-1.037-3.834c-0.24-1.13-0.441-2.265-0.567-3.413
		c-0.089-0.811-0.059-1.617,0.05-2.423c0.223-1.643,0.574-3.257,1.101-4.831c0.178-0.533,0.378-1.058,0.646-1.555
		c0.077-0.143,0.163-0.281,0.268-0.405c0.315-0.375,0.562-0.793,0.763-1.238c0.113-0.249,0.229-0.496,0.397-0.715
		C1.168,9.564,1.267,9.46,1.401,9.386C1.524,9.32,1.602,9.203,1.686,9.094c0.198-0.258,0.373-0.532,0.521-0.821
		C2.571,7.557,2.99,6.877,3.435,6.215C2.542,5.692,1.85,4.67,1.645,3.954C1.525,3.536,1.504,3.06,1.587,2.653
		C1.81,1.548,2.764,0.777,3.905,0.777c0.517,0,1.02,0.166,1.432,0.462C5.388,1.244,5.454,1.25,5.538,1.255
		C5.82,1.273,6.54,1.337,7.263,1.54c0.16-0.16,0.31-0.329,0.475-0.483c0.163-0.153,0.333-0.298,0.511-0.434
		c0.294-0.224,0.62-0.355,0.992-0.395c0.465-0.049,0.877-0.224,1.242-0.527c0.942-0.782,1.99-1.404,3.083-1.953
		c1.183-0.593,2.402-1.098,3.698-1.393c1.278-0.291,2.578-0.357,3.884-0.306c0.932,0.037,1.855,0.139,2.768,0.344
		c0.664,0.15,1.284,0.409,1.895,0.702c1.094,0.524,2.233,0.956,3.31,1.519c0.587,0.307,1.108,0.715,1.688,1.034
		c0.474,0.26,0.935,0.539,1.387,0.829c0.437-0.739,1.13-1.32,2.081-1.32c1.437,0,2.033,1.177,2.529,2.282
		c0.358,0.35,0.542,0.72,0.629,1.056c0.02,0.053,0.045,0.119,0.074,0.195c0.12,0.304,0.392,0.989,0.22,1.744
		c0.004,0.008,0.004,0.016,0.007,0.024c0.241,0.17,0.468,0.358,0.671,0.579c0.278,0.304,0.5,0.65,0.712,1.003
		c0.808,1.35,1.516,2.748,2.048,4.229c0.111,0.307,0.151,0.63,0.231,0.942c0.091,0.354,0.198,0.702,0.494,0.955
		c0.125,0.109,0.159,0.272,0.207,0.43c0.154,0.514,0.371,1.005,0.571,1.502c0.361,0.901,0.768,1.785,1.087,2.704
		C44.008,17.524,44.064,18.263,44.01,19.018z"/>
</g>
</svg>
