<?xml version="1.0" encoding="UTF-8" standalone="no"?>
<!-- Generator: Adobe Illustrator 16.0.0, SVG Export Plug-In . SVG Version: 6.00 Build 0)  -->

<svg
   xmlns:dc="http://purl.org/dc/elements/1.1/"
   xmlns:cc="http://creativecommons.org/ns#"
   xmlns:rdf="http://www.w3.org/1999/02/22-rdf-syntax-ns#"
   xmlns:svg="http://www.w3.org/2000/svg"
   xmlns="http://www.w3.org/2000/svg"
   xmlns:sodipodi="http://sodipodi.sourceforge.net/DTD/sodipodi-0.dtd"
   xmlns:inkscape="http://www.inkscape.org/namespaces/inkscape"
   version="1.1"
   id="OBM_xA0_Image_1_"
   x="0px"
   y="0px"
   width="56.693001"
   height="56.693001"
   viewBox="0 0 56.693001 56.693001"
   enable-background="new 0 0 672 690"
   xml:space="preserve"
   sodipodi:docname="Carte_Tresor.svg"
   inkscape:version="0.92.0 r15299"><metadata
   id="metadata19"><rdf:RDF><cc:Work
       rdf:about=""><dc:format>image/svg+xml</dc:format><dc:type
         rdf:resource="http://purl.org/dc/dcmitype/StillImage" /><dc:title></dc:title></cc:Work></rdf:RDF></metadata><defs
   id="defs17" /><sodipodi:namedview
   pagecolor="#ffffff"
   bordercolor="#666666"
   borderopacity="1"
   objecttolerance="10"
   gridtolerance="10"
   guidetolerance="10"
   inkscape:pageopacity="0"
   inkscape:pageshadow="2"
   inkscape:window-width="1280"
   inkscape:window-height="961"
   id="namedview15"
   showgrid="false"
   inkscape:zoom="7.7392325"
   inkscape:cx="29.052545"
   inkscape:cy="24.666734"
   inkscape:window-x="1272"
   inkscape:window-y="-8"
   inkscape:window-maximized="1"
   inkscape:current-layer="OBM_xA0_Image_1_" />
<g
   id="g12"
   transform="matrix(0.09259871,0,0,0.09211775,-2.7131734,-2.0642483)">
	<path
   d="m 632.114,327.028 c 0.142,6.833 -0.835,14.321 -3.684,21.571 -1.772,4.511 -2.476,9.311 -2.722,14.179 -0.419,8.283 -2.485,16.273 -4.718,24.203 -2.928,10.407 -5.984,20.778 -9.087,31.135 -1.626,5.427 -3.944,10.593 -6.457,15.664 -3.633,7.331 -7.189,14.708 -10.089,22.356 -4.642,12.242 -11.414,23.234 -19.165,33.685 -14.023,18.909 -28.493,37.448 -45.154,54.159 -3.415,3.426 -6.842,6.843 -10.682,9.809 -0.958,0.741 -1.963,1.338 -3.173,1.675 -1.393,0.389 -2.553,1.337 -3.514,2.384 -8.514,9.278 -19.237,15.449 -30.143,21.302 -21.004,11.272 -42.465,21.605 -64.479,30.769 -8.871,3.692 -18.098,5.979 -27.633,7.237 -10.025,1.321 -19.841,3.742 -29.625,6.281 -4.361,1.132 -8.816,1.762 -13.34,1.988 -4.002,0.2 -7.876,1.328 -11.24,3.447 -5.774,3.638 -12.146,5.005 -18.755,5.576 -6.091,0.526 -12.19,0.497 -18.212,-0.832 -3.048,-0.673 -5.661,-1.911 -7.979,-4.234 -3.255,-3.265 -7.579,-5.054 -11.849,-6.642 -10.959,-4.075 -21.912,-8.164 -32.605,-12.896 -17.969,-7.952 -35.873,-16.052 -53.836,-24.018 -8.332,-3.695 -15.194,-9.138 -20.653,-16.434 -6.409,-8.567 -13.508,-16.53 -21.832,-23.283 -6.057,-4.915 -12.54,-9.288 -18.623,-14.182 -8.312,-6.687 -16.368,-13.665 -24.349,-20.743 -11.315,-10.036 -19.974,-21.98 -26.724,-35.442 -6.358,-12.68 -11.673,-25.796 -16.799,-39 -1.514,-3.902 -3.42,-7.611 -5.833,-11.044 -0.985,-1.401 -2.121,-2.636 -3.55,-3.63 -2.967,-2.063 -3.442,-5.268 -3.45,-8.5 -0.014,-5.672 -0.349,-11.299 -1.197,-16.915 -1.383,-9.146 -3.937,-18.013 -6.168,-26.957 -3.781,-15.15 -6.724,-30.446 -8.382,-45.986 -2.378,-22.278 -0.458,-44.207 5.142,-65.855 3.492,-7.634 3.778,-16.116 6.307,-23.99 3.98,-12.392 9.196,-24.305 16.743,-34.921 4.767,-6.706 8.531,-13.788 11.587,-21.34 0.866,-2.139 1.825,-4.233 3.051,-6.198 1.485,-2.381 3.56,-3.924 6.374,-4.182 3.019,-0.278 5.225,-1.819 7.079,-4.057 2.323,-2.805 4.201,-5.905 6.042,-9.031 5.488,-9.321 10.329,-19.018 16.313,-28.053 8.624,-13.02 19.702,-23.56 32.555,-32.312 1.23,-0.838 2.575,-1.362 4.052,-1.725 2.905,-0.714 5.164,-2.629 7.349,-4.563 2.631,-2.331 4.934,-5.02 7.779,-7.121 5.588,-4.127 11.534,-7.654 18.574,-8.284 4.935,-0.441 9.025,-2.493 12.639,-5.45 9.7,-7.935 20.871,-13.137 32.274,-17.95 8.354,-3.526 16.915,-6.442 25.707,-8.705 6.604,-1.7 13.038,-3.997 19.131,-7.043 7.818,-3.91 16.094,-5.733 24.724,-6.293 13.664,-0.888 27.333,-1.261 41.034,-1.114 18.569,0.199 36.079,4.572 52.82,12.392 5.624,2.627 11.23,5.481 17.375,6.521 16.291,2.758 30.455,10.37 44.119,19.045 7.851,4.985 15.757,9.805 24.231,13.643 11.805,5.347 22.535,12.387 32.221,20.94 6.817,6.021 14.058,11.446 21.501,16.63 5.953,4.147 11.816,8.409 17.529,12.887 5.345,4.189 9.813,9.059 13.257,14.94 19.472,33.257 37.462,67.245 50.792,103.504 6.525,17.751 11.667,35.912 14.909,54.57 1.469,8.452 2.515,16.957 2.491,26.433 z M 358.565,575.503 c 6.103,0 12.205,0.027 18.306,-0.006 12.339,-0.066 24.384,-1.891 36.121,-5.807 14.867,-4.961 28.525,-12.251 41.376,-21.12 6.352,-4.383 12.255,-9.253 16.978,-15.488 2.634,-3.477 6.121,-6.155 9.941,-8.303 2.741,-1.539 5.358,-3.25 7.772,-5.254 16.661,-13.824 31.311,-29.568 44.45,-46.742 2.004,-2.619 3.792,-5.385 5.313,-8.324 0.917,-1.772 0.938,-3.829 1.977,-5.564 1.494,-2.496 2.795,-5.108 4.312,-7.59 5.262,-8.61 9.445,-17.719 12.796,-27.225 2.244,-6.366 4.307,-12.832 7.664,-18.716 2.699,-4.732 4.573,-9.719 5.815,-14.98 3.366,-14.266 4.744,-28.82 6.206,-43.354 1.38,-13.724 2.533,-27.469 3.514,-41.229 0.584,-8.192 -0.026,-16.218 -2.734,-24.056 -3.445,-9.973 -7.828,-19.563 -11.746,-29.342 -2.163,-5.399 -4.493,-10.74 -6.155,-16.321 -0.51,-1.71 -0.881,-3.478 -2.253,-4.661 -3.195,-2.756 -4.345,-6.519 -5.324,-10.367 -0.864,-3.4 -1.299,-6.9 -2.489,-10.229 -5.755,-16.089 -13.402,-31.266 -22.129,-45.919 -2.277,-3.825 -4.669,-7.588 -7.689,-10.89 -3.627,-3.963 -7.706,-7.288 -12.637,-9.605 -5.619,-2.64 -10.175,-6.829 -14.971,-10.699 -17.285,-13.948 -34.919,-27.426 -54.44,-38.193 -6.258,-3.452 -11.896,-7.888 -18.236,-11.22 -11.63,-6.113 -23.913,-10.793 -35.729,-16.486 -6.598,-3.179 -13.296,-5.99 -20.472,-7.619 -9.843,-2.234 -19.819,-3.34 -29.883,-3.738 -14.111,-0.559 -28.139,0.169 -41.947,3.326 -13.999,3.2 -27.163,8.685 -39.94,15.126 -11.802,5.949 -23.117,12.705 -33.295,21.195 -3.944,3.29 -8.393,5.188 -13.415,5.722 -4.008,0.426 -7.537,1.849 -10.706,4.284 -1.92,1.476 -3.755,3.047 -5.519,4.706 -9.951,9.362 -19.001,19.549 -27.496,30.231 -12.052,15.158 -23.443,30.765 -32.247,48.108 -1.592,3.136 -3.485,6.107 -5.621,8.911 -0.898,1.179 -1.75,2.451 -3.074,3.179 -1.444,0.793 -2.513,1.93 -3.488,3.204 -1.818,2.375 -3.079,5.054 -4.294,7.765 -2.167,4.834 -4.836,9.365 -8.243,13.442 -1.133,1.355 -2.056,2.851 -2.89,4.401 -2.897,5.386 -5.054,11.085 -6.978,16.869 -5.683,17.089 -9.477,34.611 -11.881,52.446 -1.18,8.75 -1.509,17.508 -0.545,26.306 1.366,12.462 3.534,24.791 6.125,37.044 2.976,14.074 6.231,28.077 11.196,41.622 1.718,4.688 3.343,9.413 3.927,14.426 0.216,1.854 1.155,3.479 2.491,4.734 2.066,1.94 3.283,4.376 4.435,6.872 1.498,3.247 2.68,6.618 3.627,10.058 2.006,7.277 5.964,13.288 11.641,18.186 9.468,8.168 17.449,17.625 24.667,27.804 4.875,6.875 10.374,13.221 17.256,18.259 3.022,2.212 5.869,4.763 7.746,8.024 1.976,3.433 4.849,5.762 8.023,7.876 3.251,2.165 6.645,4.087 10.159,5.785 11.835,5.719 23.25,12.167 34.233,19.397 9.045,5.954 18.654,10.519 29.385,12.843 16.628,3.601 33.134,7.77 49.816,11.145 4.389,0.889 8.941,1.277 12.721,4.092 0.326,0.243 0.83,0.291 1.261,0.342 1.963,0.234 3.925,0.507 5.896,0.641 10.43,0.707 20.874,0.808 31.32,0.676 z"
   id="path2"
   inkscape:connector-curvature="0"
   style="clip-rule:evenodd;fill:#be0a26;fill-rule:evenodd" />
	<path
   d="m 318.977,518.48 c -5.363,-0.137 -9.631,-1.037 -13.955,-1.379 -10.953,-0.865 -21.92,-1.488 -32.895,-2.009 -7.794,-0.37 -15.591,-0.593 -23.394,-0.581 -0.896,10e-4 -1.575,-0.367 -2.284,-0.784 -21.771,-12.812 -43.569,-25.584 -65.78,-37.619 -4.343,-2.354 -7.333,-5.308 -9.61,-9.695 -5.216,-10.053 -11.89,-19.24 -18.077,-28.713 -3.244,-4.967 -6.386,-9.996 -9.323,-15.153 -0.5,-0.876 -0.642,-1.695 -0.46,-2.657 1.934,-10.233 2.512,-20.597 3.005,-30.971 0.631,-13.281 1.392,-26.546 4.513,-39.551 1.396,-5.817 3.997,-11.14 6.38,-16.562 6.14,-13.964 12.267,-27.934 18.383,-41.909 1.677,-3.833 2.779,-7.867 3.894,-11.881 1.518,-5.467 3.938,-10.291 8.316,-14.098 3.047,-2.649 5.032,-6.228 7.357,-9.489 12.567,-17.626 25.17,-35.227 37.625,-52.933 5.364,-7.625 11.858,-14.072 18.942,-20.068 13.295,-11.254 26.47,-22.654 39.597,-34.106 8.962,-7.819 19.04,-13.486 30.462,-16.822 8.429,-2.462 16.431,-6.196 24.934,-8.459 7.158,-1.905 14.412,-3.445 21.479,-5.697 2.351,-0.749 4.58,-1.863 7.022,-2.328 4.179,-0.794 8.065,0.306 11.858,1.893 5.181,2.168 9.994,5.044 14.865,7.803 16.22,9.187 30.781,20.526 43.76,33.892 10.457,10.769 21.594,20.833 32.324,31.317 6.168,6.025 11.352,12.681 13.824,21.128 0.802,2.737 1.817,5.414 2.576,8.162 3.071,11.124 7.255,21.878 10.804,32.842 0.726,2.242 1.279,4.542 1.888,6.82 1.355,5.086 0.628,10.095 -1.018,14.922 -7.521,22.062 -11.935,44.968 -18.405,67.312 -1.787,6.174 -3.203,12.44 -4.557,18.714 -1.636,7.585 -5.03,14.209 -9.898,20.204 -13.927,17.15 -27.809,34.339 -41.653,51.557 -7.68,9.551 -15.124,19.286 -22.062,29.396 -0.545,0.793 -1.206,1.384 -2.015,1.889 -21.377,13.369 -42.484,27.157 -63.608,40.92 -4.523,2.947 -8.525,6.577 -12.856,9.776 -3.863,2.856 -7.916,5.198 -11.958,4.917 z m -81.161,-44.79 c 6.033,0.677 12.385,-1.974 18.056,-6.749 6.474,-5.45 13.045,-10.783 19.896,-15.761 16.391,-11.908 31.877,-25.081 49.46,-35.327 3.986,-2.322 7.173,-5.585 9.965,-9.254 3.831,-5.033 7.007,-10.52 10.77,-15.591 8.315,-11.207 16.767,-22.311 24.87,-33.677 5.438,-7.629 10.338,-15.725 17.55,-21.951 0.205,-0.177 0.361,-0.413 0.531,-0.629 4.359,-5.537 8.194,-11.417 11.538,-17.62 6.204,-11.507 10.537,-23.758 14.433,-36.185 8.073,-25.76 16.364,-51.455 23.582,-77.476 0.24,-0.866 0.329,-1.667 0.095,-2.573 -4.644,-17.962 -9.261,-35.935 -12.778,-54.157 -0.614,-3.179 -2.069,-5.048 -4.657,-6.748 -12.79,-8.404 -26.404,-15.292 -40.026,-22.182 -1.161,-0.587 -2.188,-0.694 -3.437,-0.378 -19.162,4.845 -38.033,10.681 -56.81,16.813 -7.809,2.55 -15.243,5.966 -21.469,11.542 -12.245,10.966 -24.933,21.407 -37.712,31.736 -13.158,10.635 -24.783,22.668 -34.501,36.567 -8.5,12.157 -17.157,24.208 -25.969,36.141 -9.544,12.923 -17.499,26.696 -23.695,41.523 -4.356,10.424 -9.35,20.588 -12.496,31.494 -1.425,4.939 -3.463,9.654 -6.498,13.794 -4.565,6.227 -6.167,13.36 -7.104,20.787 -1.402,11.125 -1.587,22.351 -2.924,33.485 -1.192,9.931 -1.328,19.943 -1.892,29.924 -0.052,0.916 0.25,1.565 0.706,2.266 6.407,9.853 12.746,19.75 18.735,29.863 2.714,4.584 5.229,9.286 8.59,13.458 3.204,3.977 7.148,6.607 12.368,7.052 3.572,0.304 7.14,0.242 10.695,-0.143 7.429,-0.806 14.854,-1.604 22.347,-1.087 5.423,0.376 10.838,0.923 17.781,1.043 z m 232.52,-157.507 c 0.883,-8.993 4.099,-16.969 7.563,-24.871 1.499,-3.418 2.918,-6.868 4.159,-10.391 2.267,-6.431 3.354,-13.062 3.479,-19.863 0.035,-1.906 -0.095,-1.988 -1.957,-1.577 -2.024,0.447 -3.524,1.717 -4.937,3.129 -1.325,1.325 -2.697,2.565 -4.491,3.274 -1.095,0.433 -1.865,0.233 -2.572,-0.696 -1.438,-1.892 -1.857,-4.069 -1.865,-6.359 -0.01,-3.241 0.114,-6.485 0.02,-9.723 -0.072,-2.468 -0.758,-4.767 -2.756,-6.47 -0.791,-0.675 -1.321,-0.973 -1.567,0.454 -0.215,1.24 -0.695,2.425 -1.439,3.474 -1.462,2.059 -3.479,2.555 -5.727,1.434 -1.433,-0.715 -2.761,-1.592 -4.015,-2.576 -1.729,-1.356 -3.451,-2.724 -5.123,-4.15 -0.717,-0.612 -1.058,-0.469 -1.446,0.31 -0.811,1.626 -1.403,3.334 -2.022,5.035 -0.752,2.063 -1.491,4.138 -2.901,5.876 -2.057,2.534 -3.399,2.697 -5.979,0.728 -0.794,-0.606 -1.527,-1.236 -2.663,-0.645 -1.152,0.6 -0.985,1.594 -0.942,2.563 0.27,6.05 1.064,12.028 2.458,17.926 2.307,9.765 6.179,18.976 9.941,28.226 3.98,9.783 7.475,19.713 8.868,30.251 0.391,2.957 0.636,5.933 0.963,9.052 3.371,-2.036 6.824,-1.813 10.329,-0.985 1.815,0.429 3.62,0.918 5.452,1.26 2.892,0.539 5.709,0.529 8.059,-1.655 1.053,-0.978 1.825,-1.993 1.19,-3.592 -0.316,-0.797 -0.307,-1.723 -0.447,-2.59 -0.707,-4.383 -0.809,-8.87 -2.204,-13.134 -0.384,-1.17 -0.566,-2.956 -1.69,-3.112 -0.943,-0.132 -1.706,1.52 -2.311,2.548 -1.474,2.506 -2.828,5.082 -4.297,7.59 -1.391,2.375 -3.235,4.277 -5.856,5.342 -1.105,0.449 -1.506,0.35 -1.438,-1.008 0.239,-4.804 -0.32,-9.53 -1.564,-14.187 -1.84,-6.886 -5.393,-12.938 -9.088,-18.922 -4.346,-7.039 -8.303,-14.24 -9.636,-22.557 -0.419,-2.612 -0.808,-5.236 -0.537,-8.17 2.562,2.003 4.084,4.404 5.213,7.023 1.346,3.121 2.493,6.328 3.715,9.501 1.247,3.238 2.578,6.432 4.937,9.058 1.271,1.416 2.675,2.662 4.583,3.282 0.483,-1.75 0.476,-3.384 0.257,-5.031 -0.579,-4.362 -2.668,-8.097 -4.9,-11.767 -1.797,-2.955 -3.726,-5.833 -5.188,-8.98 -1.622,-3.489 -2.578,-7.082 -2.064,-11.006 0.197,-1.506 0.751,-1.535 1.925,-1.097 2.012,0.751 3.438,2.113 4.454,3.954 0.963,1.746 1.507,3.642 1.979,5.566 0.851,3.46 1.266,7.03 2.604,10.368 0.748,1.865 1.785,3.496 3.445,4.722 0.936,0.691 1.288,0.366 1.587,-0.552 0.442,-1.351 0.41,-2.702 0.085,-4.061 -0.582,-2.435 -1.813,-4.581 -2.992,-6.752 -1.176,-2.169 -2.458,-4.296 -2.963,-6.757 -0.447,-2.18 0.394,-4.115 2.19,-5.272 0.58,-0.374 0.891,-0.448 1.153,0.33 2.152,6.357 5.841,11.906 9.348,17.543 0.696,1.121 0.849,2.189 0.584,3.426 -0.551,2.579 -1.275,5.107 -2.049,7.626 -1.561,5.083 -3.463,10.084 -3.892,15.449 -0.381,4.739 0.679,8.93 4.978,12.188 z M 278.403,487.585 c 2.932,1.759 8.665,2.987 13.828,3.111 8.719,0.208 17.304,-1.17 25.928,-2.102 7.161,-0.774 14.325,-1.427 21.525,-0.488 0.81,0.105 1.62,0.208 2.853,0.366 -0.796,-0.658 -1.219,-0.997 -1.631,-1.349 -4.856,-4.145 -5.038,-9.177 -0.493,-13.633 2.162,-2.119 4.764,-3.516 7.584,-4.512 4.37,-1.542 8.859,-2.055 13.469,-1.418 0.451,0.062 1.068,0.364 1.35,-0.123 0.275,-0.477 -0.231,-0.91 -0.513,-1.297 -0.851,-1.168 -2.046,-1.984 -3.083,-2.963 -2.375,-2.241 -2.036,-4.28 0.929,-5.569 3.84,-1.668 7.627,-1.067 11.391,0.286 4.486,1.613 8.718,3.912 13.414,4.963 2.683,0.6 5.373,0.763 8.341,0.307 -1.729,-2.331 -3.748,-3.872 -6.037,-5.1 -3.926,-2.105 -8.21,-3.165 -12.529,-3.906 -9.913,-1.703 -17.169,-6.849 -21.743,-15.844 -1.417,-2.785 -3.056,-5.468 -4.967,-7.96 -1.561,-2.033 -3.248,-3.944 -5.748,-5.416 0.127,1.175 0.182,2.093 0.331,2.995 0.798,4.812 3.582,8.538 6.657,12.104 3.145,3.647 5.974,7.449 6.812,12.395 0.208,1.23 -0.146,1.638 -1.229,1.953 -4.696,1.37 -9.467,2.408 -14.26,3.366 -8.23,1.646 -16.534,2.99 -24.447,5.937 -0.521,0.194 -1.186,0.202 -1.484,0.864 1.087,0.874 2.361,1.188 3.656,1.447 2.168,0.435 4.375,0.354 6.566,0.494 2.354,0.151 4.735,0.11 6.999,0.903 0.399,0.141 1.277,0.112 0.76,1.025 -1.65,2.906 -2.993,5.978 -5.203,8.567 -2.219,2.602 -5.069,2.749 -8.103,2.524 -0.383,-0.028 -0.568,-0.247 -0.741,-0.551 -1.402,-2.467 -3.725,-3.813 -6.148,-5.04 -1.322,-0.67 -2.652,-1.33 -3.939,-2.062 -1.589,-0.905 -3.005,-2.024 -4.004,-3.602 -0.545,-0.86 -1.037,-1.768 -0.536,-2.773 0.513,-1.028 1.557,-1.125 2.567,-1.129 1.319,-0.006 2.638,0.037 3.956,0.043 0.606,0.003 1.209,-0.036 1.754,-0.361 0.239,-0.143 0.501,-0.277 0.51,-0.583 0.01,-0.357 -0.318,-0.383 -0.567,-0.477 -0.822,-0.309 -1.653,-0.597 -2.46,-0.938 -3.808,-1.609 -6.916,-4.015 -8.841,-7.776 -0.475,-0.927 -0.64,-1.72 -0.042,-2.739 0.864,-1.473 1.316,-3.144 1.32,-4.878 0.004,-2.126 -1.046,-3.541 -2.88,-4.131 -0.921,-0.297 -1.327,-0.27 -1.378,0.921 -0.112,2.63 -0.326,5.266 -0.667,7.877 -1.87,14.308 -6.966,26.967 -18.827,36.272 z m 122.291,-94.416 c 0.503,0.223 0.835,0.391 1.182,0.521 5.321,1.994 7.893,6.034 8.496,11.497 0.551,4.977 -0.242,9.861 -1.152,14.728 -0.907,4.854 -2.025,9.668 -2.705,14.564 -0.265,1.901 -0.065,2.114 1.836,1.802 2.553,-0.421 4.216,-1.994 5.314,-4.239 1.022,-2.089 1.517,-4.344 1.999,-6.6 0.607,-2.839 0.983,-5.743 2.234,-8.407 1.342,-2.856 3.44,-3.933 6.4,-3.34 1.837,0.367 2.134,0.05 1.498,-1.729 -0.85,-2.383 -2.966,-2.922 -5.104,-3.323 -2.102,-0.395 -4.225,-0.679 -6.337,-1.021 -0.628,-0.102 -1.096,-0.344 -1.297,-1.06 -0.566,-2.005 -1.219,-3.984 -1.815,-5.98 -1.195,-3.995 -0.597,-7.453 2.89,-10.155 1.472,-1.141 2.808,-2.462 4.168,-3.741 1.961,-1.845 3.338,-4.027 3.998,-6.685 0.347,-1.394 0.11,-2.072 -1.397,-2.426 -2.192,-0.516 -4.298,-1.353 -6.102,-2.774 -2.553,-2.014 -3.079,-4.267 -1.716,-7.168 2.775,-5.905 6.327,-11.31 10.653,-16.18 1.029,-1.159 0.971,-1.921 0.022,-3.011 -1.603,-1.844 -3.534,-3.29 -5.409,-4.812 -2.136,-1.733 -4.353,-3.421 -4.477,-6.544 -0.011,-0.259 -0.167,-0.523 -0.292,-0.766 -0.804,-1.553 -2.223,-1.723 -3.381,-0.399 -1.194,1.364 -2.382,2.735 -3.559,4.114 -5.224,6.123 -10.586,12.086 -18.094,15.547 -1.075,0.496 -0.413,1.033 -0.066,1.515 3.266,4.536 7.929,6.402 13.293,6.906 2.021,0.189 2.02,0.184 2.01,-1.9 -0.004,-0.769 -0.04,-1.541 0.008,-2.308 0.23,-3.732 1.066,-7.289 3.34,-10.349 1.522,-2.05 3.514,-3.305 6.189,-3.093 0.77,0.061 1.218,0.252 0.678,1.216 -1.487,2.654 -2.328,5.554 -3.007,8.506 -1.55,6.756 -1.994,13.687 -3.249,20.487 -1.101,5.977 -2.491,11.845 -7.049,16.607 z m -163.333,89.768 c -0.889,0.919 -1.944,1.145 -3.052,1.234 -1.447,0.117 -2.845,-0.187 -4.237,-0.514 -2.142,-0.503 -4.284,-1.008 -6.51,-0.807 -0.417,0.037 -0.984,-0.063 -1.127,0.456 -0.121,0.441 0.219,0.839 0.538,1.145 1.329,1.27 3.013,1.175 4.657,1.129 2.635,-0.074 5.243,-0.596 7.89,-0.5 0.769,0.027 1.551,0 2.225,0.463 3.83,2.629 8.186,3.918 12.631,4.994 5.762,1.394 11.66,2.179 17.363,3.831 4.9,1.419 9.602,3.229 12.98,7.335 3.218,3.91 2.649,5.466 -2.298,6.562 -1.231,0.272 -2.557,0.408 -3.553,1.532 0.351,0.164 0.585,0.318 0.842,0.387 5.938,1.593 11.859,1.118 17.78,-0.129 0.981,-0.206 0.84,-0.79 0.635,-1.475 -1.142,-3.804 -3.578,-6.634 -6.745,-8.888 -5.453,-3.881 -11.715,-5.946 -18.008,-7.924 -6.905,-2.17 -14,-3.755 -20.626,-6.773 -3.792,-1.727 -7.457,-3.746 -11.48,-4.941 -4.66,-1.386 -9.071,-0.896 -13.624,1.768 3.075,0.265 5.74,-0.132 8.411,-0.188 1.835,-0.039 3.74,-0.121 5.308,1.303 z M 465.775,185.776 c 1.59,0.47 2.028,1.711 2.842,2.556 0.398,0.413 0.808,1.081 1.463,0.374 0.598,-0.645 -0.058,-0.959 -0.455,-1.288 -5.18,-4.281 -9.804,-9.133 -14.413,-14 -6.083,-6.423 -12.136,-12.881 -19.365,-18.075 -0.468,-0.336 -0.857,-0.884 -1.584,-0.81 -0.151,6.718 4.29,11.043 8.166,16.022 0.062,-0.583 0.125,-0.844 0.111,-1.101 -0.057,-1.097 -0.147,-2.191 -0.203,-3.287 -0.027,-0.52 0.103,-1.03 0.629,-1.234 0.726,-0.283 0.779,0.443 0.996,0.812 0.789,1.343 1.813,2.477 2.955,3.52 2.32,2.119 4.971,3.804 7.472,5.686 1.887,1.42 3.783,2.831 5.143,4.825 1.102,1.616 1.427,3.334 0.653,5.143 -0.307,0.718 -0.196,1.2 0.234,1.787 1.314,1.788 2.915,3.282 4.627,4.669 2.219,1.797 4.594,3.412 6.554,5.51 1.294,1.386 2.504,2.842 3.107,4.898 -3.157,-1.731 -4.806,-5.432 -8.67,-5.72 2.404,1.471 2.813,3.842 3.04,6.278 0.151,1.639 0.226,3.286 0.304,4.931 0.286,6.007 4.542,9.059 8.855,12.07 -0.39,-1.325 -1.385,-2.174 -2.32,-3.077 -0.908,-0.877 -1.838,-1.747 -2.398,-2.906 -0.25,-0.516 -0.295,-1.069 0.11,-1.548 0.408,-0.481 0.937,-0.261 1.381,-0.12 1.57,0.498 2.758,1.561 3.825,2.762 1.204,1.354 2.371,2.741 3.568,4.101 0.479,0.544 1.057,0.952 1.777,1.139 0.384,0.1 0.782,0.208 1.086,-0.109 0.349,-0.365 0.006,-0.726 -0.147,-1.032 -0.839,-1.684 -1.933,-3.205 -3.249,-4.538 -2.856,-2.891 -5.807,-5.69 -8.625,-8.617 -1.394,-1.448 -2.528,-3.121 -2.781,-5.463 1.603,0.979 2.837,2.061 4.093,3.116 2.773,2.332 5.345,4.911 8.399,6.895 1.043,0.677 2.102,1.381 3.625,1.349 -2.585,-3.465 -4.661,-7.078 -6.915,-10.578 -1.577,-2.45 -3.203,-4.869 -5.349,-6.876 -0.729,-0.682 -1.464,-1.387 -2.881,-1.812 1.444,1.669 2.137,3.184 2.193,5.144 -4.228,-2.738 -6.732,-6.412 -7.853,-11.396 z m -1.418,20.89 c 1.576,-9.792 -7.824,-25.421 -15.974,-26.291 1.42,1.53 3.052,2.856 4.466,4.384 3.293,3.559 6.423,7.261 7.762,12.076 0.345,1.239 1.088,2.94 0.102,3.699 -0.824,0.635 -2.315,-0.494 -3.42,-1.071 -2.78,-1.45 -4.836,-3.771 -7.026,-5.929 -1.632,-1.609 -3.273,-3.214 -5.452,-4.231 0,0.25 -0.035,0.42 0.006,0.57 0.285,1.059 0.54,2.129 0.889,3.167 2.008,5.98 4.69,11.602 8.881,16.399 1.057,1.209 2.253,2.256 3.782,2.84 -1.809,-2.797 -4.072,-5.223 -5.659,-8.129 -1.133,-2.074 -1.822,-4.236 -1.383,-6.635 0.167,-0.908 0.499,-1.232 1.387,-0.564 2.127,1.6 3.805,3.644 5.638,5.536 1.718,1.775 3.544,3.412 6.001,4.179 z M 218.535,481.807 c -5.76,0.724 -10.941,-0.904 -16.086,-2.69 -2.437,-0.845 -4.873,-1.691 -7.427,-2.095 -1.638,-0.258 -3.291,-0.334 -4.922,0.236 3.095,1.619 6.116,3.431 9.555,3.898 3.271,0.444 5.935,1.745 8.652,3.599 4.708,3.211 10.208,4.745 15.745,5.973 1.887,0.418 3.795,0.859 5.905,0.587 -0.654,-0.655 -1.408,-0.64 -2.054,-0.857 -3.081,-1.035 -6.098,-2.201 -8.639,-4.296 -1.713,-1.412 -1.873,-2.343 -0.729,-4.355 z M 482.789,224.929 c 1.911,2.913 3.156,6.063 4.175,9.318 0.556,1.776 1.093,3.559 1.653,5.334 0.181,0.573 0.325,1.175 1.194,1.021 1.35,-0.24 2.438,-0.886 2.841,-2.199 0.456,-1.496 1.682,-3.035 0.411,-4.636 -2.85,-3.593 -6.544,-6.23 -10.274,-8.838 z m -13.614,-0.696 c -0.322,-1.889 -1.305,-3.284 -2.032,-4.777 -1.15,-2.367 -2.269,-4.723 0.679,-6.88 -2.191,-0.399 -3.487,-1.646 -4.683,-3.034 -0.965,-1.121 -1.881,-2.288 -2.898,-3.359 -0.671,-0.707 -1.489,-1.25 -2.646,-0.564 1.154,1.295 2.117,2.619 2.752,4.143 0.63,1.514 1.247,3.036 1.819,4.573 0.726,1.95 1.408,3.919 2.477,5.716 1.046,1.762 2.347,3.27 4.532,4.182 z m 3.576,-4.693 c 1.643,1.521 2.388,3.204 2.989,4.982 0.56,1.653 1.001,3.355 1.879,4.888 0.759,1.326 1.766,2.315 3.278,2.796 0.902,0.287 1.107,0.087 1.146,-0.832 0.195,-4.737 -4.171,-10.535 -9.292,-11.834 z m -2.226,6.874 c 0.854,0.406 1.572,0.956 2.127,1.724 0.377,0.523 0.855,0.977 1.312,1.438 0.239,0.243 0.62,0.4 0.89,0.226 0.301,-0.195 0.162,-0.601 0.067,-0.907 -0.399,-1.289 -1.093,-2.366 -2.3,-3.043 -0.816,-0.459 -1.539,-0.461 -2.096,0.562 z"
   id="path4"
   inkscape:connector-curvature="0"
   style="clip-rule:evenodd;fill:#be0a26;fill-rule:evenodd" />
	<path
   d="m 174.018,400.261 c 0.188,-6.762 1.137,-13.464 1.568,-20.206 0.329,-5.151 0.779,-10.308 0.804,-15.464 0.051,-10.81 2.756,-20.938 7.162,-30.716 4.982,-11.056 9.69,-22.238 15.486,-32.911 2.12,-3.904 3.12,-8.207 4.047,-12.494 1.135,-5.253 3.493,-9.864 6.467,-14.297 9.032,-13.46 18.872,-26.354 27.842,-39.855 3.678,-5.537 7.288,-11.118 11.393,-16.359 2.627,-3.354 5.548,-6.395 9.106,-8.766 9.404,-6.269 17.664,-13.97 26.4,-21.073 7.42,-6.034 14.713,-12.22 21.266,-19.221 3.551,-3.794 8.098,-5.992 12.871,-7.74 11.797,-4.32 23.626,-8.553 35.43,-12.854 2.267,-0.826 4.584,-1.612 6.691,-2.758 3.955,-2.153 7.806,-1.786 11.708,-0.057 5.082,2.252 9.371,5.688 13.617,9.185 4.749,3.912 9.106,8.32 14.228,11.746 1.97,1.319 2.833,2.658 2.971,5.032 0.498,8.511 3.21,16.57 5.46,24.714 1.892,6.842 3.521,13.724 3.623,20.874 0.075,5.28 -1.103,10.354 -2.562,15.374 -2.468,8.489 -5.871,16.665 -8.51,25.091 -2.971,9.482 -6.923,18.626 -9.619,28.189 -1.384,4.907 -2.37,9.926 -3.545,14.892 -0.646,2.73 -1.691,5.152 -4.268,6.726 -1.585,0.969 -2.345,2.615 -2.287,4.506 0.059,1.915 -0.659,3.496 -1.73,5.029 -4.098,5.867 -8.834,11.226 -13.285,16.811 -1.646,2.065 -3.236,4.167 -4.536,6.472 -1.453,2.577 -3.63,4.532 -5.638,6.639 -7.501,7.871 -13.562,16.854 -19.825,25.681 -5.218,7.354 -10.496,14.661 -17.113,20.871 -2.372,2.226 -4.852,4.345 -7.667,5.957 -9.098,5.209 -17.232,11.721 -25.429,18.195 -9.571,7.559 -19.293,14.938 -29.359,21.84 -2.222,1.523 -4.561,2.848 -7.058,3.884 -1.055,0.438 -1.97,0.345 -2.949,-0.286 -1.824,-1.175 -2.236,-1.065 -3.388,0.714 -0.435,0.672 -1.017,0.902 -1.773,1.003 -5.646,0.746 -11.313,0.496 -16.952,0.14 -5.25,-0.332 -10.457,-0.33 -15.557,0.933 -5.406,1.34 -9.464,-0.501 -12.687,-4.731 -1.297,-1.702 -2.624,-3.405 -3.703,-5.246 -3.621,-6.182 -7.821,-11.938 -12.313,-17.507 -2.699,-3.347 -5.095,-6.903 -6.023,-11.221 -0.482,-2.226 -0.339,-4.486 -0.364,-6.736 z M 407.483,205.038 c 0.39,-3.688 -0.096,-4.915 -4.461,-3.767 -7.322,1.923 -14.577,4.183 -21.986,5.678 -8.292,1.673 -15.341,5.343 -21.607,10.906 -7.066,6.272 -14.119,12.562 -21.595,18.362 -5.727,4.443 -10.785,9.751 -16.928,13.644 -7.043,4.462 -12.445,10.386 -16.699,17.455 -7.118,11.829 -14.921,23.184 -23.438,34.05 -9.081,11.585 -16.008,24.385 -21.421,38.038 -4.085,10.304 -8.191,20.6 -12.28,30.902 -1.8,4.537 -3.845,8.994 -4.985,13.761 -2.26,9.447 -2.047,19.081 -1.966,28.695 0.076,9.062 0.488,18.14 -1.291,27.111 -0.175,0.881 0.016,1.141 0.954,1.088 2.978,-0.169 5.884,-0.677 8.735,-1.542 5.68,-1.725 10.474,-4.997 15.076,-8.604 5.145,-4.033 10.189,-8.22 16.389,-10.621 0.388,-0.15 0.623,-0.424 0.849,-0.739 3.406,-4.78 7.873,-8.415 12.734,-11.574 5.801,-3.771 11.718,-7.361 17.524,-11.125 7.529,-4.879 13.821,-10.968 18.317,-18.839 2.343,-4.101 4.964,-8.039 8.01,-11.673 11.621,-13.861 22.198,-28.534 33.273,-42.819 5.94,-7.663 11.116,-15.842 14.146,-25.156 1.9,-5.841 3.368,-11.828 5.379,-17.628 4.601,-13.271 9.458,-26.456 12.5,-40.209 0.69,-3.124 1.47,-6.191 3.786,-8.62 0.465,-0.488 0.714,-1.235 0.922,-1.907 1.543,-4.978 2.24,-10.073 1.898,-15.281 -0.119,-1.801 0.08,-3.838 -0.877,-5.299 -0.919,-1.402 -1.006,-2.7 -0.958,-4.287 z"
   id="path6"
   inkscape:connector-curvature="0"
   style="clip-rule:evenodd;fill:#be0a26;fill-rule:evenodd" />
	<path
   d="m 316.681,479.494 c -2.1,0.994 -3.845,0.997 -5.625,0.406 -1.476,-0.489 -2.784,-1.302 -4.063,-2.152 -2.693,-1.79 -5.331,-3.685 -8.731,-4.062 1.282,-1.756 3.43,-2.294 6.114,-1.582 2.42,0.642 4.57,1.856 6.606,3.268 1.84,1.274 3.632,2.622 5.699,4.122 z"
   id="path8"
   inkscape:connector-curvature="0"
   style="clip-rule:evenodd;fill:#be0a26;fill-rule:evenodd" />
	<path
   d="m 249,486.573 c -1.414,1.441 -2.84,1.171 -4.269,0.368 -1.929,-1.086 -3.637,-2.604 -6.132,-2.884 1.476,-1.141 2.759,-0.699 4.018,-0.119 2.061,0.951 3.95,2.298 6.383,2.635 z"
   id="path10"
   inkscape:connector-curvature="0"
   style="clip-rule:evenodd;fill:#be0a26;fill-rule:evenodd" />
</g>
</svg>