<?xml version="1.0" encoding="UTF-8" standalone="no"?>
<!-- Generator: Adobe Illustrator 16.0.0, SVG Export Plug-In . SVG Version: 6.00 Build 0)  -->

<svg
   xmlns:dc="http://purl.org/dc/elements/1.1/"
   xmlns:cc="http://creativecommons.org/ns#"
   xmlns:rdf="http://www.w3.org/1999/02/22-rdf-syntax-ns#"
   xmlns:svg="http://www.w3.org/2000/svg"
   xmlns="http://www.w3.org/2000/svg"
   xmlns:sodipodi="http://sodipodi.sourceforge.net/DTD/sodipodi-0.dtd"
   xmlns:inkscape="http://www.inkscape.org/namespaces/inkscape"
   version="1.1"
   id="Layer_1"
   x="0px"
   y="0px"
   width="56.693px"
   height="56.693px"
   viewBox="-7.087 -7.087 56.693 56.693"
   enable-background="new -7.087 -7.087 56.693 56.693"
   xml:space="preserve"
   sodipodi:docname="Carte_Region.svg"
   inkscape:version="0.92.0 r15299"><metadata
   id="metadata13"><rdf:RDF><cc:Work
       rdf:about=""><dc:format>image/svg+xml</dc:format><dc:type
         rdf:resource="http://purl.org/dc/dcmitype/StillImage" /><dc:title /></cc:Work></rdf:RDF></metadata><defs
   id="defs11">
	
</defs><sodipodi:namedview
   pagecolor="#ffffff"
   bordercolor="#666666"
   borderopacity="1"
   objecttolerance="10"
   gridtolerance="10"
   guidetolerance="10"
   inkscape:pageopacity="0"
   inkscape:pageshadow="2"
   inkscape:window-width="1280"
   inkscape:window-height="961"
   id="namedview9"
   showgrid="false"
   inkscape:zoom="4.1627714"
   inkscape:cx="-12.371566"
   inkscape:cy="28.3465"
   inkscape:window-x="1272"
   inkscape:window-y="-8"
   inkscape:window-maximized="1"
   inkscape:current-layer="Layer_1"
   showguides="false" />
<path
   d="M 28.851562 0.28515625 C 27.582563 0.27115625 26.317734 0.30667188 25.052734 0.38867188 C 24.253734 0.44067187 23.487672 0.60875 22.763672 0.96875 C 22.199672 1.24975 21.602234 1.4611875 20.990234 1.6171875 C 20.176234 1.8251875 19.385328 2.0949219 18.611328 2.4199219 C 17.555328 2.8629219 16.521047 3.3422656 15.623047 4.0722656 C 15.287047 4.3452656 14.908172 4.5332187 14.451172 4.5742188 C 13.799172 4.6322187 13.249422 4.9578906 12.732422 5.3378906 C 12.468422 5.5308906 12.254719 5.7781875 12.011719 5.9921875 C 11.808719 6.1711875 11.599078 6.3471094 11.330078 6.4121094 C 11.193078 6.4461094 11.068078 6.4942656 10.955078 6.5722656 C 9.7650781 7.3782656 8.7404063 8.3507813 7.9414062 9.5507812 C 7.3864063 10.382781 6.9386875 11.275766 6.4296875 12.134766 C 6.2596875 12.422766 6.0860937 12.707797 5.8710938 12.966797 C 5.6990938 13.173797 5.4957969 13.314844 5.2167969 13.339844 C 4.9557969 13.363844 4.7639531 13.505609 4.6269531 13.724609 C 4.5129531 13.905609 4.42375 14.100875 4.34375 14.296875 C 4.06075 14.992875 3.7115313 15.644719 3.2695312 16.261719 C 2.5705313 17.240719 2.08775 18.336516 1.71875 19.478516 C 1.48475 20.203516 1.4577656 20.9845 1.1347656 21.6875 C 0.61676563 23.6825 0.43820313 25.701906 0.65820312 27.753906 C 0.81220312 29.186906 1.0855469 30.594234 1.4355469 31.990234 C 1.6425469 32.813234 1.8778594 33.632656 2.0058594 34.472656 C 2.0848594 34.991656 2.1161875 35.50825 2.1171875 36.03125 C 2.1181875 36.32825 2.1625 36.624406 2.4375 36.816406 C 2.5695 36.906406 2.673625 37.019438 2.765625 37.148438 C 2.988625 37.463438 3.1656406 37.806969 3.3066406 38.167969 C 3.7816406 39.383969 4.2723281 40.591766 4.8613281 41.759766 C 5.4863281 42.999766 6.2898906 44.100391 7.3378906 45.025391 C 7.8948906 45.515391 8.4641563 45.991844 9.0351562 46.464844 C 9.0071562 46.330844 8.9659375 46.200547 8.9609375 46.060547 C 8.9539375 45.855547 8.972625 45.655891 9.015625 45.462891 C 8.352625 44.275891 8.3277812 43.319594 8.3007812 42.308594 C 8.2957812 42.109594 8.2892969 41.889437 8.2792969 41.648438 C 8.2712969 41.465438 8.2834063 41.286328 8.3164062 41.111328 C 8.2554063 40.786328 8.2637031 40.447094 8.3457031 40.121094 C 8.3777031 39.993094 8.4056406 39.806516 8.4316406 39.603516 C 8.1886406 39.277516 7.9987188 38.915813 7.8867188 38.507812 C 7.7987187 38.189813 7.6887812 37.879078 7.5507812 37.580078 C 7.4447812 37.350078 7.332625 37.126266 7.140625 36.947266 C 7.016625 36.832266 6.9292031 36.680766 6.9082031 36.509766 C 6.8542031 36.047766 6.705875 35.612641 6.546875 35.181641 C 6.086875 33.933641 5.7857656 32.643656 5.5097656 31.347656 C 5.2697656 30.217656 5.0674062 29.083547 4.9414062 27.935547 C 4.8524062 27.124547 4.8831875 26.317719 4.9921875 25.511719 C 5.2151875 23.868719 5.56675 22.255641 6.09375 20.681641 C 6.27175 20.148641 6.4702813 19.623953 6.7382812 19.126953 C 6.8152812 18.983953 6.9028125 18.844703 7.0078125 18.720703 C 7.3228125 18.345703 7.5685313 17.927422 7.7695312 17.482422 C 7.8825313 17.233422 7.9999687 16.986578 8.1679688 16.767578 C 8.2559687 16.650578 8.3542812 16.546656 8.4882812 16.472656 C 8.6002813 16.411656 8.675 16.308984 8.75 16.208984 C 8.734 15.974984 8.7169375 15.738625 8.7109375 15.515625 C 8.7059375 15.289625 8.7321094 15.068328 8.7871094 14.861328 C 8.7441094 14.699328 8.7198906 14.531375 8.7128906 14.359375 C 8.6838906 13.619375 8.8792656 12.877344 9.0722656 12.152344 C 9.1152656 11.989344 9.1916562 11.707688 9.2226562 11.554688 C 9.2106563 10.452688 9.9682656 9.4821406 11.072266 9.2441406 C 11.306266 9.1941406 11.540578 9.1699219 11.767578 9.1699219 C 12.041578 9.1699219 12.305688 9.2054375 12.554688 9.2734375 C 12.837688 9.1304375 13.152422 9.0443906 13.482422 9.0253906 C 13.646422 9.0173906 13.819328 9.0060937 13.986328 8.9960938 C 14.262328 8.7080937 14.532219 8.4155781 14.824219 8.1425781 C 14.987219 7.9895781 15.157937 7.8449844 15.335938 7.7089844 C 15.629937 7.4849844 15.956125 7.3544531 16.328125 7.3144531 C 16.793125 7.2654531 17.205312 7.0901094 17.570312 6.7871094 C 18.512313 6.0051094 19.559344 5.3829844 20.652344 4.8339844 C 21.835344 4.2409844 23.055563 3.7364062 24.351562 3.4414062 C 25.629562 3.1504063 26.928375 3.0837656 28.234375 3.1347656 C 29.166375 3.1717656 30.090906 3.2735156 31.003906 3.4785156 C 31.667906 3.6285156 32.287438 3.8886406 32.898438 4.1816406 C 33.992438 4.7056406 35.130031 5.1362188 36.207031 5.6992188 C 36.794031 6.0062188 37.316484 6.415375 37.896484 6.734375 C 39.371484 7.543375 40.725922 8.5217813 42.044922 9.5507812 C 42.120922 9.5687813 42.214156 9.5845625 42.285156 9.6015625 C 42.463156 9.6435625 42.705391 9.7010781 42.775391 9.7050781 C 42.877391 9.7040781 42.977219 9.6935469 43.074219 9.6855469 C 43.294219 9.6655469 43.521906 9.6464844 43.753906 9.6464844 C 44.752906 9.6464844 45.606375 9.9587031 46.359375 10.595703 C 46.802375 10.968703 47.090875 11.489453 47.171875 12.064453 C 47.261875 12.707453 47.159141 13.236297 46.994141 13.654297 C 47.106141 14.077297 47.14225 14.485516 47.15625 14.853516 C 47.56825 15.665516 47.943906 16.495469 48.253906 17.355469 C 48.364906 17.662469 48.404375 17.984875 48.484375 18.296875 C 48.575375 18.650875 48.682516 18.998953 48.978516 19.251953 C 49.103516 19.360953 49.137547 19.523641 49.185547 19.681641 C 49.339547 20.195641 49.555859 20.686594 49.755859 21.183594 C 50.116859 22.084594 50.52475 22.969672 50.84375 23.888672 C 51.09475 24.610672 51.150703 25.349516 51.095703 26.103516 C 51.005703 27.371516 50.900484 28.637344 50.771484 29.902344 C 50.635484 31.241344 50.506312 32.581531 50.195312 33.894531 C 50.081312 34.379531 49.90825 34.839391 49.65625 35.275391 C 49.34625 35.817391 49.155266 36.413047 48.947266 36.998047 C 48.637266 37.874047 48.251672 38.714812 47.763672 39.507812 C 47.731672 39.559812 47.701875 39.613969 47.671875 39.667969 C 47.653875 39.722969 47.645047 39.779984 47.623047 39.833984 C 47.661047 39.932984 47.69275 40.034625 47.71875 40.140625 C 48.19275 42.119625 47.568328 43.593781 47.111328 44.675781 C 46.820328 45.366781 46.670469 45.746859 46.730469 46.130859 C 46.838469 46.827859 46.631922 47.527969 46.169922 48.042969 C 45.726922 48.543969 45.087016 48.830078 44.416016 48.830078 C 44.387016 48.830078 44.345406 48.829125 44.316406 48.828125 C 44.071406 48.817125 43.832516 48.8125 43.603516 48.8125 C 42.428516 48.8125 41.643672 48.948047 40.638672 49.123047 L 40.568359 49.136719 C 40.223359 49.196719 39.868375 49.256453 39.484375 49.314453 C 39.366375 49.334453 39.247047 49.34375 39.123047 49.34375 C 38.825047 49.34375 38.530953 49.278063 38.251953 49.164062 C 37.388953 49.667063 36.486344 50.095109 35.527344 50.412109 C 34.442344 50.772109 33.326594 50.940266 32.183594 50.947266 C 31.618594 50.949266 31.054281 50.947266 30.488281 50.947266 C 29.520281 50.959266 28.554844 50.951719 27.589844 50.886719 C 27.406844 50.874719 27.225922 50.849172 27.044922 50.826172 C 27.004922 50.821172 26.957734 50.817922 26.927734 50.794922 C 26.577734 50.535922 26.155047 50.500969 25.748047 50.417969 C 24.204047 50.107969 22.675719 49.724578 21.136719 49.392578 C 20.717719 49.301578 20.319594 49.166766 19.933594 49.009766 C 19.523594 49.002766 19.118734 48.996094 18.677734 48.996094 C 18.452734 48.996094 18.223891 48.998953 17.962891 49.001953 C 17.478891 49.001953 17.017766 48.853797 16.634766 48.591797 C 15.974766 48.699797 15.307313 48.757812 14.695312 48.757812 C 14.429312 48.757812 14.178406 48.745609 13.941406 48.724609 C 13.602406 48.906609 13.222938 49.001953 12.835938 49.001953 L 12.126953 49.001953 C 12.558953 49.437953 12.965938 49.895719 13.335938 50.386719 C 13.841938 51.059719 14.476047 51.560391 15.248047 51.900391 C 16.911047 52.634391 18.570375 53.379281 20.234375 54.113281 C 21.224375 54.549281 22.238906 54.926734 23.253906 55.302734 C 23.648906 55.448734 24.048609 55.613062 24.349609 55.914062 C 24.563609 56.128062 24.807844 56.242688 25.089844 56.304688 C 25.646844 56.426687 26.211391 56.429906 26.775391 56.378906 C 27.387391 56.327906 27.976719 56.200234 28.511719 55.865234 C 28.823719 55.670234 29.182734 55.566828 29.552734 55.548828 C 29.971734 55.527828 30.383109 55.470234 30.787109 55.365234 C 31.692109 55.131234 32.601297 54.908109 33.529297 54.787109 C 34.412297 54.671109 35.268844 54.460141 36.089844 54.119141 C 38.127844 53.275141 40.114547 52.324109 42.060547 51.287109 C 43.069547 50.747109 44.063563 50.178219 44.851562 49.324219 C 44.940562 49.227219 45.047734 49.138516 45.177734 49.103516 C 45.288734 49.072516 45.381703 49.018219 45.470703 48.949219 C 45.825703 48.676219 46.143937 48.360875 46.460938 48.046875 C 48.001937 46.506875 49.342625 44.798641 50.640625 43.056641 C 51.357625 42.094641 51.985062 41.082078 52.414062 39.955078 C 52.684063 39.250078 53.013609 38.569531 53.349609 37.894531 C 53.582609 37.427531 53.797266 36.950172 53.947266 36.451172 C 54.235266 35.497172 54.517063 34.542984 54.789062 33.583984 C 54.996063 32.853984 55.187563 32.118469 55.226562 31.355469 C 55.249563 30.905469 55.315516 30.464828 55.478516 30.048828 C 55.743516 29.380828 55.833313 28.690547 55.820312 28.060547 C 55.823313 27.187547 55.724844 26.404 55.589844 25.625 C 55.288844 23.906 54.813984 22.233609 54.208984 20.599609 C 52.973984 17.259609 51.309859 14.128453 49.505859 11.064453 C 49.187859 10.522453 48.773344 10.0735 48.277344 9.6875 C 47.750344 9.2745 47.206297 8.883 46.654297 8.5 C 45.965297 8.022 45.294109 7.52375 44.662109 6.96875 C 43.766109 6.18075 42.773641 5.5320625 41.681641 5.0390625 C 40.895641 4.6860625 40.1635 4.24125 39.4375 3.78125 C 38.1705 2.98225 36.860516 2.2813437 35.353516 2.0273438 C 34.783516 1.9313437 34.262188 1.6707344 33.742188 1.4277344 C 32.192188 0.70673437 30.570562 0.30315625 28.851562 0.28515625 z M 19.572266 10.763672 C 17.944266 10.763672 16.329578 10.859125 14.767578 10.953125 C 14.367578 10.977125 13.97475 11.002437 13.59375 11.023438 C 13.47775 11.029438 13.373406 11.093312 13.316406 11.195312 C 13.263406 11.287313 13.257828 11.399094 13.298828 11.496094 C 13.246828 11.507094 13.186672 11.517391 13.138672 11.525391 C 12.961672 11.557391 12.746828 11.597453 12.548828 11.689453 C 12.428828 11.447453 12.224531 11.169922 11.769531 11.169922 C 11.683531 11.169922 11.590188 11.180172 11.492188 11.201172 C 11.320188 11.238172 11.204609 11.399219 11.224609 11.574219 C 11.246609 11.758219 11.118859 12.241969 11.005859 12.667969 C 10.852859 13.243969 10.692937 13.838297 10.710938 14.279297 C 10.716937 14.432297 10.828516 14.55775 10.978516 14.59375 C 11.120516 14.62675 11.271609 14.559547 11.349609 14.435547 C 11.383609 14.446547 11.445 14.482828 11.5 14.548828 C 11.557 14.616828 11.576313 14.682844 11.570312 14.714844 C 11.568312 14.723844 11.565453 14.745906 11.564453 14.753906 C 11.541453 14.780906 11.426422 14.81975 11.357422 14.84375 C 11.154422 14.91275 10.848469 15.016703 10.730469 15.345703 C 10.715469 15.384703 10.709938 15.428703 10.710938 15.470703 C 10.725937 16.037703 10.788469 16.699391 10.855469 17.400391 C 11.018469 19.130391 11.221734 21.283797 10.802734 23.216797 C 10.779734 23.319797 10.806047 23.426813 10.873047 23.507812 C 10.940047 23.587812 11.040437 23.629953 11.148438 23.626953 C 11.162437 23.626953 11.175453 23.626953 11.189453 23.626953 C 11.365453 24.766953 11.194844 25.627063 10.964844 26.789062 C 10.936844 26.931062 11.003906 27.077391 11.128906 27.150391 C 11.278906 27.238391 11.434938 27.312766 11.585938 27.384766 C 11.752937 27.464766 11.912734 27.540906 12.052734 27.628906 C 11.935734 27.774906 11.767031 27.890578 11.582031 28.017578 C 11.320031 28.198578 11.022031 28.400375 10.832031 28.734375 C 10.773031 28.838375 10.773031 28.966313 10.832031 29.070312 C 11.493031 30.253312 11.266344 31.526047 11.027344 32.873047 C 10.788344 34.219047 10.543281 35.607203 11.238281 36.908203 C 10.672281 37.766203 10.552266 38.731844 10.447266 39.589844 C 10.402266 39.955844 10.359156 40.302562 10.285156 40.601562 C 10.258156 40.706562 10.284516 40.819344 10.353516 40.902344 C 10.422516 40.986344 10.527719 41.031391 10.636719 41.025391 C 11.203719 40.993391 11.570281 40.589094 11.863281 40.246094 C 11.829281 40.308094 11.797625 40.371594 11.765625 40.433594 C 11.496625 40.963594 11.312437 41.285156 11.023438 41.285156 C 10.943437 41.285156 10.849141 41.265656 10.744141 41.222656 C 10.636141 41.179656 10.514922 41.192766 10.419922 41.259766 C 10.324922 41.326766 10.270391 41.438688 10.275391 41.554688 C 10.286391 41.815687 10.293828 42.046859 10.298828 42.255859 C 10.323828 43.214859 10.337938 43.793188 10.835938 44.617188 C 10.902938 44.728187 11.028203 44.791297 11.158203 44.779297 C 11.270203 44.769297 11.368828 44.705375 11.423828 44.609375 C 11.454828 44.595375 11.521141 44.577219 11.619141 44.574219 C 11.604141 44.592219 11.590172 44.611859 11.576172 44.630859 C 11.407172 44.869859 11.453328 45.132219 11.486328 45.324219 C 11.497328 45.388219 11.518859 45.507156 11.505859 45.535156 C 11.505859 45.535156 11.462469 45.594578 11.230469 45.642578 C 11.067469 45.676578 10.951031 45.822281 10.957031 45.988281 C 10.962031 46.154281 11.088906 46.292453 11.253906 46.314453 C 11.276906 46.317453 11.285156 46.322266 11.285156 46.322266 C 11.285156 46.323266 11.331734 46.384187 11.302734 46.617188 C 11.290734 46.714187 11.320766 46.813719 11.384766 46.886719 C 11.449766 46.959719 11.542625 47.001953 11.640625 47.001953 L 12.839844 47.001953 C 12.903844 47.001953 12.967484 46.981266 13.021484 46.947266 C 13.127484 46.880266 13.264875 46.759359 13.296875 46.568359 C 13.655875 46.693359 14.124266 46.755859 14.697266 46.755859 C 15.412266 46.755859 16.257672 46.655469 17.013672 46.480469 C 17.117672 46.456469 17.205047 46.385109 17.248047 46.287109 C 17.291047 46.188109 17.285422 46.074469 17.232422 45.980469 C 17.211422 45.942469 17.194891 45.894125 17.212891 45.828125 C 17.336891 46.045125 17.534922 46.162234 17.669922 46.240234 C 17.699922 46.258234 17.741531 46.280781 17.769531 46.300781 C 17.757531 46.331781 17.732781 46.386656 17.675781 46.472656 C 17.605781 46.578656 17.599156 46.714219 17.660156 46.824219 C 17.720156 46.936219 17.832844 47.003906 17.964844 47.003906 C 18.874844 46.992906 19.702141 47.004578 20.494141 47.017578 C 21.038141 47.025578 21.552406 47.035156 22.066406 47.035156 C 23.430406 47.035156 24.461578 46.974078 25.517578 46.830078 C 25.702578 46.805078 25.832547 46.637172 25.810547 46.451172 C 25.802547 46.390172 25.798547 46.346547 25.810547 46.310547 C 25.810547 46.321547 25.8115 46.333703 25.8125 46.345703 C 25.8205 46.453703 25.87775 46.550375 25.96875 46.609375 C 26.05975 46.666375 26.172438 46.678625 26.273438 46.640625 C 26.347437 46.611625 26.402406 46.593984 26.441406 46.583984 C 26.502406 46.754984 26.635703 47.051063 27.095703 47.164062 C 27.127703 47.172062 27.159406 47.173828 27.191406 47.173828 C 27.667406 47.151828 28.13875 47.033969 28.59375 46.917969 C 29.17175 46.770969 29.766484 46.617156 30.396484 46.660156 C 30.757484 46.685156 31.150297 46.804922 31.529297 46.919922 C 31.977297 47.054922 32.440672 47.195312 32.888672 47.195312 C 32.999672 47.195312 33.105984 47.187922 33.208984 47.169922 C 33.384984 47.138922 33.563141 47.106219 33.744141 47.074219 C 34.760141 46.896219 35.811578 46.712891 36.767578 46.712891 C 37.710578 46.712891 38.414922 46.895391 38.919922 47.275391 C 38.978922 47.319391 39.052 47.34375 39.125 47.34375 C 39.143 47.34375 39.158734 47.343844 39.177734 47.339844 C 39.576734 47.279844 39.945781 47.214344 40.300781 47.152344 C 41.350781 46.969344 42.256422 46.8125 43.607422 46.8125 C 43.863422 46.8125 44.13225 46.818078 44.40625 46.830078 C 44.50825 46.834078 44.608781 46.792797 44.675781 46.716797 C 44.743781 46.640797 44.773813 46.5385 44.757812 46.4375 C 44.607813 45.4735 44.932391 44.704578 45.275391 43.892578 C 45.679391 42.935578 46.098344 41.946469 45.777344 40.605469 C 45.742344 40.455469 45.610031 40.34875 45.457031 40.34375 C 44.878031 40.32375 44.652266 40.313578 44.447266 40.267578 C 44.524266 39.619578 44.667484 39.3125 45.271484 39.3125 C 45.317484 39.3125 45.365969 39.314359 45.417969 39.318359 C 45.425969 39.318359 45.434359 39.320312 45.443359 39.320312 C 45.445359 39.319312 45.446266 39.319312 45.447266 39.320312 C 45.636266 39.320312 45.789062 39.166516 45.789062 38.978516 C 45.789062 38.960516 45.787156 38.943781 45.785156 38.925781 C 45.776156 37.915781 45.768703 37.468266 45.470703 36.947266 C 45.602703 36.850266 45.704578 36.71025 45.767578 36.53125 C 45.789578 36.47125 45.793297 36.40575 45.779297 36.34375 C 45.607297 35.57575 45.615047 34.538047 45.623047 33.623047 C 45.627047 33.204047 45.630234 32.808563 45.615234 32.476562 C 45.613234 32.433563 45.605891 32.390563 45.587891 32.351562 C 45.494891 32.145563 45.315703 32.027344 45.095703 32.027344 C 44.953703 32.027344 44.821078 32.077094 44.705078 32.121094 C 44.688078 32.127094 44.670391 32.134578 44.650391 32.142578 C 44.691391 32.110578 44.761094 32.074437 44.871094 32.023438 C 45.030094 31.950437 45.228094 31.859641 45.371094 31.681641 C 45.428094 31.608641 45.454406 31.516828 45.441406 31.423828 C 45.269406 30.132828 45.118516 28.180234 45.103516 27.365234 C 45.101516 27.275234 45.064953 27.188953 45.001953 27.126953 C 44.992953 27.117953 44.982656 27.108609 44.972656 27.099609 C 45.021656 27.052609 45.061703 27.003266 45.095703 26.947266 C 45.282703 26.639266 45.179313 26.305172 45.070312 25.951172 C 44.957313 25.584172 44.818047 25.139578 44.873047 24.517578 C 44.902047 24.510578 44.931938 24.502141 44.960938 24.494141 C 45.104938 24.454141 45.204984 24.324781 45.208984 24.175781 C 45.214984 23.947781 45.207219 23.708562 45.199219 23.476562 C 45.189219 23.196563 45.179266 22.90425 45.197266 22.65625 C 45.204266 22.56125 45.170469 22.468438 45.105469 22.398438 C 45.039469 22.329438 44.950563 22.291969 44.851562 22.292969 L 44.787109 22.292969 C 44.150109 22.292969 43.751656 22.125656 43.722656 21.847656 C 43.686656 21.510656 44.138734 20.914094 44.927734 20.746094 C 45.074734 20.715094 45.182266 20.594313 45.197266 20.445312 C 45.225266 20.147312 45.211266 19.814141 45.197266 19.494141 C 45.175266 19.004141 45.1525 18.449891 45.3125 18.212891 C 45.3665 18.132891 45.382375 18.033453 45.359375 17.939453 C 45.335375 17.846453 45.274453 17.767656 45.189453 17.722656 C 44.844453 17.537656 44.833922 17.391063 44.794922 16.914062 C 44.784922 16.788063 44.772953 16.646328 44.751953 16.486328 L 44.857422 16.486328 L 44.859375 16.486328 C 45.048375 16.486328 45.201172 16.332531 45.201172 16.144531 C 45.201172 16.115531 45.198406 16.087547 45.191406 16.060547 C 45.171406 15.863547 45.169922 15.641203 45.169922 15.408203 C 45.169922 14.760203 45.170375 14.036953 44.734375 13.501953 C 44.762375 13.455953 44.803422 13.408656 44.857422 13.347656 C 45.021422 13.160656 45.268359 12.879797 45.193359 12.341797 C 45.181359 12.257797 45.140172 12.182906 45.076172 12.128906 C 44.573172 11.703906 44.108812 11.648438 43.757812 11.648438 C 43.587812 11.648438 43.419813 11.662734 43.257812 11.677734 C 43.109813 11.690734 42.956688 11.703078 42.804688 11.705078 L 42.785156 11.705078 C 42.490156 11.705078 42.166266 11.628875 41.822266 11.546875 C 41.414266 11.449875 40.990344 11.349609 40.527344 11.349609 C 40.419344 11.349609 40.314937 11.354234 40.210938 11.365234 C 39.906937 11.398234 39.618797 11.510187 39.341797 11.617188 C 39.100797 11.710187 38.85375 11.806563 38.59375 11.851562 C 38.41475 11.544563 38.11475 11.49275 37.96875 11.46875 C 37.95375 11.46675 37.939781 11.464891 37.925781 11.462891 C 37.866781 11.406891 37.790984 11.370234 37.708984 11.365234 C 36.798984 11.304234 35.898344 11.222531 35.027344 11.144531 C 33.279344 10.987531 31.627547 10.839844 29.935547 10.839844 C 29.665547 10.839844 29.398625 10.843563 29.140625 10.851562 C 29.037625 10.854563 28.940906 10.904328 28.878906 10.986328 C 28.828906 11.050328 28.783281 11.1195 28.738281 11.1875 C 28.622281 11.3635 28.5475 11.467672 28.4375 11.513672 C 28.4675 11.422672 28.4825 11.312359 28.4375 11.193359 C 28.3835 11.046359 28.257406 10.938094 28.066406 10.871094 C 27.945406 10.828094 27.81175 10.856312 27.71875 10.945312 C 27.31775 11.328313 26.795172 11.507812 26.076172 11.507812 C 25.380172 11.507812 24.593031 11.335922 23.832031 11.169922 C 23.220031 11.037922 22.588859 10.900516 22.005859 10.853516 C 21.260859 10.792516 20.465266 10.763672 19.572266 10.763672 z M 19.570312 11.447266 C 20.445312 11.447266 21.223219 11.474203 21.949219 11.533203 C 22.486219 11.576203 23.0695 11.702891 23.6875 11.837891 C 24.4835 12.011891 25.306172 12.191406 26.076172 12.191406 C 26.699172 12.190406 27.222109 12.071125 27.662109 11.828125 C 27.663109 11.830125 27.663062 11.833937 27.664062 11.835938 C 27.704063 11.976937 27.804938 12.090781 27.960938 12.175781 C 27.999937 12.196781 28.040984 12.209844 28.083984 12.214844 C 28.147984 12.222844 28.205719 12.226562 28.261719 12.226562 C 28.867719 12.226562 29.121641 11.843453 29.306641 11.564453 C 29.313641 11.553453 29.320125 11.541297 29.328125 11.529297 C 29.880125 11.517297 30.458391 11.522969 31.025391 11.542969 L 31.025391 12.046875 C 31.025391 12.234875 31.179188 12.386719 31.367188 12.386719 L 32.904297 12.386719 C 33.090297 12.386719 33.242094 12.238734 33.246094 12.052734 C 33.249094 11.915734 33.221063 11.786922 33.164062 11.669922 C 33.756062 11.716922 34.356797 11.769219 34.966797 11.824219 C 35.803797 11.899219 36.667922 11.976109 37.544922 12.037109 C 37.652922 12.107109 37.772469 12.126625 37.855469 12.140625 C 38.010469 12.166625 38.010156 12.167109 38.035156 12.287109 C 38.070156 12.450109 38.218812 12.562594 38.382812 12.558594 C 38.846813 12.541594 39.240844 12.388906 39.589844 12.253906 C 39.836844 12.158906 40.068203 12.067922 40.283203 12.044922 C 40.361203 12.035922 40.444344 12.03125 40.527344 12.03125 C 40.910344 12.03125 41.295016 12.122937 41.666016 12.210938 C 42.032016 12.297937 42.410156 12.388672 42.785156 12.388672 L 42.810547 12.388672 C 42.988547 12.386672 43.155406 12.372422 43.316406 12.357422 C 43.470406 12.344422 43.615859 12.330078 43.755859 12.330078 C 43.987859 12.330078 44.240391 12.3605 44.525391 12.5625 C 44.518391 12.6985 44.45375 12.771484 44.34375 12.896484 C 44.22175 13.035484 44.053859 13.22625 44.005859 13.53125 C 43.987859 13.64425 44.028281 13.758938 44.113281 13.835938 C 44.485281 14.176938 44.486328 14.774203 44.486328 15.408203 C 44.486328 15.539203 44.486234 15.673687 44.490234 15.804688 L 44.34375 15.804688 C 44.23975 15.804688 44.140172 15.850641 44.076172 15.931641 C 44.011172 16.012641 43.987766 16.11675 44.009766 16.21875 C 44.074766 16.50775 44.094328 16.754703 44.111328 16.970703 C 44.146328 17.400703 44.180703 17.812484 44.595703 18.146484 C 44.470703 18.543484 44.492672 19.039437 44.513672 19.523438 C 44.523672 19.734437 44.531344 19.949484 44.527344 20.146484 C 43.628344 20.438484 42.968969 21.204969 43.042969 21.917969 C 43.073969 22.213969 43.280906 22.876844 44.503906 22.964844 C 44.503906 23.141844 44.509625 23.321047 44.515625 23.498047 C 44.520625 23.630047 44.526344 23.766437 44.527344 23.898438 C 44.514344 23.901438 44.501281 23.90325 44.488281 23.90625 C 44.350281 23.93625 44.246609 24.0475 44.224609 24.1875 C 44.086609 25.0845 44.285016 25.727344 44.416016 26.152344 C 44.465016 26.309344 44.538719 26.545797 44.511719 26.591797 C 44.497719 26.613797 44.393734 26.734281 43.677734 26.863281 C 43.571734 26.883281 43.479641 26.950828 43.431641 27.048828 C 43.383641 27.145828 43.385547 27.259469 43.435547 27.355469 C 43.592547 27.661469 43.795969 27.816406 44.042969 27.816406 C 44.200969 27.816406 44.330687 27.750406 44.429688 27.691406 C 44.467687 28.596406 44.593187 30.152172 44.742188 31.326172 C 44.695188 31.351172 44.639938 31.377344 44.585938 31.402344 C 44.321938 31.524344 43.879203 31.727891 43.908203 32.337891 C 43.911203 32.379891 43.9205 32.422937 43.9375 32.460938 C 44.0925 32.808937 44.367578 32.859375 44.517578 32.859375 C 44.674578 32.859375 44.817406 32.808719 44.941406 32.761719 C 44.946406 33.019719 44.944406 33.311187 44.941406 33.617188 C 44.933406 34.526187 44.924891 35.551953 45.087891 36.376953 C 45.061891 36.407953 45.023313 36.417969 44.945312 36.417969 L 44.943359 36.417969 C 44.812359 36.412969 44.689906 36.486516 44.628906 36.603516 C 44.567906 36.720516 44.580156 36.861797 44.660156 36.966797 C 45.046156 37.472797 45.087609 37.679719 45.099609 38.636719 C 43.905609 38.729719 43.803094 39.806484 43.746094 40.396484 L 43.738281 40.482422 C 43.722281 40.639422 43.816797 40.786891 43.966797 40.837891 C 44.359797 40.972891 44.574109 40.995578 45.162109 41.017578 C 45.325109 42.017578 44.993531 42.801906 44.644531 43.628906 C 44.323531 44.388906 43.992063 45.172719 44.039062 46.136719 C 43.892062 46.132719 43.747469 46.130859 43.605469 46.130859 C 42.196469 46.130859 41.216641 46.301422 40.181641 46.482422 C 39.870641 46.536422 39.550938 46.591531 39.210938 46.644531 C 38.597938 46.230531 37.796578 46.029297 36.767578 46.029297 C 35.751578 46.029297 34.671953 46.218297 33.626953 46.404297 C 33.447953 46.435297 33.26975 46.468047 33.09375 46.498047 C 33.03075 46.509047 32.958719 46.515625 32.886719 46.515625 C 32.539719 46.515625 32.145562 46.394578 31.726562 46.267578 C 31.310562 46.141578 30.881359 46.012422 30.443359 45.982422 C 29.710359 45.932422 29.053781 46.098813 28.425781 46.257812 C 28.002781 46.364812 27.602891 46.467234 27.212891 46.490234 C 27.119891 46.462234 27.107266 46.428172 27.072266 46.326172 C 27.036266 46.219172 26.946484 45.953484 26.646484 45.896484 C 26.666484 45.813484 26.674156 45.714656 26.660156 45.597656 C 26.646156 45.478656 26.568984 45.374172 26.458984 45.326172 C 26.348984 45.277172 26.219094 45.290328 26.121094 45.361328 C 26.061094 45.404328 25.968141 45.441469 25.869141 45.480469 C 25.632141 45.575469 25.227672 45.736406 25.138672 46.191406 C 24.209672 46.304406 23.2705 46.351562 22.0625 46.351562 C 21.5535 46.351562 21.044906 46.344938 20.503906 46.335938 C 19.855906 46.325938 19.180078 46.314406 18.455078 46.316406 C 18.459078 46.255406 18.456406 46.192859 18.441406 46.130859 C 18.396406 45.937859 18.269531 45.819375 18.144531 45.734375 C 18.221531 45.659375 18.279266 45.575719 18.322266 45.511719 C 18.433266 45.347719 18.474859 45.296875 18.630859 45.296875 C 18.785859 45.303875 18.929703 45.196922 18.970703 45.044922 C 19.011703 44.891922 18.943687 44.729297 18.804688 44.654297 C 18.653687 44.571297 18.474484 44.53125 18.271484 44.53125 C 17.652484 44.53125 16.943203 44.911484 16.658203 45.396484 C 16.563203 45.556484 16.518531 45.723672 16.519531 45.888672 C 15.905531 46.008672 15.257312 46.074219 14.695312 46.074219 C 14.090312 46.074219 13.609844 45.993656 13.339844 45.847656 C 13.294844 45.823656 13.242406 45.810594 13.191406 45.808594 C 13.154406 45.806594 13.121797 45.806641 13.091797 45.806641 C 12.980797 45.806641 12.72375 45.805672 12.59375 46.013672 C 12.52575 46.124672 12.525875 46.233312 12.546875 46.320312 L 11.984375 46.320312 C 11.973375 46.226313 11.953781 46.145172 11.925781 46.076172 C 12.265781 45.802172 12.195156 45.406031 12.160156 45.207031 C 12.149156 45.142031 12.133766 45.047297 12.134766 45.029297 C 12.135766 45.028297 12.180859 44.982219 12.380859 44.949219 C 12.525859 44.925219 12.639109 44.812969 12.662109 44.667969 C 12.688109 44.503969 12.64225 44.340938 12.53125 44.210938 C 12.28025 43.916938 11.79825 43.894531 11.65625 43.894531 C 11.50425 43.894531 11.369953 43.913219 11.251953 43.949219 C 11.014953 43.441219 11.003422 43.017234 10.982422 42.240234 C 10.980422 42.154234 10.977609 42.064703 10.974609 41.970703 C 10.991609 41.971703 11.008391 41.970703 11.025391 41.970703 C 11.754391 41.970703 12.084953 41.320094 12.376953 40.746094 C 12.583953 40.337094 12.797422 39.914359 13.107422 39.818359 C 13.238422 39.777359 13.333656 39.661391 13.347656 39.525391 C 13.360656 39.388391 13.291875 39.256406 13.171875 39.191406 C 12.958875 39.075406 12.749781 39.015625 12.550781 39.015625 C 12.016781 39.015625 11.677906 39.412672 11.378906 39.763672 C 11.275906 39.883672 11.174312 40.001609 11.070312 40.099609 C 11.089313 39.961609 11.107 39.820781 11.125 39.675781 C 11.233 38.798781 11.345063 37.892719 11.914062 37.136719 C 11.999063 37.023719 12.006594 36.871953 11.933594 36.751953 C 11.269594 35.672953 11.440062 34.469266 11.664062 33.197266 C 11.820063 33.964266 12.69125 33.995578 13.28125 34.017578 C 13.35525 34.019578 13.428953 34.023344 13.501953 34.027344 C 13.675953 34.033344 13.830422 33.912281 13.857422 33.738281 C 13.907422 33.412281 13.852406 33.152844 13.691406 32.964844 C 13.466406 32.700844 13.116687 32.666016 12.804688 32.666016 C 12.711688 32.666016 12.616484 32.669828 12.521484 32.673828 C 12.337484 32.680828 12.148203 32.683016 12.033203 32.666016 C 11.932203 32.650016 11.829906 32.682953 11.753906 32.751953 L 11.740234 32.763672 C 11.963234 31.496672 12.145297 30.194547 11.529297 28.935547 C 11.646297 28.805547 11.805703 28.695031 11.970703 28.582031 C 12.286703 28.365031 12.643406 28.119156 12.816406 27.660156 C 12.865406 27.530156 12.831469 27.386969 12.730469 27.292969 C 12.480469 27.058969 12.175859 26.913484 11.880859 26.771484 C 11.813859 26.739484 11.748547 26.708734 11.685547 26.677734 C 11.913547 25.511734 12.070547 24.541656 11.810547 23.222656 C 11.783547 23.087656 11.680781 22.984078 11.550781 22.955078 C 11.885781 21.034078 11.692156 18.995938 11.535156 17.335938 C 11.474156 16.691938 11.415484 16.081547 11.396484 15.560547 C 11.440484 15.536547 11.524125 15.506281 11.578125 15.488281 C 11.806125 15.410281 12.187141 15.280172 12.244141 14.826172 C 12.285141 14.588172 12.205391 14.327328 12.025391 14.111328 C 11.865391 13.919328 11.654359 13.792813 11.443359 13.757812 C 11.497359 13.471813 11.583063 13.144797 11.664062 12.841797 C 11.758063 12.490797 11.843766 12.168391 11.884766 11.900391 C 11.911766 11.938391 11.944188 12.004141 11.992188 12.119141 C 12.028188 12.205141 12.070953 12.301578 12.126953 12.392578 C 12.185953 12.491578 12.29125 12.554594 12.40625 12.558594 C 12.52025 12.562594 12.630266 12.508062 12.697266 12.414062 C 12.790266 12.282063 13.037813 12.238219 13.257812 12.199219 C 13.530812 12.151219 13.840609 12.094312 13.974609 11.820312 C 13.995609 11.776313 14.008578 11.731594 14.017578 11.683594 C 14.276578 11.668594 14.540641 11.652719 14.806641 11.636719 C 16.358641 11.543719 17.963313 11.447266 19.570312 11.447266 z M 30.257812 14.064453 C 30.127813 14.057453 30.006312 14.127188 29.945312 14.242188 L 28.884766 16.197266 L 27.417969 15.113281 C 27.341969 15.057281 27.246344 15.035734 27.152344 15.052734 C 27.059344 15.069734 26.977781 15.122172 26.925781 15.201172 L 24.365234 19.171875 C 24.263234 19.330875 24.307797 19.540578 24.466797 19.642578 C 24.523797 19.679578 24.588344 19.697266 24.652344 19.697266 C 24.764344 19.697266 24.874453 19.642016 24.939453 19.541016 L 26.710938 16.794922 L 28.542969 16.794922 L 29.333984 16.794922 L 30.923828 16.794922 L 31.615234 18.369141 L 30.458984 19.638672 C 30.331984 19.777672 30.341469 19.992141 30.480469 20.119141 C 30.545469 20.179141 30.628937 20.208984 30.710938 20.208984 C 30.802937 20.208984 30.895891 20.171656 30.962891 20.097656 L 33.804688 16.984375 L 35.519531 19.222656 C 35.633531 19.372656 35.848047 19.400156 35.998047 19.285156 C 36.148047 19.170156 36.175547 18.956641 36.060547 18.806641 L 35.494141 18.068359 C 35.527141 18.048359 35.559938 18.024188 35.585938 17.992188 L 36.566406 16.794922 L 38.654297 16.794922 L 40.060547 19.226562 C 40.123547 19.335563 40.239422 19.396484 40.357422 19.396484 C 40.415422 19.396484 40.473344 19.382562 40.527344 19.351562 C 40.693344 19.259563 40.749297 19.049719 40.654297 18.886719 L 38.136719 14.533203 C 38.079719 14.436203 37.980187 14.374234 37.867188 14.365234 C 37.755187 14.356234 37.647172 14.401281 37.576172 14.488281 L 35.083984 17.53125 L 34.099609 16.246094 C 34.037609 16.166094 33.94475 16.117281 33.84375 16.113281 C 33.73975 16.107281 33.644172 16.150609 33.576172 16.224609 L 32.121094 17.820312 L 30.556641 14.267578 C 30.503641 14.148578 30.387812 14.069453 30.257812 14.064453 z M 30.212891 15.181641 L 30.697266 16.283203 L 29.613281 16.283203 L 30.212891 15.181641 z M 37.792969 15.302734 L 38.359375 16.283203 L 36.988281 16.283203 L 37.792969 15.302734 z M 27.304688 15.878906 L 27.851562 16.283203 L 27.042969 16.283203 L 27.304688 15.878906 z M 15.644531 17.28125 L 15.533203 17.566406 L 20.023438 17.566406 L 19.912109 17.28125 L 18.376953 17.28125 L 17.181641 17.28125 L 15.644531 17.28125 z M 15.433594 17.822266 L 14.634766 19.882812 L 15.498047 19.882812 L 15.498047 20.138672 L 14.902344 20.138672 L 14.902344 21.144531 L 15.777344 21.144531 L 15.777344 19.800781 L 15.777344 19.798828 C 15.777344 19.554828 16.048813 19.357422 16.382812 19.357422 C 16.716812 19.357422 16.988281 19.554828 16.988281 19.798828 L 16.988281 19.800781 L 16.988281 21.144531 L 19.050781 21.144531 L 19.050781 20.384766 L 19.53125 20.384766 L 19.53125 21.144531 L 20.654297 21.144531 L 20.654297 20.138672 L 17.261719 20.138672 L 17.261719 19.882812 L 20.921875 19.882812 L 20.121094 17.822266 L 15.433594 17.822266 z M 18.925781 18.138672 L 19.257812 18.138672 L 19.316406 18.138672 L 19.652344 18.138672 L 19.910156 18.673828 L 19.585938 18.316406 L 19.318359 18.316406 L 19.259766 18.316406 L 18.992188 18.316406 L 18.666016 18.673828 L 18.925781 18.138672 z M 42.955078 18.535156 C 42.926078 18.537156 42.896234 18.538062 42.865234 18.539062 C 42.664234 18.545063 42.389703 18.555438 42.220703 18.773438 C 42.114703 18.909437 42.085859 19.082062 42.130859 19.289062 C 42.163859 19.442062 42.295172 19.553594 42.451172 19.558594 L 42.490234 19.558594 C 42.880234 19.558594 43.167828 19.356234 43.298828 18.990234 C 43.337828 18.882234 43.317047 18.761922 43.248047 18.669922 C 43.180047 18.578922 43.072078 18.527156 42.955078 18.535156 z M 19.050781 18.5625 L 19.53125 18.5625 L 19.53125 19.351562 L 19.050781 19.351562 L 19.050781 18.5625 z M 15.859375 18.828125 L 16.339844 18.828125 L 16.425781 18.828125 L 16.904297 18.828125 L 17.279297 19.597656 L 16.810547 19.085938 L 16.425781 19.085938 L 16.341797 19.085938 L 15.957031 19.085938 L 15.486328 19.597656 L 15.859375 18.828125 z M 38.681641 19.257812 C 38.620016 19.235563 38.549828 19.235625 38.486328 19.265625 C 38.357328 19.326625 38.302281 19.479422 38.363281 19.607422 C 38.430281 19.751422 38.445312 19.835859 38.445312 19.880859 C 38.445312 19.991859 38.192469 20.015625 37.980469 20.015625 C 37.823469 20.015625 37.627187 20.001656 37.367188 19.972656 C 37.228187 19.957656 37.100938 20.058219 37.085938 20.199219 C 37.068938 20.341219 37.1725 20.467422 37.3125 20.482422 C 37.5925 20.512422 37.803469 20.527344 37.980469 20.527344 C 38.788469 20.527344 38.957031 20.174859 38.957031 19.880859 C 38.957031 19.736859 38.914172 19.575672 38.826172 19.388672 C 38.796172 19.324672 38.743266 19.280062 38.681641 19.257812 z M 35.513672 19.798828 C 34.588672 19.798828 34.087484 20.110563 34.021484 20.726562 C 34.006484 20.867563 34.108047 20.993766 34.248047 21.009766 C 34.258047 21.010766 34.266391 21.011719 34.275391 21.011719 C 34.404391 21.011719 34.514297 20.91225 34.529297 20.78125 C 34.545297 20.64025 34.580672 20.310547 35.513672 20.310547 C 35.646672 20.310547 35.792938 20.316078 35.960938 20.330078 C 36.099937 20.339078 36.226328 20.23475 36.236328 20.09375 C 36.247328 19.95275 36.141953 19.829359 36.001953 19.818359 C 35.819953 19.804359 35.659672 19.798828 35.513672 19.798828 z M 18.527344 20.382812 L 18.787109 20.382812 L 18.787109 20.642578 L 18.527344 20.642578 L 18.527344 20.382812 z M 19.787109 20.382812 L 20.046875 20.382812 L 20.046875 20.642578 L 19.787109 20.642578 L 19.787109 20.382812 z M 16.289062 21.404297 C 16.148062 21.404297 16.033203 21.519156 16.033203 21.660156 C 16.033203 22.070156 16.204922 22.436094 16.544922 22.746094 C 16.593922 22.791094 16.65675 22.8125 16.71875 22.8125 C 16.78775 22.8125 16.85625 22.785469 16.90625 22.730469 C 17.00125 22.626469 16.995625 22.462188 16.890625 22.367188 C 16.657625 22.155188 16.544922 21.924156 16.544922 21.660156 C 16.544922 21.519156 16.430062 21.404297 16.289062 21.404297 z M 34.859375 21.599609 C 34.79625 21.617484 34.740078 21.660656 34.705078 21.722656 C 34.636078 21.845656 34.679734 22.001313 34.802734 22.070312 C 35.211734 22.299312 35.73125 22.446516 36.28125 22.603516 C 36.45025 22.651516 36.622969 22.700953 36.792969 22.751953 C 36.816969 22.759953 36.842188 22.763672 36.867188 22.763672 C 36.976188 22.763672 37.078328 22.692031 37.111328 22.582031 C 37.153328 22.447031 37.077406 22.303719 36.941406 22.261719 C 36.768406 22.208719 36.593875 22.159328 36.421875 22.111328 C 35.900875 21.963328 35.410687 21.823047 35.054688 21.623047 C 34.993187 21.588547 34.9225 21.581734 34.859375 21.599609 z M 26.224609 22.347656 C 25.598609 22.347656 25.035828 22.458687 24.548828 22.679688 C 24.464828 22.717688 24.37425 22.755062 24.28125 22.789062 C 24.14825 22.838062 24.082812 22.986141 24.132812 23.119141 C 24.171813 23.222141 24.267094 23.285156 24.371094 23.285156 C 24.401094 23.285156 24.432891 23.280531 24.462891 23.269531 C 24.566891 23.230531 24.665766 23.189484 24.759766 23.146484 C 25.179766 22.956484 25.673562 22.859375 26.226562 22.859375 L 26.279297 22.859375 C 26.426297 22.865375 26.538062 22.748422 26.539062 22.607422 C 26.540063 22.465422 26.426156 22.349656 26.285156 22.347656 L 26.224609 22.347656 z M 27.644531 22.515625 C 27.507531 22.484625 27.368891 22.570984 27.337891 22.708984 C 27.306891 22.846984 27.39325 22.984625 27.53125 23.015625 C 28.11725 23.147625 28.72775 23.358531 29.34375 23.644531 C 29.37775 23.660531 29.415172 23.667969 29.451172 23.667969 C 29.548172 23.667969 29.640594 23.612531 29.683594 23.519531 C 29.743594 23.392531 29.688547 23.241641 29.560547 23.181641 C 28.911547 22.880641 28.266531 22.655625 27.644531 22.515625 z M 38.068359 22.78125 C 38.004609 22.79625 37.945703 22.834531 37.908203 22.894531 C 37.834203 23.014531 37.872188 23.173047 37.992188 23.248047 C 38.541187 23.586047 38.796875 24.026766 38.796875 24.634766 C 38.796875 24.661766 38.795922 24.69075 38.794922 24.71875 C 38.789922 24.85975 38.899016 24.978375 39.041016 24.984375 L 39.050781 24.984375 C 39.187781 24.984375 39.301641 24.877281 39.306641 24.738281 C 39.308641 24.704281 39.308594 24.669766 39.308594 24.634766 C 39.308594 23.842766 38.965719 23.2475 38.261719 22.8125 C 38.201219 22.7755 38.132109 22.76625 38.068359 22.78125 z M 17.955078 22.927734 C 17.821078 22.884734 17.676813 22.95875 17.632812 23.09375 C 17.589813 23.22775 17.663828 23.372016 17.798828 23.416016 C 18.362828 23.599016 19.034875 23.72225 19.796875 23.78125 L 19.816406 23.78125 C 19.948406 23.78125 20.062266 23.678922 20.072266 23.544922 C 20.084266 23.403922 19.978891 23.281531 19.837891 23.269531 C 19.125891 23.214531 18.473078 23.095734 17.955078 22.927734 z M 23.052734 23.113281 C 22.459734 23.222281 21.794906 23.287734 21.128906 23.302734 C 20.987906 23.305734 20.875906 23.423453 20.878906 23.564453 C 20.881906 23.703453 20.995766 23.814453 21.134766 23.814453 L 21.140625 23.814453 C 21.832625 23.798453 22.525531 23.730187 23.144531 23.617188 C 23.283531 23.592188 23.376563 23.459312 23.351562 23.320312 C 23.326563 23.181312 23.192734 23.088281 23.052734 23.113281 z M 30.550781 23.787109 C 30.487031 23.802359 30.430078 23.841844 30.392578 23.902344 C 30.319578 24.022344 30.355562 24.180859 30.476562 24.255859 C 31.042562 24.603859 31.564438 24.989297 32.023438 25.404297 C 32.074438 25.448297 32.136266 25.46875 32.197266 25.46875 C 32.267266 25.46875 32.336719 25.441766 32.386719 25.384766 C 32.481719 25.280766 32.473187 25.117438 32.367188 25.023438 C 31.885187 24.587438 31.338141 24.182359 30.744141 23.818359 C 30.683641 23.781859 30.614531 23.771859 30.550781 23.787109 z M 27.679688 24.066406 C 27.310688 24.066406 27.009563 24.349937 26.976562 24.710938 C 26.710562 24.753937 26.505859 24.982719 26.505859 25.261719 C 26.505859 25.382719 26.545375 25.494937 26.609375 25.585938 C 26.622375 25.585938 26.637297 25.582031 26.654297 25.582031 C 26.806297 25.582031 26.929688 25.705422 26.929688 25.857422 C 26.929688 25.986422 26.840703 26.095 26.720703 26.125 C 26.793703 26.596 27.089047 26.991172 27.498047 27.201172 C 27.502047 26.996172 27.599047 26.815313 27.748047 26.695312 C 27.794047 27.026312 27.755594 27.382141 27.683594 27.744141 C 27.929594 27.661141 28.187219 27.613469 28.449219 27.605469 C 28.450219 27.251469 28.468187 26.898953 28.492188 26.626953 C 28.695187 26.738953 28.836797 26.954172 28.841797 27.201172 C 29.025797 27.107172 29.1845 26.975406 29.3125 26.816406 C 29.1745 26.808406 29.066406 26.696641 29.066406 26.556641 C 29.066406 26.412641 29.182172 26.294922 29.326172 26.294922 C 29.418172 26.294922 29.498922 26.340156 29.544922 26.410156 C 29.605922 26.250156 29.638672 26.077484 29.638672 25.896484 C 29.638672 25.701484 29.60025 25.515703 29.53125 25.345703 C 29.47425 25.363703 29.416516 25.373047 29.353516 25.373047 C 29.031516 25.373047 28.769531 25.112063 28.769531 24.789062 C 28.769531 24.628062 28.833453 24.481953 28.939453 24.376953 C 28.826453 24.270953 28.674812 24.205078 28.507812 24.205078 C 28.392813 24.205078 28.286359 24.236062 28.193359 24.289062 C 28.064359 24.153063 27.881688 24.066406 27.679688 24.066406 z M 19.53125 24.423828 C 19.125031 24.460531 18.730187 24.667641 18.460938 25.025391 C 18.295938 25.243391 18.200016 25.489234 18.166016 25.740234 C 18.251016 25.755234 18.334203 25.790703 18.408203 25.845703 C 18.660203 26.035703 18.710484 26.391578 18.521484 26.642578 C 18.487484 26.688578 18.447297 26.727766 18.404297 26.759766 C 18.488297 26.881766 18.592797 26.992938 18.716797 27.085938 C 18.799797 27.148937 18.888469 27.200187 18.980469 27.242188 C 19.068469 27.129188 19.180688 27.045141 19.304688 26.994141 C 19.319688 27.184141 19.330937 27.407719 19.335938 27.636719 C 19.522937 27.645719 19.705328 27.701687 19.861328 27.804688 C 19.928328 27.785688 19.997406 27.777437 20.066406 27.773438 C 20.027406 27.524438 20.008297 27.280875 20.029297 27.046875 C 20.053297 27.061875 20.076609 27.07675 20.099609 27.09375 C 20.146609 27.12975 20.187609 27.169891 20.224609 27.212891 C 20.430609 27.109891 20.619578 26.958719 20.767578 26.761719 C 21.135578 26.273719 21.166438 25.639437 20.898438 25.148438 C 20.683438 25.320438 20.372578 25.334156 20.142578 25.160156 C 19.916578 24.990156 19.8415 24.696313 19.9375 24.445312 C 19.80375 24.419313 19.666656 24.411594 19.53125 24.423828 z M 23.933594 24.513672 C 23.7505 24.497297 23.565766 24.507469 23.384766 24.542969 C 23.514766 24.882969 23.411422 25.279766 23.107422 25.509766 C 22.795422 25.744766 22.373031 25.727141 22.082031 25.494141 C 21.720031 26.157141 21.764719 27.015781 22.261719 27.675781 C 22.462719 27.941781 22.715141 28.147156 22.994141 28.285156 C 23.044141 28.226156 23.100062 28.173 23.164062 28.125 C 23.194063 28.102 23.227766 28.0815 23.259766 28.0625 C 23.288766 28.3825 23.262984 28.717547 23.208984 29.060547 C 23.225984 29.072547 23.244719 29.08175 23.261719 29.09375 C 23.399719 29.04575 23.545406 29.021484 23.691406 29.021484 C 23.866406 29.021484 24.036359 29.055094 24.193359 29.121094 C 24.195359 28.720094 24.213281 28.320234 24.238281 27.990234 C 24.405281 28.059234 24.557734 28.173172 24.677734 28.326172 C 24.801734 28.269172 24.922156 28.199281 25.035156 28.113281 C 25.203156 27.987281 25.343031 27.836875 25.457031 27.671875 C 25.398031 27.628875 25.346781 27.575625 25.300781 27.515625 C 25.044781 27.175625 25.111172 26.6935 25.451172 26.4375 C 25.551172 26.3625 25.664297 26.316922 25.779297 26.294922 C 25.734297 25.956922 25.602859 25.621172 25.380859 25.326172 C 25.016359 24.841672 24.482875 24.562797 23.933594 24.513672 z M 16.191406 25.732422 C 15.785187 25.769125 15.390344 25.974281 15.121094 26.332031 C 14.957094 26.551031 14.860172 26.798828 14.826172 27.048828 C 14.911172 27.064828 14.994359 27.099297 15.068359 27.154297 C 15.322359 27.345297 15.373594 27.702125 15.183594 27.953125 C 15.149594 27.998125 15.109406 28.036359 15.066406 28.068359 C 15.150406 28.190359 15.254906 28.300531 15.378906 28.394531 C 15.461906 28.457531 15.550578 28.510734 15.642578 28.552734 C 15.730578 28.439734 15.84475 28.356687 15.96875 28.304688 C 15.98275 28.475687 15.990094 28.670047 15.996094 28.873047 C 16.046094 28.882047 16.096531 28.893203 16.144531 28.908203 C 16.306531 28.792203 16.4905 28.716594 16.6875 28.683594 C 16.6825 28.573594 16.682406 28.462469 16.691406 28.355469 C 16.715406 28.370469 16.739719 28.385344 16.761719 28.402344 C 16.808719 28.438344 16.849719 28.478484 16.886719 28.521484 C 17.092719 28.418484 17.281688 28.267312 17.429688 28.070312 C 17.797688 27.581312 17.828547 26.947031 17.560547 26.457031 C 17.345547 26.629031 17.033734 26.64175 16.802734 26.46875 C 16.577734 26.29875 16.501656 26.004906 16.597656 25.753906 C 16.463906 25.727906 16.326812 25.720188 16.191406 25.732422 z M 38.65625 25.773438 C 38.591625 25.783437 38.531734 25.8175 38.490234 25.875 C 38.228234 26.234 37.789734 26.375 36.927734 26.375 L 36.828125 26.373047 C 36.688125 26.372047 36.570359 26.486906 36.568359 26.628906 C 36.567359 26.770906 36.680266 26.884719 36.822266 26.886719 L 36.927734 26.886719 C 37.686734 26.886719 38.448297 26.801734 38.904297 26.177734 C 38.985297 26.062734 38.961656 25.901359 38.847656 25.818359 C 38.790656 25.776859 38.720875 25.763438 38.65625 25.773438 z M 33.138672 25.919922 C 33.074172 25.909047 33.004766 25.923844 32.947266 25.964844 C 32.832266 26.047844 32.806672 26.206312 32.888672 26.320312 C 33.194672 26.747312 33.341797 27.199172 33.341797 27.701172 C 33.341797 27.802172 33.334266 27.906719 33.322266 28.011719 C 33.305266 28.152719 33.407828 28.279922 33.548828 28.294922 C 33.558828 28.296922 33.568172 28.296875 33.576172 28.296875 C 33.705172 28.296875 33.816031 28.199359 33.832031 28.068359 C 33.846031 27.945359 33.853516 27.822172 33.853516 27.701172 C 33.853516 27.420172 33.811422 27.148719 33.732422 26.886719 C 34.086422 26.845719 34.462906 26.824219 34.878906 26.824219 C 35.072906 26.824219 35.264219 26.829937 35.449219 26.835938 C 35.590219 26.840937 35.710844 26.728891 35.714844 26.587891 C 35.721844 26.446891 35.60875 26.328219 35.46875 26.324219 C 35.27775 26.317219 35.080859 26.3125 34.880859 26.3125 C 34.388859 26.3125 33.947203 26.341484 33.533203 26.396484 C 33.468203 26.269484 33.390688 26.144437 33.304688 26.023438 C 33.263188 25.965938 33.203172 25.930797 33.138672 25.919922 z M 28.316406 27.953125 C 27.68275 28.0105 27.067234 28.332625 26.646484 28.890625 C 26.390484 29.230625 26.2395 29.615859 26.1875 30.005859 C 26.3205 30.029859 26.449453 30.084875 26.564453 30.171875 C 26.913453 30.433875 27.012219 30.901344 26.824219 31.277344 C 26.869219 31.272344 26.914938 31.265625 26.960938 31.265625 C 27.265937 31.265625 27.554344 31.380844 27.777344 31.589844 C 27.844344 31.651844 27.885719 31.739031 27.886719 31.832031 C 27.887719 31.903031 27.865172 31.97325 27.826172 32.03125 C 27.871172 32.00525 27.916844 31.981891 27.964844 31.962891 C 27.985844 32.224891 28.000766 32.524938 28.009766 32.835938 C 28.039766 32.842938 28.071516 32.847656 28.103516 32.847656 C 28.149516 32.847656 28.195234 32.838219 28.240234 32.824219 C 28.274234 32.813219 28.310703 32.808594 28.345703 32.808594 C 28.481703 32.808594 28.607156 32.889484 28.660156 33.021484 C 28.773156 33.299484 28.832031 33.593531 28.832031 33.894531 C 28.832031 34.174531 28.781594 34.449937 28.683594 34.710938 C 28.637594 34.830937 28.529344 34.914687 28.402344 34.929688 C 28.389344 34.930687 28.376281 34.931641 28.363281 34.931641 C 28.349281 34.931641 28.336266 34.931687 28.322266 34.929688 C 28.339266 34.950688 28.352281 34.972094 28.363281 34.996094 C 28.415281 35.113094 28.397406 35.251563 28.316406 35.351562 C 28.262406 35.417563 28.207484 35.480062 28.146484 35.539062 C 28.904484 35.538062 29.513437 35.610969 29.773438 35.792969 C 29.500438 34.563969 28.992703 33.217922 29.095703 32.044922 C 29.132703 32.066922 29.168125 32.091187 29.203125 32.117188 C 29.277125 32.173188 29.343391 32.234734 29.400391 32.302734 C 29.721391 32.143734 30.013094 31.907609 30.246094 31.599609 C 30.819094 30.837609 30.869172 29.849984 30.451172 29.083984 C 30.115172 29.351984 29.629531 29.371562 29.269531 29.101562 C 28.918531 28.835562 28.798219 28.375375 28.949219 27.984375 C 28.740469 27.943875 28.527625 27.934 28.316406 27.953125 z M 19.289062 27.974609 C 18.920063 27.974609 18.618938 28.257188 18.585938 28.617188 C 18.319937 28.661188 18.115234 28.890922 18.115234 29.169922 C 18.115234 29.290922 18.15375 29.401187 18.21875 29.492188 C 18.23375 29.489188 18.249625 29.486328 18.265625 29.486328 C 18.417625 29.486328 18.541016 29.610719 18.541016 29.761719 C 18.541016 29.891719 18.450078 29.999297 18.330078 30.029297 C 18.344731 30.123839 18.374452 30.213172 18.40625 30.300781 C 18.423147 30.335872 18.437858 30.370346 18.449219 30.408203 C 18.586155 30.708328 18.816715 30.956441 19.109375 31.107422 C 19.113375 30.902422 19.209422 30.719609 19.357422 30.599609 C 19.398422 30.889609 19.375312 31.198672 19.320312 31.513672 C 19.556312 31.419672 19.8065 31.365562 20.0625 31.351562 C 20.0675 31.052563 20.081516 30.762203 20.103516 30.533203 C 20.168516 30.568203 20.226391 30.616875 20.275391 30.671875 C 20.379391 30.309875 20.647906 30.014906 21.003906 29.878906 C 21.045906 29.719906 21.112172 29.571406 21.201172 29.441406 C 21.184172 29.377406 21.165625 29.314906 21.140625 29.253906 C 21.084625 29.272906 21.024891 29.28125 20.962891 29.28125 C 20.639891 29.28125 20.378906 29.019266 20.378906 28.697266 C 20.378906 28.535266 20.443828 28.388203 20.548828 28.283203 C 20.435828 28.178203 20.284188 28.111328 20.117188 28.111328 C 20.002187 28.111328 19.895734 28.143266 19.802734 28.197266 C 19.673734 28.060266 19.491063 27.974609 19.289062 27.974609 z M 18.449219 30.408203 C 18.433196 30.373087 18.419513 30.337323 18.40625 30.300781 C 18.301016 30.082244 18.101451 29.918851 17.853516 29.878906 C 17.809516 29.391906 17.401344 29.009766 16.902344 29.009766 C 16.628344 29.009766 16.381031 29.123594 16.207031 29.308594 C 16.082031 29.236594 15.93625 29.195312 15.78125 29.195312 C 15.55525 29.195312 15.350266 29.281781 15.197266 29.425781 C 15.341266 29.568781 15.429688 29.766375 15.429688 29.984375 C 15.429688 30.420375 15.075672 30.775391 14.638672 30.775391 C 14.554672 30.775391 14.472484 30.762281 14.396484 30.738281 C 14.303484 30.967281 14.251953 31.217469 14.251953 31.480469 C 14.251953 31.724469 14.296906 31.958781 14.378906 32.175781 C 14.441906 32.080781 14.548875 32.017578 14.671875 32.017578 C 14.866875 32.017578 15.025391 32.176094 15.025391 32.371094 C 15.025391 32.560094 14.877406 32.712656 14.691406 32.722656 C 14.864406 32.937656 15.080125 33.116141 15.328125 33.244141 C 15.335125 32.909141 15.525781 32.617797 15.800781 32.466797 C 15.894781 33.494797 15.904609 35.400469 15.599609 35.730469 C 16.423609 35.704469 17.114859 35.756359 17.380859 35.943359 C 17.133859 34.829359 16.660641 33.606594 16.806641 32.558594 C 17.006641 32.720594 17.137578 32.967141 17.142578 33.244141 C 17.695578 32.959141 18.096313 32.422156 18.195312 31.785156 C 18.032313 31.746156 17.910156 31.600781 17.910156 31.425781 C 17.910156 31.220781 18.078203 31.054688 18.283203 31.054688 C 18.306203 31.054688 18.326656 31.056547 18.347656 31.060547 C 18.435656 30.936547 18.488281 30.787047 18.488281 30.623047 C 18.488281 30.547581 18.469838 30.476912 18.449219 30.408203 z M 33.121094 29.0625 C 33.060219 29.08675 33.008969 29.134219 32.980469 29.199219 C 32.743469 29.748219 32.421281 30.285687 32.113281 30.804688 L 32.052734 30.90625 C 31.980734 31.02825 32.021578 31.186766 32.142578 31.259766 C 32.183578 31.283766 32.229438 31.294922 32.273438 31.294922 C 32.361438 31.294922 32.446141 31.250922 32.494141 31.169922 L 32.554688 31.066406 C 32.871688 30.533406 33.201172 29.981344 33.451172 29.402344 C 33.507172 29.272344 33.446406 29.123406 33.316406 29.066406 C 33.251406 29.038406 33.181969 29.03825 33.121094 29.0625 z M 22.396484 29.144531 C 21.821484 29.144531 21.349828 29.585438 21.298828 30.148438 C 20.882828 30.215438 20.566406 30.573812 20.566406 31.007812 C 20.566406 31.146812 20.600203 31.278531 20.658203 31.394531 C 20.723203 31.415531 20.780266 31.454813 20.822266 31.507812 C 21.050266 31.517813 21.232422 31.702594 21.232422 31.933594 C 21.232422 32.116594 21.118031 32.270031 20.957031 32.332031 C 20.981031 32.361031 21.008063 32.388109 21.039062 32.412109 C 21.125063 32.476109 21.228938 32.511719 21.335938 32.511719 C 21.448937 32.511719 21.557531 32.473297 21.644531 32.404297 C 21.705531 32.355297 21.780422 32.330078 21.857422 32.330078 C 21.879422 32.330078 21.903781 32.333891 21.925781 32.337891 C 22.024781 32.358891 22.10825 32.420766 22.15625 32.509766 C 22.29625 32.764766 22.382969 33.038313 22.417969 33.320312 C 22.445969 33.291313 22.474859 33.265234 22.505859 33.240234 C 22.672859 34.449234 22.12975 35.859531 21.84375 37.144531 C 22.14975 36.929531 22.946484 36.869391 23.896484 36.900391 C 23.547484 36.520391 23.560922 34.320719 23.669922 33.136719 C 23.784922 33.199719 23.88575 33.285719 23.96875 33.386719 C 23.93075 33.274719 23.910156 33.157109 23.910156 33.037109 C 23.910156 32.582109 24.185797 32.186484 24.591797 32.021484 C 24.696797 31.647484 24.962641 31.351266 25.306641 31.197266 C 25.299641 31.177266 25.294109 31.159625 25.287109 31.140625 C 25.199109 31.168625 25.104813 31.183594 25.007812 31.183594 C 24.504812 31.183594 24.095703 30.775484 24.095703 30.271484 C 24.095703 30.019484 24.198281 29.792953 24.363281 29.626953 C 24.186281 29.461953 23.950453 29.359375 23.689453 29.359375 C 23.510453 29.359375 23.342266 29.409187 23.197266 29.492188 C 22.996266 29.279187 22.712484 29.144531 22.396484 29.144531 z M 25.839844 31.423828 C 25.341844 31.423828 24.933672 31.805969 24.888672 32.292969 C 24.528672 32.350969 24.253906 32.661109 24.253906 33.037109 C 24.253906 33.201109 24.306531 33.350609 24.394531 33.474609 C 24.415531 33.470609 24.435984 33.46875 24.458984 33.46875 C 24.663984 33.46875 24.830078 33.634844 24.830078 33.839844 C 24.830078 34.014844 24.709875 34.160219 24.546875 34.199219 C 24.645875 34.836219 25.046609 35.373203 25.599609 35.658203 C 25.605609 35.381203 25.734547 35.133703 25.935547 34.970703 C 26.081547 36.018703 25.610281 37.241469 25.363281 38.355469 C 25.629281 38.168469 26.319578 38.116578 27.142578 38.142578 C 26.837578 37.812578 26.849359 35.908859 26.943359 34.880859 C 27.218359 35.032859 27.407062 35.32125 27.414062 35.65625 C 27.661062 35.52825 27.877781 35.350719 28.050781 35.136719 C 27.864781 35.126719 27.716797 34.974156 27.716797 34.785156 C 27.716797 34.590156 27.875312 34.431641 28.070312 34.431641 C 28.193313 34.431641 28.300281 34.494844 28.363281 34.589844 C 28.445281 34.372844 28.490234 34.137578 28.490234 33.892578 C 28.488234 33.631578 28.43775 33.381344 28.34375 33.152344 C 28.26775 33.175344 28.187516 33.189453 28.103516 33.189453 C 27.666516 33.189453 27.3125 32.834437 27.3125 32.398438 C 27.3125 32.179437 27.401922 31.982844 27.544922 31.839844 C 27.391922 31.695844 27.186938 31.609375 26.960938 31.609375 C 26.805937 31.609375 26.660156 31.650656 26.535156 31.722656 C 26.361156 31.537656 26.114844 31.423828 25.839844 31.423828 z M 20.009766 31.693359 C 19.460484 31.743141 18.927 32.022109 18.5625 32.505859 C 18.3405 32.800859 18.207109 33.133656 18.162109 33.472656 C 18.277109 33.493656 18.390234 33.538234 18.490234 33.615234 C 18.829234 33.871234 18.898578 34.353359 18.642578 34.693359 C 18.596578 34.755359 18.542375 34.806609 18.484375 34.849609 C 18.597375 35.015609 18.73825 35.165969 18.90625 35.292969 C 19.01925 35.377969 19.139672 35.446906 19.263672 35.503906 C 19.383672 35.350906 19.535125 35.239922 19.703125 35.169922 C 19.784125 36.222922 19.780234 37.962391 19.490234 38.275391 C 20.314234 38.249391 21.005484 38.301281 21.271484 38.488281 C 21.034484 37.422281 20.593594 36.257234 20.683594 35.240234 C 20.715594 35.260234 20.746344 35.279734 20.777344 35.302734 C 20.841344 35.350734 20.897266 35.405891 20.947266 35.462891 C 21.226266 35.324891 21.479641 35.120516 21.681641 34.853516 C 22.178641 34.193516 22.221375 33.337828 21.859375 32.673828 C 21.567375 32.905828 21.146937 32.9215 20.835938 32.6875 C 20.530938 32.4585 20.427594 32.060703 20.558594 31.720703 C 20.377594 31.685453 20.192859 31.676766 20.009766 31.693359 z M 31.552734 31.953125 C 31.491484 31.976125 31.437703 32.023391 31.408203 32.087891 C 31.390203 32.125891 31.375375 32.163172 31.359375 32.201172 C 31.225375 32.518172 31.158203 32.830047 31.158203 33.123047 C 31.158203 33.505047 31.273953 33.872844 31.501953 34.214844 C 31.551953 34.288844 31.632844 34.328125 31.714844 34.328125 C 31.763844 34.328125 31.813422 34.315109 31.857422 34.287109 C 31.974422 34.208109 32.005734 34.049641 31.927734 33.931641 C 31.754734 33.671641 31.669922 33.407047 31.669922 33.123047 C 31.669922 32.898047 31.725031 32.656391 31.832031 32.400391 C 31.846031 32.367391 31.86 32.334781 31.875 32.300781 C 31.934 32.171781 31.877047 32.018937 31.748047 31.960938 C 31.683547 31.931438 31.613984 31.930125 31.552734 31.953125 z M 36.146484 33.623047 L 35.158203 35.332031 L 35.457031 35.332031 L 35.457031 38.541016 C 35.505031 38.728016 35.796391 38.873047 36.150391 38.873047 C 36.503391 38.873047 36.846484 38.729016 36.896484 38.541016 L 36.896484 35.332031 L 37.132812 35.332031 L 36.146484 33.623047 z M 32.615234 34.738281 C 32.550359 34.747531 32.489766 34.783344 32.447266 34.839844 C 32.362266 34.952844 32.385047 35.112266 32.498047 35.197266 C 32.613047 35.284266 32.727797 35.368219 32.841797 35.449219 C 33.012797 35.572219 33.174453 35.688734 33.314453 35.802734 C 33.361453 35.841734 33.417609 35.859375 33.474609 35.859375 C 33.548609 35.859375 33.622828 35.828625 33.673828 35.765625 C 33.762828 35.655625 33.743766 35.493297 33.634766 35.404297 C 33.484766 35.282297 33.317625 35.160203 33.140625 35.033203 C 33.030625 34.953203 32.916688 34.872109 32.804688 34.787109 C 32.748688 34.744609 32.680109 34.729031 32.615234 34.738281 z M 35.125 36.476562 C 33.651 36.610563 32.383094 37.032766 31.496094 37.634766 L 32.417969 39.232422 C 33.098969 38.865422 34.022 38.580703 35.125 38.470703 L 35.125 36.476562 z M 37.226562 36.484375 L 37.226562 38.478516 C 38.244563 38.587516 39.109672 38.846641 39.763672 39.181641 L 40.667969 37.617188 C 40.675969 37.603187 40.687312 37.592078 40.695312 37.580078 C 39.829313 37.018078 38.622563 36.621375 37.226562 36.484375 z M 31.197266 37.78125 L 30.210938 39.492188 L 30.509766 39.492188 L 30.509766 42.699219 C 30.558766 42.887219 30.849125 43.033203 31.203125 43.033203 C 31.239125 43.033203 31.274547 43.030344 31.310547 43.027344 C 31.284547 42.984344 31.268672 42.935766 31.263672 42.884766 C 31.261672 42.864766 31.255813 42.807844 31.257812 40.589844 C 31.257812 40.454844 31.337891 40.33325 31.462891 40.28125 C 31.503891 40.26525 31.545891 40.257812 31.587891 40.257812 C 31.675891 40.257812 31.760219 40.292422 31.824219 40.357422 C 31.860219 40.394422 31.903266 40.431703 31.947266 40.470703 L 31.947266 39.490234 L 32.183594 39.490234 L 31.197266 37.78125 z M 40.955078 37.78125 L 39.96875 39.492188 L 40.265625 39.492188 L 40.265625 40.486328 C 40.348625 40.417328 40.425328 40.347344 40.486328 40.277344 C 40.489328 40.274344 40.492141 40.270578 40.494141 40.267578 C 40.508141 40.252578 40.522109 40.241469 40.537109 40.230469 C 40.588109 40.191469 40.648797 40.166109 40.716797 40.162109 L 40.738281 40.162109 L 40.742188 40.162109 C 40.925187 40.163109 41.070312 40.312141 41.070312 40.494141 C 41.070312 40.502141 41.070312 40.510578 41.070312 40.517578 C 41.069312 40.756578 41.0665 42.556734 41.0625 42.802734 C 41.0615 42.890734 41.022937 42.97125 40.960938 43.03125 C 41.314937 43.03125 41.655078 42.886219 41.705078 42.699219 L 41.705078 39.490234 L 41.943359 39.490234 L 40.955078 37.78125 z M 40.736328 40.492188 C 40.260328 41.037188 39.321266 41.529063 38.072266 41.789062 C 38.083266 41.863063 38.074109 41.939859 38.037109 42.005859 C 37.978109 42.110859 37.869047 42.175781 37.748047 42.175781 L 37.554688 42.175781 L 37.554688 43.878906 C 38.828688 43.713906 39.934469 43.330875 40.730469 42.796875 C 40.734469 42.537875 40.736328 40.492188 40.736328 40.492188 z M 31.589844 40.587891 C 31.589844 40.587891 31.58675 42.789562 31.59375 42.851562 C 31.71275 42.927562 31.842609 42.998359 31.974609 43.068359 C 32.017609 43.090359 32.062422 43.113766 32.107422 43.134766 C 32.200422 43.181766 32.296531 43.225578 32.394531 43.267578 C 32.448531 43.290578 32.500641 43.315891 32.556641 43.337891 C 32.685641 43.389891 32.819078 43.439375 32.955078 43.484375 C 33.045078 43.514375 33.138469 43.541359 33.230469 43.568359 C 33.288469 43.585359 33.344297 43.602141 33.404297 43.619141 C 33.512297 43.648141 33.622375 43.677125 33.734375 43.703125 C 33.759375 43.709125 33.7875 43.714703 33.8125 43.720703 C 34.0745 43.779703 34.345 43.829187 34.625 43.867188 L 34.625 42.175781 L 34.542969 42.175781 C 34.422969 42.175781 34.312906 42.111859 34.253906 42.005859 C 34.218906 41.942859 34.20875 41.869781 34.21875 41.800781 C 34.21475 41.799781 34.211031 41.798828 34.207031 41.798828 C 34.071031 41.770828 33.938547 41.738078 33.810547 41.705078 L 33.753906 41.691406 C 33.485906 41.621406 33.234906 41.539219 33.003906 41.449219 C 32.989906 41.443219 32.978844 41.439594 32.964844 41.433594 C 32.865844 41.394594 32.770687 41.352547 32.679688 41.310547 C 32.658687 41.301547 32.637188 41.29125 32.617188 41.28125 C 32.518188 41.23425 32.422984 41.186719 32.333984 41.136719 C 32.330984 41.134719 32.329172 41.134812 32.326172 41.132812 C 32.234172 41.081812 32.148406 41.028609 32.066406 40.974609 C 32.046406 40.960609 32.027812 40.947594 32.007812 40.933594 C 31.946812 40.891594 31.891891 40.849641 31.837891 40.806641 C 31.816891 40.790641 31.796344 40.774813 31.777344 40.757812 C 31.710344 40.701813 31.646844 40.645891 31.589844 40.587891 z M 35.095703 40.960938 L 34.542969 41.845703 L 34.957031 41.845703 L 34.957031 44.109375 L 35.863281 44.109375 L 35.863281 43.505859 C 35.863281 43.393859 35.989531 43.300781 36.144531 43.300781 C 36.300531 43.300781 36.427734 43.393859 36.427734 43.505859 L 36.427734 44.109375 L 37.222656 44.109375 L 37.222656 41.845703 L 37.746094 41.845703 L 37.195312 40.960938 L 36.173828 40.960938 L 36.117188 40.960938 L 35.095703 40.960938 z M 19.654297 44.246094 C 19.575297 44.246094 19.491297 44.25825 19.404297 44.28125 C 19.255297 44.32125 19.150391 44.457328 19.150391 44.611328 L 19.150391 45.466797 C 19.150391 45.625797 19.262969 45.763828 19.417969 45.798828 C 19.540969 45.825828 19.652813 45.839844 19.757812 45.839844 C 20.444813 45.839844 20.617828 45.244828 20.673828 45.048828 C 20.707828 44.930828 20.681703 44.802844 20.595703 44.714844 C 20.519703 44.635844 20.416547 44.598281 20.310547 44.613281 C 20.300547 44.602281 20.288297 44.590125 20.279297 44.578125 C 20.181297 44.462125 19.999297 44.246094 19.654297 44.246094 z M 24.859375 44.259766 C 24.769375 44.259766 24.494937 44.259469 24.335938 44.480469 C 24.227937 44.630469 24.212016 44.8275 24.291016 45.0625 C 24.333016 45.1875 24.442266 45.276969 24.572266 45.292969 C 24.652266 45.302969 24.728828 45.306641 24.798828 45.306641 C 25.474828 45.306641 25.609719 44.853203 25.636719 44.658203 C 25.650719 44.553203 25.614063 44.449047 25.539062 44.373047 C 25.464062 44.297047 25.359906 44.260438 25.253906 44.273438 C 25.195906 44.280438 25.123687 44.274531 25.054688 44.269531 C 24.987687 44.264531 24.921375 44.259766 24.859375 44.259766 z M 27.267578 44.792969 C 27.205578 44.807469 27.148063 44.839219 27.101562 44.886719 C 26.871562 45.120719 26.790578 45.429875 26.892578 45.671875 C 26.934578 45.773875 27.076844 46.009766 27.464844 46.009766 C 27.557844 46.009766 27.659531 45.99575 27.769531 45.96875 C 27.917531 45.93175 28.022344 45.800438 28.027344 45.648438 C 28.040344 45.237437 27.838984 44.936734 27.458984 44.802734 C 27.396484 44.780234 27.329578 44.778469 27.267578 44.792969 z M 31.613281 45.123047 C 31.424281 45.123047 31.271484 45.278797 31.271484 45.466797 L 31.271484 45.808594 C 31.271484 45.996594 31.425281 46.148438 31.613281 46.148438 L 31.955078 46.148438 C 32.145078 46.148438 32.296875 45.995594 32.296875 45.808594 L 32.296875 45.466797 C 32.296875 45.277797 32.144078 45.123047 31.955078 45.123047 L 31.613281 45.123047 z "
   transform="translate(-7.087,-7.087)"
   id="path2" />

</svg>