<?xml version="1.0" encoding="utf-8"?>
<!-- Generator: Adobe Illustrator 16.0.0, SVG Export Plug-In . SVG Version: 6.00 Build 0)  -->
<!DOCTYPE svg PUBLIC "-//W3C//DTD SVG 1.1//EN" "http://www.w3.org/Graphics/SVG/1.1/DTD/svg11.dtd">
<svg version="1.1" id="Layer_1" xmlns="http://www.w3.org/2000/svg" xmlns:xlink="http://www.w3.org/1999/xlink" x="0px" y="0px"
	 width="56.693px" height="56.693px" viewBox="0 0 56.693 56.693" enable-background="new 0 0 56.693 56.693" xml:space="preserve">
<path fill-rule="evenodd" clip-rule="evenodd" fill="#B90B26" d="M13.972,36.292c-0.837,0.039-1.675,0.109-2.511,0.102
	c-0.501-0.006-1-0.133-1.5-0.209c-0.3-0.047-0.598-0.111-0.898-0.146c-0.152-0.019-0.204-0.088-0.221-0.225
	c-0.201-1.664-0.389-3.327-0.458-5.004c-0.049-1.189-0.038-2.376-0.022-3.564c0.016-1.153-0.102-2.3-0.157-3.45
	c-0.013-0.283,0.02-0.546,0.092-0.813c0.202-0.745,0.402-1.491,0.599-2.237c0.063-0.242,0.16-0.464,0.301-0.674
	c0.458-0.68,0.903-1.367,1.348-2.056c0.111-0.172,0.242-0.32,0.397-0.454c0.647-0.561,1.292-1.126,1.931-1.697
	c0.518-0.463,0.937-1.018,1.35-1.568c0.762-1.013,1.735-1.801,2.663-2.642c0.968-0.876,2.087-1.543,3.135-2.308
	c0.22-0.16,0.502-0.17,0.757-0.243c0.681-0.193,1.368-0.366,2.05-0.555c0.54-0.149,1.097-0.111,1.646-0.165
	c0.567-0.055,1.138-0.095,1.708-0.108c0.517-0.011,1.016,0.151,1.524,0.23c0.563,0.089,1.121,0.214,1.685,0.296
	c0.453,0.066,0.896-0.075,1.344-0.123c0.631-0.067,1.258-0.178,1.89-0.243c0.461-0.047,0.915,0.08,1.373,0.121
	c0.587,0.054,1.171,0.138,1.756,0.2c0.171,0.018,0.316,0.068,0.457,0.17c0.774,0.563,1.565,1.105,2.327,1.686
	c0.543,0.414,0.963,0.962,1.448,1.441c0.813,0.803,1.605,1.628,2.425,2.424c0.539,0.523,1.029,1.078,1.416,1.723
	c0.844,1.407,1.925,2.627,3.043,3.815c0.229,0.243,0.293,0.518,0.352,0.812c0.162,0.812,0.353,1.619,0.473,2.437
	c0.092,0.626,0.072,1.269,0.143,1.899c0.16,1.446-0.087,2.866-0.246,4.291c-0.07,0.616,0.012,1.223,0.105,1.814
	c0.209,1.325,0.08,2.622-0.16,3.922c-0.059,0.316-0.101,0.637-0.139,0.955c-0.017,0.138-0.072,0.189-0.211,0.192
	c-0.838,0.021-1.677,0.095-2.512,0.06c-0.789-0.033-1.574-0.166-2.357-0.278c-0.289-0.042-0.566-0.022-0.848,0.03
	c-1.512,0.281-2.998,0.656-4.468,1.108c-0.194,0.06-0.278,0.157-0.323,0.348c-0.135,0.582-0.293,1.158-0.434,1.739
	c-0.028,0.115-0.033,0.236-0.033,0.355c0,0.6-0.002,1.199,0.009,1.798c0.02,1.101-0.185,2.184-0.229,3.278
	c-0.033,0.828-0.042,1.658-0.043,2.486c0,0.221-0.062,0.275-0.277,0.273c-0.849-0.008-1.696-0.002-2.544,0.01
	c-0.707,0.01-1.371,0.263-2.055,0.396c-0.434,0.083-0.86,0.197-1.289,0.3c-0.146,0.035-0.293,0.035-0.439,0.012
	c-0.963-0.152-1.925-0.309-2.888-0.461c-0.1-0.016-0.201-0.025-0.302-0.025c-1.484-0.007-2.969-0.008-4.453-0.017
	c-0.571-0.003-1.142-0.028-1.713-0.036c-0.147-0.002-0.208-0.023-0.181-0.201c0.131-0.828,0.249-1.656,0.36-2.486
	c0.06-0.443-0.029-0.883-0.056-1.324c-0.123-2.051-0.427-4.078-0.833-6.092c-0.074-0.365-0.218-0.541-0.574-0.639
	c-0.621-0.168-1.228-0.387-1.837-0.594c-0.325-0.11-0.658-0.057-0.987-0.064c-0.636-0.018-1.272-0.005-1.908-0.005
	C13.973,36.304,13.972,36.298,13.972,36.292z M42.529,33.259c0.546,0,1.182-0.004,1.818,0.004c0.168,0.002,0.209-0.068,0.24-0.221
	c0.229-1.099,0.498-2.191,0.473-3.324c-0.012-0.541,0.106-1.087-0.049-1.62c-0.224-0.768-0.47-1.529-0.689-2.297
	c-0.05-0.174-0.123-0.234-0.299-0.237c-0.544-0.009-1.087-0.038-1.629-0.054c-0.699-0.021-1.396-0.102-2.096,0.01
	c-0.545,0.087-1.094,0.146-1.641,0.225c-0.754,0.108-1.513,0.168-2.225,0.491c-0.729,0.329-1.516,0.523-2.225,0.891
	c-0.768,0.397-1.504,0.854-2.258,1.278c-0.146,0.082-0.203,0.184-0.213,0.35c-0.081,1.557-0.043,3.11,0.113,4.662
	c0.025,0.246,0.113,0.303,0.354,0.311c2.448,0.086,4.872-0.254,7.308-0.384C40.488,33.292,41.461,33.193,42.529,33.259z
	 M11.276,30.71c-0.021,0-0.042,0-0.063,0c0,0.82,0.005,1.641-0.004,2.46c-0.002,0.161,0.045,0.229,0.205,0.251
	c0.967,0.129,1.93,0.344,2.9,0.381c1.591,0.062,3.188,0.076,4.776-0.119c0.593-0.073,1.192-0.152,1.788-0.147
	c0.911,0.008,1.822,0.082,2.731,0.14c0.155,0.01,0.211-0.015,0.219-0.181c0.068-1.436,0.122-2.871,0.154-4.308
	c0.006-0.275-0.085-0.406-0.323-0.517c-1.61-0.757-3.168-1.607-4.612-2.65c-0.399-0.288-0.798-0.375-1.3-0.361
	c-2.157,0.063-4.299,0.287-6.44,0.527c-0.236,0.026-0.267,0.114-0.243,0.335c0.084,0.768,0.223,1.532,0.212,2.309
	C11.27,29.458,11.276,30.083,11.276,30.71z"/>
<path fill-rule="evenodd" clip-rule="evenodd" fill="#B90B26" d="M55.59,25.625c-0.301-1.719-0.776-3.392-1.381-5.026
	c-1.235-3.34-2.9-6.471-4.704-9.535c-0.318-0.542-0.732-0.991-1.228-1.376c-0.527-0.413-1.07-0.805-1.622-1.188
	c-0.689-0.478-1.36-0.977-1.992-1.532c-0.896-0.788-1.89-1.436-2.982-1.929c-0.786-0.353-1.517-0.797-2.243-1.257
	c-1.267-0.799-2.578-1.5-4.085-1.754c-0.57-0.096-1.09-0.358-1.61-0.601c-1.55-0.721-3.172-1.123-4.891-1.141
	c-1.269-0.014-2.535,0.021-3.8,0.103c-0.799,0.052-1.565,0.219-2.289,0.579c-0.564,0.281-1.16,0.493-1.772,0.649
	c-0.814,0.208-1.606,0.477-2.38,0.802c-1.056,0.443-2.09,0.923-2.988,1.653c-0.335,0.273-0.714,0.462-1.171,0.503
	c-0.651,0.058-1.202,0.383-1.719,0.763c-0.264,0.193-0.477,0.441-0.72,0.655c-0.203,0.179-0.412,0.355-0.681,0.42
	c-0.137,0.034-0.262,0.082-0.375,0.16C9.765,7.379,8.74,8.35,7.941,9.55c-0.555,0.832-1.002,1.725-1.511,2.583
	c-0.169,0.288-0.344,0.574-0.559,0.832c-0.172,0.207-0.376,0.349-0.655,0.374c-0.261,0.024-0.453,0.166-0.59,0.385
	c-0.114,0.181-0.203,0.375-0.283,0.571c-0.283,0.696-0.631,1.348-1.073,1.965c-0.699,0.979-1.182,2.076-1.551,3.218
	c-0.234,0.725-0.261,1.506-0.584,2.209c-0.518,1.995-0.696,4.014-0.476,6.066c0.154,1.433,0.426,2.841,0.776,4.238
	c0.207,0.822,0.443,1.641,0.571,2.482c0.079,0.518,0.11,1.035,0.111,1.559c0.001,0.297,0.045,0.592,0.32,0.783
	c0.132,0.09,0.237,0.205,0.329,0.334c0.223,0.314,0.399,0.656,0.54,1.018c0.475,1.215,0.967,2.424,1.556,3.592
	c0.625,1.24,1.427,2.34,2.475,3.266c0.739,0.65,1.485,1.293,2.254,1.91c0.563,0.451,1.164,0.854,1.725,1.307
	c0.771,0.621,1.428,1.355,2.021,2.145c0.506,0.672,1.141,1.174,1.913,1.514c1.663,0.734,3.321,1.48,4.985,2.213
	c0.99,0.436,2.004,0.812,3.019,1.188c0.395,0.146,0.796,0.311,1.097,0.613c0.214,0.213,0.457,0.328,0.739,0.389
	c0.557,0.123,1.122,0.127,1.686,0.076c0.612-0.051,1.202-0.178,1.737-0.514c0.312-0.195,0.67-0.299,1.04-0.316
	c0.419-0.021,0.832-0.078,1.236-0.184c0.905-0.234,1.814-0.457,2.742-0.578c0.883-0.117,1.739-0.326,2.56-0.668
	c2.038-0.844,4.025-1.795,5.971-2.832c1.009-0.541,2.003-1.109,2.791-1.963c0.089-0.098,0.196-0.186,0.326-0.221
	c0.111-0.031,0.204-0.084,0.293-0.154c0.355-0.273,0.673-0.588,0.99-0.902c1.541-1.541,2.882-3.248,4.18-4.99
	c0.717-0.963,1.345-1.975,1.774-3.102c0.27-0.705,0.599-1.385,0.935-2.061c0.233-0.467,0.448-0.943,0.598-1.443
	c0.288-0.953,0.57-1.908,0.842-2.867c0.207-0.73,0.398-1.467,0.437-2.23c0.023-0.449,0.089-0.891,0.252-1.307
	c0.265-0.668,0.354-1.357,0.341-1.986C55.823,27.188,55.725,26.404,55.59,25.625z M51.097,26.104
	c-0.09,1.268-0.196,2.534-0.325,3.799c-0.136,1.338-0.264,2.678-0.575,3.992c-0.114,0.484-0.287,0.945-0.539,1.381
	c-0.065,0.115-0.11,0.24-0.167,0.359c-0.043,0.248-0.078,0.499-0.108,0.749c-0.071,0.595-0.356,1.095-0.772,1.442
	c-0.236,0.552-0.495,1.094-0.808,1.609c0.203,0.533,0.182,1.146-0.112,1.68c-0.319,0.58-0.894,0.926-1.512,1.002
	c-1.085,1.336-2.271,2.574-3.604,3.674c-0.225,0.186-0.466,0.342-0.721,0.484c-0.354,0.197-0.676,0.443-0.921,0.764
	c-0.437,0.574-0.983,1.025-1.571,1.428c-1.19,0.816-2.454,1.49-3.832,1.945c-1.085,0.361-2.202,0.529-3.345,0.535
	c-0.565,0.002-1.129,0-1.695,0c-0.968,0.012-1.934,0.004-2.899-0.062c-0.183-0.012-0.364-0.035-0.545-0.059
	c-0.04-0.004-0.087-0.008-0.117-0.031c-0.35-0.26-0.771-0.295-1.178-0.377c-1.01-0.203-2.014-0.435-3.018-0.665
	c-0.347-0.001-0.694-0.002-1.041-0.004c-0.335-0.002-0.67-0.011-1.005-0.02c-0.242-0.007-0.483-0.014-0.724-0.017
	c-0.861-0.012-1.38-0.415-1.665-0.752c-0.171-0.202-0.411-0.579-0.476-1.113c-0.835-0.518-1.689-0.999-2.576-1.426
	c-0.325-0.156-0.64-0.334-0.94-0.533c-0.294-0.195-0.56-0.408-0.743-0.725c-0.174-0.301-0.438-0.537-0.717-0.74
	c-0.637-0.463-1.146-1.049-1.598-1.682c-0.668-0.938-1.407-1.809-2.284-2.562c-0.525-0.449-0.892-1.004-1.077-1.674
	c-0.088-0.318-0.198-0.627-0.336-0.926c-0.049-0.105-0.101-0.209-0.159-0.309c-0.063-0.074-0.123-0.149-0.176-0.231
	c-0.026-0.03-0.045-0.066-0.075-0.095c-0.124-0.115-0.21-0.266-0.231-0.436c-0.054-0.463-0.204-0.898-0.363-1.328
	c-0.46-1.248-0.761-2.539-1.037-3.834c-0.24-1.131-0.441-2.266-0.567-3.413c-0.089-0.811-0.059-1.617,0.05-2.423
	c0.223-1.643,0.574-3.257,1.101-4.831c0.178-0.533,0.378-1.058,0.646-1.555c0.077-0.143,0.163-0.281,0.268-0.405
	c0.315-0.375,0.562-0.793,0.763-1.238c0.113-0.249,0.229-0.496,0.397-0.715c0.091-0.118,0.189-0.222,0.323-0.295
	c0.123-0.067,0.201-0.184,0.285-0.292c0.103-0.134,0.181-0.284,0.271-0.427c-0.113-0.501-0.04-1.042,0.252-1.506
	c0.277-0.439,0.701-0.733,1.17-0.86c0.564-0.846,1.175-1.661,1.812-2.458c0.787-0.984,1.625-1.922,2.546-2.785
	c0.163-0.153,0.333-0.298,0.511-0.434c0.294-0.224,0.62-0.355,0.992-0.395c0.465-0.049,0.877-0.224,1.242-0.527
	c0.942-0.782,1.99-1.404,3.083-1.953c1.183-0.593,2.402-1.098,3.698-1.393c1.278-0.291,2.578-0.357,3.884-0.306
	c0.932,0.037,1.855,0.139,2.768,0.344c0.664,0.15,1.284,0.409,1.895,0.702c1.094,0.524,2.233,0.956,3.31,1.519
	c0.587,0.307,1.108,0.715,1.688,1.034c1.808,0.992,3.439,2.233,5.041,3.518c0.444,0.356,0.864,0.742,1.385,0.986
	c0.458,0.213,0.836,0.52,1.172,0.884c0.278,0.304,0.5,0.65,0.712,1.003c0.808,1.35,1.516,2.748,2.048,4.229
	c0.111,0.307,0.151,0.63,0.231,0.942c0.091,0.354,0.198,0.702,0.494,0.955c0.125,0.109,0.159,0.272,0.207,0.43
	c0.154,0.514,0.371,1.005,0.571,1.502c0.361,0.901,0.768,1.785,1.087,2.704C51.095,24.611,51.151,25.35,51.097,26.104z"/>
</svg>
