<?xml version="1.0" encoding="UTF-8" standalone="no"?>
<!-- Generator: Adobe Illustrator 16.0.0, SVG Export Plug-In . SVG Version: 6.00 Build 0)  -->

<svg
   xmlns:dc="http://purl.org/dc/elements/1.1/"
   xmlns:cc="http://creativecommons.org/ns#"
   xmlns:rdf="http://www.w3.org/1999/02/22-rdf-syntax-ns#"
   xmlns:svg="http://www.w3.org/2000/svg"
   xmlns="http://www.w3.org/2000/svg"
   xmlns:sodipodi="http://sodipodi.sourceforge.net/DTD/sodipodi-0.dtd"
   xmlns:inkscape="http://www.inkscape.org/namespaces/inkscape"
   version="1.1"
   id="OBM_xA0_Image_1_"
   x="0px"
   y="0px"
   width="56.693001"
   height="56.693001"
   viewBox="0 0 56.693001 56.693001"
   enable-background="new 0 0 672 690"
   xml:space="preserve"
   sodipodi:docname="Carte_Tresor.svg"
   inkscape:version="0.92.0 r15299"><metadata
   id="metadata19"><rdf:RDF><cc:Work
       rdf:about=""><dc:format>image/svg+xml</dc:format><dc:type
         rdf:resource="http://purl.org/dc/dcmitype/StillImage" /><dc:title /></cc:Work></rdf:RDF></metadata><defs
   id="defs17">
	
	
	
	
	
</defs><sodipodi:namedview
   pagecolor="#ffffff"
   bordercolor="#666666"
   borderopacity="1"
   objecttolerance="10"
   gridtolerance="10"
   guidetolerance="10"
   inkscape:pageopacity="0"
   inkscape:pageshadow="2"
   inkscape:window-width="1280"
   inkscape:window-height="961"
   id="namedview15"
   showgrid="false"
   inkscape:zoom="7.7392325"
   inkscape:cx="9.0893251"
   inkscape:cy="24.666734"
   inkscape:window-x="1272"
   inkscape:window-y="-8"
   inkscape:window-maximized="1"
   inkscape:current-layer="OBM_xA0_Image_1_" />
<path
   style="clip-rule:evenodd;fill:#be0a26;fill-rule:evenodd;stroke-width:0.09235792"
   d="M 28.851562 0.28710938 C 27.582867 0.27356807 26.31605 0.30687127 25.050781 0.38867188 C 24.251654 0.44025782 23.485656 0.60856959 22.761719 0.96875 C 22.197515 1.2493407 21.601756 1.4605873 20.990234 1.6171875 C 20.176107 1.82565 19.382945 2.0951147 18.609375 2.4199219 C 17.553472 2.8632847 16.519301 3.3432644 15.621094 4.0742188 C 15.286442 4.3466109 14.908147 4.5355479 14.451172 4.5761719 C 13.799278 4.6342061 13.247911 4.9577207 12.730469 5.3378906 C 12.467026 5.53143 12.253393 5.7794141 12.009766 5.9941406 C 11.807437 6.1722964 11.599077 6.3482905 11.330078 6.4140625 C 11.193309 6.4475013 11.068974 6.4970238 10.955078 6.5742188 C 9.7649067 7.3804333 8.7380244 8.3514082 7.9394531 9.5507812 C 7.3853424 10.383065 6.9378692 11.276137 6.4296875 12.134766 C 6.2592133 12.422726 6.0862006 12.708406 5.8710938 12.966797 C 5.6994158 13.172956 5.4943992 13.314234 5.2148438 13.339844 C 4.9542709 13.363611 4.7625091 13.505276 4.625 13.724609 C 4.511474 13.90562 4.4219869 14.099835 4.3417969 14.296875 C 4.0588153 14.992548 3.7109493 15.643978 3.2695312 16.261719 C 2.5706887 17.239641 2.0872928 18.336993 1.71875 19.478516 C 1.4845678 20.203851 1.4581203 20.986226 1.1347656 21.689453 C 0.61621286 23.683618 0.43800339 25.703659 0.65820312 27.755859 C 0.81173178 29.187368 1.0854312 30.596604 1.4355469 31.992188 C 1.6421346 32.816089 1.8777953 33.6321 2.0058594 34.474609 C 2.0843831 34.991942 2.1158911 35.510711 2.1171875 36.033203 C 2.1179283 36.330928 2.1608065 36.626367 2.4355469 36.816406 C 2.5678704 36.907971 2.6744153 37.021334 2.765625 37.150391 C 2.9890657 37.466631 3.164493 37.808526 3.3046875 38.167969 C 3.7793484 39.384292 4.2725855 40.591713 4.8613281 41.759766 C 5.4863694 42.999855 6.2881831 44.100897 7.3359375 45.025391 C 8.0749678 45.6774 8.8201633 46.319556 9.5898438 46.935547 C 10.153122 47.386371 10.753583 47.789428 11.314453 48.242188 C 12.085245 48.864258 12.742472 49.597546 13.335938 50.386719 C 13.841433 51.05881 14.476515 51.560016 15.248047 51.900391 C 16.911398 52.634201 18.570469 53.38076 20.234375 54.113281 C 21.224533 54.549182 22.237164 54.925402 23.251953 55.300781 C 23.64735 55.447064 24.048201 55.611343 24.349609 55.912109 C 24.564253 56.126099 24.805651 56.240734 25.087891 56.302734 C 25.645521 56.425154 26.211372 56.427356 26.775391 56.378906 C 27.387376 56.326307 27.977054 56.200359 28.511719 55.865234 C 28.823221 55.670037 29.182153 55.567248 29.552734 55.548828 C 29.97165 55.52801 30.383286 55.469512 30.787109 55.365234 C 31.693095 55.131347 32.602948 54.908796 33.53125 54.787109 C 34.414179 54.671225 35.268401 54.461192 36.089844 54.121094 C 38.128312 53.276927 40.115604 52.323507 42.060547 51.285156 C 43.070429 50.74599 44.063178 50.178888 44.851562 49.324219 C 44.940551 49.227772 45.048744 49.139346 45.177734 49.103516 C 45.289779 49.072472 45.381993 49.017479 45.470703 48.949219 C 45.826282 48.675998 46.144714 48.362471 46.460938 48.046875 C 48.003725 46.507496 49.342113 44.798496 50.640625 43.056641 C 51.358357 42.093919 51.986173 41.08083 52.416016 39.953125 C 52.684552 39.248608 53.013198 38.569847 53.349609 37.894531 C 53.58231 37.427402 53.798654 36.951095 53.949219 36.451172 C 54.236553 35.497108 54.517933 34.542653 54.789062 33.583984 C 54.995835 32.85349 55.187762 32.116527 55.226562 31.353516 C 55.249343 30.905087 55.314431 30.464371 55.478516 30.048828 C 55.74233 29.380975 55.833463 28.689988 55.820312 28.060547 C 55.822534 27.187639 55.725872 26.403579 55.589844 25.625 C 55.289639 23.906267 54.813191 22.234791 54.208984 20.599609 C 52.974643 17.259512 51.308941 14.128013 49.505859 11.064453 C 49.186949 10.522708 48.772284 10.073382 48.277344 9.6875 C 47.748328 9.2749967 47.205538 8.8839654 46.654297 8.5019531 C 45.965085 8.0244147 45.295307 7.523391 44.664062 6.96875 C 43.76715 6.1808669 42.772815 5.5335692 41.679688 5.0410156 C 40.895005 4.6874676 40.16254 4.2424101 39.435547 3.7832031 C 38.170278 2.9840816 36.860087 2.2833577 35.351562 2.0292969 C 34.782544 1.9334945 34.262963 1.6697277 33.742188 1.4277344 C 32.191993 0.70737356 30.571029 0.30544077 28.851562 0.28710938 z M 27.255859 3.1210938 C 27.581366 3.117504 27.90771 3.1238453 28.234375 3.1367188 C 29.166288 3.1733817 30.090504 3.2746777 31.001953 3.4804688 C 31.666441 3.6305287 32.287472 3.8887983 32.898438 4.1816406 C 33.992584 4.7060669 35.130108 5.1380561 36.207031 5.7011719 C 36.794107 6.0081083 37.315049 6.4163845 37.894531 6.734375 C 39.702151 7.7262068 41.334978 8.9690482 42.935547 10.253906 C 43.37965 10.610402 43.801954 10.99509 44.322266 11.238281 C 44.778871 11.451718 45.156332 11.757984 45.492188 12.123047 C 45.771836 12.42722 45.99423 12.774603 46.205078 13.126953 C 47.013187 14.476755 47.721 15.87534 48.253906 17.357422 C 48.364098 17.664082 48.404365 17.985627 48.484375 18.298828 C 48.575029 18.653297 48.680709 19.000029 48.976562 19.253906 C 49.103607 19.362881 49.138317 19.526073 49.185547 19.683594 C 49.339446 20.197704 49.555568 20.690156 49.755859 21.1875 C 50.118661 22.08832 50.524747 22.969982 50.84375 23.888672 C 51.094515 24.610691 51.149783 25.35084 51.095703 26.105469 C 51.004863 27.373009 50.89927 28.640073 50.771484 29.904297 C 50.636104 31.243137 50.508953 32.582333 50.197266 33.896484 C 50.082259 34.381116 49.908127 34.841443 49.658203 35.277344 C 49.347349 35.819365 49.157011 36.415532 48.949219 37.001953 C 48.638921 37.877624 48.250926 38.716632 47.763672 39.509766 C 47.6232 39.738402 47.501624 39.979058 47.363281 40.208984 C 47.267074 40.368808 47.266551 40.55747 47.181641 40.720703 C 47.040798 40.991437 46.875021 41.247025 46.689453 41.488281 C 45.472798 43.070311 44.115053 44.519533 42.572266 45.792969 C 42.348733 45.977573 42.107329 46.135575 41.853516 46.277344 C 41.499789 46.475213 41.177499 46.722676 40.933594 47.042969 C 40.49625 47.617323 39.949515 48.064998 39.361328 48.46875 C 38.171342 49.285742 36.905962 49.957067 35.529297 50.414062 C 34.442466 50.774796 33.328123 50.943119 32.185547 50.949219 C 31.620602 50.952272 31.055364 50.949219 30.490234 50.949219 C 29.522948 50.961379 28.555649 50.951849 27.589844 50.886719 C 27.407332 50.874369 27.224741 50.849685 27.042969 50.828125 C 27.003062 50.823435 26.955971 50.819255 26.925781 50.796875 C 26.575758 50.537563 26.154463 50.501812 25.748047 50.419922 C 24.203316 50.109025 22.674497 49.724294 21.134766 49.392578 C 20.141089 49.178496 19.251618 48.759406 18.414062 48.210938 C 17.39705 47.544927 16.340047 46.95065 15.244141 46.423828 C 14.918749 46.267412 14.605726 46.09006 14.304688 45.890625 C 14.010779 45.695888 13.743523 45.482256 13.560547 45.166016 C 13.38674 44.86562 13.123583 44.629545 12.84375 44.425781 C 12.206486 43.961692 11.697512 43.377451 11.246094 42.744141 C 10.577716 41.806474 9.837662 40.936012 8.9609375 40.183594 C 8.4352546 39.732401 8.0705186 39.178154 7.8847656 38.507812 C 7.7970746 38.190928 7.687541 37.879185 7.5488281 37.580078 C 7.4421544 37.350152 7.3280277 37.125975 7.1367188 36.947266 C 7.0130069 36.831658 6.926251 36.682505 6.90625 36.511719 C 6.8521723 36.049932 6.7020532 35.615442 6.5429688 35.183594 C 6.0832162 33.935859 5.7814332 32.646074 5.5058594 31.349609 C 5.2659361 30.22089 5.0659429 29.083519 4.9394531 27.935547 C 4.8501876 27.125095 4.8809679 26.319702 4.9902344 25.513672 C 5.2128417 23.870752 5.5636053 22.255841 6.0898438 20.681641 C 6.2680037 20.148832 6.4680696 19.625052 6.7363281 19.128906 C 6.8135554 18.986123 6.898992 18.847475 7.0039062 18.722656 C 7.31939 18.347092 7.5669167 17.929672 7.7675781 17.484375 C 7.8800855 17.234644 7.995718 16.988311 8.1640625 16.769531 C 8.2543462 16.652173 8.3545686 16.547659 8.4882812 16.474609 C 8.6108819 16.407547 8.6883304 16.290248 8.7714844 16.181641 C 8.9692752 15.923343 9.1455516 15.648256 9.2929688 15.359375 C 10.108208 13.761776 11.163298 12.324055 12.279297 10.927734 C 13.065923 9.9437325 13.90277 9.0069375 14.824219 8.1445312 C 14.987564 7.9917079 15.158148 7.8469033 15.335938 7.7109375 C 15.629383 7.4866308 15.956989 7.3556482 16.328125 7.3164062 C 16.793155 7.2672153 17.205103 7.0921299 17.570312 6.7890625 C 18.512783 6.0069828 19.559494 5.383946 20.652344 4.8359375 C 21.835478 4.2426071 23.055273 3.7381362 24.351562 3.4433594 C 25.310515 3.2252476 26.279341 3.1318629 27.255859 3.1210938 z M 32.306641 8.5058594 C 32.213 8.504361 32.118227 8.5129645 32.021484 8.53125 C 31.795357 8.5740848 31.588794 8.6770977 31.371094 8.7460938 C 30.716699 8.9535428 30.045634 9.0940469 29.382812 9.2695312 C 28.595446 9.4779937 27.854734 9.822034 27.074219 10.048828 C 26.016557 10.356133 25.081822 10.87934 24.251953 11.599609 C 23.036409 12.654541 21.817038 13.70354 20.585938 14.740234 C 19.929969 15.292572 19.32873 15.887446 18.832031 16.589844 C 17.678714 18.22088 16.511344 19.841177 15.347656 21.464844 C 15.132364 21.76524 14.948165 22.095824 14.666016 22.339844 C 14.260619 22.690536 14.037048 23.135064 13.896484 23.638672 C 13.793236 24.008432 13.690444 24.379334 13.535156 24.732422 C 12.968823 26.019767 12.40254 27.307417 11.833984 28.59375 C 11.613321 29.093212 11.371455 29.583292 11.242188 30.119141 C 10.953188 31.317132 10.882649 32.538303 10.824219 33.761719 C 10.778568 34.717348 10.725961 35.672593 10.546875 36.615234 C 10.530025 36.703851 10.543544 36.778675 10.589844 36.859375 C 10.861806 37.334426 11.152735 37.79831 11.453125 38.255859 C 12.026034 39.12849 12.643958 39.974331 13.126953 40.900391 C 13.337801 41.304511 13.613469 41.576124 14.015625 41.792969 C 16.072335 42.901607 18.091456 44.079553 20.107422 45.259766 C 20.173075 45.298176 20.235389 45.332123 20.318359 45.332031 C 21.040906 45.330921 21.764613 45.350686 22.486328 45.384766 C 23.502599 45.432759 24.517017 45.490632 25.53125 45.570312 C 25.931647 45.601814 26.327612 45.684646 26.824219 45.697266 C 27.198503 45.723151 27.573932 45.507229 27.931641 45.244141 C 28.332686 44.949456 28.70227 44.615221 29.121094 44.34375 C 31.077149 43.075933 33.032237 41.805741 35.011719 40.574219 C 35.086632 40.5277 35.146796 40.473441 35.197266 40.400391 C 35.839716 39.46908 36.529076 38.571223 37.240234 37.691406 C 38.52217 36.105323 39.808033 34.523178 41.097656 32.943359 C 41.548426 32.391113 41.86218 31.780744 42.013672 31.082031 C 42.13905 30.504084 42.270073 29.926157 42.435547 29.357422 C 43.034661 27.299143 43.44419 25.188552 44.140625 23.15625 C 44.293045 22.711598 44.359846 22.251714 44.234375 21.783203 C 44.177982 21.573359 44.127777 21.360825 44.060547 21.154297 C 43.731915 20.144318 43.344918 19.153624 43.060547 18.128906 C 42.990265 17.875766 42.894573 17.629079 42.820312 17.376953 C 42.591409 16.598834 42.112165 15.98665 41.541016 15.431641 C 40.547432 14.465878 39.517133 13.538891 38.548828 12.546875 C 37.34699 11.315629 35.998045 10.270114 34.496094 9.4238281 C 34.045046 9.1696753 33.598895 8.9047894 33.119141 8.7050781 C 32.85572 8.5954349 32.587562 8.5103544 32.306641 8.5058594 z M 32.419922 8.7402344 C 32.471592 8.745819 32.522418 8.7620259 32.576172 8.7890625 C 33.837551 9.4237538 35.098865 10.057873 36.283203 10.832031 C 36.522848 10.988631 36.657988 11.160283 36.714844 11.453125 C 37.040513 13.131695 37.466453 14.786785 37.896484 16.441406 C 37.918144 16.524865 37.910892 16.599918 37.888672 16.679688 C 37.220295 19.076683 36.452628 21.443453 35.705078 23.816406 C 35.344314 24.961153 34.943624 26.088438 34.369141 27.148438 C 34.059491 27.719843 33.702466 28.261428 33.298828 28.771484 C 33.283088 28.791374 33.26898 28.813768 33.25 28.830078 C 32.582178 29.403603 32.128552 30.148796 31.625 30.851562 C 30.874673 31.898574 30.092224 32.922714 29.322266 33.955078 C 28.973817 34.422207 28.680918 34.926996 28.326172 35.390625 C 28.067636 35.728605 27.771442 36.030244 27.402344 36.244141 C 25.774181 37.18798 24.340051 38.401109 22.822266 39.498047 C 22.187872 39.956609 21.579953 40.447177 20.980469 40.949219 C 20.455341 41.389081 19.867242 41.632672 19.308594 41.570312 C 18.665682 41.559263 18.164272 41.509249 17.662109 41.474609 C 16.968267 41.426984 16.279713 41.499969 15.591797 41.574219 C 15.262609 41.609679 14.932325 41.615891 14.601562 41.587891 C 14.118198 41.546898 13.753718 41.305806 13.457031 40.939453 C 13.145807 40.555138 12.913422 40.121486 12.662109 39.699219 C 12.107536 38.767632 11.519061 37.854902 10.925781 36.947266 C 10.883561 36.882692 10.856528 36.822661 10.861328 36.738281 C 10.913554 35.818854 10.926731 34.897243 11.037109 33.982422 C 11.160913 32.956783 11.176818 31.923247 11.306641 30.898438 C 11.393406 30.214279 11.54213 29.55604 11.964844 28.982422 C 12.245881 28.601055 12.434453 28.167861 12.566406 27.712891 C 12.857721 26.708255 13.321249 25.770782 13.724609 24.810547 C 14.298351 23.444717 15.034207 22.176766 15.917969 20.986328 C 16.733949 19.887087 17.535177 18.778078 18.322266 17.658203 C 19.22214 16.377858 20.299164 15.268735 21.517578 14.289062 C 22.700897 13.337578 23.875895 12.375397 25.009766 11.365234 C 25.586286 10.851586 26.274944 10.537634 26.998047 10.302734 C 28.736773 9.7378684 30.483435 9.2002168 32.257812 8.7539062 C 32.315641 8.7393516 32.368252 8.7346497 32.419922 8.7402344 z M 31.216797 11.207031 C 31.036704 11.203468 30.856942 11.244585 30.673828 11.34375 C 30.478723 11.449317 30.264609 11.521566 30.054688 11.597656 C 28.961652 11.993854 27.865824 12.383301 26.773438 12.78125 C 26.331463 12.942272 25.910849 13.144646 25.582031 13.494141 C 24.975231 14.139057 24.29841 14.709786 23.611328 15.265625 C 22.802385 15.919937 22.038767 16.629545 21.167969 17.207031 C 20.838503 17.425442 20.567476 17.704709 20.324219 18.013672 C 19.944101 18.496462 19.610109 19.011428 19.269531 19.521484 C 18.43892 20.765165 17.527758 21.951501 16.691406 23.191406 C 16.416018 23.599764 16.196896 24.025872 16.091797 24.509766 C 16.005958 24.904675 15.913106 25.300529 15.716797 25.660156 C 15.180095 26.643329 14.74453 27.672953 14.283203 28.691406 C 13.875213 29.592134 13.625794 30.525691 13.621094 31.521484 C 13.618774 31.996443 13.575382 32.470815 13.544922 32.945312 C 13.505012 33.56637 13.417801 34.183741 13.400391 34.806641 C 13.402711 35.013906 13.388964 35.222679 13.433594 35.427734 C 13.519525 35.825498 13.742263 36.15262 13.992188 36.460938 C 14.408141 36.973941 14.797512 37.504747 15.132812 38.074219 C 15.232727 38.243808 15.354508 38.399857 15.474609 38.556641 C 15.773054 38.9463 16.149802 39.115626 16.650391 38.992188 C 17.122644 38.875838 17.603701 38.87567 18.089844 38.90625 C 18.612008 38.93904 19.137344 38.963251 19.660156 38.894531 C 19.730164 38.885231 19.783939 38.862681 19.824219 38.800781 C 19.930892 38.636901 19.969772 38.628089 20.138672 38.736328 C 20.229326 38.794448 20.314419 38.802069 20.412109 38.761719 C 20.643328 38.666285 20.858699 38.544592 21.064453 38.404297 C 21.996552 37.7685 22.896941 37.088896 23.783203 36.392578 C 24.542235 35.796208 25.296209 35.196638 26.138672 34.716797 C 26.399338 34.568303 26.628012 34.373023 26.847656 34.167969 C 27.460381 33.595918 27.950413 32.921575 28.433594 32.244141 C 29.013539 31.431017 29.572995 30.603965 30.267578 29.878906 C 30.453516 29.684814 30.656471 29.504966 30.791016 29.267578 C 30.911395 29.055247 31.058521 28.862098 31.210938 28.671875 C 31.623095 28.157397 32.061937 27.663501 32.441406 27.123047 C 32.540582 26.98183 32.607062 26.836562 32.601562 26.660156 C 32.596192 26.485962 32.665731 26.333401 32.8125 26.244141 C 33.051127 26.099147 33.147211 25.876481 33.207031 25.625 C 33.315835 25.167543 33.408952 24.705928 33.537109 24.253906 C 33.786755 23.372984 34.152623 22.529711 34.427734 21.65625 C 34.672102 20.880066 34.98631 20.12769 35.214844 19.345703 C 35.349945 18.883271 35.458072 18.416069 35.451172 17.929688 C 35.441727 17.271045 35.292383 16.636129 35.117188 16.005859 C 34.908839 15.255652 34.657438 14.514483 34.611328 13.730469 C 34.598549 13.511782 34.518357 13.387128 34.335938 13.265625 C 33.861646 12.950029 33.45733 12.543958 33.017578 12.183594 C 32.624404 11.861458 32.228398 11.54534 31.757812 11.337891 C 31.577153 11.25828 31.39689 11.210595 31.216797 11.207031 z M 37.498047 12.171875 C 37.565364 12.165055 37.603144 12.215144 37.646484 12.246094 C 38.31588 12.724554 38.876175 13.318483 39.439453 13.910156 C 39.86624 14.358493 40.293776 14.806816 40.773438 15.201172 C 40.810167 15.23148 40.871776 15.258939 40.816406 15.318359 C 40.755754 15.383489 40.716547 15.323196 40.679688 15.285156 C 40.604312 15.207316 40.563248 15.092128 40.416016 15.048828 C 40.519819 15.507943 40.753024 15.84739 41.144531 16.099609 C 41.139346 15.919058 41.075119 15.778745 40.941406 15.625 C 41.072619 15.66415 41.139531 15.728196 41.207031 15.791016 C 41.405748 15.975897 41.557097 16.200093 41.703125 16.425781 C 41.911842 16.748193 42.104382 17.081203 42.34375 17.400391 C 42.202722 17.403338 42.104393 17.337751 42.007812 17.275391 C 41.725015 17.092629 41.487245 16.855443 41.230469 16.640625 C 41.114165 16.543441 40.999997 16.443696 40.851562 16.353516 C 40.874989 16.569256 40.980292 16.724036 41.109375 16.857422 C 41.370318 17.127051 41.643741 17.384078 41.908203 17.650391 C 42.030063 17.773184 42.131294 17.913233 42.208984 18.068359 C 42.223149 18.096549 42.254976 18.130443 42.222656 18.164062 C 42.194503 18.193262 42.156654 18.183028 42.121094 18.173828 C 42.054427 18.156605 42.001381 18.118469 41.957031 18.068359 C 41.84619 17.943079 41.738442 17.816133 41.626953 17.691406 C 41.52815 17.580772 41.416864 17.481417 41.271484 17.435547 C 41.230365 17.422557 41.182311 17.402956 41.144531 17.447266 C 41.107031 17.491395 41.111616 17.542314 41.134766 17.589844 C 41.186621 17.696608 41.271389 17.776632 41.355469 17.857422 C 41.442049 17.940604 41.534202 18.018569 41.570312 18.140625 C 41.170935 17.863259 40.77648 17.582648 40.75 17.029297 C 40.74278 16.877763 40.736636 16.7252 40.722656 16.574219 C 40.701636 16.349821 40.664013 16.131599 40.441406 15.996094 C 40.799207 16.022624 40.951807 16.363982 41.244141 16.523438 C 41.188304 16.334043 41.076854 16.199941 40.957031 16.072266 C 40.775538 15.879003 40.555086 15.729989 40.349609 15.564453 C 40.19108 15.436686 40.04355 15.299473 39.921875 15.134766 C 39.882055 15.080693 39.870007 15.036843 39.898438 14.970703 C 39.970105 14.804062 39.941888 14.644957 39.839844 14.496094 C 39.71391 14.312412 39.538015 14.183541 39.363281 14.052734 C 39.131691 13.879369 38.884751 13.722541 38.669922 13.527344 C 38.564175 13.431265 38.469544 13.326839 38.396484 13.203125 C 38.376384 13.169135 38.371918 13.102836 38.304688 13.128906 C 38.255948 13.147699 38.243594 13.194287 38.246094 13.242188 C 38.251284 13.343148 38.260325 13.443869 38.265625 13.544922 C 38.266925 13.568594 38.261559 13.592774 38.255859 13.646484 C 37.896947 13.187829 37.484067 12.790722 37.498047 12.171875 z M 38.806641 14.550781 C 39.56132 14.630923 40.431091 16.070639 40.285156 16.972656 C 40.057641 16.902001 39.889554 16.7514 39.730469 16.587891 C 39.560735 16.413604 39.403989 16.225513 39.207031 16.078125 C 39.124807 16.016586 39.095538 16.047219 39.080078 16.130859 C 39.039427 16.35185 39.102117 16.551136 39.207031 16.742188 C 39.353985 17.009882 39.564911 17.23258 39.732422 17.490234 C 39.590839 17.436437 39.478739 17.339887 39.380859 17.228516 C 38.992778 16.786627 38.744532 16.269614 38.558594 15.71875 C 38.526274 15.623132 38.502952 15.523331 38.476562 15.425781 C 38.472808 15.411961 38.476562 15.396077 38.476562 15.373047 C 38.678335 15.466731 38.829348 15.615455 38.980469 15.763672 C 39.18326 15.962462 39.373435 16.176977 39.630859 16.310547 C 39.733181 16.363697 39.870966 16.466693 39.947266 16.408203 C 40.038613 16.338285 39.971403 16.182493 39.939453 16.068359 C 39.815463 15.624812 39.52563 15.282925 39.220703 14.955078 C 39.089768 14.814322 38.938131 14.691721 38.806641 14.550781 z M 34.845703 16.4375 C 35.027184 16.440601 35.046614 16.569421 35.019531 16.824219 C 35.015091 16.97041 35.022322 17.089601 35.107422 17.21875 C 35.196032 17.353334 35.178433 17.541127 35.189453 17.707031 C 35.221122 18.18678 35.156552 18.654719 35.013672 19.113281 C 34.994412 19.175184 34.970794 19.244112 34.927734 19.289062 C 34.713275 19.512816 34.642015 19.796208 34.578125 20.083984 C 34.29644 21.350879 33.845969 22.564615 33.419922 23.787109 C 33.233706 24.321392 33.097813 24.874049 32.921875 25.412109 C 32.641301 26.270094 32.161364 27.022618 31.611328 27.728516 C 30.585797 29.044418 29.607339 30.396984 28.53125 31.673828 C 28.249194 32.008584 28.006021 32.370273 27.789062 32.748047 C 27.372739 33.473106 26.790926 34.034932 26.09375 34.484375 C 25.556122 34.831106 25.007868 35.16239 24.470703 35.509766 C 24.02058 35.800766 23.606407 36.133896 23.291016 36.574219 C 23.270086 36.603239 23.248821 36.628758 23.212891 36.642578 C 22.638779 36.863752 22.171733 37.249583 21.695312 37.621094 C 21.269173 37.953363 20.824789 38.255159 20.298828 38.414062 C 20.034829 38.493749 19.765993 38.541071 19.490234 38.556641 C 19.403394 38.561523 19.386144 38.536238 19.402344 38.455078 C 19.567079 37.628689 19.528484 36.793755 19.521484 35.958984 C 19.513984 35.073364 19.493852 34.184689 19.703125 33.314453 C 19.808688 32.875327 19.997384 32.464813 20.164062 32.046875 C 20.542698 31.097878 20.924468 30.150353 21.302734 29.201172 C 21.803971 27.943488 22.444267 26.76445 23.285156 25.697266 C 24.073819 24.696314 24.795961 23.650208 25.455078 22.560547 C 25.848993 21.909367 26.349781 21.364154 27.001953 20.953125 C 27.570787 20.59451 28.04 20.104592 28.570312 19.695312 C 29.262581 19.16103 29.91601 18.581669 30.570312 18.003906 C 31.150537 17.491455 31.802484 17.154113 32.570312 17 C 33.256376 16.862284 33.927461 16.653706 34.605469 16.476562 C 34.706514 16.450125 34.785209 16.436466 34.845703 16.4375 z M 39.798828 16.855469 C 39.838924 16.868215 39.873232 16.897122 39.904297 16.929688 C 39.99847 17.028346 40.084468 17.135017 40.173828 17.238281 C 40.284576 17.366141 40.404539 17.480828 40.607422 17.517578 C 40.334445 17.716276 40.43648 17.934301 40.542969 18.152344 C 40.610288 18.289875 40.702602 18.417787 40.732422 18.591797 C 40.530094 18.507786 40.40936 18.369342 40.3125 18.207031 C 40.213512 18.041495 40.149261 17.859316 40.082031 17.679688 C 40.029065 17.538103 39.972403 17.397278 39.914062 17.257812 C 39.855263 17.117425 39.767015 16.996246 39.660156 16.876953 C 39.713725 16.845355 39.758733 16.842723 39.798828 16.855469 z M 41.0625 18.160156 C 41.536698 18.279816 41.941888 18.813638 41.923828 19.25 C 41.920216 19.33464 41.899926 19.352612 41.816406 19.326172 C 41.676397 19.281863 41.583952 19.190507 41.513672 19.068359 C 41.432369 18.927142 41.391704 18.771412 41.339844 18.619141 C 41.284192 18.455356 41.21464 18.300267 41.0625 18.160156 z M 41.992188 18.65625 C 42.337581 18.896493 42.679453 19.139724 42.943359 19.470703 C 43.06105 19.618183 42.94848 19.758675 42.90625 19.896484 C 42.868933 20.017431 42.767587 20.077499 42.642578 20.099609 C 42.562105 20.113798 42.54801 20.058639 42.53125 20.005859 C 42.479395 19.84235 42.430386 19.677273 42.378906 19.513672 C 42.284548 19.213829 42.169143 18.924589 41.992188 18.65625 z M 40.945312 18.714844 C 40.977942 18.708396 41.013001 18.719094 41.050781 18.740234 C 41.162547 18.802597 41.226722 18.902744 41.263672 19.021484 C 41.272472 19.049674 41.285683 19.087509 41.257812 19.105469 C 41.232812 19.121499 41.197911 19.106364 41.175781 19.083984 C 41.133461 19.041519 41.089598 18.999352 41.054688 18.951172 C 41.003296 18.880431 40.936502 18.830369 40.857422 18.792969 C 40.88321 18.745849 40.912683 18.721291 40.945312 18.714844 z M 38.794922 20.126953 C 38.815607 20.121736 38.839852 20.133919 38.873047 20.162109 C 39.027872 20.293469 39.187553 20.418057 39.347656 20.542969 C 39.463775 20.633613 39.588009 20.71539 39.720703 20.78125 C 39.928865 20.884514 40.114621 20.838107 40.25 20.648438 C 40.318889 20.551806 40.362902 20.442351 40.382812 20.328125 C 40.405592 20.196675 40.456047 20.224929 40.529297 20.287109 C 40.714309 20.443986 40.776503 20.655465 40.783203 20.882812 C 40.791863 21.181089 40.780324 21.480743 40.78125 21.779297 C 40.78199 21.990246 40.821921 22.190947 40.955078 22.365234 C 41.020546 22.450804 41.091964 22.467624 41.193359 22.427734 C 41.359481 22.362422 41.486682 22.249009 41.609375 22.126953 C 41.740217 21.996883 41.878986 21.879071 42.066406 21.837891 C 42.238821 21.80003 42.249294 21.808799 42.246094 21.984375 C 42.23452 22.610868 42.133749 23.222044 41.923828 23.814453 C 41.808913 24.138984 41.677867 24.456625 41.539062 24.771484 C 41.2183 25.499398 40.921604 26.234085 40.839844 27.0625 C 40.441758 26.762381 40.343626 26.375999 40.378906 25.939453 C 40.418631 25.445241 40.593735 24.98386 40.738281 24.515625 C 40.809953 24.28358 40.876714 24.050072 40.927734 23.8125 C 40.952274 23.69855 40.93945 23.601311 40.875 23.498047 C 40.550257 22.978779 40.209038 22.468404 40.009766 21.882812 C 39.985509 21.811142 39.956054 21.817113 39.902344 21.851562 C 39.736033 21.958143 39.657829 22.137074 39.699219 22.337891 C 39.745981 22.564593 39.865713 22.759181 39.974609 22.958984 C 40.083783 23.158972 40.19611 23.357724 40.25 23.582031 C 40.28006 23.707219 40.283118 23.830627 40.242188 23.955078 C 40.2145 24.039638 40.182373 24.069509 40.095703 24.005859 C 39.94199 23.892922 39.846604 23.744065 39.777344 23.572266 C 39.653447 23.264777 39.613956 22.935914 39.535156 22.617188 C 39.491449 22.439953 39.440733 22.264354 39.351562 22.103516 C 39.257482 21.933928 39.125762 21.809414 38.939453 21.740234 C 38.830741 21.699886 38.779959 21.701115 38.761719 21.839844 C 38.714123 22.201314 38.802929 22.532117 38.953125 22.853516 C 39.088504 23.143411 39.267194 23.409433 39.433594 23.681641 C 39.640274 24.019714 39.833109 24.363807 39.886719 24.765625 C 39.906999 24.917343 39.908011 25.06731 39.863281 25.228516 C 39.686603 25.171403 39.557146 25.05622 39.439453 24.925781 C 39.221012 24.68388 39.097892 24.390075 38.982422 24.091797 C 38.869266 23.799508 38.763309 23.504296 38.638672 23.216797 C 38.534128 22.97554 38.391535 22.754824 38.154297 22.570312 C 38.129207 22.840585 38.166278 23.081654 38.205078 23.322266 C 38.328512 24.088409 38.695222 24.751974 39.097656 25.400391 C 39.439808 25.951623 39.769072 26.510208 39.939453 27.144531 C 40.054648 27.573523 40.106114 28.008639 40.083984 28.451172 C 40.077687 28.576272 40.114475 28.584329 40.216797 28.542969 C 40.459498 28.444864 40.630961 28.269561 40.759766 28.050781 C 40.895793 27.81975 41.01976 27.58241 41.15625 27.351562 C 41.212272 27.256865 41.283774 27.105027 41.371094 27.117188 C 41.475176 27.131558 41.491784 27.296519 41.527344 27.404297 C 41.656521 27.797087 41.664999 28.209529 41.730469 28.613281 C 41.743429 28.693147 41.744177 28.778143 41.773438 28.851562 C 41.832237 28.998859 41.759619 29.093504 41.662109 29.183594 C 41.444502 29.384779 41.183812 29.385587 40.916016 29.335938 C 40.746376 29.30443 40.580176 29.260223 40.412109 29.220703 C 40.087551 29.144433 39.767228 29.122995 39.455078 29.310547 C 39.424798 29.023231 39.401444 28.748954 39.365234 28.476562 C 39.236244 27.505826 38.913465 26.590641 38.544922 25.689453 C 38.196566 24.837364 37.838626 23.989374 37.625 23.089844 C 37.495923 22.546534 37.421484 21.996766 37.396484 21.439453 C 37.392504 21.350191 37.377701 21.258395 37.484375 21.203125 C 37.589567 21.148688 37.656949 21.205899 37.730469 21.261719 C 37.969374 21.4431 38.092727 21.428739 38.283203 21.195312 C 38.413767 21.035211 38.483104 20.844336 38.552734 20.654297 C 38.610052 20.497605 38.665134 20.339236 38.740234 20.189453 C 38.758198 20.153573 38.774237 20.132171 38.794922 20.126953 z M 35.439453 28.798828 C 35.495012 28.80538 35.546759 28.844487 35.583984 28.916016 C 35.595564 28.938396 35.610328 28.964421 35.611328 28.988281 C 35.62281 29.275964 35.8276 29.430204 36.025391 29.589844 C 36.199014 29.730047 36.376956 29.863338 36.525391 30.033203 C 36.613301 30.133611 36.618718 30.203783 36.523438 30.310547 C 36.122856 30.759161 35.794071 31.256826 35.537109 31.800781 C 35.410897 32.068015 35.460861 32.275411 35.697266 32.460938 C 35.864314 32.591836 36.058742 32.669267 36.261719 32.716797 C 36.401269 32.749407 36.422755 32.812994 36.390625 32.941406 C 36.32951 33.186255 36.20307 33.386684 36.021484 33.556641 C 35.895549 33.67446 35.771071 33.795285 35.634766 33.900391 C 35.311876 34.149294 35.256532 34.467928 35.367188 34.835938 C 35.422376 35.019804 35.482746 35.202023 35.535156 35.386719 C 35.553768 35.452669 35.5981 35.474975 35.65625 35.484375 C 35.851819 35.515875 36.047545 35.541735 36.242188 35.578125 C 36.440164 35.615065 36.636134 35.665249 36.714844 35.884766 C 36.773737 36.048637 36.746276 36.078732 36.576172 36.044922 C 36.30208 35.990296 36.108643 36.088473 35.984375 36.351562 C 35.86853 36.596964 35.833554 36.865431 35.777344 37.126953 C 35.732711 37.334771 35.686437 37.541941 35.591797 37.734375 C 35.490124 37.941179 35.336014 38.08622 35.099609 38.125 C 34.923598 38.153741 34.905147 38.134099 34.929688 37.958984 C 34.992655 37.507975 35.095697 37.064326 35.179688 36.617188 C 35.26395 36.168851 35.338129 35.718237 35.287109 35.259766 C 35.231272 34.756527 34.992718 34.384854 34.5 34.201172 C 34.467868 34.189202 34.437205 34.174837 34.390625 34.154297 C 34.81269 33.715633 34.941018 33.173635 35.042969 32.623047 C 35.159181 31.996646 35.200222 31.358675 35.34375 30.736328 C 35.406624 30.464396 35.485353 30.197605 35.623047 29.953125 C 35.673052 29.86432 35.631847 29.847397 35.560547 29.841797 C 35.312845 29.822268 35.127263 29.936159 34.986328 30.125 C 34.775758 30.40688 34.699034 30.736294 34.677734 31.080078 C 34.673293 31.150732 34.675411 31.220176 34.675781 31.291016 C 34.676707 31.48299 34.677376 31.484207 34.490234 31.466797 C 33.993534 31.42037 33.562193 31.247924 33.259766 30.830078 C 33.227626 30.785679 33.166085 30.737096 33.265625 30.691406 C 33.960856 30.372587 34.45767 29.823803 34.941406 29.259766 C 35.050394 29.132735 35.160922 29.006508 35.271484 28.880859 C 35.325099 28.819875 35.383894 28.792277 35.439453 28.798828 z M 28.980469 37.080078 C 29.211965 37.215675 29.369125 37.390849 29.513672 37.578125 C 29.690628 37.807682 29.841443 38.055952 29.972656 38.3125 C 30.396202 39.141099 31.068397 39.614607 31.986328 39.771484 C 32.386261 39.839743 32.782941 39.936951 33.146484 40.130859 C 33.358442 40.243979 33.544975 40.386837 33.705078 40.601562 C 33.430245 40.643572 33.182037 40.627536 32.933594 40.572266 C 32.498751 40.47545 32.106804 40.26382 31.691406 40.115234 C 31.342865 39.990594 30.992298 39.936192 30.636719 40.089844 C 30.362168 40.208584 30.330859 40.39708 30.550781 40.603516 C 30.646806 40.693699 30.757137 40.767406 30.835938 40.875 C 30.862047 40.910646 30.908272 40.950201 30.882812 40.994141 C 30.856694 41.039001 30.799573 41.011559 30.757812 41.005859 C 30.330932 40.94718 29.916375 40.994673 29.511719 41.136719 C 29.250591 41.228468 29.008793 41.357537 28.808594 41.552734 C 28.387732 41.963211 28.403857 42.426766 28.853516 42.808594 C 28.891667 42.841021 28.932149 42.872984 29.005859 42.933594 C 28.891685 42.919034 28.815244 42.908138 28.740234 42.898438 C 28.073523 42.811935 27.411146 42.872059 26.748047 42.943359 C 25.949475 43.029212 25.155024 43.155879 24.347656 43.136719 C 23.869569 43.125297 23.337906 43.013598 23.066406 42.851562 C 24.16472 41.994406 24.637388 40.827787 24.810547 39.509766 C 24.842117 39.269246 24.860724 39.025473 24.871094 38.783203 C 24.875816 38.673493 24.91472 38.671859 25 38.699219 C 25.169824 38.753568 25.265995 38.884236 25.265625 39.080078 C 25.265254 39.23981 25.224531 39.393607 25.144531 39.529297 C 25.089171 39.623165 25.104447 39.69586 25.148438 39.78125 C 25.32669 40.127705 25.614181 40.349829 25.966797 40.498047 C 26.041524 40.529467 26.117239 40.555524 26.193359 40.583984 C 26.216409 40.592644 26.24702 40.596016 26.246094 40.628906 C 26.245254 40.657096 26.221349 40.668471 26.199219 40.681641 C 26.148753 40.711601 26.093219 40.71512 26.037109 40.714844 C 25.915064 40.714244 25.79206 40.710385 25.669922 40.710938 C 25.576397 40.711306 25.481094 40.719753 25.433594 40.814453 C 25.387194 40.907032 25.431952 40.991093 25.482422 41.070312 C 25.574928 41.215675 25.706377 41.318974 25.853516 41.402344 C 25.972691 41.469774 26.096334 41.530077 26.21875 41.591797 C 26.443116 41.704825 26.657285 41.829387 26.787109 42.056641 C 26.803129 42.084651 26.820009 42.104822 26.855469 42.107422 C 27.136414 42.128149 27.399992 42.11469 27.605469 41.875 C 27.810112 41.636507 27.935103 41.353631 28.087891 41.085938 C 28.135759 41.001838 28.054528 41.005178 28.017578 40.992188 C 27.807934 40.919137 27.587119 40.922113 27.369141 40.908203 C 27.166258 40.895303 26.962473 40.903351 26.761719 40.863281 C 26.641804 40.839423 26.524483 40.809026 26.423828 40.728516 C 26.451423 40.667536 26.512307 40.668261 26.560547 40.650391 C 27.29328 40.37892 28.062132 40.255142 28.824219 40.103516 C 29.268045 40.015267 29.709688 39.91917 30.144531 39.792969 C 30.244815 39.763951 30.277072 39.726585 30.257812 39.613281 C 30.180214 39.157666 29.918176 38.806656 29.626953 38.470703 C 29.342212 38.142211 29.085609 37.798739 29.011719 37.355469 C 28.997919 37.272379 28.992229 37.188317 28.980469 37.080078 z M 25.140625 41.412109 C 25.044994 41.436521 24.965606 41.489433 24.90625 41.570312 C 25.221086 41.605041 25.465476 41.780422 25.714844 41.945312 C 25.833278 42.023612 25.953168 42.097528 26.089844 42.142578 C 26.25467 42.197018 26.41687 42.197039 26.611328 42.105469 C 26.419926 41.967292 26.254365 41.843921 26.083984 41.726562 C 25.895453 41.596491 25.694791 41.484921 25.470703 41.425781 C 25.346436 41.392987 25.236256 41.387698 25.140625 41.412109 z M 15.117188 41.859375 C 15.193292 41.857532 15.269865 41.867021 15.345703 41.878906 C 15.5822 41.916122 15.80754 41.992472 16.033203 42.070312 C 16.509623 42.234839 16.990068 42.385049 17.523438 42.318359 C 17.4175 42.5037 17.431223 42.590633 17.589844 42.720703 C 17.825137 42.91369 18.105329 43.019894 18.390625 43.115234 C 18.450444 43.135224 18.519518 43.134973 18.580078 43.195312 C 18.384695 43.220372 18.207937 43.179135 18.033203 43.140625 C 17.520484 43.027504 17.012127 42.885634 16.576172 42.589844 C 16.324581 42.419057 16.078281 42.298713 15.775391 42.257812 C 15.456944 42.214794 15.177218 42.049529 14.890625 41.900391 C 14.96614 41.874136 15.041083 41.861218 15.117188 41.859375 z M 18.9375 42.09375 C 19.043061 42.103638 19.149935 42.126284 19.257812 42.158203 C 19.630337 42.268284 19.969179 42.454194 20.320312 42.613281 C 20.933871 42.891292 21.591075 43.036433 22.230469 43.236328 C 22.813193 43.418537 23.393497 43.609288 23.898438 43.966797 C 24.191698 44.174431 24.415736 44.43474 24.521484 44.785156 C 24.540464 44.84826 24.553731 44.900942 24.462891 44.919922 C 23.914614 45.03479 23.366257 45.080337 22.816406 44.933594 C 22.792606 44.927234 22.770781 44.911594 22.738281 44.896484 C 22.830509 44.79294 22.95437 44.780919 23.068359 44.755859 C 23.526445 44.654898 23.579233 44.512525 23.28125 44.152344 C 22.968451 43.774109 22.533811 43.607278 22.080078 43.476562 C 21.551987 43.324383 21.004257 43.25146 20.470703 43.123047 C 20.059102 43.023929 19.655434 42.904287 19.300781 42.662109 C 19.238369 42.619459 19.166913 42.623594 19.095703 42.621094 C 18.850594 42.612254 18.609232 42.659216 18.365234 42.666016 C 18.213002 42.670253 18.056657 42.679489 17.933594 42.5625 C 17.904054 42.534315 17.873556 42.497651 17.884766 42.457031 C 17.898004 42.409221 17.949671 42.417462 17.988281 42.414062 C 18.194406 42.395553 18.393451 42.441951 18.591797 42.488281 C 18.720694 42.518401 18.850384 42.547889 18.984375 42.537109 C 19.086974 42.52891 19.183305 42.506535 19.265625 42.421875 C 19.12043 42.290695 18.94531 42.299134 18.775391 42.302734 C 18.52806 42.307894 18.280835 42.344723 17.996094 42.320312 C 18.312295 42.13626 18.620817 42.064085 18.9375 42.09375 z M 19.574219 42.460938 C 19.512861 42.457218 19.449197 42.472838 19.380859 42.525391 C 19.611893 42.551184 19.770597 42.690976 19.949219 42.791016 C 20.081543 42.864986 20.212816 42.890554 20.34375 42.757812 C 20.118458 42.726768 19.942799 42.603225 19.751953 42.515625 C 19.693662 42.48891 19.635577 42.464657 19.574219 42.460938 z "
   id="path2" />
</svg>