<?xml version="1.0" encoding="UTF-8" standalone="no"?>
<!-- Generator: Adobe Illustrator 16.0.0, SVG Export Plug-In . SVG Version: 6.00 Build 0)  -->

<svg
   xmlns:dc="http://purl.org/dc/elements/1.1/"
   xmlns:cc="http://creativecommons.org/ns#"
   xmlns:rdf="http://www.w3.org/1999/02/22-rdf-syntax-ns#"
   xmlns:svg="http://www.w3.org/2000/svg"
   xmlns="http://www.w3.org/2000/svg"
   xmlns:sodipodi="http://sodipodi.sourceforge.net/DTD/sodipodi-0.dtd"
   xmlns:inkscape="http://www.inkscape.org/namespaces/inkscape"
   version="1.1"
   id="Layer_1"
   x="0px"
   y="0px"
   width="56.693px"
   height="56.693px"
   viewBox="0 0 56.693 56.693"
   enable-background="new 0 0 56.693 56.693"
   xml:space="preserve"
   sodipodi:docname="Carte_Decouverte.svg"
   inkscape:version="0.92.0 r15299"><metadata
   id="metadata17"><rdf:RDF><cc:Work
       rdf:about=""><dc:format>image/svg+xml</dc:format><dc:type
         rdf:resource="http://purl.org/dc/dcmitype/StillImage" /></cc:Work></rdf:RDF></metadata><defs
   id="defs15">
	
	
	
</defs><sodipodi:namedview
   pagecolor="#ffffff"
   bordercolor="#666666"
   borderopacity="1"
   objecttolerance="10"
   gridtolerance="10"
   guidetolerance="10"
   inkscape:pageopacity="0"
   inkscape:pageshadow="2"
   inkscape:window-width="1280"
   inkscape:window-height="961"
   id="namedview13"
   showgrid="false"
   inkscape:zoom="4.1627714"
   inkscape:cx="-3.8435933"
   inkscape:cy="28.3465"
   inkscape:window-x="1272"
   inkscape:window-y="-8"
   inkscape:window-maximized="1"
   inkscape:current-layer="Layer_1" />
<path
   d="M 28.851562 0.28515625 C 27.582562 0.27115625 26.317734 0.30667187 25.052734 0.38867188 C 24.253734 0.44067187 23.487672 0.60875 22.763672 0.96875 C 22.199672 1.24975 21.602234 1.4611875 20.990234 1.6171875 C 20.176234 1.8251875 19.385328 2.0949219 18.611328 2.4199219 C 17.555328 2.8629219 16.521047 3.3422656 15.623047 4.0722656 C 15.288047 4.3452656 14.908172 4.5332187 14.451172 4.5742188 C 13.800172 4.6322187 13.249422 4.9578906 12.732422 5.3378906 C 12.468422 5.5308906 12.256672 5.7781875 12.013672 5.9921875 C 11.810672 6.1711875 11.601031 6.3471094 11.332031 6.4121094 C 11.195031 6.4461094 11.070031 6.4942656 10.957031 6.5722656 C 9.7650312 7.3782656 8.7404062 8.3507812 7.9414062 9.5507812 C 7.3864063 10.382781 6.9386875 11.274813 6.4296875 12.132812 C 6.2606875 12.420813 6.0860937 12.706844 5.8710938 12.964844 C 5.6990937 13.171844 5.4957969 13.314844 5.2167969 13.339844 C 4.9557969 13.363844 4.7639531 13.505609 4.6269531 13.724609 C 4.5129531 13.905609 4.42375 14.098922 4.34375 14.294922 C 4.06075 14.990922 3.7115313 15.642766 3.2695312 16.259766 C 2.5705313 17.238766 2.08775 18.336516 1.71875 19.478516 C 1.48475 20.203516 1.4577656 20.9845 1.1347656 21.6875 C 0.61676562 23.6825 0.43820313 25.701906 0.65820312 27.753906 C 0.81220313 29.186906 1.0855469 30.593234 1.4355469 31.990234 C 1.6425469 32.812234 1.8778594 33.631656 2.0058594 34.472656 C 2.0848594 34.990656 2.1161875 35.50725 2.1171875 36.03125 C 2.1181875 36.32825 2.1625 36.623453 2.4375 36.814453 C 2.5695 36.904453 2.673625 37.019437 2.765625 37.148438 C 2.988625 37.462438 3.1656406 37.805969 3.3066406 38.167969 C 3.7816406 39.382969 4.2723281 40.591766 4.8613281 41.759766 C 5.4863281 42.999766 6.2898906 44.099391 7.3378906 45.025391 C 8.0768906 45.675391 8.8227969 46.318547 9.5917969 46.935547 C 10.154797 47.386547 10.755406 47.789187 11.316406 48.242188 C 12.087406 48.863188 12.744891 49.596719 13.337891 50.386719 C 13.843891 51.058719 14.478 51.560391 15.25 51.900391 C 16.913 52.634391 18.570375 53.380281 20.234375 54.113281 C 21.224375 54.549281 22.238906 54.926734 23.253906 55.302734 C 23.648906 55.448734 24.050562 55.612063 24.351562 55.914062 C 24.565562 56.127063 24.807844 56.243688 25.089844 56.304688 C 25.646844 56.427687 26.211391 56.431859 26.775391 56.380859 C 27.387391 56.329859 27.978672 56.201234 28.513672 55.865234 C 28.825672 55.670234 29.182734 55.567781 29.552734 55.550781 C 29.971734 55.529781 30.385063 55.471234 30.789062 55.365234 C 31.694063 55.131234 32.60325 54.908109 33.53125 54.787109 C 34.41425 54.670109 35.270797 54.461141 36.091797 54.119141 C 38.129797 53.275141 40.1165 52.324109 42.0625 51.287109 C 43.0715 50.746109 44.065516 50.178219 44.853516 49.324219 C 44.942516 49.226219 45.049687 49.138516 45.179688 49.103516 C 45.290687 49.072516 45.383656 49.019219 45.472656 48.949219 C 45.827656 48.676219 46.145891 48.362828 46.462891 48.048828 C 48.003891 46.507828 49.344578 44.800594 50.642578 43.058594 C 51.359578 42.095594 51.987016 41.082078 52.416016 39.955078 C 52.686016 39.250078 53.015562 38.570531 53.351562 37.894531 C 53.584562 37.427531 53.799219 36.951172 53.949219 36.451172 C 54.237219 35.498172 54.519016 34.544937 54.791016 33.585938 C 54.998016 32.855938 55.189516 32.118469 55.228516 31.355469 C 55.251516 30.906469 55.317469 30.464828 55.480469 30.048828 C 55.745469 29.380828 55.833312 28.6915 55.820312 28.0625 C 55.822313 27.1885 55.724844 26.404 55.589844 25.625 C 55.288844 23.906 54.813984 22.233609 54.208984 20.599609 C 52.973984 17.259609 51.309859 14.128453 49.505859 11.064453 C 49.187859 10.522453 48.773344 10.0725 48.277344 9.6875 C 47.750344 9.2745 47.206297 8.883 46.654297 8.5 C 45.965297 8.022 45.294109 7.52375 44.662109 6.96875 C 43.766109 6.18075 42.773641 5.5320625 41.681641 5.0390625 C 40.895641 4.6860625 40.1635 4.24125 39.4375 3.78125 C 38.1705 2.98225 36.860516 2.2813438 35.353516 2.0273438 C 34.783516 1.9313437 34.262187 1.6707344 33.742188 1.4277344 C 32.192187 0.70673437 30.570563 0.30315625 28.851562 0.28515625 z M 27.259766 3.1230469 C 27.585266 3.1194844 27.909828 3.1239687 28.236328 3.1367188 C 29.168328 3.1737187 30.092859 3.2754688 31.005859 3.4804688 C 31.669859 3.6304687 32.289391 3.8905938 32.900391 4.1835938 C 33.994391 4.7075938 35.133937 5.1381719 36.210938 5.7011719 C 36.797938 6.0081719 37.318437 6.4173281 37.898438 6.7363281 C 39.706437 7.7283281 41.337453 8.9689062 42.939453 10.253906 C 43.007453 10.308906 43.075578 10.362969 43.142578 10.417969 C 43.877578 9.8149688 44.753937 9.3895469 45.585938 9.3105469 C 45.604937 9.3095469 45.623578 9.3076406 45.642578 9.3066406 C 45.686578 9.3036406 45.761641 9.3027344 45.806641 9.3027344 C 45.835641 9.3027344 45.875297 9.3026875 45.904297 9.3046875 C 47.056297 9.3546875 48.074484 10.255344 48.271484 11.402344 C 48.463484 12.527344 48.014016 13.669953 47.041016 14.626953 C 47.502016 15.510953 47.916859 16.415422 48.255859 17.357422 C 48.366859 17.664422 48.406328 17.988781 48.486328 18.300781 C 48.577328 18.654781 48.684469 19.002859 48.980469 19.255859 C 49.105469 19.364859 49.1395 19.527547 49.1875 19.685547 C 49.3415 20.199547 49.559766 20.6905 49.759766 21.1875 C 50.120766 22.0885 50.526703 22.971625 50.845703 23.890625 C 51.096703 24.612625 51.154609 25.351469 51.099609 26.105469 C 51.009609 27.373469 50.902438 28.639297 50.773438 29.904297 C 50.686437 30.758297 50.59875 31.612938 50.46875 32.460938 L 51.111328 36.677734 C 51.209328 37.337734 50.973516 38.004078 50.478516 38.455078 C 50.106516 38.795078 49.625813 38.976562 49.132812 38.976562 C 48.971812 38.976562 48.808438 38.957969 48.648438 38.917969 L 48.146484 38.792969 C 48.033484 39.007969 47.929734 39.2285 47.802734 39.4375 C 48.005734 39.9705 47.983453 40.583188 47.689453 41.117188 C 47.437453 41.574188 47.026547 41.879344 46.560547 42.027344 C 46.282547 42.377344 45.877313 42.735937 45.320312 43.085938 C 44.467312 44.047938 43.572219 44.968969 42.574219 45.792969 C 42.349219 45.978969 42.108516 46.135344 41.853516 46.277344 C 41.499516 46.474344 41.178594 46.720016 40.933594 47.041016 C 40.496594 47.615016 39.949328 48.06575 39.361328 48.46875 C 38.171328 49.28475 36.907297 49.959063 35.529297 50.414062 C 34.444297 50.775062 33.328547 50.943219 32.185547 50.949219 C 31.620547 50.951219 31.056234 50.949219 30.490234 50.949219 C 29.522234 50.961219 28.556797 50.952719 27.591797 50.886719 C 27.408797 50.874719 27.227875 50.852125 27.046875 50.828125 C 27.006875 50.824125 26.959688 50.819875 26.929688 50.796875 C 26.579687 50.536875 26.158953 50.501922 25.751953 50.419922 C 24.207953 50.108922 22.677672 49.726531 21.138672 49.394531 C 20.143672 49.177531 19.254969 48.759937 18.417969 48.210938 C 17.399969 47.542938 16.344047 46.950828 15.248047 46.423828 C 14.923047 46.267828 14.608594 46.089625 14.308594 45.890625 C 14.014594 45.695625 13.747453 45.483016 13.564453 45.166016 C 13.428453 44.931016 13.232484 44.741312 13.021484 44.570312 C 11.594484 44.176313 10.385484 43.719609 9.5214844 43.224609 C 7.8094844 42.240609 7.4492188 41.152109 7.4492188 40.412109 C 7.4492188 39.984109 7.580625 39.438281 8.015625 38.863281 C 7.968625 38.747281 7.9226719 38.631813 7.8886719 38.507812 C 7.8006719 38.189813 7.6907344 37.879078 7.5527344 37.580078 C 7.4467344 37.350078 7.332625 37.125312 7.140625 36.945312 C 7.016625 36.830313 6.9311562 36.679766 6.9101562 36.509766 C 6.8561562 36.046766 6.705875 35.611641 6.546875 35.181641 C 6.086875 33.933641 5.7857656 32.642656 5.5097656 31.347656 C 5.2697656 30.216656 5.0693594 29.082547 4.9433594 27.935547 C 4.8543594 27.124547 4.8831875 26.317719 4.9921875 25.511719 C 5.2151875 23.868719 5.56675 22.255641 6.09375 20.681641 C 6.27175 20.148641 6.4722344 19.623953 6.7402344 19.126953 C 6.8172344 18.983953 6.9028125 18.844703 7.0078125 18.720703 C 7.3228125 18.345703 7.5704844 17.927422 7.7714844 17.482422 C 7.8844844 17.233422 7.9999688 16.986578 8.1679688 16.767578 C 8.2589688 16.649578 8.3562344 16.545656 8.4902344 16.472656 C 8.6132344 16.405656 8.6913906 16.289641 8.7753906 16.181641 C 8.8783906 16.047641 8.956875 15.896906 9.046875 15.753906 C 8.933875 15.252906 9.0068281 14.712047 9.2988281 14.248047 C 9.5758281 13.809047 9.99975 13.515672 10.46875 13.388672 C 11.03275 12.542672 11.64425 11.726688 12.28125 10.929688 C 13.06825 9.9456875 13.905172 9.0075312 14.826172 8.1445312 C 14.989172 7.9915313 15.159891 7.8469375 15.337891 7.7109375 C 15.631891 7.4869375 15.958078 7.3564063 16.330078 7.3164062 C 16.795078 7.2674062 17.207266 7.0920625 17.572266 6.7890625 C 18.514266 6.0070625 19.561297 5.3849375 20.654297 4.8359375 C 21.837297 4.2429375 23.057516 3.7383594 24.353516 3.4433594 C 25.312016 3.2251094 26.283266 3.1337344 27.259766 3.1230469 z M 45.816406 11.298828 C 45.801406 11.298828 45.788438 11.299781 45.773438 11.300781 C 44.629438 11.409781 42.975891 12.992797 43.587891 13.966797 C 43.882891 14.435797 44.758125 13.902266 45.203125 13.572266 C 45.481479 13.366779 45.773111 13.092409 45.988281 12.785156 C 45.989062 12.78636 45.989454 12.787858 45.990234 12.789062 C 45.993714 12.784109 45.994608 12.778408 45.998047 12.773438 C 46.076118 12.660508 46.12589 12.540126 46.177734 12.419922 C 46.199602 12.369369 46.237854 12.322888 46.253906 12.271484 C 46.269637 12.220886 46.275721 12.168383 46.285156 12.117188 C 46.292278 12.078679 46.305362 12.03873 46.308594 12 C 46.309659 11.986959 46.306038 11.973996 46.306641 11.960938 C 46.310067 11.88709 46.311335 11.812297 46.298828 11.738281 C 46.289828 11.685781 46.268344 11.632234 46.238281 11.582031 C 46.2088 11.532532 46.168651 11.485937 46.125 11.445312 C 46.125 11.445312 46.123047 11.443359 46.123047 11.443359 C 46.034047 11.361234 45.923906 11.303828 45.816406 11.298828 z M 40.757812 11.796875 C 40.036813 11.799875 38.410594 13.579328 38.558594 14.736328 C 38.616594 15.183328 39.193578 15.580922 39.642578 15.544922 C 40.288578 15.492922 40.767094 14.752484 40.996094 14.146484 C 41.270094 13.420484 41.605672 12.119312 40.888672 11.820312 C 40.847672 11.804313 40.802812 11.795875 40.757812 11.796875 z M 40.976562 16.736328 C 40.611562 16.734328 40.247625 16.772609 39.890625 16.849609 C 38.841625 17.076609 37.911 17.642734 37.5 18.302734 C 37.5 18.302734 37.498047 18.300781 37.498047 18.300781 C 37.500047 18.303781 37.505625 18.312469 37.515625 18.355469 C 37.537625 18.451469 37.621141 18.643094 37.744141 18.871094 C 37.988141 19.328094 38.456781 19.950891 38.300781 20.837891 C 38.091781 22.030891 37.204828 22.751953 36.548828 23.376953 C 36.506828 23.416953 36.469687 23.453188 36.429688 23.492188 C 36.447688 23.599187 36.460656 23.709312 36.472656 23.820312 C 36.549656 24.601312 36.489875 25.430484 36.171875 26.146484 C 36.247875 26.209484 36.322484 26.257156 36.396484 26.285156 C 36.968484 26.505156 38.042203 26.147609 38.783203 25.599609 C 39.256203 25.250609 39.594781 24.687563 39.925781 23.976562 C 40.255781 23.266562 40.56275 22.431156 41.09375 21.660156 C 41.28475 21.381156 41.498891 21.141828 41.712891 20.923828 C 41.487891 20.282828 41.419047 19.592641 41.623047 18.931641 C 41.829047 18.264641 42.252156 17.674547 42.785156 17.185547 C 42.771156 17.175547 42.759094 17.16425 42.746094 17.15625 C 42.295094 16.88525 41.657562 16.740328 40.976562 16.736328 z M 45.382812 17.560547 C 45.345813 17.560547 45.308484 17.562406 45.271484 17.566406 C 45.064484 17.591406 44.755219 17.705437 44.449219 17.898438 C 43.836219 18.283438 43.258719 19.004438 43.136719 19.398438 C 43.069719 19.618437 43.107875 20.201047 43.296875 20.623047 C 43.453875 20.972047 43.620703 21.101484 43.720703 21.146484 C 43.752703 21.088484 43.793797 21.017469 43.841797 20.855469 C 43.963797 20.438469 44.024406 19.820844 44.316406 19.214844 C 44.615406 18.593844 45.086609 18.142484 45.349609 17.771484 C 45.426609 17.663484 45.432844 17.632359 45.464844 17.568359 C 45.436844 17.563359 45.409813 17.561547 45.382812 17.560547 z M 31.888672 18.873047 L 26.712891 22.755859 C 27.093891 23.734859 27.619141 25.541016 27.619141 25.541016 L 26.753906 26.714844 L 25.765625 25.355469 L 24.978516 22.900391 L 23.863281 22.900391 L 21.289062 26.761719 L 21.808594 29.310547 L 18.566406 26.472656 L 10.396484 33.117188 L 11.34375 35.181641 L 15.755859 34.625 L 20.494141 31.867188 L 24.966797 32.587891 L 25.703125 32.697266 L 25.332031 32.386719 L 25.443359 31.910156 C 25.685359 30.880156 26.490078 29.918875 27.580078 28.796875 C 28.670078 27.674875 30.070828 26.488078 31.548828 25.455078 C 31.650828 25.384078 31.752469 25.313141 31.855469 25.244141 C 32.009469 24.501141 32.420609 23.81575 32.849609 23.21875 C 33.163609 22.78075 33.503328 22.401281 33.861328 22.113281 C 34.040328 21.969281 34.220312 21.846859 34.445312 21.755859 C 34.557313 21.710859 34.690797 21.667297 34.841797 21.654297 C 35.011797 21.639297 35.184797 21.668375 35.341797 21.734375 C 35.488797 21.796375 35.61275 21.875797 35.71875 21.966797 C 35.76575 21.921797 35.815375 21.873125 35.859375 21.828125 L 31.888672 18.873047 z M 34.78125 23.421875 C 34.59225 23.587875 34.355719 23.839531 34.136719 24.144531 C 33.656719 24.813531 33.354625 25.710391 33.390625 26.025391 C 33.390625 26.025391 33.392578 26.027344 33.392578 26.027344 C 33.397194 26.02909 33.416037 26.064468 33.474609 26.105469 C 33.557609 26.164469 33.691656 26.204078 33.722656 26.205078 C 33.987656 26.214078 34.561078 25.842109 34.705078 25.537109 C 34.848078 25.235109 34.949531 24.538609 34.894531 23.974609 C 34.876531 23.787609 34.83825 23.601875 34.78125 23.421875 z M 41.839844 25.728516 C 41.978844 26.395516 41.952797 27.14425 41.841797 27.90625 C 41.622797 29.40825 41.036109 31.094328 40.287109 32.736328 C 39.980109 33.405328 39.649922 34.062031 39.294922 34.707031 L 41.101562 34.974609 L 49.132812 36.978516 L 49.132812 36.976562 L 49.107422 36.814453 L 49.080078 36.634766 L 48.382812 32.058594 L 46.490234 28.810547 L 44.429688 29.496094 L 43.007812 32.03125 L 43.810547 28.199219 L 45.671875 27.402344 L 45.429688 26.984375 L 41.839844 25.728516 z M 40.316406 26.328125 C 40.141406 26.522125 39.947656 26.706094 39.722656 26.871094 C 38.727656 27.607094 37.269172 28.318672 35.826172 27.763672 C 35.578172 27.667672 35.345813 27.537906 35.132812 27.378906 C 34.713813 27.650906 34.213922 27.806062 33.669922 27.789062 C 33.249922 27.775063 32.884594 27.631391 32.558594 27.400391 C 32.404594 27.291391 32.254906 27.156188 32.128906 26.992188 C 30.854906 27.912188 29.644797 28.950297 28.716797 29.904297 C 27.985797 30.656297 27.450688 31.396187 27.179688 31.867188 L 29.222656 33.570312 C 29.834656 32.967312 30.715187 32.204375 31.617188 31.484375 C 32.229187 30.996375 32.831656 30.547563 33.347656 30.226562 C 33.605656 30.066562 33.835031 29.936797 34.082031 29.841797 C 34.205031 29.794797 34.333813 29.752281 34.507812 29.738281 C 34.682812 29.724281 34.955031 29.738266 35.207031 29.947266 C 35.458031 30.157266 35.523016 30.426609 35.541016 30.599609 C 35.559016 30.772609 35.540578 30.906156 35.517578 31.035156 C 35.469578 31.295156 35.382484 31.546125 35.271484 31.828125 C 35.047484 32.394125 34.716703 33.065812 34.345703 33.757812 C 33.800703 34.773812 33.210516 35.780234 32.728516 36.490234 L 34.773438 38.191406 C 35.187438 37.839406 35.818781 37.179219 36.425781 36.324219 C 37.261781 35.147219 38.138703 33.627125 38.845703 32.078125 C 39.552703 30.529125 40.088438 28.943687 40.273438 27.679688 C 40.352438 27.146688 40.359406 26.696125 40.316406 26.328125 z M 33.414062 32.103516 C 33.141062 32.304516 32.872422 32.510656 32.607422 32.722656 C 31.550422 33.566656 30.496844 34.542656 30.089844 34.972656 C 30.114844 35.402656 30.203109 35.685344 30.287109 35.777344 C 30.376109 35.874344 30.582406 35.980578 31.191406 35.892578 C 31.540406 35.415578 32.311172 34.200812 32.951172 33.007812 C 33.112172 32.708813 33.266063 32.408516 33.414062 32.103516 z M 29.390625 35.769531 L 22.509766 44.03125 C 23.116766 44.07025 23.737047 44.100047 24.373047 44.123047 L 30.537109 36.724609 L 29.390625 35.769531 z M 26.572266 36.677734 C 25.238266 36.690734 23.940313 36.739406 22.695312 36.816406 L 21.621094 38.210938 L 21.193359 36.929688 C 19.335359 37.087688 17.620562 37.317609 16.101562 37.599609 L 15.984375 41.794922 L 14.962891 37.828125 C 14.743891 37.876125 14.525641 37.926516 14.306641 37.978516 C 12.663641 38.377516 11.351625 38.856938 10.515625 39.335938 C 9.679625 39.815937 9.4472656 40.228109 9.4472656 40.412109 C 9.4472656 40.596109 9.679625 41.008281 10.515625 41.488281 C 11.351625 41.967281 12.662641 42.447703 14.306641 42.845703 C 16.066641 43.273703 18.210516 43.615797 20.603516 43.841797 L 26.572266 36.677734 z M 37.578125 37.435547 C 36.729125 38.613547 35.961969 39.505203 35.042969 39.908203 L 34.595703 40.103516 L 31.753906 37.738281 L 26.417969 44.144531 C 26.713969 44.148531 27.010547 44.150391 27.310547 44.150391 C 32.410547 44.150391 37.029406 43.643703 40.316406 42.845703 C 41.959406 42.447703 43.270422 41.969234 44.107422 41.490234 C 44.942422 41.010234 45.173828 40.596109 45.173828 40.412109 C 45.173828 40.228109 44.942422 39.816891 44.107422 39.337891 C 43.270422 38.858891 41.959406 38.379469 40.316406 37.980469 C 40.213406 37.956469 40.105 37.93025 40 37.90625 L 38.751953 42.363281 L 38.601562 37.615234 C 38.261563 37.550234 37.920125 37.491547 37.578125 37.435547 z "
   id="path2" />

</svg>