<?xml version="1.0" encoding="UTF-8" standalone="no"?>
<!-- Generator: Adobe Illustrator 16.0.0, SVG Export Plug-In . SVG Version: 6.00 Build 0)  -->

<svg
   xmlns:dc="http://purl.org/dc/elements/1.1/"
   xmlns:cc="http://creativecommons.org/ns#"
   xmlns:rdf="http://www.w3.org/1999/02/22-rdf-syntax-ns#"
   xmlns:svg="http://www.w3.org/2000/svg"
   xmlns="http://www.w3.org/2000/svg"
   xmlns:sodipodi="http://sodipodi.sourceforge.net/DTD/sodipodi-0.dtd"
   xmlns:inkscape="http://www.inkscape.org/namespaces/inkscape"
   version="1.1"
   id="Layer_1"
   x="0px"
   y="0px"
   width="56.693px"
   height="56.693px"
   viewBox="-7.087 -7.087 56.693 56.693"
   enable-background="new -7.087 -7.087 56.693 56.693"
   xml:space="preserve"
   sodipodi:docname="Carte_Region.svg"
   inkscape:version="0.92.0 r15299"><metadata
   id="metadata13"><rdf:RDF><cc:Work
       rdf:about=""><dc:format>image/svg+xml</dc:format><dc:type
         rdf:resource="http://purl.org/dc/dcmitype/StillImage" /><dc:title></dc:title></cc:Work></rdf:RDF></metadata><defs
   id="defs11" /><sodipodi:namedview
   pagecolor="#ffffff"
   bordercolor="#666666"
   borderopacity="1"
   objecttolerance="10"
   gridtolerance="10"
   guidetolerance="10"
   inkscape:pageopacity="0"
   inkscape:pageshadow="2"
   inkscape:window-width="711"
   inkscape:window-height="480"
   id="namedview9"
   showgrid="false"
   inkscape:zoom="4.1627714"
   inkscape:cx="28.3465"
   inkscape:cy="28.3465"
   inkscape:window-x="1447"
   inkscape:window-y="194"
   inkscape:window-maximized="0"
   inkscape:current-layer="Layer_1"
   showguides="false" />
<path
   fill="#BD0926"
   d="M32.038,40.257c-0.073,0-0.146-0.024-0.205-0.068c-0.505-0.38-1.209-0.564-2.152-0.564  c-0.956,0-2.007,0.185-3.023,0.363c-0.181,0.032-0.36,0.063-0.536,0.094c-0.103,0.018-0.21,0.026-0.321,0.026  c-0.448,0-0.911-0.141-1.359-0.276c-0.379-0.115-0.771-0.233-1.132-0.258c-0.63-0.043-1.225,0.109-1.803,0.256  c-0.455,0.116-0.926,0.235-1.402,0.257c-0.032,0-0.064-0.002-0.096-0.01c-0.46-0.113-0.593-0.409-0.654-0.58  c-0.039,0.01-0.094,0.027-0.168,0.056c-0.101,0.038-0.214,0.026-0.305-0.031c-0.091-0.059-0.149-0.156-0.157-0.264  c-0.001-0.012-0.001-0.023-0.001-0.034c-0.012,0.036-0.009,0.079-0.001,0.14c0.022,0.186-0.108,0.354-0.293,0.379  c-1.056,0.144-2.087,0.205-3.451,0.205c-0.514,0-1.027-0.009-1.571-0.017c-0.792-0.013-1.621-0.026-2.531-0.015  c-0.132,0-0.244-0.066-0.304-0.178c-0.061-0.11-0.055-0.246,0.015-0.352c0.057-0.086,0.082-0.141,0.094-0.172  c-0.028-0.02-0.069-0.043-0.099-0.061c-0.135-0.078-0.334-0.194-0.458-0.411c-0.018,0.066,0,0.114,0.021,0.152  c0.053,0.094,0.058,0.207,0.015,0.306c-0.043,0.098-0.131,0.17-0.235,0.194c-0.756,0.175-1.6,0.275-2.315,0.275  c-0.573,0-1.042-0.063-1.401-0.188c-0.032,0.191-0.17,0.313-0.276,0.38c-0.054,0.034-0.118,0.053-0.182,0.053H4.554  c-0.098,0-0.191-0.042-0.256-0.115c-0.064-0.073-0.095-0.171-0.083-0.268c0.029-0.233-0.016-0.295-0.016-0.296  c0,0-0.01-0.004-0.033-0.007c-0.165-0.022-0.29-0.161-0.295-0.327c-0.006-0.166,0.109-0.312,0.272-0.346  c0.232-0.048,0.276-0.107,0.276-0.107c0.013-0.028-0.008-0.147-0.019-0.211c-0.033-0.192-0.079-0.455,0.09-0.694  c0.014-0.019,0.028-0.037,0.043-0.055c-0.098,0.003-0.165,0.021-0.196,0.035c-0.055,0.096-0.154,0.16-0.266,0.17  c-0.13,0.012-0.255-0.052-0.322-0.163c-0.498-0.824-0.513-1.403-0.538-2.362c-0.005-0.209-0.012-0.44-0.023-0.701  c-0.005-0.116,0.049-0.227,0.144-0.294c0.095-0.067,0.217-0.081,0.325-0.038c0.105,0.043,0.2,0.064,0.28,0.064  c0.289,0,0.473-0.322,0.742-0.852c0.032-0.062,0.063-0.126,0.097-0.188c-0.293,0.343-0.66,0.747-1.227,0.779  c-0.109,0.006-0.213-0.039-0.282-0.123c-0.069-0.083-0.095-0.195-0.068-0.3c0.074-0.299,0.117-0.646,0.162-1.012  c0.105-0.858,0.224-1.823,0.79-2.681c-0.695-1.301-0.449-2.689-0.21-4.035c0.239-1.347,0.465-2.62-0.196-3.803  c-0.059-0.104-0.058-0.232,0.001-0.336c0.19-0.334,0.488-0.537,0.75-0.718c0.185-0.127,0.353-0.242,0.47-0.388  c-0.14-0.088-0.301-0.165-0.468-0.245c-0.151-0.072-0.307-0.146-0.457-0.234c-0.125-0.073-0.191-0.218-0.163-0.36  c0.23-1.162,0.4-2.024,0.224-3.164c-0.014,0-0.027,0.001-0.041,0.001C3.953,16.543,3.854,16.5,3.787,16.42  c-0.067-0.081-0.094-0.188-0.071-0.291c0.419-1.933,0.215-4.086,0.052-5.816C3.701,9.612,3.639,8.95,3.624,8.383  C3.623,8.341,3.629,8.298,3.644,8.259c0.118-0.329,0.424-0.434,0.627-0.503c0.069-0.024,0.184-0.063,0.207-0.09  c0.001-0.008,0.003-0.029,0.005-0.038C4.489,7.596,4.47,7.53,4.413,7.462C4.358,7.396,4.296,7.36,4.262,7.349  c-0.078,0.124-0.229,0.19-0.371,0.157C3.741,7.47,3.63,7.346,3.624,7.193C3.606,6.752,3.765,6.156,3.918,5.58  c0.113-0.426,0.242-0.909,0.22-1.093C4.118,4.312,4.234,4.151,4.406,4.114c0.098-0.021,0.19-0.031,0.276-0.031  c0.455,0,0.66,0.277,0.78,0.519C5.66,4.51,5.874,4.471,6.051,4.439c0.048-0.008,0.108-0.019,0.16-0.03  c-0.041-0.097-0.035-0.208,0.018-0.3c0.057-0.102,0.162-0.167,0.278-0.173C6.888,3.915,7.28,3.891,7.68,3.867  c1.562-0.094,3.177-0.191,4.805-0.191c0.893,0,1.689,0.029,2.434,0.09c0.583,0.047,1.214,0.185,1.826,0.317  c0.761,0.166,1.548,0.337,2.244,0.337c0.719,0,1.241-0.178,1.642-0.561c0.093-0.089,0.228-0.118,0.349-0.075  c0.191,0.067,0.316,0.175,0.37,0.322c0.045,0.119,0.031,0.229,0.001,0.32c0.11-0.046,0.184-0.15,0.3-0.326  c0.045-0.068,0.091-0.137,0.141-0.201c0.062-0.082,0.158-0.131,0.261-0.134c0.258-0.008,0.525-0.012,0.795-0.012  c1.692,0,3.344,0.148,5.092,0.305c0.871,0.078,1.772,0.159,2.682,0.22c0.082,0.005,0.158,0.041,0.217,0.097  c0.014,0.002,0.028,0.005,0.043,0.007c0.146,0.024,0.446,0.075,0.625,0.382c0.26-0.045,0.507-0.141,0.748-0.234  c0.277-0.107,0.564-0.218,0.868-0.251c0.104-0.011,0.21-0.017,0.318-0.017c0.463,0,0.887,0.101,1.295,0.198  c0.344,0.082,0.668,0.159,0.963,0.159h0.018c0.152-0.002,0.306-0.015,0.454-0.028c0.162-0.015,0.329-0.029,0.499-0.029  c0.351,0,0.816,0.054,1.319,0.479c0.064,0.054,0.106,0.13,0.118,0.214c0.075,0.538-0.173,0.819-0.337,1.006  c-0.054,0.061-0.095,0.107-0.123,0.153c0.436,0.535,0.436,1.26,0.436,1.908c0,0.233,0.001,0.454,0.021,0.651  c0.007,0.027,0.011,0.056,0.011,0.085c0,0.188-0.153,0.341-0.342,0.341c-0.001,0-0.002,0-0.003,0h-0.105  c0.021,0.16,0.032,0.303,0.042,0.429c0.039,0.477,0.051,0.622,0.396,0.807c0.085,0.045,0.146,0.125,0.17,0.218  c0.023,0.094,0.006,0.193-0.048,0.273c-0.16,0.237-0.136,0.792-0.114,1.282c0.014,0.32,0.028,0.652,0,0.95  c-0.015,0.149-0.123,0.271-0.27,0.302c-0.789,0.168-1.241,0.764-1.205,1.101c0.029,0.278,0.428,0.444,1.065,0.444l0.063,0  c0.099-0.001,0.188,0.037,0.254,0.106c0.065,0.07,0.1,0.164,0.093,0.259c-0.018,0.248-0.009,0.539,0.001,0.819  c0.008,0.232,0.016,0.471,0.01,0.699c-0.004,0.149-0.105,0.279-0.249,0.319c-0.029,0.008-0.058,0.016-0.087,0.023  c-0.055,0.622,0.084,1.068,0.197,1.435c0.109,0.354,0.212,0.688,0.025,0.996c-0.034,0.056-0.074,0.105-0.123,0.152  c0.01,0.009,0.02,0.018,0.029,0.027c0.063,0.062,0.101,0.148,0.103,0.238c0.015,0.815,0.166,2.767,0.338,4.058  c0.013,0.093-0.014,0.186-0.071,0.259c-0.143,0.178-0.341,0.269-0.5,0.342c-0.11,0.051-0.179,0.086-0.22,0.118  c0.02-0.008,0.038-0.015,0.055-0.021c0.116-0.044,0.248-0.094,0.39-0.094c0.22,0,0.398,0.119,0.491,0.325  c0.018,0.039,0.027,0.081,0.029,0.124c0.015,0.332,0.012,0.729,0.008,1.148c-0.008,0.915-0.017,1.952,0.155,2.72  c0.014,0.062,0.01,0.128-0.012,0.188c-0.063,0.179-0.164,0.318-0.296,0.415c0.298,0.521,0.306,0.969,0.315,1.979  c0.002,0.018,0.003,0.034,0.003,0.052c0,0.188-0.152,0.342-0.341,0.342c-0.001-0.001-0.002-0.001-0.004,0  c-0.009,0-0.018-0.001-0.026-0.001c-0.052-0.004-0.101-0.006-0.147-0.006c-0.604,0-0.746,0.307-0.823,0.955  c0.205,0.046,0.431,0.056,1.01,0.076c0.153,0.005,0.284,0.112,0.319,0.262c0.321,1.341-0.097,2.33-0.501,3.287  c-0.343,0.812-0.668,1.58-0.518,2.544c0.016,0.101-0.015,0.204-0.083,0.28c-0.067,0.076-0.167,0.117-0.269,0.113  c-0.274-0.012-0.542-0.018-0.798-0.018c-1.351,0-2.257,0.158-3.307,0.341c-0.355,0.062-0.724,0.126-1.123,0.186  C32.072,40.256,32.056,40.257,32.038,40.257z M29.681,38.942c1.029,0,1.83,0.201,2.443,0.615c0.34-0.053,0.66-0.108,0.971-0.162  c1.035-0.181,2.015-0.351,3.424-0.351c0.142,0,0.286,0.001,0.433,0.005c-0.047-0.964,0.284-1.748,0.605-2.508  c0.349-0.827,0.681-1.61,0.518-2.61c-0.588-0.022-0.802-0.045-1.195-0.18c-0.15-0.051-0.245-0.199-0.229-0.356l0.008-0.085  c0.057-0.59,0.159-1.667,1.353-1.76c-0.012-0.957-0.052-1.164-0.438-1.67c-0.08-0.105-0.093-0.246-0.032-0.363  s0.183-0.191,0.314-0.186c0,0,0.001,0,0.002,0c0.078,0,0.116-0.01,0.142-0.041c-0.163-0.825-0.154-1.85-0.146-2.759  c0.003-0.306,0.005-0.599,0-0.857c-0.124,0.047-0.266,0.099-0.423,0.099c-0.15,0-0.425-0.052-0.58-0.4  c-0.017-0.038-0.026-0.08-0.029-0.122c-0.029-0.61,0.413-0.813,0.677-0.935c0.054-0.025,0.109-0.051,0.156-0.076  c-0.149-1.174-0.274-2.731-0.312-3.636c-0.099,0.059-0.229,0.126-0.387,0.126c-0.247,0-0.451-0.155-0.608-0.461  c-0.05-0.096-0.051-0.21-0.003-0.307c0.048-0.098,0.139-0.166,0.245-0.186c0.716-0.129,0.82-0.249,0.834-0.271  c0.027-0.046-0.046-0.283-0.095-0.44c-0.131-0.425-0.329-1.067-0.191-1.964c0.022-0.14,0.126-0.251,0.264-0.281  c0.013-0.003,0.025-0.006,0.038-0.009c-0.001-0.132-0.006-0.268-0.011-0.4c-0.006-0.177-0.012-0.357-0.012-0.534  c-1.223-0.088-1.431-0.75-1.462-1.046c-0.074-0.713,0.587-1.479,1.486-1.771c0.004-0.197-0.005-0.412-0.015-0.623  c-0.021-0.484-0.043-0.981,0.082-1.378c-0.415-0.334-0.448-0.746-0.483-1.176c-0.017-0.216-0.037-0.462-0.102-0.751  c-0.022-0.102,0.002-0.207,0.067-0.288c0.064-0.081,0.162-0.127,0.266-0.127h0.147c-0.004-0.131-0.004-0.264-0.004-0.395  c0-0.634-0.001-1.232-0.373-1.573c-0.085-0.077-0.125-0.192-0.107-0.305c0.048-0.305,0.216-0.496,0.338-0.635  c0.11-0.125,0.174-0.197,0.181-0.333c-0.285-0.202-0.537-0.232-0.769-0.232c-0.14,0-0.285,0.013-0.439,0.026  c-0.161,0.015-0.328,0.029-0.506,0.031h-0.025c-0.375,0-0.754-0.09-1.12-0.177c-0.371-0.088-0.755-0.18-1.138-0.18  c-0.083,0-0.166,0.004-0.244,0.013c-0.215,0.023-0.448,0.114-0.695,0.209c-0.349,0.135-0.743,0.288-1.207,0.305  c-0.164,0.004-0.312-0.108-0.347-0.271c-0.025-0.12-0.025-0.12-0.18-0.146c-0.083-0.014-0.203-0.034-0.311-0.104  c-0.877-0.061-1.741-0.138-2.578-0.213c-0.61-0.055-1.209-0.108-1.801-0.155c0.057,0.117,0.085,0.247,0.082,0.384  c-0.004,0.186-0.156,0.334-0.342,0.334H24.28c-0.188,0-0.342-0.153-0.342-0.341V4.456c-0.567-0.02-1.145-0.025-1.697-0.013  c-0.008,0.012-0.015,0.023-0.022,0.034c-0.185,0.279-0.438,0.662-1.044,0.662c-0.056,0-0.114-0.003-0.178-0.011  c-0.043-0.005-0.085-0.018-0.124-0.039c-0.156-0.085-0.255-0.2-0.295-0.341c-0.001-0.002-0.001-0.005-0.002-0.007  c-0.44,0.243-0.964,0.362-1.587,0.363c-0.77,0-1.593-0.179-2.389-0.353C15.982,4.616,15.4,4.49,14.863,4.447  c-0.726-0.059-1.504-0.087-2.379-0.087c-1.607,0-3.212,0.096-4.764,0.189C7.454,4.565,7.19,4.581,6.931,4.596  C6.922,4.644,6.908,4.69,6.887,4.734c-0.134,0.274-0.443,0.33-0.716,0.378C5.951,5.151,5.703,5.195,5.61,5.327  C5.543,5.421,5.433,5.475,5.319,5.471c-0.115-0.004-0.221-0.066-0.28-0.165C4.983,5.215,4.942,5.118,4.906,5.032  c-0.048-0.115-0.081-0.18-0.108-0.218c-0.041,0.268-0.126,0.59-0.22,0.941c-0.081,0.303-0.167,0.63-0.221,0.916  c0.211,0.035,0.422,0.162,0.582,0.354c0.18,0.216,0.259,0.477,0.218,0.715C5.1,8.194,4.72,8.324,4.492,8.402  C4.438,8.42,4.354,8.449,4.31,8.473c0.019,0.521,0.077,1.131,0.138,1.775c0.157,1.66,0.35,3.699,0.015,5.62  c0.13,0.029,0.234,0.133,0.261,0.268c0.26,1.319,0.102,2.288-0.126,3.454c0.063,0.031,0.128,0.062,0.195,0.094  c0.295,0.142,0.6,0.287,0.85,0.521c0.101,0.094,0.135,0.239,0.086,0.369c-0.173,0.459-0.53,0.704-0.846,0.921  c-0.165,0.113-0.323,0.223-0.44,0.353c0.616,1.259,0.434,2.561,0.211,3.828c0.004-0.004,0.008-0.008,0.012-0.012  c0.076-0.069,0.179-0.101,0.28-0.085c0.115,0.017,0.305,0.014,0.489,0.007c0.095-0.004,0.19-0.007,0.283-0.007  c0.312,0,0.661,0.035,0.886,0.299c0.161,0.188,0.216,0.447,0.166,0.773c-0.027,0.174-0.181,0.295-0.355,0.289  c-0.073-0.004-0.147-0.007-0.221-0.009c-0.59-0.022-1.461-0.054-1.617-0.821c-0.224,1.272-0.395,2.475,0.269,3.554  c0.073,0.12,0.066,0.272-0.019,0.385c-0.569,0.756-0.681,1.662-0.789,2.539c-0.018,0.145-0.035,0.286-0.054,0.424  c0.104-0.098,0.205-0.216,0.308-0.336c0.299-0.351,0.637-0.747,1.171-0.747c0.199,0,0.408,0.06,0.621,0.176  c0.12,0.065,0.189,0.197,0.176,0.334c-0.014,0.136-0.108,0.251-0.239,0.292c-0.31,0.096-0.525,0.519-0.732,0.928  c-0.292,0.574-0.622,1.225-1.351,1.225c-0.017,0-0.033,0-0.05-0.001c0.003,0.094,0.005,0.184,0.007,0.27  c0.021,0.777,0.032,1.202,0.269,1.71c0.118-0.036,0.254-0.056,0.406-0.056c0.142,0,0.623,0.023,0.874,0.317  c0.111,0.13,0.157,0.292,0.131,0.456c-0.023,0.145-0.136,0.259-0.281,0.283c-0.2,0.033-0.246,0.078-0.247,0.079  c-0.001,0.018,0.016,0.114,0.027,0.179c0.035,0.199,0.104,0.595-0.236,0.869c0.028,0.069,0.049,0.149,0.06,0.243H5.46  c-0.021-0.087-0.022-0.195,0.046-0.306c0.13-0.208,0.388-0.208,0.499-0.208c0.03,0,0.063,0,0.1,0.002  c0.051,0.002,0.102,0.016,0.147,0.04c0.27,0.146,0.751,0.226,1.356,0.226c0.562,0,1.21-0.066,1.824-0.186  c-0.001-0.165,0.045-0.332,0.14-0.492c0.285-0.485,0.993-0.865,1.612-0.865c0.203,0,0.382,0.041,0.533,0.124  c0.139,0.075,0.207,0.236,0.166,0.389c-0.041,0.152-0.184,0.259-0.339,0.252c0,0-0.001,0-0.001,0c-0.156,0-0.197,0.052-0.308,0.216  c-0.043,0.064-0.1,0.148-0.177,0.223c0.125,0.085,0.252,0.203,0.297,0.396c0.015,0.062,0.018,0.125,0.014,0.186  c0.725-0.002,1.399,0.008,2.047,0.018c0.541,0.009,1.051,0.017,1.56,0.017c1.208,0,2.146-0.048,3.075-0.161  c0.089-0.455,0.495-0.615,0.732-0.71c0.099-0.039,0.192-0.076,0.252-0.119c0.098-0.071,0.227-0.084,0.337-0.035  c0.11,0.048,0.188,0.152,0.202,0.271c0.014,0.117,0.005,0.216-0.015,0.299c0.3,0.057,0.391,0.322,0.427,0.429  c0.035,0.102,0.046,0.136,0.139,0.164c0.39-0.023,0.79-0.126,1.213-0.233c0.628-0.159,1.285-0.325,2.018-0.275  c0.438,0.03,0.867,0.16,1.283,0.286c0.419,0.127,0.814,0.247,1.161,0.247c0.072,0,0.143-0.006,0.206-0.017  c0.176-0.03,0.354-0.062,0.533-0.093C27.584,39.132,28.665,38.942,29.681,38.942z M24.868,39.062h-0.341  c-0.188,0-0.342-0.153-0.342-0.341v-0.342c0-0.188,0.153-0.342,0.342-0.342h0.341c0.189,0,0.342,0.153,0.342,0.342v0.342  C25.21,38.908,25.058,39.062,24.868,39.062z M20.377,38.923c-0.388,0-0.53-0.237-0.572-0.339c-0.102-0.242-0.02-0.551,0.21-0.785  c0.093-0.095,0.232-0.128,0.357-0.083c0.38,0.134,0.582,0.434,0.569,0.845c-0.005,0.152-0.11,0.283-0.258,0.32  C20.573,38.908,20.47,38.923,20.377,38.923z M12.67,38.753c-0.105,0-0.217-0.014-0.34-0.041c-0.155-0.035-0.266-0.174-0.266-0.333  v-0.854c0-0.154,0.104-0.29,0.253-0.33c0.087-0.023,0.172-0.035,0.251-0.035c0.345,0,0.527,0.216,0.625,0.332  c0.009,0.012,0.02,0.024,0.03,0.035c0.106-0.015,0.21,0.022,0.286,0.101c0.086,0.088,0.112,0.216,0.078,0.334  C13.531,38.158,13.357,38.753,12.67,38.753z M17.711,38.22c-0.07,0-0.145-0.005-0.225-0.015c-0.13-0.016-0.24-0.105-0.282-0.23  c-0.079-0.235-0.064-0.431,0.044-0.581c0.159-0.221,0.434-0.221,0.524-0.221c0.062,0,0.129,0.004,0.196,0.009  c0.069,0.005,0.141,0.012,0.199,0.005c0.106-0.013,0.211,0.023,0.286,0.099s0.11,0.181,0.096,0.286  C18.522,37.767,18.387,38.22,17.711,38.22z M35.403,12.471l-0.038,0c-0.156-0.005-0.289-0.115-0.322-0.268  c-0.045-0.207-0.015-0.381,0.091-0.517c0.169-0.218,0.443-0.228,0.644-0.234c0.031-0.001,0.062-0.002,0.091-0.004  c0.117-0.008,0.225,0.044,0.293,0.135c0.069,0.092,0.088,0.212,0.049,0.32C36.08,12.269,35.793,12.471,35.403,12.471z   M30.046,28.246h-0.237v3.208c-0.05,0.188-0.392,0.333-0.745,0.333c-0.354,0-0.645-0.146-0.693-0.333v-3.208h-0.299l0.987-1.71  L30.046,28.246z M24.111,30.695l-0.987,1.71h0.299v3.208c0.049,0.188,0.339,0.333,0.693,0.333c0.036,0,0.072-0.002,0.108-0.005  c-0.026-0.043-0.043-0.092-0.048-0.143c-0.002-0.02-0.008-0.078-0.006-2.296c0-0.135,0.081-0.256,0.206-0.308  c0.041-0.016,0.083-0.023,0.125-0.023c0.088,0,0.173,0.034,0.237,0.099c0.036,0.037,0.078,0.074,0.122,0.113v-0.979h0.237  L24.111,30.695z M33.868,30.695l-0.987,1.71h0.298v0.994c0.083-0.069,0.159-0.139,0.22-0.209c0.003-0.003,0.006-0.006,0.008-0.009  l0,0l0,0c0.014-0.015,0.028-0.027,0.043-0.038c0.051-0.039,0.112-0.063,0.18-0.067c0.007,0,0.014,0,0.021,0c0.002,0,0.003,0,0.004,0  c0.183,0.001,0.329,0.149,0.329,0.331c0,0.008-0.001,0.017-0.001,0.024c-0.001,0.239-0.004,2.039-0.008,2.285  c-0.001,0.088-0.039,0.169-0.101,0.229c0.354,0,0.695-0.146,0.745-0.333v-3.208h0.237L33.868,30.695z M24.409,30.548l0.922,1.597  c0.681-0.367,1.604-0.652,2.707-0.762v-1.994C26.564,29.523,25.296,29.946,24.409,30.548z M33.581,30.53  c0.008-0.014,0.019-0.024,0.027-0.036c-0.866-0.562-2.072-0.96-3.468-1.097v1.994c1.018,0.109,1.882,0.369,2.536,0.704L33.581,30.53  z M30.108,33.873h-1.022h-0.055h-1.022l-0.553,0.885h0.415v2.265h0.906v-0.604c0,0,0,0,0-0.001c0-0.112,0.126-0.204,0.281-0.204  c0.156,0,0.282,0.092,0.282,0.204c0,0.001,0,0.001,0,0.001l0,0v0.604h0.796v-2.265h0.524L30.108,33.873z M30.951,34.918  c-0.059,0.105-0.169,0.171-0.29,0.171h-0.193v1.702c1.274-0.165,2.379-0.547,3.175-1.081c0.004-0.259,0.007-2.304,0.007-2.304  c-0.476,0.545-1.415,1.036-2.664,1.296C30.997,34.776,30.988,34.852,30.951,34.918z M27.539,35.089h-0.083  c-0.12,0-0.231-0.065-0.29-0.171c-0.035-0.063-0.045-0.136-0.035-0.205c-0.004-0.001-0.007-0.002-0.011-0.002  c-0.136-0.028-0.268-0.059-0.396-0.092c-0.019-0.005-0.038-0.01-0.057-0.015c-0.268-0.07-0.519-0.151-0.75-0.241  c-0.014-0.006-0.026-0.011-0.04-0.017c-0.099-0.039-0.193-0.08-0.284-0.122c-0.021-0.009-0.043-0.019-0.063-0.029  c-0.099-0.047-0.194-0.095-0.283-0.145c-0.003-0.002-0.005-0.003-0.008-0.005c-0.092-0.051-0.177-0.104-0.259-0.158  c-0.02-0.014-0.039-0.027-0.059-0.041c-0.061-0.042-0.117-0.084-0.171-0.127c-0.021-0.016-0.041-0.031-0.06-0.048  c-0.067-0.056-0.131-0.112-0.188-0.17c0,0-0.002,2.202,0.005,2.264c0.119,0.076,0.248,0.147,0.38,0.217  c0.043,0.022,0.088,0.045,0.133,0.066c0.093,0.047,0.189,0.091,0.287,0.133c0.054,0.023,0.106,0.047,0.162,0.069  c0.129,0.052,0.263,0.102,0.399,0.147c0.09,0.03,0.183,0.058,0.275,0.085c0.058,0.017,0.115,0.034,0.175,0.051  c0.108,0.029,0.218,0.058,0.33,0.084c0.025,0.006,0.052,0.011,0.077,0.017c0.262,0.059,0.533,0.108,0.813,0.146V35.089z   M7.31,23.651c0.076,0.024,0.158,0.037,0.242,0.037c0.437,0,0.79-0.354,0.79-0.79c0-0.218-0.088-0.416-0.232-0.559  c0.153-0.144,0.359-0.231,0.585-0.231c0.155,0,0.3,0.042,0.425,0.114c0.174-0.185,0.421-0.3,0.695-0.3  c0.499,0,0.908,0.382,0.952,0.869c0.36,0.058,0.635,0.369,0.635,0.745c0,0.164-0.053,0.314-0.141,0.438  c-0.021-0.004-0.042-0.007-0.065-0.007c-0.205,0-0.372,0.167-0.372,0.372c0,0.175,0.121,0.321,0.284,0.36  c-0.099,0.637-0.5,1.173-1.053,1.458C10.05,25.88,9.92,25.633,9.72,25.471c-0.146,1.048,0.326,2.271,0.573,3.385  c-0.266-0.187-0.956-0.239-1.78-0.213c0.305-0.33,0.294-2.235,0.2-3.263c-0.275,0.151-0.464,0.442-0.471,0.777  c-0.248-0.128-0.465-0.306-0.638-0.521c0.186-0.01,0.334-0.162,0.334-0.351c0-0.195-0.158-0.354-0.353-0.354  c-0.123,0-0.231,0.063-0.294,0.158c-0.082-0.217-0.126-0.451-0.126-0.695C7.165,24.131,7.217,23.88,7.31,23.651z M21.257,26.065  c-0.076,0.023-0.157,0.037-0.241,0.037c-0.437,0-0.79-0.354-0.79-0.79c0-0.219,0.089-0.416,0.232-0.559  c-0.153-0.144-0.359-0.231-0.585-0.231c-0.155,0-0.3,0.042-0.425,0.114c-0.174-0.185-0.42-0.3-0.695-0.3  c-0.498,0-0.907,0.382-0.952,0.869c-0.36,0.058-0.635,0.369-0.635,0.745c0,0.164,0.053,0.314,0.141,0.438  c0.021-0.004,0.042-0.007,0.065-0.007c0.205,0,0.372,0.167,0.372,0.372c0,0.175-0.121,0.321-0.284,0.36  c0.099,0.637,0.5,1.173,1.053,1.458c0.006-0.277,0.135-0.524,0.336-0.687c0.146,1.048-0.326,2.271-0.573,3.385  c0.266-0.187,0.957-0.239,1.78-0.213c-0.305-0.33-0.294-2.235-0.2-3.263c0.275,0.152,0.464,0.442,0.471,0.777  c0.247-0.128,0.464-0.307,0.637-0.521c-0.186-0.01-0.334-0.162-0.334-0.351c0-0.195,0.158-0.354,0.353-0.354  c0.123,0,0.231,0.063,0.294,0.158c0.082-0.217,0.127-0.451,0.127-0.696C21.402,26.545,21.351,26.294,21.257,26.065z M14.772,25.586  c-0.292,0.232-0.713,0.249-1.024,0.015c-0.305-0.229-0.408-0.628-0.277-0.968c-0.724-0.141-1.51,0.14-1.996,0.785  c-0.222,0.295-0.354,0.629-0.399,0.968c0.115,0.021,0.228,0.066,0.328,0.143c0.339,0.256,0.408,0.738,0.152,1.078  c-0.046,0.062-0.1,0.113-0.158,0.156c0.113,0.166,0.254,0.315,0.422,0.442c0.113,0.085,0.233,0.155,0.357,0.212  c0.12-0.153,0.272-0.265,0.44-0.335c0.081,1.053,0.077,2.794-0.213,3.107c0.824-0.026,1.514,0.026,1.78,0.213  c-0.237-1.066-0.678-2.232-0.588-3.249c0.032,0.02,0.063,0.04,0.094,0.063c0.064,0.048,0.12,0.103,0.17,0.16  c0.279-0.138,0.532-0.342,0.734-0.609C15.091,27.107,15.134,26.25,14.772,25.586z M19.568,18.496c0.152,0,0.275,0.123,0.275,0.275  c0,0.129-0.09,0.237-0.21,0.267c0.073,0.471,0.37,0.867,0.779,1.077c0.004-0.205,0.1-0.387,0.249-0.507  c0.046,0.331,0.008,0.687-0.064,1.049c0.246-0.083,0.504-0.13,0.766-0.138c0.001-0.354,0.019-0.707,0.043-0.979  c0.203,0.112,0.343,0.327,0.348,0.574c0.184-0.094,0.344-0.226,0.472-0.385c-0.138-0.008-0.247-0.12-0.247-0.26  c0-0.144,0.117-0.261,0.261-0.261c0.092,0,0.172,0.046,0.218,0.116c0.061-0.16,0.094-0.333,0.094-0.514  c0-0.195-0.038-0.381-0.107-0.551c-0.057,0.018-0.116,0.028-0.179,0.028c-0.322,0-0.584-0.262-0.584-0.585  c0-0.161,0.065-0.308,0.171-0.413c-0.113-0.106-0.265-0.171-0.432-0.171c-0.115,0-0.222,0.031-0.315,0.084  c-0.129-0.136-0.311-0.222-0.513-0.222c-0.369,0-0.671,0.282-0.704,0.643c-0.266,0.043-0.47,0.273-0.47,0.552  c0,0.121,0.04,0.232,0.104,0.323C19.536,18.498,19.551,18.496,19.568,18.496z M15.907,21.198c0.05-0.059,0.107-0.112,0.171-0.16  c0.03-0.023,0.062-0.044,0.094-0.063c0.029,0.32,0.004,0.655-0.05,0.998c0.017,0.012,0.036,0.021,0.053,0.033  c0.138-0.048,0.283-0.072,0.429-0.072c0.175,0,0.345,0.034,0.502,0.1c0.002-0.401,0.02-0.8,0.045-1.13  c0.167,0.069,0.32,0.182,0.44,0.335c0.124-0.057,0.244-0.127,0.357-0.213c0.168-0.126,0.309-0.276,0.423-0.441  c-0.059-0.043-0.112-0.096-0.158-0.156c-0.256-0.34-0.188-0.823,0.152-1.079c0.1-0.075,0.212-0.121,0.327-0.143  c-0.045-0.338-0.177-0.673-0.399-0.968c-0.486-0.646-1.272-0.926-1.996-0.784c0.13,0.34,0.027,0.737-0.277,0.967  c-0.312,0.235-0.733,0.219-1.024-0.014c-0.362,0.663-0.319,1.521,0.178,2.181C15.375,20.855,15.628,21.06,15.907,21.198z   M11.434,19.556c-0.034,0.046-0.074,0.084-0.117,0.116c0.084,0.122,0.188,0.233,0.312,0.326c0.083,0.063,0.172,0.115,0.264,0.157  c0.088-0.113,0.201-0.196,0.325-0.247c0.015,0.19,0.026,0.412,0.031,0.641c0.187,0.009,0.37,0.066,0.526,0.169  c0.067-0.019,0.136-0.027,0.205-0.031c-0.039-0.249-0.059-0.493-0.038-0.727c0.024,0.015,0.047,0.03,0.07,0.047  c0.047,0.036,0.089,0.076,0.126,0.119c0.206-0.103,0.394-0.254,0.542-0.451c0.368-0.488,0.4-1.122,0.132-1.613  c-0.215,0.172-0.527,0.185-0.757,0.011c-0.226-0.17-0.301-0.464-0.205-0.715c-0.535-0.104-1.117,0.103-1.476,0.58  c-0.165,0.218-0.261,0.465-0.295,0.716c0.085,0.015,0.168,0.049,0.242,0.104C11.573,18.948,11.623,19.305,11.434,19.556z   M8.097,20.866c-0.034,0.045-0.074,0.084-0.117,0.116c0.084,0.122,0.188,0.232,0.312,0.326c0.083,0.063,0.172,0.115,0.264,0.157  c0.088-0.113,0.201-0.196,0.325-0.248c0.014,0.171,0.023,0.367,0.029,0.57c0.05,0.009,0.1,0.02,0.148,0.035  c0.162-0.116,0.346-0.193,0.543-0.226c-0.005-0.11-0.005-0.22,0.004-0.327c0.024,0.015,0.047,0.03,0.069,0.047  c0.047,0.036,0.089,0.076,0.126,0.119c0.206-0.103,0.394-0.254,0.542-0.451c0.368-0.489,0.4-1.123,0.132-1.613  c-0.215,0.172-0.527,0.184-0.758,0.011c-0.225-0.17-0.301-0.465-0.205-0.716c-0.535-0.104-1.117,0.103-1.476,0.58  c-0.164,0.219-0.261,0.466-0.295,0.716c0.085,0.016,0.168,0.05,0.242,0.105C8.236,20.258,8.287,20.615,8.097,20.866z M23.364,21.997  c-0.336,0.268-0.822,0.287-1.182,0.017c-0.351-0.266-0.47-0.725-0.319-1.116c-0.835-0.162-1.742,0.161-2.303,0.905  c-0.256,0.34-0.408,0.726-0.46,1.116c0.133,0.024,0.263,0.078,0.378,0.165c0.349,0.262,0.447,0.73,0.259,1.106  c0.045-0.005,0.09-0.011,0.136-0.011c0.305,0,0.595,0.115,0.818,0.324c0.067,0.062,0.107,0.15,0.108,0.243  c0.001,0.071-0.021,0.14-0.06,0.198c0.045-0.026,0.091-0.049,0.139-0.068c0.021,0.262,0.035,0.562,0.044,0.873  c0.03,0.007,0.062,0.011,0.094,0.011c0.046,0,0.093-0.008,0.138-0.022c0.034-0.011,0.069-0.016,0.104-0.016  c0.136,0,0.263,0.081,0.316,0.213c0.113,0.278,0.171,0.571,0.171,0.872c0,0.28-0.05,0.555-0.148,0.816  c-0.046,0.12-0.154,0.205-0.281,0.22c-0.013,0.001-0.026,0.002-0.039,0.002c-0.014,0-0.027-0.001-0.041-0.003  c0.017,0.021,0.03,0.044,0.041,0.068c0.052,0.117,0.034,0.254-0.047,0.354c-0.054,0.066-0.11,0.13-0.171,0.189  c0.758-0.001,1.368,0.07,1.628,0.252c-0.273-1.229-0.782-2.574-0.679-3.747c0.037,0.022,0.073,0.047,0.108,0.073  c0.074,0.056,0.14,0.117,0.197,0.185c0.321-0.159,0.613-0.395,0.846-0.703C23.732,23.751,23.782,22.763,23.364,21.997z   M16.582,26.05c0.115,0.063,0.217,0.148,0.3,0.249c-0.038-0.112-0.058-0.229-0.058-0.349c0-0.455,0.275-0.85,0.681-1.015  c0.105-0.374,0.371-0.67,0.715-0.824c-0.007-0.02-0.013-0.039-0.02-0.058c-0.088,0.028-0.182,0.044-0.279,0.044  c-0.503,0-0.912-0.408-0.912-0.912c0-0.252,0.103-0.479,0.268-0.645c-0.177-0.165-0.414-0.267-0.675-0.267  c-0.179,0-0.346,0.049-0.491,0.132c-0.201-0.213-0.485-0.347-0.801-0.347c-0.575,0-1.047,0.44-1.098,1.003  c-0.416,0.067-0.733,0.426-0.733,0.86c0,0.139,0.034,0.271,0.092,0.387c0.065,0.021,0.122,0.059,0.164,0.112  c0.228,0.01,0.41,0.196,0.41,0.427c0,0.183-0.114,0.336-0.275,0.398c0.024,0.029,0.051,0.057,0.082,0.081  c0.086,0.064,0.189,0.099,0.296,0.099c0.113,0,0.223-0.038,0.31-0.107c0.061-0.049,0.136-0.075,0.213-0.075  c0.022,0,0.045,0.003,0.067,0.007c0.099,0.021,0.184,0.083,0.232,0.172c0.14,0.255,0.226,0.53,0.261,0.812  c0.028-0.029,0.057-0.056,0.088-0.081c0.167,1.209-0.376,2.62-0.662,3.905c0.306-0.215,1.103-0.276,2.053-0.245  C16.461,29.433,16.473,27.234,16.582,26.05z M11.179,22.4c0.152,0,0.275,0.124,0.275,0.275c0,0.13-0.09,0.237-0.21,0.267  c0.073,0.471,0.37,0.867,0.779,1.078c0.004-0.205,0.1-0.388,0.248-0.508c0.041,0.29,0.017,0.6-0.038,0.915  c0.236-0.094,0.486-0.149,0.742-0.163c0.005-0.299,0.02-0.589,0.042-0.818c0.065,0.035,0.123,0.083,0.172,0.138  c0.104-0.362,0.371-0.656,0.727-0.792c0.042-0.159,0.109-0.308,0.198-0.438c-0.017-0.064-0.036-0.127-0.061-0.188  c-0.056,0.019-0.116,0.028-0.178,0.028c-0.323,0-0.584-0.262-0.584-0.584c0-0.162,0.066-0.309,0.171-0.414  c-0.113-0.105-0.265-0.171-0.432-0.171c-0.115,0-0.222,0.031-0.315,0.085c-0.129-0.137-0.311-0.223-0.513-0.223  c-0.369,0-0.671,0.283-0.704,0.643c-0.266,0.044-0.47,0.273-0.47,0.552c0,0.121,0.039,0.232,0.104,0.323  C11.147,22.402,11.163,22.4,11.179,22.4z M8.447,10.479l0.11-0.285h1.537h1.195h1.537l0.11,0.285H8.447z M10.175,13.051h3.392v1.007  h-1.123v-0.761h-0.48v0.761H9.901v-1.345h0c0-0.001,0-0.001,0-0.002c0-0.244-0.271-0.441-0.605-0.441  c-0.334,0-0.605,0.197-0.605,0.441c0,0.001,0,0.001,0,0.002h0v1.345H7.816v-1.007h0.595v-0.256H7.547l0.8-2.06h4.688l0.8,2.06h-3.66  V13.051z M12.7,13.555h0.26v-0.259H12.7V13.555z M11.441,13.555h0.26v-0.259h-0.26V13.555z M12.444,11.475h-0.48v0.79h0.48V11.475z   M11.579,11.586l0.326-0.356h0.267h0.059h0.267l0.326,0.356l-0.259-0.534H12.23h-0.059h-0.333L11.579,11.586z M10.192,12.51  l-0.374-0.768h-0.48H9.253h-0.48L8.4,12.51l0.47-0.512h0.384h0.085h0.384L10.192,12.51z M26.548,28.317  c-0.15-0.122-0.317-0.243-0.494-0.37c-0.11-0.08-0.224-0.161-0.336-0.246s-0.273-0.062-0.358,0.051s-0.062,0.273,0.051,0.358  c0.115,0.087,0.23,0.171,0.344,0.252c0.171,0.123,0.332,0.239,0.472,0.353c0.047,0.039,0.104,0.058,0.161,0.058  c0.074,0,0.147-0.032,0.198-0.095C26.675,28.568,26.657,28.406,26.548,28.317z M25.11,18.382c0.07,0,0.14-0.028,0.19-0.085  c0.095-0.104,0.086-0.267-0.02-0.361c-0.482-0.436-1.028-0.841-1.622-1.205c-0.121-0.073-0.278-0.036-0.353,0.085  c-0.073,0.12-0.036,0.278,0.085,0.353c0.566,0.348,1.088,0.733,1.547,1.148C24.988,18.361,25.049,18.382,25.11,18.382z   M24.583,26.037c0-0.225,0.055-0.468,0.162-0.724c0.014-0.033,0.028-0.066,0.043-0.1c0.059-0.129,0.002-0.281-0.127-0.339  c-0.129-0.059-0.28-0.002-0.339,0.127c-0.018,0.038-0.034,0.076-0.05,0.114c-0.134,0.317-0.201,0.628-0.201,0.921  c0,0.382,0.115,0.75,0.343,1.092c0.05,0.074,0.131,0.114,0.213,0.114c0.049,0,0.099-0.014,0.143-0.042  c0.117-0.079,0.149-0.237,0.071-0.355C24.668,26.585,24.583,26.321,24.583,26.037z M22.473,16.094  c-0.649-0.301-1.294-0.525-1.916-0.665c-0.137-0.031-0.275,0.055-0.306,0.193c-0.031,0.138,0.056,0.275,0.194,0.306  c0.586,0.132,1.196,0.344,1.812,0.63c0.034,0.016,0.071,0.023,0.107,0.023c0.097,0,0.189-0.055,0.232-0.148  C22.656,16.306,22.601,16.154,22.473,16.094z M19.199,15.261h-0.061c-0.626,0-1.19,0.111-1.677,0.332  c-0.084,0.038-0.173,0.075-0.266,0.109c-0.133,0.049-0.2,0.197-0.15,0.33c0.039,0.103,0.136,0.167,0.24,0.167  c0.03,0,0.06-0.005,0.09-0.016c0.104-0.039,0.204-0.08,0.298-0.123c0.42-0.19,0.913-0.287,1.466-0.287l0.054,0  c0.147,0.006,0.258-0.111,0.259-0.252C19.453,15.379,19.34,15.263,19.199,15.261z M15.966,16.027  c-0.593,0.109-1.259,0.174-1.925,0.189c-0.141,0.003-0.253,0.121-0.25,0.262c0.003,0.139,0.117,0.25,0.256,0.25  c0.002,0,0.004,0,0.006,0c0.692-0.016,1.386-0.084,2.005-0.197c0.139-0.025,0.231-0.159,0.206-0.298  C16.239,16.094,16.106,16.002,15.966,16.027z M25.407,24.082l0.061-0.102c0.317-0.533,0.646-1.085,0.896-1.664  c0.056-0.13-0.004-0.28-0.134-0.337c-0.13-0.056-0.28,0.004-0.337,0.134c-0.237,0.549-0.558,1.086-0.866,1.605l-0.061,0.102  c-0.072,0.122-0.032,0.279,0.089,0.352c0.041,0.024,0.087,0.035,0.131,0.035C25.274,24.207,25.359,24.163,25.407,24.082z   M12.75,16.182c-0.712-0.055-1.363-0.173-1.881-0.341c-0.134-0.043-0.279,0.03-0.323,0.165c-0.043,0.134,0.03,0.279,0.165,0.323  c0.564,0.183,1.237,0.306,1.999,0.365c0.007,0,0.014,0,0.02,0c0.132,0,0.245-0.102,0.255-0.236  C12.997,16.317,12.891,16.194,12.75,16.182z M9.458,14.574c0-0.141-0.115-0.256-0.256-0.256c-0.141,0-0.256,0.115-0.256,0.256  c0,0.41,0.172,0.775,0.512,1.085c0.049,0.045,0.111,0.067,0.173,0.067c0.069,0,0.139-0.028,0.189-0.083  c0.095-0.104,0.088-0.267-0.017-0.362C9.57,15.069,9.458,14.838,9.458,14.574z M27.161,13.923c0.01,0.001,0.019,0.001,0.028,0.001  c0.129,0,0.239-0.098,0.254-0.229c0.016-0.141,0.051-0.472,0.984-0.472c0.133,0,0.279,0.006,0.447,0.02  c0.139,0.009,0.265-0.095,0.275-0.236c0.011-0.141-0.095-0.264-0.235-0.275c-0.182-0.014-0.341-0.021-0.487-0.021  c-0.925,0-1.427,0.313-1.493,0.929C26.919,13.781,27.021,13.907,27.161,13.923z M30.225,13.396c0.28,0.03,0.492,0.044,0.669,0.044  c0.808,0,0.977-0.352,0.977-0.646c0-0.144-0.043-0.305-0.131-0.492c-0.06-0.128-0.213-0.183-0.34-0.123  c-0.129,0.061-0.184,0.213-0.123,0.341c0.067,0.144,0.082,0.229,0.082,0.274c0,0.111-0.253,0.134-0.465,0.134  c-0.157,0-0.353-0.013-0.613-0.042c-0.139-0.015-0.267,0.086-0.282,0.227C29.982,13.255,30.085,13.381,30.225,13.396z   M31.175,15.725c-0.121-0.074-0.278-0.037-0.353,0.083c-0.074,0.12-0.037,0.278,0.083,0.353c0.549,0.338,0.804,0.779,0.804,1.387  c0,0.027-0.001,0.056-0.002,0.084c-0.005,0.141,0.105,0.26,0.247,0.266c0.003,0,0.006,0,0.01,0c0.137,0,0.25-0.108,0.255-0.247  c0.002-0.034,0.002-0.068,0.002-0.103C32.221,16.756,31.879,16.16,31.175,15.725z M28.382,19.237  c-0.191-0.007-0.388-0.011-0.588-0.011c-0.492,0-0.934,0.028-1.348,0.083c-0.065-0.127-0.142-0.251-0.228-0.372  c-0.083-0.115-0.242-0.142-0.357-0.06c-0.115,0.083-0.142,0.243-0.06,0.357c0.306,0.427,0.453,0.878,0.453,1.38  c0,0.101-0.006,0.205-0.018,0.31c-0.017,0.141,0.084,0.268,0.225,0.283c0.01,0.002,0.021,0.002,0.029,0.002  c0.129,0,0.239-0.096,0.255-0.227c0.014-0.123,0.021-0.247,0.021-0.368c0-0.281-0.042-0.553-0.121-0.815  c0.354-0.041,0.731-0.062,1.147-0.062c0.194,0,0.385,0.005,0.57,0.011c0.141,0.005,0.261-0.106,0.265-0.247  C28.634,19.36,28.522,19.241,28.382,19.237z M31.76,18.732c-0.114-0.083-0.274-0.059-0.357,0.056c-0.262,0.359-0.7,0.5-1.562,0.5  l-0.1-0.001c-0.14-0.001-0.257,0.112-0.259,0.254c-0.001,0.142,0.112,0.257,0.254,0.259h0.104c0.759,0,1.522-0.086,1.978-0.71  C31.899,18.975,31.874,18.815,31.76,18.732z M29.781,15.676c0.109,0,0.211-0.071,0.244-0.181c0.042-0.135-0.034-0.278-0.17-0.32  c-0.173-0.053-0.348-0.103-0.52-0.151c-0.521-0.148-1.012-0.288-1.368-0.488c-0.123-0.069-0.279-0.025-0.349,0.099  c-0.069,0.123-0.025,0.279,0.098,0.348c0.409,0.229,0.929,0.377,1.479,0.534c0.169,0.048,0.341,0.097,0.511,0.148  C29.73,15.673,29.756,15.676,29.781,15.676z M33.567,11.8L31.05,7.447c-0.057-0.097-0.156-0.16-0.269-0.169  c-0.112-0.009-0.221,0.037-0.292,0.124l-2.492,3.042l-0.984-1.284c-0.062-0.08-0.155-0.129-0.256-0.133  c-0.104-0.006-0.199,0.037-0.267,0.111l-1.455,1.595L23.47,7.181c-0.053-0.119-0.169-0.198-0.299-0.203  c-0.13-0.007-0.252,0.063-0.313,0.178l-1.061,1.955L20.33,8.026c-0.076-0.056-0.171-0.078-0.265-0.061  c-0.093,0.017-0.174,0.071-0.226,0.15l-2.561,3.969c-0.102,0.159-0.057,0.37,0.102,0.472c0.057,0.037,0.121,0.054,0.185,0.054  c0.112,0,0.222-0.055,0.287-0.156l1.771-2.746h1.833h0.791h1.589l0.693,1.574l-1.157,1.269c-0.127,0.139-0.117,0.355,0.022,0.482  c0.065,0.06,0.148,0.089,0.23,0.089c0.092,0,0.185-0.037,0.252-0.111l2.841-3.113l1.715,2.237c0.114,0.15,0.329,0.178,0.479,0.063  s0.178-0.329,0.063-0.479l-0.566-0.738c0.033-0.02,0.064-0.044,0.09-0.076l0.981-1.198h2.088l1.407,2.433  c0.063,0.109,0.178,0.17,0.296,0.17c0.058,0,0.116-0.015,0.17-0.046C33.606,12.172,33.662,11.963,33.567,11.8z M19.955,9.197  l0.262-0.405l0.548,0.405H19.955z M22.527,9.197l0.598-1.103l0.486,1.103H22.527z M29.901,9.197l0.804-0.981l0.567,0.981H29.901z"
   id="path2" />
<g
   id="g6">
	<path
   d="M 48.503,18.538 C 48.202,16.819 47.727,15.146 47.122,13.512 45.887,10.172 44.222,7.041 42.418,3.977 42.1,3.435 41.686,2.987 41.19,2.601 40.663,2.188 40.12,1.796 39.568,1.413 38.879,0.935 38.208,0.436 37.576,-0.119 c -0.896,-0.788 -1.89,-1.436 -2.982,-1.929 -0.786,-0.353 -1.517,-0.797 -2.243,-1.257 -1.267,-0.799 -2.578,-1.5 -4.085,-1.754 -0.57,-0.096 -1.09,-0.358 -1.61,-0.601 -1.55,-0.721 -3.172,-1.123 -4.891,-1.141 -1.269,-0.014 -2.535,0.021 -3.8,0.103 -0.799,0.052 -1.565,0.219 -2.289,0.579 -0.564,0.281 -1.16,0.493 -1.772,0.649 -0.814,0.208 -1.606,0.477 -2.38,0.802 -1.056,0.443 -2.09,0.923 -2.988,1.653 -0.336,0.273 -0.715,0.462 -1.172,0.503 -0.652,0.058 -1.202,0.383 -1.719,0.763 -0.264,0.193 -0.477,0.441 -0.72,0.655 -0.203,0.179 -0.412,0.355 -0.681,0.42 -0.137,0.034 -0.262,0.082 -0.375,0.16 -1.19,0.806 -2.216,1.777 -3.015,2.977 -0.555,0.832 -1.002,1.725 -1.511,2.584 -0.17,0.288 -0.344,0.573 -0.559,0.832 -0.172,0.207 -0.376,0.349 -0.655,0.374 -0.261,0.024 -0.453,0.166 -0.59,0.385 -0.114,0.181 -0.203,0.375 -0.283,0.571 -0.283,0.696 -0.631,1.348 -1.073,1.965 -0.699,0.979 -1.182,2.076 -1.551,3.218 -0.234,0.725 -0.261,1.506 -0.584,2.209 -0.518,1.995 -0.696,4.014 -0.476,6.066 0.154,1.433 0.426,2.841 0.776,4.237 0.207,0.823 0.443,1.642 0.571,2.482 0.079,0.519 0.11,1.036 0.111,1.559 10e-4,0.297 0.045,0.592 0.32,0.784 0.132,0.09 0.237,0.204 0.329,0.333 0.223,0.315 0.399,0.657 0.54,1.018 0.475,1.216 0.967,2.425 1.556,3.593 0.625,1.24 1.427,2.34 2.475,3.265 0.557,0.49 1.127,0.966 1.698,1.439 C 1.92,39.243 1.878,39.113 1.873,38.973 1.866,38.768 1.885,38.568 1.928,38.375 1.265,37.188 1.24,36.232 1.213,35.221 1.208,35.022 1.202,34.802 1.192,34.561 1.184,34.378 1.196,34.199 1.229,34.024 1.168,33.699 1.177,33.361 1.259,33.035 1.291,32.907 1.318,32.719 1.344,32.516 1.101,32.19 0.912,31.829 0.8,31.421 0.712,31.103 0.602,30.793 0.464,30.494 0.358,30.264 0.245,30.039 0.053,29.86 c -0.124,-0.115 -0.21,-0.266 -0.231,-0.437 -0.054,-0.462 -0.204,-0.897 -0.363,-1.328 -0.46,-1.248 -0.761,-2.538 -1.037,-3.834 -0.24,-1.13 -0.441,-2.265 -0.567,-3.413 -0.089,-0.811 -0.059,-1.617 0.05,-2.423 0.223,-1.643 0.574,-3.257 1.101,-4.831 0.178,-0.533 0.378,-1.058 0.646,-1.555 0.077,-0.143 0.163,-0.281 0.268,-0.405 C 0.235,11.259 0.482,10.841 0.683,10.396 0.796,10.147 0.912,9.9 1.08,9.681 1.168,9.564 1.267,9.46 1.401,9.386 1.513,9.325 1.588,9.222 1.663,9.122 1.647,8.888 1.63,8.652 1.624,8.429 1.619,8.203 1.646,7.981 1.701,7.774 1.658,7.612 1.632,7.444 1.625,7.272 1.596,6.532 1.792,5.791 1.985,5.066 2.028,4.903 2.104,4.62 2.135,4.467 2.123,3.365 2.881,2.396 3.985,2.158 4.219,2.108 4.454,2.082 4.681,2.082 4.955,2.082 5.219,2.118 5.468,2.186 5.751,2.043 6.066,1.957 6.396,1.938 6.56,1.93 6.733,1.919 6.9,1.909 7.176,1.621 7.446,1.329 7.738,1.056 7.901,0.903 8.071,0.758 8.249,0.622 8.543,0.398 8.869,0.267 9.241,0.227 9.706,0.178 10.118,0.003 10.483,-0.3 c 0.942,-0.782 1.99,-1.404 3.083,-1.953 1.183,-0.593 2.402,-1.098 3.698,-1.393 1.278,-0.291 2.578,-0.357 3.884,-0.306 0.932,0.037 1.855,0.139 2.768,0.344 0.664,0.15 1.284,0.409 1.895,0.702 1.094,0.524 2.233,0.956 3.31,1.519 0.587,0.307 1.108,0.715 1.688,1.034 1.475,0.809 2.83,1.787 4.149,2.816 0.076,0.018 0.169,0.034 0.24,0.051 0.178,0.042 0.42,0.1 0.49,0.104 0.102,-10e-4 0.203,-0.012 0.3,-0.02 0.22,-0.02 0.447,-0.038 0.679,-0.038 0.999,0 1.853,0.312 2.606,0.949 0.443,0.373 0.731,0.893 0.812,1.468 0.09,0.643 -0.012,1.172 -0.177,1.59 0.112,0.423 0.148,0.831 0.162,1.199 0.412,0.812 0.786,1.642 1.096,2.502 0.111,0.307 0.151,0.63 0.231,0.942 0.091,0.354 0.198,0.702 0.494,0.955 0.125,0.109 0.159,0.272 0.207,0.43 0.154,0.514 0.371,1.005 0.571,1.502 0.361,0.901 0.768,1.785 1.087,2.704 0.251,0.722 0.308,1.461 0.253,2.215 -0.09,1.268 -0.196,2.534 -0.325,3.799 -0.136,1.339 -0.264,2.679 -0.575,3.992 -0.114,0.485 -0.287,0.945 -0.539,1.381 -0.31,0.542 -0.501,1.139 -0.709,1.724 -0.31,0.876 -0.697,1.715 -1.185,2.508 -0.032,0.052 -0.061,0.106 -0.091,0.16 -0.018,0.055 -0.027,0.113 -0.049,0.167 0.038,0.099 0.069,0.2 0.095,0.306 0.474,1.979 -0.149,3.454 -0.606,4.536 -0.291,0.691 -0.441,1.07 -0.381,1.454 0.108,0.697 -0.1,1.397 -0.562,1.912 -0.443,0.501 -1.082,0.788 -1.753,0.788 -0.029,0 -0.07,-0.001 -0.099,-0.002 -0.245,-0.011 -0.484,-0.016 -0.713,-0.016 -1.175,0 -1.961,0.137 -2.966,0.312 l -0.069,0.012 c -0.345,0.06 -0.701,0.121 -1.085,0.179 -0.118,0.02 -0.236,0.028 -0.36,0.028 -0.298,0 -0.593,-0.065 -0.872,-0.179 -0.863,0.503 -1.765,0.932 -2.724,1.249 -1.085,0.36 -2.202,0.528 -3.345,0.535 -0.565,0.002 -1.129,0 -1.695,0 -0.968,0.012 -1.934,0.003 -2.899,-0.062 -0.183,-0.012 -0.364,-0.036 -0.545,-0.059 -0.04,-0.005 -0.087,-0.009 -0.117,-0.032 -0.35,-0.259 -0.771,-0.294 -1.178,-0.377 -1.544,-0.31 -3.073,-0.693 -4.612,-1.025 -0.419,-0.091 -0.817,-0.226 -1.203,-0.383 -0.41,-0.007 -0.816,-0.014 -1.257,-0.014 -0.225,0 -0.454,0.002 -0.715,0.005 -0.484,0 -0.945,-0.147 -1.328,-0.409 -0.66,0.108 -1.327,0.165 -1.939,0.165 -0.266,0 -0.517,-0.011 -0.754,-0.032 -0.339,0.182 -0.718,0.277 -1.105,0.277 h -0.71 c 0.432,0.436 0.84,0.893 1.21,1.384 0.506,0.673 1.141,1.174 1.913,1.514 1.663,0.734 3.321,1.48 4.985,2.214 0.99,0.436 2.004,0.812 3.019,1.188 0.395,0.146 0.796,0.311 1.097,0.612 0.214,0.214 0.457,0.328 0.739,0.39 0.557,0.122 1.122,0.126 1.686,0.075 0.612,-0.051 1.202,-0.178 1.737,-0.513 0.312,-0.195 0.67,-0.299 1.04,-0.317 0.419,-0.021 0.832,-0.078 1.236,-0.183 0.905,-0.234 1.814,-0.458 2.742,-0.579 0.883,-0.116 1.739,-0.326 2.56,-0.667 2.038,-0.844 4.025,-1.796 5.971,-2.833 1.009,-0.54 2.003,-1.109 2.791,-1.963 0.089,-0.097 0.196,-0.185 0.326,-0.22 0.111,-0.031 0.204,-0.085 0.293,-0.154 0.355,-0.273 0.673,-0.589 0.99,-0.903 1.541,-1.54 2.882,-3.248 4.18,-4.99 0.717,-0.962 1.345,-1.975 1.774,-3.102 0.27,-0.705 0.599,-1.385 0.935,-2.06 0.233,-0.467 0.448,-0.944 0.598,-1.443 0.288,-0.954 0.57,-1.909 0.842,-2.868 0.207,-0.73 0.398,-1.466 0.437,-2.229 0.023,-0.45 0.089,-0.891 0.252,-1.307 0.265,-0.668 0.354,-1.357 0.341,-1.987 0.003,-0.873 -0.095,-1.657 -0.23,-2.436 z"
   id="path4"
   inkscape:connector-curvature="0"
   style="clip-rule:evenodd;fill:#bd0926;fill-rule:evenodd" />
</g>
</svg>