<?xml version="1.0" encoding="UTF-8" standalone="no"?>
<!-- Generator: Adobe Illustrator 16.0.0, SVG Export Plug-In . SVG Version: 6.00 Build 0)  -->

<svg
   xmlns:dc="http://purl.org/dc/elements/1.1/"
   xmlns:cc="http://creativecommons.org/ns#"
   xmlns:rdf="http://www.w3.org/1999/02/22-rdf-syntax-ns#"
   xmlns:svg="http://www.w3.org/2000/svg"
   xmlns="http://www.w3.org/2000/svg"
   xmlns:sodipodi="http://sodipodi.sourceforge.net/DTD/sodipodi-0.dtd"
   xmlns:inkscape="http://www.inkscape.org/namespaces/inkscape"
   version="1.1"
   id="OBM_xA0_Image_1_"
   x="0px"
   y="0px"
   width="56.693001"
   height="56.693001"
   viewBox="0 0 56.693001 56.693001"
   enable-background="new 0 0 646 660"
   xml:space="preserve"
   sodipodi:docname="Carte_Site.svg"
   inkscape:version="0.92.0 r15299"><metadata
   id="metadata9"><rdf:RDF><cc:Work
       rdf:about=""><dc:format>image/svg+xml</dc:format><dc:type
         rdf:resource="http://purl.org/dc/dcmitype/StillImage" /><dc:title></dc:title></cc:Work></rdf:RDF></metadata><defs
   id="defs7" /><sodipodi:namedview
   pagecolor="#ffffff"
   bordercolor="#666666"
   borderopacity="1"
   objecttolerance="10"
   gridtolerance="10"
   guidetolerance="10"
   inkscape:pageopacity="0"
   inkscape:pageshadow="2"
   inkscape:window-width="711"
   inkscape:window-height="480"
   id="namedview5"
   showgrid="false"
   inkscape:zoom="4.0455079"
   inkscape:cx="33.323065"
   inkscape:cy="34.067822"
   inkscape:window-x="1451"
   inkscape:window-y="117"
   inkscape:window-maximized="0"
   inkscape:current-layer="OBM_xA0_Image_1_" />
<path
   d="M 11.216383,40.10305 H 9.8287864 c -0.255666,0 -0.462995,-0.206159 -0.462995,-0.460589 v -2.368533 c 0,-0.254429 0.207329,-0.460589 0.462995,-0.460589 H 10.839597 L 22.437631,15.191448 c 0.06704,-0.125004 0.188161,-0.212332 0.328449,-0.236835 l 0.72681,-0.126847 c 0.171215,-0.03012 0.34419,0.03786 0.449013,0.175393 0.104822,0.137532 0.123434,0.321859 0.04843,0.477538 L 12.261457,39.79943 c -0.07213,0.1496 -0.219738,0.249087 -0.386139,0.260233 l -0.627637,0.04228 c -0.01046,7.37e-4 -0.02083,0.0011 -0.0313,0.0011 z m -0.924695,-0.921178 h 0.908953 l 0.342709,-0.02312 8.132236,-16.861704 -8.149829,15.193727 c -0.08047,0.15006 -0.237517,0.243743 -0.408455,0.243743 h -0.825521 v 1.447355 z m 7.037159,1.010441 c 0,-0.25443 -0.207329,-0.460589 -0.462995,-0.460589 h -0.929787 l -0.02269,-1.997207 h 0.820242 c 0.175661,0 0.336135,-0.09884 0.414474,-0.255258 l 11.450338,-22.87976 c 0.113897,-0.227716 0.02074,-0.504253 -0.208163,-0.61765 -0.228812,-0.113305 -0.506887,-0.02064 -0.620877,0.20708 l -11.322272,22.62441 h -1.00183 c -0.123713,0 -0.242239,0.04919 -0.329283,0.136703 -0.08695,0.08751 -0.135102,0.205976 -0.133713,0.329045 l 0.03306,2.918384 c 0.0029,0.252311 0.209274,0.455339 0.462996,0.455339 h 1.387504 c 0.255759,9.2e-5 0.462995,-0.20616 0.462996,-0.460497 z M 10.228813,37.505789 22.684315,16.232287 c 0.128713,-0.219793 0.05389,-0.501766 -0.167049,-0.62981 -0.221034,-0.12832 -0.50448,-0.05371 -0.6331,0.166181 L 9.4286654,37.04216 c -0.128712,0.219885 -0.05389,0.501766 0.167049,0.629809 0.07334,0.04247 0.15353,0.06273 0.232609,0.06273 0.159363,-9.2e-5 0.3144666,-0.08208 0.4004896,-0.228913 z m 5.625672,-0.01631 11.86083,-22.28864 c 0.119638,-0.224768 0.03343,-0.503516 -0.192607,-0.622533 -0.225849,-0.119016 -0.506145,-0.03325 -0.625783,0.191605 L 15.036094,37.058465 c -0.119638,0.224767 -0.03343,0.503516 0.192607,0.622532 0.06908,0.03639 0.143158,0.05361 0.216218,0.05361 0.165938,0 0.326505,-0.08908 0.409566,-0.245126 z m 20.830253,2.697394 c 0.08871,-0.108423 0.123065,-0.251021 0.09353,-0.387632 L 36.137297,36.83535 c -0.05371,-0.248718 -0.299929,-0.407621 -0.549946,-0.353363 -0.249925,0.05343 -0.40901,0.298369 -0.35521,0.547087 l 0.519388,2.402156 -15.966395,-0.11791 0.659028,-1.979152 c 0.08038,-0.24144 -0.05121,-0.502042 -0.293909,-0.582 -0.242795,-0.07987 -0.504758,0.05085 -0.585134,0.292382 l -0.858949,2.579943 c -0.04648,0.139835 -0.02306,0.293396 0.06315,0.413057 0.0863,0.119753 0.224831,0.191236 0.372897,0.192342 l 17.179998,0.126846 c 0.0012,0 0.0022,0 0.0034,0 0.139269,0 0.27113,-0.06236 0.359099,-0.169865 z m -0.312985,0.16747 8.015654,-0.79903 4.282336,0.418491 c 0.178068,0.01796 0.349191,-0.06817 0.441513,-0.219977 0.09232,-0.15181 0.08871,-0.34277 -0.0091,-0.49108 L 32.491297,14.080046 c -0.140473,-0.212608 -0.42716,-0.272116 -0.641156,-0.132373 -0.213812,0.139558 -0.273353,0.425124 -0.133065,0.637731 L 47.796905,38.963 44.432317,38.634232 c -0.03047,-0.0031 -0.06112,-0.0029 -0.0914,9.2e-5 l -8.061397,0.803544 c -0.254463,0.02533 -0.440031,0.251205 -0.414566,0.504345 0.02389,0.23748 0.225201,0.414622 0.460125,0.414622 0.01546,-9.2e-5 0.03102,-8.29e-4 0.04667,-0.0025 z m -15.157819,-3.719804 13.81004,-0.592134 c 0.255574,-0.01096 0.453643,-0.22578 0.442624,-0.479933 -0.01093,-0.254338 -0.230109,-0.451562 -0.482441,-0.440323 l -13.810133,0.592133 c -0.255481,0.01096 -0.453642,0.225781 -0.442623,0.479934 0.01074,0.24752 0.215662,0.440783 0.462161,0.440783 0.0069,-9.2e-5 0.01361,-1.84e-4 0.02037,-4.6e-4 z m 0,0 13.81004,-0.592134 c 0.255574,-0.01096 0.453643,-0.22578 0.442624,-0.479933 -0.01093,-0.254338 -0.230109,-0.451562 -0.482441,-0.440323 l -13.810133,0.592133 c -0.255481,0.01096 -0.453642,0.225781 -0.442623,0.479934 0.01074,0.24752 0.215662,0.440783 0.462161,0.440783 0.0069,-9.2e-5 0.01361,-1.84e-4 0.02037,-4.6e-4 z m 0,0 13.81004,-0.592134 c 0.255574,-0.01096 0.453643,-0.22578 0.442624,-0.479933 -0.01093,-0.254338 -0.230109,-0.451562 -0.482441,-0.440323 l -13.810133,0.592133 c -0.255481,0.01096 -0.453642,0.225781 -0.442623,0.479934 0.01074,0.24752 0.215662,0.440783 0.462161,0.440783 0.0069,-9.2e-5 0.01361,-1.84e-4 0.02037,-4.6e-4 z m 0,0 13.81004,-0.592134 c 0.255574,-0.01096 0.453643,-0.22578 0.442624,-0.479933 -0.01093,-0.254338 -0.230109,-0.451562 -0.482441,-0.440323 l -13.810133,0.592133 c -0.255481,0.01096 -0.453642,0.225781 -0.442623,0.479934 0.01074,0.24752 0.215662,0.440783 0.462161,0.440783 0.0069,-9.2e-5 0.01361,-1.84e-4 0.02037,-4.6e-4 z m 0,0 13.81004,-0.592134 c 0.255574,-0.01096 0.453643,-0.22578 0.442624,-0.479933 -0.01093,-0.254338 -0.230109,-0.451562 -0.482441,-0.440323 l -13.810133,0.592133 c -0.255481,0.01096 -0.453642,0.225781 -0.442623,0.479934 0.01074,0.24752 0.215662,0.440783 0.462161,0.440783 0.0069,-9.2e-5 0.01361,-1.84e-4 0.02037,-4.6e-4 z m 0,0 13.81004,-0.592134 c 0.255574,-0.01096 0.453643,-0.22578 0.442624,-0.479933 -0.01093,-0.254338 -0.230109,-0.451562 -0.482441,-0.440323 l -13.810133,0.592133 c -0.255481,0.01096 -0.453642,0.225781 -0.442623,0.479934 0.01074,0.24752 0.215662,0.440783 0.462161,0.440783 0.0069,-9.2e-5 0.01361,-1.84e-4 0.02037,-4.6e-4 z m 0,0 13.81004,-0.592134 c 0.255574,-0.01096 0.453643,-0.22578 0.442624,-0.479933 -0.01093,-0.254338 -0.230109,-0.451562 -0.482441,-0.440323 l -13.810133,0.592133 c -0.255481,0.01096 -0.453642,0.225781 -0.442623,0.479934 0.01074,0.24752 0.215662,0.440783 0.462161,0.440783 0.0069,-9.2e-5 0.01361,-1.84e-4 0.02037,-4.6e-4 z m -0.46318,9.2e-5 14.272572,-0.592133 c 0.132787,-0.0056 0.256685,-0.06752 0.340394,-0.170234 0.08371,-0.102619 0.11899,-0.236098 0.09695,-0.366537 l -0.337985,-1.99693 c -0.04241,-0.250837 -0.281594,-0.419596 -0.533463,-0.377775 -0.25224,0.04228 -0.42216,0.279854 -0.379749,0.530691 l 0.250851,1.481991 -13.058784,0.541837 0.657361,-1.807628 c 0.08695,-0.23923 -0.03741,-0.503331 -0.277798,-0.58983 -0.240757,-0.08641 -0.505869,0.03722 -0.592912,0.276445 l -0.892099,2.453098 c -0.0525,0.144348 -0.02926,0.305186 0.06195,0.429084 0.08741,0.118556 0.22622,0.188197 0.37336,0.188197 0.0064,0 0.01287,0 0.01935,-2.76e-4 z m 1.626502,-3.130163 11.662575,-0.67679 c 0.127787,-0.0074 0.246777,-0.06715 0.328727,-0.164891 0.08204,-0.09783 0.119545,-0.225044 0.103803,-0.351429 L 34.2304,30.366014 c -0.03139,-0.252311 -0.260944,-0.43194 -0.516333,-0.400528 -0.25372,0.03123 -0.434103,0.261154 -0.40262,0.513649 l 0.181309,1.45758 -10.499716,0.609267 0.426696,-1.351092 c 0.07667,-0.24273 -0.05898,-0.501213 -0.302891,-0.577487 -0.243813,-0.07637 -0.503831,0.05868 -0.580503,0.301318 l -0.62773,1.98781 c -0.04565,0.144441 -0.01704,0.301962 0.07658,0.421347 0.08806,0.112291 0.222886,0.177327 0.365026,0.177327 0.009,9.2e-5 0.01806,-1.85e-4 0.02704,-7.37e-4 z m 1.067945,-3.172722 9.878562,-0.803544 c 0.124546,-0.01013 0.239739,-0.06992 0.319281,-0.165719 0.07954,-0.0958 0.11686,-0.219609 0.103248,-0.343231 L 33.521184,26.96438 c -0.02769,-0.252956 -0.255666,-0.436086 -0.510499,-0.40799 -0.254184,0.02754 -0.437808,0.25489 -0.410121,0.507753 l 0.173531,1.584519 -8.681719,0.706175 0.641619,-1.733749 c 0.08834,-0.23877 -0.03463,-0.503516 -0.274556,-0.591397 -0.239924,-0.0877 -0.506054,0.03445 -0.594394,0.273129 l -0.892099,2.410724 c -0.05454,0.147572 -0.02972,0.312647 0.06584,0.437835 0.08797,0.115148 0.224645,0.181933 0.368544,0.181933 0.01269,-9.2e-5 0.02528,-5.53e-4 0.03787,-0.0016 z m 1.268793,-3.384684 8.061397,-0.888108 c 0.249555,-0.02754 0.431697,-0.247981 0.410307,-0.496976 L 33.0593,24.08883 c -0.02167,-0.253416 -0.246314,-0.441705 -0.500591,-0.419781 -0.254833,0.02165 -0.443735,0.244665 -0.421974,0.498081 l 0.08797,1.02564 -6.931596,0.763657 0.278445,-0.992938 c 0.06871,-0.245034 -0.07519,-0.499002 -0.321596,-0.567354 -0.246128,-0.06863 -0.501609,0.0748 -0.570317,0.319925 l -0.462534,1.649462 c -0.0413,0.147388 -0.0064,0.305462 0.09315,0.422084 0.08853,0.103632 0.217793,0.162311 0.35271,0.162311 0.01695,-9.2e-5 0.03398,-10e-4 0.05102,-0.0029 z m 1.220085,-2.875826 6.44258,-0.676698 c 0.126398,-0.01327 0.241684,-0.07766 0.319004,-0.178063 0.07723,-0.100409 0.109638,-0.228084 0.08945,-0.352904 l -0.223812,-1.387847 c -0.04056,-0.251113 -0.277334,-0.422176 -0.5305,-0.381828 -0.252518,0.04035 -0.424382,0.276538 -0.383824,0.527743 l 0.1464,0.907913 -5.24796,0.551233 0.276038,-0.848221 c 0.0788,-0.241993 -0.05454,-0.501673 -0.297891,-0.580066 -0.243073,-0.07812 -0.504295,0.05435 -0.583097,0.296343 l -0.49559,1.522524 c -0.04824,0.148309 -0.01787,0.310897 0.08093,0.43194 0.08843,0.108515 0.220848,0.17051 0.359562,0.17051 0.0162,0 0.03241,-8.29e-4 0.04871,-0.0026 z m 1.004608,-2.708448 5.021832,-0.676698 c 0.249555,-0.03362 0.426326,-0.259587 0.397898,-0.508582 l -0.133713,-1.16833 c -0.02889,-0.252679 -0.257981,-0.434059 -0.512443,-0.405503 -0.254092,0.02874 -0.436512,0.257009 -0.407621,0.50978 l 0.08251,0.720269 -3.86666,0.521019 0.296317,-1.01127 c 0.07149,-0.244204 -0.06945,-0.499831 -0.314929,-0.571038 -0.245203,-0.07102 -0.502442,0.06909 -0.574021,0.313293 l -0.495683,1.691651 c -0.04389,0.149692 -0.0086,0.311266 0.09362,0.429453 0.08862,0.102343 0.217053,0.160009 0.350858,0.160009 0.02056,1.84e-4 0.0413,-0.0012 0.06204,-0.004 z m 1.082019,-2.66331 3.634143,-0.422913 c 0.123805,-0.01446 0.236684,-0.07793 0.3128,-0.176221 0.07612,-0.09829 0.10936,-0.222833 0.09186,-0.345719 l -0.198254,-1.395676 c -0.03574,-0.25185 -0.270945,-0.427703 -0.523184,-0.391593 -0.253166,0.03556 -0.429475,0.268615 -0.393639,0.520465 l 0.131861,0.92864 -2.524158,0.293672 0.115934,-0.550036 c 0.0525,-0.248994 -0.107878,-0.493106 -0.358081,-0.545337 -0.250573,-0.05223 -0.495776,0.107317 -0.548187,0.356219 l -0.248073,1.176437 c -0.03056,0.144993 0.01083,0.29579 0.111304,0.405226 0.08825,0.09608 0.212515,0.149876 0.341784,0.149876 0.01796,9.2e-5 0.03593,-0.001 0.05389,-0.003 z M 9.8621224,39.354409 c 0.0044,-0.254337 -0.199181,-0.464089 -0.454847,-0.468511 l -4.272336,-0.07397 0.511703,-1.63767 1.024979,-0.03215 c 0.198069,-0.0061 0.370211,-0.136979 0.428178,-0.325452 l 0.75459,-2.452084 0.73394,0.02846 c 0.208348,0.0093 0.394287,-0.12178 0.458365,-0.317899 l 0.652916,-1.99868 1.2400866,0.03298 c 0.225849,0.0062 0.419011,-0.147573 0.46531,-0.364879 l 0.516889,-2.426291 h 0.880338 c 0.201126,0 0.379194,-0.129149 0.440772,-0.319556 l 0.693197,-2.144687 0.930065,-0.03132 c 0.20131,-0.0067 0.375119,-0.14223 0.429937,-0.335125 l 0.697642,-2.456045 h 0.872097 c 0.201681,0 0.38012,-0.129886 0.441235,-0.32103 l 0.7895,-2.470323 h 0.883765 c 0.199922,0 0.377249,-0.127676 0.439753,-0.316517 l 0.7332,-2.214973 0.828576,-0.09359 c 0.189087,-0.02137 0.345765,-0.155679 0.395028,-0.338625 l 0.619303,-2.302761 8.441516,-1.659502 0.05195,1.063131 -1.944488,0.207358 c -0.254277,0.02708 -0.438271,0.254153 -0.410954,0.507108 0.02732,0.252956 0.25548,0.435349 0.509758,0.408819 l 2.378685,-0.253692 c 0.243813,-0.02607 0.424937,-0.236651 0.413084,-0.480303 l -0.09908,-2.030092 c -0.0066,-0.133755 -0.0713,-0.258022 -0.177327,-0.340468 -0.106026,-0.08254 -0.243073,-0.114963 -0.374934,-0.08898 l -9.250647,1.81859 c -0.173253,0.03408 -0.311874,0.16314 -0.357525,0.332821 l -0.612357,2.276692 -0.809872,0.09147 c -0.179642,0.02036 -0.330949,0.142782 -0.387527,0.313569 l -0.721254,2.17877 h -0.887377 c -0.201681,0 -0.38012,0.129886 -0.441235,0.321031 l -0.789407,2.470323 h -0.883765 c -0.207237,0 -0.389195,0.136979 -0.445587,0.335309 l -0.700976,2.467744 -0.917563,0.03086 c -0.195202,0.0065 -0.365307,0.134308 -0.425126,0.319281 l -0.689585,2.13354 h -0.918027 c -0.218719,0 -0.407621,0.152271 -0.452995,0.365063 l -0.514758,2.416158 -1.2004536,-0.03206 c -0.201496,-0.0044 -0.38938,0.123898 -0.452717,0.318083 l -0.65162,1.994535 -0.740237,-0.02865 c -0.209181,-0.0086 -0.399194,0.125464 -0.46068,0.32536 l -0.761998,2.476127 -1.023497,0.03206 c -0.197329,0.0061 -0.369008,0.13615 -0.427623,0.323609 l -0.792833,2.537662 c -0.04324,0.138453 -0.01843,0.289158 0.06695,0.406608 0.08538,0.11745 0.221404,0.188104 0.367155,0.190591 l 4.889694,0.08456 c 0.0028,9.2e-5 0.0055,9.2e-5 0.0082,9.2e-5 0.251962,9.2e-5 0.458365,-0.200909 0.46281,-0.452483 z M 42.873782,36.451316 c 0.09575,-0.12657 0.119361,-0.293211 0.06269,-0.441152 l -0.892006,-2.326067 c -0.09112,-0.237664 -0.358729,-0.356864 -0.597635,-0.26622 -0.238906,0.09064 -0.358729,0.356864 -0.267611,0.594528 l 0.629488,1.641355 -6.702506,-0.562287 c -0.254647,-0.02017 -0.478737,0.166826 -0.50022,0.420242 -0.02148,0.253416 0.167697,0.476249 0.422437,0.49762 l 7.436538,0.623822 c 0.01306,0.0011 0.02602,0.0017 0.03898,0.0017 0.144547,9.2e-5 0.281871,-0.06734 0.36984,-0.183499 z m -1.557979,-2.869377 c 0.101211,-0.128781 0.126028,-0.301318 0.06547,-0.453312 l -0.792834,-1.987902 c -0.09436,-0.236559 -0.364007,-0.352167 -0.601061,-0.258299 -0.237701,0.09387 -0.353912,0.361563 -0.259647,0.597937 l 0.501424,1.257224 -6.057276,-0.806399 c -0.253351,-0.03399 -0.486423,0.143427 -0.520314,0.395461 -0.03389,0.252127 0.144084,0.483895 0.397528,0.51761 l 6.840479,0.910677 c 0.02056,0.0027 0.04102,0.004 0.06149,0.004 0.141307,9.2e-5 0.276409,-0.06439 0.364748,-0.17705 z m -1.639929,-3.020175 c 0.109545,-0.120766 0.146955,-0.289894 0.09834,-0.445205 l -0.594671,-1.903062 c -0.07593,-0.242915 -0.335672,-0.378604 -0.579578,-0.303067 -0.244184,0.07544 -0.380582,0.33365 -0.304651,0.576565 l 0.362988,1.161513 -5.135636,-1.028495 c -0.250666,-0.05002 -0.49485,0.111278 -0.545224,0.360641 -0.05047,0.249363 0.111767,0.492278 0.362526,0.542482 l 5.900783,1.181687 c 0.03037,0.0061 0.06093,0.009 0.0913,0.009 0.129732,0 0.255111,-0.05426 0.343821,-0.152086 z m -1.33565,-2.987841 c 0.121768,-0.122793 0.164364,-0.30316 0.110286,-0.467037 L 37.822782,25.20364 c -0.07973,-0.241625 -0.341228,-0.372985 -0.584301,-0.29404 -0.24298,0.07931 -0.375304,0.339546 -0.295576,0.581263 l 0.347246,1.05263 -4.337803,-1.350631 c -0.244276,-0.07581 -0.503739,0.05942 -0.580133,0.301962 -0.07639,0.242823 0.05954,0.501121 0.303539,0.57721 l 5.196475,1.617958 c 0.04537,0.01409 0.09195,0.021 0.138157,0.021 0.122231,0 0.241499,-0.04799 0.329838,-0.137072 z m -1.654837,-8.923544 c 0.250202,-0.05232 0.410399,-0.296619 0.357617,-0.545522 l -0.429567,-2.030092 c -0.03019,-0.142875 -0.126675,-0.262996 -0.260111,-0.323886 l -5.286202,-2.410723 c -0.232517,-0.105936 -0.507258,-0.0044 -0.61384,0.226794 -0.106489,0.231216 -0.0044,0.504621 0.227979,0.610557 l 5.074058,2.313999 0.381509,1.803022 c 0.04584,0.216937 0.238257,0.3658 0.452624,0.3658 0.03158,9.2e-5 0.06371,-0.0032 0.09593,-0.0099 z m -1.648264,-4.430866 c -0.08343,0 -0.166863,-0.02248 -0.240665,-0.06715 l -4.086397,-2.47364 -6.377575,1.887218 c -0.127417,0.03777 -0.265019,0.01907 -0.377805,-0.05113 -0.112693,-0.07019 -0.18955,-0.185249 -0.211126,-0.31578 l -0.495683,-3.002856 c -0.03621,-0.2193322 0.09028,-0.4332302 0.30067,-0.5082142 l 7.235506,-2.579851 c 0.141862,-0.05057 0.299836,-0.0292 0.423178,0.0573 l 4.096768,2.8759182 c 0.122879,0.08631 0.196032,0.22661 0.196032,0.376301 v 3.341205 c 0,0.166457 -0.09028,0.319926 -0.236127,0.40145 -0.07047,0.03952 -0.148622,0.05923 -0.226776,0.05923 z m -4.262057,-3.501122 c 0.08408,0 0.167419,0.02275 0.240665,0.06715 l 3.558304,2.153899 v -2.283048 l -3.704055,-2.6003022 -6.645835,2.3696392 0.347987,2.108208 6.070888,-1.796389 c 0.04334,-0.01281 0.08778,-0.01916 0.132046,-0.01916 z m 0.562169,3.043204 0.03306,-5.5827082 c 0.0015,-0.254337 -0.204551,-0.461786 -0.46031,-0.46326 -9.26e-4,0 -0.0019,0 -0.0028,0 -0.254462,0 -0.461421,0.204409 -0.462996,0.457918 l -0.03306,5.5827072 c -0.0015,0.254337 0.204551,0.461787 0.46031,0.463261 9.26e-4,0 0.0019,0 0.0028,0 0.254462,0 0.461514,-0.204502 0.462996,-0.457918 z m -0.562169,-0.467959 m 0,-1.353394 m -5.682157,2.537661 v -1.057328 c 0,-0.254337 -0.207329,-0.460589 -0.462995,-0.460589 -0.255666,0 -0.462995,0.206252 -0.462995,0.460589 v 1.057328 c 0,0.254337 0.207329,0.460589 0.462995,0.460589 0.255666,0 0.462995,-0.206252 0.462995,-0.460589 z m 10.076816,0.592041 v -0.8882 c 0,-0.254337 -0.207236,-0.460589 -0.462995,-0.460589 -0.255759,0 -0.462996,0.206252 -0.462996,0.460589 v 0.8882 c 0,0.254337 0.207237,0.460589 0.462996,0.460589 0.255759,0 0.462995,-0.20616 0.462995,-0.460589 z m -0.07862,-3.351246 c 0.134083,-0.216661 0.06639,-0.500384 -0.1514,-0.63377 L 31.08138,8.7205398 c -0.117231,-0.07176 -0.260574,-0.08797 -0.391046,-0.04412 l -6.852332,2.3029452 c -0.242239,0.08143 -0.372341,0.34277 -0.290483,0.58375 0.08176,0.240981 0.344469,0.370314 0.586801,0.288974 l 6.646391,-2.2337652 3.673219,2.2509912 c 0.07565,0.04633 0.159548,0.06854 0.242332,0.06844 0.155567,0 0.307337,-0.07784 0.394843,-0.219057 z m -23.41173,27.923763 v -2.368533 c 0,-0.254429 -0.20733,-0.460589 -0.462996,-0.460589 -0.255666,0 -0.462996,0.20616 -0.462996,0.460589 v 2.368533 c 0,0.25443 0.20733,0.460589 0.462996,0.460589 0.255666,0 0.462996,-0.206159 0.462996,-0.460589 z m 5.649468,0.549852 v -2.918385 c 0,-0.254429 -0.207329,-0.460589 -0.462995,-0.460589 -0.255666,0 -0.462995,0.20616 -0.462995,0.460589 v 2.918385 c 0,0.254429 0.207329,0.460589 0.462995,0.460589 0.255666,0 0.462995,-0.206252 0.462995,-0.460589 z m -1.784106,-0.495594 c 0.0068,-0.254337 -0.195013,-0.46584 -0.45068,-0.472472 l -3.237911,-0.08447 c -0.254184,-0.006 -0.468273,0.194 -0.474941,0.448337 -0.0068,0.254245 0.195014,0.46584 0.45068,0.472472 l 3.237911,0.08447 c 0.0041,9.2e-5 0.0082,1.84e-4 0.01232,1.84e-4 0.25011,0 0.456051,-0.198329 0.462625,-0.448521 z m 35.317748,0.237203 c -0.153714,0 -0.298353,-0.07609 -0.384656,-0.204409 L 34.487085,15.960539 c -0.142233,-0.21141 -0.08528,-0.497436 0.127231,-0.638929 0.212793,-0.141677 0.500128,-0.08475 0.64236,0.126662 l 4.01667,5.970431 h 0.78561 c 0.200014,0 0.377434,0.12786 0.439938,0.316886 l 0.834596,2.529002 0.727273,0.0304 c 0.197976,0.0083 0.368544,0.140848 0.424659,0.329874 l 0.643656,2.171124 0.625785,-0.0061 c 0.0016,0 0.0031,0 0.0046,0 0.220756,0 0.411047,0.155219 0.454013,0.371051 l 0.35558,1.785888 h 0.842189 c 0.20807,0 0.390676,0.138177 0.446142,0.337704 l 0.7382,2.651611 0.545501,0.01382 c 0.193069,0.0049 0.362803,0.128504 0.425863,0.310068 l 0.685141,1.973624 h 0.694307 c 0.198996,0 0.375767,0.126478 0.43892,0.314214 l 0.621062,1.842725 h 0.757182 c 0.209645,0 0.393083,0.140111 0.447254,0.341573 l 0.693752,2.579851 c 0.03574,0.13265 0.0099,0.274419 -0.07019,0.38625 -0.0801,0.111831 -0.20631,0.182301 -0.344005,0.192158 l -0.594672,0.04237 c -0.0112,7.37e-4 -0.02222,0.0011 -0.03324,0.0011 z m -0.897007,-2.622225 0.737366,1.095925 -0.294742,-1.095925 z m -1.45112,-2.156939 0.198069,0.294317 -0.09917,-0.294317 z m -3.556634,-5.286733 0.17279,0.256917 -0.07149,-0.256917 z m -34.469077,7.102283 c 0.01926,-0.2536 -0.171772,-0.474775 -0.426696,-0.493936 L 6.6919924,36.222588 c -0.254369,-0.0187 -0.477348,0.170878 -0.496608,0.424479 -0.01926,0.2536 0.171771,0.474775 0.426696,0.493935 l 3.369958,0.253785 c 0.01185,9.21e-4 0.02371,0.0014 0.03547,0.0014 0.239738,0 0.442715,-0.184052 0.461143,-0.425861 z m 1.652523,-2.842756 c 0.01417,-0.253968 -0.181309,-0.471274 -0.436697,-0.485368 L 8.6318504,33.472871 c -0.254833,-0.01538 -0.473737,0.180367 -0.487905,0.434428 -0.01417,0.253969 0.181309,0.471275 0.436698,0.485369 l 3.0726226,0.169312 c 0.0087,5.53e-4 0.01741,7.37e-4 0.02602,7.37e-4 0.243999,-9.2e-5 0.448272,-0.189855 0.461884,-0.435165 z m 1.421396,-2.478521 c 0,-0.25443 -0.20733,-0.460589 -0.462996,-0.460589 h -2.147465 c -0.255666,0 -0.462995,0.206159 -0.462995,0.460589 0,0.254429 0.207329,0.460589 0.462995,0.460589 h 2.147465 c 0.255666,0 0.462996,-0.206252 0.462996,-0.460589 z m 1.618261,-2.684774 c 0.01232,-0.254061 -0.184735,-0.469985 -0.440124,-0.482236 l -1.782254,-0.08548 c -0.25687,-0.01234 -0.472441,0.183775 -0.484756,0.437835 -0.01232,0.254061 0.184735,0.469986 0.440123,0.482237 l 1.782254,0.08549 c 0.0076,3.69e-4 0.01519,5.53e-4 0.02269,5.53e-4 0.24548,9.2e-5 0.450125,-0.191789 0.46207,-0.438389 z m 1.420932,-2.54457 c 0.0084,-0.254245 -0.191864,-0.467129 -0.44753,-0.475512 l -1.288424,-0.04219 c -0.255574,-0.008 -0.46957,0.190868 -0.477996,0.445205 -0.0084,0.254245 0.191864,0.46713 0.447531,0.475512 l 1.288424,0.04219 c 0.0052,1.85e-4 0.01037,2.77e-4 0.01546,2.77e-4 0.248721,0 0.45429,-0.196303 0.462531,-0.445482 z m 17.380846,-7.277122 c 0.137417,-0.116345 0.194458,-0.301502 0.145936,-0.474407 l -0.627729,-2.241503 c -0.0375,-0.134123 -0.13399,-0.244112 -0.262518,-0.299291 l -1.66058,-0.712991 c -0.234738,-0.100685 -0.507257,0.0068 -0.60856,0.240335 -0.101304,0.233611 0.0069,0.504621 0.241591,0.605398 l 1.457509,0.625756 0.299743,1.070409 -0.978402,-0.449258 c -0.232146,-0.106673 -0.507258,-0.0059 -0.614394,0.225136 -0.107137,0.230939 -0.0058,0.504621 0.226311,0.611201 l 1.886985,0.866461 c 0.06204,0.02856 0.128249,0.04237 0.193994,0.04237 0.107971,1.84e-4 0.214737,-0.03731 0.300114,-0.10962 z m 1.295091,2.701078 c 0.134269,-0.118095 0.187883,-0.302699 0.137787,-0.473946 l -0.49559,-1.691744 c -0.07158,-0.244204 -0.328634,-0.384776 -0.574022,-0.313292 -0.24548,0.07111 -0.386601,0.326834 -0.315022,0.571038 l 0.220849,0.7538 -1.99551,-0.853656 c -0.235109,-0.100593 -0.507351,0.0075 -0.608284,0.241165 -0.101025,0.233702 0.0075,0.504621 0.242425,0.605029 l 2.89761,1.23963 c 0.05889,0.02515 0.12112,0.03749 0.182883,0.03749 0.111027,0 0.220664,-0.0397 0.306874,-0.115516 z m 1.701322,2.903093 c 0.127139,-0.123162 0.172235,-0.307858 0.116212,-0.47542 l -0.594671,-1.7764 c -0.08084,-0.241441 -0.342987,-0.371972 -0.585597,-0.291461 -0.242609,0.08033 -0.373729,0.341204 -0.292983,0.582461 l 0.292613,0.874014 -3.313287,-1.193387 c -0.240388,-0.08659 -0.505962,0.03712 -0.592912,0.276262 -0.08704,0.239138 0.03722,0.503239 0.277704,0.58983 l 4.212239,1.51718 c 0.05139,0.01852 0.10473,0.02754 0.157512,0.02754 0.118712,9.2e-5 0.235201,-0.04532 0.32317,-0.130623 z m 7.274305,14.742626 c 0.24335,-0.07812 0.376971,-0.337704 0.29854,-0.57979 l -0.617358,-1.903706 c -0.07862,-0.242178 -0.339746,-0.37492 -0.582819,-0.296988 -0.24335,0.07812 -0.376971,0.337704 -0.298539,0.579789 l 0.617358,1.903707 c 0.06334,0.195105 0.245017,0.31928 0.440587,0.31928 0.04713,0 0.09501,-0.0072 0.142231,-0.02229 z m -27.302558,1.15571 2.279697,-0.423005 c 0.251314,-0.04661 0.417066,-0.287132 0.370211,-0.537231 -0.04686,-0.250008 -0.288631,-0.41453 -0.540038,-0.368287 l -2.279697,0.423005 c -0.251313,0.04661 -0.417065,0.287131 -0.37021,0.537231 0.04148,0.221451 0.235942,0.376209 0.454568,0.376209 0.02824,0 0.05676,-0.0027 0.08547,-0.0079 z m 21.44113,-19.472507 c 0.251499,-0.04597 0.417992,-0.286026 0.371785,-0.536218 l -0.363822,-1.970124 c -0.04185,-0.226425 -0.247702,-0.389197 -0.476607,-0.376854 l -0.925065,0.04228 c -0.255481,0.0117 -0.453087,0.227163 -0.441327,0.481224 0.01185,0.254061 0.226683,0.450548 0.48383,0.438941 l 0.521519,-0.02386 0.29076,1.574754 c 0.04102,0.222096 0.235757,0.377499 0.454847,0.377499 0.02769,0 0.05584,-0.0025 0.08408,-0.0076 z m 17.197406,4.453343 C 55.289095,23.907174 54.812951,22.234222 54.208742,20.599039 52.974396,17.25894 51.308539,14.127947 49.50545,11.064478 49.186631,10.522733 48.772806,10.074211 48.277865,9.6882378 47.748846,9.2757338 47.205937,8.8831278 46.654695,8.5011148 45.965481,8.0234848 45.29497,7.5237448 44.663722,6.9691958 43.766808,6.1813128 42.77322,5.5328028 41.680088,5.0402488 40.895311,4.6867008 40.163222,4.2426928 39.43632,3.7834858 38.171046,2.9843638 36.859473,2.2830708 35.350942,2.0291028 34.78192,1.9333028 34.26281,1.6703038 33.742032,1.4284018 32.191831,0.70804086 30.570422,0.30520986 28.85095,0.28687786 c -1.2687,-0.01345 -2.534437,0.02091 -3.79971,0.10262 -0.79913,0.05168 -1.565481,0.219608 -2.289419,0.579697 -0.564207,0.28068294 -1.159989,0.49227794 -1.771514,0.64878594 -0.81413,0.208462 -1.606871,0.477078 -2.380443,0.801885 -1.055908,0.443363 -2.090332,0.922652 -2.988543,1.653515 -0.334653,0.272392 -0.713476,0.461326 -1.17036,0.502042 -0.651897,0.05803 -1.202399,0.382934 -1.719935,0.763104 -0.263445,0.193631 -0.476607,0.441336 -0.720328,0.655971 -0.202329,0.178156 -0.411418,0.354653 -0.680511,0.420333 -0.136769,0.03344 -0.261314,0.08171 -0.375211,0.158904 -1.1901756,0.806215 -2.2159886,1.777136 -3.0145626,2.97651 -0.554113,0.8322852 -1.002477,1.7254592 -1.510569,2.5841812 -0.170474,0.28796 -0.344376,0.573618 -0.559483,0.831916 -0.171679,0.20616 -0.375952,0.348113 -0.655509,0.373722 -0.260574,0.02377 -0.452717,0.165904 -0.590226,0.385237 -0.113527,0.181011 -0.202329,0.373998 -0.28252,0.570946 -0.283075,0.695673 -0.631618,1.348052 -1.072946,1.965794 -0.698752,0.978014 -1.181842,2.075322 -1.550386,3.216846 -0.234183,0.725427 -0.260666,1.506678 -0.584022,2.209906 -0.51846196,1.994166 -0.69634496,4.014218 -0.47614496,6.066418 0.153622,1.431511 0.42614096,2.840545 0.77616596,4.23613 0.206681,0.823901 0.443179,1.640802 0.571151,2.483219 0.07852,0.517334 0.109545,1.035681 0.110841,1.558173 6.48e-4,0.27534 0.03871,0.548285 0.261685,0.738232 l 0.270852,-0.867013 c 0.284465,-0.910584 1.013404,-1.594835 1.90856,-1.842448 l 0.301502,-0.979949 c 0.146307,-0.47542 0.412992,-0.8882 0.760053,-1.210428 -0.03834,-0.173919 -0.07621,-0.347929 -0.113248,-0.522216 -0.239924,-1.128812 -0.440587,-2.264532 -0.56717,-3.412412 -0.08926,-0.81036 -0.0588,-1.61722 0.05047,-2.423251 0.222608,-1.642921 0.573929,-3.257009 1.100169,-4.831211 0.178161,-0.532809 0.377897,-1.057788 0.646157,-1.553935 0.07723,-0.142875 0.162696,-0.280591 0.267611,-0.40541 0.315393,-0.375565 0.562632,-0.792951 0.763295,-1.238248 0.112507,-0.249731 0.229275,-0.496515 0.397619,-0.715295 0.09028,-0.117266 0.189273,-0.222004 0.322986,-0.295145 0.122694,-0.06706 0.201496,-0.184236 0.28465,-0.292843 0.197791,-0.258298 0.372989,-0.53198 0.520499,-0.820862 0.8152426,-1.597599 1.8700376,-3.035281 2.9860426,-4.431603 0.786536,-0.9840952 1.624558,-1.9224072 2.546103,-2.7848132 0.163252,-0.152824 0.333264,-0.297541 0.511055,-0.433507 0.293353,-0.224307 0.620136,-0.35539 0.991366,-0.394633 0.465031,-0.04919 0.877005,-0.224122 1.242216,-0.527098 0.942473,-0.78208 1.990231,-1.404428 3.083086,-1.952437 1.183138,-0.59333 2.402112,-1.098597 3.698407,-1.393374 1.278607,-0.290723 2.577588,-0.357785 3.884253,-0.306383 0.931825,0.03666 1.855685,0.138545 2.767138,0.344336 0.664398,0.15006 1.284719,0.409003 1.895688,0.701846 1.09415,0.524334 2.231638,0.955538 3.308472,1.518654 0.587078,0.306936 1.109245,0.715663 1.688636,1.033562 1.807628,0.991832 3.440519,2.233396 5.041094,3.5182552 0.444105,0.356496 0.865987,0.742377 1.3863,0.985568 0.456607,0.213437 0.834318,0.519729 1.170175,0.884792 0.279742,0.304081 0.501147,0.650812 0.711995,1.003163 0.808111,1.349802 1.516217,2.747874 2.049125,4.229957 0.110193,0.306569 0.150473,0.629073 0.230479,0.942274 0.09065,0.354469 0.197142,0.701108 0.492997,0.954985 0.127046,0.109067 0.1614,0.271839 0.208625,0.429361 0.1539,0.514109 0.369656,1.006018 0.569948,1.503455 0.362803,0.90082 0.768665,1.784229 1.087668,2.70292 0.250758,0.72202 0.307244,1.461357 0.253166,2.215986 -0.09075,1.267449 -0.197606,2.533701 -0.325393,3.797925 -0.08399,0.830995 -0.165196,1.662819 -0.289186,2.488563 0.503275,0.332177 0.896729,0.826112 1.098039,1.423865 l 0.14964,0.4441 c 0.826169,0.305094 1.479363,0.992477 1.71725,1.876992 l 0.262703,0.976818 c 0.08964,-0.216846 0.170938,-0.436915 0.238721,-0.662143 0.287335,-0.953972 0.570318,-1.909418 0.841448,-2.868088 0.20668,-0.730494 0.398083,-1.466516 0.436882,-2.229527 0.02278,-0.44843 0.08788,-0.890595 0.252054,-1.306139 0.263815,-0.667854 0.354192,-1.357632 0.341136,-1.987073 0.0024,-0.872816 -0.09445,-1.656278 -0.23048,-2.43495 z m -4.528187,16.603958 c -0.04787,0.0033 -0.09575,0.0056 -0.143621,0.0064 l -2.147465,0.04219 c -0.01834,3.68e-4 -0.03667,5.52e-4 -0.05491,5.52e-4 -0.09065,0 -0.181309,-0.0044 -0.271685,-0.01326 L 46.245038,42.05093 c -1.100911,1.363804 -2.314051,2.621672 -3.671739,3.742378 -0.223534,0.184604 -0.465866,0.342217 -0.719679,0.483987 -0.353729,0.197777 -0.676714,0.44456 -0.920528,0.764854 -0.437345,0.574354 -0.983957,1.022968 -1.572147,1.42672 -1.189991,0.816993 -2.454708,1.488532 -3.831379,1.945529 -1.086835,0.360733 -2.202191,0.528756 -3.344771,0.534928 -0.56504,0.003 -1.130079,5.52e-4 -1.695118,5.52e-4 -0.967291,0.01216 -1.934395,0.0029 -2.899926,-0.06236 -0.182513,-0.01234 -0.364192,-0.0374 -0.545963,-0.05905 -0.03991,-0.0047 -0.08658,-0.0091 -0.116768,-0.0315 -0.350024,-0.25922 -0.771536,-0.295054 -1.177953,-0.376946 C 24.20433,50.109124 22.67589,49.725085 21.136152,49.393369 20.142564,49.179287 19.252779,48.758769 18.415129,48.2103 17.39802,47.544288 16.341095,46.95022 15.245184,46.423491 14.919698,46.267075 14.60551,46.090024 14.304471,45.890589 14.010561,45.695852 13.744431,45.48131 13.561548,45.165069 13.38774,44.864581 13.12411,44.629681 12.844275,44.425916 12.207009,43.961826 11.697807,43.377247 11.246386,42.743937 11.165086,42.629895 11.08156,42.51788 10.997943,42.405865 H 9.8288804 c -0.446883,0 -0.88534,-0.107226 -1.278979,-0.310345 l -3.545896,-0.06135 c 0.60319,1.128351 1.361947,2.135015 2.33183,2.990697 0.739032,0.65201 1.485011,1.2949 2.254695,1.9108 0.5632786,0.450824 1.1635986,0.853655 1.7244716,1.306414 0.770702,0.622072 1.428063,1.355606 2.021623,2.144779 0.505498,0.672092 1.140913,1.173397 1.912448,1.513864 1.663357,0.733811 3.321252,1.479873 4.985164,2.212486 0.990162,0.435901 2.0044,0.812571 3.019192,1.187951 0.395399,0.146283 0.795797,0.311082 1.097207,0.611847 0.214645,0.213989 0.456606,0.328123 0.738848,0.390026 0.557631,0.122425 1.122393,0.125096 1.686415,0.07664 0.611986,-0.0526 1.202028,-0.178524 1.736695,-0.513649 0.311503,-0.195197 0.670232,-0.299106 1.040813,-0.31753 0.418826,-0.02091 0.831447,-0.07885 1.235272,-0.18313 0.905989,-0.233887 1.814942,-0.456904 2.743248,-0.578592 0.882931,-0.115884 1.737343,-0.326557 2.558789,-0.666656 2.038476,-0.844076 4.025745,-1.795929 5.970696,-2.834373 1.009793,-0.539166 2.002826,-1.107533 2.791213,-1.962294 0.08899,-0.09645 0.196403,-0.183775 0.325394,-0.219609 0.112045,-0.03104 0.205107,-0.08604 0.293817,-0.154297 0.35558,-0.273221 0.672917,-0.587988 0.989142,-0.903583 1.542794,-1.539381 2.882702,-3.247153 4.181219,-4.989009 0.205107,-0.274971 0.402158,-0.554457 0.589578,-0.839285 z"
   id="path2"
   inkscape:connector-curvature="0"
   style="fill:#cb0a1d;stroke-width:0.09235813" />
</svg>