<?xml version="1.0" encoding="UTF-8" standalone="no"?>
<!-- Generator: Adobe Illustrator 16.0.0, SVG Export Plug-In . SVG Version: 6.00 Build 0)  -->

<svg
   xmlns:dc="http://purl.org/dc/elements/1.1/"
   xmlns:cc="http://creativecommons.org/ns#"
   xmlns:rdf="http://www.w3.org/1999/02/22-rdf-syntax-ns#"
   xmlns:svg="http://www.w3.org/2000/svg"
   xmlns="http://www.w3.org/2000/svg"
   xmlns:sodipodi="http://sodipodi.sourceforge.net/DTD/sodipodi-0.dtd"
   xmlns:inkscape="http://www.inkscape.org/namespaces/inkscape"
   version="1.1"
   id="Layer_1"
   x="0px"
   y="0px"
   width="56.693px"
   height="56.694px"
   viewBox="0 0 56.693 56.694"
   enable-background="new 0 0 56.693 56.694"
   xml:space="preserve"
   sodipodi:docname="Climat-Tempere.svg"
   inkscape:version="0.92.0 r15299"><metadata
   id="metadata41"><rdf:RDF><cc:Work
       rdf:about=""><dc:format>image/svg+xml</dc:format><dc:type
         rdf:resource="http://purl.org/dc/dcmitype/StillImage" /></cc:Work></rdf:RDF></metadata><defs
   id="defs39">
	
	
	
	
	
	

		
	
		
	
		
	
		
	
		
	
		
	
	
	
</defs><sodipodi:namedview
   pagecolor="#ffffff"
   bordercolor="#666666"
   borderopacity="1"
   objecttolerance="10"
   gridtolerance="10"
   guidetolerance="10"
   inkscape:pageopacity="0"
   inkscape:pageshadow="2"
   inkscape:window-width="1280"
   inkscape:window-height="961"
   id="namedview37"
   showgrid="false"
   inkscape:zoom="4.162698"
   inkscape:cx="-3.8441608"
   inkscape:cy="28.347"
   inkscape:window-x="-8"
   inkscape:window-y="-8"
   inkscape:window-maximized="1"
   inkscape:current-layer="Layer_1" />

<path
   style="fill:#bd0c27"
   d="M 28.851562 0.28515625 C 27.582562 0.27115625 26.317734 0.30667186 25.052734 0.38867188 C 24.253734 0.44067186 23.487672 0.60875 22.763672 0.96875 C 22.199672 1.24975 21.602234 1.4611875 20.990234 1.6171875 C 20.176234 1.8251875 19.385328 2.0949219 18.611328 2.4199219 C 17.555328 2.8629219 16.521047 3.3422656 15.623047 4.0722656 C 15.288047 4.3452656 14.908172 4.5332187 14.451172 4.5742188 C 13.800172 4.6322187 13.249422 4.9578906 12.732422 5.3378906 C 12.468422 5.5308906 12.256672 5.7781875 12.013672 5.9921875 C 11.810672 6.1711875 11.601031 6.3471094 11.332031 6.4121094 C 11.195031 6.4461094 11.070031 6.4942656 10.957031 6.5722656 C 9.7650314 7.3782656 8.7404062 8.3507813 7.9414062 9.5507812 C 7.3864063 10.382781 6.9386875 11.274814 6.4296875 12.132812 C 6.2606875 12.420814 6.0860937 12.706844 5.8710938 12.964844 C 5.6990937 13.171844 5.4957969 13.314844 5.2167969 13.339844 C 4.9557969 13.363844 4.7639531 13.505609 4.6269531 13.724609 C 4.5129531 13.905609 4.42375 14.098922 4.34375 14.294922 C 4.06075 14.990922 3.7115314 15.642766 3.2695312 16.259766 C 2.5705313 17.238766 2.08775 18.336516 1.71875 19.478516 C 1.48475 20.203516 1.4577656 20.9845 1.1347656 21.6875 C 0.61676565 23.6825 0.43820313 25.701906 0.65820312 27.753906 C 0.81220313 29.186906 1.0855469 30.593234 1.4355469 31.990234 C 1.6425469 32.813234 1.8778594 33.632656 2.0058594 34.472656 C 2.0848594 34.991656 2.1161875 35.50825 2.1171875 36.03125 C 2.1181875 36.32825 2.1625 36.624406 2.4375 36.816406 C 2.5695 36.906406 2.673625 37.019438 2.765625 37.148438 C 2.988625 37.463437 3.1656406 37.806969 3.3066406 38.167969 C 3.7816406 39.383969 4.2723281 40.591766 4.8613281 41.759766 C 5.4853281 42.999766 6.2879375 44.100391 7.3359375 45.025391 C 7.6079375 45.264391 7.8910156 45.492516 8.1660156 45.728516 C 8.0050156 45.329516 7.9267969 44.899984 7.9667969 44.458984 C 8.0327969 43.727984 8.3793594 43.065703 8.9433594 42.595703 L 9.3769531 42.232422 C 9.1159531 42.075422 8.871875 41.888437 8.671875 41.648438 C 8.072875 40.927436 7.9085314 39.988484 8.1445312 39.146484 C 8.0405313 38.945484 7.9497187 38.734812 7.8867188 38.507812 C 7.7987187 38.189813 7.6887812 37.879078 7.5507812 37.580078 C 7.4447813 37.350078 7.3306719 37.126266 7.1386719 36.947266 C 7.0146719 36.832266 6.9292031 36.680766 6.9082031 36.509766 C 6.8542031 36.047766 6.7039219 35.612641 6.5449219 35.181641 C 6.0849219 33.933641 5.7838125 32.643656 5.5078125 31.347656 C 5.2678125 30.217656 5.0674063 29.083547 4.9414062 27.935547 C 4.8524063 27.124547 4.8812344 26.317719 4.9902344 25.511719 C 5.2132344 23.868719 5.5647969 22.255641 6.0917969 20.681641 C 6.2697969 20.148641 6.4702812 19.623953 6.7382812 19.126953 C 6.8152812 18.983953 6.9008594 18.844703 7.0058594 18.720703 C 7.3208594 18.345703 7.5685312 17.927422 7.7695312 17.482422 C 7.8825312 17.233422 7.9980156 16.986578 8.1660156 16.767578 C 8.2570156 16.649578 8.3542813 16.545656 8.4882812 16.472656 C 8.6112813 16.405656 8.6894375 16.289641 8.7734375 16.181641 C 8.9714375 15.923641 9.1469219 15.648375 9.2949219 15.359375 C 10.109922 13.761375 11.16525 12.323734 12.28125 10.927734 C 13.06825 9.9437348 13.905172 9.0055781 14.826172 8.1425781 C 14.989172 7.9895781 15.159891 7.8449844 15.337891 7.7089844 C 15.631891 7.4849844 15.958078 7.3544531 16.330078 7.3144531 C 16.795078 7.2654531 17.207266 7.0901094 17.572266 6.7871094 C 18.514266 6.0051094 19.561297 5.3829844 20.654297 4.8339844 C 21.837297 4.2409844 23.057516 3.7364062 24.353516 3.4414062 C 25.631516 3.1504064 26.930328 3.0837656 28.236328 3.1347656 C 29.168328 3.1717656 30.092859 3.2735156 31.005859 3.4785156 C 31.669859 3.6285156 32.289391 3.8886406 32.900391 4.1816406 C 33.994391 4.7056406 35.133937 5.1362186 36.210938 5.6992188 C 36.797938 6.0062188 37.318437 6.415375 37.898438 6.734375 C 39.706437 7.726375 41.337453 8.9669532 42.939453 10.251953 C 43.383453 10.607953 43.803219 10.994281 44.324219 11.238281 C 44.782219 11.451281 45.160094 11.757094 45.496094 12.121094 C 45.774094 12.425094 45.995031 12.772 46.207031 13.125 C 47.015031 14.475 47.723859 15.872516 48.255859 17.353516 C 48.366859 17.660516 48.406328 17.984875 48.486328 18.296875 C 48.577328 18.650875 48.684469 18.998953 48.980469 19.251953 C 49.105469 19.360953 49.1395 19.523641 49.1875 19.681641 C 49.3415 20.195641 49.559766 20.686594 49.759766 21.183594 C 50.120766 22.084594 50.526703 22.967719 50.845703 23.886719 C 51.096703 24.608719 51.154609 25.347562 51.099609 26.101562 C 51.009609 27.369563 50.902437 28.635391 50.773438 29.900391 C 50.637436 31.239391 50.510219 32.580531 50.199219 33.894531 C 50.085219 34.379531 49.912156 34.839391 49.660156 35.275391 C 49.350156 35.817391 49.159172 36.413047 48.951172 36.998047 C 48.641172 37.874047 48.253625 38.714813 47.765625 39.507812 C 47.624625 39.736812 47.505187 39.977078 47.367188 40.205078 C 47.270187 40.365078 47.268594 40.55575 47.183594 40.71875 C 47.042594 40.98975 46.877406 41.244328 46.691406 41.486328 C 45.474406 43.068328 44.118172 44.518969 42.576172 45.792969 C 42.351172 45.977969 42.110469 46.134391 41.855469 46.275391 C 41.501469 46.472391 41.180547 46.720016 40.935547 47.041016 C 40.498547 47.615016 39.951281 48.06475 39.363281 48.46875 C 38.173281 49.28375 36.90925 49.958062 35.53125 50.414062 C 34.44625 50.774062 33.3305 50.942219 32.1875 50.949219 C 31.6225 50.951219 31.058187 50.949219 30.492188 50.949219 C 29.524188 50.961219 28.55875 50.951719 27.59375 50.886719 C 27.41075 50.874719 27.229828 50.851125 27.048828 50.828125 C 27.008828 50.823125 26.961641 50.819875 26.931641 50.796875 C 26.581641 50.537875 26.160906 50.502922 25.753906 50.419922 C 24.209906 50.109922 22.679625 49.726531 21.140625 49.394531 C 20.145625 49.178531 19.256922 48.759937 18.419922 48.210938 C 17.962922 47.910938 17.494484 47.630375 17.021484 47.359375 C 16.793484 47.420375 16.560266 47.462891 16.322266 47.462891 C 15.506266 47.462891 14.738891 47.102609 14.212891 46.474609 C 13.999891 46.218609 13.850141 45.933719 13.744141 45.636719 C 13.614141 45.814719 13.468922 45.983906 13.294922 46.128906 L 12.474609 46.814453 C 11.980609 47.227453 11.353936 47.455078 10.710938 47.455078 C 10.540938 47.455078 10.373984 47.430436 10.208984 47.398438 C 10.582984 47.675438 10.959313 47.949188 11.320312 48.242188 C 12.091314 48.863188 12.748797 49.597719 13.341797 50.386719 C 13.847797 51.059719 14.481906 51.560391 15.253906 51.900391 C 16.916906 52.634391 18.574281 53.381234 20.238281 54.115234 C 21.228281 54.551234 22.242814 54.926734 23.257812 55.302734 C 23.652812 55.448734 24.054469 55.613062 24.355469 55.914062 C 24.569469 56.128062 24.81175 56.242688 25.09375 56.304688 C 25.65075 56.426687 26.215297 56.431859 26.779297 56.380859 C 27.391297 56.329859 27.982578 56.202188 28.517578 55.867188 C 28.829578 55.672187 29.186641 55.568781 29.556641 55.550781 C 29.975641 55.529781 30.388969 55.472186 30.792969 55.367188 C 31.697969 55.133187 32.607156 54.908109 33.535156 54.787109 C 34.418156 54.671109 35.274703 54.462094 36.095703 54.121094 C 38.133703 53.277094 40.120406 52.324109 42.066406 51.287109 C 43.075406 50.747109 44.069422 50.178219 44.857422 49.324219 C 44.946422 49.227219 45.053594 49.140469 45.183594 49.105469 C 45.294594 49.074469 45.387563 49.020172 45.476562 48.951172 C 45.831562 48.678172 46.149797 48.362828 46.466797 48.048828 C 48.007797 46.508828 49.348484 44.800594 50.646484 43.058594 C 51.363484 42.096594 51.990922 41.082078 52.419922 39.955078 C 52.689922 39.250078 53.019469 38.571484 53.355469 37.896484 C 53.588469 37.429484 53.803125 36.952125 53.953125 36.453125 C 54.241125 35.499125 54.522922 34.544938 54.794922 33.585938 C 55.001922 32.855938 55.193422 32.118469 55.232422 31.355469 C 55.255422 30.905469 55.321375 30.464828 55.484375 30.048828 C 55.749375 29.380828 55.837219 28.6925 55.824219 28.0625 C 55.822219 27.1885 55.724844 26.404 55.589844 25.625 C 55.288844 23.906 54.813984 22.233609 54.208984 20.599609 C 52.973984 17.259609 51.309859 14.128453 49.505859 11.064453 C 49.187859 10.522453 48.773344 10.0725 48.277344 9.6875 C 47.750344 9.2745 47.206297 8.883 46.654297 8.5 C 45.965297 8.022 45.294109 7.52375 44.662109 6.96875 C 43.766109 6.18075 42.773641 5.5320625 41.681641 5.0390625 C 40.895641 4.6860625 40.1635 4.24125 39.4375 3.78125 C 38.1705 2.98225 36.860516 2.2813438 35.353516 2.0273438 C 34.783516 1.9313436 34.262186 1.6707344 33.742188 1.4277344 C 32.192186 0.70673434 30.570563 0.30315625 28.851562 0.28515625 z M 30.929688 10.869141 C 29.088687 10.869141 27.516906 11.443328 26.503906 12.486328 C 25.818906 13.192328 25.395281 14.077953 25.238281 15.126953 C 24.189281 14.680953 23.170219 14.455078 22.199219 14.455078 C 18.446219 14.455078 16.18175 17.853125 15.71875 20.703125 C 15.21775 20.558125 14.719469 20.486328 14.230469 20.486328 C 11.215469 20.486328 9.1914062 23.169781 9.1914062 25.675781 C 9.1914062 26.713781 9.541125 27.610484 10.203125 28.271484 C 10.929125 28.995484 11.998922 29.378906 13.294922 29.378906 L 16.650391 29.378906 L 15.164062 30.623047 C 14.846063 30.890047 14.806266 31.362687 15.072266 31.679688 C 15.220266 31.857686 15.432484 31.949219 15.646484 31.949219 C 15.816484 31.949219 15.987906 31.890438 16.128906 31.773438 L 18.984375 29.378906 L 22.25 29.378906 L 20.771484 30.609375 C 20.453484 30.874375 20.408828 31.348016 20.673828 31.666016 C 20.821828 31.845016 21.036953 31.9375 21.251953 31.9375 C 21.420953 31.9375 21.590469 31.879719 21.730469 31.761719 L 24.595703 29.378906 L 27.875 29.378906 L 26.392578 30.617188 C 26.074578 30.883188 26.030875 31.356828 26.296875 31.673828 C 26.444875 31.851828 26.658047 31.943359 26.873047 31.943359 C 27.042047 31.943359 27.212516 31.886531 27.353516 31.769531 L 30.214844 29.378906 L 33.488281 29.378906 L 32.005859 30.619141 C 31.687859 30.885141 31.646109 31.357781 31.912109 31.675781 C 32.060109 31.852781 32.272328 31.945312 32.486328 31.945312 C 32.656328 31.945313 32.82775 31.887531 32.96875 31.769531 L 35.826172 29.378906 L 39.099609 29.378906 L 37.619141 30.615234 C 37.300141 30.881234 37.258437 31.353875 37.523438 31.671875 C 37.671438 31.849875 37.885609 31.941406 38.099609 31.941406 C 38.269609 31.941406 38.438078 31.885578 38.580078 31.767578 L 41.488281 29.337891 C 45.116348 29.12962 46.970144 27.263053 47.175781 25.390625 C 47.344781 23.852625 46.405094 22.056594 43.996094 21.183594 C 44.751094 19.695594 44.826484 17.997719 44.146484 16.636719 C 43.231484 14.798719 41.176564 14.167203 39.101562 15.158203 C 37.622563 12.457203 33.947688 10.869141 30.929688 10.869141 z M 30.929688 12.369141 C 33.653688 12.369141 37.149875 13.934891 38.046875 16.462891 L 38.363281 17.355469 L 39.160156 16.841797 C 39.842156 16.400797 40.4825 16.175781 41.0625 16.175781 C 42.0865 16.175781 42.592734 16.883688 42.802734 17.304688 C 43.234734 18.171688 43.345328 19.704734 42.236328 21.177734 L 41.535156 22.109375 L 42.675781 22.361328 C 44.915781 22.857328 45.799594 24.157563 45.683594 25.226562 C 45.542594 26.504562 43.967891 27.878906 40.837891 27.878906 L 13.294922 27.878906 C 12.390922 27.878906 11.708672 27.654937 11.263672 27.210938 C 10.791672 26.738937 10.691406 26.115781 10.691406 25.675781 C 10.691406 23.929781 12.145469 21.984375 14.230469 21.984375 C 14.815469 21.984375 15.432594 22.134641 16.058594 22.431641 L 17.128906 22.9375 L 17.128906 21.753906 C 17.129906 19.383906 18.933266 15.955078 22.197266 15.955078 C 23.231266 15.955078 24.362641 16.290172 25.556641 16.951172 L 26.707031 17.587891 L 26.669922 16.273438 C 26.636922 15.111438 26.940125 14.18725 27.578125 13.53125 C 28.306125 12.78125 29.497688 12.369141 30.929688 12.369141 z M 18.246094 32.996094 C 18.055094 32.978594 17.856766 33.034016 17.697266 33.166016 L 14.621094 35.724609 C 14.303094 35.990609 14.258437 36.46325 14.523438 36.78125 C 14.671436 36.96025 14.886564 37.052734 15.101562 37.052734 C 15.270563 37.052734 15.439078 36.995906 15.580078 36.878906 L 18.65625 34.320312 C 18.97425 34.054313 19.018906 33.581672 18.753906 33.263672 C 18.621406 33.103672 18.437094 33.013594 18.246094 32.996094 z M 35.095703 33.007812 C 34.904328 32.990437 34.707328 33.046188 34.548828 33.179688 L 31.476562 35.740234 C 31.157563 36.006234 31.115859 36.480828 31.380859 36.798828 C 31.528859 36.976828 31.742031 37.068359 31.957031 37.068359 C 32.127031 37.068359 32.2965 37.011531 32.4375 36.894531 L 35.509766 34.332031 C 35.828766 34.066031 35.870469 33.593391 35.605469 33.275391 C 35.472469 33.115391 35.287078 33.025188 35.095703 33.007812 z M 23.871094 33.011719 C 23.679969 32.994594 23.481766 33.050594 23.322266 33.183594 L 20.253906 35.748047 C 19.935906 36.014047 19.892203 36.487687 20.158203 36.804688 C 20.306203 36.982688 20.519375 37.074219 20.734375 37.074219 C 20.903375 37.074219 21.073844 37.015436 21.214844 36.898438 L 24.283203 34.335938 C 24.601203 34.069938 24.644906 33.596297 24.378906 33.279297 C 24.245906 33.119797 24.062219 33.028844 23.871094 33.011719 z M 29.484375 33.013672 C 29.293125 32.996797 29.0955 33.053047 28.9375 33.185547 L 25.869141 35.75 C 25.551141 36.016 25.509391 36.488641 25.775391 36.806641 C 25.923391 36.983641 26.136563 37.076172 26.351562 37.076172 C 26.520563 37.076172 26.690078 37.017391 26.830078 36.900391 L 29.900391 34.335938 C 30.218391 34.069937 30.260141 33.597297 29.994141 33.279297 C 29.861141 33.120297 29.675625 33.030547 29.484375 33.013672 z M 12.648438 33.019531 C 12.457186 33.002656 12.258609 33.059359 12.099609 33.193359 L 10.230469 34.761719 C 9.9124685 35.027719 9.8707185 35.501359 10.136719 35.818359 C 10.284719 35.995359 10.498891 36.087891 10.712891 36.087891 C 10.882891 36.087891 11.052359 36.029156 11.193359 35.910156 L 13.064453 34.34375 C 13.382453 34.07775 13.42225 33.603109 13.15625 33.287109 C 13.02325 33.127609 12.839688 33.036406 12.648438 33.019531 z M 12.09375 38.111328 C 11.902625 38.093828 11.704422 38.14925 11.544922 38.28125 L 10.306641 39.3125 C 9.9886402 39.5785 9.9439848 40.051141 10.208984 40.369141 C 10.356984 40.548141 10.570156 40.640625 10.785156 40.640625 C 10.954156 40.640625 11.125625 40.582797 11.265625 40.466797 L 12.503906 39.4375 C 12.821906 39.1715 12.866563 38.698859 12.601562 38.380859 C 12.469564 38.220859 12.284875 38.128828 12.09375 38.111328 z M 28.955078 38.134766 C 28.763828 38.117266 28.56525 38.171688 28.40625 38.304688 L 25.335938 40.867188 C 25.017938 41.133187 24.974234 41.605828 25.240234 41.923828 C 25.388234 42.101828 25.601406 42.193359 25.816406 42.193359 C 25.985406 42.193359 26.156875 42.136531 26.296875 42.019531 L 29.367188 39.457031 C 29.685187 39.191031 29.728891 38.718391 29.462891 38.400391 C 29.330891 38.241391 29.146328 38.152266 28.955078 38.134766 z M 17.730469 38.142578 C 17.539344 38.125328 17.342594 38.181453 17.183594 38.314453 L 14.113281 40.878906 C 13.795281 41.144906 13.753531 41.617547 14.019531 41.935547 C 14.167531 42.112547 14.380703 42.205078 14.595703 42.205078 C 14.764703 42.205078 14.936172 42.146297 15.076172 42.029297 L 18.144531 39.464844 C 18.462531 39.198844 18.504281 38.726203 18.238281 38.408203 C 18.105781 38.250203 17.921594 38.159828 17.730469 38.142578 z M 23.347656 38.144531 C 23.156281 38.127281 22.959281 38.183406 22.800781 38.316406 L 19.730469 40.880859 C 19.412469 41.146859 19.370719 41.6195 19.636719 41.9375 C 19.784719 42.1145 19.997891 42.207031 20.212891 42.207031 C 20.381891 42.207031 20.553359 42.14825 20.693359 42.03125 L 23.761719 39.466797 C 24.079719 39.200797 24.121469 38.728156 23.855469 38.410156 C 23.723469 38.252156 23.539031 38.161781 23.347656 38.144531 z M 22.810547 43.259766 C 22.619547 43.242516 22.422672 43.297687 22.263672 43.429688 L 21.419922 44.134766 C 21.101922 44.400766 21.058219 44.874406 21.324219 45.191406 C 21.472219 45.369406 21.685391 45.462891 21.900391 45.462891 C 22.069391 45.462891 22.240859 45.404109 22.380859 45.287109 L 23.224609 44.582031 C 23.542609 44.316031 23.586313 43.842391 23.320312 43.525391 C 23.187312 43.366391 23.001547 43.277016 22.810547 43.259766 z M 11.525391 43.269531 C 11.48129 43.269531 11.438155 43.283309 11.394531 43.291016 C 11.359404 43.297285 11.325223 43.299208 11.291016 43.310547 C 11.203493 43.339213 11.119757 43.380818 11.044922 43.443359 L 10.224609 44.128906 C 10.224201 44.129248 10.225016 44.130517 10.224609 44.130859 C 10.145694 44.19715 10.083311 44.27501 10.039062 44.361328 C 10.038834 44.361772 10.03929 44.362837 10.039062 44.363281 C 9.9066132 44.62329 9.9317919 44.948312 10.130859 45.185547 C 10.278859 45.363547 10.490078 45.455078 10.705078 45.455078 C 10.874078 45.455078 11.045547 45.39825 11.185547 45.28125 L 11.1875 45.279297 L 12.005859 44.595703 C 12.00659 44.59509 12.007085 44.594365 12.007812 44.59375 C 12.008546 44.593136 12.009035 44.592413 12.009766 44.591797 C 12.074873 44.536321 12.122227 44.469965 12.162109 44.400391 C 12.18053 44.369656 12.195303 44.339297 12.208984 44.306641 C 12.217088 44.286041 12.220368 44.265325 12.226562 44.244141 C 12.262698 44.131205 12.27295 44.015561 12.253906 43.898438 C 12.233 43.769855 12.191281 43.644029 12.101562 43.537109 C 11.969062 43.377609 11.78525 43.288609 11.59375 43.271484 C 11.580725 43.27032 11.567765 43.275878 11.554688 43.275391 C 11.544863 43.274302 11.535368 43.269531 11.525391 43.269531 z M 17.208984 43.273438 C 17.017859 43.256312 16.821109 43.312314 16.662109 43.445312 L 15.835938 44.136719 C 15.517937 44.402719 15.476186 44.875359 15.742188 45.193359 C 15.890186 45.370359 16.104359 45.462891 16.318359 45.462891 C 16.488359 45.462891 16.659828 45.405109 16.798828 45.287109 L 17.623047 44.597656 C 17.941047 44.331656 17.98475 43.857062 17.71875 43.539062 C 17.58625 43.380562 17.400109 43.290563 17.208984 43.273438 z "
   id="path4" />

</svg>