<?xml version="1.0" encoding="UTF-8" standalone="no"?>
<!-- Generator: Adobe Illustrator 16.0.0, SVG Export Plug-In . SVG Version: 6.00 Build 0)  -->

<svg
   xmlns:dc="http://purl.org/dc/elements/1.1/"
   xmlns:cc="http://creativecommons.org/ns#"
   xmlns:rdf="http://www.w3.org/1999/02/22-rdf-syntax-ns#"
   xmlns:svg="http://www.w3.org/2000/svg"
   xmlns="http://www.w3.org/2000/svg"
   xmlns:xlink="http://www.w3.org/1999/xlink"
   xmlns:sodipodi="http://sodipodi.sourceforge.net/DTD/sodipodi-0.dtd"
   xmlns:inkscape="http://www.inkscape.org/namespaces/inkscape"
   version="1.1"
   id="Layer_1"
   x="0px"
   y="0px"
   width="56.693001"
   height="56.693001"
   viewBox="0 0 56.693 56.693"
   enable-background="new 0 0 56.693 56.693"
   xml:space="preserve"
   sodipodi:docname="Climat-All.svg"
   inkscape:version="0.92.0 r15299"><metadata
   id="metadata303"><rdf:RDF><cc:Work
       rdf:about=""><dc:format>image/svg+xml</dc:format><dc:type
         rdf:resource="http://purl.org/dc/dcmitype/StillImage" /><dc:title></dc:title></cc:Work></rdf:RDF></metadata><defs
   id="defs301">
	<defs
   id="defs5">
		
			<rect
   height="20.27"
   width="42.519001"
   transform="matrix(0.7071,-0.7071,0.7071,0.7071,-14.9999,36.2129)"
   y="26.077999"
   x="14.953"
   id="SVGID_1_" />
	</defs>
	<clipPath
   id="SVGID_2_">
		<use
   height="100%"
   width="100%"
   y="0"
   x="0"
   style="overflow:visible"
   id="use7"
   overflow="visible"
   xlink:href="#SVGID_1_" />
	</clipPath>
	

		
	
			
			
		
				
			
				
			
	<defs
   id="defs25">
		
			<rect
   height="20.226999"
   width="42.519001"
   transform="matrix(0.7071,-0.7071,0.7071,0.7071,-8.477,20.4653)"
   y="10.352"
   x="-0.79400003"
   id="SVGID_3_" />
	</defs>
	<clipPath
   id="SVGID_4_">
		<use
   height="100%"
   width="100%"
   y="0"
   x="0"
   style="overflow:visible"
   id="use27"
   overflow="visible"
   xlink:href="#SVGID_3_" />
	</clipPath>
	

		
	
			
		
				
				
				
			
					
					
				
					
					
				
					
					
				
						
						
						
						
						
					
						
						
						
						
						
					
						
						
						
						
						
					
						
						
						
						
						
					
						
						
						
						
						
					
						
						
						
						
						
					
							
						
							
						
							
						
							
						
							
						
							
						
							
						
							
						
							
						
							
						
							
						
							
						
							
						
							
						
							
						
							
						
							
						
							
						
							
						
							
						
							
						
							
						
							
						
							
						
							
						
							
						
							
						
							
						
							
						
							
						
								
							
								
							
								
							
								
							
								
							
								
							
								
							
								
							
								
							
								
							
								
							
								
							
								
							
								
							
								
							
								
							
								
							
								
							
								
							
								
							
								
							
								
							
								
							
								
							
								
							
								
							
								
							
								
							
								
							
								
							
									
								
									
								
									
								
									
								
									
								
									
								
									
								
									
								
									
								
									
								
									
								
									
								
									
								
									
								
									
								
									
								
									
								
									
								
									
								
									
								
									
								
									
								
									
								
									
								
									
								
									
								
									
								
									
								
									
								
									
								</defs><sodipodi:namedview
   pagecolor="#ffffff"
   bordercolor="#666666"
   borderopacity="1"
   objecttolerance="10"
   gridtolerance="10"
   guidetolerance="10"
   inkscape:pageopacity="0"
   inkscape:pageshadow="2"
   inkscape:window-width="1280"
   inkscape:window-height="961"
   id="namedview299"
   showgrid="false"
   inkscape:zoom="8.3255427"
   inkscape:cx="10.769231"
   inkscape:cy="36.676287"
   inkscape:window-x="1272"
   inkscape:window-y="-8"
   inkscape:window-maximized="1"
   inkscape:current-layer="Layer_1" />
<g
   display="none"
   id="g2"
   style="display:none">
</g>

<path
   style="fill:#bd0c27"
   d="M 33.265625,8.9667969 C 32.975141,9.0075312 32.726734,9.217125 32.646484,9.515625 L 32.064453,11.6875 30.199219,9.8222656 c -0.293,-0.293 -0.767547,-0.293 -1.060547,0 -0.293,0.2930004 -0.293,0.7675474 0,1.0605464 l 2.478516,2.478516 -0.712891,2.65625 -3.5625,-3.5625 c -0.293,-0.293 -0.767547,-0.293 -1.060547,0 -0.293,0.293 -0.293,0.7695 0,1.0625 l 4.173828,4.173828 -2.470703,9.21875 -6.748047,-6.748047 1.527344,-5.703125 c 0.107,-0.399 -0.13125,-0.810968 -0.53125,-0.917968 -0.398,-0.104 -0.809969,0.13125 -0.917969,0.53125 l -1.302734,4.863281 -1.945313,-1.945313 0.90625,-3.382812 c 0.107,-0.4 -0.129297,-0.810969 -0.529297,-0.917969 -0.401,-0.104 -0.811921,0.129297 -0.919921,0.529297 l -0.681641,2.546875 -1.589844,-1.589844 c -0.293,-0.293 -0.7695,-0.293 -1.0625,0 -0.293,0.293 -0.293,0.767547 0,1.060547 l 1.591797,1.589844 -2.548828,0.683594 c -0.4,0.107 -0.63825,0.517968 -0.53125,0.917968 0.09,0.335 0.393609,0.556641 0.724609,0.556641 0.065,0 0.130313,-0.0093 0.195313,-0.02734 l 3.382812,-0.90625 1.949219,1.947266 -4.867187,1.302734 c -0.401,0.107 -0.638251,0.517969 -0.53125,0.917969 0.09,0.335 0.393609,0.556641 0.724609,0.556641 0.064,0 0.128359,-0.0084 0.193359,-0.02539 l 5.703125,-1.527344 6.75,6.748047 -9.220703,2.470703 -4.173828,-4.173828 c -0.293,-0.293 -0.767547,-0.293 -1.060547,0 -0.293,0.293 -0.293,0.767547 0,1.060547 l 3.5625,3.5625 L 13.375,31.601562 10.898438,29.125 c -0.293001,-0.293 -0.767547,-0.293 -1.0605474,0 -0.293,0.293 -0.293,0.767547 0,1.060547 l 1.8632814,1.865234 -2.1738282,0.582031 c -0.4000001,0.107 -0.6362969,0.519922 -0.5292969,0.919922 0.09,0.335 0.3936094,0.554688 0.7246093,0.554688 0.065,0 0.1303125,-0.0074 0.1953126,-0.02539 L 12.089844,33.5 11.408203,36.046875 c -0.107,0.4 0.13125,0.812922 0.53125,0.919922 0.065,0.017 0.129359,0.02344 0.193359,0.02344 0.331001,0 0.63561,-0.219687 0.72461,-0.554687 l 0.90625,-3.382813 2.65625,-0.71289 -1.302734,4.867187 c -0.107002,0.4 0.129296,0.812922 0.529296,0.919922 0.066,0.017 0.131313,0.02344 0.195313,0.02344 0.331,0 0.635609,-0.219688 0.724609,-0.554688 L 18.09375,31.89063 27.3125,29.419927 c 0.729181,-0.483243 1.812444,-1.748339 2.121094,-2.121094 l 2.470703,-9.21875 5.703125,-1.527344 c 0.399,-0.107 0.636297,-0.517968 0.529297,-0.917968 -0.107,-0.4 -0.508969,-0.63725 -0.917969,-0.53125 l -4.865234,1.302734 0.71289,-2.658203 3.38086,-0.90625 c 0.4,-0.107 0.63825,-0.517969 0.53125,-0.917969 -0.107,-0.399 -0.510922,-0.63625 -0.919922,-0.53125 l -2.544922,0.681641 0.582031,-2.1699221 c 0.108,-0.4 -0.13225,-0.8129219 -0.53125,-0.9199219 -0.1015,-0.02675 -0.202,-0.031156 -0.298828,-0.017578 z"
   id="path30"
   inkscape:connector-curvature="0"
   sodipodi:nodetypes="cccsscccsssccccccccccccssccccscccccsccccssscccsccccsccccscccccsccccccscccccccccc" />
<path
   d="m 55.819607,28.060144 c 0.014,0.629 -0.076,1.319 -0.341,1.987 -0.163001,0.416 -0.229001,0.856 -0.252001,1.307 -0.038,0.764 -0.229001,1.499 -0.437001,2.229 -0.271001,0.959 -0.554001,1.914 -0.842002,2.868 -0.149001,0.499 -0.364001,0.977 -0.598002,1.443 -0.336001,0.675 -0.665001,1.354 -0.935002,2.06 -0.430001,1.127 -1.058003,2.14 -1.774005,3.102 -1.298003,1.742 -2.639006,3.45 -4.18001,4.99 -0.317001,0.314 -0.635002,0.63 -0.990002,0.903 -0.089,0.069 -0.182001,0.123 -0.293001,0.154 -0.130001,0.035 -0.237001,0.123 -0.326001,0.22 -0.788002,0.854 -1.782004,1.423 -2.791007,1.963 -1.945005,1.037 -3.93301,1.989 -5.971015,2.833 -0.820002,0.341 -1.677004,0.551 -2.560006,0.667 -0.928003,0.121 -1.837005,0.345 -2.742007,0.579 -0.404001,0.104 -0.817002,0.162 -1.236003,0.183 -0.370001,0.019 -0.729002,0.122 -1.040003,0.317 -0.535001,0.335 -1.125003,0.462 -1.737004,0.513 -0.564002,0.051 -1.129003,0.047 -1.686005,-0.075 -0.283,-0.062 -0.525001,-0.176 -0.739001,-0.39 -0.301001,-0.302 -0.702002,-0.466 -1.097003,-0.612 -1.015003,-0.375 -2.029005,-0.752 -3.019008,-1.188 -1.665004,-0.733 -3.322008,-1.479 -4.985012,-2.214 -0.771002,-0.34 -1.407004,-0.841 -1.913005,-1.514 -0.593001,-0.788 -1.251003,-1.522 -2.021005,-2.144 -0.561001,-0.454 -1.162003,-0.856 -1.7250043,-1.308 -0.770002,-0.616 -1.5150038,-1.259 -2.2540057,-1.91 -1.0470026,-0.923 -1.8490046,-2.023 -2.4740062,-3.263 -0.5890014,-1.168 -1.0810027,-2.377 -1.5560039,-3.593 -0.1400003,-0.36 -0.3170008,-0.702 -0.5400013,-1.018 -0.092,-0.129 -0.1970005,-0.243 -0.3290008,-0.333 -0.2750007,-0.192 -0.3190008,-0.487 -0.3200008,-0.784 -10e-4,-0.522 -0.032,-1.04 -0.1110003,-1.559 -0.1280003,-0.841 -0.3640009,-1.659 -0.5710014,-2.482 -0.3500009,-1.396 -0.62200161,-2.805 -0.77600199,-4.237 -0.22000055,-2.052 -0.0420001,-4.071 0.47600119,-6.066 0.3230008,-0.704 0.3500009,-1.485 0.5840015,-2.209 0.3690009,-1.142 0.8520021,-2.239 1.5510038,-3.218 0.4410012,-0.617 0.790002,-1.27 1.0730027,-1.965 0.08,-0.197 0.1680005,-0.39 0.2830007,-0.571 0.1370004,-0.219 0.3290009,-0.361 0.5900015,-0.385 0.2790007,-0.025 0.4830012,-0.167 0.6550017,-0.374 0.2150005,-0.258 0.3890009,-0.544 0.5590014,-0.832 0.5090012,-0.859 0.9570024,-1.751 1.5110037,-2.5830004 0.799002,-1.2 1.8240046,-2.171 3.0150075,-2.977 0.113,-0.078 0.238001,-0.125 0.375001,-0.16 0.269001,-0.065 0.478001,-0.241 0.681002,-0.42 0.243,-0.214 0.457001,-0.462 0.720002,-0.655 0.518001,-0.38 1.068002,-0.706 1.719004,-0.763 0.458001,-0.041 0.836002,-0.23 1.171003,-0.503 0.898002,-0.73 1.932005,-1.21 2.988007,-1.653 0.774002,-0.325 1.566004,-0.594 2.380006,-0.802 0.612002,-0.156 1.208003,-0.368 1.772005,-0.64899997 0.724001,-0.36 1.490003,-0.527 2.289005,-0.579 1.265004,-0.082 2.531007,-0.117 3.80001,-0.103 1.719004,0.018 3.341008,0.42 4.891012,1.14099997 0.521001,0.242 1.040003,0.505 1.610004,0.601 1.507004,0.254 2.818007,0.956 4.08501,1.754 0.727002,0.459 1.457004,0.904 2.243006,1.257 1.093003,0.493 2.086005,1.141 2.982008,1.929 0.632001,0.555 1.303003,1.055 1.992005,1.532 0.552001,0.382 1.095002,0.775 1.622004,1.188 0.495001,0.3860004 0.909002,0.8340004 1.228003,1.3760004 1.804004,3.063 3.469008,6.194 4.704011,9.535 0.604002,1.635 1.080003,3.308 1.381004,5.026 0.137,0.778 0.235,1.562 0.231,2.434 z m -25.330063,22.889 c 0.566001,0 1.130003,0.002 1.695004,0 1.143003,-0.007 2.260006,-0.175 3.345009,-0.535 1.378003,-0.456 2.642006,-1.13 3.832009,-1.945 0.588002,-0.403 1.135003,-0.854 1.571004,-1.428 0.245001,-0.32 0.566002,-0.567 0.921002,-0.765 0.255001,-0.142 0.496002,-0.299 0.721002,-0.483 1.542004,-1.273 2.898008,-2.725 4.115011,-4.307 0.187,-0.241 0.352,-0.496 0.492001,-0.767 0.085,-0.163 0.087,-0.353 0.184,-0.513 0.139001,-0.229 0.258001,-0.471 0.398001,-0.699 0.487002,-0.793 0.875002,-1.632 1.185003,-2.508 0.208001,-0.585 0.399001,-1.182 0.709002,-1.724 0.252001,-0.436 0.425001,-0.896 0.539001,-1.381 0.312001,-1.313 0.439001,-2.653 0.575002,-3.992 0.129,-1.265 0.235,-2.531 0.325001,-3.799 0.055,-0.754 -0.002,-1.494 -0.253001,-2.215 -0.319001,-0.919 -0.726002,-1.803 -1.087003,-2.704 -0.2,-0.497 -0.417001,-0.989 -0.571001,-1.502 -0.048,-0.158 -0.082,-0.321 -0.207001,-0.43 -0.296,-0.253 -0.403001,-0.601 -0.494001,-0.955 -0.08,-0.312 -0.12,-0.636 -0.231,-0.942 -0.532002,-1.482 -1.240004,-2.88 -2.048006,-4.229 -0.212,-0.353 -0.434001,-0.699 -0.712001,-1.003 -0.336001,-0.365 -0.714002,-0.671 -1.172003,-0.884 -0.521002,-0.244 -0.940003,-0.629 -1.385004,-0.986 -1.602004,-1.2850004 -3.233008,-2.5260004 -5.041012,-3.5180004 -0.580002,-0.319 -1.102003,-0.727 -1.688005,-1.034 -1.076002,-0.563 -2.216005,-0.995 -3.310008,-1.519 -0.610001,-0.293 -1.230003,-0.552 -1.895005,-0.702 -0.912002,-0.206 -1.836004,-0.308 -2.768007,-0.344 -1.307003,-0.051 -2.606006,0.015 -3.884009,0.306 -1.296004,0.295 -2.516007,0.8 -3.69801,1.393 -1.093002,0.549 -2.141005,1.171 -3.083007,1.953 -0.365001,0.303 -0.777002,0.478 -1.242003,0.527 -0.372001,0.039 -0.698002,0.17 -0.992003,0.395 -0.178,0.136 -0.348001,0.281 -0.511001,0.434 -0.921003,0.863 -1.759005,1.801 -2.546007,2.7850004 -1.116002,1.396 -2.171005,2.833 -2.9860071,4.432 -0.1470003,0.289 -0.3230008,0.562 -0.5210013,0.821 -0.083,0.109 -0.1620004,0.226 -0.2850007,0.292 -0.1340003,0.073 -0.2320006,0.178 -0.3230008,0.295 -0.1680004,0.219 -0.2850007,0.466 -0.397001,0.715 -0.2010005,0.445 -0.4480011,0.863 -0.7630019,1.238 -0.1040003,0.125 -0.1900005,0.263 -0.2680007,0.405 -0.2680006,0.497 -0.4680011,1.021 -0.6460016,1.555 -0.5260013,1.574 -0.8780022,3.188 -1.1010027,4.831 -0.1090003,0.806 -0.1390004,1.613 -0.05,2.423 0.1260003,1.148 0.3270008,2.283 0.5670014,3.413 0.2760007,1.296 0.5770015,2.586 1.0370026,3.834 0.1590004,0.431 0.3090008,0.866 0.363001,1.328 0.021,0.171 0.1070002,0.321 0.2310005,0.437 0.1910005,0.179 0.3040008,0.403 0.4110011,0.634 0.1390003,0.299 0.2480006,0.608 0.3360008,0.927 0.1850005,0.669 0.5520014,1.224 1.0770027,1.674 0.8770022,0.753 1.6160037,1.625 2.2840057,2.562 0.452001,0.633 0.961002,1.219 1.598004,1.683 0.279001,0.203 0.543001,0.438 0.717002,0.739 0.184,0.317 0.449001,0.53 0.743001,0.725 0.301001,0.199 0.616002,0.377 0.940003,0.533 1.096003,0.528 2.153005,1.12 3.170008,1.787 0.837002,0.549 1.727004,0.968 2.721007,1.184 1.540003,0.332 3.068007,0.716 4.612011,1.025 0.407001,0.083 0.828002,0.118 1.178003,0.377 0.03,0.023 0.077,0.027 0.117,0.032 0.181001,0.022 0.363001,0.047 0.545002,0.059 0.971002,0.063 1.936005,0.072 2.904007,0.06 z"
   id="path296"
   inkscape:connector-curvature="0"
   style="clip-rule:evenodd;display:inline;fill:#bd0c27;fill-rule:evenodd;stroke-width:1.00000131" />
<path
   style="display:inline;fill:#bd0c27"
   d="m 37.191406,19.908203 -1.759765,1.775391 c 0.03187,0.713529 0.197616,1.400115 0.517578,2.035156 0.733,1.452 2.143875,2.463875 4.046875,2.921875 -1.689,1.149 -2.190391,2.350859 -2.275391,3.255859 -0.087,0.927 0.224438,1.838875 0.898438,2.671875 -2.081,0.171 -3.679688,1.014016 -4.554688,2.416016 -0.449,0.72 -0.66825,1.541438 -0.65625,2.398437 -1.881,-0.958998 -4.151375,-0.332515 -6.109375,1.646485 -0.084,-0.665 -0.305969,-1.235985 -0.667969,-1.708985 -0.68,-0.887 -1.807765,-1.355468 -3.259765,-1.355468 -0.778627,0 -1.64153,0.147525 -2.496094,0.40039 l -3.871094,3.904297 1.591797,-1.167969 c 1.312,-0.963999 3.273438,-1.636718 4.773438,-1.636718 0.674,0 1.581359,0.131578 2.068359,0.767578 0.472,0.617 0.524391,1.676453 0.150391,3.064453 l -1.289063,4.777344 2.648438,-4.183594 c 1.061,-1.678 2.819265,-3.470703 4.572265,-3.470703 0.903,0 1.768266,0.488125 2.572266,1.453125 l 4.007812,4.810547 -2.757812,-5.621094 c -0.575,-1.172 -0.575906,-2.369109 -0.0039,-3.287109 0.831,-1.334 2.746609,-1.953782 5.224609,-1.675782 l 3.148438,0.353516 -2.654297,-1.726563 c -1.274,-0.827999 -1.92875,-1.785359 -1.84375,-2.693359 0.107,-1.142 1.376218,-2.267875 3.574218,-3.171875 l 3.427735,-1.443359 h -3.796875 c -2.498,0 -4.36986,-0.865 -5.13086,-2.375 -0.459344,-0.912353 -0.481493,-1.998483 -0.0957,-3.134766 z m -2.859375,2.884766 -1.064453,1.074219 c 0.871294,1.106633 1.345703,2.46226 1.345703,3.892578 0,1.686 -0.655656,3.269937 -1.847656,4.460937 -1.193,1.193 -2.778844,1.849609 -4.464844,1.849609 -1.411639,0 -2.747529,-0.466729 -3.845703,-1.316406 l -1.064453,1.076172 c 1.385241,1.125764 3.100533,1.740234 4.910156,1.740234 2.087,0 4.049391,-0.813062 5.525391,-2.289062 1.476,-1.475 2.287109,-3.435484 2.287109,-5.521484 0,-1.833141 -0.627707,-3.570587 -1.78125,-4.966797 z"
   id="path4806"
   inkscape:connector-curvature="0" /></svg>