<?xml version="1.0" encoding="utf-8"?>
<!-- Generator: Adobe Illustrator 16.0.0, SVG Export Plug-In . SVG Version: 6.00 Build 0)  -->
<!DOCTYPE svg PUBLIC "-//W3C//DTD SVG 1.1//EN" "http://www.w3.org/Graphics/SVG/1.1/DTD/svg11.dtd">
<svg version="1.1" id="Layer_1" xmlns="http://www.w3.org/2000/svg" xmlns:xlink="http://www.w3.org/1999/xlink" x="0px" y="0px"
	 width="56.693px" height="56.693px" viewBox="0 0 56.693 56.693" enable-background="new 0 0 56.693 56.693" xml:space="preserve">
<g>
</g>
<g>
	<path fill="#BD0C27" d="M28.73,36.023c-4.479,0-8.124-3.645-8.124-8.124c0-4.48,3.645-8.125,8.124-8.125s8.124,3.645,8.124,8.125
		C36.854,32.379,33.21,36.023,28.73,36.023z M28.73,21.275c-3.652,0-6.624,2.972-6.624,6.625c0,3.652,2.972,6.624,6.624,6.624
		s6.624-2.972,6.624-6.624C35.354,24.247,32.383,21.275,28.73,21.275z"/>
</g>
<g>
	<path fill="#BD0C27" d="M23.686,46.792l0.569-6.231c0.109-1.196-0.129-2.126-0.71-2.762c-0.859-0.941-2.328-1.139-3.41-1.139
		c-0.743,0-1.559,0.095-2.358,0.274l-4.83,1.087l4.291-2.469c1.537-0.884,2.225-1.817,2.045-2.776
		c-0.319-1.702-3.133-3.368-5.437-3.721l-3.488-0.533l3.403-0.932c2.938-0.804,4.646-1.963,4.941-3.352
		c0.296-1.394-0.829-3.291-3.008-5.073l-4.708-3.851l5.502,2.592c3.245,1.529,5.694,1.782,6.747,0.706
		c0.476-0.486,0.706-1.261,0.683-2.301l-0.049-2.216l1.385,1.731c0.866,1.083,1.921,1.31,2.653,1.31h0
		c1.714,0,3.438-1.222,4.194-2.972l1.872-4.338l-0.437,4.705c-0.149,1.61,0.262,3.121,1.102,4.042
		c1.052,1.154,2.612,1.147,4.262-0.017l3.741-2.638l-2.703,3.694c-1.039,1.42-1.4,2.679-1.074,3.741
		c0.525,1.708,2.739,2.726,4.012,3.18l2.817,1.006l-2.958,0.442c-2.297,0.343-4,1.727-4.445,3.611
		c-0.404,1.706,0.357,3.429,2.035,4.609l5.611,3.947l-6.332-2.642c-2.401-1.003-4.22-1.019-5.009-0.044
		c-0.507,0.626-0.636,1.68-0.363,2.967l0.657,3.1l-1.977-2.477c-1.331-1.667-2.829-2.585-4.217-2.585
		c-1.355,0-2.471,0.897-2.986,2.402L23.686,46.792z M28.698,36.97c1.32,0,2.671,0.567,3.925,1.628
		c0.087-0.818,0.357-1.52,0.81-2.077c0.473-0.583,1.381-1.278,3.023-1.278c0.321,0,0.659,0.026,1.013,0.08
		c-0.736-1.239-0.973-2.654-0.637-4.074c0.44-1.86,1.764-3.345,3.617-4.16c-1.328-0.739-2.558-1.8-3.017-3.293
		c-0.287-0.934-0.239-1.929,0.141-2.974c-1.523,0.361-2.988-0.082-4.041-1.237c-0.672-0.737-1.141-1.731-1.367-2.846
		c-1.139,1.183-2.676,1.898-4.256,1.898h0c-0.96,0-1.862-0.272-2.64-0.785c-0.173,0.728-0.494,1.333-0.959,1.809
		c-1.108,1.133-2.917,1.408-5.303,0.785c0.871,1.201,1.477,2.628,1.164,4.104c-0.325,1.532-1.586,2.776-3.757,3.712
		c2.011,0.854,3.995,2.368,4.345,4.237c0.136,0.726,0.059,1.671-0.709,2.66c2.021,0.01,3.618,0.548,4.604,1.627
		c0.4,0.438,0.694,0.95,0.881,1.532C26.374,37.458,27.479,36.97,28.698,36.97z"/>
</g>
<path fill-rule="evenodd" clip-rule="evenodd" fill="#BD0C27" d="M55.59,25.625c-0.301-1.719-0.776-3.392-1.381-5.026
	c-1.235-3.34-2.9-6.471-4.704-9.535c-0.318-0.542-0.732-0.991-1.228-1.376c-0.527-0.413-1.07-0.805-1.622-1.188
	c-0.689-0.478-1.36-0.977-1.992-1.532c-0.896-0.788-1.89-1.436-2.982-1.929c-0.786-0.353-1.517-0.797-2.243-1.257
	c-1.267-0.799-2.578-1.5-4.085-1.754c-0.57-0.096-1.09-0.358-1.61-0.601c-1.55-0.721-3.172-1.123-4.891-1.141
	c-1.269-0.014-2.535,0.021-3.8,0.103c-0.799,0.052-1.565,0.219-2.289,0.579c-0.564,0.281-1.16,0.493-1.772,0.649
	c-0.814,0.208-1.606,0.477-2.38,0.802c-1.056,0.443-2.09,0.923-2.988,1.653c-0.335,0.273-0.714,0.462-1.171,0.503
	c-0.651,0.058-1.202,0.383-1.719,0.763c-0.264,0.193-0.477,0.441-0.72,0.655c-0.203,0.179-0.412,0.355-0.681,0.42
	c-0.137,0.034-0.262,0.082-0.375,0.16C9.765,7.379,8.74,8.35,7.941,9.55c-0.555,0.832-1.002,1.725-1.511,2.583
	c-0.169,0.288-0.344,0.574-0.559,0.832c-0.172,0.207-0.376,0.349-0.655,0.374c-0.261,0.024-0.453,0.166-0.59,0.385
	c-0.114,0.181-0.203,0.375-0.283,0.571c-0.283,0.696-0.631,1.348-1.073,1.965c-0.699,0.979-1.182,2.076-1.551,3.218
	c-0.234,0.725-0.261,1.506-0.584,2.209c-0.518,1.995-0.696,4.014-0.476,6.066c0.154,1.433,0.426,2.841,0.776,4.237
	c0.207,0.823,0.443,1.642,0.571,2.482c0.079,0.519,0.11,1.036,0.111,1.559c0.001,0.297,0.045,0.592,0.32,0.784
	c0.132,0.09,0.237,0.204,0.329,0.333c0.223,0.315,0.399,0.657,0.54,1.018c0.475,1.216,0.967,2.425,1.556,3.593
	C5.486,43,6.288,44.1,7.336,45.024c0.739,0.651,1.485,1.294,2.254,1.91c0.563,0.451,1.164,0.854,1.725,1.308
	c0.771,0.621,1.428,1.355,2.021,2.144c0.506,0.673,1.141,1.174,1.913,1.514c1.663,0.734,3.321,1.48,4.985,2.214
	c0.99,0.436,2.004,0.812,3.019,1.188c0.395,0.146,0.796,0.311,1.097,0.612c0.214,0.214,0.457,0.328,0.739,0.39
	c0.557,0.122,1.122,0.126,1.686,0.075c0.612-0.051,1.202-0.178,1.737-0.513c0.312-0.195,0.67-0.299,1.04-0.317
	c0.419-0.021,0.832-0.078,1.236-0.183c0.905-0.234,1.814-0.458,2.742-0.579c0.883-0.116,1.739-0.326,2.56-0.667
	c2.038-0.844,4.025-1.796,5.971-2.833c1.009-0.54,2.003-1.109,2.791-1.963c0.089-0.097,0.196-0.185,0.326-0.22
	c0.111-0.031,0.204-0.085,0.293-0.154c0.355-0.273,0.673-0.589,0.99-0.903c1.541-1.54,2.882-3.248,4.18-4.99
	c0.717-0.962,1.345-1.975,1.774-3.102c0.27-0.705,0.599-1.385,0.935-2.06c0.233-0.467,0.448-0.944,0.598-1.443
	c0.288-0.954,0.57-1.909,0.842-2.868c0.207-0.73,0.398-1.466,0.437-2.229c0.023-0.45,0.089-0.891,0.252-1.307
	c0.265-0.668,0.354-1.357,0.341-1.987C55.823,27.188,55.725,26.404,55.59,25.625z M51.097,26.104
	c-0.09,1.268-0.196,2.534-0.325,3.799c-0.136,1.339-0.264,2.679-0.575,3.992c-0.114,0.485-0.287,0.945-0.539,1.381
	c-0.31,0.542-0.501,1.139-0.709,1.724c-0.301,0.851-0.679,1.665-1.146,2.438c0.203,0.533,0.182,1.146-0.112,1.679
	c-0.319,0.581-0.894,0.927-1.512,1.002c-1.085,1.336-2.271,2.574-3.604,3.675c-0.225,0.185-0.466,0.342-0.721,0.483
	c-0.354,0.197-0.676,0.444-0.921,0.765c-0.437,0.574-0.983,1.024-1.571,1.428c-1.19,0.815-2.454,1.489-3.832,1.945
	c-1.085,0.36-2.202,0.528-3.345,0.535c-0.565,0.002-1.129,0-1.695,0c-0.968,0.012-1.934,0.003-2.899-0.062
	c-0.183-0.012-0.364-0.036-0.545-0.059c-0.04-0.005-0.087-0.009-0.117-0.032c-0.35-0.259-0.771-0.294-1.178-0.377
	c-1.544-0.31-3.073-0.693-4.612-1.025c-0.995-0.216-1.884-0.635-2.721-1.184c-1.018-0.667-2.074-1.259-3.17-1.787
	c-0.325-0.156-0.64-0.334-0.94-0.533c-0.294-0.194-0.56-0.407-0.743-0.725c-0.174-0.301-0.438-0.536-0.717-0.739
	c-0.637-0.464-1.146-1.05-1.598-1.683c-0.668-0.937-1.407-1.809-2.284-2.562c-0.525-0.45-0.892-1.005-1.077-1.674
	c-0.088-0.318-0.198-0.628-0.336-0.927c-0.106-0.23-0.219-0.455-0.411-0.634c-0.124-0.115-0.21-0.266-0.231-0.437
	c-0.054-0.462-0.204-0.897-0.363-1.328c-0.46-1.248-0.761-2.538-1.037-3.834c-0.24-1.13-0.441-2.265-0.567-3.413
	c-0.089-0.811-0.059-1.617,0.05-2.423c0.223-1.643,0.574-3.257,1.101-4.831c0.178-0.533,0.378-1.058,0.646-1.555
	c0.077-0.143,0.163-0.281,0.268-0.405c0.315-0.375,0.562-0.793,0.763-1.238c0.113-0.249,0.229-0.496,0.397-0.715
	c0.091-0.118,0.189-0.222,0.323-0.295c0.123-0.067,0.201-0.184,0.285-0.292c0.103-0.134,0.181-0.284,0.271-0.427
	c-0.113-0.501-0.04-1.042,0.252-1.506c0.277-0.439,0.701-0.733,1.17-0.86c0.564-0.846,1.175-1.661,1.812-2.458
	c0.787-0.984,1.625-1.922,2.546-2.785c0.163-0.153,0.333-0.298,0.511-0.434c0.294-0.224,0.62-0.355,0.992-0.395
	c0.465-0.049,0.877-0.224,1.242-0.527c0.942-0.782,1.99-1.404,3.083-1.953c1.183-0.593,2.402-1.098,3.698-1.393
	c1.278-0.291,2.578-0.357,3.884-0.306c0.932,0.037,1.855,0.139,2.768,0.344c0.664,0.15,1.284,0.409,1.895,0.702
	c1.094,0.524,2.233,0.956,3.31,1.519c0.587,0.307,1.108,0.715,1.688,1.034c1.808,0.992,3.439,2.233,5.041,3.518
	c0.444,0.356,0.864,0.742,1.385,0.986c0.458,0.213,0.836,0.52,1.172,0.884c0.278,0.304,0.5,0.65,0.712,1.003
	c0.808,1.35,1.516,2.748,2.048,4.229c0.111,0.307,0.151,0.63,0.231,0.942c0.091,0.354,0.198,0.702,0.494,0.955
	c0.125,0.109,0.159,0.272,0.207,0.43c0.154,0.514,0.371,1.005,0.571,1.502c0.361,0.901,0.768,1.785,1.087,2.704
	C51.095,24.611,51.151,25.35,51.097,26.104z"/>
</svg>
