<?xml version="1.0" encoding="utf-8"?>
<!-- Generator: Adobe Illustrator 16.0.0, SVG Export Plug-In . SVG Version: 6.00 Build 0)  -->
<!DOCTYPE svg PUBLIC "-//W3C//DTD SVG 1.1//EN" "http://www.w3.org/Graphics/SVG/1.1/DTD/svg11.dtd">
<svg version="1.1" id="Layer_1" xmlns="http://www.w3.org/2000/svg" xmlns:xlink="http://www.w3.org/1999/xlink" x="0px" y="0px"
	 width="56.693px" height="56.694px" viewBox="0 0 56.693 56.694" enable-background="new 0 0 56.693 56.694" xml:space="preserve">
<g>
</g>
<g>
	<g>
		<path fill="#BD0C27" d="M40.838,29.379H13.295c-1.296,0-2.365-0.383-3.091-1.107c-0.662-0.661-1.012-1.558-1.012-2.596
			c0-2.506,2.024-5.19,5.039-5.19c0.489,0,0.986,0.072,1.487,0.217c0.463-2.85,2.728-6.247,6.481-6.247
			c0.971,0,1.99,0.225,3.039,0.671c0.157-1.049,0.581-1.934,1.266-2.64c1.013-1.043,2.585-1.617,4.426-1.617
			c3.018,0,6.692,1.587,8.171,4.288c2.075-0.991,4.131-0.36,5.046,1.478c0.68,1.361,0.605,3.06-0.15,4.548
			c2.409,0.873,3.348,2.668,3.179,4.206C46.958,27.375,44.914,29.379,40.838,29.379z M14.231,21.985
			c-2.085,0-3.539,1.944-3.539,3.69c0,0.44,0.099,1.063,0.571,1.535c0.445,0.444,1.128,0.669,2.032,0.669h27.542
			c3.13,0,4.706-1.375,4.847-2.653c0.116-1.069-0.769-2.369-3.009-2.865l-1.139-0.252l0.701-0.932
			c1.109-1.473,0.998-3.006,0.566-3.873c-0.21-0.421-0.716-1.128-1.74-1.128c-0.58,0-1.221,0.224-1.903,0.665l-0.797,0.515
			l-0.317-0.894c-0.897-2.528-4.393-4.093-7.117-4.093c-1.432,0-2.622,0.413-3.35,1.163c-0.638,0.656-0.943,1.579-0.91,2.741
			l0.039,1.315l-1.151-0.637c-1.194-0.661-2.325-0.996-3.359-0.996c-3.264,0-5.069,3.428-5.07,5.798v1.184l-1.07-0.505
			C15.432,22.135,14.816,21.985,14.231,21.985z"/>
	</g>
	<g>
		<path fill="#BD0C27" d="M10.712,36.087c-0.214,0-0.427-0.091-0.575-0.268c-0.266-0.317-0.225-0.791,0.093-1.057l1.87-1.568
			c0.318-0.268,0.791-0.226,1.057,0.093c0.266,0.316,0.225,0.79-0.093,1.056l-1.87,1.568C11.053,36.03,10.882,36.087,10.712,36.087z
			 M15.647,31.949c-0.214,0-0.427-0.091-0.575-0.269c-0.266-0.317-0.225-0.79,0.093-1.057l3.065-2.569
			c0.318-0.266,0.791-0.224,1.057,0.093c0.266,0.317,0.225,0.791-0.093,1.057l-3.065,2.57
			C15.988,31.891,15.817,31.949,15.647,31.949z"/>
	</g>
	<g>
		<path fill="#BD0C27" d="M10.786,40.64c-0.215,0-0.429-0.092-0.577-0.271c-0.265-0.318-0.221-0.791,0.097-1.057l1.239-1.03
			c0.319-0.264,0.792-0.222,1.056,0.098c0.265,0.318,0.221,0.791-0.097,1.057l-1.239,1.03C11.125,40.583,10.955,40.64,10.786,40.64z
			 M15.101,37.052c-0.215,0-0.429-0.092-0.577-0.271c-0.265-0.318-0.221-0.791,0.097-1.057l3.076-2.558
			c0.319-0.264,0.791-0.222,1.056,0.098c0.265,0.318,0.221,0.791-0.097,1.057l-3.076,2.558
			C15.439,36.996,15.27,37.052,15.101,37.052z M21.251,31.937c-0.215,0-0.429-0.092-0.577-0.271
			c-0.265-0.318-0.221-0.791,0.097-1.056l3.076-2.559c0.318-0.266,0.792-0.221,1.056,0.097s0.221,0.791-0.097,1.056l-3.076,2.558
			C21.59,31.88,21.42,31.937,21.251,31.937z"/>
	</g>
	<g>
		<path fill="#BD0C27" d="M10.706,45.455c-0.215,0-0.428-0.092-0.576-0.27c-0.266-0.317-0.223-0.79,0.095-1.056l0.82-0.686
			c0.317-0.266,0.792-0.224,1.057,0.095c0.266,0.317,0.223,0.79-0.095,1.056l-0.82,0.686C11.046,45.397,10.875,45.455,10.706,45.455
			z M14.596,42.205c-0.215,0-0.428-0.092-0.576-0.269c-0.266-0.318-0.224-0.791,0.094-1.057l3.069-2.565
			c0.318-0.266,0.791-0.222,1.056,0.094c0.266,0.318,0.224,0.791-0.094,1.057l-3.069,2.565
			C14.936,42.147,14.765,42.205,14.596,42.205z M20.734,37.074c-0.215,0-0.428-0.092-0.576-0.27
			c-0.266-0.317-0.223-0.79,0.095-1.056l3.069-2.564c0.319-0.266,0.791-0.224,1.057,0.095c0.266,0.317,0.223,0.79-0.095,1.056
			l-3.069,2.564C21.074,37.016,20.903,37.074,20.734,37.074z M26.873,31.944c-0.215,0-0.428-0.092-0.576-0.27
			c-0.266-0.317-0.223-0.79,0.095-1.056l3.07-2.565c0.314-0.266,0.789-0.225,1.056,0.095c0.266,0.318,0.224,0.791-0.095,1.057
			l-3.069,2.564C27.213,31.886,27.042,31.944,26.873,31.944z"/>
	</g>
	<g>
		<path fill="#BD0C27" d="M16.318,45.462c-0.214,0-0.428-0.092-0.576-0.269c-0.266-0.318-0.224-0.791,0.094-1.057l0.826-0.69
			c0.318-0.266,0.791-0.223,1.056,0.094c0.266,0.318,0.224,0.791-0.094,1.057l-0.826,0.69
			C16.659,45.405,16.488,45.462,16.318,45.462z M20.213,42.207c-0.215,0-0.428-0.092-0.576-0.269
			c-0.266-0.318-0.224-0.791,0.094-1.057l3.069-2.565c0.317-0.266,0.792-0.222,1.056,0.094c0.266,0.318,0.224,0.791-0.094,1.057
			l-3.069,2.565C20.553,42.149,20.382,42.207,20.213,42.207z M26.351,37.076c-0.215,0-0.428-0.092-0.576-0.269
			c-0.266-0.318-0.224-0.791,0.094-1.057l3.069-2.565c0.316-0.265,0.79-0.224,1.056,0.094c0.266,0.318,0.224,0.791-0.094,1.057
			l-3.069,2.565C26.691,37.018,26.52,37.076,26.351,37.076z M32.487,31.945c-0.214,0-0.427-0.092-0.575-0.269
			c-0.266-0.318-0.224-0.791,0.094-1.057l3.069-2.566c0.317-0.266,0.79-0.225,1.057,0.094c0.266,0.318,0.224,0.791-0.094,1.056
			l-3.069,2.566C32.828,31.887,32.657,31.945,32.487,31.945z"/>
	</g>
	<g>
		<path fill="#BD0C27" d="M21.9,45.462c-0.215,0-0.428-0.092-0.576-0.27c-0.266-0.317-0.223-0.791,0.095-1.057l0.845-0.705
			c0.318-0.264,0.79-0.222,1.056,0.096c0.266,0.317,0.223,0.791-0.095,1.057l-0.845,0.705C22.24,45.405,22.069,45.462,21.9,45.462z
			 M25.816,42.194c-0.215,0-0.428-0.092-0.576-0.27c-0.266-0.318-0.223-0.791,0.095-1.057l3.071-2.562
			c0.318-0.266,0.792-0.222,1.056,0.096c0.266,0.318,0.223,0.791-0.095,1.057l-3.071,2.562
			C26.156,42.137,25.985,42.194,25.816,42.194z M31.957,37.068c-0.215,0-0.428-0.092-0.576-0.27
			c-0.265-0.318-0.223-0.791,0.096-1.057l3.071-2.562c0.317-0.267,0.791-0.224,1.057,0.096c0.265,0.318,0.223,0.791-0.096,1.057
			l-3.071,2.562C32.297,37.011,32.127,37.068,31.957,37.068z M38.099,31.942c-0.214,0-0.428-0.092-0.576-0.27
			c-0.265-0.318-0.223-0.791,0.096-1.057l3.071-2.562c0.317-0.266,0.79-0.224,1.057,0.095c0.265,0.318,0.223,0.791-0.096,1.056
			l-3.071,2.563C38.438,31.885,38.269,31.942,38.099,31.942z"/>
	</g>
</g>
<g>
	<path fill-rule="evenodd" clip-rule="evenodd" fill="#BD0C27" d="M11.701,43.307c-0.059-0.015-0.115-0.038-0.175-0.038
		c-0.17,0-0.341,0.058-0.481,0.175l-0.82,0.686c-0.318,0.266-0.36,0.738-0.095,1.056c0.148,0.178,0.361,0.27,0.576,0.27
		c0.169,0,0.34-0.058,0.48-0.175l0.82-0.686c0.211-0.177,0.289-0.443,0.247-0.697C12.059,43.709,11.873,43.515,11.701,43.307z"/>
	<path fill-rule="evenodd" clip-rule="evenodd" fill="#BD0C27" d="M55.59,25.625c-0.301-1.719-0.776-3.392-1.381-5.026
		c-1.235-3.34-2.9-6.471-4.704-9.535c-0.318-0.542-0.732-0.991-1.228-1.376c-0.527-0.413-1.07-0.805-1.622-1.188
		c-0.689-0.478-1.36-0.977-1.992-1.532c-0.896-0.788-1.89-1.436-2.982-1.929c-0.786-0.353-1.517-0.797-2.243-1.257
		c-1.267-0.799-2.578-1.5-4.085-1.754c-0.57-0.096-1.09-0.358-1.61-0.601c-1.55-0.721-3.172-1.123-4.891-1.141
		c-1.269-0.014-2.535,0.021-3.8,0.103c-0.799,0.052-1.565,0.219-2.289,0.579c-0.564,0.281-1.16,0.493-1.772,0.649
		c-0.814,0.208-1.606,0.477-2.38,0.802c-1.056,0.443-2.09,0.923-2.988,1.653c-0.335,0.273-0.714,0.462-1.171,0.503
		c-0.651,0.058-1.202,0.383-1.719,0.763c-0.264,0.193-0.477,0.441-0.72,0.655c-0.203,0.179-0.412,0.355-0.681,0.42
		c-0.137,0.034-0.262,0.082-0.375,0.16C9.765,7.379,8.74,8.35,7.941,9.55c-0.555,0.832-1.002,1.725-1.511,2.583
		c-0.169,0.288-0.344,0.574-0.559,0.832c-0.172,0.207-0.376,0.349-0.655,0.374c-0.261,0.024-0.453,0.166-0.59,0.385
		c-0.114,0.181-0.203,0.375-0.283,0.571c-0.283,0.696-0.631,1.348-1.073,1.965c-0.699,0.979-1.182,2.076-1.551,3.218
		c-0.234,0.725-0.261,1.506-0.584,2.209c-0.518,1.995-0.696,4.014-0.476,6.066c0.154,1.433,0.426,2.841,0.776,4.238
		c0.207,0.823,0.443,1.642,0.571,2.482c0.079,0.519,0.11,1.036,0.111,1.559c0.001,0.297,0.045,0.592,0.32,0.784
		c0.132,0.09,0.237,0.204,0.329,0.333c0.223,0.315,0.399,0.657,0.54,1.018c0.475,1.216,0.967,2.425,1.556,3.593
		C5.486,43,6.288,44.1,7.336,45.025c0.272,0.239,0.555,0.467,0.83,0.703c-0.161-0.399-0.239-0.828-0.199-1.269
		c0.066-0.731,0.412-1.394,0.976-1.864l0.433-0.362c-0.261-0.157-0.504-0.345-0.704-0.585c-0.599-0.721-0.764-1.66-0.528-2.502
		c-0.104-0.201-0.195-0.411-0.258-0.638c-0.088-0.318-0.198-0.628-0.336-0.927c-0.106-0.23-0.219-0.455-0.411-0.634
		c-0.124-0.115-0.21-0.266-0.231-0.437c-0.054-0.462-0.204-0.897-0.363-1.328c-0.46-1.248-0.761-2.538-1.037-3.834
		c-0.24-1.13-0.441-2.265-0.567-3.413c-0.089-0.811-0.059-1.617,0.05-2.423c0.223-1.643,0.574-3.257,1.101-4.831
		c0.178-0.533,0.378-1.058,0.646-1.555c0.077-0.143,0.163-0.281,0.268-0.405c0.315-0.375,0.562-0.793,0.763-1.238
		c0.113-0.249,0.229-0.496,0.397-0.715c0.091-0.118,0.189-0.222,0.323-0.295c0.123-0.067,0.201-0.184,0.285-0.292
		c0.198-0.258,0.373-0.532,0.521-0.821c0.815-1.598,1.87-3.036,2.986-4.432c0.787-0.984,1.625-1.922,2.546-2.785
		c0.163-0.153,0.333-0.298,0.511-0.434c0.294-0.224,0.62-0.355,0.992-0.395c0.465-0.049,0.877-0.224,1.242-0.527
		c0.942-0.782,1.99-1.404,3.083-1.953c1.183-0.593,2.402-1.098,3.698-1.393c1.278-0.291,2.578-0.357,3.884-0.306
		c0.932,0.037,1.855,0.139,2.768,0.344c0.664,0.15,1.284,0.409,1.895,0.702c1.094,0.524,2.233,0.956,3.31,1.519
		c0.587,0.307,1.108,0.715,1.688,1.034c1.808,0.992,3.439,2.233,5.041,3.518c0.444,0.356,0.864,0.742,1.385,0.986
		c0.458,0.213,0.836,0.52,1.172,0.884c0.278,0.304,0.5,0.65,0.712,1.003c0.808,1.35,1.516,2.748,2.048,4.229
		c0.111,0.307,0.151,0.63,0.231,0.942c0.091,0.354,0.198,0.702,0.494,0.955c0.125,0.109,0.159,0.272,0.207,0.43
		c0.154,0.514,0.371,1.005,0.571,1.502c0.361,0.901,0.768,1.785,1.087,2.704c0.251,0.722,0.308,1.461,0.253,2.215
		c-0.09,1.268-0.196,2.534-0.325,3.799c-0.136,1.339-0.264,2.679-0.575,3.993c-0.114,0.485-0.287,0.945-0.539,1.381
		c-0.31,0.542-0.501,1.139-0.709,1.724c-0.31,0.876-0.697,1.715-1.185,2.508c-0.141,0.229-0.26,0.471-0.398,0.699
		c-0.097,0.16-0.099,0.35-0.184,0.513c-0.141,0.271-0.306,0.525-0.492,0.767c-1.217,1.582-2.573,3.033-4.115,4.307
		c-0.225,0.185-0.466,0.342-0.721,0.483c-0.354,0.197-0.676,0.444-0.921,0.765c-0.437,0.574-0.983,1.024-1.571,1.428
		c-1.19,0.815-2.454,1.489-3.832,1.945c-1.085,0.36-2.202,0.528-3.345,0.535c-0.565,0.002-1.129,0-1.695,0
		c-0.968,0.012-1.934,0.003-2.899-0.062c-0.183-0.012-0.364-0.036-0.545-0.059c-0.04-0.005-0.087-0.009-0.117-0.032
		c-0.35-0.259-0.771-0.294-1.178-0.377c-1.544-0.31-3.073-0.693-4.612-1.025c-0.995-0.216-1.884-0.635-2.721-1.184
		c-0.457-0.3-0.925-0.579-1.398-0.85c-0.228,0.061-0.461,0.102-0.699,0.102c-0.816,0-1.585-0.359-2.111-0.987
		c-0.213-0.256-0.362-0.541-0.468-0.838c-0.13,0.178-0.275,0.346-0.449,0.491l-0.82,0.686c-0.494,0.413-1.121,0.641-1.764,0.641
		c-0.17,0-0.337-0.024-0.502-0.056c0.374,0.277,0.75,0.551,1.111,0.844c0.771,0.621,1.428,1.355,2.021,2.144
		c0.506,0.673,1.141,1.174,1.913,1.514c1.663,0.734,3.321,1.48,4.985,2.214c0.99,0.436,2.004,0.812,3.019,1.188
		c0.395,0.146,0.796,0.311,1.097,0.612c0.214,0.214,0.457,0.328,0.739,0.39c0.557,0.122,1.122,0.126,1.686,0.075
		c0.612-0.051,1.202-0.178,1.737-0.513c0.312-0.195,0.67-0.299,1.04-0.317c0.419-0.021,0.832-0.078,1.236-0.183
		c0.905-0.234,1.814-0.458,2.742-0.579c0.883-0.116,1.739-0.326,2.56-0.667c2.038-0.844,4.025-1.796,5.971-2.833
		c1.009-0.54,2.003-1.109,2.791-1.963c0.089-0.097,0.196-0.185,0.326-0.22c0.111-0.031,0.204-0.085,0.293-0.154
		c0.355-0.273,0.673-0.589,0.99-0.903c1.541-1.54,2.882-3.248,4.18-4.99c0.717-0.962,1.345-1.975,1.774-3.102
		c0.27-0.705,0.599-1.385,0.935-2.06c0.233-0.467,0.448-0.944,0.598-1.443c0.288-0.954,0.57-1.909,0.842-2.868
		c0.207-0.73,0.398-1.466,0.437-2.229c0.023-0.45,0.089-0.891,0.252-1.307c0.265-0.668,0.354-1.357,0.341-1.987
		C55.823,27.188,55.725,26.404,55.59,25.625z"/>
</g>
</svg>
