<?xml version="1.0" encoding="UTF-8" standalone="no"?>
<!-- Generator: Adobe Illustrator 16.0.0, SVG Export Plug-In . SVG Version: 6.00 Build 0)  -->

<svg
   xmlns:dc="http://purl.org/dc/elements/1.1/"
   xmlns:cc="http://creativecommons.org/ns#"
   xmlns:rdf="http://www.w3.org/1999/02/22-rdf-syntax-ns#"
   xmlns:svg="http://www.w3.org/2000/svg"
   xmlns="http://www.w3.org/2000/svg"
   xmlns:sodipodi="http://sodipodi.sourceforge.net/DTD/sodipodi-0.dtd"
   xmlns:inkscape="http://www.inkscape.org/namespaces/inkscape"
   version="1.1"
   id="Layer_1"
   x="0px"
   y="0px"
   width="56.693px"
   height="56.693px"
   viewBox="0 0 56.693 56.693"
   enable-background="new 0 0 56.693 56.693"
   xml:space="preserve"
   sodipodi:docname="Climat-Polaire.svg"
   inkscape:version="0.92.0 r15299"><metadata
   id="metadata271"><rdf:RDF><cc:Work
       rdf:about=""><dc:format>image/svg+xml</dc:format><dc:type
         rdf:resource="http://purl.org/dc/dcmitype/StillImage" /></cc:Work></rdf:RDF></metadata><defs
   id="defs269">
		
		
		
	
				
				
				
				
				
			
				
				
				
				
				
			
						
					
				
				
				
				
				
			
						
					
							
						
					
				
	

				
				
				
				
				
			
					
				
					
				
					
				
					
				
					
				
						
					
						
					
						
					
						
					
						
					
							
						
							
						
							
						
							
						
							
						
				
				
				
				
				
			
					
				
					
				
					
				
					
				
					
				
						
					
						
					
						
					
						
					
						
					
							
						
							
						
							
						
							
						
							
						
			
			
		
			
			
		
					
				
					
				
					
				
					
				
					
				
				
				
				
				
				
			
					
				
					
				
					
				
					
				
					
				
						
					
						
					
						
					
						
					
						
					
							
						
							
						
							
						
							
						
							
						
						
					
						
					
						
					
						
					
						
					
							
						
							
						
							
						
							
						
							
						
					
				
						
					
							
						
					
				
						
					
							
						
					
				
						
					
							
						
			
			
		
					
				
					
				
					
				
					
				
					
				
					
				
						
					
							
						
						
					
						
					
						
					
						
					
							
						
							
						
							
						
							
						
							
						</defs><sodipodi:namedview
   pagecolor="#ffffff"
   bordercolor="#666666"
   borderopacity="1"
   objecttolerance="10"
   gridtolerance="10"
   guidetolerance="10"
   inkscape:pageopacity="0"
   inkscape:pageshadow="2"
   inkscape:window-width="1280"
   inkscape:window-height="961"
   id="namedview267"
   showgrid="false"
   inkscape:zoom="4.1627714"
   inkscape:cx="-3.8435933"
   inkscape:cy="28.3465"
   inkscape:window-x="-8"
   inkscape:window-y="-8"
   inkscape:window-maximized="1"
   inkscape:current-layer="Layer_1" />
<path
   style="fill:#bd0c27"
   d="M 28.849609 0.28710938 C 27.580609 0.27310937 26.315781 0.308625 25.050781 0.390625 C 24.251781 0.442625 23.485719 0.60875 22.761719 0.96875 C 22.197719 1.24975 21.600281 1.4611875 20.988281 1.6171875 C 20.174281 1.8251875 19.383375 2.0949219 18.609375 2.4199219 C 17.553375 2.8629219 16.519094 3.3422656 15.621094 4.0722656 C 15.286094 4.3452656 14.907219 4.5351719 14.449219 4.5761719 C 13.798219 4.6331719 13.248469 4.9598438 12.730469 5.3398438 C 12.467469 5.5328438 12.254719 5.7801406 12.011719 5.9941406 C 11.808719 6.1731406 11.599078 6.3490625 11.330078 6.4140625 C 11.193078 6.4490625 11.068078 6.4962187 10.955078 6.5742188 C 9.7640781 7.3802188 8.7384531 8.3507813 7.9394531 9.5507812 C 7.3854531 10.382781 6.9386875 11.275766 6.4296875 12.134766 C 6.2596875 12.422766 6.0841406 12.708797 5.8691406 12.966797 C 5.6971406 13.173797 5.4938437 13.314844 5.2148438 13.339844 C 4.9538437 13.363844 4.762 13.505609 4.625 13.724609 C 4.51 13.905609 4.4217969 14.099875 4.3417969 14.296875 C 4.0587969 14.991875 3.7105312 15.644719 3.2695312 16.261719 C 2.5705313 17.240719 2.08775 18.336516 1.71875 19.478516 C 1.48475 20.202516 1.4577656 20.9835 1.1347656 21.6875 C 0.61676562 23.6825 0.43820313 25.701906 0.65820312 27.753906 C 0.81220313 29.185906 1.0835938 30.594234 1.4335938 31.990234 C 1.6405938 32.813234 1.8778594 33.631656 2.0058594 34.472656 C 2.0848594 34.991656 2.1142344 35.50925 2.1152344 36.03125 C 2.1162344 36.32825 2.1605469 36.624406 2.4355469 36.816406 C 2.5675469 36.906406 2.673625 37.019438 2.765625 37.148438 C 2.988625 37.464438 3.1646875 37.807969 3.3046875 38.167969 C 3.7796875 39.383969 4.2723281 40.591766 4.8613281 41.759766 C 5.4863281 42.999766 6.2889375 44.100438 7.3359375 45.023438 C 8.0749375 45.674437 8.8198438 46.317594 9.5898438 46.933594 C 10.152844 47.385594 10.753453 47.786234 11.314453 48.240234 C 12.084453 48.862234 12.742938 49.596766 13.335938 50.384766 C 13.841938 51.057766 14.477047 51.558437 15.248047 51.898438 C 16.911047 52.633437 18.567422 53.380281 20.232422 54.113281 C 21.222422 54.549281 22.236953 54.925781 23.251953 55.300781 C 23.646953 55.446781 24.048609 55.610109 24.349609 55.912109 C 24.563609 56.126109 24.804891 56.240734 25.087891 56.302734 C 25.644891 56.424734 26.209437 56.429906 26.773438 56.378906 C 27.385438 56.327906 27.976719 56.200234 28.511719 55.865234 C 28.822719 55.670234 29.180781 55.567828 29.550781 55.548828 C 29.969781 55.527828 30.383109 55.469234 30.787109 55.365234 C 31.692109 55.131234 32.601297 54.906156 33.529297 54.785156 C 34.412297 54.669156 35.269844 54.460141 36.089844 54.119141 C 38.127844 53.275141 40.115547 52.322156 42.060547 51.285156 C 43.069547 50.745156 44.063563 50.176266 44.851562 49.322266 C 44.940562 49.225266 45.047734 49.138516 45.177734 49.103516 C 45.288734 49.072516 45.381703 49.018219 45.470703 48.949219 C 45.825703 48.676219 46.143937 48.360875 46.460938 48.046875 C 48.001937 46.506875 49.342625 44.798641 50.640625 43.056641 C 51.356625 42.094641 51.984063 41.080125 52.414062 39.953125 C 52.684063 39.247125 53.013609 38.569531 53.349609 37.894531 C 53.583609 37.428531 53.798266 36.950172 53.947266 36.451172 C 54.235266 35.497172 54.518062 34.541031 54.789062 33.582031 C 54.997062 32.852031 55.188563 32.117516 55.226562 31.353516 C 55.249563 30.902516 55.315516 30.462875 55.478516 30.046875 C 55.743516 29.378875 55.832359 28.689547 55.818359 28.060547 C 55.822359 27.188547 55.724891 26.404953 55.587891 25.626953 C 55.286891 23.908953 54.811031 22.234609 54.207031 20.599609 C 52.972031 17.258609 51.307906 14.127453 49.503906 11.064453 C 49.184906 10.522453 48.770391 10.075453 48.275391 9.6894531 C 47.748391 9.2764531 47.204344 8.8839531 46.652344 8.5019531 C 45.963344 8.0249531 45.292156 7.52375 44.660156 6.96875 C 43.764156 6.18075 42.772688 5.5320625 41.679688 5.0390625 C 40.893687 4.6860625 40.162547 4.2422031 39.435547 3.7832031 C 38.168547 2.9852031 36.858562 2.2832969 35.351562 2.0292969 C 34.781562 1.9332969 34.261234 1.6697344 33.740234 1.4277344 C 32.190234 0.70673437 30.568609 0.30510938 28.849609 0.28710938 z M 27.255859 3.1210938 C 27.581406 3.1175312 27.907625 3.1239687 28.234375 3.1367188 C 29.166375 3.1727188 30.089953 3.2744688 31.001953 3.4804688 C 31.666953 3.6304687 32.286484 3.8886406 32.896484 4.1816406 C 33.990484 4.7056406 35.131031 5.1381719 36.207031 5.7011719 C 36.793031 6.0081719 37.314531 6.415375 37.894531 6.734375 C 39.702531 7.726375 41.333547 8.9689062 42.935547 10.253906 C 43.380547 10.610906 43.799312 10.994281 44.320312 11.238281 C 44.778312 11.451281 45.156188 11.758047 45.492188 12.123047 C 45.770188 12.427047 45.993078 12.773953 46.205078 13.126953 C 47.013078 14.475953 47.721906 15.873469 48.253906 17.355469 C 48.364906 17.661469 48.404375 17.984875 48.484375 18.296875 C 48.575375 18.650875 48.682516 18.998953 48.978516 19.251953 C 49.103516 19.360953 49.137547 19.523641 49.185547 19.681641 C 49.339547 20.194641 49.555859 20.686594 49.755859 21.183594 C 50.116859 22.084594 50.52475 22.969672 50.84375 23.888672 C 51.09475 24.609672 51.150703 25.349516 51.095703 26.103516 C 51.005703 27.371516 50.900484 28.637344 50.771484 29.902344 C 50.635484 31.241344 50.507312 32.581531 50.195312 33.894531 C 50.081312 34.379531 49.90825 34.839391 49.65625 35.275391 C 49.34625 35.817391 49.155266 36.413047 48.947266 36.998047 C 48.637266 37.874047 48.250672 38.714813 47.763672 39.507812 C 47.623672 39.735813 47.504234 39.976078 47.365234 40.205078 C 47.268234 40.365078 47.266641 40.55575 47.181641 40.71875 C 47.041641 40.98975 46.876453 41.245328 46.689453 41.486328 C 45.472453 43.068328 44.116219 44.519969 42.574219 45.792969 C 42.349219 45.976969 42.108516 46.133391 41.853516 46.275391 C 41.498516 46.473391 41.176641 46.721016 40.931641 47.041016 C 40.495641 47.615016 39.949328 48.06575 39.361328 48.46875 C 38.171328 49.28375 36.907297 49.958062 35.529297 50.414062 C 34.444297 50.774062 33.326594 50.942219 32.183594 50.949219 C 31.618594 50.951219 31.054281 50.949219 30.488281 50.949219 C 29.520281 50.961219 28.556938 50.951672 27.585938 50.888672 C 27.403937 50.876672 27.220063 50.852078 27.039062 50.830078 C 26.999063 50.825078 26.953828 50.821828 26.923828 50.798828 C 26.573828 50.539828 26.151141 50.504875 25.744141 50.421875 C 24.200141 50.112875 22.672812 49.728484 21.132812 49.396484 C 20.138813 49.180484 19.249109 48.761891 18.412109 48.212891 C 17.395109 47.545891 16.338188 46.953781 15.242188 46.425781 C 14.918188 46.269781 14.603734 46.091578 14.302734 45.892578 C 14.008734 45.697578 13.742594 45.484969 13.558594 45.167969 C 13.384594 44.866969 13.120797 44.630734 12.841797 44.427734 C 12.204797 43.963734 11.696141 43.377141 11.244141 42.744141 C 10.576141 41.807141 9.8379375 40.936594 8.9609375 40.183594 C 8.4359375 39.733594 8.0678125 39.178766 7.8828125 38.509766 C 7.7948125 38.190766 7.685875 37.881031 7.546875 37.582031 C 7.439875 37.351031 7.3277187 37.126266 7.1367188 36.947266 C 7.0127188 36.831266 6.9252969 36.682719 6.9042969 36.511719 C 6.8502969 36.049719 6.7019687 35.614594 6.5429688 35.183594 C 6.0829688 33.935594 5.7818594 32.645609 5.5058594 31.349609 C 5.2658594 30.219609 5.0635 29.083547 4.9375 27.935547 C 4.8485 27.125547 4.8792813 26.319672 4.9882812 25.513672 C 5.2112812 23.870672 5.5638438 22.255641 6.0898438 20.681641 C 6.2678437 20.147641 6.466375 19.623953 6.734375 19.126953 C 6.812375 18.984953 6.8999062 18.847656 7.0039062 18.722656 C 7.3189062 18.347656 7.564625 17.929375 7.765625 17.484375 C 7.877625 17.235375 7.9941094 16.988531 8.1621094 16.769531 C 8.2531094 16.652531 8.3523281 16.547609 8.4863281 16.474609 C 8.6093281 16.408609 8.6884844 16.290641 8.7714844 16.181641 C 8.9694844 15.922641 9.1459687 15.650328 9.2929688 15.361328 C 10.107969 13.762328 11.161344 12.325687 12.277344 10.929688 C 13.064344 9.9456875 13.903219 9.0075312 14.824219 8.1445312 C 14.987219 7.9915313 15.157937 7.8469375 15.335938 7.7109375 C 15.629938 7.4859375 15.954172 7.3534531 16.326172 7.3144531 C 16.791172 7.2654531 17.203359 7.0901094 17.568359 6.7871094 C 18.510359 6.0051094 19.559344 5.3849375 20.652344 4.8359375 C 21.834344 4.2429375 23.053609 3.7364062 24.349609 3.4414062 C 25.308109 3.2231563 26.279219 3.1317812 27.255859 3.1210938 z M 28.355469 8.3164062 C 27.941469 8.3164062 27.605469 8.6524063 27.605469 9.0664062 L 27.605469 11.314453 L 25.322266 9.9960938 C 24.965266 9.7880937 24.506828 9.9124852 24.298828 10.271484 C 24.091828 10.629484 24.213268 11.087922 24.572266 11.294922 L 27.605469 13.046875 L 27.605469 15.798828 L 23.244141 13.279297 C 22.886141 13.071297 22.427703 13.196686 22.220703 13.554688 C 22.013703 13.912688 22.135143 14.371125 22.494141 14.578125 L 27.605469 17.53125 L 27.605469 27.076172 L 19.339844 22.304688 L 19.339844 16.400391 C 19.339844 15.986391 19.003844 15.650391 18.589844 15.650391 C 18.175844 15.650391 17.839844 15.986391 17.839844 16.400391 L 17.839844 21.439453 L 15.457031 20.064453 L 15.457031 16.558594 C 15.457031 16.143594 15.121031 15.808594 14.707031 15.808594 C 14.292031 15.808594 13.957031 16.144594 13.957031 16.558594 L 13.957031 19.197266 L 12.007812 18.072266 C 11.649812 17.865266 11.191375 17.986703 10.984375 18.345703 C 10.777375 18.703703 10.898813 19.162141 11.257812 19.369141 L 13.208984 20.496094 L 10.923828 21.814453 C 10.565828 22.021453 10.441437 22.480844 10.648438 22.839844 C 10.787438 23.080844 11.039828 23.214844 11.298828 23.214844 C 11.425828 23.214844 11.555828 23.182281 11.673828 23.113281 L 14.708984 21.361328 L 17.091797 22.738281 L 12.726562 25.257812 C 12.368563 25.464813 12.244172 25.92225 12.451172 26.28125 C 12.590172 26.52225 12.842562 26.65625 13.101562 26.65625 C 13.228562 26.65625 13.358562 26.623687 13.476562 26.554688 L 18.589844 23.603516 L 26.857422 28.376953 L 18.587891 33.148438 L 13.476562 30.197266 C 13.118562 29.989266 12.658172 30.114656 12.451172 30.472656 C 12.244172 30.830656 12.367563 31.289094 12.726562 31.496094 L 17.089844 34.015625 L 14.707031 35.390625 L 11.673828 33.640625 C 11.314828 33.432625 10.855438 33.555062 10.648438 33.914062 C 10.441437 34.273063 10.565828 34.7305 10.923828 34.9375 L 13.207031 36.255859 L 11.259766 37.380859 C 10.901766 37.587859 10.777375 38.046297 10.984375 38.404297 C 11.123375 38.644297 11.375766 38.779297 11.634766 38.779297 C 11.762766 38.779297 11.891766 38.747687 12.009766 38.679688 L 13.957031 37.554688 L 13.957031 40.191406 C 13.957031 40.605406 14.292031 40.941406 14.707031 40.941406 C 15.121031 40.941406 15.457031 40.605406 15.457031 40.191406 L 15.457031 36.689453 L 17.839844 35.3125 L 17.839844 40.351562 C 17.839844 40.765563 18.175844 41.101562 18.589844 41.101562 C 19.003844 41.101562 19.339844 40.765563 19.339844 40.351562 L 19.339844 34.447266 L 27.605469 29.673828 L 27.605469 39.222656 L 22.494141 42.171875 C 22.136141 42.378875 22.013703 42.837314 22.220703 43.195312 C 22.359703 43.435313 22.610141 43.570312 22.869141 43.570312 C 22.996141 43.570312 23.126141 43.539703 23.244141 43.470703 L 27.605469 40.953125 L 27.605469 43.703125 L 24.572266 45.455078 C 24.214266 45.662078 24.091828 46.120516 24.298828 46.478516 C 24.437828 46.718516 24.690219 46.853516 24.949219 46.853516 C 25.076219 46.853516 25.204266 46.822906 25.322266 46.753906 L 27.605469 45.435547 L 27.605469 47.685547 C 27.605469 48.099547 27.941469 48.435547 28.355469 48.435547 C 28.770469 48.435547 29.105469 48.099547 29.105469 47.685547 L 29.105469 45.433594 L 31.390625 46.753906 C 31.508625 46.822906 31.638625 46.853516 31.765625 46.853516 C 32.024625 46.853516 32.275062 46.719516 32.414062 46.478516 C 32.621063 46.120516 32.498622 45.662078 32.140625 45.455078 L 29.105469 43.703125 L 29.105469 40.949219 L 33.470703 43.470703 C 33.588703 43.539703 33.71675 43.570312 33.84375 43.570312 C 34.10375 43.570312 34.355141 43.436312 34.494141 43.195312 C 34.701141 42.837314 34.578701 42.378875 34.220703 42.171875 L 29.105469 39.220703 L 29.105469 29.671875 L 37.373047 34.447266 L 37.373047 40.351562 C 37.373047 40.765563 37.709047 41.101562 38.123047 41.101562 C 38.537047 41.101562 38.873047 40.765563 38.873047 40.351562 L 38.873047 35.3125 L 41.255859 36.689453 L 41.257812 40.191406 C 41.257812 40.605406 41.593812 40.941406 42.007812 40.941406 C 42.421813 40.941406 42.757812 40.605406 42.757812 40.191406 L 42.755859 37.554688 L 44.703125 38.679688 C 44.821125 38.748688 44.949172 38.779297 45.076172 38.779297 C 45.336172 38.779297 45.588563 38.645297 45.726562 38.404297 C 45.933563 38.046297 45.811125 37.587859 45.453125 37.380859 L 43.505859 36.255859 L 45.789062 34.9375 C 46.147063 34.7305 46.271453 34.270109 46.064453 33.912109 C 45.858453 33.555109 45.399062 33.429672 45.039062 33.638672 L 42.007812 35.390625 L 39.623047 34.013672 L 43.986328 31.496094 C 44.344328 31.289094 44.466766 30.830656 44.259766 30.472656 C 44.052766 30.115656 43.596328 29.990266 43.236328 30.197266 L 38.125 33.148438 L 29.857422 28.375 L 38.121094 23.601562 L 43.234375 26.554688 C 43.352375 26.623687 43.482375 26.654297 43.609375 26.654297 C 43.869375 26.654297 44.121766 26.520297 44.259766 26.279297 C 44.466766 25.921297 44.342375 25.462859 43.984375 25.255859 L 39.621094 22.736328 L 42.003906 21.361328 L 45.039062 23.111328 C 45.157063 23.180328 45.285109 23.212891 45.412109 23.212891 C 45.672109 23.212891 45.9245 23.078891 46.0625 22.837891 C 46.2695 22.479891 46.147062 22.021453 45.789062 21.814453 L 43.503906 20.494141 L 45.453125 19.369141 C 45.811125 19.162141 45.933563 18.704703 45.726562 18.345703 C 45.520562 17.987703 45.062125 17.862313 44.703125 18.070312 L 42.755859 19.195312 L 42.755859 16.558594 C 42.755859 16.144594 42.419859 15.808594 42.005859 15.808594 C 41.591859 15.808594 41.255859 16.144594 41.255859 16.558594 L 41.255859 20.060547 L 38.871094 21.4375 L 38.871094 16.398438 C 38.871094 15.984438 38.535094 15.648438 38.121094 15.648438 C 37.707094 15.648438 37.371094 15.984438 37.371094 16.398438 L 37.371094 22.304688 L 29.105469 27.076172 L 29.105469 17.53125 L 34.21875 14.578125 C 34.57675 14.371125 34.699188 13.913685 34.492188 13.554688 C 34.286186 13.196687 33.82875 13.070297 33.46875 13.279297 L 29.105469 15.798828 L 29.105469 13.046875 L 32.138672 11.294922 C 32.496672 11.087922 32.619109 10.629484 32.412109 10.271484 C 32.206109 9.9134852 31.747672 9.7880937 31.388672 9.9960938 L 29.105469 11.314453 L 29.105469 9.0664062 C 29.105469 8.6524063 28.769469 8.3164062 28.355469 8.3164062 z "
   id="path2" />

</svg>