<?xml version="1.0" encoding="UTF-8" standalone="no"?>
<!-- Generator: Adobe Illustrator 16.0.0, SVG Export Plug-In . SVG Version: 6.00 Build 0)  -->

<svg
   xmlns:dc="http://purl.org/dc/elements/1.1/"
   xmlns:cc="http://creativecommons.org/ns#"
   xmlns:rdf="http://www.w3.org/1999/02/22-rdf-syntax-ns#"
   xmlns:svg="http://www.w3.org/2000/svg"
   xmlns="http://www.w3.org/2000/svg"
   xmlns:sodipodi="http://sodipodi.sourceforge.net/DTD/sodipodi-0.dtd"
   xmlns:inkscape="http://www.inkscape.org/namespaces/inkscape"
   version="1.1"
   id="Layer_1"
   x="0px"
   y="0px"
   width="56.693px"
   height="56.693px"
   viewBox="0 0 56.693 56.693"
   enable-background="new 0 0 56.693 56.693"
   xml:space="preserve"
   sodipodi:docname="Climat-Tropical.svg"
   inkscape:version="0.92.0 r15299"><metadata
   id="metadata19"><rdf:RDF><cc:Work
       rdf:about=""><dc:format>image/svg+xml</dc:format><dc:type
         rdf:resource="http://purl.org/dc/dcmitype/StillImage" /></cc:Work></rdf:RDF></metadata><defs
   id="defs17">
	

	
</defs><sodipodi:namedview
   pagecolor="#ffffff"
   bordercolor="#666666"
   borderopacity="1"
   objecttolerance="10"
   gridtolerance="10"
   guidetolerance="10"
   inkscape:pageopacity="0"
   inkscape:pageshadow="2"
   inkscape:window-width="1280"
   inkscape:window-height="961"
   id="namedview15"
   showgrid="false"
   inkscape:zoom="4.1627714"
   inkscape:cx="-3.8435933"
   inkscape:cy="28.3465"
   inkscape:window-x="-8"
   inkscape:window-y="-8"
   inkscape:window-maximized="1"
   inkscape:current-layer="Layer_1" />

<path
   style="fill:#bd0c27"
   d="M 28.851562 0.28515625 C 27.582563 0.27115625 26.317734 0.30667188 25.052734 0.38867188 C 24.253734 0.44067187 23.487672 0.60875 22.763672 0.96875 C 22.199672 1.24975 21.602234 1.4611875 20.990234 1.6171875 C 20.176234 1.8251875 19.385328 2.0949219 18.611328 2.4199219 C 17.555328 2.8629219 16.521047 3.3422656 15.623047 4.0722656 C 15.288047 4.3452656 14.908172 4.5332187 14.451172 4.5742188 C 13.800172 4.6322187 13.249422 4.9578906 12.732422 5.3378906 C 12.468422 5.5308906 12.256672 5.7781875 12.013672 5.9921875 C 11.810672 6.1711875 11.601031 6.3471094 11.332031 6.4121094 C 11.195031 6.4461094 11.070031 6.4942656 10.957031 6.5722656 C 9.7650312 7.3782656 8.7404062 8.3507812 7.9414062 9.5507812 C 7.3864063 10.382781 6.9386875 11.274812 6.4296875 12.132812 C 6.2606875 12.420813 6.0860937 12.706844 5.8710938 12.964844 C 5.6990938 13.171844 5.4957969 13.314844 5.2167969 13.339844 C 4.9557969 13.363844 4.7639531 13.505609 4.6269531 13.724609 C 4.5129531 13.905609 4.42375 14.098922 4.34375 14.294922 C 4.06075 14.990922 3.7115312 15.642766 3.2695312 16.259766 C 2.5705313 17.238766 2.08775 18.336516 1.71875 19.478516 C 1.48475 20.203516 1.4577656 20.9845 1.1347656 21.6875 C 0.61676562 23.6825 0.43820313 25.701906 0.65820312 27.753906 C 0.81220313 29.186906 1.0855469 30.594234 1.4355469 31.990234 C 1.6425469 32.813234 1.8778594 33.632656 2.0058594 34.472656 C 2.0848594 34.991656 2.1161875 35.50825 2.1171875 36.03125 C 2.1181875 36.32825 2.1625 36.622453 2.4375 36.814453 C 2.5695 36.904453 2.673625 37.019438 2.765625 37.148438 C 2.988625 37.463437 3.1656406 37.805016 3.3066406 38.166016 C 3.7816406 39.382016 4.2723281 40.591766 4.8613281 41.759766 C 5.4853281 43.000766 6.2879375 44.099438 7.3359375 45.023438 C 8.0749375 45.674438 8.8208437 46.317594 9.5898438 46.933594 C 10.152844 47.384594 10.753453 47.788187 11.314453 48.242188 C 12.085453 48.863188 12.742938 49.597719 13.335938 50.386719 C 13.841938 51.059719 14.476047 51.560391 15.248047 51.900391 C 16.911047 52.634391 18.570375 53.379281 20.234375 54.113281 C 21.224375 54.549281 22.238906 54.926734 23.253906 55.302734 C 23.648906 55.448734 24.048609 55.613062 24.349609 55.914062 C 24.563609 56.128062 24.807844 56.242688 25.089844 56.304688 C 25.646844 56.426687 26.211391 56.429906 26.775391 56.378906 C 27.387391 56.327906 27.976719 56.200234 28.511719 55.865234 C 28.823719 55.670234 29.182734 55.566828 29.552734 55.548828 C 29.971734 55.527828 30.383109 55.470234 30.787109 55.365234 C 31.692109 55.131234 32.601297 54.908109 33.529297 54.787109 C 34.412297 54.671109 35.268844 54.460141 36.089844 54.119141 C 38.127844 53.275141 40.114547 52.324109 42.060547 51.287109 C 43.069547 50.747109 44.063563 50.178219 44.851562 49.324219 C 44.940562 49.227219 45.047734 49.138516 45.177734 49.103516 C 45.288734 49.072516 45.381703 49.018219 45.470703 48.949219 C 45.825703 48.676219 46.143937 48.360875 46.460938 48.046875 C 48.001937 46.506875 49.342625 44.798641 50.640625 43.056641 C 51.357625 42.094641 51.985062 41.082078 52.414062 39.955078 C 52.684063 39.250078 53.013609 38.569531 53.349609 37.894531 C 53.582609 37.427531 53.797266 36.950172 53.947266 36.451172 C 54.235266 35.497172 54.517063 34.542984 54.789062 33.583984 C 54.996063 32.853984 55.187563 32.118469 55.226562 31.355469 C 55.249563 30.905469 55.315516 30.464828 55.478516 30.048828 C 55.743516 29.380828 55.833312 28.690547 55.820312 28.060547 C 55.823312 27.187547 55.724844 26.404 55.589844 25.625 C 55.288844 23.906 54.813984 22.233609 54.208984 20.599609 C 52.973984 17.259609 51.309859 14.128453 49.505859 11.064453 C 49.187859 10.522453 48.773344 10.0725 48.277344 9.6875 C 47.750344 9.2745 47.206297 8.883 46.654297 8.5 C 45.965297 8.022 45.294109 7.52375 44.662109 6.96875 C 43.766109 6.18075 42.773641 5.5320625 41.681641 5.0390625 C 40.895641 4.6860625 40.1635 4.24125 39.4375 3.78125 C 38.1705 2.98225 36.860516 2.2813438 35.353516 2.0273438 C 34.783516 1.9313437 34.262187 1.6707344 33.742188 1.4277344 C 32.192188 0.70673438 30.570562 0.30315625 28.851562 0.28515625 z M 27.259766 3.1230469 C 27.585266 3.1194844 27.911781 3.1239687 28.238281 3.1367188 C 29.170281 3.1737187 30.092859 3.2754688 31.005859 3.4804688 C 31.669859 3.6304687 32.289391 3.8905938 32.900391 4.1835938 C 33.994391 4.7075938 35.133937 5.1381719 36.210938 5.7011719 C 36.797938 6.0081719 37.318437 6.4173281 37.898438 6.7363281 C 39.706437 7.7283281 41.337453 8.9689062 42.939453 10.253906 C 43.383453 10.609906 43.803219 10.996234 44.324219 11.240234 C 44.782219 11.453234 45.160094 11.759047 45.496094 12.123047 C 45.774094 12.427047 45.996984 12.773953 46.208984 13.126953 C 47.016984 14.476953 47.725812 15.874469 48.257812 17.355469 C 48.368812 17.662469 48.408281 17.986828 48.488281 18.298828 C 48.579281 18.652828 48.686422 19.000906 48.982422 19.253906 C 49.107422 19.362906 49.141453 19.525594 49.189453 19.683594 C 49.343453 20.197594 49.559766 20.688547 49.759766 21.185547 C 50.120766 22.086547 50.528656 22.969672 50.847656 23.888672 C 51.095656 24.610672 51.151656 25.349516 51.097656 26.103516 C 51.007656 27.371516 50.900484 28.637344 50.771484 29.902344 C 50.635484 31.241344 50.508266 32.581531 50.197266 33.894531 C 50.083266 34.379531 49.910203 34.839391 49.658203 35.275391 C 49.348203 35.817391 49.157219 36.415 48.949219 37 C 48.648219 37.851 48.269734 38.6645 47.802734 39.4375 C 48.005734 39.9705 47.985406 40.584187 47.691406 41.117188 C 47.372406 41.698188 46.797688 42.044141 46.179688 42.119141 C 45.094687 43.455141 43.907219 44.693922 42.574219 45.794922 C 42.349219 45.979922 42.108516 46.136344 41.853516 46.277344 C 41.499516 46.474344 41.178594 46.721969 40.933594 47.042969 C 40.496594 47.616969 39.949328 48.066703 39.361328 48.470703 C 38.171328 49.285703 36.907297 49.958062 35.529297 50.414062 C 34.444297 50.774062 33.328547 50.942219 32.185547 50.949219 C 31.620547 50.951219 31.056234 50.949219 30.490234 50.949219 C 29.522234 50.961219 28.556797 50.953672 27.591797 50.888672 C 27.408797 50.876672 27.227875 50.851125 27.046875 50.828125 C 27.006875 50.823125 26.959688 50.819875 26.929688 50.796875 C 26.579687 50.537875 26.158953 50.502922 25.751953 50.419922 C 24.207953 50.109922 22.677672 49.726531 21.138672 49.394531 C 20.143672 49.178531 19.254969 48.759937 18.417969 48.210938 C 17.399969 47.543937 16.344047 46.951828 15.248047 46.423828 C 14.923047 46.267828 14.608594 46.089625 14.308594 45.890625 C 14.014594 45.696625 13.747453 45.484016 13.564453 45.166016 C 13.390453 44.865016 13.126656 44.630734 12.847656 44.427734 C 12.210656 43.963734 11.702 43.377141 11.25 42.744141 C 10.582 41.807141 9.8437969 40.934641 8.9667969 40.181641 C 8.4417969 39.731641 8.0736719 39.176812 7.8886719 38.507812 C 7.8006719 38.189813 7.6907344 37.879078 7.5527344 37.580078 C 7.4467344 37.350078 7.3345781 37.126266 7.1425781 36.947266 C 7.0185781 36.832266 6.9311562 36.680766 6.9101562 36.509766 C 6.8561562 36.047766 6.7078281 35.612641 6.5488281 35.181641 C 6.0888281 33.933641 5.7877187 32.643656 5.5117188 31.347656 C 5.2717187 30.217656 5.0693594 29.083547 4.9433594 27.935547 C 4.8543594 27.124547 4.8851406 26.317719 4.9941406 25.511719 C 5.2171406 23.868719 5.5687031 22.255641 6.0957031 20.681641 C 6.2737031 20.148641 6.4722344 19.623953 6.7402344 19.126953 C 6.8172344 18.983953 6.9047656 18.844703 7.0097656 18.720703 C 7.3247656 18.345703 7.5704844 17.927422 7.7714844 17.482422 C 7.8844844 17.233422 8.0019219 16.986578 8.1699219 16.767578 C 8.2609219 16.649578 8.3581875 16.545656 8.4921875 16.472656 C 8.6151875 16.405656 8.6933438 16.289641 8.7773438 16.181641 C 8.8803437 16.047641 8.9588281 15.896906 9.0488281 15.753906 C 8.9358281 15.252906 9.0087813 14.712047 9.3007812 14.248047 C 9.5777812 13.809047 10.001703 13.515672 10.470703 13.388672 C 11.034703 12.542672 11.64425 11.726688 12.28125 10.929688 C 13.06825 9.9456875 13.907125 9.0075312 14.828125 8.1445312 C 14.991125 7.9915313 15.161844 7.8469375 15.339844 7.7109375 C 15.633844 7.4869375 15.958078 7.3564063 16.330078 7.3164062 C 16.795078 7.2674062 17.207266 7.0920625 17.572266 6.7890625 C 18.514266 6.0070625 19.56325 5.3849375 20.65625 4.8359375 C 21.83925 4.2429375 23.057516 3.7383594 24.353516 3.4433594 C 25.312016 3.2251094 26.283266 3.1337344 27.259766 3.1230469 z M 33.972656 9.8261719 L 32.101562 14.164062 C 31.345562 15.914062 29.62025 17.136719 27.90625 17.136719 C 27.17425 17.136719 26.119906 16.909172 25.253906 15.826172 L 23.869141 14.095703 L 23.917969 16.310547 C 23.940969 17.350547 23.710375 18.125328 23.234375 18.611328 C 22.181375 19.687328 19.733281 19.43525 16.488281 17.90625 L 10.986328 15.314453 L 15.693359 19.164062 C 17.872359 20.946063 18.997172 22.844281 18.701172 24.238281 C 18.406172 25.627281 16.699719 26.785844 13.761719 27.589844 L 10.357422 28.521484 L 13.845703 29.054688 C 16.149703 29.407688 18.964203 31.073391 19.283203 32.775391 C 19.463203 33.734391 18.775281 34.668734 17.238281 35.552734 L 12.947266 38.021484 L 17.777344 36.933594 C 18.576344 36.754594 19.391766 36.660156 20.134766 36.660156 C 21.216766 36.660156 22.685922 36.857828 23.544922 37.798828 C 24.125922 38.434828 24.364859 39.364547 24.255859 40.560547 L 23.685547 46.792969 L 25.708984 40.869141 C 26.223984 39.364141 27.340312 38.466797 28.695312 38.466797 C 30.083312 38.466797 31.581109 39.385734 32.912109 41.052734 L 34.888672 43.529297 L 34.232422 40.429688 C 33.959422 39.142688 34.088703 38.088891 34.595703 37.462891 C 35.384703 36.487891 37.202516 36.502859 39.603516 37.505859 L 45.935547 40.148438 L 40.324219 36.201172 C 38.646219 35.021172 37.885062 33.297797 38.289062 31.591797 C 38.734063 29.707797 40.437375 28.323469 42.734375 27.980469 L 45.693359 27.539062 L 42.876953 26.533203 C 41.603953 26.079203 39.388281 25.061516 38.863281 23.353516 C 38.537281 22.291516 38.8985 21.031328 39.9375 19.611328 L 42.640625 15.917969 L 38.900391 18.556641 C 37.250391 19.720641 35.690672 19.726266 34.638672 18.572266 C 33.798672 17.651266 33.386156 16.14125 33.535156 14.53125 L 33.972656 9.8261719 z M 32.164062 16.738281 C 32.390062 17.853281 32.85925 18.848938 33.53125 19.585938 C 34.58425 20.740938 36.049266 21.183266 37.572266 20.822266 C 37.192266 21.867266 37.144641 22.862875 37.431641 23.796875 C 37.890641 25.289875 39.121219 26.350844 40.449219 27.089844 C 38.596219 27.904844 37.272031 29.388047 36.832031 31.248047 C 36.496031 32.668047 36.73275 34.083266 37.46875 35.322266 C 37.11475 35.268266 36.776078 35.242188 36.455078 35.242188 C 34.813078 35.242188 33.906594 35.938484 33.433594 36.521484 C 32.980594 37.078484 32.710047 37.779656 32.623047 38.597656 C 31.369047 37.536656 30.017266 36.970703 28.697266 36.970703 C 27.478266 36.970703 26.374156 37.458359 25.535156 38.318359 C 25.348156 37.736359 25.054297 37.223156 24.654297 36.785156 C 23.668297 35.706156 22.071781 35.168203 20.050781 35.158203 C 20.818781 34.169203 20.895766 33.224047 20.759766 32.498047 C 20.409766 30.629047 18.425062 29.115719 16.414062 28.261719 C 18.585063 27.325719 19.846875 26.082781 20.171875 24.550781 C 20.484875 23.074781 19.878812 21.646313 19.007812 20.445312 C 21.393813 21.068313 23.202547 20.793156 24.310547 19.660156 C 24.775547 19.184156 25.096531 18.579563 25.269531 17.851562 C 26.047531 18.364563 26.948203 18.636719 27.908203 18.636719 C 29.488203 18.636719 31.025063 17.921281 32.164062 16.738281 z M 28.730469 19.773438 C 24.251469 19.773438 20.605469 23.418437 20.605469 27.898438 C 20.605469 32.377437 24.251469 36.023438 28.730469 36.023438 C 33.210469 36.023438 36.853516 32.378438 36.853516 27.898438 C 36.853516 23.418437 33.209469 19.773438 28.730469 19.773438 z M 28.730469 21.275391 C 32.383469 21.275391 35.353516 24.247391 35.353516 27.900391 C 35.353516 31.552391 32.382469 34.523438 28.730469 34.523438 C 25.078469 34.523438 22.105469 31.552391 22.105469 27.900391 C 22.105469 24.247391 25.078469 21.275391 28.730469 21.275391 z "
   id="path4" />


</svg>