<?xml version="1.0" encoding="utf-8"?>
<!-- Generator: Adobe Illustrator 16.0.0, SVG Export Plug-In . SVG Version: 6.00 Build 0)  -->
<!DOCTYPE svg PUBLIC "-//W3C//DTD SVG 1.1//EN" "http://www.w3.org/Graphics/SVG/1.1/DTD/svg11.dtd">
<svg version="1.1" id="Layer_1" xmlns="http://www.w3.org/2000/svg" xmlns:xlink="http://www.w3.org/1999/xlink" x="0px" y="0px"
	 width="56.693px" height="56.693px" viewBox="-7.087 -7.087 56.693 56.693" enable-background="new -7.087 -7.087 56.693 56.693"
	 xml:space="preserve">
<g>
	<path fill-rule="evenodd" clip-rule="evenodd" fill="#BD0926" d="M36.301,2.089c-0.016,0-0.031,0-0.047,0
		c-0.57,0-1.123,0.034-1.664,0.086c0.423,0.325,0.843,0.656,1.26,0.99c0.151,0.122,0.303,0.244,0.453,0.365
		c0.821-0.455,1.648-0.874,2.457-1.27C37.912,2.147,37.094,2.091,36.301,2.089z"/>
	<path fill-rule="evenodd" clip-rule="evenodd" fill="#BD0926" d="M5.834,2.089C5.042,2.091,4.223,2.147,3.376,2.261
		c0.724,0.354,1.464,0.728,2.2,1.128C5.938,2.953,6.313,2.527,6.7,2.113C6.43,2.1,6.158,2.089,5.881,2.089
		C5.865,2.089,5.85,2.089,5.834,2.089z"/>
	<path fill-rule="evenodd" clip-rule="evenodd" fill="#BD0926" d="M36.632,37.697c-0.37,0.348-0.751,0.685-1.145,1.01
		c-0.225,0.185-0.466,0.342-0.721,0.483c-0.354,0.197-0.676,0.444-0.921,0.765c-0.212,0.279-0.452,0.526-0.708,0.756
		c0.869-0.183,1.647-0.542,2.263-1.157C35.915,39.038,36.341,38.405,36.632,37.697z"/>
	<path fill-rule="evenodd" clip-rule="evenodd" fill="#BD0926" d="M3.109,0.279c0.917-0.124,1.832-0.188,2.72-0.19
		c0.001,0,0.05,0,0.052,0c1.049,0,2.032,0.089,2.966,0.235c0.127-0.041,0.254-0.082,0.394-0.096
		c0.465-0.049,0.877-0.224,1.242-0.527c0.942-0.782,1.99-1.404,3.083-1.953c1.183-0.593,2.402-1.098,3.698-1.393
		c1.278-0.291,2.578-0.357,3.884-0.306c0.932,0.037,1.855,0.139,2.768,0.344c0.664,0.15,1.284,0.409,1.895,0.702
		c1.094,0.524,2.233,0.956,3.31,1.519c0.587,0.307,1.108,0.715,1.688,1.034c0.493,0.271,0.972,0.563,1.442,0.867
		c1.227-0.266,2.557-0.425,4.003-0.425c0.002,0,0.05,0,0.052,0c0.531,0.001,1.074,0.032,1.62,0.077
		c-0.116-0.096-0.236-0.186-0.35-0.285c-0.896-0.788-1.89-1.436-2.982-1.929c-0.786-0.353-1.517-0.797-2.243-1.257
		c-1.267-0.799-2.578-1.5-4.085-1.754c-0.57-0.096-1.09-0.358-1.61-0.601c-1.55-0.721-3.172-1.123-4.891-1.141
		c-1.269-0.014-2.535,0.021-3.8,0.103c-0.799,0.052-1.565,0.219-2.289,0.579c-0.564,0.281-1.16,0.493-1.772,0.649
		c-0.814,0.208-1.606,0.477-2.38,0.802c-1.056,0.443-2.09,0.923-2.988,1.653C8.2-2.742,7.821-2.553,7.364-2.512
		C6.712-2.454,6.162-2.129,5.645-1.749c-0.264,0.193-0.477,0.441-0.72,0.655c-0.203,0.179-0.412,0.355-0.681,0.42
		c-0.137,0.034-0.262,0.082-0.375,0.16C3.451-0.231,3.062,0.081,2.688,0.407C2.824,0.356,2.959,0.299,3.109,0.279z"/>
	<path fill-rule="evenodd" clip-rule="evenodd" fill="#BD0926" d="M48.503,18.538c-0.301-1.719-0.776-3.392-1.381-5.026
		c-1.235-3.34-2.9-6.471-4.704-9.535C42.1,3.435,41.686,2.987,41.19,2.601c-0.148-0.116-0.306-0.221-0.456-0.334
		c-0.004,0.75-0.404,1.452-1.096,1.791c-0.493,0.242-0.989,0.491-1.482,0.748c0.083,0.078,0.172,0.146,0.25,0.231
		c0.278,0.304,0.5,0.65,0.712,1.003c0.077,0.13,0.149,0.262,0.226,0.393c0.797,0.298,1.551,0.674,2.239,1.139
		c0.695,0.469,1.024,1.324,0.822,2.138c-0.144,0.579-0.54,1.041-1.053,1.298c0.015,0.068,0.027,0.137,0.045,0.204
		c0.091,0.354,0.198,0.702,0.494,0.955c0.125,0.109,0.159,0.272,0.207,0.43c0.154,0.514,0.371,1.005,0.571,1.502
		c0.361,0.901,0.768,1.785,1.087,2.704c0.251,0.722,0.308,1.461,0.253,2.215c-0.09,1.268-0.196,2.534-0.325,3.799
		c-0.136,1.339-0.264,2.679-0.575,3.992c-0.114,0.485-0.287,0.945-0.539,1.381c-0.31,0.542-0.501,1.139-0.709,1.724
		c-0.31,0.876-0.697,1.715-1.185,2.508c-0.141,0.229-0.26,0.471-0.398,0.699c-0.097,0.16-0.099,0.35-0.184,0.513
		c-0.141,0.271-0.306,0.525-0.492,0.767c-0.19,0.248-0.392,0.486-0.589,0.728c0.011,0.135,0.031,0.272,0.033,0.405
		c0.027,2.009-0.786,3.99-2.231,5.435c-1.238,1.238-2.975,1.894-5.022,1.894c-0.583,0-1.193-0.052-1.825-0.155
		c-0.495,0.233-0.999,0.448-1.525,0.622c-1.085,0.36-2.202,0.528-3.345,0.535c-0.565,0.002-1.129,0-1.695,0
		c-0.968,0.012-1.934,0.003-2.899-0.062c-0.183-0.012-0.364-0.036-0.545-0.059c-0.04-0.005-0.087-0.009-0.117-0.032
		c-0.35-0.259-0.771-0.294-1.178-0.377c-1.544-0.31-3.073-0.693-4.612-1.025c-0.995-0.216-1.884-0.635-2.721-1.184
		c-1.018-0.667-2.074-1.259-3.17-1.787c-0.325-0.156-0.64-0.334-0.94-0.533c-0.294-0.194-0.56-0.407-0.743-0.725
		c-0.174-0.301-0.438-0.536-0.717-0.739c-0.637-0.464-1.146-1.05-1.598-1.683c-0.668-0.937-1.407-1.809-2.284-2.562
		c-0.525-0.45-0.892-1.005-1.077-1.674c-0.088-0.318-0.198-0.628-0.336-0.927c-0.106-0.23-0.219-0.455-0.411-0.634
		c-0.124-0.115-0.21-0.266-0.231-0.437c-0.054-0.462-0.204-0.897-0.363-1.328c-0.46-1.248-0.761-2.538-1.037-3.834
		c-0.24-1.13-0.441-2.265-0.567-3.413c-0.089-0.811-0.059-1.617,0.05-2.423c0.223-1.643,0.574-3.257,1.101-4.831
		c0.178-0.533,0.378-1.058,0.646-1.555c0.077-0.143,0.163-0.281,0.268-0.405c0.216-0.256,0.39-0.538,0.549-0.83
		c-0.354-0.271-0.624-0.645-0.736-1.096C-0.472,8.895-0.143,8.04,0.553,7.571c0.869-0.586,1.841-1.026,2.875-1.346
		c0.283-0.421,0.576-0.836,0.88-1.243c-0.602-0.32-1.207-0.628-1.812-0.924C1.706,3.67,1.261,2.811,1.402,1.941
		C1.424,1.81,1.48,1.694,1.525,1.572C1.288,1.855,1.063,2.151,0.854,2.463C0.299,3.295-0.148,4.188-0.657,5.047
		C-0.827,5.335-1.001,5.62-1.216,5.879c-0.172,0.207-0.376,0.349-0.655,0.374c-0.261,0.024-0.453,0.166-0.59,0.385
		c-0.114,0.181-0.203,0.375-0.283,0.571c-0.283,0.696-0.631,1.348-1.073,1.965c-0.699,0.979-1.182,2.076-1.551,3.218
		c-0.234,0.725-0.261,1.506-0.584,2.209c-0.518,1.995-0.696,4.014-0.476,6.066c0.154,1.433,0.426,2.841,0.776,4.237
		c0.207,0.823,0.443,1.642,0.571,2.482c0.079,0.519,0.11,1.036,0.111,1.559c0.001,0.297,0.045,0.592,0.32,0.784
		c0.132,0.09,0.237,0.204,0.329,0.333c0.223,0.315,0.399,0.657,0.54,1.018c0.475,1.216,0.967,2.425,1.556,3.593
		c0.625,1.24,1.427,2.34,2.475,3.265c0.739,0.651,1.485,1.294,2.254,1.91c0.563,0.451,1.164,0.854,1.725,1.308
		c0.771,0.621,1.428,1.355,2.021,2.144c0.506,0.673,1.141,1.174,1.913,1.514c1.663,0.734,3.321,1.48,4.985,2.214
		c0.99,0.436,2.004,0.812,3.019,1.188c0.395,0.146,0.796,0.311,1.097,0.612c0.214,0.214,0.457,0.328,0.739,0.39
		c0.557,0.122,1.122,0.126,1.686,0.075c0.612-0.051,1.202-0.178,1.737-0.513c0.312-0.195,0.67-0.299,1.04-0.317
		c0.419-0.021,0.832-0.078,1.236-0.183c0.905-0.234,1.814-0.458,2.742-0.579c0.883-0.116,1.739-0.326,2.56-0.667
		c2.038-0.844,4.025-1.796,5.971-2.833c1.009-0.54,2.003-1.109,2.791-1.963c0.089-0.097,0.196-0.185,0.326-0.22
		c0.111-0.031,0.204-0.085,0.293-0.154c0.355-0.273,0.673-0.589,0.99-0.903c1.541-1.54,2.882-3.248,4.18-4.99
		c0.717-0.962,1.345-1.975,1.774-3.102c0.27-0.705,0.599-1.385,0.935-2.06c0.233-0.467,0.448-0.944,0.598-1.443
		c0.288-0.954,0.57-1.909,0.842-2.868c0.207-0.73,0.398-1.466,0.437-2.229c0.023-0.45,0.089-0.891,0.252-1.307
		c0.265-0.668,0.354-1.357,0.341-1.987C48.736,20.101,48.638,19.317,48.503,18.538z"/>
</g>
<path fill="#BD0926" d="M21.195,20.155c1.228,0,2.359-1.258,2.359-2.987s-1.131-2.987-2.359-2.987s-2.359,1.258-2.359,2.987
	S19.967,20.155,21.195,20.155z M22.428,16.346c0.077-0.115,0.205-0.192,0.343-0.171c0.224,0.036,0.417,0.216,0.395,0.469
	c-0.018,0.174-0.146,0.377-0.281,0.436l0.003,0.003c0,0-1.184,0.427-1.03,0.236C22.06,17.065,22.27,16.577,22.428,16.346z
	 M20.504,16.219c0.157-0.019,0.304,0.06,0.394,0.177c0.183,0.234,0.431,0.727,0.667,0.985c0.178,0.194-1.176-0.253-1.176-0.253
	l0.002-0.003c-0.153-0.061-0.305-0.267-0.326-0.441C20.033,16.428,20.25,16.251,20.504,16.219z M39.662,17.855
	c-3.118-1.067-6.752-2.153-10.35-0.485c2.857,1.659,4.728,4.668,4.772,7.555c-1.958-2.244-3.687-3.522-7.303-4.251
	c1.104,2.667,1.217,5.554-0.108,7.934c-0.41-2.085-0.956-4.426-2.674-6.114c-0.158,3.365-0.861,6.104-2.452,9.358
	c-3.656,7.479-13.137,6.943-11.93,0.493c0.469-2.505,4.38-4.206,7.568-1.495c-0.237,0.502-0.589,0.988-1.025,1.417
	c-3.769-2.58-5.392,1.724-2.865,2.557c1.972,0.65,4.366-1.351,5.206-3.102c0.011-0.021,0.021-0.041,0.031-0.062
	c0.001-0.003,0.001-0.006,0.002-0.008c0.226-0.456,0.39-0.939,0.473-1.44c0-0.004,0.002-0.007,0.002-0.011
	c0.666-2.551,0.481-4.87-0.823-7.757c-1.757,1.691-2.31,4.058-2.722,6.163c-1.326-2.38-1.215-5.267-0.112-7.934
	c-3.617,0.729-5.345,2.007-7.303,4.251c0.045-2.886,1.916-5.896,4.772-7.555c-3.598-1.668-7.231-0.582-10.35,0.485
	c1.637-2.736,4.967-4.606,8.583-4.863c-2.544-2.858-6.182-3.415-9.384-3.763c2.769-1.868,6.818-2.09,10.313-0.565
	C9.809,5.572,6.452,3.767,3.376,2.261c0.846-0.114,1.666-0.17,2.458-0.172c5.542-0.015,9.722,2.563,12.327,5.604
	c2.165,2.526,1.657,5.482-0.26,5.977c-2.817,0.697-2.66,3.602,0.091,6.104c0.695,1.155,1.846,1.934,3.203,1.934
	c1.545,0,2.823-1.011,3.464-2.437c0.001-0.001,0.003-0.002,0.003-0.003c2.242-2.374,2.203-4.947-0.426-5.598
	c-1.916-0.494-2.428-3.45-0.262-5.977c2.604-3.04,6.785-5.618,12.326-5.604c0.793,0.002,1.611,0.058,2.459,0.172
	c-3.076,1.506-6.434,3.312-8.609,6.401c3.496-1.523,7.545-1.302,10.313,0.566c-3.202,0.348-6.841,0.904-9.384,3.763
	C34.695,13.248,38.025,15.118,39.662,17.855z M36.974,34.791c0.044,0.258,0.069,0.515,0.073,0.769c0.021,1.565-0.652,3-1.646,3.993
	c-1.57,1.571-4.146,1.59-6.822,0.773c-2.607-0.795-5.424-2.427-7.851-4.646c0.356-0.374,0.695-0.772,1.007-1.183
	c2.273,2.086,4.951,3.628,7.297,4.344c2.396,0.731,4.328,0.557,5.271-0.387c0.708-0.707,1.207-1.78,1.191-2.875
	c-0.004-0.309-0.047-0.623-0.135-0.938c-1.529-2.727-4.917-2.464-7.139-1.931c1.389-1.323,3.058-2.002,4.604-2.078l-3.172-2.375
	c0.309-0.069,0.627-0.105,0.95-0.106C33.619,28.146,37.029,31.046,36.974,34.791z"/>
</svg>
