<?xml version="1.0" encoding="UTF-8" standalone="no"?>
<!-- Generator: Adobe Illustrator 16.0.0, SVG Export Plug-In . SVG Version: 6.00 Build 0)  -->

<svg
   xmlns:dc="http://purl.org/dc/elements/1.1/"
   xmlns:cc="http://creativecommons.org/ns#"
   xmlns:rdf="http://www.w3.org/1999/02/22-rdf-syntax-ns#"
   xmlns:svg="http://www.w3.org/2000/svg"
   xmlns="http://www.w3.org/2000/svg"
   xmlns:sodipodi="http://sodipodi.sourceforge.net/DTD/sodipodi-0.dtd"
   xmlns:inkscape="http://www.inkscape.org/namespaces/inkscape"
   version="1.1"
   id="Layer_1"
   x="0px"
   y="0px"
   width="56.693px"
   height="56.693px"
   viewBox="-7.087 -7.087 56.693 56.693"
   enable-background="new -7.087 -7.087 56.693 56.693"
   xml:space="preserve"
   sodipodi:docname="Danger-Civilise.svg"
   inkscape:version="0.92.0 r15299"><metadata
   id="metadata17"><rdf:RDF><cc:Work
       rdf:about=""><dc:format>image/svg+xml</dc:format><dc:type
         rdf:resource="http://purl.org/dc/dcmitype/StillImage" /></cc:Work></rdf:RDF></metadata><defs
   id="defs15">
	
	
	
</defs><sodipodi:namedview
   pagecolor="#ffffff"
   bordercolor="#666666"
   borderopacity="1"
   objecttolerance="10"
   gridtolerance="10"
   guidetolerance="10"
   inkscape:pageopacity="0"
   inkscape:pageshadow="2"
   inkscape:window-width="1280"
   inkscape:window-height="961"
   id="namedview13"
   showgrid="false"
   inkscape:zoom="4.1627714"
   inkscape:cx="-3.8435933"
   inkscape:cy="28.3465"
   inkscape:window-x="-8"
   inkscape:window-y="-8"
   inkscape:window-maximized="1"
   inkscape:current-layer="Layer_1" />
<path
   d="M 28.853516 0.28515625 C 27.584516 0.27115625 26.317734 0.30667187 25.052734 0.38867188 C 24.253734 0.44067186 23.487672 0.60875 22.763672 0.96875 C 22.199672 1.24975 21.604188 1.4611875 20.992188 1.6171875 C 20.178187 1.8251875 19.385328 2.0949219 18.611328 2.4199219 C 17.555328 2.8629219 16.521047 3.3422656 15.623047 4.0722656 C 15.286047 4.3452656 14.908172 4.5332187 14.451172 4.5742188 C 13.799172 4.6322187 13.249422 4.9578906 12.732422 5.3378906 C 12.468422 5.5308906 12.254719 5.7781875 12.011719 5.9921875 C 11.808719 6.1711875 11.599078 6.3471094 11.330078 6.4121094 C 11.193078 6.4461094 11.068078 6.4942656 10.955078 6.5722656 C 9.7650782 7.3782656 8.7404062 8.3507814 7.9414062 9.5507812 C 7.3864062 10.382781 6.9386875 11.275766 6.4296875 12.134766 C 6.2596875 12.422766 6.0860937 12.707797 5.8710938 12.966797 C 5.6990938 13.173797 5.4957969 13.314844 5.2167969 13.339844 C 4.9557969 13.363844 4.7639531 13.505609 4.6269531 13.724609 C 4.5129531 13.905609 4.42375 14.100875 4.34375 14.296875 C 4.06075 14.992875 3.7115314 15.644719 3.2695312 16.261719 C 2.5705313 17.240719 2.08775 18.336516 1.71875 19.478516 C 1.48475 20.203516 1.4577656 20.9845 1.1347656 21.6875 C 0.61676566 23.6825 0.43820313 25.701906 0.65820312 27.753906 C 0.81220312 29.186906 1.0855469 30.594234 1.4355469 31.990234 C 1.6425469 32.813234 1.8778594 33.632656 2.0058594 34.472656 C 2.0848594 34.991656 2.1161875 35.50825 2.1171875 36.03125 C 2.1181875 36.32825 2.1625 36.624406 2.4375 36.816406 C 2.5695 36.906406 2.673625 37.019438 2.765625 37.148438 C 2.988625 37.463437 3.1656406 37.806969 3.3066406 38.167969 C 3.7816406 39.383969 4.2723281 40.591766 4.8613281 41.759766 C 5.4863281 42.999766 6.2898906 44.100391 7.3378906 45.025391 C 8.0768906 45.676391 8.8227969 46.319547 9.5917969 46.935547 C 10.154797 47.386547 10.755406 47.788187 11.316406 48.242188 C 12.087406 48.863187 12.744891 49.597719 13.337891 50.386719 C 13.843891 51.059719 14.478 51.560391 15.25 51.900391 C 16.913 52.634391 18.570375 53.381234 20.234375 54.115234 C 21.224375 54.551234 22.238906 54.926734 23.253906 55.302734 C 23.648906 55.448734 24.050562 55.613062 24.351562 55.914062 C 24.565562 56.128062 24.807844 56.242688 25.089844 56.304688 C 25.646844 56.426687 26.211391 56.431859 26.775391 56.380859 C 27.387391 56.329859 27.978672 56.202187 28.513672 55.867188 C 28.825672 55.672187 29.182734 55.568781 29.552734 55.550781 C 29.971734 55.529781 30.385063 55.472186 30.789062 55.367188 C 31.694063 55.133187 32.60325 54.908109 33.53125 54.787109 C 34.41425 54.671109 35.270797 54.462094 36.091797 54.121094 C 38.129797 53.277094 40.1165 52.324109 42.0625 51.287109 C 43.0715 50.747109 44.065516 50.178219 44.853516 49.324219 C 44.942516 49.227219 45.049686 49.140469 45.179688 49.105469 C 45.290686 49.074469 45.383656 49.020172 45.472656 48.951172 C 45.827656 48.678172 46.145891 48.362828 46.462891 48.048828 C 48.003891 46.508828 49.344578 44.800594 50.642578 43.058594 C 51.359578 42.096594 51.987016 41.082078 52.416016 39.955078 C 52.686016 39.250078 53.015563 38.571484 53.351562 37.896484 C 53.584564 37.429484 53.799219 36.952125 53.949219 36.453125 C 54.237219 35.499125 54.519016 34.544936 54.791016 33.585938 C 54.998016 32.855938 55.189516 32.118469 55.228516 31.355469 C 55.251516 30.905469 55.317469 30.464828 55.480469 30.048828 C 55.745469 29.380828 55.833313 28.6925 55.820312 28.0625 C 55.822313 27.1885 55.724844 26.404 55.589844 25.625 C 55.288844 23.906 54.813984 22.233609 54.208984 20.599609 C 53.031984 17.417609 51.460859 14.427906 49.755859 11.503906 C 49.580859 11.766906 49.352406 11.994344 49.066406 12.152344 L 46.470703 13.587891 C 47.166703 14.795891 47.782906 16.040469 48.253906 17.355469 C 48.364906 17.662469 48.404375 17.986828 48.484375 18.298828 C 48.575375 18.652828 48.682516 19.000906 48.978516 19.253906 C 49.103516 19.362906 49.137547 19.525594 49.185547 19.683594 C 49.339547 20.197594 49.555859 20.688547 49.755859 21.185547 C 50.116859 22.086547 50.52475 22.969672 50.84375 23.888672 C 51.09475 24.610672 51.150703 25.349516 51.095703 26.103516 C 51.005703 27.371516 50.900484 28.637344 50.771484 29.902344 C 50.635484 31.241344 50.506312 32.581531 50.195312 33.894531 C 50.081312 34.379531 49.90825 34.839391 49.65625 35.275391 C 49.34625 35.817391 49.155266 36.415 48.947266 37 C 48.637266 37.876 48.251672 38.714813 47.763672 39.507812 C 47.622672 39.736812 47.503234 39.979031 47.365234 40.207031 C 47.268234 40.367031 47.266641 40.557703 47.181641 40.720703 C 47.040641 40.991703 46.875453 41.244328 46.689453 41.486328 C 45.472453 43.068328 44.116219 44.520922 42.574219 45.794922 C 42.349219 45.979922 42.108516 46.136344 41.853516 46.277344 C 41.499516 46.474344 41.176641 46.721969 40.931641 47.042969 C 40.494641 47.616969 39.949328 48.066703 39.361328 48.470703 C 38.171328 49.285703 36.907297 49.958062 35.529297 50.414062 C 34.444297 50.774062 33.326594 50.942219 32.183594 50.949219 C 31.618594 50.951219 31.054281 50.949219 30.488281 50.949219 C 29.520281 50.961219 28.554844 50.953672 27.589844 50.888672 C 27.406844 50.876672 27.225922 50.851125 27.044922 50.828125 C 27.004922 50.823125 26.957734 50.819875 26.927734 50.796875 C 26.577734 50.537875 26.157 50.502922 25.75 50.419922 C 24.206 50.109922 22.677672 49.726531 21.138672 49.394531 C 20.555672 49.267531 20.011234 49.066453 19.490234 48.814453 C 19.201234 48.972453 18.878109 49.068359 18.537109 49.068359 L 15.720703 49.068359 C 14.616703 49.068359 13.720703 48.172359 13.720703 47.068359 L 13.720703 46.021484 L 12.828125 44.414062 C 12.199125 43.952062 11.693094 43.371141 11.246094 42.744141 C 10.578094 41.807141 9.8398906 40.936594 8.9628906 40.183594 C 8.4378906 39.733594 8.0697656 39.178766 7.8847656 38.509766 C 7.7967656 38.191766 7.6868281 37.881031 7.5488281 37.582031 C 7.4428281 37.352031 7.3306719 37.126266 7.1386719 36.947266 C 7.0146719 36.832266 6.92725 36.682719 6.90625 36.511719 C 6.85225 36.049719 6.7039219 35.614594 6.5449219 35.183594 C 6.0849219 33.935594 5.7838125 32.645609 5.5078125 31.349609 C 5.2678125 30.219609 5.0654531 29.083547 4.9394531 27.935547 C 4.8504531 27.124547 4.8812344 26.319672 4.9902344 25.513672 C 5.2132344 23.870672 5.5647969 22.255641 6.0917969 20.681641 C 6.2697969 20.148641 6.4683281 19.623953 6.7363281 19.126953 C 6.8133281 18.983953 6.9008594 18.846656 7.0058594 18.722656 C 7.3208594 18.347656 7.5665781 17.929375 7.7675781 17.484375 C 7.8805781 17.235375 7.9960625 16.988531 8.1640625 16.769531 C 8.2540625 16.651531 8.3542813 16.546656 8.4882812 16.472656 C 8.6112814 16.406656 8.6894375 16.290641 8.7734375 16.181641 C 8.9714375 15.923641 9.1469219 15.648375 9.2949219 15.359375 C 10.109922 13.761375 11.163297 12.323734 12.279297 10.927734 C 13.066297 9.9437348 13.905172 9.0055781 14.826172 8.1425781 C 14.989172 7.9895781 15.159891 7.8449844 15.337891 7.7089844 C 15.631891 7.4849844 15.956125 7.3544531 16.328125 7.3144531 C 16.793125 7.2654531 17.205313 7.0901094 17.570312 6.7871094 C 18.512313 6.0051094 19.561297 5.3829844 20.654297 4.8339844 C 21.837297 4.2409844 23.055563 3.7364062 24.351562 3.4414062 C 25.629562 3.1504064 26.930328 3.0837656 28.236328 3.1347656 C 29.168328 3.1717656 30.090906 3.2735156 31.003906 3.4785156 C 31.667906 3.6285156 32.287436 3.8886406 32.898438 4.1816406 C 33.992438 4.7056406 35.131984 5.1362188 36.208984 5.6992188 C 36.795984 6.0062188 37.316484 6.415375 37.896484 6.734375 C 39.640484 7.691375 41.220578 8.8821402 42.767578 10.119141 L 46.345703 8.2753906 C 45.766703 7.8643906 45.200063 7.43975 44.664062 6.96875 C 43.768062 6.18075 42.773641 5.5320625 41.681641 5.0390625 C 40.895641 4.6860625 40.165453 4.24125 39.439453 3.78125 C 38.172453 2.98225 36.860516 2.2813436 35.353516 2.0273438 C 34.783516 1.9313436 34.264141 1.6707344 33.744141 1.4277344 C 32.194141 0.70673434 30.572516 0.30315625 28.853516 0.28515625 z M 48.099609 9.6210938 L 28.779297 19.578125 C 29.103297 19.885125 29.3685 20.248391 29.5625 20.650391 L 48.099609 10.402344 L 48.099609 9.6210938 z M 22.9375 10.429688 C 21.023693 10.349292 20.883906 13.245781 19.269531 11.761719 C 20.661531 14.300719 22.205344 10.750641 23.902344 11.681641 C 24.138344 11.519641 24.393062 11.388922 24.664062 11.294922 C 24.209063 10.942922 23.664703 10.562328 23.345703 10.486328 C 23.201391 10.452328 23.065087 10.435047 22.9375 10.429688 z M 25.587891 12.464844 C 24.721891 12.464844 23.844437 13.287656 23.523438 14.472656 C 23.159437 15.813656 23.649141 17.115906 24.619141 17.378906 C 24.734141 17.409906 24.852703 17.425781 24.970703 17.425781 C 25.689703 17.425781 26.414219 16.857281 26.824219 15.988281 L 25.007812 14.837891 L 27.148438 14.339844 C 27.091437 13.438844 26.6395 12.701719 25.9375 12.511719 C 25.8225 12.480719 25.706891 12.464844 25.587891 12.464844 z M 27.951172 16.712891 C 27.479172 17.625891 26.758359 18.289078 25.943359 18.580078 C 26.044359 18.573078 26.145094 18.568359 26.246094 18.568359 L 26.246094 18.564453 C 26.653094 18.565453 27.057406 18.632625 27.441406 18.765625 L 30.912109 17.003906 C 29.935109 16.810906 28.945172 16.713891 27.951172 16.712891 z M 23.085938 17.976562 L 21.466797 22.443359 L 25.425781 23.658203 L 24.539062 21.699219 L 23.376953 21.478516 L 24.181641 20.898438 L 23.515625 19.443359 C 23.517625 19.444359 24.972703 18.793953 25.095703 18.751953 L 24.96875 18.751953 C 24.73275 18.752953 24.497531 18.722156 24.269531 18.660156 C 23.822531 18.537156 23.415937 18.302563 23.085938 17.976562 z M 37.792969 19.501953 C 33.703969 19.501953 30.969313 23.142969 29.820312 25.042969 C 30.011312 25.163969 30.20525 25.276 30.40625 25.375 C 31.90025 26.16 33.876969 26.698875 35.792969 27.046875 C 35.765969 26.094875 35.689453 25.449219 35.689453 25.449219 C 35.689453 25.449219 36.734172 25.966766 38.076172 26.759766 L 38.550781 27.431641 C 40.226781 27.597641 41.583719 27.610625 42.136719 27.515625 C 41.829719 26.195625 41.512828 24.721172 41.548828 24.451172 L 41.529297 22.630859 L 42.443359 20.982422 C 40.740359 19.923422 39.186969 19.501953 37.792969 19.501953 z M 26.1875 19.898438 C 25.882422 19.906125 25.572844 19.973422 25.277344 20.107422 L 27.216797 24.388672 C 28.399797 23.854672 28.924672 22.459344 28.388672 21.277344 L 28.386719 21.277344 C 27.985469 20.390844 27.102734 19.875374 26.1875 19.898438 z M 30.851562 21.488281 L 29.912109 21.964844 C 29.928109 22.168844 29.92625 22.372172 29.90625 22.576172 C 30.19325 22.216172 30.507563 21.849281 30.851562 21.488281 z M 10.171875 21.835938 C 15.093875 24.041937 6.0673125 25.557219 9.3203125 29.949219 C 9.9423125 30.789219 12.207359 32.022297 13.443359 32.654297 C 13.544359 31.949297 13.759031 31.264859 14.082031 30.630859 L 14.078125 30.628906 C 8.703125 26.793906 17.566875 22.545938 10.171875 21.835938 z M 40.228516 23.080078 C 40.617516 23.080078 40.812109 23.550219 40.537109 23.824219 C 40.263109 24.098219 39.794922 23.904625 39.794922 23.515625 C 39.794922 23.275625 39.988516 23.079078 40.228516 23.080078 z M 20.810547 23.630859 L 15.748047 26.205078 L 16.34375 27.373047 L 22.613281 24.185547 L 20.810547 23.630859 z M 24.443359 24.746094 L 20.298828 26.853516 L 26 29.052734 L 21.984375 32.380859 L 25.359375 34.585938 L 24.818359 32.599609 L 28.589844 28.529297 L 25.107422 25.373047 L 25.298828 25.007812 L 24.443359 24.746094 z M 29.216797 26.226562 L 30.361328 34.253906 L 19.646484 35.677734 L 18.783203 28.447266 C 18.429203 28.593266 18.082187 28.750016 17.742188 28.916016 C 12.858187 31.298016 15.296875 36.902344 15.296875 36.902344 L 13.220703 40.990234 L 15.720703 45.503906 L 15.720703 46.671875 L 15.720703 47.066406 L 16.480469 47.066406 L 18.535156 47.066406 L 17.228516 45.169922 L 16.025391 40.804688 L 20.083984 36.951172 C 22.399984 37.055172 28.591859 35.997062 31.255859 35.539062 L 38.148438 35.917969 L 40.048828 38.349609 L 38.650391 39.392578 L 41.103516 40.546875 L 41.882812 39.013672 L 40.283203 34.921875 L 35.105469 32.376953 C 35.574469 31.153953 35.743109 29.670625 35.787109 28.390625 C 34.406109 28.157625 33.044797 27.818047 31.716797 27.373047 C 30.843797 27.084047 30.006797 26.698563 29.216797 26.226562 z M 42.439453 28.794922 C 42.082453 28.856922 41.720422 28.890484 41.357422 28.896484 L 41.361328 28.894531 L 41.017578 28.894531 C 40.572578 28.894531 40.074016 28.876797 39.541016 28.841797 L 40.59375 30.335938 L 42.669922 29.726562 C 42.669922 29.726562 42.574453 29.349922 42.439453 28.794922 z M 31.332031 36.880859 C 30.816031 36.968859 30.244719 37.065062 29.636719 37.164062 L 31.417969 41.128906 L 32.886719 45.660156 L 32.832031 47.072266 L 35.464844 47.072266 L 34.662109 45.591797 L 33.482422 40.748047 L 33.066406 36.974609 L 31.332031 36.880859 z M 24.880859 37.894531 C 23.109859 38.139531 20.618469 38.314453 20.605469 38.314453 L 20.849609 38.947266 L 19.263672 42.425781 L 23.167969 46.085938 L 23.167969 47.060547 L 25.546875 47.060547 L 24.603516 45.986328 L 21.824219 42.363281 L 24.880859 37.894531 z "
   transform="translate(-7.087,-7.087)"
   id="path2" />

</svg>