<?xml version="1.0" encoding="utf-8"?>
<!-- Generator: Adobe Illustrator 16.0.0, SVG Export Plug-In . SVG Version: 6.00 Build 0)  -->
<!DOCTYPE svg PUBLIC "-//W3C//DTD SVG 1.1//EN" "http://www.w3.org/Graphics/SVG/1.1/DTD/svg11.dtd">
<svg version="1.1" id="Layer_1" xmlns="http://www.w3.org/2000/svg" xmlns:xlink="http://www.w3.org/1999/xlink" x="0px" y="0px"
	 width="56.693px" height="56.693px" viewBox="-7.087 -7.087 56.693 56.693" enable-background="new -7.087 -7.087 56.693 56.693"
	 xml:space="preserve">
<path fill="#BD0926" d="M18.5,5.378c0.119,0,0.236,0.016,0.351,0.047c0.702,0.19,1.153,0.926,1.21,1.827L17.92,7.75l1.818,1.151
	c-0.41,0.869-1.136,1.437-1.855,1.437c-0.118,0-0.236-0.016-0.351-0.047c-0.97-0.263-1.46-1.565-1.096-2.906
	C16.757,6.2,17.634,5.378,18.5,5.378z M16.815,4.594c0.236-0.162,0.492-0.292,0.763-0.386c-0.455-0.352-1.001-0.732-1.32-0.808
	c-2.309-0.544-2.354,2.857-4.076,1.274C13.574,7.213,15.118,3.663,16.815,4.594L16.815,4.594z M21.3,14.191
	c-0.535-1.182-1.927-1.707-3.109-1.171l1.938,4.281c1.183-0.534,1.708-1.928,1.172-3.11H21.3z M15.527,17.098l-1.804-0.554
	l-5.061,2.575l0.595,1.168L15.527,17.098z M18.008,11.665h-0.127c-0.236,0.001-0.47-0.03-0.698-0.092
	c-0.447-0.123-0.855-0.358-1.185-0.684l-1.619,4.467l3.96,1.215l-0.887-1.959l-1.163-0.22l0.805-0.581l-0.666-1.454
	C16.43,12.358,17.885,11.707,18.008,11.665z M6.992,23.541c-5.375-3.835,3.488-8.082-3.907-8.792
	c4.922,2.206-4.105,3.722-0.852,8.114c0.622,0.84,2.887,2.072,4.123,2.704c0.101-0.705,0.317-1.39,0.64-2.024L6.992,23.541z
	 M18.02,18.287l0.191-0.366l-0.854-0.262l-4.145,2.108l5.701,2.198l-4.015,3.329l3.374,2.205l-0.54-1.987l3.771-4.069L18.02,18.287z
	 M19.16,11.478c0.407,0.001,0.811,0.068,1.195,0.201l3.471-1.762c-0.977-0.193-1.968-0.291-2.962-0.292
	c-0.472,0.913-1.192,1.578-2.007,1.869c0.101-0.007,0.202-0.013,0.303-0.013V11.478z M34.274,21.807H33.93
	c-0.445,0-0.943-0.018-1.476-0.053l1.052,1.495l2.076-0.609c0,0-0.094-0.378-0.229-0.933c-0.357,0.062-0.719,0.097-1.082,0.103
	L34.274,21.807z M22.733,17.955c1.149-1.9,3.884-5.541,7.973-5.541c1.394,0,2.947,0.423,4.65,1.482l-0.913,1.647l0.018,1.821
	c-0.036,0.27,0.281,1.744,0.588,3.064c-0.553,0.095-1.91,0.083-3.586-0.083l-0.473-0.673c-1.342-0.793-2.387-1.309-2.387-1.309
	s0.075,0.645,0.102,1.597c-1.916-0.348-3.891-0.887-5.385-1.672C23.119,18.189,22.924,18.076,22.733,17.955L22.733,17.955z
	 M32.707,16.429c0,0.389,0.47,0.583,0.744,0.309c0.275-0.274,0.08-0.744-0.309-0.744C32.902,15.993,32.707,16.189,32.707,16.429
	L32.707,16.429L32.707,16.429z M21.692,12.491c0.324,0.307,0.589,0.67,0.783,1.072L41.012,3.316V2.534L21.692,12.491z M28.018,25.29
	c0.469-1.223,0.638-2.706,0.682-3.986c-1.381-0.233-2.742-0.573-4.07-1.018c-0.873-0.289-1.711-0.674-2.501-1.146l1.145,8.027
	L12.56,28.59l-0.863-7.229c-0.354,0.146-0.702,0.302-1.042,0.468c-4.884,2.382-2.446,7.987-2.446,7.987l-2.076,4.087l2.5,4.514
	v1.562h2.815l-1.307-1.896l-1.203-4.365l4.059-3.854c2.316,0.104,8.507-0.954,11.171-1.412l6.894,0.378l1.899,2.433l-1.398,1.042
	l2.453,1.154l0.779-1.532l-1.598-4.092L28.018,25.29z M23.764,14.402l-0.939,0.475c0.016,0.204,0.014,0.409-0.006,0.613
	C23.106,15.13,23.42,14.763,23.764,14.402z M26.396,33.661l-0.416-3.773l-1.734-0.095c-0.516,0.088-1.089,0.185-1.697,0.284
	l1.781,3.965l1.469,4.531l-0.053,1.412h2.631l-0.802-1.481L26.396,33.661z M14.738,35.277l3.055-4.47
	c-1.771,0.245-4.261,0.421-4.274,0.421l0.244,0.632l-1.586,3.478l3.903,3.66v0.976h2.379L17.516,38.9L14.738,35.277z"/>
<g>
	<path fill-rule="evenodd" clip-rule="evenodd" fill="#BD0926" d="M8.633,39.584v0.396h0.76C9.142,39.844,8.889,39.712,8.633,39.584
		z"/>
	<path fill-rule="evenodd" clip-rule="evenodd" fill="#BD0926" d="M41.012,2.534L37.527,4.33c0.251,0.151,0.48,0.327,0.689,0.53
		l2.795-1.545V2.534z"/>
	<path fill-rule="evenodd" clip-rule="evenodd" fill="#BD0926" d="M48.503,18.538c-0.301-1.719-0.776-3.392-1.381-5.026
		c-1.177-3.182-2.748-6.172-4.453-9.096c-0.175,0.263-0.403,0.492-0.689,0.65l-2.597,1.435c0.696,1.208,1.312,2.453,1.783,3.768
		c0.111,0.307,0.151,0.63,0.231,0.942c0.091,0.354,0.198,0.702,0.494,0.955c0.125,0.109,0.159,0.272,0.207,0.43
		c0.154,0.514,0.371,1.005,0.571,1.502c0.361,0.901,0.768,1.785,1.087,2.704c0.251,0.722,0.308,1.461,0.253,2.215
		c-0.09,1.268-0.196,2.534-0.325,3.799c-0.136,1.339-0.264,2.679-0.575,3.992c-0.114,0.485-0.287,0.945-0.539,1.381
		c-0.31,0.542-0.501,1.139-0.709,1.724c-0.31,0.876-0.697,1.715-1.185,2.508c-0.141,0.229-0.26,0.471-0.398,0.699
		c-0.097,0.16-0.099,0.35-0.184,0.513c-0.141,0.271-0.306,0.525-0.492,0.767c-1.217,1.582-2.573,3.033-4.115,4.307
		c-0.225,0.185-0.466,0.342-0.721,0.483c-0.354,0.197-0.676,0.444-0.921,0.765c-0.437,0.574-0.983,1.024-1.571,1.428
		c-1.19,0.815-2.454,1.489-3.832,1.945c-1.085,0.36-2.202,0.528-3.345,0.535c-0.565,0.002-1.129,0-1.695,0
		c-0.968,0.012-1.934,0.003-2.899-0.062c-0.183-0.012-0.364-0.036-0.545-0.059c-0.04-0.005-0.087-0.009-0.117-0.032
		c-0.35-0.259-0.771-0.294-1.178-0.377c-1.544-0.31-3.073-0.693-4.612-1.025c-0.583-0.127-1.126-0.329-1.647-0.581
		c-0.289,0.158-0.613,0.254-0.954,0.254H8.633c-1.104,0-2-0.896-2-2v-1.046l-0.891-1.608c-0.629-0.462-1.136-1.042-1.583-1.669
		c-0.668-0.937-1.407-1.809-2.284-2.562c-0.525-0.45-0.892-1.005-1.077-1.674c-0.088-0.318-0.198-0.628-0.336-0.927
		c-0.106-0.23-0.219-0.455-0.411-0.634c-0.124-0.115-0.21-0.266-0.231-0.437c-0.054-0.462-0.204-0.897-0.363-1.328
		c-0.46-1.248-0.761-2.538-1.037-3.834c-0.24-1.13-0.441-2.265-0.567-3.413c-0.089-0.811-0.059-1.617,0.05-2.423
		c0.223-1.643,0.574-3.257,1.101-4.831c0.178-0.533,0.378-1.058,0.646-1.555c0.077-0.143,0.163-0.281,0.268-0.405
		c0.315-0.375,0.562-0.793,0.763-1.238c0.113-0.249,0.229-0.496,0.397-0.715C1.168,9.564,1.267,9.46,1.401,9.386
		C1.524,9.32,1.602,9.203,1.686,9.094c0.198-0.258,0.373-0.532,0.521-0.821c0.815-1.598,1.87-3.036,2.986-4.432
		c0.787-0.984,1.625-1.922,2.546-2.785c0.163-0.153,0.333-0.298,0.511-0.434c0.294-0.224,0.62-0.355,0.992-0.395
		c0.465-0.049,0.877-0.224,1.242-0.527c0.942-0.782,1.99-1.404,3.083-1.953c1.183-0.593,2.402-1.098,3.698-1.393
		c1.278-0.291,2.578-0.357,3.884-0.306c0.932,0.037,1.855,0.139,2.768,0.344c0.664,0.15,1.284,0.409,1.895,0.702
		c1.094,0.524,2.233,0.956,3.31,1.519c0.587,0.307,1.108,0.715,1.688,1.034c1.744,0.957,3.324,2.148,4.871,3.385l3.578-1.844
		c-0.579-0.411-1.146-0.836-1.682-1.307c-0.896-0.788-1.89-1.436-2.982-1.929c-0.786-0.353-1.517-0.797-2.243-1.257
		c-1.267-0.799-2.578-1.5-4.085-1.754c-0.57-0.096-1.09-0.358-1.61-0.601c-1.55-0.721-3.172-1.123-4.891-1.141
		c-1.269-0.014-2.535,0.021-3.8,0.103c-0.799,0.052-1.565,0.219-2.289,0.579c-0.564,0.281-1.16,0.493-1.772,0.649
		c-0.814,0.208-1.606,0.477-2.38,0.802c-1.056,0.443-2.09,0.923-2.988,1.653C8.2-2.742,7.821-2.553,7.364-2.512
		C6.712-2.454,6.162-2.129,5.645-1.749c-0.264,0.193-0.477,0.441-0.72,0.655c-0.203,0.179-0.412,0.355-0.681,0.42
		c-0.137,0.034-0.262,0.082-0.375,0.16c-1.19,0.806-2.216,1.777-3.015,2.977C0.299,3.295-0.148,4.188-0.657,5.047
		C-0.827,5.335-1.001,5.62-1.216,5.879c-0.172,0.207-0.376,0.349-0.655,0.374c-0.261,0.024-0.453,0.166-0.59,0.385
		c-0.114,0.181-0.203,0.375-0.283,0.571c-0.283,0.696-0.631,1.348-1.073,1.965c-0.699,0.979-1.182,2.076-1.551,3.218
		c-0.234,0.725-0.261,1.506-0.584,2.209c-0.518,1.995-0.696,4.014-0.476,6.066c0.154,1.433,0.426,2.841,0.776,4.237
		c0.207,0.823,0.443,1.642,0.571,2.482c0.079,0.519,0.11,1.036,0.111,1.559c0.001,0.297,0.045,0.592,0.32,0.784
		c0.132,0.09,0.237,0.204,0.329,0.333c0.223,0.315,0.399,0.657,0.54,1.018c0.475,1.216,0.967,2.425,1.556,3.593
		c0.625,1.24,1.427,2.34,2.475,3.265c0.739,0.651,1.485,1.294,2.254,1.91c0.563,0.451,1.164,0.854,1.725,1.308
		c0.771,0.621,1.428,1.355,2.021,2.144c0.506,0.673,1.141,1.174,1.913,1.514c1.663,0.734,3.321,1.48,4.985,2.214
		c0.99,0.436,2.004,0.812,3.019,1.188c0.395,0.146,0.796,0.311,1.097,0.612c0.214,0.214,0.457,0.328,0.739,0.39
		c0.557,0.122,1.122,0.126,1.686,0.075c0.612-0.051,1.202-0.178,1.737-0.513c0.312-0.195,0.67-0.299,1.04-0.317
		c0.419-0.021,0.832-0.078,1.236-0.183c0.905-0.234,1.814-0.458,2.742-0.579c0.883-0.116,1.739-0.326,2.56-0.667
		c2.038-0.844,4.025-1.796,5.971-2.833c1.009-0.54,2.003-1.109,2.791-1.963c0.089-0.097,0.196-0.185,0.326-0.22
		c0.111-0.031,0.204-0.085,0.293-0.154c0.355-0.273,0.673-0.589,0.99-0.903c1.541-1.54,2.882-3.248,4.18-4.99
		c0.717-0.962,1.345-1.975,1.774-3.102c0.27-0.705,0.599-1.385,0.935-2.06c0.233-0.467,0.448-0.944,0.598-1.443
		c0.288-0.954,0.57-1.909,0.842-2.868c0.207-0.73,0.398-1.466,0.437-2.229c0.023-0.45,0.089-0.891,0.252-1.307
		c0.265-0.668,0.354-1.357,0.341-1.987C48.736,20.101,48.638,19.317,48.503,18.538z"/>
</g>
</svg>
