<?xml version="1.0" encoding="UTF-8" standalone="no"?>
<!-- Generator: Adobe Illustrator 16.0.0, SVG Export Plug-In . SVG Version: 6.00 Build 0)  -->

<svg
   xmlns:dc="http://purl.org/dc/elements/1.1/"
   xmlns:cc="http://creativecommons.org/ns#"
   xmlns:rdf="http://www.w3.org/1999/02/22-rdf-syntax-ns#"
   xmlns:svg="http://www.w3.org/2000/svg"
   xmlns="http://www.w3.org/2000/svg"
   xmlns:sodipodi="http://sodipodi.sourceforge.net/DTD/sodipodi-0.dtd"
   xmlns:inkscape="http://www.inkscape.org/namespaces/inkscape"
   version="1.1"
   id="Layer_1"
   x="0px"
   y="0px"
   width="56.693px"
   height="56.693px"
   viewBox="-7.087 -7.087 56.693 56.693"
   enable-background="new -7.087 -7.087 56.693 56.693"
   xml:space="preserve"
   sodipodi:docname="Danger-Perilleux.svg"
   inkscape:version="0.92.0 r15299"><metadata
   id="metadata21"><rdf:RDF><cc:Work
       rdf:about=""><dc:format>image/svg+xml</dc:format><dc:type
         rdf:resource="http://purl.org/dc/dcmitype/StillImage" /></cc:Work></rdf:RDF></metadata><defs
   id="defs19">
	
	
	
	
	
</defs><sodipodi:namedview
   pagecolor="#ffffff"
   bordercolor="#666666"
   borderopacity="1"
   objecttolerance="10"
   gridtolerance="10"
   guidetolerance="10"
   inkscape:pageopacity="0"
   inkscape:pageshadow="2"
   inkscape:window-width="1280"
   inkscape:window-height="961"
   id="namedview17"
   showgrid="false"
   inkscape:zoom="4.1627714"
   inkscape:cx="-3.8435933"
   inkscape:cy="28.3465"
   inkscape:window-x="-8"
   inkscape:window-y="-8"
   inkscape:window-maximized="1"
   inkscape:current-layer="Layer_1" />
<path
   style="clip-rule:evenodd;fill:#bd0926;fill-rule:evenodd"
   d="M 28.851562 0.28710938 C 27.582563 0.27310937 26.317734 0.308625 25.052734 0.390625 C 24.253734 0.442625 23.487672 0.60875 22.763672 0.96875 C 22.199672 1.24975 21.602234 1.4611875 20.990234 1.6171875 C 20.176234 1.8251875 19.385328 2.0949219 18.611328 2.4199219 C 17.555328 2.8629219 16.521047 3.3422656 15.623047 4.0722656 C 15.287047 4.3442656 14.908172 4.5332188 14.451172 4.5742188 C 13.799172 4.6322187 13.249422 4.9578906 12.732422 5.3378906 C 12.468422 5.5308906 12.254719 5.7781875 12.011719 5.9921875 C 11.808719 6.1711875 11.599078 6.3471094 11.330078 6.4121094 C 11.193078 6.4461094 11.068078 6.4942656 10.955078 6.5722656 C 10.537078 6.8552656 10.149391 7.1681406 9.7753906 7.4941406 C 9.9113906 7.4431406 10.045312 7.3852344 10.195312 7.3652344 C 11.112312 7.2412344 12.028016 7.1777812 12.916016 7.1757812 L 12.96875 7.1757812 C 14.01775 7.1757812 14.999594 7.2641563 15.933594 7.4101562 C 16.060594 7.3691563 16.188125 7.3284531 16.328125 7.3144531 C 16.793125 7.2654531 17.205313 7.0901094 17.570312 6.7871094 C 18.512313 6.0051094 19.559344 5.3849375 20.652344 4.8359375 C 21.835344 4.2429375 23.055563 3.7364062 24.351562 3.4414062 C 25.629562 3.1504063 26.928375 3.0857187 28.234375 3.1367188 C 29.166375 3.1737187 30.090906 3.2754688 31.003906 3.4804688 C 31.667906 3.6304687 32.287438 3.8886406 32.898438 4.1816406 C 33.992438 4.7056406 35.130031 5.1381719 36.207031 5.7011719 C 36.794031 6.0081719 37.316484 6.415375 37.896484 6.734375 C 38.389484 7.005375 38.867891 7.2975625 39.337891 7.6015625 C 40.564891 7.3355625 41.895797 7.1777344 43.341797 7.1777344 L 43.392578 7.1777344 C 43.923578 7.1787344 44.467672 7.2089063 45.013672 7.2539062 C 44.897672 7.1579062 44.776109 7.06775 44.662109 6.96875 C 43.766109 6.18075 42.773641 5.5320625 41.681641 5.0390625 C 40.895641 4.6860625 40.1635 4.2432031 39.4375 3.7832031 C 38.1705 2.9842031 36.860516 2.2832969 35.353516 2.0292969 C 34.783516 1.9332969 34.262187 1.6707344 33.742188 1.4277344 C 32.192187 0.70673437 30.570562 0.30510937 28.851562 0.28710938 z M 8.6113281 8.6582031 C 8.3743281 8.9412031 8.1504062 9.2387812 7.9414062 9.5507812 C 7.3864063 10.382781 6.9386875 11.275766 6.4296875 12.134766 C 6.2596875 12.422766 6.0860938 12.707797 5.8710938 12.966797 C 5.6990938 13.173797 5.4957969 13.314844 5.2167969 13.339844 C 4.9557969 13.363844 4.7639531 13.505609 4.6269531 13.724609 C 4.5129531 13.905609 4.42375 14.100875 4.34375 14.296875 C 4.06075 14.992875 3.7115313 15.644719 3.2695312 16.261719 C 2.5705313 17.240719 2.08775 18.336516 1.71875 19.478516 C 1.48475 20.203516 1.4577656 20.9845 1.1347656 21.6875 C 0.61676563 23.6825 0.43820313 25.701906 0.65820312 27.753906 C 0.81220312 29.186906 1.0855469 30.594234 1.4355469 31.990234 C 1.6425469 32.813234 1.8778594 33.632656 2.0058594 34.472656 C 2.0848594 34.991656 2.1161875 35.50825 2.1171875 36.03125 C 2.1181875 36.32825 2.1625 36.624406 2.4375 36.816406 C 2.5695 36.906406 2.673625 37.019438 2.765625 37.148438 C 2.988625 37.463438 3.1656406 37.806969 3.3066406 38.167969 C 3.7816406 39.383969 4.2723281 40.591766 4.8613281 41.759766 C 5.4863281 42.999766 6.2898906 44.100391 7.3378906 45.025391 C 8.0768906 45.676391 8.8227969 46.319547 9.5917969 46.935547 C 10.154797 47.386547 10.755406 47.788187 11.316406 48.242188 C 12.087406 48.863187 12.744891 49.597719 13.337891 50.386719 C 13.843891 51.059719 14.478 51.560391 15.25 51.900391 C 16.913 52.634391 18.570375 53.381234 20.234375 54.115234 C 21.224375 54.551234 22.238906 54.926734 23.253906 55.302734 C 23.648906 55.448734 24.050562 55.613062 24.351562 55.914062 C 24.565562 56.128062 24.807844 56.242688 25.089844 56.304688 C 25.646844 56.426687 26.211391 56.431859 26.775391 56.380859 C 27.387391 56.329859 27.978672 56.202187 28.513672 55.867188 C 28.825672 55.672187 29.182734 55.568781 29.552734 55.550781 C 29.971734 55.529781 30.385063 55.472187 30.789062 55.367188 C 31.694063 55.133187 32.60325 54.908109 33.53125 54.787109 C 34.41425 54.671109 35.270797 54.462094 36.091797 54.121094 C 38.129797 53.277094 40.1165 52.324109 42.0625 51.287109 C 43.0715 50.747109 44.065516 50.178219 44.853516 49.324219 C 44.942516 49.227219 45.049687 49.140469 45.179688 49.105469 C 45.290687 49.074469 45.383656 49.020172 45.472656 48.951172 C 45.827656 48.678172 46.145891 48.362828 46.462891 48.048828 C 48.003891 46.508828 49.344578 44.800594 50.642578 43.058594 C 51.359578 42.096594 51.987016 41.082078 52.416016 39.955078 C 52.686016 39.250078 53.015563 38.571484 53.351562 37.896484 C 53.584563 37.429484 53.799219 36.952125 53.949219 36.453125 C 54.237219 35.499125 54.519016 34.544937 54.791016 33.585938 C 54.998016 32.855938 55.189516 32.118469 55.228516 31.355469 C 55.251516 30.905469 55.317469 30.464828 55.480469 30.048828 C 55.745469 29.380828 55.833313 28.6925 55.820312 28.0625 C 55.822313 27.1885 55.724844 26.404 55.589844 25.625 C 55.288844 23.906 54.813984 22.233609 54.208984 20.599609 C 52.973984 17.259609 51.309859 14.128453 49.505859 11.064453 C 49.187859 10.522453 48.773344 10.0735 48.277344 9.6875 C 48.129344 9.5715 47.970313 9.4665156 47.820312 9.3535156 C 47.816312 10.103516 47.416609 10.805531 46.724609 11.144531 C 46.231609 11.386531 45.735188 11.635578 45.242188 11.892578 C 45.325187 11.970578 45.414187 12.038047 45.492188 12.123047 C 45.770188 12.427047 45.993078 12.773953 46.205078 13.126953 C 46.282078 13.256953 46.354641 13.388531 46.431641 13.519531 C 47.228641 13.817531 47.981922 14.193203 48.669922 14.658203 C 49.364922 15.127203 49.694187 15.982875 49.492188 16.796875 C 49.348187 17.375875 48.952453 17.838703 48.439453 18.095703 C 48.454453 18.163703 48.466375 18.231828 48.484375 18.298828 C 48.575375 18.652828 48.682516 19.000906 48.978516 19.253906 C 49.103516 19.362906 49.137547 19.525594 49.185547 19.683594 C 49.339547 20.197594 49.555859 20.688547 49.755859 21.185547 C 50.116859 22.086547 50.52475 22.971625 50.84375 23.890625 C 51.09475 24.612625 51.150703 25.351469 51.095703 26.105469 C 51.005703 27.373469 50.900484 28.639297 50.771484 29.904297 C 50.635484 31.243297 50.506313 32.583484 50.195312 33.896484 C 50.081313 34.381484 49.90825 34.841344 49.65625 35.277344 C 49.34625 35.819344 49.155266 36.416953 48.947266 37.001953 C 48.637266 37.877953 48.251672 38.716766 47.763672 39.509766 C 47.622672 39.738766 47.503234 39.979031 47.365234 40.207031 C 47.268234 40.367031 47.266641 40.557703 47.181641 40.720703 C 47.040641 40.991703 46.875453 41.246281 46.689453 41.488281 C 46.499453 41.736281 46.296609 41.974797 46.099609 42.216797 C 46.110609 42.351797 46.130813 42.488094 46.132812 42.621094 C 46.159813 44.630094 45.347344 46.611641 43.902344 48.056641 C 42.664344 49.294641 40.927859 49.949219 38.880859 49.949219 C 38.297859 49.949219 37.686687 49.897922 37.054688 49.794922 C 36.559688 50.027922 36.055297 50.243969 35.529297 50.417969 C 34.444297 50.777969 33.328547 50.944172 32.185547 50.951172 C 31.620547 50.953172 31.056234 50.951172 30.490234 50.951172 C 29.522234 50.963172 28.556797 50.955625 27.591797 50.890625 C 27.408797 50.878625 27.227875 50.853078 27.046875 50.830078 C 27.006875 50.825078 26.959688 50.821828 26.929688 50.798828 C 26.579687 50.539828 26.158953 50.504875 25.751953 50.421875 C 24.207953 50.111875 22.677672 49.728484 21.138672 49.396484 C 20.143672 49.180484 19.254969 48.761891 18.417969 48.212891 C 17.399969 47.545891 16.344047 46.953781 15.248047 46.425781 C 14.923047 46.269781 14.608594 46.091578 14.308594 45.892578 C 14.014594 45.698578 13.747453 45.485969 13.564453 45.167969 C 13.390453 44.866969 13.126656 44.632688 12.847656 44.429688 C 12.210656 43.965688 11.702 43.379094 11.25 42.746094 C 10.582 41.809094 9.8437969 40.936594 8.9667969 40.183594 C 8.4417969 39.733594 8.0736719 39.178766 7.8886719 38.509766 C 7.8006719 38.191766 7.6907344 37.881031 7.5527344 37.582031 C 7.4467344 37.352031 7.3345781 37.128219 7.1425781 36.949219 C 7.0185781 36.834219 6.9311562 36.682719 6.9101562 36.511719 C 6.8561562 36.049719 6.7078281 35.614594 6.5488281 35.183594 C 6.0888281 33.935594 5.7877188 32.645609 5.5117188 31.349609 C 5.2717188 30.219609 5.0693594 29.0855 4.9433594 27.9375 C 4.8543594 27.1265 4.8851406 26.319672 4.9941406 25.513672 C 5.2171406 23.870672 5.5687031 22.257594 6.0957031 20.683594 C 6.2737031 20.150594 6.4722344 19.625906 6.7402344 19.128906 C 6.8172344 18.985906 6.9047656 18.846656 7.0097656 18.722656 C 7.2257656 18.466656 7.3995938 18.184578 7.5585938 17.892578 C 7.2045937 17.621578 6.9342656 17.247875 6.8222656 16.796875 C 6.6152656 15.981875 6.944625 15.127203 7.640625 14.658203 C 8.509625 14.072203 9.481625 13.6325 10.515625 13.3125 C 10.798625 12.8915 11.090531 12.475359 11.394531 12.068359 C 10.792531 11.748359 10.187031 11.440531 9.5820312 11.144531 C 8.7920312 10.756531 8.3472812 9.8973437 8.4882812 9.0273438 C 8.5102813 8.8963437 8.5663281 8.7802031 8.6113281 8.6582031 z M 12.921875 9.1757812 C 12.129875 9.1777813 11.309891 9.2336563 10.462891 9.3476562 C 11.186891 9.7016563 11.926109 10.076563 12.662109 10.476562 C 15.054024 11.777743 17.407479 13.385778 19.070312 15.75 C 15.575312 14.225 11.526813 14.446453 8.7578125 16.314453 C 11.959812 16.662453 15.596625 17.220125 18.140625 20.078125 C 14.524625 20.335125 11.195594 22.205406 9.5585938 24.941406 C 12.677594 23.874406 16.310203 22.787078 19.908203 24.455078 C 17.052203 26.114078 15.181719 29.125719 15.136719 32.011719 C 17.094719 29.767719 18.822453 28.488766 22.439453 27.759766 C 21.336453 30.426766 21.224781 33.313359 22.550781 35.693359 C 22.962781 33.588359 23.516437 31.22225 25.273438 29.53125 C 26.577438 32.41825 26.761703 34.736109 26.095703 37.287109 C 26.095703 37.291109 26.09375 37.294828 26.09375 37.298828 C 26.01075 37.799828 25.847094 38.282281 25.621094 38.738281 C 25.620094 38.740281 25.620141 38.743094 25.619141 38.746094 C 25.609141 38.767094 25.598891 38.787594 25.587891 38.808594 C 24.747891 40.559594 22.354812 42.560156 20.382812 41.910156 C 17.855812 41.077156 19.477094 36.773516 23.246094 39.353516 C 23.682094 38.924516 24.034484 38.4395 24.271484 37.9375 C 21.083484 35.2265 17.172125 36.926641 16.703125 39.431641 C 15.496125 45.881641 24.978766 46.418453 28.634766 38.939453 C 30.225766 35.685453 30.927937 32.945078 31.085938 29.580078 C 32.803938 31.268078 33.349766 33.610312 33.759766 35.695312 C 35.084766 33.315312 34.971187 30.428719 33.867188 27.761719 C 37.483187 28.490719 39.213875 29.767719 41.171875 32.011719 C 41.127875 29.124719 39.255437 26.116031 36.398438 24.457031 C 39.996437 22.789031 43.630047 23.874406 46.748047 24.941406 C 45.111047 22.204406 41.782016 20.335125 38.166016 20.078125 C 40.709016 17.219125 44.348781 16.662453 47.550781 16.314453 C 44.782781 14.446453 40.732328 14.225047 37.236328 15.748047 C 38.839828 13.470708 41.088184 11.893738 43.390625 10.617188 C 43.392436 10.616184 43.394673 10.616238 43.396484 10.615234 C 44.215184 10.161682 45.038973 9.7425628 45.845703 9.3476562 C 45.422359 9.2907444 45.006669 9.2492023 44.597656 9.2207031 C 44.596995 9.2206573 44.596364 9.2207488 44.595703 9.2207031 C 44.186078 9.1922031 43.783219 9.1767812 43.386719 9.1757812 L 43.341797 9.1757812 C 43.325082 9.1757812 43.309655 9.1776763 43.292969 9.1777344 C 42.749053 9.1792705 42.220453 9.2102636 41.703125 9.2597656 C 41.695488 9.2604914 41.68732 9.2609858 41.679688 9.2617188 C 41.679054 9.2617796 41.678368 9.2616579 41.677734 9.2617188 C 36.982198 9.7181866 33.389137 12.06082 31.060547 14.779297 C 28.894547 17.306297 29.406266 20.263813 31.322266 20.757812 C 33.951266 21.408812 33.990047 23.981469 31.748047 26.355469 C 31.748047 26.355469 31.746094 26.357422 31.746094 26.357422 C 31.105094 27.783422 29.82625 28.794922 28.28125 28.794922 C 26.92425 28.794922 25.773125 28.016328 25.078125 26.861328 C 22.327125 24.359328 22.171281 21.454813 24.988281 20.757812 C 26.905281 20.262813 27.413047 17.305297 25.248047 14.779297 C 22.780956 11.899288 18.898575 9.4393726 13.787109 9.1992188 C 13.738139 9.1968609 13.687792 9.1974851 13.638672 9.1953125 C 13.416968 9.1855066 13.19551 9.1757812 12.96875 9.1757812 L 12.921875 9.1757812 z M 28.28125 21.267578 C 27.05325 21.267578 25.923828 22.526859 25.923828 24.255859 C 25.923828 25.984859 27.05325 27.242188 28.28125 27.242188 C 29.50925 27.242188 30.640625 25.984859 30.640625 24.255859 C 30.640625 22.526859 29.50925 21.267578 28.28125 21.267578 z M 29.857422 23.261719 C 30.081422 23.297719 30.275906 23.477469 30.253906 23.730469 C 30.235906 23.904469 30.107656 24.108969 29.972656 24.167969 L 29.974609 24.169922 C 29.974609 24.169922 28.791313 24.59725 28.945312 24.40625 C 29.147312 24.15225 29.357625 23.664594 29.515625 23.433594 C 29.592625 23.318594 29.719422 23.240719 29.857422 23.261719 z M 27.591797 23.306641 C 27.748797 23.287641 27.894375 23.365422 27.984375 23.482422 C 28.167375 23.716422 28.416344 24.21075 28.652344 24.46875 C 28.830344 24.66275 27.476562 24.214844 27.476562 24.214844 L 27.478516 24.212891 C 27.325516 24.151891 27.173344 23.945484 27.152344 23.771484 C 27.120344 23.515484 27.337797 23.338641 27.591797 23.306641 z M 37.689453 35.238281 C 37.366453 35.239281 37.047281 35.27475 36.738281 35.34375 L 39.910156 37.71875 C 38.364156 37.79475 36.695641 38.473875 35.306641 39.796875 C 37.528641 39.263875 40.916313 39.001516 42.445312 41.728516 C 42.533313 42.043516 42.576078 42.357016 42.580078 42.666016 C 42.596078 43.761016 42.098625 44.834016 41.390625 45.541016 C 40.447625 46.485016 38.515141 46.658734 36.119141 45.927734 C 33.773141 45.211734 31.095266 43.669984 28.822266 41.583984 C 28.510266 41.994984 28.170453 42.393578 27.814453 42.767578 C 30.241453 44.986578 33.059016 46.617109 35.666016 47.412109 C 37.555039 47.98884 39.386761 48.135266 40.857422 47.626953 C 41.035892 47.565268 41.207954 47.493933 41.375 47.412109 C 41.446203 47.378259 41.514972 47.340315 41.583984 47.302734 C 41.704199 47.235418 41.824401 47.168912 41.9375 47.089844 C 42.111754 46.97056 42.276108 46.836976 42.431641 46.6875 C 42.449179 46.670644 42.469043 46.657882 42.486328 46.640625 C 42.486691 46.640262 42.487919 46.640988 42.488281 46.640625 C 42.744222 46.384941 42.978537 46.098028 43.185547 45.789062 C 43.186353 45.78786 43.186695 45.78636 43.1875 45.785156 C 43.193285 45.776469 43.197384 45.766537 43.203125 45.757812 C 43.300791 45.610052 43.392199 45.458751 43.476562 45.300781 C 43.565725 45.133826 43.646022 44.960244 43.71875 44.783203 C 43.989561 44.12397 44.144892 43.401164 44.134766 42.646484 C 44.130766 42.392484 44.104547 42.136906 44.060547 41.878906 C 44.115547 38.133906 40.706453 35.233281 37.689453 35.238281 z "
   transform="translate(-7.087,-7.087)"
   id="path2" />

</svg>