<?xml version="1.0" encoding="UTF-8" standalone="no"?>
<!-- Generator: Adobe Illustrator 16.0.0, SVG Export Plug-In . SVG Version: 6.00 Build 0)  -->

<svg
   xmlns:dc="http://purl.org/dc/elements/1.1/"
   xmlns:cc="http://creativecommons.org/ns#"
   xmlns:rdf="http://www.w3.org/1999/02/22-rdf-syntax-ns#"
   xmlns:svg="http://www.w3.org/2000/svg"
   xmlns="http://www.w3.org/2000/svg"
   xmlns:sodipodi="http://sodipodi.sourceforge.net/DTD/sodipodi-0.dtd"
   xmlns:inkscape="http://www.inkscape.org/namespaces/inkscape"
   version="1.1"
   id="Layer_1"
   x="0px"
   y="0px"
   width="56.693px"
   height="56.693px"
   viewBox="-7.087 -7.087 56.693 56.693"
   enable-background="new -7.087 -7.087 56.693 56.693"
   xml:space="preserve"
   sodipodi:docname="Danger-Sur.svg"
   inkscape:version="0.92.0 r15299"><metadata
   id="metadata11"><rdf:RDF><cc:Work
       rdf:about=""><dc:format>image/svg+xml</dc:format><dc:type
         rdf:resource="http://purl.org/dc/dcmitype/StillImage" /></cc:Work></rdf:RDF></metadata><defs
   id="defs9" /><sodipodi:namedview
   pagecolor="#ffffff"
   bordercolor="#666666"
   borderopacity="1"
   objecttolerance="10"
   gridtolerance="10"
   guidetolerance="10"
   inkscape:pageopacity="0"
   inkscape:pageshadow="2"
   inkscape:window-width="1280"
   inkscape:window-height="961"
   id="namedview7"
   showgrid="false"
   inkscape:zoom="4.1627714"
   inkscape:cx="-3.8435933"
   inkscape:cy="28.3465"
   inkscape:window-x="-8"
   inkscape:window-y="-8"
   inkscape:window-maximized="1"
   inkscape:current-layer="Layer_1" />
<path
   d="M 28.851562 0.28515625 C 27.582563 0.27115625 26.317734 0.30667188 25.052734 0.38867188 C 24.253734 0.44067187 23.487672 0.60875 22.763672 0.96875 C 22.199672 1.24975 21.602234 1.4611875 20.990234 1.6171875 C 20.176234 1.8251875 19.385328 2.0949219 18.611328 2.4199219 C 17.555328 2.8629219 16.521047 3.3422656 15.623047 4.0722656 C 15.287047 4.3452656 14.908172 4.5332188 14.451172 4.5742188 C 13.799172 4.6322187 13.249422 4.9578906 12.732422 5.3378906 C 12.468422 5.5308906 12.254719 5.7781875 12.011719 5.9921875 C 11.808719 6.1711875 11.599078 6.3471094 11.330078 6.4121094 C 11.193078 6.4461094 11.068078 6.4942656 10.955078 6.5722656 C 9.7650781 7.3782656 8.7404062 8.3507813 7.9414062 9.5507812 C 7.3864063 10.382781 6.9386875 11.275766 6.4296875 12.134766 C 6.2596875 12.422766 6.0860938 12.707797 5.8710938 12.966797 C 5.6990938 13.173797 5.4957969 13.314844 5.2167969 13.339844 C 4.9557969 13.363844 4.7639531 13.505609 4.6269531 13.724609 C 4.5129531 13.905609 4.42375 14.100875 4.34375 14.296875 C 4.06075 14.992875 3.7115312 15.644719 3.2695312 16.261719 C 2.5705312 17.240719 2.08775 18.336516 1.71875 19.478516 C 1.48475 20.203516 1.4577656 20.9845 1.1347656 21.6875 C 0.61676563 23.6825 0.43820313 25.701906 0.65820312 27.753906 C 0.81220312 29.186906 1.0855469 30.594234 1.4355469 31.990234 C 1.6425469 32.813234 1.8778594 33.632656 2.0058594 34.472656 C 2.0848594 34.991656 2.1161875 35.50825 2.1171875 36.03125 C 2.1181875 36.32825 2.1625 36.624406 2.4375 36.816406 C 2.5695 36.906406 2.673625 37.019438 2.765625 37.148438 C 2.988625 37.463438 3.1656406 37.806969 3.3066406 38.167969 C 3.7816406 39.383969 4.2723281 40.591766 4.8613281 41.759766 C 5.4863281 42.999766 6.2898906 44.100391 7.3378906 45.025391 C 8.0768906 45.676391 8.8227969 46.319547 9.5917969 46.935547 C 10.154797 47.386547 10.755406 47.788187 11.316406 48.242188 C 12.087406 48.863187 12.744891 49.597719 13.337891 50.386719 C 13.843891 51.059719 14.478 51.560391 15.25 51.900391 C 16.913 52.634391 18.570375 53.381234 20.234375 54.115234 C 21.224375 54.551234 22.238906 54.926734 23.253906 55.302734 C 23.648906 55.448734 24.050562 55.613062 24.351562 55.914062 C 24.565562 56.128062 24.807844 56.242688 25.089844 56.304688 C 25.646844 56.426687 26.211391 56.431859 26.775391 56.380859 C 27.387391 56.329859 27.978672 56.202187 28.513672 55.867188 C 28.825672 55.672187 29.182734 55.568781 29.552734 55.550781 C 29.971734 55.529781 30.385063 55.472187 30.789062 55.367188 C 31.694063 55.133187 32.60325 54.908109 33.53125 54.787109 C 34.41425 54.671109 35.270797 54.462094 36.091797 54.121094 C 38.129797 53.277094 40.1165 52.324109 42.0625 51.287109 C 43.0715 50.747109 44.065516 50.178219 44.853516 49.324219 C 44.942516 49.227219 45.049687 49.140469 45.179688 49.105469 C 45.290687 49.074469 45.383656 49.020172 45.472656 48.951172 C 45.827656 48.678172 46.145891 48.362828 46.462891 48.048828 C 48.003891 46.508828 49.344578 44.800594 50.642578 43.058594 C 51.359578 42.096594 51.987016 41.082078 52.416016 39.955078 C 52.686016 39.250078 53.015563 38.571484 53.351562 37.896484 C 53.584563 37.429484 53.799219 36.952125 53.949219 36.453125 C 54.237219 35.499125 54.519016 34.544937 54.791016 33.585938 C 54.998016 32.855938 55.189516 32.118469 55.228516 31.355469 C 55.251516 30.905469 55.317469 30.464828 55.480469 30.048828 C 55.745469 29.380828 55.833313 28.6925 55.820312 28.0625 C 55.822312 27.1885 55.724844 26.404 55.589844 25.625 C 55.288844 23.906 54.813984 22.233609 54.208984 20.599609 C 52.973984 17.259609 51.309859 14.128453 49.505859 11.064453 C 49.187859 10.522453 48.773344 10.0735 48.277344 9.6875 C 47.750344 9.2745 47.206297 8.883 46.654297 8.5 C 45.965297 8.022 45.294109 7.52375 44.662109 6.96875 C 43.766109 6.18075 42.773641 5.5320625 41.681641 5.0390625 C 40.895641 4.6860625 40.1635 4.24125 39.4375 3.78125 C 38.1705 2.98225 36.860516 2.2813437 35.353516 2.0273438 C 34.783516 1.9313437 34.262188 1.6707344 33.742188 1.4277344 C 32.192188 0.70673437 30.570562 0.30315625 28.851562 0.28515625 z M 27.257812 3.1210938 C 27.583313 3.1175312 27.909828 3.1220156 28.236328 3.1347656 C 29.168328 3.1717656 30.090906 3.2735156 31.003906 3.4785156 C 31.667906 3.6285156 32.287437 3.8886406 32.898438 4.1816406 C 33.992437 4.7056406 35.131984 5.1362188 36.208984 5.6992188 C 36.795984 6.0062188 37.316484 6.415375 37.896484 6.734375 C 39.704484 7.726375 41.3355 8.9669531 42.9375 10.251953 C 43.3815 10.607953 43.801266 10.994281 44.322266 11.238281 C 44.780266 11.451281 45.158141 11.757094 45.494141 12.121094 C 45.772141 12.425094 45.995031 12.772 46.207031 13.125 C 46.444031 13.521 46.669672 13.922125 46.888672 14.328125 C 47.566672 14.648125 48.037109 15.333766 48.037109 16.134766 C 48.037109 16.307766 48.013656 16.474766 47.972656 16.634766 C 48.068656 16.873766 48.168859 17.110516 48.255859 17.353516 C 48.366859 17.660516 48.406328 17.984875 48.486328 18.296875 C 48.577328 18.650875 48.684469 18.998953 48.980469 19.251953 C 49.105469 19.360953 49.1395 19.523641 49.1875 19.681641 C 49.3415 20.195641 49.557812 20.686594 49.757812 21.183594 C 50.118812 22.084594 50.526703 22.967719 50.845703 23.886719 C 51.095703 24.610719 51.151656 25.350469 51.097656 26.105469 C 51.007656 27.373469 50.900484 28.639297 50.771484 29.904297 C 50.635484 31.243297 50.508266 32.583484 50.197266 33.896484 C 50.083266 34.381484 49.910203 34.841344 49.658203 35.277344 C 49.348203 35.819344 49.157219 36.416953 48.949219 37.001953 C 48.639219 37.877953 48.251672 38.716766 47.763672 39.509766 C 47.622672 39.738766 47.503234 39.979031 47.365234 40.207031 C 47.268234 40.367031 47.266641 40.557703 47.181641 40.720703 C 47.040641 40.991703 46.875453 41.246281 46.689453 41.488281 C 45.472453 43.070281 44.116219 44.520922 42.574219 45.794922 C 42.349219 45.979922 42.108516 46.136344 41.853516 46.277344 C 41.499516 46.474344 41.178594 46.721969 40.933594 47.042969 C 40.496594 47.616969 39.949328 48.066703 39.361328 48.470703 C 38.171328 49.285703 36.907297 49.960016 35.529297 50.416016 C 34.444297 50.776016 33.328547 50.944172 32.185547 50.951172 C 31.620547 50.953172 31.056234 50.951172 30.490234 50.951172 C 29.522234 50.963172 28.556797 50.953672 27.591797 50.888672 C 27.408797 50.876672 27.227875 50.853078 27.046875 50.830078 C 27.006875 50.825078 26.959688 50.821828 26.929688 50.798828 C 26.579687 50.539828 26.158953 50.504875 25.751953 50.421875 C 24.207953 50.111875 22.677672 49.728484 21.138672 49.396484 C 20.143672 49.180484 19.254969 48.761891 18.417969 48.212891 C 17.399969 47.545891 16.344047 46.953781 15.248047 46.425781 C 14.923047 46.269781 14.608594 46.091578 14.308594 45.892578 C 14.014594 45.698578 13.747453 45.485969 13.564453 45.167969 C 13.390453 44.866969 13.126656 44.630734 12.847656 44.427734 C 12.210656 43.963734 11.702 43.377141 11.25 42.744141 C 11.096 42.528141 10.922766 42.330094 10.759766 42.121094 C 10.693766 42.069094 10.625406 42.022891 10.566406 41.962891 C 10.402406 41.795891 10.276641 41.599625 10.181641 41.390625 C 9.8056406 40.962625 9.4027969 40.558594 8.9667969 40.183594 C 8.4417969 39.733594 8.0736719 39.178766 7.8886719 38.509766 C 7.8006719 38.191766 7.6907344 37.881031 7.5527344 37.582031 C 7.4467344 37.352031 7.3345781 37.128219 7.1425781 36.949219 C 7.0185781 36.834219 6.9311563 36.682719 6.9101562 36.511719 C 6.8561563 36.049719 6.7078281 35.614594 6.5488281 35.183594 C 6.0888281 33.935594 5.7877187 32.645609 5.5117188 31.349609 C 5.2717187 30.219609 5.0693594 29.0855 4.9433594 27.9375 C 4.8543594 27.1265 4.8851406 26.319672 4.9941406 25.513672 C 5.2171406 23.870672 5.5687031 22.257594 6.0957031 20.683594 C 6.2737031 20.150594 6.4722344 19.625906 6.7402344 19.128906 C 6.8172344 18.985906 6.9047656 18.846656 7.0097656 18.722656 C 7.3247656 18.347656 7.5704844 17.929375 7.7714844 17.484375 C 7.8844844 17.235375 8.0019219 16.988531 8.1699219 16.769531 C 8.2559219 16.650531 8.3542812 16.546656 8.4882812 16.472656 C 8.6112813 16.406656 8.6894375 16.290641 8.7734375 16.181641 C 8.9714375 15.923641 9.1469219 15.648375 9.2949219 15.359375 C 10.109922 13.761375 11.163297 12.323734 12.279297 10.927734 C 13.066297 9.9437344 13.905172 9.0055781 14.826172 8.1425781 C 14.989172 7.9895781 15.159891 7.8449844 15.337891 7.7089844 C 15.631891 7.4849844 15.956125 7.3544531 16.328125 7.3144531 C 16.793125 7.2654531 17.205312 7.0901094 17.570312 6.7871094 C 18.512313 6.0051094 19.561297 5.3829844 20.654297 4.8339844 C 21.837297 4.2409844 23.055563 3.7364062 24.351562 3.4414062 C 25.310063 3.2231563 26.281312 3.1317812 27.257812 3.1210938 z M 46.03125 16.136719 C 43.74625 16.309719 41.962516 16.794766 40.103516 18.009766 C 39.660516 17.825766 39.055391 16.536641 38.775391 16.681641 C 37.793391 17.186641 37.538187 18.30525 38.367188 19.40625 L 33.460938 20.230469 C 31.402938 20.507469 29.345781 20.632828 27.300781 20.673828 C 27.410781 20.991828 27.545219 21.307813 27.699219 21.507812 C 28.132219 22.071813 29.387219 22.023422 29.449219 22.732422 C 29.610219 24.567422 27.384969 26.670625 25.542969 26.640625 C 24.263969 26.619625 24.129969 24.252797 22.917969 23.841797 C 21.331969 23.303797 19.459984 25.39925 17.958984 24.65625 C 16.690984 24.02925 15.883484 21.351703 15.646484 20.470703 C 14.798484 20.459703 13.958906 20.457656 13.128906 20.472656 C 12.086906 20.503656 11.2275 20.94225 10.6875 21.65625 C 9.9675 22.60725 9.7218906 23.870703 9.5878906 25.220703 C 9.4398906 26.720703 10.097922 29.623594 10.044922 31.058594 C 10.002922 32.208594 9.4236406 32.043953 9.0566406 32.626953 C 7.9336406 34.409953 9.79375 34.355891 10.46875 33.087891 C 11.50575 31.138891 10.822406 27.847188 11.066406 25.367188 C 11.220406 22.397187 11.946187 23.378219 12.367188 23.324219 C 12.018187 24.409219 11.852109 25.895891 11.787109 27.587891 C 12.359109 27.393891 14.818938 26.624266 15.335938 27.572266 C 15.906937 28.619266 13.025562 29.402828 13.351562 30.548828 C 13.556563 31.268828 15.258531 30.746422 15.394531 31.482422 C 15.670531 32.980422 12.726719 34.696344 11.886719 35.152344 C 11.953719 37.090344 12.015281 38.937594 11.988281 40.558594 L 14.470703 40.558594 C 14.118703 39.185594 13.471766 36.411375 14.134766 35.984375 C 15.913766 34.482375 16.612594 32.870875 17.683594 31.296875 C 18.410594 31.509875 19.087234 31.694562 19.740234 31.851562 C 20.035234 31.931562 20.342344 31.998687 20.652344 32.054688 C 22.716344 32.467687 25.764406 32.525062 28.191406 32.039062 C 28.503406 34.872063 28.795219 37.725594 28.574219 40.558594 L 30.978516 40.558594 C 29.950516 38.325594 30.625812 35.157531 32.132812 33.394531 L 35.863281 30.615234 C 37.928281 29.255234 39.427719 27.459563 40.511719 25.351562 C 43.036719 25.634563 45.251875 25.624109 46.921875 25.287109 L 47.988281 23.662109 C 45.974281 22.180109 44.391766 20.624938 42.759766 18.835938 C 43.597766 17.627938 44.84025 16.945719 46.03125 16.136719 z M 42.763672 20.667969 C 43.129672 20.667969 43.427734 20.965031 43.427734 21.332031 C 43.427734 21.698031 43.129672 21.996094 42.763672 21.996094 C 42.396672 21.996094 42.097656 21.698031 42.097656 21.332031 C 42.097656 20.965031 42.396672 20.667969 42.763672 20.667969 z M 35.964844 21.611328 C 36.925844 21.603328 37.260047 21.887219 37.498047 22.324219 C 37.915047 23.139219 35.324734 23.222766 35.427734 24.134766 C 35.510734 24.868766 37.272813 24.451594 37.382812 25.183594 C 37.698812 27.289594 35.020625 29.651422 32.890625 29.732422 C 31.705625 29.777422 29.992031 28.565391 30.207031 27.400391 C 30.423031 26.230391 33.0775 27.262781 33.5625 26.175781 C 33.9555 25.294781 32.037422 24.347188 32.482422 23.492188 C 33.003422 22.492188 35.003844 21.619328 35.964844 21.611328 z M 35.289062 32.816406 L 32.408203 34.806641 L 32.945312 40.558594 L 35.802734 40.558594 C 34.824734 38.694594 34.508063 35.948406 35.289062 32.816406 z M 18.302734 32.933594 C 17.800734 33.945594 17.127938 34.759297 16.460938 35.529297 C 16.956938 35.798297 17.429719 35.978125 17.886719 36.078125 C 18.818719 36.280125 19.683047 36.105891 20.373047 35.712891 C 21.208047 35.235891 21.828953 34.513438 22.376953 33.773438 C 21.162953 33.700438 19.637734 33.525594 18.302734 32.933594 z M 20.316406 37.251953 C 19.590406 37.466953 18.867359 37.560047 18.193359 37.498047 C 18.622359 38.547047 19.061813 39.504594 19.507812 40.558594 L 21.857422 40.558594 C 20.994422 39.024594 20.517406 38.125953 20.316406 37.251953 z "
   transform="translate(-7.087,-7.087)"
   id="path2" />

</svg>