<?xml version="1.0" encoding="utf-8"?>
<!-- Generator: Adobe Illustrator 16.0.0, SVG Export Plug-In . SVG Version: 6.00 Build 0)  -->
<!DOCTYPE svg PUBLIC "-//W3C//DTD SVG 1.1//EN" "http://www.w3.org/Graphics/SVG/1.1/DTD/svg11.dtd">
<svg version="1.1" id="Layer_1" xmlns="http://www.w3.org/2000/svg" xmlns:xlink="http://www.w3.org/1999/xlink" x="0px" y="0px"
	 width="56.693px" height="56.693px" viewBox="-7.087 -7.087 56.693 56.693" enable-background="new -7.087 -7.087 56.693 56.693"
	 xml:space="preserve">
<path fill="#BD0926" d="M14.894,3.234c-1.933,3.047-2.636,6.49-1.65,10.599l0.034-0.018c0.181,0.56,0.413,1.104,0.706,1.627
	l-1.355,0.761c-0.555-0.99-0.928-2.029-1.149-3.089c-2.863-0.522-5.767-0.626-8.72-0.179c2.83,0.845,4.382,1.976,6.368,3.88
	c-2.228,0.811-5.004,2.514-7.718,5.834c2.945-0.735,5.384-0.953,7.427-0.524c-3.068,1.865-5.32,4.662-7.336,9.478
	c2.981-1.432,5.389-1.562,8.548-1.567c-1.915,2.72-2.929,6.418-3.016,9.371c2.038-2.16,4.786-4.996,7.241-6.558
	c0.249,2.482,1.248,4.842,2.984,7.077c-0.019-3.64,0.853-7.331,2.624-11.074c-0.866,0.411-1.72,0.884-2.562,1.42l-1.583,1.009
	l0.407-1.832l1.142-5.117c-1,0.026-2.021,0.359-3.151,0.802l-1.874,0.734l0.895-1.802l3.19-6.433l1.391,0.69l-2.362,4.762
	c0.952-0.261,1.938-0.407,2.99-0.236l0.812,0.133l-0.179,0.802l-0.952,4.267c1.382-0.747,2.795-1.344,4.228-1.799l0.005-0.003
	l0.055-0.016c0.666-0.209,1.337-0.388,2.009-0.537c0.008-0.001,0.016-0.003,0.023-0.005c3.581-0.905,7.437-1.579,12.507-1.799
	c0.633-1.068,1.143-2.011,1.564-2.886l-0.524-2.029l-2.026,2.56l-0.654-2.281l-1.866,2.424l-0.626-2.167l-1.979,2.61l-0.638-2.343
	l-1.98,2.613l0.102-3.418l1.873-3.54l0.636,2.344l1.983-2.611l0.635,2.341l1.947-2.491l0.545,2.234l2.026-2.559l0.654,2.283
	l2.042-2.654c0.189-0.896,0.385-1.866,0.615-2.972c-4.611-0.306-8.83,0.4-12.795,0.82c-2.207-1.237-4.871-1.827-7.357-1.816
	c-0.958,0.004-1.89,0.098-2.759,0.277L14.894,3.234L14.894,3.234z M23.242,12.244c1.308,0.006,2.547,0.44,3.792,0.897
	c-0.378,1.188-1.085,1.527-2.053,1.719c-1.341-0.367-2.352-1.293-2.854-2.51C22.506,12.277,22.877,12.242,23.242,12.244
	L23.242,12.244z"/>
<g>
	<path fill-rule="evenodd" clip-rule="evenodd" fill="#BD0926" d="M7.218,38.803c-0.049-0.032-0.091-0.071-0.138-0.105
		c-0.018,0.237-0.041,0.479-0.047,0.708c0.14-0.148,0.291-0.306,0.437-0.46C7.387,38.896,7.298,38.857,7.218,38.803z"/>
	<path fill-rule="evenodd" clip-rule="evenodd" fill="#BD0926" d="M48.503,18.538c-0.301-1.719-0.776-3.392-1.381-5.026
		c-1.235-3.34-2.9-6.471-4.704-9.535C42.1,3.435,41.686,2.987,41.19,2.601c-0.527-0.413-1.07-0.805-1.622-1.188
		c-0.689-0.478-1.36-0.977-1.992-1.532c-0.896-0.788-1.89-1.436-2.982-1.929c-0.786-0.353-1.517-0.797-2.243-1.257
		c-1.267-0.799-2.578-1.5-4.085-1.754c-0.57-0.096-1.09-0.358-1.61-0.601c-1.55-0.721-3.172-1.123-4.891-1.141
		c-1.269-0.014-2.535,0.021-3.8,0.103c-0.799,0.052-1.565,0.219-2.289,0.579c-0.564,0.281-1.16,0.493-1.772,0.649
		c-0.814,0.208-1.606,0.477-2.38,0.802c-1.056,0.443-2.09,0.923-2.988,1.653C8.2-2.742,7.821-2.553,7.364-2.512
		C6.712-2.454,6.162-2.129,5.645-1.749c-0.264,0.193-0.477,0.441-0.72,0.655c-0.203,0.179-0.412,0.355-0.681,0.42
		c-0.137,0.034-0.262,0.082-0.375,0.16c-1.19,0.806-2.216,1.777-3.015,2.977C0.299,3.295-0.148,4.188-0.657,5.047
		C-0.827,5.335-1.001,5.62-1.216,5.879c-0.172,0.207-0.376,0.349-0.655,0.374c-0.261,0.024-0.453,0.166-0.59,0.385
		c-0.114,0.181-0.203,0.375-0.283,0.571c-0.283,0.696-0.631,1.348-1.073,1.965c-0.699,0.979-1.182,2.076-1.551,3.218
		c-0.234,0.725-0.261,1.506-0.584,2.209c-0.518,1.995-0.696,4.014-0.476,6.066c0.154,1.433,0.426,2.841,0.776,4.237
		c0.207,0.823,0.443,1.642,0.571,2.482c0.079,0.519,0.11,1.036,0.111,1.559c0.001,0.297,0.045,0.592,0.32,0.784
		c0.132,0.09,0.237,0.204,0.329,0.333c0.223,0.315,0.399,0.657,0.54,1.018c0.475,1.216,0.967,2.425,1.556,3.593
		c0.625,1.24,1.427,2.34,2.475,3.265c0.739,0.651,1.485,1.294,2.254,1.91c0.563,0.451,1.164,0.854,1.725,1.308
		c0.771,0.621,1.428,1.355,2.021,2.144c0.506,0.673,1.141,1.174,1.913,1.514c1.663,0.734,3.321,1.48,4.985,2.214
		c0.99,0.436,2.004,0.812,3.019,1.188c0.395,0.146,0.796,0.311,1.097,0.612c0.214,0.214,0.457,0.328,0.739,0.39
		c0.557,0.122,1.122,0.126,1.686,0.075c0.612-0.051,1.202-0.178,1.737-0.513c0.312-0.195,0.67-0.299,1.04-0.317
		c0.419-0.021,0.832-0.078,1.236-0.183c0.905-0.234,1.814-0.458,2.742-0.579c0.883-0.116,1.739-0.326,2.56-0.667
		c2.038-0.844,4.025-1.796,5.971-2.833c1.009-0.54,2.003-1.109,2.791-1.963c0.089-0.097,0.196-0.185,0.326-0.22
		c0.111-0.031,0.204-0.085,0.293-0.154c0.355-0.273,0.673-0.589,0.99-0.903c1.541-1.54,2.882-3.248,4.18-4.99
		c0.717-0.962,1.345-1.975,1.774-3.102c0.27-0.705,0.599-1.385,0.935-2.06c0.233-0.467,0.448-0.944,0.598-1.443
		c0.288-0.954,0.57-1.909,0.842-2.868c0.207-0.73,0.398-1.466,0.437-2.229c0.023-0.45,0.089-0.891,0.252-1.307
		c0.265-0.668,0.354-1.357,0.341-1.987C48.736,20.101,48.638,19.317,48.503,18.538z M44.01,19.018
		c-0.09,1.268-0.196,2.534-0.325,3.799c-0.136,1.339-0.264,2.679-0.575,3.992c-0.114,0.485-0.287,0.945-0.539,1.381
		c-0.31,0.542-0.501,1.139-0.709,1.724c-0.31,0.876-0.697,1.715-1.185,2.508c-0.141,0.229-0.26,0.471-0.398,0.699
		c-0.097,0.16-0.099,0.35-0.184,0.513c-0.141,0.271-0.306,0.525-0.492,0.767c-1.217,1.582-2.573,3.033-4.115,4.307
		c-0.225,0.185-0.466,0.342-0.721,0.483c-0.354,0.197-0.676,0.444-0.921,0.765c-0.437,0.574-0.983,1.024-1.571,1.428
		c-1.19,0.815-2.454,1.489-3.832,1.945c-1.085,0.36-2.202,0.528-3.345,0.535c-0.565,0.002-1.129,0-1.695,0
		c-0.968,0.012-1.934,0.003-2.899-0.062c-0.183-0.012-0.364-0.036-0.545-0.059c-0.04-0.005-0.087-0.009-0.117-0.032
		c-0.35-0.259-0.771-0.294-1.178-0.377c-1.544-0.31-3.073-0.693-4.612-1.025c-0.995-0.216-1.884-0.635-2.721-1.184
		c-0.66-0.433-1.342-0.823-2.035-1.195c-0.302,0.315-0.576,0.605-0.806,0.85c-0.386,0.409-0.916,0.628-1.456,0.628
		c-0.257,0-0.518-0.05-0.765-0.152c-0.767-0.317-1.258-1.076-1.233-1.906c0.023-0.798,0.123-1.612,0.254-2.428
		c-0.418-0.383-0.799-0.801-1.129-1.263c-0.57-0.799-1.211-1.534-1.926-2.206c-0.238,0.095-0.485,0.151-0.733,0.151
		c-0.502,0-0.998-0.189-1.378-0.55c-0.602-0.572-0.788-1.457-0.467-2.223c0.137-0.327,0.281-0.624,0.422-0.936
		c-0.01-0.011-0.016-0.023-0.026-0.033c-0.124-0.115-0.21-0.266-0.231-0.437c-0.054-0.462-0.204-0.897-0.363-1.328
		c-0.46-1.248-0.761-2.538-1.037-3.834c-0.24-1.13-0.441-2.265-0.567-3.413c-0.089-0.811-0.059-1.617,0.05-2.423
		c0.223-1.643,0.574-3.257,1.101-4.831c0.178-0.533,0.378-1.058,0.646-1.555c0.077-0.143,0.163-0.281,0.268-0.405
		c0.315-0.375,0.562-0.793,0.763-1.238c0.113-0.249,0.229-0.496,0.397-0.715C1.168,9.564,1.267,9.46,1.401,9.386
		C1.524,9.32,1.602,9.203,1.686,9.094c0.198-0.258,0.373-0.532,0.521-0.821c0.815-1.598,1.87-3.036,2.986-4.432
		c0.787-0.984,1.625-1.922,2.546-2.785c0.163-0.153,0.333-0.298,0.511-0.434c0.294-0.224,0.62-0.355,0.992-0.395
		c0.465-0.049,0.877-0.224,1.242-0.527c0.942-0.782,1.99-1.404,3.083-1.953c1.183-0.593,2.402-1.098,3.698-1.393
		c1.278-0.291,2.578-0.357,3.884-0.306c0.932,0.037,1.855,0.139,2.768,0.344c0.664,0.15,1.284,0.409,1.895,0.702
		c1.094,0.524,2.233,0.956,3.31,1.519c0.587,0.307,1.108,0.715,1.688,1.034c1.808,0.992,3.439,2.233,5.041,3.518
		c0.444,0.356,0.864,0.742,1.385,0.986c0.458,0.213,0.836,0.52,1.172,0.884c0.278,0.304,0.5,0.65,0.712,1.003
		c0.636,1.062,1.206,2.157,1.682,3.297c0.175,0.009,0.36,0.006,0.533,0.017c0.578,0.038,1.11,0.325,1.461,0.786
		c0.35,0.461,0.483,1.051,0.365,1.618l-0.286,1.382c-0.07,0.341-0.134,0.649-0.2,0.967c0.36,0.898,0.766,1.78,1.084,2.696
		C44.008,17.524,44.064,18.263,44.01,19.018z"/>
</g>
</svg>
