<?xml version="1.0" encoding="UTF-8" standalone="no"?>
<!-- Generator: Adobe Illustrator 16.0.0, SVG Export Plug-In . SVG Version: 6.00 Build 0)  -->

<svg
   xmlns:dc="http://purl.org/dc/elements/1.1/"
   xmlns:cc="http://creativecommons.org/ns#"
   xmlns:rdf="http://www.w3.org/1999/02/22-rdf-syntax-ns#"
   xmlns:svg="http://www.w3.org/2000/svg"
   xmlns="http://www.w3.org/2000/svg"
   xmlns:xlink="http://www.w3.org/1999/xlink"
   xmlns:sodipodi="http://sodipodi.sourceforge.net/DTD/sodipodi-0.dtd"
   xmlns:inkscape="http://www.inkscape.org/namespaces/inkscape"
   version="1.1"
   id="Fond"
   x="0px"
   y="0px"
   width="446.25"
   height="623.625"
   viewBox="0 0 446.25 623.62501"
   enable-background="new 0 0 178.58 249.45"
   xml:space="preserve"
   sodipodi:docname="EST-Titre-Couleur2.svg"
   inkscape:version="0.92.0 r15299"><metadata
   id="metadata336"><rdf:RDF><cc:Work
       rdf:about=""><dc:format>image/svg+xml</dc:format><dc:type
         rdf:resource="http://purl.org/dc/dcmitype/StillImage" /><dc:title /></cc:Work></rdf:RDF></metadata><defs
   id="defs334">
	
	

				
				
				
				
			
			
				<linearGradient
   id="SVGID_3_"
   gradientUnits="userSpaceOnUse"
   x1="16.003901"
   y1="15.625"
   x2="46.753899"
   y2="15.625"
   gradientTransform="matrix(-1,0,0,1,178.21,0)">
				<stop
   offset="0.2832"
   style="stop-color:#560F19"
   id="stop10" />
				<stop
   offset="1"
   style="stop-color:#BE0A26"
   id="stop12" />
			</linearGradient>
			
			
		
		<defs
   id="defs5">
			<path
   id="SVGID_1_"
   d="M 8.812,18.73 V 13.154 C 8.4,11.707 7.095,10.261 7.084,10.249 6.896,10.063 6.887,9.764 7.061,9.565 l 0.875,-1 C 8.03,8.458 8.175,8.42 8.312,8.396 c 0.143,0 0.278,0.061 0.373,0.167 0.019,0.021 1.903,2.083 4.877,2.083 0.837,0 25.605,0.104 1.813,0.104 L 149.1,10.757 c 0.44,-0.075 1.062,-0.112 1.897,-0.112 2.975,0 4.859,-2.062 4.877,-2.083 0.097,-0.107 0.184,-0.181 0.377,-0.167 0.143,0.001 0.279,0.062 0.373,0.17 l 0.875,1 c 0.172,0.196 0.16,0.495 -0.021,0.681 -0.305,0.314 -1.855,2.21 -1.855,3.648 0,0.063 -0.015,0.123 -0.041,0.179 v 3.716 c 0.027,0.062 0.041,0.13 0.041,0.199 0,1.438 1.551,3.334 1.854,3.646 0.187,0.186 0.197,0.485 0.023,0.683 l -0.875,1 c -0.094,0.108 -0.23,0.169 -0.373,0.17 -0.186,-0.021 -0.28,-0.06 -0.377,-0.167 -0.018,-0.021 -1.902,-2.083 -4.877,-2.083 -0.359,0 -0.662,-0.008 -0.912,-0.021 H 14.498 c -0.273,0.013 -0.576,0.021 -0.936,0.021 -2.974,0 -4.858,2.062 -4.877,2.083 -0.095,0.106 -0.23,0.167 -0.373,0.167 -0.168,0.032 -0.282,-0.062 -0.376,-0.17 l -0.875,-1 C 6.889,22.121 6.901,21.822 7.082,21.635 7.095,21.624 8.399,20.177 8.812,18.73 Z"
   inkscape:connector-curvature="0" />
		</defs>
		<clipPath
   id="SVGID_2_">
			<use
   xlink:href="#SVGID_1_"
   overflow="visible"
   id="use7"
   style="overflow:visible"
   x="0"
   y="0"
   width="100%"
   height="100%" />
		</clipPath>
		
	</defs><sodipodi:namedview
   pagecolor="#ffffff"
   bordercolor="#666666"
   borderopacity="1"
   objecttolerance="10"
   gridtolerance="10"
   guidetolerance="10"
   inkscape:pageopacity="0"
   inkscape:pageshadow="2"
   inkscape:window-width="1280"
   inkscape:window-height="961"
   id="namedview332"
   showgrid="false"
   inkscape:zoom="0.79956408"
   inkscape:cx="-14.454664"
   inkscape:cy="244.70347"
   inkscape:window-x="1272"
   inkscape:window-y="-8"
   inkscape:window-maximized="1"
   inkscape:current-layer="Fond" />
<path
   style="fill:#be0a26;stroke-width:2.60575104"
   d="M 387.57617 11.662109 C 386.72426 11.800749 385.82952 11.882812 384.89062 11.882812 C 382.71483 11.882812 381.0938 11.978396 379.94727 12.173828 L 377.4082 12.173828 C 377.42285 12.178365 377.43852 12.180943 377.45312 12.185547 C 370.75113 13.162704 364.1515 15.144877 356.98047 16.71875 C 356.73293 16.565011 356.48711 16.413505 356.24219 16.259766 C 359.85481 14.92888 364.62005 13.056903 369.14453 12.173828 L 363.60938 12.171875 C 361.93779 12.700761 360.29057 13.259197 358.68555 13.771484 C 357.11428 14.271788 355.63171 14.708103 354.22461 15.085938 C 352.17909 13.975888 349.94245 13.104887 347.10742 12.990234 C 343.06225 12.824065 340.17934 14.390275 337.61523 16.242188 C 336.42568 16.275488 335.23604 16.312888 334.04688 16.353516 C 332.34208 16.032065 330.62527 15.600476 328.84375 15.109375 C 327.12932 14.16705 325.38227 13.188693 323.5918 12.169922 L 323.01367 12.169922 C 324.15413 12.915898 325.29565 13.665607 326.44531 14.425781 C 325.99087 14.292054 325.55425 14.167655 325.08594 14.027344 C 322.86157 13.360781 320.80096 12.723339 318.84375 12.169922 L 311.32031 12.169922 C 315.9322 12.799891 321.13809 14.817099 326.9668 16.509766 L 321.41211 16.615234 C 318.34774 16.378111 315.26407 15.832158 312.4707 14.552734 C 311.0899 13.920632 309.80589 13.097981 308.5957 12.169922 L 307.87109 12.169922 C 307.91288 12.205106 307.95371 12.241438 307.99805 12.273438 C 310.39023 14.003751 312.94819 15.549603 315.74414 16.472656 C 312.06571 16.265734 308.4876 16.498196 305.23242 17.675781 L 298.91992 16.445312 L 298.31445 16.337891 C 299.77193 15.021455 301.43006 13.931445 303.50781 12.982422 C 304.38839 12.580656 305.3058 12.328102 306.25 12.169922 L 303.01758 12.169922 C 301.31919 13.076805 299.64925 14.402741 297.9668 16.275391 L 290.08984 14.869141 C 287.85545 14.199575 285.70652 13.288887 283.66992 12.167969 L 282.61523 12.167969 C 283.42628 12.752029 284.26583 13.292718 285.16016 13.746094 C 288.02128 15.194891 291.20773 15.883037 294.33984 16.583984 L 297.24805 17.103516 C 296.46578 18.04375 295.67974 19.097646 294.88477 20.287109 C 294.88777 20.289709 294.88913 20.291016 294.89453 20.291016 C 295.71828 19.109453 296.56174 18.075282 297.47266 17.144531 L 303.56445 18.232422 L 303.73828 18.283203 C 302.38045 18.922407 301.59726 20.080444 300.83008 21.294922 C 300.83808 21.297522 300.84246 21.296228 300.84766 21.298828 C 301.24894 20.746408 301.6573 20.191744 302.05859 19.636719 C 302.57492 19.131972 303.20947 18.688348 303.88477 18.326172 L 312.30664 20.789062 L 313.55859 21.166016 C 310.36855 21.269543 307.47263 21.815138 305.3418 23.398438 C 305.03089 23.361438 304.72137 23.314322 304.41016 23.279297 L 304.41016 23.287109 C 304.7137 23.326119 305.01513 23.377108 305.31836 23.417969 C 304.95652 23.688894 304.61219 23.982757 304.29688 24.316406 C 303.77456 24.305726 303.25209 24.294789 302.73047 24.292969 C 298.78536 24.279939 294.8305 24.051753 290.92188 24.59375 C 289.08312 24.849582 287.26762 25.281535 285.49805 25.853516 C 284.41179 24.496761 283.64564 22.641499 283.3125 20.121094 L 283.29688 20.121094 C 283.36307 22.65323 283.86905 24.608019 284.70312 26.123047 C 284.238 26.286427 283.77364 26.449334 283.31641 26.632812 C 280.86961 27.617787 278.5195 28.890303 276.42188 30.490234 L 273.36914 33.1875 L 273.38281 33.201172 C 275.48826 31.559549 277.50507 29.771592 279.86328 28.523438 C 281.46894 27.676056 283.16447 27.011303 284.89844 26.472656 C 287.9424 31.444004 294.86146 31.229875 301.75586 30.746094 C 301.71966 31.147533 301.69499 31.563736 301.68359 31.998047 L 301.69922 31.998047 C 301.75762 31.55563 301.8316 31.13676 301.91602 30.734375 C 304.10743 30.579333 306.29586 30.407753 308.34961 30.363281 C 310.55668 30.313771 312.3824 31.045581 314.0918 32.103516 C 305.15668 34.172482 296.91189 36.901126 287.625 34.621094 C 286.2361 34.279741 284.71418 33.501923 283.67188 32.480469 C 283.2706 31.925444 282.86483 31.370779 282.46094 30.818359 C 282.45594 30.820959 282.45051 30.821619 282.44531 30.824219 C 283.2114 32.041104 283.99657 33.196877 285.35938 33.837891 C 294.33357 38.056602 306.19858 33.982847 315.80859 33.279297 C 316.02227 33.435642 316.23424 33.596256 316.44531 33.757812 C 308.6244 35.059206 301.75041 38.038792 295.7832 39.427734 L 302.27734 39.427734 C 303.69192 39.006613 305.15665 38.556018 306.70508 38.091797 C 310.97852 36.809767 314.63503 35.783478 318.48633 35.330078 C 318.88164 35.628238 319.28495 35.919826 319.69531 36.205078 C 311.07611 36.862999 314.51458 36.8258 320.22461 36.558594 C 322.54868 38.092829 325.1907 39.274083 328.72266 39.128906 C 331.55511 39.011648 333.79432 38.140647 335.83984 37.033203 C 337.24694 37.408431 338.72951 37.845402 340.30078 38.345703 C 341.38512 38.691335 342.50628 39.062355 343.62305 39.427734 L 348.46484 39.427734 C 344.66514 38.450652 340.86019 36.964184 337.85156 35.855469 C 338.0991 35.704336 338.34423 35.550224 338.5918 35.396484 C 344.69694 36.733717 350.38729 38.367076 356.07812 39.427734 L 376.51172 39.427734 C 379.45096 38.743777 382.49718 37.711668 385.69336 36.236328 C 385.9969 36.433401 386.29768 36.631474 386.60547 36.828125 C 391.17472 39.7497 395.51526 42.566136 400.35547 43.990234 L 401.44531 42.744141 C 397.26944 41.828941 393.30147 39.895912 389.54883 37.552734 C 392.85427 39.002048 396.30147 39.821039 400.30469 38.695312 C 399.7276 37.910554 399.09851 36.956933 398.52344 35.910156 C 395.73254 36.587755 393.74947 36.334595 391.25586 35.345703 C 393.08132 35.183651 394.90809 34.984509 396.73438 34.751953 C 397.11471 34.948922 397.49591 35.14624 397.91992 35.349609 C 398.04055 35.407376 398.16717 35.454211 398.29297 35.503906 C 397.60829 34.184236 397.07989 32.774247 396.97461 31.472656 C 396.61228 31.279579 396.26338 31.082855 395.94336 30.878906 C 396.22996 30.74294 396.54135 30.60853 396.83789 30.472656 L 396.83789 27.958984 C 395.816 28.389896 394.79584 28.817772 393.76367 29.271484 C 393.0302 28.67028 392.37044 28.113678 391.69141 27.654297 C 393.40169 27.175641 395.11758 26.708162 396.83789 26.261719 L 396.83789 20.814453 C 396.90563 20.668531 396.94531 20.513772 396.94531 20.349609 C 396.94531 18.292382 398.16299 15.895038 399.39258 13.998047 C 395.25364 12.5682 391.34917 11.863939 387.57617 11.662109 z M 384.07422 14.443359 C 388.2903 14.365189 392.53643 14.896854 396.85938 16.431641 C 397.02485 16.490581 397.19333 16.556812 397.35938 16.617188 L 395.46484 17.4375 L 395.13086 17.613281 C 391.63641 16.141073 388.50252 15.829434 385.58984 16.119141 C 385.08953 15.561511 384.58494 14.995779 384.07422 14.443359 z M 381.30273 14.582031 C 382.02192 15.215229 382.67216 15.847928 383.27148 16.470703 C 376.74668 17.786607 371.17387 21.447371 364.67773 20.207031 C 363.13513 19.909978 361.76704 19.387756 360.49023 18.751953 C 367.52054 17.09209 374.38707 15.124027 381.30273 14.582031 z M 344.3457 14.845703 C 344.65195 14.835283 344.96434 14.840994 345.28516 14.865234 C 347.10918 15.000733 348.68403 15.44689 350.10938 16.064453 C 348.72586 16.346416 347.43912 16.541018 346.19141 16.697266 C 345.84579 16.638086 345.50016 16.57464 345.15234 16.525391 C 343.419 16.279147 341.67432 16.204863 339.92383 16.203125 C 341.26407 15.435163 342.70329 14.900919 344.3457 14.845703 z M 312.80664 16.638672 C 314.21286 16.618082 315.60366 16.696743 316.98633 16.833984 C 318.50975 17.222562 320.06988 17.425082 321.64453 17.533203 C 325.21895 18.213293 328.78982 19.162615 332.47852 20.017578 C 331.91703 20.365086 331.34036 20.670866 330.74414 20.931641 C 328.24168 20.955871 325.73586 21.206288 323.25195 21.546875 L 323.09961 21.576172 C 321.56642 21.472438 320.00565 21.351425 318.45703 21.259766 L 307.9043 18.197266 L 305.36719 17.703125 C 305.58321 17.631285 305.79985 17.550214 306.01172 17.498047 C 308.3328 16.928691 310.58844 16.671041 312.80664 16.638672 z M 352.72461 17.457031 C 352.77671 17.488301 352.82332 17.519521 352.87305 17.550781 C 352.41965 17.636771 351.95927 17.716749 351.49805 17.794922 C 351.90716 17.688086 352.3129 17.576898 352.72461 17.457031 z M 386.98242 17.654297 C 388.75172 17.688177 390.58866 18.037273 392.54297 18.839844 L 392.66406 18.910156 L 391.36328 19.595703 L 391.16602 19.595703 C 390.49241 19.598803 389.81726 19.625339 389.14453 19.667969 C 388.42162 19.111665 387.70384 18.417985 386.98242 17.654297 z M 325.48828 17.679688 C 325.85801 17.687787 326.22905 17.697941 326.59766 17.707031 L 331.38672 17.679688 C 331.92241 18.030728 332.45019 18.379025 332.98828 18.728516 C 330.58666 18.492409 328.06026 18.091423 325.48828 17.679688 z M 384.52148 17.800781 C 385.22597 18.568717 385.87804 19.274692 386.5293 19.931641 C 385.25297 20.10177 383.98332 20.326214 382.72852 20.607422 L 370.46289 23.90625 C 370.17886 23.82287 369.89145 23.74354 369.60742 23.660156 L 369.58203 23.650391 C 369.14987 23.477291 368.72315 23.288193 368.29492 23.103516 C 369.17827 22.933908 370.11051 22.691877 371.11328 22.349609 C 375.86617 20.726229 380.04219 18.407921 384.52148 17.800781 z M 336.56641 18.619141 C 337.75203 18.775486 338.9615 18.886032 340.19141 18.943359 C 338.88072 18.979839 337.54314 18.981133 336.17773 18.939453 C 336.30801 18.832617 336.43623 18.725964 336.56641 18.619141 z M 352.90039 20.316406 L 353.45508 20.515625 C 352.15218 20.906487 350.88489 21.463913 349.60547 21.927734 L 345.4082 23.40625 C 343.80968 22.701342 342.19272 21.963596 340.54492 21.171875 C 344.76598 21.382081 348.87213 20.997966 352.90039 20.316406 z M 334.34961 20.427734 C 334.92686 20.542126 335.4977 20.618347 336.07031 20.707031 C 336.64509 21.071034 337.22525 21.424328 337.80273 21.783203 L 335.57422 21.205078 C 334.89995 21.115758 334.22361 21.058803 333.54688 21.013672 C 333.81466 20.818527 334.08643 20.633744 334.34961 20.427734 z M 356.66016 22.371094 C 357.05423 22.345554 357.45028 22.34439 357.8457 22.375 C 358.27304 22.40888 358.70092 22.467402 359.12305 22.542969 L 361.89453 23.53125 C 358.7196 23.60927 355.68778 24.370084 352.68359 25.490234 C 351.61807 25.312678 350.55957 25.080856 349.51172 24.826172 L 348.75391 24.626953 L 353.16016 23.072266 C 354.30536 22.745896 355.47791 22.447554 356.66016 22.371094 z M 331.20312 22.470703 C 334.12426 22.602163 337.00591 23.308091 339.83789 24.066406 L 341.80273 24.625 C 339.18137 25.135727 336.47297 25.116716 333.8125 24.830078 C 331.29925 24.558541 328.81937 24.048872 326.36133 23.451172 C 326.86185 23.444372 327.3622 23.437367 327.8457 23.404297 C 329.06147 23.321147 330.16512 22.975093 331.20312 22.470703 z M 313.58789 22.808594 C 314.47046 22.806194 315.38416 22.850131 316.30078 22.900391 L 310.32031 24.068359 C 309.40686 23.932417 308.4917 23.80953 307.57617 23.6875 C 309.34842 23.03633 311.3982 22.814658 313.58789 22.808594 z M 321.15039 23.449219 L 328.33594 25.613281 C 331.64263 26.392401 335.02007 27.08011 338.41797 27.025391 C 340.57754 26.992841 342.68566 26.491343 344.77344 25.896484 C 345.78888 26.459469 346.80439 27.0206 347.82812 27.548828 C 346.89857 27.98003 345.95006 28.443825 345.00977 28.898438 C 343.95718 29.074247 342.98956 29.376248 342.07812 29.769531 C 332.56558 28.267188 323.06359 26.129389 313.46484 24.556641 L 316.88086 24.15625 C 318.30623 23.94779 319.72765 23.694157 321.15039 23.449219 z M 307.46289 23.726562 C 308.32373 23.854322 309.18441 23.98104 310.04297 24.121094 L 309.92773 24.144531 C 308.67765 24.319794 307.41731 24.353807 306.1543 24.345703 C 306.5702 24.108267 307.00587 23.900457 307.46289 23.726562 z M 383.16016 23.917969 L 382.72852 24.144531 C 381.0426 24.780335 379.20555 25.197857 377.36328 25.296875 C 377.15482 25.278635 376.94739 25.251966 376.73633 25.228516 L 383.16016 23.917969 z M 312.94922 24.617188 C 322.42045 26.296857 331.77581 28.541726 341.14844 30.210938 C 340.05843 30.769271 339.03617 31.440236 338.02344 32.144531 C 337.85589 32.216191 337.68787 32.286806 337.51953 32.357422 C 330.60403 30.956776 323.48343 30.203221 315.96289 31.693359 C 314.019 30.171601 311.97289 28.886823 309.46094 28.714844 C 307.25911 28.564049 304.85637 28.726584 302.43555 28.914062 C 303.00298 27.361201 303.81392 26.186548 304.81445 25.302734 L 306.43359 25.380859 L 312.94922 24.617188 z M 294.89258 24.820312 L 303.55859 25.240234 C 302.86778 26.231141 302.34896 27.451558 302.0332 28.941406 C 295.71206 29.439076 289.30145 30.075085 285.80664 26.205078 C 286.25926 26.077397 286.71152 25.947107 287.16797 25.835938 C 289.69816 25.223584 292.29204 24.843764 294.89258 24.820312 z M 361.12695 24.912109 C 362.30134 24.921209 363.43467 25.02994 364.54102 25.210938 C 361.74263 25.63033 358.91174 25.834745 356.08203 25.8125 C 355.62873 25.8089 355.17634 25.776764 354.72461 25.740234 C 356.99641 25.157971 359.11945 24.896417 361.12695 24.912109 z M 369.51953 26.683594 C 370.01986 26.905082 370.52832 27.109918 371.04688 27.287109 C 371.18707 27.335729 371.33114 27.374167 371.47266 27.419922 C 372.52424 27.909743 373.56409 28.469766 374.59961 29.060547 C 372.43457 29.063147 370.86622 29.805825 369.43555 30.980469 C 365.66251 30.318215 361.95073 29.413882 358.21289 28.257812 C 359.51305 28.292883 360.81468 28.277095 362.11133 28.171875 L 369.51953 26.683594 z M 348.6582 27.970703 C 349.73073 28.511948 350.80924 29.017324 351.89062 29.511719 C 350.12658 28.981764 348.56351 28.744076 347.15625 28.734375 C 347.65324 28.475181 348.14992 28.214979 348.6582 27.970703 z M 379.11133 28.140625 C 379.85134 28.195345 380.59588 28.231761 381.33594 28.25 C 381.90152 28.26381 382.46551 28.237503 383.02734 28.189453 C 382.40769 28.496609 381.73283 28.861625 381.01758 29.271484 C 380.28687 29.458342 379.55784 29.638857 378.82812 29.800781 C 378.76162 29.780191 378.69261 29.755948 378.62695 29.736328 C 377.92561 29.208705 377.23534 28.72348 376.55469 28.271484 C 377.40628 28.273984 378.26324 28.233546 379.11133 28.140625 z M 387.29883 30.193359 C 388.38642 30.120059 389.25139 30.364297 390.18555 30.84375 C 389.03373 31.355217 387.88184 31.859949 386.73242 32.359375 C 386.12981 32.364375 385.53414 32.360244 384.93945 32.355469 C 384.63499 32.205873 384.34687 32.062625 384.02344 31.904297 C 383.70033 31.745346 383.3843 31.598394 383.07422 31.455078 C 384.90085 30.659021 386.21127 30.266646 387.29883 30.193359 z M 376.17188 31.503906 C 376.41343 31.558676 376.65818 31.606133 376.89648 31.669922 L 376.45703 31.927734 C 375.86349 31.871684 375.27002 31.816057 374.68164 31.748047 C 375.17752 31.678837 375.67593 31.58398 376.17188 31.503906 z M 348.68359 31.658203 C 354.1933 31.546495 359.17361 34.495395 364.88281 35.644531 C 364.28088 36.267306 363.63325 36.902611 362.91406 37.533203 C 355.9984 36.991207 349.13253 35.022494 342.09961 33.365234 C 343.37901 32.729433 344.7419 32.205259 346.28711 31.908203 C 347.09945 31.753161 347.89648 31.67415 348.68359 31.658203 z M 276.50391 31.826172 C 276.50391 31.826172 276.49909 31.832031 276.49609 31.832031 C 278.94109 35.490373 281.30602 37.910496 283.71484 39.427734 L 285.82812 39.427734 C 285.59037 39.339001 285.35455 39.243196 285.12109 39.136719 C 281.26197 37.377837 278.83084 35.156321 276.50391 31.826172 z M 360.76953 32.888672 C 362.56742 33.429281 364.37088 33.8928 366.17773 34.269531 C 366.16213 34.287251 366.14696 34.302672 366.13086 34.320312 C 364.31431 34.072741 362.54689 33.53833 360.76953 32.888672 z M 319.81641 33.146484 C 320.48447 33.145835 321.14544 33.155195 321.80078 33.171875 C 320.5709 33.231805 319.3614 33.341691 318.17578 33.498047 C 318.0481 33.391211 317.91677 33.284582 317.78906 33.177734 C 318.47177 33.158194 319.14834 33.147134 319.81641 33.146484 z M 322.92188 35.074219 C 324.40103 35.080519 325.96852 35.199399 327.61523 35.398438 C 326.37549 35.622324 325.11429 35.807739 323.80469 35.900391 C 322.9364 35.961421 322.50605 35.997103 321.76953 36.050781 C 321.27725 35.781641 320.79812 35.47989 320.33008 35.154297 C 321.1763 35.097617 322.03776 35.070419 322.92188 35.074219 z M 374.06055 35.439453 C 375.4793 35.571044 376.9002 35.675117 378.32227 35.730469 C 374.0493 37.226084 369.85264 37.751754 365.68359 37.671875 C 366.19432 37.122064 366.69957 36.553072 367.19727 35.998047 C 369.3478 36.211771 371.61547 36.101911 374.06055 35.439453 z M 330.68945 35.871094 C 331.03865 35.935354 331.36351 35.977794 331.72266 36.050781 C 330.29731 36.668344 328.72181 37.114501 326.90039 37.25 C 325.28907 37.370932 323.86827 37.041228 322.56055 36.449219 C 324.92514 36.323153 327.41543 36.176715 329.43945 36.025391 C 329.8671 35.993441 330.27571 35.92694 330.68945 35.871094 z "
   id="path2" />

</svg>