<?xml version="1.0" encoding="UTF-8" standalone="no"?>
<!-- Generator: Adobe Illustrator 16.0.0, SVG Export Plug-In . SVG Version: 6.00 Build 0)  -->

<svg
   xmlns:dc="http://purl.org/dc/elements/1.1/"
   xmlns:cc="http://creativecommons.org/ns#"
   xmlns:rdf="http://www.w3.org/1999/02/22-rdf-syntax-ns#"
   xmlns:svg="http://www.w3.org/2000/svg"
   xmlns="http://www.w3.org/2000/svg"
   xmlns:xlink="http://www.w3.org/1999/xlink"
   xmlns:sodipodi="http://sodipodi.sourceforge.net/DTD/sodipodi-0.dtd"
   xmlns:inkscape="http://www.inkscape.org/namespaces/inkscape"
   version="1.1"
   id="Fond"
   x="0px"
   y="0px"
   width="446.25"
   height="623.625"
   viewBox="0 0 446.25 623.62501"
   enable-background="new 0 0 178.58 249.45"
   xml:space="preserve"
   sodipodi:docname="ETS-Titre-Couleur1.svg"
   inkscape:version="0.92.0 r15299"><metadata
   id="metadata336"><rdf:RDF><cc:Work
       rdf:about=""><dc:format>image/svg+xml</dc:format><dc:type
         rdf:resource="http://purl.org/dc/dcmitype/StillImage" /><dc:title /></cc:Work></rdf:RDF></metadata><defs
   id="defs334">
	
	

		<defs
   id="defs5">
			<path
   id="SVGID_1_"
   d="M 8.812,18.73 V 13.154 C 8.4,11.707 7.095,10.261 7.084,10.249 6.896,10.063 6.887,9.764 7.061,9.565 l 0.875,-1 C 8.03,8.458 8.175,8.42 8.312,8.396 c 0.143,0 0.278,0.061 0.373,0.167 0.019,0.021 1.903,2.083 4.877,2.083 0.837,0 25.605,0.104 1.813,0.104 L 149.1,10.757 c 0.44,-0.075 1.062,-0.112 1.897,-0.112 2.975,0 4.859,-2.062 4.877,-2.083 0.097,-0.107 0.184,-0.181 0.377,-0.167 0.143,0.001 0.279,0.062 0.373,0.17 l 0.875,1 c 0.172,0.196 0.16,0.495 -0.021,0.681 -0.305,0.314 -1.855,2.21 -1.855,3.648 0,0.063 -0.015,0.123 -0.041,0.179 v 3.716 c 0.027,0.062 0.041,0.13 0.041,0.199 0,1.438 1.551,3.334 1.854,3.646 0.187,0.186 0.197,0.485 0.023,0.683 l -0.875,1 c -0.094,0.108 -0.23,0.169 -0.373,0.17 -0.186,-0.021 -0.28,-0.06 -0.377,-0.167 -0.018,-0.021 -1.902,-2.083 -4.877,-2.083 -0.359,0 -0.662,-0.008 -0.912,-0.021 H 14.498 c -0.273,0.013 -0.576,0.021 -0.936,0.021 -2.974,0 -4.858,2.062 -4.877,2.083 -0.095,0.106 -0.23,0.167 -0.373,0.167 -0.168,0.032 -0.282,-0.062 -0.376,-0.17 l -0.875,-1 C 6.889,22.121 6.901,21.822 7.082,21.635 7.095,21.624 8.399,20.177 8.812,18.73 Z"
   inkscape:connector-curvature="0" />
		</defs>
		<clipPath
   id="SVGID_2_">
			<use
   xlink:href="#SVGID_1_"
   overflow="visible"
   id="use7"
   style="overflow:visible"
   x="0"
   y="0"
   width="100%"
   height="100%" />
		</clipPath>
		
	</defs><sodipodi:namedview
   pagecolor="#ffffff"
   bordercolor="#666666"
   borderopacity="1"
   objecttolerance="10"
   gridtolerance="10"
   guidetolerance="10"
   inkscape:pageopacity="0"
   inkscape:pageshadow="2"
   inkscape:window-width="1280"
   inkscape:window-height="961"
   id="namedview332"
   showgrid="false"
   inkscape:zoom="9.0460349"
   inkscape:cx="73.957736"
   inkscape:cy="596.07181"
   inkscape:window-x="1272"
   inkscape:window-y="-8"
   inkscape:window-maximized="1"
   inkscape:current-layer="Fond" />
<path
   style="display:inline;fill:none;stroke:#000000;stroke-width:0.80000001;stroke-miterlimit:4;stroke-dasharray:none;stroke-opacity:1"
   inkscape:connector-curvature="0"
   id="path2"
   d="M 52.229987,32.950106 V 18.420439 c -1.073569,-3.770522 -4.474074,-7.538438 -4.502738,-7.569707 -0.489881,-0.48467 -0.513333,-1.2637892 -0.05993,-1.7823337 l 2.280032,-2.605751 c 0.247547,-0.2840268 0.622775,-0.3804396 0.979763,-0.4429777 0.372622,0 0.724398,0.1589509 0.971945,0.4351605 0.04951,0.054721 4.958744,5.4277789 12.708247,5.4277789 110.933094,0.673804 218.511934,0.488348 320.283274,3e-6 7.75211,0 12.66135,-5.3730582 12.70825,-5.4277789 0.25276,-0.2788154 0.47946,-0.471641 0.98237,-0.4351605 0.37262,0.00261 0.727,0.1615566 0.97194,0.4429777 l 2.28004,2.605751 c 0.44818,0.5107272 0.41692,1.2898467 -0.0547,1.7745167 -0.79475,0.818206 -4.83366,5.758709 -4.83366,9.505779 0,0.164163 -0.0391,0.320508 -0.10684,0.46643 v 9.682971 c 0.0704,0.161556 0.10684,0.338747 0.10684,0.518544 0,3.74707 4.04152,8.687574 4.83106,9.500568 0.48727,0.48467 0.51333,1.263789 0.0599,1.779728 l -2.28003,2.605751 c -0.24494,0.281421 -0.59932,0.440372 -0.97195,0.442978 -0.48467,-0.05472 -0.72961,-0.156345 -0.98236,-0.435161 -0.0469,-0.05472 -4.95614,-5.427779 -12.70825,-5.427779 -0.93547,0 -1.72501,-0.02085 -2.37645,-0.05472 H 67.048893 c -0.71137,0.03388 -1.500913,0.05472 -2.438983,0.05472 -7.749503,0 -12.658738,5.373059 -12.708248,5.427779 -0.247546,0.27621 -0.599322,0.435161 -0.971945,0.435161 -0.437766,0.08338 -0.734821,-0.161557 -0.979762,-0.442978 l -2.280032,-2.605751 c -0.448189,-0.510727 -0.41692,-1.289847 0.05472,-1.777122 0.03387,-0.02866 3.431774,-3.799185 4.505343,-7.569707 z"
   sodipodi:nodetypes="ccccccccccccccsccscccccsccsccccccc" />

</svg>