<?xml version="1.0" encoding="UTF-8" standalone="no"?>
<!-- Generator: Adobe Illustrator 16.0.0, SVG Export Plug-In . SVG Version: 6.00 Build 0)  -->

<svg
   xmlns:dc="http://purl.org/dc/elements/1.1/"
   xmlns:cc="http://creativecommons.org/ns#"
   xmlns:rdf="http://www.w3.org/1999/02/22-rdf-syntax-ns#"
   xmlns:svg="http://www.w3.org/2000/svg"
   xmlns="http://www.w3.org/2000/svg"
   xmlns:xlink="http://www.w3.org/1999/xlink"
   xmlns:sodipodi="http://sodipodi.sourceforge.net/DTD/sodipodi-0.dtd"
   xmlns:inkscape="http://www.inkscape.org/namespaces/inkscape"
   version="1.1"
   id="Fond"
   x="0px"
   y="0px"
   width="446.25"
   height="623.625"
   viewBox="0 0 446.25 623.62501"
   enable-background="new 0 0 178.58 249.45"
   xml:space="preserve"
   sodipodi:docname="ETS-Type2-Libelles.svg"
   inkscape:version="0.92.0 r15299"><metadata
   id="metadata336"><rdf:RDF><cc:Work
       rdf:about=""><dc:format>image/svg+xml</dc:format><dc:type
         rdf:resource="http://purl.org/dc/dcmitype/StillImage" /><dc:title /></cc:Work></rdf:RDF></metadata><defs
   id="defs334">
	
	

	
	
	

		
		
		
		
		
			

		
			

		

		

	
		
		
		
		
			

		
			

		

		

	
		
		
		
		
			

		
			

		

		

	<clipPath
   id="SVGID_5_"><use
     xlink:href="#SVGID_4_"
     overflow="visible"
     id="use37"
     style="overflow:visible"
     x="0"
     y="0"
     width="100%"
     height="100%" /></clipPath><linearGradient
   id="SVGID_6_"
   gradientUnits="userSpaceOnUse"
   x1="4.6259999"
   y1="187.332"
   x2="35.375999"
   y2="187.332"
   gradientTransform="matrix(-1,0,0,1,178.21,0)"><stop
     offset="0.2832"
     style="stop-color:#560F19"
     id="stop40" /><stop
     offset="1"
     style="stop-color:#BE0A26"
     id="stop42" /></linearGradient><clipPath
   id="SVGID_8_"><use
     xlink:href="#SVGID_7_"
     overflow="visible"
     id="use195"
     style="overflow:visible"
     x="0"
     y="0"
     width="100%"
     height="100%" /></clipPath><linearGradient
   id="SVGID_9_"
   gradientUnits="userSpaceOnUse"
   x1="19.250999"
   y1="93.761703"
   x2="50.000999"
   y2="93.761703"
   gradientTransform="matrix(-1,0,0,1,178.21,0)"><stop
     offset="0.2832"
     style="stop-color:#560F19"
     id="stop198" /><stop
     offset="1"
     style="stop-color:#BE0A26"
     id="stop200" /></linearGradient><clipPath
   id="SVGID_11_"><use
     xlink:href="#SVGID_10_"
     overflow="visible"
     id="use251"
     style="overflow:visible"
     x="0"
     y="0"
     width="100%"
     height="100%" /></clipPath><linearGradient
   id="SVGID_12_"
   gradientUnits="userSpaceOnUse"
   x1="5.21"
   y1="39.419899"
   x2="36.042"
   y2="39.419899"
   gradientTransform="matrix(-1,0,0,1,178.21,0)"><stop
     offset="0.2832"
     style="stop-color:#560F19"
     id="stop254" /><stop
     offset="1"
     style="stop-color:#BE0A26"
     id="stop256" /></linearGradient><path
   id="SVGID_4_"
   d="M 169.75,238.095 V 137.327 c 0.411,-1.443 1.717,-2.894 1.729,-2.905 0.187,-0.186 0.196,-0.484 0.022,-0.683 l -0.875,-1 c -0.095,-0.108 -0.239,-0.196 -0.376,-0.171 -0.143,0 -0.278,0.061 -0.373,0.167 -0.019,0.021 -1.903,2.083 -4.877,2.083 -0.841,0 -1.462,0.037 -1.813,0.104 l -148.08,0.007 c -0.438,-0.074 -1.059,-0.111 -1.898,-0.111 -2.974,0 -4.858,-2.062 -4.877,-2.083 -0.095,-0.106 -0.23,-0.167 -0.373,-0.167 -10e-4,0 -0.002,0 -0.003,0 -0.143,0.002 -0.279,0.062 -0.374,0.171 l -0.875,1 c -0.171,0.196 -0.16,0.495 0.021,0.681 0.305,0.314 1.855,2.211 1.855,3.648 0,0.062 0.015,0.123 0.042,0.18 v 98.906 c -0.027,0.062 -0.042,0.13 -0.042,0.199 0,1.438 -1.55,3.334 -1.854,3.646 -0.186,0.187 -0.196,0.484 -0.023,0.683 l 0.875,1 c 0.095,0.108 0.251,0.182 0.377,0.171 0.142,0 0.277,-0.062 0.373,-0.167 0.019,-0.021 1.903,-2.083 4.877,-2.083 0.359,0 0.662,-0.009 0.913,-0.021 h 149.944 c 0.273,0.012 0.575,0.021 0.935,0.021 2.974,0 4.858,2.062 4.877,2.083 0.095,0.105 0.23,0.167 0.373,0.167 0.168,-0.013 0.282,-0.062 0.376,-0.171 l 0.875,-1 c 0.172,-0.195 0.16,-0.494 -0.021,-0.681 -0.013,-0.013 -1.319,-1.463 -1.73,-2.906 z m -160,-95.402 c 0,-1.93 1.57,-3.5 3.5,-3.5 H 165 c 1.93,0 3.5,1.57 3.5,3.5 v 93.14 c 0,1.93 -1.57,3.5 -3.5,3.5 H 13.25 c -1.93,0 -3.5,-1.57 -3.5,-3.5 z"
   inkscape:connector-curvature="0" /><path
   id="SVGID_7_"
   d="m 157.584,57.134 -0.875,-1 c -0.094,-0.108 -0.23,-0.17 -0.374,-0.171 -0.001,0 -0.001,0 -0.002,0 -0.143,0 -0.278,0.061 -0.374,0.168 -0.019,0.021 -1.885,2.082 -4.876,2.082 -0.838,0 -1.458,0.037 -1.813,0.104 L 15.106,58.325 C 14.666,58.25 14.044,58.213 13.208,58.213 10.234,58.213 8.35,56.151 8.331,56.13 8.236,56.024 8.1,55.963 7.958,55.963 7.852,55.975 7.676,56.025 7.581,56.133 l -0.875,1 c -0.171,0.196 -0.16,0.495 0.021,0.681 0.305,0.314 1.855,2.21 1.855,3.648 0,0.062 0.015,0.122 0.041,0.178 l -0.25,65.385 c 0,2.757 2.243,5.001 5,5.001 h 137.5 c 2.757,0 5,-2.244 5,-5.001 l -0.042,-66.304 c 0.412,-1.446 1.717,-2.893 1.728,-2.904 0.189,-0.185 0.199,-0.484 0.025,-0.683 z m -6.459,73.684 h -138 c -1.93,0 -3.5,-1.57 -3.5,-3.5 V 66.943 c 0,-1.93 1.57,-3.5 3.5,-3.5 h 138 c 1.93,0 3.5,1.57 3.5,3.5 v 60.375 c 0,1.93 -1.57,3.5 -3.5,3.5 z"
   inkscape:connector-curvature="0" /><path
   id="SVGID_10_"
   d="m 171.543,25.691 -0.875,-1 c -0.094,-0.108 -0.23,-0.17 -0.374,-0.171 -0.001,0 -0.001,0 -0.002,0 -0.143,0 -0.278,0.061 -0.374,0.168 -0.019,0.021 -1.885,2.082 -4.876,2.082 -0.838,0 -1.458,0.037 -1.813,0.104 L 15.106,26.882 C 14.666,26.807 14.044,26.77 13.208,26.77 10.234,26.77 8.35,24.708 8.331,24.687 8.236,24.581 8.1,24.52 7.958,24.52 7.852,24.532 7.676,24.582 7.581,24.69 l -0.875,1 c -0.171,0.196 -0.16,0.495 0.021,0.681 0.305,0.314 1.855,2.21 1.855,3.648 0,0.062 0.015,0.122 0.041,0.178 l -0.25,20.01 c 0,2.757 2.243,5 5,5 h 151.459 c 2.757,0 5,-2.243 5,-5 L 169.79,29.278 c 0.412,-1.446 1.717,-2.893 1.728,-2.904 0.189,-0.185 0.199,-0.484 0.025,-0.683 z M 165.084,54 H 13.125 c -1.93,0 -3.5,-1.57 -3.5,-3.5 v -15 c 0,-1.93 1.57,-3.5 3.5,-3.5 h 151.959 c 1.93,0 3.5,1.57 3.5,3.5 v 15 c 0,1.93 -1.57,3.5 -3.5,3.5 z"
   inkscape:connector-curvature="0" /></defs><sodipodi:namedview
   pagecolor="#ffffff"
   bordercolor="#666666"
   borderopacity="1"
   objecttolerance="10"
   gridtolerance="10"
   guidetolerance="10"
   inkscape:pageopacity="0"
   inkscape:pageshadow="2"
   inkscape:window-width="1280"
   inkscape:window-height="961"
   id="namedview332"
   showgrid="false"
   inkscape:zoom="1.1307544"
   inkscape:cx="-13.671261"
   inkscape:cy="482.25977"
   inkscape:window-x="1272"
   inkscape:window-y="-8"
   inkscape:window-maximized="1"
   inkscape:current-layer="Fond" />

<path
   style="font-style:normal;font-variant:normal;font-weight:bold;font-stretch:normal;font-size:23.30654526px;font-family:Lora;-inkscape-font-specification:'Lora Bold';fill:#94ffff;fill-opacity:1;stroke-width:2.91331816"
   d="M 21.849609 51.894531 L 21.849609 53.900391 L 23.412109 53.822266 C 23.384319 54.117584 23.357868 54.899837 23.330078 56.167969 L 23.205078 66.146484 C 23.205078 66.82398 23.148288 67.320122 23.037109 67.632812 C 22.925931 67.945504 22.774641 68.153582 22.580078 68.257812 C 22.385515 68.344673 22.099838 68.396692 21.724609 68.414062 L 21.724609 70.134766 L 26.476562 70.134766 L 26.476562 68.126953 C 25.878978 68.126953 25.35119 68.152958 24.892578 68.205078 C 24.962068 67.718671 24.998047 66.938372 24.998047 65.861328 L 25.017578 61.144531 L 25.017578 60.257812 C 25.017578 58.954937 24.996768 57.514416 24.955078 55.933594 L 24.976562 55.933594 C 25.171125 57.062753 25.4076 58.173163 25.685547 59.267578 C 25.977391 60.361994 26.227087 61.214257 26.435547 61.822266 L 29.25 70.394531 L 31.189453 70.394531 L 35.462891 56.115234 L 35.482422 56.115234 C 35.496322 56.775358 35.537932 57.947761 35.607422 59.632812 L 35.650391 60.623047 L 35.816406 66.146484 C 35.830306 66.82398 35.781096 67.320122 35.669922 67.632812 C 35.558743 67.945504 35.399866 68.153582 35.191406 68.257812 C 34.996844 68.344673 34.711165 68.396692 34.335938 68.414062 L 34.335938 70.134766 L 40.130859 70.134766 L 40.130859 68.126953 C 39.533274 68.126953 39.005487 68.152958 38.546875 68.205078 C 38.644155 67.527583 38.672555 66.747283 38.630859 65.861328 L 38.318359 55.880859 C 38.304459 55.203364 38.351709 54.707221 38.462891 54.394531 C 38.574069 54.081841 38.734899 53.883733 38.943359 53.796875 C 39.151819 53.692645 39.443131 53.630653 39.818359 53.613281 L 39.818359 51.894531 L 35.003906 51.894531 L 31.771484 62.65625 C 31.618614 63.160029 31.446516 63.76823 31.251953 64.480469 C 31.001801 65.383796 30.848558 65.921986 30.792969 66.095703 L 30.771484 66.095703 C 30.674204 65.661411 30.507739 65.035219 30.271484 64.21875 C 30.03523 63.402281 29.811976 62.656011 29.603516 61.978516 L 26.457031 51.894531 L 21.849609 51.894531 z M 43.726562 56.771484 C 43.105908 56.771484 42.534112 56.890698 42.009766 57.126953 C 41.49612 57.349311 41.08869 57.669017 40.789062 58.085938 C 40.489436 58.502857 40.339844 58.98144 40.339844 59.523438 C 40.339844 59.926459 40.431364 60.266975 40.613281 60.544922 C 40.795197 60.808971 41.046159 60.941406 41.367188 60.941406 C 41.709618 60.941406 41.967457 60.808971 42.138672 60.544922 C 42.320588 60.280872 42.410156 59.981974 42.410156 59.648438 C 42.410156 59.314901 42.347156 59.051985 42.21875 58.857422 C 42.518377 58.468296 42.902205 58.273437 43.373047 58.273438 C 44.100712 58.273438 44.464844 58.905264 44.464844 60.169922 L 44.464844 61.253906 C 43.234234 61.323396 42.180212 61.677129 41.302734 62.316406 C 40.425256 62.941786 39.986328 63.866878 39.986328 65.089844 C 39.986328 65.895889 40.179219 66.561745 40.564453 67.089844 C 40.960388 67.604045 41.495762 67.861328 42.169922 67.861328 C 43.100905 67.861328 43.892164 67.431949 44.544922 66.570312 L 44.560547 66.570312 C 44.581947 67.028925 44.6036 67.348631 44.625 67.529297 L 47.660156 67.529297 L 47.660156 65.943359 C 47.317726 65.943359 46.968366 65.964169 46.615234 66.005859 C 46.658034 65.449966 46.679688 64.838947 46.679688 64.171875 L 46.697266 60.753906 C 46.697266 58.099515 45.706239 56.771484 43.726562 56.771484 z M 54.119141 56.771484 C 53.305868 56.771484 52.536258 57.410898 51.808594 58.689453 L 51.775391 58.689453 C 51.775391 58.369814 51.770496 58.042521 51.759766 57.708984 C 51.749066 57.375448 51.732337 57.104944 51.710938 56.896484 L 50.925781 56.896484 C 50.786669 57.063252 50.507181 57.208908 50.089844 57.333984 C 49.672507 57.45906 49.127285 57.521484 48.453125 57.521484 L 48.453125 59.107422 L 49.576172 59.044922 C 49.533372 59.600815 49.511719 60.191026 49.511719 60.816406 L 49.511719 64.318359 C 49.511719 64.971534 49.453648 65.444484 49.335938 65.736328 C 49.228927 66.028172 48.971089 66.173828 48.564453 66.173828 L 48.564453 67.529297 L 52.771484 67.529297 L 52.771484 65.943359 C 52.418353 65.943359 52.068993 65.964169 51.726562 66.005859 C 51.769362 65.449966 51.791016 64.838947 51.791016 64.171875 L 51.791016 60.773438 C 51.898025 60.328722 52.107641 59.884168 52.417969 59.439453 C 52.738997 58.980841 53.049983 58.751953 53.349609 58.751953 C 53.381709 59.196668 53.497854 59.508788 53.701172 59.689453 C 53.915191 59.870119 54.156304 59.960938 54.423828 59.960938 C 54.78766 59.960938 55.060271 59.807695 55.242188 59.501953 C 55.424104 59.196212 55.515625 58.863284 55.515625 58.501953 C 55.515625 57.932162 55.382758 57.500828 55.115234 57.208984 C 54.858412 56.91714 54.525777 56.771484 54.119141 56.771484 z M 60.021484 56.771484 C 59.229614 56.771484 58.527923 57.02118 57.917969 57.521484 C 57.308015 58.021789 56.837589 58.717992 56.505859 59.607422 C 56.17413 60.482954 56.007813 61.476104 56.007812 62.587891 C 56.007812 63.644088 56.140679 64.574814 56.408203 65.380859 C 56.686428 66.173008 57.067285 66.784026 57.548828 67.214844 C 58.041072 67.645661 58.607943 67.861328 59.25 67.861328 C 60.084674 67.861328 60.808015 67.473563 61.417969 66.695312 L 61.433594 66.695312 L 61.417969 69.634766 C 61.417969 70.287941 61.357949 70.758937 61.240234 71.050781 C 61.133225 71.342625 60.877339 71.488281 60.470703 71.488281 L 60.470703 72.84375 L 64.675781 72.84375 L 64.675781 71.259766 C 64.32265 71.259766 63.975243 71.280576 63.632812 71.322266 C 63.675612 70.766372 63.697266 70.155354 63.697266 69.488281 L 63.697266 56.896484 L 62.830078 56.896484 C 62.765868 56.993764 62.674351 57.076998 62.556641 57.146484 C 62.449631 57.202074 62.353186 57.230469 62.267578 57.230469 C 62.160569 57.230469 61.967678 57.181269 61.689453 57.083984 C 61.389827 56.986704 61.117216 56.911058 60.871094 56.855469 C 60.624972 56.799879 60.342513 56.771484 60.021484 56.771484 z M 79.097656 56.771484 C 78.316487 56.771484 77.61972 57.028767 77.009766 57.542969 C 76.399811 58.05717 75.924462 58.745787 75.582031 59.607422 C 75.250302 60.45516 75.083984 61.365077 75.083984 62.337891 C 75.083984 63.449678 75.250302 64.422019 75.582031 65.255859 C 75.913761 66.0897 76.379262 66.7367 76.978516 67.195312 C 77.577769 67.640028 78.267659 67.861328 79.048828 67.861328 C 80.632569 67.861328 81.879482 67.013835 82.789062 65.318359 L 82.066406 64.443359 C 81.723976 64.985356 81.338194 65.380707 80.910156 65.630859 C 80.482118 65.881011 80.081565 66.005859 79.707031 66.005859 C 78.915161 66.005859 78.336489 65.652124 77.972656 64.943359 C 77.619525 64.234595 77.443359 63.269841 77.443359 62.046875 L 82.708984 61.919922 C 82.719684 60.071576 82.377202 58.753085 81.681641 57.960938 C 80.99678 57.168788 80.135648 56.771484 79.097656 56.771484 z M 99.326172 56.771484 C 98.5129 56.771484 97.74329 57.410898 97.015625 58.689453 L 96.982422 58.689453 C 96.982422 58.369814 96.977527 58.042521 96.966797 57.708984 C 96.956097 57.375448 96.939369 57.104944 96.917969 56.896484 L 96.132812 56.896484 C 95.993701 57.063252 95.714212 57.208908 95.296875 57.333984 C 94.879538 57.45906 94.334316 57.521484 93.660156 57.521484 L 93.660156 59.107422 L 94.783203 59.044922 C 94.740403 59.600815 94.71875 60.191026 94.71875 60.816406 L 94.71875 64.318359 C 94.71875 64.971534 94.66068 65.444484 94.542969 65.736328 C 94.435959 66.028172 94.180074 66.173828 93.773438 66.173828 L 93.773438 67.529297 L 97.978516 67.529297 L 97.978516 65.943359 C 97.625384 65.943359 97.277977 65.964169 96.935547 66.005859 C 96.978347 65.449966 96.998047 64.838947 96.998047 64.171875 L 96.998047 60.773438 C 97.105056 60.328722 97.314672 59.884168 97.625 59.439453 C 97.946029 58.980841 98.257014 58.751953 98.556641 58.751953 C 98.588741 59.196668 98.704885 59.508788 98.908203 59.689453 C 99.122222 59.870119 99.363336 59.960938 99.630859 59.960938 C 99.994692 59.960938 100.2673 59.807695 100.44922 59.501953 C 100.63113 59.196212 100.72266 58.863284 100.72266 58.501953 C 100.72266 57.932162 100.58979 57.500828 100.32227 57.208984 C 100.06544 56.91714 99.732807 56.771484 99.326172 56.771484 z M 104.4082 56.771484 C 103.74474 56.771484 103.1828 56.937948 102.72266 57.271484 C 102.27322 57.591123 101.93566 58.009236 101.71094 58.523438 C 101.49692 59.023741 101.39063 59.559115 101.39062 60.128906 C 101.39064 60.823773 101.52349 61.393176 101.79102 61.837891 C 102.06924 62.268708 102.38023 62.594049 102.72266 62.816406 C 103.06509 63.038764 103.57881 63.324442 104.26367 63.671875 C 104.84152 63.963719 105.2273 64.166165 105.41992 64.277344 C 105.61254 64.388522 105.7769 64.526591 105.91602 64.693359 C 106.05513 64.860127 106.125 65.068207 106.125 65.318359 C 106.125 65.651896 106.01378 65.909178 105.78906 66.089844 C 105.57504 66.270509 105.3172 66.361328 105.01758 66.361328 C 104.34342 66.361328 103.77162 66.145661 103.30078 65.714844 C 102.84064 65.270129 102.5828 64.727168 102.5293 64.087891 L 101.48633 64.087891 L 101.55078 67.673828 L 102.77148 67.673828 L 102.72266 67.048828 L 102.73828 67.048828 C 102.9844 67.285083 103.3269 67.479942 103.76562 67.632812 C 104.20436 67.785684 104.65314 67.861328 105.11328 67.861328 C 105.62693 67.861328 106.10423 67.744067 106.54297 67.507812 C 106.99241 67.257661 107.34966 66.896338 107.61719 66.423828 C 107.89541 65.937421 108.03516 65.347211 108.03516 64.652344 C 108.03516 63.749017 107.78912 63.018784 107.29688 62.462891 C 106.81533 61.906997 106.12052 61.420826 105.21094 61.003906 C 104.99692 60.906626 104.85717 60.849835 104.79297 60.835938 C 104.23652 60.599683 103.84089 60.391602 103.60547 60.210938 C 103.37005 60.016374 103.25195 59.725062 103.25195 59.335938 C 103.25195 58.960709 103.35332 58.682619 103.55664 58.501953 C 103.75996 58.321288 104.01092 58.230469 104.31055 58.230469 C 104.8884 58.230469 105.37555 58.440502 105.77148 58.857422 C 106.16742 59.274342 106.41346 59.843745 106.50977 60.566406 L 107.55469 60.566406 L 107.55469 56.876953 L 106.33398 56.876953 L 106.34961 57.480469 L 106.33398 57.480469 C 106.08786 57.258111 105.78375 57.08406 105.41992 56.958984 C 105.05609 56.833908 104.71853 56.771484 104.4082 56.771484 z M 67.392578 56.896484 C 67.253466 57.063252 66.975931 57.208908 66.558594 57.333984 C 66.141257 57.45906 65.594082 57.521484 64.919922 57.521484 L 64.919922 59.107422 L 66.044922 59.044922 C 66.012822 59.670302 65.996094 60.273734 65.996094 60.857422 L 65.996094 63.255859 C 65.996094 64.881848 66.198833 66.054682 66.605469 66.777344 C 67.022806 67.500005 67.707772 67.861328 68.660156 67.861328 C 69.120297 67.861328 69.532652 67.73648 69.896484 67.486328 C 70.271018 67.236176 70.656799 66.890028 71.052734 66.445312 L 71.068359 66.445312 L 71.164062 67.529297 L 74.214844 67.529297 L 74.214844 65.943359 C 73.861712 65.943359 73.514305 65.964169 73.171875 66.005859 C 73.214675 65.449966 73.234375 64.838947 73.234375 64.171875 L 73.234375 56.896484 L 72.351562 56.896484 C 72.212451 57.063252 71.934915 57.208908 71.517578 57.333984 C 71.110942 57.45906 70.570644 57.521484 69.896484 57.521484 L 69.896484 59.107422 L 71.019531 59.044922 C 70.976731 59.600815 70.955078 60.204247 70.955078 60.857422 L 70.955078 64.943359 C 70.762461 65.221306 70.523301 65.457781 70.234375 65.652344 C 69.95615 65.846906 69.681586 65.943359 69.414062 65.943359 C 69.018128 65.943359 68.730744 65.729646 68.548828 65.298828 C 68.366912 64.868011 68.275391 64.192615 68.275391 63.275391 L 68.275391 56.896484 L 67.392578 56.896484 z M 85.919922 56.896484 C 85.78081 57.063252 85.503275 57.208908 85.085938 57.333984 C 84.668599 57.45906 84.123379 57.521484 83.449219 57.521484 L 83.449219 59.107422 L 84.572266 59.044922 C 84.540166 59.670302 84.523438 60.273734 84.523438 60.857422 L 84.523438 63.255859 C 84.523438 64.881848 84.728129 66.054682 85.134766 66.777344 C 85.552103 67.500005 86.237069 67.861328 87.189453 67.861328 C 87.649594 67.861328 88.059996 67.73648 88.423828 67.486328 C 88.798361 67.236176 89.184143 66.890028 89.580078 66.445312 L 89.595703 66.445312 L 89.693359 67.529297 L 92.742188 67.529297 L 92.742188 65.943359 C 92.389055 65.943359 92.041649 65.964169 91.699219 66.005859 C 91.742019 65.449966 91.763672 64.838947 91.763672 64.171875 L 91.763672 56.896484 L 90.880859 56.896484 C 90.741747 57.063252 90.462259 57.208908 90.044922 57.333984 C 89.638286 57.45906 89.097988 57.521484 88.423828 57.521484 L 88.423828 59.107422 L 89.548828 59.044922 C 89.506028 59.600815 89.484375 60.204247 89.484375 60.857422 L 89.484375 64.943359 C 89.291758 65.221306 89.050644 65.457781 88.761719 65.652344 C 88.483494 65.846906 88.210883 65.943359 87.943359 65.943359 C 87.547424 65.943359 87.258088 65.729646 87.076172 65.298828 C 86.894256 64.868011 86.802734 64.192615 86.802734 63.275391 L 86.802734 56.896484 L 85.919922 56.896484 z M 79.177734 58.230469 C 80.023109 58.230469 80.462038 59.015538 80.494141 60.585938 L 77.539062 60.585938 C 77.624673 59.863276 77.80279 59.293873 78.070312 58.876953 C 78.348538 58.446136 78.717593 58.230469 79.177734 58.230469 z M 60.181641 58.292969 C 60.524071 58.292969 60.811454 58.425404 61.046875 58.689453 C 61.292997 58.953503 61.417969 59.434039 61.417969 60.128906 L 61.417969 65.005859 C 61.278856 65.297703 61.085966 65.534178 60.839844 65.714844 C 60.604423 65.895509 60.351508 65.986328 60.083984 65.986328 C 59.495432 65.986328 59.063381 65.59661 58.785156 64.818359 C 58.506932 64.040108 58.367188 63.122604 58.367188 62.066406 C 58.367188 60.996311 58.511856 60.107202 58.800781 59.398438 C 59.089707 58.675776 59.550285 58.306866 60.181641 58.292969 z M 44.449219 62.734375 L 44.449219 65.068359 C 44.085386 65.568664 43.663183 65.818359 43.181641 65.818359 C 42.924818 65.818359 42.705354 65.729499 42.523438 65.548828 C 42.352221 65.368163 42.265625 65.090072 42.265625 64.714844 C 42.265625 64.145053 42.470317 63.692911 42.876953 63.359375 C 43.29429 63.025839 43.817863 62.817759 44.449219 62.734375 z M 86.853516 133.21289 C 86.521786 133.21289 86.234403 133.38692 85.988281 133.73438 C 85.742159 134.06789 85.619141 134.47085 85.619141 134.94336 C 85.619141 135.41587 85.735282 135.81881 85.970703 136.15234 C 86.206124 136.47198 86.507261 136.63086 86.871094 136.63086 C 87.224225 136.63086 87.506684 136.47198 87.720703 136.15234 C 87.945423 135.8327 88.058594 135.42977 88.058594 134.94336 C 88.058594 134.45695 87.940499 134.04643 87.705078 133.71289 C 87.480358 133.37935 87.195946 133.21289 86.853516 133.21289 z M 21.787109 133.48438 L 21.787109 135.49023 L 23.349609 135.41211 C 23.294019 136.00275 23.267578 136.785 23.267578 137.75781 L 23.267578 147.73633 C 23.267578 148.41382 23.210788 148.90997 23.099609 149.22266 C 22.988431 149.53535 22.837141 149.74343 22.642578 149.84766 C 22.448015 149.93446 22.162338 149.98653 21.787109 150.00391 L 21.787109 151.72461 L 27.769531 151.72461 L 27.769531 149.7168 C 27.171946 149.7168 26.651746 149.74282 26.207031 149.79492 C 26.262621 149.20428 26.289062 148.42399 26.289062 147.45117 L 26.289062 137.4707 C 26.289064 136.79321 26.345852 136.29707 26.457031 135.98438 C 26.56821 135.67166 26.721453 135.47358 26.916016 135.38672 C 27.110578 135.28249 27.394303 135.22052 27.769531 135.20312 L 27.769531 133.48438 L 21.787109 133.48438 z M 34.076172 138.36133 C 33.680237 138.36133 33.272806 138.47296 32.855469 138.69531 C 32.438132 138.90377 32.064151 139.18186 31.732422 139.5293 L 31.699219 139.5293 C 31.656419 138.86222 31.636719 138.51412 31.636719 138.48633 L 30.849609 138.48633 C 30.710497 138.6531 30.431009 138.79875 30.013672 138.92383 C 29.596335 139.0489 29.051113 139.11133 28.376953 139.11133 L 28.376953 140.69727 L 29.5 140.63477 C 29.4572 141.19066 29.4375 141.78087 29.4375 142.40625 L 29.4375 145.9082 C 29.4375 146.56138 29.37748 147.03433 29.259766 147.32617 C 29.152756 147.61802 28.896871 147.76367 28.490234 147.76367 L 28.490234 149.11914 L 32.615234 149.11914 L 32.615234 147.5332 C 32.315608 147.5332 31.994774 147.554 31.652344 147.5957 C 31.695144 147.03981 31.716797 146.42879 31.716797 145.76172 L 31.716797 141.05078 C 32.155536 140.53658 32.609236 140.2793 33.080078 140.2793 C 33.465312 140.2932 33.754649 140.48047 33.947266 140.8418 C 34.139883 141.18923 34.236328 141.79461 34.236328 142.65625 L 34.251953 145.9082 C 34.251953 146.56138 34.198803 147.03433 34.091797 147.32617 C 33.984787 147.61802 33.743674 147.76367 33.369141 147.76367 L 33.369141 149.11914 L 37.509766 149.11914 L 37.509766 147.5332 C 37.156634 147.5332 36.809227 147.554 36.466797 147.5957 C 36.509597 147.03981 36.53125 146.42879 36.53125 145.76172 L 36.53125 142.96875 C 36.53125 142.2044 36.48303 141.54417 36.386719 140.98828 C 36.836159 140.52967 37.296736 140.30078 37.767578 140.30078 C 38.174214 140.30078 38.4852 140.48805 38.699219 140.86328 C 38.913238 141.22461 39.024455 141.84322 39.035156 142.71875 L 39.035156 145.9082 C 39.035156 146.54748 38.986936 147.02043 38.890625 147.32617 C 38.794315 147.61802 38.574852 147.76367 38.232422 147.76367 L 38.232422 149.11914 L 42.292969 149.11914 L 42.292969 147.5332 C 41.939837 147.5332 41.59243 147.554 41.25 147.5957 C 41.2928 147.03981 41.314453 146.42879 41.314453 145.76172 L 41.314453 142.69727 C 41.314453 141.14076 41.094989 140.0284 40.65625 139.36133 C 40.228212 138.69426 39.56982 138.36133 38.681641 138.36133 C 38.264304 138.36133 37.820451 138.48618 37.349609 138.73633 C 36.878768 138.98648 36.45164 139.32136 36.066406 139.73828 C 35.873789 139.27967 35.611026 138.93915 35.279297 138.7168 C 34.958268 138.48054 34.557715 138.36133 34.076172 138.36133 z M 48.425781 138.36133 C 47.655313 138.36133 46.93885 138.73782 46.275391 139.48828 L 46.259766 139.48828 C 46.227666 139.05746 46.199134 138.72258 46.177734 138.48633 L 45.392578 138.48633 C 45.253466 138.6531 44.973978 138.79875 44.556641 138.92383 C 44.139304 139.0489 43.594082 139.11133 42.919922 139.11133 L 42.919922 140.69727 L 44.060547 140.63477 C 44.017747 141.19066 43.996094 141.78087 43.996094 142.40625 L 43.996094 151.22461 C 43.996094 151.87778 43.936074 152.34879 43.818359 152.64062 C 43.700649 152.93248 43.439839 153.07812 43.033203 153.07812 L 43.033203 154.43359 L 47.238281 154.43359 L 47.238281 152.84961 C 46.88515 152.84961 46.542667 152.87041 46.210938 152.91211 C 46.243037 152.28673 46.259766 151.67571 46.259766 151.07812 L 46.259766 149.07617 C 46.794813 149.32632 47.270163 149.45117 47.6875 149.45117 C 48.468669 149.45117 49.158559 149.20148 49.757812 148.70117 C 50.367767 148.20087 50.838192 147.51225 51.169922 146.63672 C 51.501651 145.74729 51.667969 144.74655 51.667969 143.63477 C 51.667969 142.57857 51.528225 141.65543 51.25 140.86328 C 50.982476 140.05724 50.603572 139.43863 50.111328 139.00781 C 49.629785 138.57699 49.067838 138.36133 48.425781 138.36133 z M 58.402344 138.36133 C 57.589071 138.36133 56.819462 139.00074 56.091797 140.2793 L 56.058594 140.2793 C 56.058594 139.95966 56.053699 139.63236 56.042969 139.29883 C 56.032269 138.96529 56.015541 138.69479 55.994141 138.48633 L 55.208984 138.48633 C 55.069872 138.6531 54.790384 138.79875 54.373047 138.92383 C 53.95571 139.0489 53.410488 139.11133 52.736328 139.11133 L 52.736328 140.69727 L 53.859375 140.63477 C 53.816575 141.19066 53.796875 141.78087 53.796875 142.40625 L 53.796875 145.9082 C 53.796875 146.56138 53.736855 147.03433 53.619141 147.32617 C 53.512131 147.61802 53.256246 147.76367 52.849609 147.76367 L 52.849609 149.11914 L 57.054688 149.11914 L 57.054688 147.5332 C 56.701555 147.5332 56.354149 147.554 56.011719 147.5957 C 56.054519 147.03981 56.076172 146.42879 56.076172 145.76172 L 56.076172 142.36328 C 56.183181 141.91857 56.390844 141.47401 56.701172 141.0293 C 57.0222 140.57068 57.333186 140.3418 57.632812 140.3418 C 57.664912 140.78651 57.78301 141.09863 57.986328 141.2793 C 58.200347 141.45996 58.439507 141.55078 58.707031 141.55078 C 59.070864 141.55078 59.343474 141.39754 59.525391 141.0918 C 59.707307 140.78606 59.798828 140.45313 59.798828 140.0918 C 59.798828 139.52201 59.665961 139.09067 59.398438 138.79883 C 59.141615 138.50698 58.80898 138.36133 58.402344 138.36133 z M 64.289062 138.36133 C 63.507894 138.36133 62.811126 138.61861 62.201172 139.13281 C 61.591218 139.64701 61.115868 140.33563 60.773438 141.19727 C 60.441707 142.045 60.275391 142.95492 60.275391 143.92773 C 60.275391 145.03952 60.441707 146.01186 60.773438 146.8457 C 61.105167 147.67954 61.570669 148.32654 62.169922 148.78516 C 62.769175 149.22987 63.459065 149.45117 64.240234 149.45117 C 65.823975 149.45117 67.070888 148.60368 67.980469 146.9082 L 67.257812 146.0332 C 66.915383 146.5752 66.529601 146.97055 66.101562 147.2207 C 65.673524 147.47086 65.27297 147.5957 64.898438 147.5957 C 64.106566 147.5957 63.527895 147.24197 63.164062 146.5332 C 62.810932 145.82444 62.634766 144.85773 62.634766 143.63477 L 67.900391 143.50977 C 67.911091 141.66142 67.568609 140.34293 66.873047 139.55078 C 66.188186 138.75863 65.327056 138.36133 64.289062 138.36133 z M 72.042969 138.36133 C 71.37951 138.36133 70.817563 138.52779 70.357422 138.86133 C 69.907982 139.18097 69.570423 139.59908 69.345703 140.11328 C 69.131684 140.61359 69.025391 141.14896 69.025391 141.71875 C 69.025391 142.41362 69.158257 142.98302 69.425781 143.42773 C 69.704006 143.85855 70.014991 144.18389 70.357422 144.40625 C 70.699852 144.62861 71.213577 144.91429 71.898438 145.26172 C 72.476287 145.55356 72.86207 145.75601 73.054688 145.86719 C 73.247304 145.97837 73.411669 146.11644 73.550781 146.2832 C 73.689894 146.44997 73.759766 146.65805 73.759766 146.9082 C 73.759766 147.24174 73.648548 147.49902 73.423828 147.67969 C 73.209809 147.86035 72.95197 147.95117 72.652344 147.95117 C 71.978184 147.95117 71.406389 147.73551 70.935547 147.30469 C 70.475406 146.85997 70.217568 146.31701 70.164062 145.67773 L 69.121094 145.67773 L 69.185547 149.26367 L 70.40625 149.26367 L 70.357422 148.63867 L 70.373047 148.63867 C 70.619169 148.87493 70.961652 149.06979 71.400391 149.22266 C 71.83913 149.37553 72.287906 149.45117 72.748047 149.45117 C 73.261693 149.45117 73.738995 149.33391 74.177734 149.09766 C 74.627174 148.8475 74.986382 148.48618 75.253906 148.01367 C 75.532131 147.52727 75.669922 146.93705 75.669922 146.24219 C 75.669922 145.33886 75.423884 144.60863 74.931641 144.05273 C 74.450098 143.49684 73.755284 143.01067 72.845703 142.59375 C 72.631684 142.49645 72.49194 142.43968 72.427734 142.42578 C 71.871285 142.18953 71.475655 141.98145 71.240234 141.80078 C 71.004813 141.60622 70.886719 141.31491 70.886719 140.92578 C 70.886719 140.55055 70.988088 140.27246 71.191406 140.0918 C 71.394724 139.91113 71.647639 139.82031 71.947266 139.82031 C 72.525117 139.82031 73.010315 140.02839 73.40625 140.44531 C 73.802185 140.86223 74.048223 141.43359 74.144531 142.15625 L 75.189453 142.15625 L 75.189453 138.4668 L 73.96875 138.4668 L 73.984375 139.07031 L 73.96875 139.07031 C 73.722628 138.84796 73.41852 138.6739 73.054688 138.54883 C 72.690855 138.42375 72.353296 138.36133 72.042969 138.36133 z M 79.818359 138.36133 C 79.1549 138.36133 78.592953 138.52779 78.132812 138.86133 C 77.683374 139.18097 77.345814 139.59908 77.121094 140.11328 C 76.907075 140.61359 76.800781 141.14896 76.800781 141.71875 C 76.800781 142.41362 76.933648 142.98302 77.201172 143.42773 C 77.479397 143.85855 77.790382 144.18389 78.132812 144.40625 C 78.475245 144.62861 78.988967 144.91429 79.673828 145.26172 C 80.251679 145.55356 80.635508 145.75601 80.828125 145.86719 C 81.020742 145.97837 81.18706 146.11644 81.326172 146.2832 C 81.465284 146.44997 81.535156 146.65805 81.535156 146.9082 C 81.535156 147.24174 81.421986 147.49902 81.197266 147.67969 C 80.983247 147.86035 80.727361 147.95117 80.427734 147.95117 C 79.753574 147.95117 79.181779 147.73551 78.710938 147.30469 C 78.250797 146.85997 77.992958 146.31701 77.939453 145.67773 L 76.896484 145.67773 L 76.960938 149.26367 L 78.179688 149.26367 L 78.132812 148.63867 L 78.148438 148.63867 C 78.394559 148.87493 78.737042 149.06979 79.175781 149.22266 C 79.61452 149.37553 80.063297 149.45117 80.523438 149.45117 C 81.037081 149.45117 81.514386 149.33391 81.953125 149.09766 C 82.402565 148.8475 82.75982 148.48618 83.027344 148.01367 C 83.305568 147.52727 83.445312 146.93705 83.445312 146.24219 C 83.445312 145.33886 83.199275 144.60863 82.707031 144.05273 C 82.225488 143.49684 81.530675 143.01067 80.621094 142.59375 C 80.407075 142.49645 80.267331 142.43968 80.203125 142.42578 C 79.646676 142.18953 79.251046 141.98145 79.015625 141.80078 C 78.780204 141.60622 78.662109 141.31491 78.662109 140.92578 C 78.662109 140.55055 78.763479 140.27246 78.966797 140.0918 C 79.170115 139.91113 79.421077 139.82031 79.720703 139.82031 C 80.298554 139.82031 80.785705 140.02839 81.181641 140.44531 C 81.577576 140.86223 81.823613 141.43359 81.919922 142.15625 L 82.962891 142.15625 L 82.962891 138.4668 L 81.744141 138.4668 L 81.759766 139.07031 L 81.744141 139.07031 C 81.498019 138.84796 81.191957 138.6739 80.828125 138.54883 C 80.464293 138.42375 80.128687 138.36133 79.818359 138.36133 z M 93.726562 138.36133 C 92.988197 138.36133 92.308155 138.60539 91.6875 139.0918 C 91.077546 139.5782 90.592348 140.25923 90.228516 141.13477 C 89.864683 142.0103 89.681641 143.01103 89.681641 144.13672 C 89.681641 145.20681 89.857805 146.14513 90.210938 146.95117 C 90.564069 147.75722 91.05122 148.37387 91.671875 148.80469 C 92.29253 149.23551 92.994221 149.45117 93.775391 149.45117 C 94.55656 149.45117 95.24645 149.2147 95.845703 148.74219 C 96.455657 148.26968 96.926085 147.60382 97.257812 146.74219 C 97.600245 145.88055 97.771484 144.87223 97.771484 143.71875 C 97.771484 142.63476 97.595319 141.69081 97.242188 140.88477 C 96.889055 140.06482 96.406829 139.43863 95.796875 139.00781 C 95.186921 138.57699 94.497033 138.36133 93.726562 138.36133 z M 104.48828 138.36133 C 104.16725 138.36133 103.77655 138.48054 103.31641 138.7168 C 102.86697 138.93915 102.48611 139.20966 102.17578 139.5293 L 102.14453 139.5293 C 102.10173 138.86222 102.08008 138.51412 102.08008 138.48633 L 101.29297 138.48633 C 101.15386 138.6531 100.87632 138.79875 100.45898 138.92383 C 100.04165 139.0489 99.496426 139.11133 98.822266 139.11133 L 98.822266 140.69727 L 99.945312 140.63477 C 99.902513 141.19066 99.880859 141.78087 99.880859 142.40625 L 99.880859 145.9082 C 99.880859 146.56138 99.822789 147.03433 99.705078 147.32617 C 99.598069 147.61802 99.34023 147.76367 98.933594 147.76367 L 98.933594 149.11914 L 103.13867 149.11914 L 103.13867 147.5332 C 102.78554 147.5332 102.43813 147.554 102.0957 147.5957 C 102.1385 147.03981 102.16016 146.42879 102.16016 145.76172 L 102.16016 141.05078 C 102.34207 140.82842 102.56646 140.64874 102.83398 140.50977 C 103.10151 140.35689 103.36427 140.2793 103.62109 140.2793 C 104.09194 140.2793 104.42457 140.49496 104.61719 140.92578 C 104.82051 141.3566 104.92188 142.03004 104.92188 142.94727 L 104.9375 145.9082 C 104.9375 146.56138 104.8794 147.03433 104.76172 147.32617 C 104.64401 147.61802 104.38125 147.76367 103.97461 147.76367 L 103.97461 149.11914 L 108.17969 149.11914 L 108.17969 147.5332 C 107.83726 147.5332 107.48985 147.554 107.13672 147.5957 C 107.17952 147.03981 107.20117 146.42879 107.20117 145.76172 L 107.20117 142.96875 C 107.20117 141.34276 106.99156 140.16797 106.57422 139.44531 C 106.15688 138.72265 105.46207 138.36133 104.48828 138.36133 z M 112.14062 138.36133 C 111.47719 138.36133 110.91522 138.52779 110.45508 138.86133 C 110.00564 139.18097 109.66808 139.59908 109.44336 140.11328 C 109.22934 140.61359 109.12305 141.14896 109.12305 141.71875 C 109.12305 142.41362 109.25591 142.98302 109.52344 143.42773 C 109.80166 143.85855 110.11265 144.18389 110.45508 144.40625 C 110.79751 144.62861 111.31123 144.91429 111.99609 145.26172 C 112.57395 145.55356 112.95777 145.75601 113.15039 145.86719 C 113.34301 145.97837 113.50933 146.11644 113.64844 146.2832 C 113.78755 146.44997 113.85742 146.65805 113.85742 146.9082 C 113.85742 147.24174 113.74425 147.49902 113.51953 147.67969 C 113.30551 147.86035 113.04963 147.95117 112.75 147.95117 C 112.07584 147.95117 111.50404 147.73551 111.0332 147.30469 C 110.57306 146.85997 110.31522 146.31701 110.26172 145.67773 L 109.21875 145.67773 L 109.2832 149.26367 L 110.50195 149.26367 L 110.45508 148.63867 L 110.4707 148.63867 C 110.71682 148.87493 111.05931 149.06979 111.49805 149.22266 C 111.93679 149.37553 112.38556 149.45117 112.8457 149.45117 C 113.35935 149.45117 113.83665 149.33391 114.27539 149.09766 C 114.72483 148.8475 115.08209 148.48618 115.34961 148.01367 C 115.62783 147.52727 115.76758 146.93705 115.76758 146.24219 C 115.76758 145.33886 115.52154 144.60863 115.0293 144.05273 C 114.54775 143.49684 113.85294 143.01067 112.94336 142.59375 C 112.72934 142.49645 112.5896 142.43968 112.52539 142.42578 C 111.96894 142.18953 111.57331 141.98145 111.33789 141.80078 C 111.10247 141.60622 110.98438 141.31491 110.98438 140.92578 C 110.98438 140.55055 111.08574 140.27246 111.28906 140.0918 C 111.49238 139.91113 111.74334 139.82031 112.04297 139.82031 C 112.62082 139.82031 113.10797 140.02839 113.50391 140.44531 C 113.89984 140.86223 114.14588 141.43359 114.24219 142.15625 L 115.28516 142.15625 L 115.28516 138.4668 L 114.06641 138.4668 L 114.08203 139.07031 L 114.06641 139.07031 C 113.82028 138.84796 113.51422 138.6739 113.15039 138.54883 C 112.78656 138.42375 112.45096 138.36133 112.14062 138.36133 z M 86.966797 138.48633 C 86.827685 138.6531 86.550151 138.79875 86.132812 138.92383 C 85.715475 139.0489 85.168301 139.11133 84.494141 139.11133 L 84.494141 140.69727 L 85.619141 140.63477 C 85.576341 141.19066 85.554688 141.79409 85.554688 142.44727 L 85.554688 145.9082 C 85.554688 146.56138 85.494668 147.03433 85.376953 147.32617 C 85.269944 147.61802 85.014058 147.76367 84.607422 147.76367 L 84.607422 149.11914 L 88.8125 149.11914 L 88.8125 147.5332 C 88.459369 147.5332 88.111962 147.554 87.769531 147.5957 C 87.812331 147.03981 87.833984 146.42879 87.833984 145.76172 L 87.833984 138.48633 L 86.966797 138.48633 z M 64.369141 139.82031 C 65.214516 139.82031 65.653444 140.60538 65.685547 142.17578 L 62.730469 142.17578 C 62.816079 141.45312 62.994195 140.88372 63.261719 140.4668 C 63.539943 140.03598 63.909 139.82031 64.369141 139.82031 z M 93.726562 139.82031 C 94.304415 139.82031 94.726617 140.25923 94.994141 141.13477 C 95.261664 142.0103 95.396484 143.04506 95.396484 144.24023 C 95.396484 145.31033 95.27839 146.19944 95.042969 146.9082 C 94.807548 147.61697 94.395193 147.97266 93.806641 147.97266 C 93.207387 147.97266 92.763535 147.54132 92.474609 146.67969 C 92.185684 145.81805 92.041016 144.78133 92.041016 143.57227 C 92.041016 142.51607 92.175836 141.62696 92.443359 140.9043 C 92.710883 140.18164 93.13801 139.82031 93.726562 139.82031 z M 47.607422 140.23828 C 48.174572 140.23828 48.596775 140.5996 48.875 141.32227 C 49.163926 142.04493 49.308594 142.92082 49.308594 143.94922 C 49.308594 146.57582 48.662002 147.88867 47.367188 147.88867 C 47.153168 147.88867 46.938628 147.85267 46.724609 147.7832 C 46.521291 147.6998 46.366775 147.61095 46.259766 147.51367 L 46.259766 141.1543 C 46.409579 140.87635 46.600516 140.65505 46.835938 140.48828 C 47.082059 140.32151 47.339898 140.23828 47.607422 140.23828 z M 41.597656 332.20312 C 41.41574 332.20312 41.239575 332.27312 41.068359 332.41211 C 40.897144 332.53719 40.752476 332.71687 40.634766 332.95312 L 39.318359 335.87305 L 40.056641 336.72656 L 42 334.51758 C 42.128411 334.36471 42.229781 334.17744 42.304688 333.95508 C 42.390298 333.73272 42.431641 333.51705 42.431641 333.30859 C 42.431641 332.97506 42.337151 332.6894 42.144531 332.45312 C 41.973316 332.28636 41.790273 332.20312 41.597656 332.20312 z M 62.861328 332.59961 C 62.529599 332.59961 62.240262 332.77366 61.994141 333.12109 C 61.748019 333.45463 61.625 333.85757 61.625 334.33008 C 61.625 334.80259 61.743095 335.20553 61.978516 335.53906 C 62.213937 335.8587 62.513121 336.01758 62.876953 336.01758 C 63.230084 336.01758 63.512543 335.8587 63.726562 335.53906 C 63.951282 335.21942 64.064453 334.81648 64.064453 334.33008 C 64.064453 333.84367 63.946357 333.43315 63.710938 333.09961 C 63.486218 332.76607 63.203759 332.59961 62.861328 332.59961 z M 67.951172 332.76562 C 67.81206 332.93239 67.534525 333.08 67.117188 333.20508 C 66.699849 333.33015 66.154629 333.39258 65.480469 333.39258 L 65.480469 334.97656 L 66.603516 334.91406 C 66.560716 335.45606 66.539062 336.05949 66.539062 336.72656 L 66.539062 345.29492 C 66.539062 345.73964 66.517409 346.08774 66.474609 346.33789 C 66.442509 346.58804 66.357862 346.78854 66.21875 346.94141 C 66.090339 347.08038 65.880723 347.15039 65.591797 347.15039 L 65.591797 348.50586 L 69.796875 348.50586 L 69.796875 346.91992 C 69.454445 346.91992 69.107038 346.94268 68.753906 346.98438 C 68.796706 346.42847 68.818359 345.81551 68.818359 345.14844 L 68.818359 332.76562 L 67.951172 332.76562 z M 27.853516 332.84375 L 21.787109 332.87109 L 21.787109 334.87695 L 23.349609 334.79883 C 23.294019 335.38947 23.267578 336.17172 23.267578 337.14453 L 23.267578 347.125 C 23.267578 347.8025 23.210788 348.29667 23.099609 348.60938 C 22.988431 348.92206 22.837141 349.13013 22.642578 349.23438 C 22.448015 349.32128 22.162338 349.37325 21.787109 349.39062 L 21.787109 351.11133 L 27.748047 351.11133 C 29.582496 351.11133 31.105385 350.65117 32.314453 349.73047 C 33.537419 348.80977 34.426528 347.64539 34.982422 346.23828 C 35.552213 344.8138 35.837891 343.3373 35.837891 341.80859 C 35.837891 340.29726 35.538992 338.85478 34.941406 337.48242 C 34.357718 336.11006 33.461022 334.99965 32.251953 334.14844 C 31.056782 333.27985 29.590683 332.84375 27.853516 332.84375 z M 27.603516 334.58984 C 29.173915 334.58984 30.390318 335.22406 31.251953 336.49219 C 32.113588 337.76032 32.542969 339.71497 32.542969 342.35547 C 32.542969 343.57149 32.384092 344.69989 32.064453 345.74219 C 31.758712 346.76712 31.278175 347.60139 30.625 348.24414 C 29.971825 348.88689 29.160314 349.20898 28.1875 349.20898 C 27.909553 349.20898 27.678712 349.20099 27.498047 349.18359 L 26.601562 349.15625 C 26.407 349.15625 26.276518 349.16629 26.207031 349.18359 C 26.262621 348.59296 26.289062 347.8107 26.289062 346.83789 L 26.289062 336.80469 C 26.289064 335.91873 26.387472 335.32852 26.582031 335.0332 C 26.790491 334.73788 27.131006 334.58984 27.603516 334.58984 z M 47.410156 335.47656 C 47.324546 335.85179 47.174957 336.24151 46.960938 336.64453 C 46.746918 337.04755 46.484156 337.38807 46.173828 337.66602 C 45.874202 337.94396 45.553368 338.08203 45.210938 338.08203 L 45.210938 339.8125 L 46.302734 339.8125 L 46.271484 344.83594 C 46.271484 347.50423 47.106042 348.83789 48.775391 348.83789 C 49.256933 348.83789 49.749008 348.70741 50.251953 348.44336 C 50.754898 348.16541 51.256821 347.54681 51.759766 346.58789 L 50.990234 345.64844 C 50.530093 346.48228 50.042943 346.90039 49.529297 346.90039 C 48.88724 346.90039 48.566406 346.22695 48.566406 344.87891 L 48.582031 339.75 L 50.621094 339.6875 L 50.621094 338.08203 L 48.582031 338.08203 L 48.597656 335.47656 L 47.410156 335.47656 z M 40.828125 337.74805 C 40.046956 337.74805 39.350189 338.00533 38.740234 338.51953 C 38.13028 339.03373 37.65493 339.72235 37.3125 340.58398 C 36.980771 341.43172 36.814453 342.34164 36.814453 343.31445 C 36.814453 344.42624 36.980771 345.39858 37.3125 346.23242 C 37.644229 347.06626 38.109731 347.71326 38.708984 348.17188 C 39.308238 348.61658 39.998127 348.83789 40.779297 348.83789 C 42.363038 348.83789 43.60995 347.9904 44.519531 346.29492 L 43.796875 345.41992 C 43.454445 345.96192 43.068663 346.35727 42.640625 346.60742 C 42.212587 346.85757 41.812033 346.98438 41.4375 346.98438 C 40.64563 346.98438 40.066957 346.62869 39.703125 345.91992 C 39.349994 345.21116 39.173828 344.2464 39.173828 343.02344 L 44.439453 342.89844 C 44.450153 341.05009 44.107671 339.72965 43.412109 338.9375 C 42.727249 338.14535 41.866117 337.74805 40.828125 337.74805 z M 55.775391 337.74805 C 55.154735 337.74805 54.580987 337.86726 54.056641 338.10352 C 53.542995 338.32587 53.137517 338.64558 52.837891 339.0625 C 52.538264 339.47942 52.388672 339.958 52.388672 340.5 C 52.388672 340.90302 52.478242 341.24354 52.660156 341.52148 C 52.842072 341.78553 53.094987 341.91797 53.416016 341.91797 C 53.758446 341.91797 54.014332 341.78553 54.185547 341.52148 C 54.367463 341.25743 54.458984 340.95854 54.458984 340.625 C 54.458984 340.29146 54.394034 340.02855 54.265625 339.83398 C 54.565252 339.44486 54.951033 339.25 55.421875 339.25 C 56.14954 339.25 56.513672 339.88183 56.513672 341.14648 L 56.513672 342.23047 C 55.283063 342.29997 54.22904 342.65369 53.351562 343.29297 C 52.474086 343.91835 52.035156 344.84344 52.035156 346.06641 C 52.035156 346.87245 52.228047 347.54026 52.613281 348.06836 C 53.009216 348.58256 53.54459 348.83789 54.21875 348.83789 C 55.149733 348.83789 55.940992 348.40849 56.59375 347.54688 L 56.609375 347.54688 C 56.630775 348.00549 56.652428 348.32519 56.673828 348.50586 L 59.707031 348.50586 L 59.707031 346.91992 C 59.364601 346.91992 59.017195 346.94268 58.664062 346.98438 C 58.706862 346.42847 58.728516 345.81551 58.728516 345.14844 L 58.744141 341.73047 C 58.744141 339.07608 57.755066 337.74805 55.775391 337.74805 z M 73.849609 337.74805 C 73.18615 337.74805 72.624203 337.91451 72.164062 338.24805 C 71.714624 338.56769 71.379017 338.9858 71.154297 339.5 C 70.940278 340.0003 70.832031 340.53568 70.832031 341.10547 C 70.832031 341.80034 70.966851 342.36974 71.234375 342.81445 C 71.5126 343.24527 71.821632 343.57256 72.164062 343.79492 C 72.506495 344.01728 73.020217 344.301 73.705078 344.64844 C 74.282929 344.94028 74.668711 345.14273 74.861328 345.25391 C 75.053945 345.36508 75.220263 345.50315 75.359375 345.66992 C 75.498487 345.83669 75.568359 346.04477 75.568359 346.29492 C 75.568359 346.62846 75.455189 346.88574 75.230469 347.06641 C 75.01645 347.24707 74.760564 347.33789 74.460938 347.33789 C 73.786777 347.33789 73.213029 347.12222 72.742188 346.69141 C 72.282047 346.24669 72.026161 345.70568 71.972656 345.06641 L 70.929688 345.06641 L 70.994141 348.65039 L 72.212891 348.65039 L 72.164062 348.02539 L 72.181641 348.02539 C 72.427762 348.26165 72.770245 348.4565 73.208984 348.60938 C 73.647723 348.76225 74.0965 348.83789 74.556641 348.83789 C 75.070286 348.83789 75.545636 348.72063 75.984375 348.48438 C 76.433815 348.23422 76.793023 347.8729 77.060547 347.40039 C 77.338772 346.91398 77.478516 346.32377 77.478516 345.62891 C 77.478516 344.72558 77.232478 343.99535 76.740234 343.43945 C 76.258692 342.88356 75.561925 342.39739 74.652344 341.98047 C 74.438325 341.88317 74.300534 341.82835 74.236328 341.81445 C 73.679879 341.5782 73.284249 341.36817 73.048828 341.1875 C 72.813407 340.99294 72.695312 340.70163 72.695312 340.3125 C 72.695312 339.93727 72.796682 339.65918 73 339.47852 C 73.203318 339.29785 73.45428 339.20703 73.753906 339.20703 C 74.331758 339.20703 74.818909 339.41706 75.214844 339.83398 C 75.610779 340.2509 75.856816 340.82031 75.953125 341.54297 L 76.996094 341.54297 L 76.996094 337.85352 L 75.777344 337.85352 L 75.792969 338.45703 L 75.777344 338.45703 C 75.531222 338.23467 75.22516 338.06062 74.861328 337.93555 C 74.497496 337.81047 74.159937 337.74805 73.849609 337.74805 z M 62.972656 337.87305 C 62.833544 338.03981 62.556009 338.18547 62.138672 338.31055 C 61.721335 338.43565 61.17416 338.5 60.5 338.5 L 60.5 340.08398 L 61.625 340.02148 C 61.5822 340.57738 61.560547 341.18081 61.560547 341.83398 L 61.560547 345.29492 C 61.560547 345.9481 61.500527 346.42105 61.382812 346.71289 C 61.275804 347.00473 61.019917 347.15039 60.613281 347.15039 L 60.613281 348.50586 L 64.818359 348.50586 L 64.818359 346.91992 C 64.465228 346.91992 64.117821 346.94268 63.775391 346.98438 C 63.818191 346.42847 63.839844 345.81551 63.839844 345.14844 L 63.839844 337.87305 L 62.972656 337.87305 z M 40.908203 339.20703 C 41.753578 339.20703 42.192507 339.9921 42.224609 341.5625 L 39.269531 341.5625 C 39.355141 340.83984 39.533257 340.27044 39.800781 339.85352 C 40.079006 339.4227 40.448062 339.20703 40.908203 339.20703 z M 56.498047 343.71094 L 56.498047 346.04492 C 56.134215 346.54523 55.710058 346.79492 55.228516 346.79492 C 54.971693 346.79492 54.752229 346.70602 54.570312 346.52539 C 54.399098 346.34473 54.314453 346.06663 54.314453 345.69141 C 54.314453 345.12162 54.517192 344.66947 54.923828 344.33594 C 55.341165 344.0024 55.866691 343.79432 56.498047 343.71094 z "
   id="text185" />
</svg>