<?xml version="1.0" encoding="UTF-8" standalone="no"?>
<!-- Generator: Adobe Illustrator 16.0.0, SVG Export Plug-In . SVG Version: 6.00 Build 0)  -->

<svg
   xmlns:dc="http://purl.org/dc/elements/1.1/"
   xmlns:cc="http://creativecommons.org/ns#"
   xmlns:rdf="http://www.w3.org/1999/02/22-rdf-syntax-ns#"
   xmlns:svg="http://www.w3.org/2000/svg"
   xmlns="http://www.w3.org/2000/svg"
   xmlns:sodipodi="http://sodipodi.sourceforge.net/DTD/sodipodi-0.dtd"
   xmlns:inkscape="http://www.inkscape.org/namespaces/inkscape"
   version="1.1"
   id="Fond"
   x="0px"
   y="0px"
   width="446.25"
   height="623.625"
   viewBox="0 0 446.25 623.62501"
   enable-background="new 0 0 178.58 249.45"
   xml:space="preserve"
   sodipodi:docname="ETS-Type1-Libelles.svg"
   inkscape:version="0.92.0 r15299"><metadata
   id="metadata336"><rdf:RDF><cc:Work
       rdf:about=""><dc:format>image/svg+xml</dc:format><dc:type
         rdf:resource="http://purl.org/dc/dcmitype/StillImage" /><dc:title></dc:title></cc:Work></rdf:RDF></metadata><defs
   id="defs334">
	
	

	
	
	

		
		
		
		
		
			

		
			

		

		

	
		
		
		
		
			

		
			

		

		

	
		
		
		
		
			

		
			

		

		

	</defs><sodipodi:namedview
   pagecolor="#ffffff"
   bordercolor="#666666"
   borderopacity="1"
   objecttolerance="10"
   gridtolerance="10"
   guidetolerance="10"
   inkscape:pageopacity="0"
   inkscape:pageshadow="2"
   inkscape:window-width="1280"
   inkscape:window-height="961"
   id="namedview332"
   showgrid="false"
   inkscape:zoom="3.1982563"
   inkscape:cx="41.791509"
   inkscape:cy="480.77434"
   inkscape:window-x="1272"
   inkscape:window-y="-8"
   inkscape:window-maximized="1"
   inkscape:current-layer="Fond" />

<path
   style="font-size:23.30654526px;font-family:Lora;fill:#94ffff;stroke-width:2.91331816;-inkscape-font-specification:'Lora Bold';font-weight:bold;font-style:normal;font-stretch:normal;font-variant:normal;fill-opacity:1"
   d="M 21.849609 51.894531 L 21.849609 53.900391 L 23.412109 53.822266 C 23.384315 54.117584 23.357873 54.899837 23.330078 56.167969 L 23.205078 66.146484 C 23.205078 66.82398 23.148288 67.320122 23.037109 67.632812 C 22.925931 67.945503 22.774641 68.153582 22.580078 68.257812 C 22.385515 68.344671 22.099838 68.396691 21.724609 68.414062 L 21.724609 70.134766 L 26.476562 70.134766 L 26.476562 68.126953 C 25.878977 68.126953 25.35119 68.152963 24.892578 68.205078 C 24.962065 67.718671 24.998047 66.938372 24.998047 65.861328 L 25.017578 61.144531 L 25.017578 60.257812 C 25.017578 58.954937 24.99677 57.514416 24.955078 55.933594 L 24.976562 55.933594 C 25.171125 57.062753 25.4076 58.173163 25.685547 59.267578 C 25.977391 60.361994 26.227087 61.214257 26.435547 61.822266 L 29.25 70.394531 L 31.189453 70.394531 L 35.462891 56.115234 L 35.482422 56.115234 C 35.496319 56.775358 35.537935 57.94776 35.607422 59.632812 L 35.650391 60.623047 L 35.816406 66.146484 C 35.830304 66.82398 35.781101 67.320122 35.669922 67.632812 C 35.558743 67.945503 35.399866 68.153582 35.191406 68.257812 C 34.996844 68.344671 34.711166 68.396691 34.335938 68.414062 L 34.335938 70.134766 L 40.130859 70.134766 L 40.130859 68.126953 C 39.533274 68.126953 39.005487 68.152963 38.546875 68.205078 C 38.644156 67.527583 38.672551 66.747283 38.630859 65.861328 L 38.318359 55.880859 C 38.304462 55.203364 38.351712 54.707221 38.462891 54.394531 C 38.574069 54.081841 38.734899 53.883733 38.943359 53.796875 C 39.151819 53.692645 39.443131 53.630653 39.818359 53.613281 L 39.818359 51.894531 L 35.003906 51.894531 L 31.771484 62.65625 C 31.618614 63.160029 31.446516 63.76823 31.251953 64.480469 C 31.001801 65.383796 30.848558 65.921986 30.792969 66.095703 L 30.771484 66.095703 C 30.674203 65.661411 30.507739 65.035219 30.271484 64.21875 C 30.03523 63.402281 29.811976 62.656011 29.603516 61.978516 L 26.457031 51.894531 L 21.849609 51.894531 z M 43.726562 56.771484 C 43.105907 56.771484 42.534112 56.890698 42.009766 57.126953 C 41.49612 57.349311 41.088689 57.669017 40.789062 58.085938 C 40.489436 58.502858 40.339844 58.981441 40.339844 59.523438 C 40.339844 59.92646 40.431365 60.266975 40.613281 60.544922 C 40.795197 60.808971 41.046159 60.941406 41.367188 60.941406 C 41.709618 60.941406 41.967457 60.808971 42.138672 60.544922 C 42.320588 60.280872 42.410156 59.981974 42.410156 59.648438 C 42.410156 59.314901 42.347161 59.051985 42.21875 58.857422 C 42.518377 58.468296 42.902205 58.273437 43.373047 58.273438 C 44.100712 58.273438 44.464844 58.905264 44.464844 60.169922 L 44.464844 61.253906 C 43.234234 61.323393 42.180212 61.677129 41.302734 62.316406 C 40.425256 62.941786 39.986328 63.866878 39.986328 65.089844 C 39.986328 65.895889 40.179219 66.561745 40.564453 67.089844 C 40.960388 67.604045 41.495762 67.861328 42.169922 67.861328 C 43.100905 67.861328 43.892164 67.431948 44.544922 66.570312 L 44.560547 66.570312 C 44.581949 67.028925 44.603598 67.348631 44.625 67.529297 L 47.660156 67.529297 L 47.660156 65.943359 C 47.317726 65.943359 46.968366 65.964167 46.615234 66.005859 C 46.658038 65.449966 46.679688 64.838947 46.679688 64.171875 L 46.697266 60.753906 C 46.697266 58.099515 45.706238 56.771484 43.726562 56.771484 z M 54.119141 56.771484 C 53.305868 56.771484 52.536258 57.410898 51.808594 58.689453 L 51.775391 58.689453 C 51.775391 58.369814 51.770467 58.042521 51.759766 57.708984 C 51.749065 57.375448 51.732339 57.104944 51.710938 56.896484 L 50.925781 56.896484 C 50.786669 57.063252 50.507181 57.208908 50.089844 57.333984 C 49.672507 57.45906 49.127285 57.521484 48.453125 57.521484 L 48.453125 59.107422 L 49.576172 59.044922 C 49.533368 59.600815 49.511719 60.191026 49.511719 60.816406 L 49.511719 64.318359 C 49.511719 64.971534 49.453648 65.444484 49.335938 65.736328 C 49.228928 66.028172 48.971089 66.173828 48.564453 66.173828 L 48.564453 67.529297 L 52.771484 67.529297 L 52.771484 65.943359 C 52.418353 65.943359 52.068993 65.964167 51.726562 66.005859 C 51.769366 65.449966 51.791016 64.838947 51.791016 64.171875 L 51.791016 60.773438 C 51.898025 60.328723 52.107641 59.884168 52.417969 59.439453 C 52.738997 58.980841 53.049983 58.751953 53.349609 58.751953 C 53.381712 59.196668 53.497854 59.508788 53.701172 59.689453 C 53.915191 59.870119 54.156304 59.960938 54.423828 59.960938 C 54.78766 59.960938 55.060271 59.807695 55.242188 59.501953 C 55.424104 59.196212 55.515625 58.863284 55.515625 58.501953 C 55.515625 57.932162 55.382758 57.500828 55.115234 57.208984 C 54.858412 56.91714 54.525777 56.771484 54.119141 56.771484 z M 60.021484 56.771484 C 59.229614 56.771484 58.527923 57.02118 57.917969 57.521484 C 57.308015 58.021789 56.837589 58.717992 56.505859 59.607422 C 56.17413 60.482954 56.007813 61.476104 56.007812 62.587891 C 56.007812 63.644088 56.140679 64.574814 56.408203 65.380859 C 56.686428 66.173008 57.067285 66.784026 57.548828 67.214844 C 58.041072 67.645661 58.607943 67.861328 59.25 67.861328 C 60.084674 67.861328 60.808015 67.473563 61.417969 66.695312 L 61.433594 66.695312 L 61.417969 69.634766 C 61.417969 70.287941 61.357945 70.758937 61.240234 71.050781 C 61.133225 71.342625 60.877339 71.488281 60.470703 71.488281 L 60.470703 72.84375 L 64.675781 72.84375 L 64.675781 71.259766 C 64.32265 71.259766 63.975243 71.280574 63.632812 71.322266 C 63.675616 70.766372 63.697266 70.155354 63.697266 69.488281 L 63.697266 56.896484 L 62.830078 56.896484 C 62.765872 56.993766 62.674351 57.076998 62.556641 57.146484 C 62.449631 57.202074 62.353186 57.230469 62.267578 57.230469 C 62.160569 57.230469 61.967678 57.181266 61.689453 57.083984 C 61.389827 56.986703 61.117216 56.911058 60.871094 56.855469 C 60.624972 56.799879 60.342513 56.771484 60.021484 56.771484 z M 79.097656 56.771484 C 78.316487 56.771484 77.61972 57.028767 77.009766 57.542969 C 76.399811 58.05717 75.924462 58.745787 75.582031 59.607422 C 75.250302 60.45516 75.083984 61.365077 75.083984 62.337891 C 75.083984 63.449678 75.250302 64.422019 75.582031 65.255859 C 75.913761 66.0897 76.379262 66.7367 76.978516 67.195312 C 77.577769 67.640027 78.267659 67.861328 79.048828 67.861328 C 80.632569 67.861328 81.879482 67.013835 82.789062 65.318359 L 82.066406 64.443359 C 81.723976 64.985356 81.338194 65.380707 80.910156 65.630859 C 80.482118 65.881011 80.081565 66.005859 79.707031 66.005859 C 78.915161 66.005859 78.336489 65.652124 77.972656 64.943359 C 77.619525 64.234595 77.443359 63.269841 77.443359 62.046875 L 82.708984 61.919922 C 82.719685 60.071576 82.377202 58.753086 81.681641 57.960938 C 80.99678 57.168789 80.135648 56.771484 79.097656 56.771484 z M 99.326172 56.771484 C 98.5129 56.771484 97.74329 57.410898 97.015625 58.689453 L 96.982422 58.689453 C 96.982422 58.369814 96.977498 58.042521 96.966797 57.708984 C 96.956096 57.375448 96.939371 57.104944 96.917969 56.896484 L 96.132812 56.896484 C 95.9937 57.063252 95.714212 57.208908 95.296875 57.333984 C 94.879538 57.45906 94.334316 57.521484 93.660156 57.521484 L 93.660156 59.107422 L 94.783203 59.044922 C 94.740399 59.600815 94.71875 60.191026 94.71875 60.816406 L 94.71875 64.318359 C 94.71875 64.971534 94.660679 65.444484 94.542969 65.736328 C 94.435959 66.028172 94.180074 66.173828 93.773438 66.173828 L 93.773438 67.529297 L 97.978516 67.529297 L 97.978516 65.943359 C 97.625384 65.943359 97.277977 65.964167 96.935547 66.005859 C 96.978351 65.449966 96.998047 64.838947 96.998047 64.171875 L 96.998047 60.773438 C 97.105056 60.328723 97.314672 59.884168 97.625 59.439453 C 97.946029 58.980841 98.257014 58.751953 98.556641 58.751953 C 98.588743 59.196668 98.704885 59.508788 98.908203 59.689453 C 99.122222 59.870119 99.363336 59.960938 99.630859 59.960938 C 99.994692 59.960938 100.2673 59.807695 100.44922 59.501953 C 100.63113 59.196212 100.72266 58.863284 100.72266 58.501953 C 100.72266 57.932162 100.58979 57.500828 100.32227 57.208984 C 100.06544 56.91714 99.732808 56.771484 99.326172 56.771484 z M 104.4082 56.771484 C 103.74474 56.771484 103.1828 56.937948 102.72266 57.271484 C 102.27322 57.591123 101.93566 58.009236 101.71094 58.523438 C 101.49692 59.023742 101.39063 59.559115 101.39062 60.128906 C 101.39063 60.823773 101.52349 61.393176 101.79102 61.837891 C 102.06924 62.268708 102.38023 62.594049 102.72266 62.816406 C 103.06509 63.038764 103.57881 63.324442 104.26367 63.671875 C 104.84152 63.963719 105.2273 64.166165 105.41992 64.277344 C 105.61254 64.388522 105.7769 64.526591 105.91602 64.693359 C 106.05513 64.860127 106.125 65.068207 106.125 65.318359 C 106.125 65.651896 106.01378 65.909178 105.78906 66.089844 C 105.57504 66.270509 105.3172 66.361328 105.01758 66.361328 C 104.34342 66.361328 103.77162 66.145661 103.30078 65.714844 C 102.84064 65.270129 102.5828 64.727168 102.5293 64.087891 L 101.48633 64.087891 L 101.55078 67.673828 L 102.77148 67.673828 L 102.72266 67.048828 L 102.73828 67.048828 C 102.9844 67.285083 103.32689 67.479942 103.76562 67.632812 C 104.20436 67.785683 104.65314 67.861328 105.11328 67.861328 C 105.62693 67.861328 106.10423 67.744067 106.54297 67.507812 C 106.99241 67.25766 107.34966 66.896338 107.61719 66.423828 C 107.89541 65.937421 108.03516 65.347211 108.03516 64.652344 C 108.03516 63.749017 107.78912 63.018784 107.29688 62.462891 C 106.81533 61.906997 106.12052 61.420826 105.21094 61.003906 C 104.99692 60.906625 104.85717 60.849835 104.79297 60.835938 C 104.23652 60.599683 103.84089 60.391603 103.60547 60.210938 C 103.37005 60.016375 103.25195 59.725063 103.25195 59.335938 C 103.25195 58.960709 103.35332 58.682619 103.55664 58.501953 C 103.75996 58.321288 104.01092 58.230469 104.31055 58.230469 C 104.8884 58.230469 105.37555 58.440502 105.77148 58.857422 C 106.16742 59.274342 106.41346 59.843745 106.50977 60.566406 L 107.55469 60.566406 L 107.55469 56.876953 L 106.33398 56.876953 L 106.34961 57.480469 L 106.33398 57.480469 C 106.08786 57.258111 105.78375 57.08406 105.41992 56.958984 C 105.05609 56.833908 104.71853 56.771484 104.4082 56.771484 z M 67.392578 56.896484 C 67.253466 57.063252 66.975931 57.208908 66.558594 57.333984 C 66.141257 57.45906 65.594082 57.521484 64.919922 57.521484 L 64.919922 59.107422 L 66.044922 59.044922 C 66.012819 59.670302 65.996094 60.273734 65.996094 60.857422 L 65.996094 63.255859 C 65.996094 64.881848 66.198833 66.054682 66.605469 66.777344 C 67.022806 67.500005 67.707772 67.861328 68.660156 67.861328 C 69.120297 67.861328 69.532652 67.73648 69.896484 67.486328 C 70.271018 67.236176 70.656799 66.890027 71.052734 66.445312 L 71.068359 66.445312 L 71.164062 67.529297 L 74.214844 67.529297 L 74.214844 65.943359 C 73.861712 65.943359 73.514305 65.964167 73.171875 66.005859 C 73.214679 65.449966 73.234375 64.838947 73.234375 64.171875 L 73.234375 56.896484 L 72.351562 56.896484 C 72.21245 57.063252 71.934915 57.208908 71.517578 57.333984 C 71.110942 57.45906 70.570644 57.521484 69.896484 57.521484 L 69.896484 59.107422 L 71.019531 59.044922 C 70.976727 59.600815 70.955078 60.204247 70.955078 60.857422 L 70.955078 64.943359 C 70.762461 65.221306 70.523301 65.457781 70.234375 65.652344 C 69.95615 65.846906 69.681586 65.943359 69.414062 65.943359 C 69.018127 65.943359 68.730744 65.729646 68.548828 65.298828 C 68.366912 64.868011 68.275391 64.192615 68.275391 63.275391 L 68.275391 56.896484 L 67.392578 56.896484 z M 85.919922 56.896484 C 85.78081 57.063252 85.503275 57.208908 85.085938 57.333984 C 84.6686 57.45906 84.123379 57.521484 83.449219 57.521484 L 83.449219 59.107422 L 84.572266 59.044922 C 84.540163 59.670302 84.523438 60.273734 84.523438 60.857422 L 84.523438 63.255859 C 84.523438 64.881848 84.728129 66.054682 85.134766 66.777344 C 85.552103 67.500005 86.237069 67.861328 87.189453 67.861328 C 87.649594 67.861328 88.059996 67.73648 88.423828 67.486328 C 88.798361 67.236176 89.184143 66.890027 89.580078 66.445312 L 89.595703 66.445312 L 89.693359 67.529297 L 92.742188 67.529297 L 92.742188 65.943359 C 92.389056 65.943359 92.041649 65.964167 91.699219 66.005859 C 91.742023 65.449966 91.763672 64.838947 91.763672 64.171875 L 91.763672 56.896484 L 90.880859 56.896484 C 90.741747 57.063252 90.462259 57.208908 90.044922 57.333984 C 89.638286 57.45906 89.097988 57.521484 88.423828 57.521484 L 88.423828 59.107422 L 89.548828 59.044922 C 89.506024 59.600815 89.484375 60.204247 89.484375 60.857422 L 89.484375 64.943359 C 89.291758 65.221306 89.050644 65.457781 88.761719 65.652344 C 88.483494 65.846906 88.210883 65.943359 87.943359 65.943359 C 87.547424 65.943359 87.258088 65.729646 87.076172 65.298828 C 86.894256 64.868011 86.802734 64.192615 86.802734 63.275391 L 86.802734 56.896484 L 85.919922 56.896484 z M 79.177734 58.230469 C 80.023109 58.230469 80.462038 59.015538 80.494141 60.585938 L 77.539062 60.585938 C 77.62467 59.863276 77.802789 59.293873 78.070312 58.876953 C 78.348537 58.446136 78.717593 58.230469 79.177734 58.230469 z M 60.181641 58.292969 C 60.524071 58.292969 60.811454 58.425404 61.046875 58.689453 C 61.292997 58.953503 61.417969 59.434039 61.417969 60.128906 L 61.417969 65.005859 C 61.278856 65.297703 61.085966 65.534178 60.839844 65.714844 C 60.604423 65.895509 60.351508 65.986328 60.083984 65.986328 C 59.495432 65.986328 59.063381 65.59661 58.785156 64.818359 C 58.506932 64.040108 58.367188 63.122604 58.367188 62.066406 C 58.367188 60.996311 58.511856 60.107202 58.800781 59.398438 C 59.089707 58.675776 59.550285 58.306866 60.181641 58.292969 z M 44.449219 62.734375 L 44.449219 65.068359 C 44.085386 65.568664 43.663183 65.818359 43.181641 65.818359 C 42.924818 65.818359 42.705354 65.729494 42.523438 65.548828 C 42.352222 65.368163 42.265625 65.090072 42.265625 64.714844 C 42.265625 64.145053 42.470317 63.692911 42.876953 63.359375 C 43.29429 63.025839 43.817863 62.817759 44.449219 62.734375 z M 86.853516 107.21289 C 86.521786 107.21289 86.234403 107.38694 85.988281 107.73438 C 85.742159 108.06791 85.619141 108.47085 85.619141 108.94336 C 85.619141 109.41587 85.735282 109.81881 85.970703 110.15234 C 86.206124 110.47198 86.507261 110.63086 86.871094 110.63086 C 87.224225 110.63086 87.506684 110.47198 87.720703 110.15234 C 87.945423 109.8327 88.058594 109.42977 88.058594 108.94336 C 88.058594 108.45695 87.940499 108.04643 87.705078 107.71289 C 87.480358 107.37935 87.195946 107.21289 86.853516 107.21289 z M 21.787109 107.48438 L 21.787109 109.49023 L 23.349609 109.41211 C 23.29402 110.00275 23.267578 110.785 23.267578 111.75781 L 23.267578 121.73633 C 23.267578 122.41382 23.210788 122.90997 23.099609 123.22266 C 22.988431 123.53535 22.837141 123.74343 22.642578 123.84766 C 22.448015 123.93451 22.162338 123.98653 21.787109 124.00391 L 21.787109 125.72461 L 27.769531 125.72461 L 27.769531 123.7168 C 27.171946 123.7168 26.651746 123.74281 26.207031 123.79492 C 26.262621 123.20428 26.289063 122.42399 26.289062 121.45117 L 26.289062 111.4707 C 26.289063 110.79321 26.345853 110.29707 26.457031 109.98438 C 26.56821 109.67168 26.721453 109.47358 26.916016 109.38672 C 27.110578 109.28249 27.394303 109.2205 27.769531 109.20312 L 27.769531 107.48438 L 21.787109 107.48438 z M 34.076172 112.36133 C 33.680237 112.36133 33.272806 112.47296 32.855469 112.69531 C 32.438132 112.90377 32.064151 113.18186 31.732422 113.5293 L 31.699219 113.5293 C 31.656415 112.86222 31.636719 112.51412 31.636719 112.48633 L 30.849609 112.48633 C 30.710497 112.6531 30.431009 112.79875 30.013672 112.92383 C 29.596335 113.0489 29.051113 113.11133 28.376953 113.11133 L 28.376953 114.69727 L 29.5 114.63477 C 29.457196 115.19066 29.4375 115.78087 29.4375 116.40625 L 29.4375 119.9082 C 29.4375 120.56138 29.377476 121.03433 29.259766 121.32617 C 29.152756 121.61802 28.896871 121.76367 28.490234 121.76367 L 28.490234 123.11914 L 32.615234 123.11914 L 32.615234 121.5332 C 32.315608 121.5332 31.994774 121.55401 31.652344 121.5957 C 31.695148 121.03981 31.716797 120.42879 31.716797 119.76172 L 31.716797 115.05078 C 32.155536 114.53658 32.609236 114.2793 33.080078 114.2793 C 33.465312 114.29319 33.754649 114.48047 33.947266 114.8418 C 34.139883 115.18923 34.236328 115.79461 34.236328 116.65625 L 34.251953 119.9082 C 34.251953 120.56138 34.198806 121.03433 34.091797 121.32617 C 33.984787 121.61802 33.743674 121.76367 33.369141 121.76367 L 33.369141 123.11914 L 37.509766 123.11914 L 37.509766 121.5332 C 37.156634 121.5332 36.809227 121.55401 36.466797 121.5957 C 36.509601 121.03981 36.53125 120.42879 36.53125 119.76172 L 36.53125 116.96875 C 36.53125 116.2044 36.483027 115.54417 36.386719 114.98828 C 36.836159 114.52967 37.296736 114.30078 37.767578 114.30078 C 38.174214 114.30078 38.4852 114.48805 38.699219 114.86328 C 38.913238 115.22461 39.024455 115.84322 39.035156 116.71875 L 39.035156 119.9082 C 39.035156 120.54748 38.986934 121.02043 38.890625 121.32617 C 38.794316 121.61802 38.574852 121.76367 38.232422 121.76367 L 38.232422 123.11914 L 42.292969 123.11914 L 42.292969 121.5332 C 41.939837 121.5332 41.59243 121.55401 41.25 121.5957 C 41.292804 121.03981 41.314453 120.42879 41.314453 119.76172 L 41.314453 116.69727 C 41.314453 115.14076 41.094989 114.0284 40.65625 113.36133 C 40.228212 112.69426 39.56982 112.36133 38.681641 112.36133 C 38.264304 112.36133 37.820451 112.48618 37.349609 112.73633 C 36.878768 112.98648 36.45164 113.32136 36.066406 113.73828 C 35.873789 113.27967 35.611026 112.93915 35.279297 112.7168 C 34.958268 112.48054 34.557715 112.36133 34.076172 112.36133 z M 48.425781 112.36133 C 47.655313 112.36133 46.93885 112.73782 46.275391 113.48828 L 46.259766 113.48828 C 46.227663 113.05746 46.199136 112.72258 46.177734 112.48633 L 45.392578 112.48633 C 45.253466 112.6531 44.973978 112.79875 44.556641 112.92383 C 44.139304 113.0489 43.594082 113.11133 42.919922 113.11133 L 42.919922 114.69727 L 44.060547 114.63477 C 44.017743 115.19066 43.996094 115.78087 43.996094 116.40625 L 43.996094 125.22461 C 43.996094 125.87778 43.93607 126.34878 43.818359 126.64062 C 43.700649 126.93247 43.439839 127.07812 43.033203 127.07812 L 43.033203 128.43359 L 47.238281 128.43359 L 47.238281 126.84961 C 46.88515 126.84961 46.542667 126.87042 46.210938 126.91211 C 46.24304 126.28673 46.259766 125.67571 46.259766 125.07812 L 46.259766 123.07617 C 46.794813 123.32632 47.270163 123.45117 47.6875 123.45117 C 48.468669 123.45117 49.158559 123.20148 49.757812 122.70117 C 50.367767 122.20087 50.838192 121.51225 51.169922 120.63672 C 51.501651 119.74729 51.667969 118.74655 51.667969 117.63477 C 51.667969 116.57857 51.528225 115.65543 51.25 114.86328 C 50.982476 114.05724 50.603572 113.43863 50.111328 113.00781 C 49.629785 112.57699 49.067838 112.36133 48.425781 112.36133 z M 58.402344 112.36133 C 57.589071 112.36133 56.819462 113.00074 56.091797 114.2793 L 56.058594 114.2793 C 56.058594 113.95966 56.05367 113.63236 56.042969 113.29883 C 56.032268 112.96529 56.015543 112.69479 55.994141 112.48633 L 55.208984 112.48633 C 55.069872 112.6531 54.790384 112.79875 54.373047 112.92383 C 53.95571 113.0489 53.410488 113.11133 52.736328 113.11133 L 52.736328 114.69727 L 53.859375 114.63477 C 53.816571 115.19066 53.796875 115.78087 53.796875 116.40625 L 53.796875 119.9082 C 53.796875 120.56138 53.736851 121.03433 53.619141 121.32617 C 53.512131 121.61802 53.256246 121.76367 52.849609 121.76367 L 52.849609 123.11914 L 57.054688 123.11914 L 57.054688 121.5332 C 56.701556 121.5332 56.354149 121.55401 56.011719 121.5957 C 56.054523 121.03981 56.076172 120.42879 56.076172 119.76172 L 56.076172 116.36328 C 56.183181 115.91857 56.390844 115.47401 56.701172 115.0293 C 57.0222 114.57068 57.333186 114.3418 57.632812 114.3418 C 57.664915 114.78651 57.78301 115.09863 57.986328 115.2793 C 58.200347 115.45996 58.439507 115.55078 58.707031 115.55078 C 59.070864 115.55078 59.343474 115.39754 59.525391 115.0918 C 59.707307 114.78606 59.798828 114.45313 59.798828 114.0918 C 59.798828 113.52201 59.665961 113.09067 59.398438 112.79883 C 59.141615 112.50698 58.80898 112.36133 58.402344 112.36133 z M 64.289062 112.36133 C 63.507893 112.36133 62.811126 112.61861 62.201172 113.13281 C 61.591218 113.64701 61.115868 114.33563 60.773438 115.19727 C 60.441708 116.045 60.275391 116.95492 60.275391 117.92773 C 60.275391 119.03952 60.441708 120.01186 60.773438 120.8457 C 61.105167 121.67954 61.570669 122.32654 62.169922 122.78516 C 62.769175 123.22987 63.459065 123.45117 64.240234 123.45117 C 65.823975 123.45117 67.070888 122.60368 67.980469 120.9082 L 67.257812 120.0332 C 66.915382 120.5752 66.529601 120.97055 66.101562 121.2207 C 65.673524 121.47086 65.272971 121.5957 64.898438 121.5957 C 64.106567 121.5957 63.527895 121.24197 63.164062 120.5332 C 62.810931 119.82444 62.634766 118.85773 62.634766 117.63477 L 67.900391 117.50977 C 67.911092 115.66142 67.568609 114.34293 66.873047 113.55078 C 66.188186 112.75863 65.327055 112.36133 64.289062 112.36133 z M 72.042969 112.36133 C 71.37951 112.36133 70.817563 112.52779 70.357422 112.86133 C 69.907982 113.18097 69.570423 113.59908 69.345703 114.11328 C 69.131684 114.61359 69.025391 115.14896 69.025391 115.71875 C 69.025391 116.41362 69.158257 116.98302 69.425781 117.42773 C 69.704006 117.85855 70.014991 118.18389 70.357422 118.40625 C 70.699852 118.62861 71.213577 118.91429 71.898438 119.26172 C 72.476289 119.55356 72.86207 119.75601 73.054688 119.86719 C 73.247305 119.97837 73.411669 120.11644 73.550781 120.2832 C 73.689894 120.44997 73.759766 120.65805 73.759766 120.9082 C 73.759766 121.24174 73.648548 121.49902 73.423828 121.67969 C 73.209809 121.86035 72.95197 121.95117 72.652344 121.95117 C 71.978184 121.95117 71.406389 121.73551 70.935547 121.30469 C 70.475406 120.85997 70.217567 120.31701 70.164062 119.67773 L 69.121094 119.67773 L 69.185547 123.26367 L 70.40625 123.26367 L 70.357422 122.63867 L 70.373047 122.63867 C 70.619169 122.87493 70.961652 123.06979 71.400391 123.22266 C 71.83913 123.37553 72.287906 123.45117 72.748047 123.45117 C 73.261693 123.45117 73.738995 123.33391 74.177734 123.09766 C 74.627174 122.8475 74.986382 122.48618 75.253906 122.01367 C 75.532131 121.52727 75.669922 120.93705 75.669922 120.24219 C 75.669922 119.33886 75.423884 118.60863 74.931641 118.05273 C 74.450098 117.49684 73.755284 117.01067 72.845703 116.59375 C 72.631684 116.49647 72.49194 116.43968 72.427734 116.42578 C 71.871285 116.18953 71.475655 115.98145 71.240234 115.80078 C 71.004813 115.60622 70.886719 115.31491 70.886719 114.92578 C 70.886719 114.55055 70.988088 114.27246 71.191406 114.0918 C 71.394724 113.91113 71.647639 113.82031 71.947266 113.82031 C 72.525117 113.82031 73.010315 114.02839 73.40625 114.44531 C 73.802185 114.86223 74.048223 115.43359 74.144531 116.15625 L 75.189453 116.15625 L 75.189453 112.4668 L 73.96875 112.4668 L 73.984375 113.07031 L 73.96875 113.07031 C 73.722628 112.84796 73.41852 112.6739 73.054688 112.54883 C 72.690855 112.42375 72.353296 112.36133 72.042969 112.36133 z M 79.818359 112.36133 C 79.1549 112.36133 78.592953 112.52779 78.132812 112.86133 C 77.683373 113.18097 77.345814 113.59908 77.121094 114.11328 C 76.907075 114.61359 76.800781 115.14896 76.800781 115.71875 C 76.800781 116.41362 76.933648 116.98302 77.201172 117.42773 C 77.479397 117.85855 77.790382 118.18389 78.132812 118.40625 C 78.475243 118.62861 78.988967 118.91429 79.673828 119.26172 C 80.251679 119.55356 80.635508 119.75601 80.828125 119.86719 C 81.020742 119.97837 81.18706 120.11644 81.326172 120.2832 C 81.465284 120.44997 81.535156 120.65805 81.535156 120.9082 C 81.535156 121.24174 81.421986 121.49902 81.197266 121.67969 C 80.983247 121.86035 80.727361 121.95117 80.427734 121.95117 C 79.753574 121.95117 79.181779 121.73551 78.710938 121.30469 C 78.250797 120.85997 77.992958 120.31701 77.939453 119.67773 L 76.896484 119.67773 L 76.960938 123.26367 L 78.179688 123.26367 L 78.132812 122.63867 L 78.148438 122.63867 C 78.394559 122.87493 78.737042 123.06979 79.175781 123.22266 C 79.61452 123.37553 80.063297 123.45117 80.523438 123.45117 C 81.037083 123.45117 81.514386 123.33391 81.953125 123.09766 C 82.402565 122.8475 82.75982 122.48618 83.027344 122.01367 C 83.305568 121.52727 83.445312 120.93705 83.445312 120.24219 C 83.445312 119.33886 83.199275 118.60863 82.707031 118.05273 C 82.225488 117.49684 81.530675 117.01067 80.621094 116.59375 C 80.407075 116.49647 80.267331 116.43968 80.203125 116.42578 C 79.646676 116.18953 79.251046 115.98145 79.015625 115.80078 C 78.780204 115.60622 78.662109 115.31491 78.662109 114.92578 C 78.662109 114.55055 78.763479 114.27246 78.966797 114.0918 C 79.170115 113.91113 79.421077 113.82031 79.720703 113.82031 C 80.298554 113.82031 80.785705 114.02839 81.181641 114.44531 C 81.577576 114.86223 81.823613 115.43359 81.919922 116.15625 L 82.962891 116.15625 L 82.962891 112.4668 L 81.744141 112.4668 L 81.759766 113.07031 L 81.744141 113.07031 C 81.498019 112.84796 81.191957 112.6739 80.828125 112.54883 C 80.464293 112.42375 80.128687 112.36133 79.818359 112.36133 z M 93.726562 112.36133 C 92.988197 112.36133 92.308155 112.60539 91.6875 113.0918 C 91.077546 113.5782 90.592348 114.25923 90.228516 115.13477 C 89.864683 116.0103 89.681641 117.01103 89.681641 118.13672 C 89.681641 119.20681 89.857806 120.14513 90.210938 120.95117 C 90.564069 121.75722 91.05122 122.37387 91.671875 122.80469 C 92.29253 123.23551 92.994221 123.45117 93.775391 123.45117 C 94.55656 123.45117 95.24645 123.2147 95.845703 122.74219 C 96.455657 122.26968 96.926083 121.60382 97.257812 120.74219 C 97.600243 119.88055 97.771484 118.87223 97.771484 117.71875 C 97.771484 116.63476 97.595319 115.69081 97.242188 114.88477 C 96.889056 114.06482 96.406829 113.43863 95.796875 113.00781 C 95.186921 112.57699 94.497031 112.36133 93.726562 112.36133 z M 104.48828 112.36133 C 104.16725 112.36133 103.77655 112.48054 103.31641 112.7168 C 102.86697 112.93915 102.48611 113.20966 102.17578 113.5293 L 102.14453 113.5293 C 102.10173 112.86222 102.08008 112.51412 102.08008 112.48633 L 101.29297 112.48633 C 101.15386 112.6531 100.87632 112.79875 100.45898 112.92383 C 100.04165 113.0489 99.496426 113.11133 98.822266 113.11133 L 98.822266 114.69727 L 99.945312 114.63477 C 99.902509 115.19066 99.880859 115.78087 99.880859 116.40625 L 99.880859 119.9082 C 99.880859 120.56138 99.822789 121.03433 99.705078 121.32617 C 99.598069 121.61802 99.34023 121.76367 98.933594 121.76367 L 98.933594 123.11914 L 103.13867 123.11914 L 103.13867 121.5332 C 102.78554 121.5332 102.43813 121.55401 102.0957 121.5957 C 102.13851 121.03981 102.16016 120.42879 102.16016 119.76172 L 102.16016 115.05078 C 102.34207 114.82842 102.56646 114.64874 102.83398 114.50977 C 103.10151 114.35689 103.36427 114.2793 103.62109 114.2793 C 104.09194 114.2793 104.42457 114.49496 104.61719 114.92578 C 104.82051 115.3566 104.92188 116.03004 104.92188 116.94727 L 104.9375 119.9082 C 104.9375 120.56138 104.87943 121.03433 104.76172 121.32617 C 104.64401 121.61802 104.38125 121.76367 103.97461 121.76367 L 103.97461 123.11914 L 108.17969 123.11914 L 108.17969 121.5332 C 107.83726 121.5332 107.48985 121.55401 107.13672 121.5957 C 107.17952 121.03981 107.20117 120.42879 107.20117 119.76172 L 107.20117 116.96875 C 107.20117 115.34276 106.99156 114.16797 106.57422 113.44531 C 106.15688 112.72265 105.46207 112.36133 104.48828 112.36133 z M 112.14062 112.36133 C 111.47717 112.36133 110.91522 112.52779 110.45508 112.86133 C 110.00564 113.18097 109.66808 113.59908 109.44336 114.11328 C 109.22934 114.61359 109.12305 115.14896 109.12305 115.71875 C 109.12305 116.41362 109.25591 116.98302 109.52344 117.42773 C 109.80166 117.85855 110.11265 118.18389 110.45508 118.40625 C 110.79751 118.62861 111.31123 118.91429 111.99609 119.26172 C 112.57395 119.55356 112.95777 119.75601 113.15039 119.86719 C 113.34301 119.97837 113.50933 120.11644 113.64844 120.2832 C 113.78755 120.44997 113.85742 120.65805 113.85742 120.9082 C 113.85742 121.24174 113.74425 121.49902 113.51953 121.67969 C 113.30551 121.86035 113.04963 121.95117 112.75 121.95117 C 112.07584 121.95117 111.50404 121.73551 111.0332 121.30469 C 110.57306 120.85997 110.31522 120.31701 110.26172 119.67773 L 109.21875 119.67773 L 109.2832 123.26367 L 110.50195 123.26367 L 110.45508 122.63867 L 110.4707 122.63867 C 110.71682 122.87493 111.05931 123.06979 111.49805 123.22266 C 111.93679 123.37553 112.38556 123.45117 112.8457 123.45117 C 113.35935 123.45117 113.83665 123.33391 114.27539 123.09766 C 114.72483 122.8475 115.08209 122.48618 115.34961 122.01367 C 115.62783 121.52727 115.76758 120.93705 115.76758 120.24219 C 115.76758 119.33886 115.52154 118.60863 115.0293 118.05273 C 114.54775 117.49684 113.85294 117.01067 112.94336 116.59375 C 112.72934 116.49647 112.5896 116.43968 112.52539 116.42578 C 111.96894 116.18953 111.57331 115.98145 111.33789 115.80078 C 111.10247 115.60622 110.98438 115.31491 110.98438 114.92578 C 110.98438 114.55055 111.08574 114.27246 111.28906 114.0918 C 111.49238 113.91113 111.74334 113.82031 112.04297 113.82031 C 112.62082 113.82031 113.10797 114.02839 113.50391 114.44531 C 113.89984 114.86223 114.14588 115.43359 114.24219 116.15625 L 115.28516 116.15625 L 115.28516 112.4668 L 114.06641 112.4668 L 114.08203 113.07031 L 114.06641 113.07031 C 113.82028 112.84796 113.51422 112.6739 113.15039 112.54883 C 112.78656 112.42375 112.45095 112.36133 112.14062 112.36133 z M 86.966797 112.48633 C 86.827685 112.6531 86.55015 112.79875 86.132812 112.92383 C 85.715475 113.0489 85.168301 113.11133 84.494141 113.11133 L 84.494141 114.69727 L 85.619141 114.63477 C 85.576337 115.19066 85.554687 115.79409 85.554688 116.44727 L 85.554688 119.9082 C 85.554688 120.56138 85.494664 121.03433 85.376953 121.32617 C 85.269944 121.61802 85.014058 121.76367 84.607422 121.76367 L 84.607422 123.11914 L 88.8125 123.11914 L 88.8125 121.5332 C 88.459369 121.5332 88.111962 121.55401 87.769531 121.5957 C 87.812335 121.03981 87.833984 120.42879 87.833984 119.76172 L 87.833984 112.48633 L 86.966797 112.48633 z M 64.369141 113.82031 C 65.214516 113.82031 65.653444 114.60538 65.685547 116.17578 L 62.730469 116.17578 C 62.816076 115.45312 62.994195 114.88372 63.261719 114.4668 C 63.539943 114.03598 63.909 113.82031 64.369141 113.82031 z M 93.726562 113.82031 C 94.304414 113.82031 94.726617 114.25923 94.994141 115.13477 C 95.261664 116.0103 95.396484 117.04506 95.396484 118.24023 C 95.396484 119.31033 95.27839 120.19944 95.042969 120.9082 C 94.807548 121.61697 94.395193 121.97266 93.806641 121.97266 C 93.207387 121.97266 92.763535 121.54132 92.474609 120.67969 C 92.185684 119.81805 92.041016 118.78133 92.041016 117.57227 C 92.041016 116.51607 92.175836 115.62696 92.443359 114.9043 C 92.710883 114.18164 93.13801 113.82031 93.726562 113.82031 z M 47.607422 114.23828 C 48.174572 114.23828 48.596775 114.5996 48.875 115.32227 C 49.163926 116.04493 49.308594 116.92082 49.308594 117.94922 C 49.308594 120.57582 48.662003 121.88867 47.367188 121.88867 C 47.153168 121.88867 46.938628 121.85269 46.724609 121.7832 C 46.521291 121.69982 46.366775 121.61095 46.259766 121.51367 L 46.259766 115.1543 C 46.409579 114.87635 46.600517 114.65505 46.835938 114.48828 C 47.082059 114.32151 47.339898 114.23828 47.607422 114.23828 z M 41.597656 304.20312 C 41.41574 304.20312 41.239575 304.27314 41.068359 304.41211 C 40.897144 304.53719 40.752476 304.71687 40.634766 304.95312 L 39.318359 307.87305 L 40.056641 308.72656 L 42 306.51758 C 42.128411 306.36471 42.229781 306.17744 42.304688 305.95508 C 42.390295 305.73272 42.431641 305.51705 42.431641 305.30859 C 42.431641 304.97506 42.337148 304.68938 42.144531 304.45312 C 41.973316 304.28636 41.790273 304.20312 41.597656 304.20312 z M 62.861328 304.59961 C 62.529599 304.59961 62.240262 304.77366 61.994141 305.12109 C 61.748019 305.45463 61.625 305.85757 61.625 306.33008 C 61.625 306.80259 61.743095 307.20553 61.978516 307.53906 C 62.213937 307.8587 62.513121 308.01758 62.876953 308.01758 C 63.230084 308.01758 63.512543 307.8587 63.726562 307.53906 C 63.951282 307.21942 64.064453 306.81648 64.064453 306.33008 C 64.064453 305.84367 63.946358 305.43315 63.710938 305.09961 C 63.486218 304.76607 63.203759 304.59961 62.861328 304.59961 z M 67.951172 304.76562 C 67.81206 304.93239 67.534525 305.08 67.117188 305.20508 C 66.69985 305.33015 66.154629 305.39258 65.480469 305.39258 L 65.480469 306.97656 L 66.603516 306.91406 C 66.560712 307.45606 66.539062 308.05949 66.539062 308.72656 L 66.539062 317.29492 C 66.539062 317.73964 66.517413 318.08774 66.474609 318.33789 C 66.442507 318.58804 66.357862 318.78854 66.21875 318.94141 C 66.090339 319.08038 65.880723 319.15039 65.591797 319.15039 L 65.591797 320.50586 L 69.796875 320.50586 L 69.796875 318.91992 C 69.454445 318.91992 69.107038 318.94268 68.753906 318.98438 C 68.79671 318.42848 68.818359 317.81551 68.818359 317.14844 L 68.818359 304.76562 L 67.951172 304.76562 z M 27.853516 304.84375 L 21.787109 304.87109 L 21.787109 306.87695 L 23.349609 306.79883 C 23.29402 307.38947 23.267578 308.17172 23.267578 309.14453 L 23.267578 319.125 C 23.267578 319.8025 23.210788 320.29668 23.099609 320.60938 C 22.988431 320.92207 22.837141 321.13014 22.642578 321.23438 C 22.448015 321.32123 22.162338 321.37325 21.787109 321.39062 L 21.787109 323.11133 L 27.748047 323.11133 C 29.582496 323.11133 31.105385 322.65117 32.314453 321.73047 C 33.537419 320.80977 34.426528 319.64539 34.982422 318.23828 C 35.552213 316.8138 35.837891 315.3373 35.837891 313.80859 C 35.837891 312.29726 35.538992 310.85478 34.941406 309.48242 C 34.357718 308.11006 33.461022 306.99965 32.251953 306.14844 C 31.056782 305.27985 29.590683 304.84375 27.853516 304.84375 z M 27.603516 306.58984 C 29.173915 306.58984 30.390318 307.22406 31.251953 308.49219 C 32.113588 309.76032 32.542969 311.71497 32.542969 314.35547 C 32.542969 315.57149 32.384092 316.69989 32.064453 317.74219 C 31.758712 318.76712 31.278175 319.60139 30.625 320.24414 C 29.971825 320.88689 29.160314 321.20898 28.1875 321.20898 C 27.909553 321.20898 27.678712 321.20097 27.498047 321.18359 L 26.601562 321.15625 C 26.407 321.15625 26.276518 321.16622 26.207031 321.18359 C 26.262621 320.59296 26.289063 319.8107 26.289062 318.83789 L 26.289062 308.80469 C 26.289063 307.91873 26.387469 307.32852 26.582031 307.0332 C 26.790491 306.73788 27.131006 306.58984 27.603516 306.58984 z M 47.410156 307.47656 C 47.324549 307.85179 47.174957 308.24151 46.960938 308.64453 C 46.746918 309.04755 46.484156 309.38807 46.173828 309.66602 C 45.874202 309.94396 45.553368 310.08203 45.210938 310.08203 L 45.210938 311.8125 L 46.302734 311.8125 L 46.271484 316.83594 C 46.271484 319.50423 47.106042 320.83789 48.775391 320.83789 C 49.256933 320.83789 49.749008 320.70741 50.251953 320.44336 C 50.754898 320.16541 51.256821 319.54681 51.759766 318.58789 L 50.990234 317.64844 C 50.530093 318.48228 50.042943 318.90039 49.529297 318.90039 C 48.88724 318.90039 48.566406 318.22695 48.566406 316.87891 L 48.582031 311.75 L 50.621094 311.6875 L 50.621094 310.08203 L 48.582031 310.08203 L 48.597656 307.47656 L 47.410156 307.47656 z M 40.828125 309.74805 C 40.046956 309.74805 39.350189 310.00533 38.740234 310.51953 C 38.13028 311.03373 37.65493 311.72235 37.3125 312.58398 C 36.980771 313.43172 36.814453 314.34164 36.814453 315.31445 C 36.814453 316.42624 36.980771 317.39858 37.3125 318.23242 C 37.644229 319.06626 38.109731 319.71326 38.708984 320.17188 C 39.308238 320.61659 39.998127 320.83789 40.779297 320.83789 C 42.363038 320.83789 43.60995 319.9904 44.519531 318.29492 L 43.796875 317.41992 C 43.454445 317.96192 43.068663 318.35727 42.640625 318.60742 C 42.212587 318.85757 41.812033 318.98438 41.4375 318.98438 C 40.64563 318.98438 40.066957 318.62869 39.703125 317.91992 C 39.349994 317.21116 39.173828 316.2464 39.173828 315.02344 L 44.439453 314.89844 C 44.450154 313.05009 44.107671 311.72965 43.412109 310.9375 C 42.727249 310.14535 41.866117 309.74805 40.828125 309.74805 z M 55.775391 309.74805 C 55.154735 309.74805 54.580987 309.86726 54.056641 310.10352 C 53.542995 310.32587 53.137517 310.64558 52.837891 311.0625 C 52.538264 311.47942 52.388672 311.958 52.388672 312.5 C 52.388672 312.90302 52.47824 313.24354 52.660156 313.52148 C 52.842072 313.78553 53.094987 313.91797 53.416016 313.91797 C 53.758446 313.91797 54.014332 313.78553 54.185547 313.52148 C 54.367463 313.25743 54.458984 312.95854 54.458984 312.625 C 54.458984 312.29146 54.394036 312.02855 54.265625 311.83398 C 54.565252 311.44486 54.951033 311.25 55.421875 311.25 C 56.14954 311.25 56.513672 311.88183 56.513672 313.14648 L 56.513672 314.23047 C 55.283063 314.29996 54.22904 314.65369 53.351562 315.29297 C 52.474085 315.91835 52.035156 316.84344 52.035156 318.06641 C 52.035156 318.87245 52.228047 319.54026 52.613281 320.06836 C 53.009216 320.58256 53.54459 320.83789 54.21875 320.83789 C 55.149733 320.83789 55.940992 320.40851 56.59375 319.54688 L 56.609375 319.54688 C 56.630777 320.00549 56.652426 320.32519 56.673828 320.50586 L 59.707031 320.50586 L 59.707031 318.91992 C 59.364601 318.91992 59.017194 318.94268 58.664062 318.98438 C 58.706866 318.42848 58.728516 317.81551 58.728516 317.14844 L 58.744141 313.73047 C 58.744141 311.07608 57.755066 309.74805 55.775391 309.74805 z M 73.849609 309.74805 C 73.18615 309.74805 72.624203 309.91451 72.164062 310.24805 C 71.714623 310.56769 71.379017 310.9858 71.154297 311.5 C 70.940278 312.0003 70.832031 312.53568 70.832031 313.10547 C 70.832031 313.80034 70.966851 314.36974 71.234375 314.81445 C 71.5126 315.24527 71.821632 315.57256 72.164062 315.79492 C 72.506493 316.01728 73.020217 316.301 73.705078 316.64844 C 74.282929 316.94028 74.668711 317.14273 74.861328 317.25391 C 75.053945 317.36508 75.220263 317.50315 75.359375 317.66992 C 75.498487 317.83669 75.568359 318.04477 75.568359 318.29492 C 75.568359 318.62846 75.455189 318.88574 75.230469 319.06641 C 75.01645 319.24707 74.760564 319.33789 74.460938 319.33789 C 73.786778 319.33789 73.213029 319.12222 72.742188 318.69141 C 72.282047 318.24669 72.026161 317.70568 71.972656 317.06641 L 70.929688 317.06641 L 70.994141 320.65039 L 72.212891 320.65039 L 72.164062 320.02539 L 72.181641 320.02539 C 72.427762 320.26165 72.770245 320.4565 73.208984 320.60938 C 73.647723 320.76225 74.0965 320.83789 74.556641 320.83789 C 75.070286 320.83789 75.545636 320.72063 75.984375 320.48438 C 76.433815 320.23422 76.793023 319.8729 77.060547 319.40039 C 77.338772 318.91398 77.478516 318.32377 77.478516 317.62891 C 77.478516 316.72558 77.232478 315.99535 76.740234 315.43945 C 76.258692 314.88356 75.561925 314.39739 74.652344 313.98047 C 74.438325 313.88319 74.300534 313.82835 74.236328 313.81445 C 73.679879 313.5782 73.284249 313.36817 73.048828 313.1875 C 72.813407 312.99294 72.695312 312.70163 72.695312 312.3125 C 72.695312 311.93727 72.796682 311.65918 73 311.47852 C 73.203318 311.29785 73.45428 311.20703 73.753906 311.20703 C 74.331758 311.20703 74.818909 311.41706 75.214844 311.83398 C 75.610779 312.2509 75.856816 312.82031 75.953125 313.54297 L 76.996094 313.54297 L 76.996094 309.85352 L 75.777344 309.85352 L 75.792969 310.45703 L 75.777344 310.45703 C 75.531222 310.23467 75.22516 310.06062 74.861328 309.93555 C 74.497496 309.81047 74.159937 309.74805 73.849609 309.74805 z M 62.972656 309.87305 C 62.833544 310.03981 62.556009 310.18547 62.138672 310.31055 C 61.721335 310.43562 61.17416 310.5 60.5 310.5 L 60.5 312.08398 L 61.625 312.02148 C 61.582196 312.57738 61.560547 313.18081 61.560547 313.83398 L 61.560547 317.29492 C 61.560547 317.9481 61.500523 318.42105 61.382812 318.71289 C 61.275803 319.00473 61.019917 319.15039 60.613281 319.15039 L 60.613281 320.50586 L 64.818359 320.50586 L 64.818359 318.91992 C 64.465228 318.91992 64.117821 318.94268 63.775391 318.98438 C 63.818194 318.42848 63.839844 317.81551 63.839844 317.14844 L 63.839844 309.87305 L 62.972656 309.87305 z M 40.908203 311.20703 C 41.753578 311.20703 42.192507 311.9921 42.224609 313.5625 L 39.269531 313.5625 C 39.355139 312.83984 39.533257 312.27044 39.800781 311.85352 C 40.079006 311.4227 40.448062 311.20703 40.908203 311.20703 z M 56.498047 315.71094 L 56.498047 318.04492 C 56.134215 318.54523 55.710058 318.79492 55.228516 318.79492 C 54.971693 318.79492 54.752229 318.70606 54.570312 318.52539 C 54.399097 318.34473 54.314453 318.06663 54.314453 317.69141 C 54.314453 317.12162 54.517192 316.66947 54.923828 316.33594 C 55.341165 316.0024 55.866691 315.79432 56.498047 315.71094 z "
   id="text185" />
</svg>