<?xml version="1.0" encoding="UTF-8" standalone="no"?>
<!-- Generator: Adobe Illustrator 16.0.0, SVG Export Plug-In . SVG Version: 6.00 Build 0)  -->

<svg
   xmlns:dc="http://purl.org/dc/elements/1.1/"
   xmlns:cc="http://creativecommons.org/ns#"
   xmlns:rdf="http://www.w3.org/1999/02/22-rdf-syntax-ns#"
   xmlns:svg="http://www.w3.org/2000/svg"
   xmlns="http://www.w3.org/2000/svg"
   xmlns:sodipodi="http://sodipodi.sourceforge.net/DTD/sodipodi-0.dtd"
   xmlns:inkscape="http://www.inkscape.org/namespaces/inkscape"
   version="1.1"
   id="Fond"
   x="0px"
   y="0px"
   width="446.25"
   height="623.625"
   viewBox="0 0 446.25 623.62501"
   enable-background="new 0 0 178.58 249.45"
   xml:space="preserve"
   sodipodi:docname="ETS-Type1-Libelles-Outline.svg"
   inkscape:version="0.92.0 r15299"><metadata
   id="metadata336"><rdf:RDF><cc:Work
       rdf:about=""><dc:format>image/svg+xml</dc:format><dc:type
         rdf:resource="http://purl.org/dc/dcmitype/StillImage" /><dc:title /></cc:Work></rdf:RDF></metadata><defs
   id="defs334">
	
	

	
	
	

		
		
		
		
		
			

		
			

		

		

	
		
		
		
		
			

		
			

		

		

	
		
		
		
		
			

		
			

		

		

	</defs><sodipodi:namedview
   pagecolor="#ffffff"
   bordercolor="#666666"
   borderopacity="1"
   objecttolerance="10"
   gridtolerance="10"
   guidetolerance="10"
   inkscape:pageopacity="0"
   inkscape:pageshadow="2"
   inkscape:window-width="1280"
   inkscape:window-height="961"
   id="namedview332"
   showgrid="false"
   inkscape:zoom="2.2615088"
   inkscape:cx="144.80584"
   inkscape:cy="433.62236"
   inkscape:window-x="1272"
   inkscape:window-y="-8"
   inkscape:window-maximized="1"
   inkscape:current-layer="Fond" />

<path
   style="color:#000000;font-style:normal;font-variant:normal;font-weight:bold;font-stretch:normal;font-size:23.30654526px;line-height:29.13318062px;font-family:Lora;-inkscape-font-specification:'Lora Bold';font-variant-ligatures:normal;font-variant-position:normal;font-variant-caps:normal;font-variant-numeric:normal;font-variant-alternates:normal;font-feature-settings:normal;text-indent:0;text-align:start;text-decoration:none;text-decoration-line:none;text-decoration-style:solid;text-decoration-color:#000000;letter-spacing:normal;word-spacing:normal;text-transform:none;writing-mode:lr-tb;direction:ltr;text-orientation:mixed;dominant-baseline:auto;baseline-shift:baseline;text-anchor:start;white-space:normal;shape-padding:0;clip-rule:nonzero;display:inline;overflow:visible;visibility:visible;opacity:1;isolation:auto;mix-blend-mode:normal;color-interpolation:sRGB;color-interpolation-filters:linearRGB;solid-color:#000000;solid-opacity:1;vector-effect:none;fill:#be0a26;fill-opacity:1;fill-rule:nonzero;stroke:none;stroke-width:2.91331816;stroke-linecap:round;stroke-linejoin:round;stroke-miterlimit:10;stroke-dasharray:none;stroke-dashoffset:0;stroke-opacity:1;color-rendering:auto;image-rendering:auto;shape-rendering:auto;text-rendering:auto;enable-background:accumulate"
   d="m 21.849609,50.4375 a 1.4568047,1.4568047 0 0 0 -1.457031,1.457031 v 2.00586 a 1.4568047,1.4568047 0 0 0 1.507813,1.455078 c -0.008,0.303735 -0.01844,0.374809 -0.02734,0.78125 a 1.4568047,1.4568047 0 0 0 0,0.01367 l -0.125,9.978515 a 1.4568047,1.4568047 0 0 0 0,0.01758 c 0,0.484116 -0.04739,0.693223 -0.06836,0.810547 -0.01687,0.0012 -0.0035,0.0011 -0.02148,0.002 a 1.4568047,1.4568047 0 0 0 -1.390625,1.455078 v 1.720704 a 1.4568047,1.4568047 0 0 0 1.457031,1.457031 h 4.751953 a 1.4568047,1.4568047 0 0 0 1.339844,-0.890625 l 0.04883,0.148437 A 1.4568047,1.4568047 0 0 0 29.25,71.851562 h 1.939453 A 1.4568047,1.4568047 0 0 0 32.583984,70.8125 l 0.294922,-0.984375 v 0.306641 a 1.4568047,1.4568047 0 0 0 1.457032,1.457031 h 5.794921 a 1.4568047,1.4568047 0 0 0 1.457032,-1.457031 v -0.953125 c 0.197555,0.03545 0.383463,0.136718 0.582031,0.136718 0.640691,0 1.255653,-0.190324 1.826172,-0.474609 A 1.4568047,1.4568047 0 0 0 44.625,68.986328 h 3.035156 a 1.4568047,1.4568047 0 0 0 0.451172,-0.07422 1.4568047,1.4568047 0 0 0 0.453125,0.07422 h 4.207031 a 1.4568047,1.4568047 0 0 0 1.457032,-1.457031 v -1.585938 a 1.4568047,1.4568047 0 0 0 -0.994141,-1.378906 c 0.0018,-0.136837 0.01367,-0.251599 0.01367,-0.392578 v -3.142578 c 0.0033,-0.01155 0.01591,-0.02733 0.01953,-0.03906 0.370811,0.196859 0.74084,0.427735 1.15625,0.427735 0.112383,0 0.226047,-0.07755 0.341797,-0.09766 -0.05086,0.432644 -0.214843,0.811833 -0.214844,1.267579 0,1.178359 0.146907,2.264591 0.47461,3.251953 a 1.4568047,1.4568047 0 0 0 0.0078,0.02344 c 0.338347,0.963325 0.837755,1.804825 1.544922,2.4375 a 1.4568047,1.4568047 0 0 0 0.01172,0.0098 c 0.728009,0.637161 1.691904,1.007812 2.660156,1.007812 0.249582,0 0.470866,-0.134094 0.712891,-0.183593 l -0.002,0.492187 a 1.4568047,1.4568047 0 0 0 0,0.0078 c 0,0.32754 -0.02075,0.35681 -0.04297,0.505859 a 1.4568047,1.4568047 0 0 0 -0.904297,1.347656 v 1.355469 a 1.4568047,1.4568047 0 0 0 1.457031,1.457031 h 4.205078 a 1.4568047,1.4568047 0 0 0 1.457031,-1.457031 v -1.583984 a 1.4568047,1.4568047 0 0 0 -0.992187,-1.378907 c 0.0018,-0.136836 0.01367,-0.251599 0.01367,-0.392578 v -2.535156 c 0.07232,0.171156 0.09087,0.377753 0.181641,0.539063 a 1.4568047,1.4568047 0 0 0 0.0078,0.01367 c 0.657372,1.138305 1.995596,1.8125 3.316406,1.8125 0.617492,0 1.215705,-0.235771 1.759766,-0.539062 a 1.4568047,1.4568047 0 0 0 0.74414,0.207031 h 3.050782 a 1.4568047,1.4568047 0 0 0 1.439453,-1.238281 c 0.173164,0.177249 0.242425,0.452729 0.439453,0.603515 a 1.4568047,1.4568047 0 0 0 0.01758,0.01367 c 0.843181,0.625738 1.881222,0.953125 2.9375,0.953125 1.850089,0 3.408926,-1.122274 4.511719,-2.730468 0.102276,0.299317 0.152515,0.633861 0.304687,0.904297 a 1.4568047,1.4568047 0 0 0 0.0078,0.01367 c 0.657371,1.138305 1.995596,1.8125 3.316406,1.8125 0.618654,0 1.218191,-0.235225 1.761719,-0.539062 a 1.4568047,1.4568047 0 0 0 0.742187,0.207031 h 3.048829 a 1.4568047,1.4568047 0 0 0 0.513671,-0.0957 1.4568047,1.4568047 0 0 0 0.517579,0.0957 h 4.205078 a 1.4568047,1.4568047 0 0 0 1.457031,-1.457031 v -1.585938 a 1.4568047,1.4568047 0 0 0 -0.994141,-1.378906 c 0.0017,-0.136468 0.01367,-0.252168 0.01367,-0.392578 v -3.142578 c 0.0033,-0.01155 0.01591,-0.02733 0.01953,-0.03906 0.370811,0.196859 0.74084,0.427735 1.15625,0.427735 0.191347,0 0.384821,-0.109766 0.582031,-0.166016 0.0953,0.452387 0.0906,0.937883 0.33008,1.335938 a 1.4568047,1.4568047 0 0 0 0.0234,0.04102 c 0.0517,0.08006 0.13829,0.122424 0.19336,0.199219 a 1.4568047,1.4568047 0 0 0 -0.73047,1.285156 l 0.0644,3.585938 a 1.4568047,1.4568047 0 0 0 1.45703,1.43164 h 1.2207 a 1.4568047,1.4568047 0 0 0 0.56446,-0.115234 c 6.1e-4,2.08e-4 0.001,-2.08e-4 0.002,0 0.57439,0.194155 1.17279,0.302734 1.77539,0.302734 0.73534,0 1.47122,-0.177393 2.1211,-0.527343 a 1.4568047,1.4568047 0 0 0 0.0176,-0.0098 c 0.68161,-0.379372 1.24439,-0.958114 1.62891,-1.634766 v -0.002 c 0.42532,-0.744371 0.61133,-1.602671 0.61133,-2.492187 0,-1.094817 -0.3415,-2.143385 -1,-2.972656 a 1.4568047,1.4568047 0 0 0 0.51953,-1.113282 v -3.689453 a 1.4568047,1.4568047 0 0 0 -1.45703,-1.457031 h -1.22071 a 1.4568047,1.4568047 0 0 0 -0.60351,0.132812 c -0.43385,-0.135141 -0.87182,-0.238281 -1.32227,-0.238281 -0.90436,0 -1.80441,0.249576 -2.5332,0.775391 -0.14251,0.101708 -0.19712,0.284535 -0.32617,0.402344 -0.0572,-0.07966 -0.0751,-0.175223 -0.14258,-0.25 -0.51064,-0.574913 -1.32906,-0.927735 -2.080078,-0.927735 -0.537014,0 -0.962454,0.287408 -1.40625,0.525391 a 1.4568047,1.4568047 0 0 0 -1.001953,-0.400391 h -0.785157 a 1.4568047,1.4568047 0 0 0 -1.11914,0.523438 c 0.208386,-0.249815 0.155984,-0.110575 -0.134766,-0.02344 -0.210809,0.06318 -0.63451,0.125 -1.21875,0.125 a 1.4568047,1.4568047 0 0 0 -0.615234,0.138672 1.4568047,1.4568047 0 0 0 -1.28125,-0.763672 h -0.882813 a 1.4568047,1.4568047 0 0 0 -1.11914,0.523438 c 0.208386,-0.249815 0.155983,-0.110575 -0.134766,-0.02344 a 1.4568047,1.4568047 0 0 0 -0.0098,0.002 c -0.190254,0.05852 -0.60912,0.123047 -1.19336,0.123047 a 1.4568047,1.4568047 0 0 0 -0.390625,0.05664 1.4568047,1.4568047 0 0 0 -1.230469,-0.681641 h -0.882812 a 1.4568047,1.4568047 0 0 0 -1.119141,0.523438 c 0.204091,-0.244665 0.15674,-0.110217 -0.132812,-0.02344 -0.210812,0.06318 -0.63451,0.125 -1.21875,0.125 a 1.4568047,1.4568047 0 0 0 -1.158203,0.574219 c -0.887585,-0.794115 -1.992572,-1.324219 -3.19336,-1.324219 -1.101009,0 -2.182498,0.403015 -3.027344,1.115235 -0.609942,0.51419 -0.993625,1.249903 -1.378906,1.976562 v -1.509766 a 1.4568047,1.4568047 0 0 0 -1.457031,-1.457031 h -0.882813 a 1.4568047,1.4568047 0 0 0 -1.11914,0.523438 c 0.204091,-0.244665 0.15674,-0.110217 -0.132813,-0.02344 a 1.4568047,1.4568047 0 0 0 -0.0098,0.002 c -0.190254,0.05852 -0.609119,0.123047 -1.19336,0.123047 a 1.4568047,1.4568047 0 0 0 -0.390625,0.05664 1.4568047,1.4568047 0 0 0 -1.230468,-0.681641 h -0.882813 a 1.4568047,1.4568047 0 0 0 -1.11914,0.523438 c 0.20409,-0.244665 0.156739,-0.110217 -0.132813,-0.02344 -0.209612,0.06282 -0.636463,0.125 -1.220703,0.125 a 1.4568047,1.4568047 0 0 0 -0.02734,0.002 1.4568047,1.4568047 0 0 0 -1.195312,-0.626953 h -0.867188 a 1.4568047,1.4568047 0 0 0 -0.787109,0.232422 c -0.297695,-0.09406 -0.584036,-0.175905 -0.851563,-0.236328 -0.37576,-0.08487 -0.762998,-0.121094 -1.169922,-0.121094 -1.098083,0 -2.177598,0.38309 -3.027343,1.080078 -0.175704,0.144119 -0.232666,0.401383 -0.388672,0.566407 -0.114187,-0.248941 -0.212694,-0.504232 -0.40625,-0.71875 -0.510645,-0.574934 -1.32906,-0.927735 -2.080078,-0.927735 -0.537015,0 -0.962454,0.287408 -1.40625,0.525391 a 1.4568047,1.4568047 0 0 0 -1.001953,-0.400391 h -0.785157 a 1.4568047,1.4568047 0 0 0 -1.11914,0.523438 c 0.208386,-0.249815 0.155983,-0.110575 -0.134766,-0.02344 -0.210809,0.06318 -0.63451,0.125 -1.21875,0.125 a 1.4568047,1.4568047 0 0 0 -1.322266,0.851563 c -0.0043,-0.0059 -0.0054,-0.01367 -0.0098,-0.01953 -0.773399,-1.036692 -2.078969,-1.582031 -3.394532,-1.582031 -0.802478,0 -1.585519,0.16241 -2.300781,0.482422 -0.638004,0.27754 -1.172381,0.740892 -1.613281,1.275391 l -0.03906,-1.236328 0.002,0.01562 c -0.0098,-0.477635 0.0328,-0.66973 0.04883,-0.777343 0.03978,-0.005 0.0082,-0.0034 0.06055,-0.0059 a 1.4568047,1.4568047 0 0 0 1.390625,-1.455078 v -1.71875 A 1.4568047,1.4568047 0 0 0 39.818359,50.4375 h -4.814453 a 1.4568047,1.4568047 0 0 0 -1.394531,1.037109 l -2.824219,9.402344 -2.9375,-9.416015 A 1.4568047,1.4568047 0 0 0 26.457031,50.4375 Z m 16.511719,2.025391 v 0.01367 0.002 c -0.02335,0.01092 -0.0469,0.0039 -0.07031,0.01563 z m -13.572266,0.888671 h 0.595704 L 25.820312,54.75 a 1.4568047,1.4568047 0 0 0 -0.84375,-0.273438 h -0.02148 a 1.4568047,1.4568047 0 0 0 -0.109375,0.0059 c 0.0051,-0.10571 0.01445,-0.49021 0.01758,-0.523438 a 1.4568047,1.4568047 0 0 0 -0.07422,-0.607422 z m 11.298829,0 h 1.496093 c -0.140564,0.207622 -0.419792,0.345583 -0.49414,0.554688 -0.208466,0.586308 -0.214552,1.15177 -0.207032,1.8125 a 1.4568047,1.4568047 0 0 0 -1.193359,-1.042969 z m 26.02539,4.34375 0.02148,0.02539 c -0.0023,-0.0026 -0.0075,-0.0014 -0.0098,-0.0039 -0.0062,-0.0067 -0.0054,-0.01476 -0.01172,-0.02148 z m -35.0625,0.996094 1.16211,3.720703 c 0.155944,0.506904 0.327766,1.091296 0.5,1.677735 l -0.892579,-2.722656 a 1.4568047,1.4568047 0 0 0 -0.0078,-0.01758 C 27.62493,60.80253 27.382378,59.974828 27.097656,58.908203 l -0.002,-0.0078 c -9.01e-4,-0.0034 -0.0011,-0.0044 -0.002,-0.0078 -0.01675,-0.06604 -0.02653,-0.135007 -0.04297,-0.201172 z m 66.169922,1.802735 a 1.4568047,1.4568047 0 0 0 0.05273,0.01758 c -0.0012,0.104993 -0.01172,0.198036 -0.01172,0.304687 v 3.501953 c 0,0.167426 -0.01051,0.131168 -0.02148,0.257813 a 1.4568047,1.4568047 0 0 0 -0.0332,-0.01172 c 0.0018,-0.136836 0.01367,-0.251599 0.01367,-0.392578 z m -52.763672,0.636718 c -0.0012,8.42e-4 -7.73e-4,0.0031 -0.002,0.0039 -0.0028,0.0021 -0.0069,0.0018 -0.0098,0.0039 z m 19.503907,0.04883 v 1.818359 c -0.03946,-0.322871 -0.136719,-0.549503 -0.136719,-0.931641 0,-0.393199 0.09537,-0.574999 0.136719,-0.886718 z m -16.59961,0.158203 -0.02344,0.0332 c 0.0036,-0.0052 0.0023,-0.01238 0.0059,-0.01758 0.0042,-0.0064 0.01343,-0.0092 0.01758,-0.01563 z m 39.710938,1.992187 c 7.2e-5,0.02378 0.0038,0.04082 0.0039,0.06445 a 1.4568047,1.4568047 0 0 0 -0.05859,-0.05273 1.4568047,1.4568047 0 0 0 0.05469,-0.01172 z m -2.039063,0.08789 a 1.4568047,1.4568047 0 0 0 -0.199219,0.248047 c -0.249407,0.394761 -0.478225,0.601849 -0.658203,0.707031 -0.268536,0.156937 -0.417926,0.175781 -0.46875,0.175781 -0.351326,0 -0.27674,0.04003 -0.43164,-0.265625 -0.07424,-0.150313 -0.07786,-0.577352 -0.136719,-0.818359 z m -46.707031,1.576172 0.03516,1.195312 -0.002,-0.01367 c 0.0098,0.476596 -0.03392,0.670661 -0.05078,0.779297 -0.02893,0.0026 -0.0063,0.0024 -0.03906,0.0039 a 1.4568047,1.4568047 0 0 0 -0.576172,0.148438 z m -7.900391,1.472656 0.06641,0.203125 a 1.4568047,1.4568047 0 0 0 -0.01563,0 c -0.02218,0 -0.03851,0.0038 -0.06055,0.0039 0.0018,-0.07553 0.0085,-0.12798 0.0098,-0.207031 z m 44.642578,0.378906 -0.01953,0.01563 c 0.0054,-0.0036 0.0083,-0.01 0.01367,-0.01367 0.0016,-0.0011 0.0042,-8.1e-4 0.0059,-0.002 z m 18.527344,0 -0.01953,0.01563 c 0.0054,-0.0036 0.0083,-0.01003 0.01367,-0.01367 0.0016,-0.0011 0.0042,-8.15e-4 0.0059,-0.002 z m -27.869141,0.02539 -0.02539,0.01758 c 0.0042,-0.003 0.0056,-0.0087 0.0098,-0.01172 0.0043,-0.0033 0.01133,-0.0026 0.01562,-0.0059 z m -32.033203,0.201172 a 1.4568047,1.4568047 0 0 0 0.833985,0.457031 l -0.326172,1.089844 z m 77.035161,0.130859 -0.0273,0.02148 c 0.004,-0.0032 0.002,-0.0104 0.006,-0.01367 0.006,-0.0049 0.0156,-0.0028 0.0215,-0.0078 z M 37.125,67.400391 c -0.01424,0.183826 0.0038,0.4355 -0.01953,0.597656 a 1.4568047,1.4568047 0 0 0 0.06445,0.679687 h -0.589844 c 0.132644,-0.203704 0.389631,-0.350596 0.462891,-0.55664 0.08223,-0.231273 0.04617,-0.49127 0.08203,-0.720703 z m 32.587891,0.257812 a 1.4568047,1.4568047 0 0 0 0.04492,0.244141 h -0.02344 z m 18.529297,0.002 a 1.4568047,1.4568047 0 0 0 0.04492,0.242188 h -0.02344 z m -1.388672,38.095704 c -0.834348,0 -1.615879,0.53226 -2.041016,1.12305 -0.43692,0.59652 -0.650391,1.34261 -0.650391,2.06445 0,0.7112 0.195141,1.44813 0.619141,2.04883 a 1.4568047,1.4568047 0 0 0 0.01563,0.0234 c 0.159364,0.21638 0.408053,0.3763 0.644531,0.54102 -0.235804,0.0465 -0.49387,0.0977 -0.947265,0.0977 a 1.4568047,1.4568047 0 0 0 -0.302735,0.0332 1.4568047,1.4568047 0 0 0 -1.228515,-0.67773 h -1.21875 a 1.4568047,1.4568047 0 0 0 -0.603516,0.13281 c -0.433241,-0.13518 -0.87126,-0.23828 -1.322266,-0.23828 -0.904361,0 -1.804402,0.24956 -2.533203,0.77539 -0.278898,0.19904 -0.413684,0.5298 -0.638672,0.78711 a 1.4568047,1.4568047 0 0 0 -1.457031,-1.45703 H 73.96875 a 1.4568047,1.4568047 0 0 0 -0.603516,0.13281 c -0.433857,-0.13515 -0.871835,-0.23828 -1.322265,-0.23828 -0.904362,0 -1.804403,0.24956 -2.533203,0.77539 -0.538743,0.38449 -0.911467,0.94374 -1.232422,1.52148 -0.12204,-0.1892 -0.158589,-0.43626 -0.308594,-0.60742 -0.922261,-1.06356 -2.272383,-1.68945 -3.679688,-1.68945 -1.101005,0 -2.182496,0.40301 -3.027343,1.11523 -0.164412,0.1386 -0.223098,0.37722 -0.371094,0.5332 -0.114322,-0.24982 -0.214018,-0.50549 -0.408203,-0.7207 -0.510652,-0.57495 -1.329074,-0.92773 -2.080078,-0.92773 -0.537013,0 -0.962454,0.2874 -1.40625,0.52539 a 1.4568047,1.4568047 0 0 0 -1.001953,-0.40039 h -0.785157 a 1.4568047,1.4568047 0 0 0 -1.11914,0.52343 c 0.208397,-0.24983 0.156002,-0.11058 -0.134766,-0.0234 -0.210835,0.0632 -0.634518,0.125 -1.21875,0.125 a 1.4568047,1.4568047 0 0 0 -1.310547,0.82422 c -0.142508,-0.16677 -0.188005,-0.41736 -0.353515,-0.5625 -0.720288,-0.64055 -1.682061,-1.01172 -2.646485,-1.01172 -0.508467,0 -0.982892,0.17167 -1.445312,0.36718 a 1.4568047,1.4568047 0 0 0 -0.802735,-0.24218 h -0.785156 a 1.4568047,1.4568047 0 0 0 -1.11914,0.52343 c 0.208397,-0.24983 0.156002,-0.11058 -0.134766,-0.0234 -0.210835,0.0632 -0.634519,0.125 -1.21875,0.125 a 1.4568047,1.4568047 0 0 0 -1.257813,0.72461 c -0.705804,-0.90428 -1.827952,-1.47461 -2.980468,-1.47461 -0.707852,0 -1.387168,0.21103 -2.015625,0.54492 -0.143658,0.0763 -0.248044,0.21109 -0.384766,0.29883 -0.07184,-0.0594 -0.09241,-0.16159 -0.169922,-0.21485 -0.593804,-0.42659 -1.324136,-0.6289 -2.035156,-0.6289 -0.551001,0 -1.068742,0.19587 -1.56836,0.41601 a 1.4568047,1.4568047 0 0 0 -0.871093,-0.29101 h -0.78711 a 1.4568047,1.4568047 0 0 0 -1.11914,0.52343 c 0.208397,-0.24983 0.156002,-0.11058 -0.134766,-0.0234 -0.210835,0.0632 -0.634518,0.125 -1.21875,0.125 a 1.4568047,1.4568047 0 0 0 -0.630859,0.14648 v -0.33008 c 0,-0.48411 0.04739,-0.69322 0.06836,-0.81054 0.02185,-0.002 -0.0015,-8e-4 0.02344,-0.002 a 1.4568047,1.4568047 0 0 0 1.388671,-1.45508 v -1.71874 a 1.4568047,1.4568047 0 0 0 -1.457031,-1.45704 h -5.982422 a 1.4568047,1.4568047 0 0 0 -1.457031,1.45704 v 2.00585 a 1.4568047,1.4568047 0 0 0 1.509766,1.45508 c -0.0059,0.28897 -0.0293,0.48545 -0.0293,0.8125 v 9.97852 c 0,0.48411 -0.04739,0.69322 -0.06836,0.81055 -0.01818,0.001 -0.0039,0.001 -0.02344,0.002 a 1.4568047,1.4568047 0 0 0 -1.388672,1.45508 v 1.7207 a 1.4568047,1.4568047 0 0 0 1.457031,1.45703 h 5.982422 a 1.4568047,1.4568047 0 0 0 1.457031,-1.45703 v -1.14844 h 3.388672 a 1.4568047,1.4568047 0 0 0 0.373047,-0.0508 1.4568047,1.4568047 0 0 0 0.38086,0.0508 h 4.140625 a 1.4568047,1.4568047 0 0 0 0.357422,-0.0469 1.4568047,1.4568047 0 0 0 0.365234,0.0469 h 4.060547 a 1.4568047,1.4568047 0 0 0 0.246093,-0.0234 v 0.67188 c 0,0.32366 -0.01885,0.35015 -0.04102,0.5 a 1.4568047,1.4568047 0 0 0 -0.921875,1.35351 v 1.35547 a 1.4568047,1.4568047 0 0 0 1.457031,1.45703 h 4.205078 a 1.4568047,1.4568047 0 0 0 1.457031,-1.45703 v -1.58398 a 1.4568047,1.4568047 0 0 0 -0.988281,-1.37695 c 0.0015,-0.13013 0.0098,-0.26537 0.0098,-0.39454 v -0.17578 c 1.078244,-0.007 2.137088,-0.38811 2.966797,-1.07812 0.318928,-0.26202 0.453837,-0.69786 0.708984,-1.02539 v 0.32031 a 1.4568047,1.4568047 0 0 0 1.457031,1.45703 h 4.205079 a 1.4568047,1.4568047 0 0 0 1.457031,-1.45703 v -1.58594 a 1.4568047,1.4568047 0 0 0 -0.992188,-1.3789 c 0.0018,-0.13684 0.01367,-0.2516 0.01367,-0.39258 v -3.14453 c 0.0032,-0.011 0.01416,-0.026 0.01758,-0.0371 0.370351,0.1971 0.740408,0.42773 1.15625,0.42773 0.09694,0 0.195275,-0.0689 0.294922,-0.084 -0.03761,0.34192 -0.183594,0.65341 -0.183594,1.0039 0,1.25707 0.187872,2.41718 0.601563,3.45704 0.409077,1.02826 1.030027,1.91744 1.865234,2.55664 a 1.4568047,1.4568047 0 0 0 0.01758,0.0137 c 0.84318,0.62573 1.881223,0.95312 2.9375,0.95312 1.345326,0 2.490089,-0.6665 3.490235,-1.57617 a 1.4568047,1.4568047 0 0 0 1.455078,1.38867 h 1.220703 a 1.4568047,1.4568047 0 0 0 0.564453,-0.11523 c 6.14e-4,2.1e-4 0.0013,-2.1e-4 0.002,0 0.574395,0.19415 1.172803,0.30273 1.775391,0.30273 0.735339,0 1.471217,-0.1774 2.121094,-0.52734 a 1.4568047,1.4568047 0 0 0 0.01758,-0.01 c 0.284699,-0.15846 0.441788,-0.46492 0.68164,-0.68554 a 1.4568047,1.4568047 0 0 0 1.392579,1.03515 h 1.21875 a 1.4568047,1.4568047 0 0 0 0.566406,-0.11523 c 0.574953,0.19457 1.174112,0.30273 1.777344,0.30273 0.735338,0 1.471215,-0.1774 2.121093,-0.52734 a 1.4568047,1.4568047 0 0 0 0.01758,-0.01 c 0.263498,-0.14666 0.404166,-0.43274 0.628907,-0.63281 a 1.4568047,1.4568047 0 0 0 1.316406,0.83789 H 88.8125 a 1.4568047,1.4568047 0 0 0 1.447266,-1.30469 c 0.219595,0.22017 0.326674,0.55322 0.582031,0.73047 0.856076,0.59424 1.884327,0.90625 2.933594,0.90625 1.072765,0 2.127155,-0.3576 2.966797,-1.01758 0.331162,-0.2571 0.470928,-0.70008 0.734374,-1.02929 v 0.25781 a 1.4568047,1.4568047 0 0 0 1.457032,1.45703 h 4.205076 a 1.4568047,1.4568047 0 0 0 0.41602,-0.0625 1.4568047,1.4568047 0 0 0 0.41992,0.0625 h 4.20508 a 1.4568047,1.4568047 0 0 0 0.375,-0.0527 1.4568047,1.4568047 0 0 0 0.72851,0.19726 h 1.21875 a 1.4568047,1.4568047 0 0 0 0.56641,-0.11523 c 0.57495,0.19456 1.17411,0.30273 1.77734,0.30273 0.73534,0 1.47122,-0.1774 2.1211,-0.52734 a 1.4568047,1.4568047 0 0 0 0.0176,-0.01 c 0.68158,-0.37937 1.24437,-0.95808 1.6289,-1.63476 v -0.002 c 0.42533,-0.74438 0.61133,-1.60268 0.61133,-2.49219 0,-1.09516 -0.34304,-2.14328 -1.00195,-2.97266 a 1.4568047,1.4568047 0 0 0 0.51953,-1.11328 v -3.68945 a 1.4568047,1.4568047 0 0 0 -1.45703,-1.45703 h -1.21875 a 1.4568047,1.4568047 0 0 0 -0.60352,0.13281 c -0.43324,-0.13519 -0.87126,-0.23828 -1.32227,-0.23828 -0.90435,0 -1.8044,0.24956 -2.5332,0.77539 -0.65221,0.46547 -1.1698,1.10855 -1.49219,1.84179 -0.0981,-0.2632 -0.14045,-0.56427 -0.27929,-0.80468 -0.66234,-1.1469 -2.01354,-1.8125 -3.34766,-1.8125 -0.56354,0 -1.03819,0.20751 -1.51953,0.42773 a 1.4568047,1.4568047 0 0 0 -0.88867,-0.30273 h -0.78711 a 1.4568047,1.4568047 0 0 0 -1.11914,0.52343 c 0.20412,-0.2447 0.15676,-0.11022 -0.13281,-0.0234 -0.210823,0.0632 -0.634523,0.125 -1.218754,0.125 a 1.4568047,1.4568047 0 0 0 -1.421875,1.14453 c -0.272454,-0.31284 -0.42621,-0.74212 -0.763672,-0.98047 -0.845611,-0.59727 -1.867868,-0.91406 -2.910157,-0.91406 -1.059355,0 -2.096441,0.38187 -2.9375,1.04101 a 1.4568047,1.4568047 0 0 0 -0.0098,0.008 c -0.654319,0.52178 -1.080971,1.28574 -1.488281,2.0586 v -1.52539 a 1.4568047,1.4568047 0 0 0 -0.683594,-1.23438 c 0.09689,-0.0982 0.234709,-0.16736 0.308594,-0.27539 0.417578,-0.60026 0.599609,-1.32559 0.599609,-2.0332 0,-0.71868 -0.193741,-1.45609 -0.617187,-2.06055 -0.421087,-0.61208 -1.237958,-1.12695 -2.044922,-1.12695 z M 26.3125,108.0625 v 0.006 c -0.009,0.004 -0.0068,0.0153 -0.01563,0.0195 -0.02312,0.0116 -0.04511,0.003 -0.06836,0.0156 z m -1.585938,0.87891 h 0.833985 c -0.132734,0.20476 -0.404287,0.3514 -0.476563,0.55468 -0.22166,0.62343 -0.251952,1.21572 -0.251953,1.97461 v 9.98047 c 1e-6,0.94643 -0.02776,1.69265 -0.07617,2.20703 a 1.4568047,1.4568047 0 0 0 0.07422,0.60938 h -0.804687 c 0.125945,-0.20124 0.37573,-0.35545 0.447265,-0.55664 0.221667,-0.62344 0.251953,-1.21572 0.251953,-1.97461 v -9.97852 c 0,-0.94641 0.02779,-1.69489 0.07617,-2.20898 a 1.4568047,1.4568047 0 0 0 -0.07422,-0.60742 z m 7.478516,2.45117 c -0.0067,0.003 -0.01092,0.0103 -0.01758,0.0137 -0.0054,0.003 -0.01223,0.001 -0.01758,0.004 z m 70.464842,0.0195 c -0.004,0.002 -0.006,0.006 -0.01,0.008 -0.003,0.002 -0.007,4e-4 -0.01,0.002 z m -0.50781,1.80469 c -0.009,0.005 -0.016,0.0145 -0.0254,0.0195 -0.007,0.004 -0.0179,0.004 -0.0254,0.008 z m -62.208985,0.90429 0.01172,0.0195 c -0.0022,-0.004 -0.0076,-0.006 -0.0098,-0.01 -0.0018,-0.003 -1.67e-4,-0.007 -0.002,-0.01 z m 58.623047,0.17969 0.0039,0.008 c -7.59e-4,-0.002 -0.0031,-0.002 -0.0039,-0.004 -4.95e-4,-0.001 4.95e-4,-0.003 0,-0.004 z m 7.357418,0.004 0.0137,0.0273 c -0.002,-0.005 -0.01,-0.007 -0.0117,-0.0117 -0.002,-0.005 2.4e-4,-0.011 -0.002,-0.0156 z m -53.30859,0.0762 0.0078,0.0234 c -0.0013,-0.004 -0.0046,-0.006 -0.0059,-0.01 -0.0014,-0.004 -5.06e-4,-0.01 -0.002,-0.0137 z m -2.396484,0.40039 0.0059,0.0176 c -8.32e-4,-0.002 -0.0031,-0.004 -0.0039,-0.006 -0.0014,-0.003 -5.58e-4,-0.008 -0.002,-0.0117 z m -22.482422,1.22852 a 1.4568047,1.4568047 0 0 0 0.24414,0.0918 c -0.0011,0.10463 -0.0098,0.19855 -0.0098,0.30469 v 3.50195 c 0,0.32807 -0.02067,0.35815 -0.04297,0.50782 a 1.4568047,1.4568047 0 0 0 -0.191406,0.0977 z m 65.941406,0.23828 c 0.123296,0.59431 0.251953,1.18505 0.251953,1.99218 0,0.58493 -0.09994,0.9236 -0.169922,1.3418 -0.135401,-0.58578 -0.271484,-1.17923 -0.271484,-2.00976 0,-0.57093 0.110283,-0.91182 0.189453,-1.32422 z m -9.589844,0.82031 v 0.54297 c -0.07165,-0.11098 -0.114728,-0.23791 -0.197265,-0.3418 a 1.4568047,1.4568047 0 0 0 0.197265,-0.20117 z m -36.380859,0.0293 c 0.03908,0.29827 0.134765,0.48749 0.134765,0.85156 0,0.48135 -0.08942,0.5834 -0.134765,0.93164 z m 18.509765,1.91015 a 1.4568047,1.4568047 0 0 0 -0.201171,0.24805 c -0.249408,0.39476 -0.478228,0.60185 -0.658203,0.70703 -0.268518,0.15693 -0.417908,0.17578 -0.46875,0.17578 -0.351335,0 -0.276741,0.04 -0.431641,-0.26562 -0.07418,-0.1502 -0.07779,-0.57847 -0.136719,-0.82032 z m 8.136719,3.78516 -0.02734,0.0215 c 0.004,-0.003 0.0019,-0.0104 0.0059,-0.0137 0.006,-0.005 0.01556,-0.003 0.02148,-0.008 z m 7.773438,0 -0.02734,0.0215 c 0.004,-0.003 0.0019,-0.0104 0.0059,-0.0137 0.0059,-0.005 0.0156,-0.003 0.02148,-0.008 z m 32.322261,0 -0.0273,0.0215 c 0.004,-0.003 0.002,-0.0104 0.006,-0.0137 0.006,-0.005 0.0156,-0.003 0.0215,-0.008 z M 41.597656,302.74609 c -0.543678,0 -1.052196,0.23617 -1.416015,0.52344 -0.373654,0.28329 -0.659057,0.64683 -0.851563,1.0332 a 1.4568047,1.4568047 0 0 0 -0.02344,0.0508 l -1.316407,2.91992 a 1.4568047,1.4568047 0 0 0 0.226563,1.55273 l 0.195312,0.22461 c -0.201914,0.1238 -0.429192,0.20193 -0.611328,0.35547 -0.413986,0.349 -0.625315,0.88949 -0.935547,1.3418 -0.159741,-0.62089 -0.325933,-1.2417 -0.583984,-1.83594 -0.681197,-1.60162 -1.766411,-2.94688 -3.179688,-3.94531 -1.464869,-1.06255 -3.269644,-1.58008 -5.248046,-1.58008 a 1.4568047,1.4568047 0 0 0 -0.0059,0 l -6.066406,0.0273 a 1.4568047,1.4568047 0 0 0 -1.451172,1.45703 v 2.00586 a 1.4568047,1.4568047 0 0 0 1.509766,1.45508 c -0.0059,0.28897 -0.0293,0.48545 -0.0293,0.8125 v 9.98047 c 0,0.4839 -0.04718,0.69106 -0.06836,0.80859 -0.01687,0.001 -0.0035,0.001 -0.02148,0.002 a 1.4568047,1.4568047 0 0 0 -1.390625,1.45507 v 1.72071 a 1.4568047,1.4568047 0 0 0 1.457031,1.45703 h 5.960938 c 2.078045,0 3.957222,-0.54354 5.449219,-1.67969 1.329099,-1.00236 2.318841,-2.31589 2.976562,-3.82422 0.405104,0.88087 0.911063,1.69785 1.650391,2.26367 a 1.4568047,1.4568047 0 0 0 0.01758,0.0137 c 0.843179,0.62573 1.881222,0.95312 2.9375,0.95312 1.838774,0 3.385597,-1.114 4.488281,-2.70508 0.119825,0.34573 0.202092,0.71197 0.394531,1.01954 0.648954,1.03717 1.890694,1.68554 3.113282,1.68554 0.744675,0 1.479994,-0.20848 2.154297,-0.5625 a 1.4568047,1.4568047 0 0 0 0.02734,-0.0137 c 0.279485,-0.15446 0.478318,-0.39239 0.703125,-0.60156 0.651107,0.71419 1.601785,1.17773 2.558594,1.17773 0.640691,0 1.255654,-0.19032 1.826172,-0.47461 a 1.4568047,1.4568047 0 0 0 0.628906,0.14258 h 3.033203 a 1.4568047,1.4568047 0 0 0 0.453125,-0.0742 1.4568047,1.4568047 0 0 0 0.453125,0.0742 h 4.205078 a 1.4568047,1.4568047 0 0 0 0.38086,-0.0547 1.4568047,1.4568047 0 0 0 0.392578,0.0547 h 4.205078 a 1.4568047,1.4568047 0 0 0 0.4375,-0.0684 1.4568047,1.4568047 0 0 0 0.759766,0.21289 h 1.21875 a 1.4568047,1.4568047 0 0 0 0.566406,-0.11523 c 0.574953,0.19457 1.174112,0.30273 1.777344,0.30273 0.735338,0 1.470851,-0.17825 2.11914,-0.52734 a 1.4568047,1.4568047 0 0 0 0.01758,-0.01 c 0.680024,-0.3785 1.244838,-0.95548 1.63086,-1.63476 v -0.002 c 0.425331,-0.74438 0.611328,-1.60268 0.611328,-2.49218 0,-1.09516 -0.343029,-2.14328 -1.001953,-2.97266 a 1.4568047,1.4568047 0 0 0 0.519531,-1.11328 v -3.68945 a 1.4568047,1.4568047 0 0 0 -1.457031,-1.45704 h -1.21875 a 1.4568047,1.4568047 0 0 0 -0.603516,0.13282 c -0.434456,-0.1355 -0.873144,-0.23828 -1.324219,-0.23828 -0.904361,0 -1.804402,0.24956 -2.533203,0.77539 -0.456827,0.32604 -0.73833,0.81846 -1.041015,1.28711 v -5.5879 a 1.4568047,1.4568047 0 0 0 -1.457032,-1.45703 h -0.867187 a 1.4568047,1.4568047 0 0 0 -1.119141,0.52344 c 0.200506,-0.24037 0.15275,-0.10707 -0.132812,-0.0215 -0.210838,0.0632 -0.634519,0.125 -1.21875,0.125 a 1.4568047,1.4568047 0 0 0 -0.728516,0.19726 c -0.443322,-0.53866 -1.153617,-0.99023 -1.890625,-0.99023 -0.834357,0 -1.615786,0.52942 -2.042969,1.12304 -0.436903,0.59652 -0.65039,1.34262 -0.65039,2.06446 0,0.71522 0.199283,1.45123 0.621093,2.04883 a 1.4568047,1.4568047 0 0 0 0.01563,0.0234 c 0.159007,0.21589 0.409453,0.37597 0.646484,0.54102 -0.237225,0.0475 -0.498094,0.0996 -0.951172,0.0996 a 1.4568047,1.4568047 0 0 0 -1.322266,0.84765 c -0.0038,-0.005 -0.004,-0.0124 -0.0078,-0.0176 -0.772793,-1.03691 -2.078969,-1.58203 -3.394531,-1.58203 -0.802477,0 -1.586237,0.16185 -2.302735,0.48242 -0.559077,0.24321 -0.997169,0.67398 -1.410156,1.11523 A 1.4568047,1.4568047 0 0 0 50.621094,308.625 h -0.574219 l 0.0078,-1.14062 a 1.4568047,1.4568047 0 0 0 -1.457032,-1.46485 h -1.1875 a 1.4568047,1.4568047 0 0 0 -1.419922,1.13281 c -0.05241,0.2297 -0.152955,0.5008 -0.316406,0.8086 -0.141795,0.26701 -0.29836,0.46303 -0.472656,0.61914 a 1.4568047,1.4568047 0 0 0 -0.01758,0.0176 c -0.09586,0.0889 -0.02178,0.0273 0.02734,0.0273 A 1.4568047,1.4568047 0 0 0 43.875,309.50586 c -0.522856,-0.43347 -1.096354,-0.74125 -1.746094,-0.92774 l 0.964844,-1.09765 a 1.4568047,1.4568047 0 0 0 0.02148,-0.0254 c 0.255041,-0.30362 0.431916,-0.65188 0.554688,-1.00586 0.136004,-0.3624 0.21875,-0.74962 0.21875,-1.14063 0,-0.60865 -0.206659,-1.27424 -0.615234,-1.77539 a 1.4568047,1.4568047 0 0 0 -0.113282,-0.12304 c -0.369384,-0.35978 -0.950216,-0.66407 -1.5625,-0.66407 z m 23.302735,1.51368 0.01953,0.0254 c -0.0038,-0.006 -0.01171,-0.01 -0.01563,-0.0156 -0.0021,-0.003 -0.0018,-0.007 -0.0039,-0.01 z m -39.566407,2.05078 c -0.507407,0.81709 -0.501952,1.53196 -0.501953,2.49414 v 10.0332 c 1e-6,0.94641 -0.02779,1.69492 -0.07617,2.20899 a 1.4568047,1.4568047 0 0 0 0.07422,0.60742 h -0.804687 c 0.125947,-0.20124 0.375729,-0.35545 0.447265,-0.55664 0.221009,-0.62161 0.251953,-1.21376 0.251953,-1.97266 v -9.98047 c 0,-0.94641 0.02779,-1.6949 0.07617,-2.20898 a 1.4568047,1.4568047 0 0 0 -0.08008,-0.6211 z m 2.451172,1.77148 c 1.040712,0.041 1.671421,0.35973 2.261719,1.22852 0.59702,0.87867 1.039063,2.56233 1.039063,5.04492 0,1.08914 -0.141156,2.06907 -0.414063,2.95898 a 1.4568047,1.4568047 0 0 0 -0.0039,0.0117 c -0.248122,0.83177 -0.60585,1.42762 -1.064453,1.87891 -0.396654,0.39032 -0.764727,0.54687 -1.416016,0.54687 -0.214514,0 -0.361074,-0.007 -0.472656,-0.0156 0.0073,-0.31523 0.03125,-0.53681 0.03125,-0.89844 v -10.0332 c 0,-0.57926 0.04636,-0.66418 0.03906,-0.72266 z m 37.148438,0.24414 a 1.4568047,1.4568047 0 0 0 0.160156,0.0547 c -0.0015,0.12156 -0.01172,0.22044 -0.01172,0.3457 v 0.39063 a 1.4568047,1.4568047 0 0 0 -0.46875,-0.47852 c 0.09689,-0.0982 0.23471,-0.16736 0.308594,-0.27539 0.0077,-0.011 0.0042,-0.026 0.01172,-0.0371 z m -31.878906,0.80469 c 0.18944,0.29889 0.400051,0.57666 0.546874,0.92187 a 1.4568047,1.4568047 0 0 0 0.0039,0.0117 c 0.519403,1.19282 0.77539,2.42487 0.77539,3.74414 0,1.34724 -0.246762,2.63058 -0.75,3.88868 a 1.4568047,1.4568047 0 0 0 -0.0039,0.006 c -0.03622,0.0917 -0.09943,0.15934 -0.138672,0.24805 C 33.813117,316.81623 34,315.62135 34,314.35547 c 0,-2.09825 -0.353369,-3.76832 -0.945312,-5.22461 z m 14.179687,1.50586 a 1.4568047,1.4568047 0 0 0 0.04687,0.0996 1.4568047,1.4568047 0 0 0 -0.07422,-0.0645 c 0.01083,-0.0101 0.01661,-0.0249 0.02734,-0.0352 z m -0.07031,0.0977 -0.01758,0.0176 c 0.0048,-0.004 0.0069,-0.0113 0.01172,-0.0156 0.0015,-0.001 0.0044,-5.9e-4 0.0059,-0.002 z m 3.925782,2.33203 c 0.06803,0.43066 0.103332,0.87269 0.351562,1.25195 a 1.4568047,1.4568047 0 0 0 0.01953,0.0293 c 0.117734,0.17089 0.320721,0.28442 0.49414,0.42187 -0.398022,0.42883 -0.744663,0.87269 -0.958984,1.42383 a 1.4568047,1.4568047 0 0 0 -0.970703,0.36523 l 0.0098,-3.39648 0.63086,-0.0195 a 1.4568047,1.4568047 0 0 0 0.423828,-0.0762 z m 1.416015,1.04101 c -0.0012,8.4e-4 -7.73e-4,0.003 -0.002,0.004 -0.0028,0.002 -0.0069,0.002 -0.0098,0.004 z m 2.902344,0.20703 -0.02344,0.0332 c 0.0035,-0.005 0.0024,-0.0124 0.0059,-0.0176 0.0042,-0.006 0.01344,-0.009 0.01758,-0.0156 z m -10.589844,1.98828 -0.002,0.0781 a 1.4568047,1.4568047 0 0 0 -0.06641,-0.0605 1.4568047,1.4568047 0 0 0 0.06836,-0.0176 z m -2.05664,0.0937 a 1.4568047,1.4568047 0 0 0 -0.197266,0.2461 c -0.249407,0.39476 -0.478228,0.60185 -0.658203,0.70703 -0.271402,0.15861 -0.423016,0.17773 -0.46875,0.17773 -0.348986,0 -0.276183,0.0391 -0.431641,-0.26757 -0.07424,-0.15031 -0.07786,-0.57736 -0.136718,-0.81836 z m -9.300781,1.76172 -0.0039,0.0117 c 5.52e-4,-0.002 -5.5e-4,-0.004 0,-0.006 7.09e-4,-0.002 0.0032,-0.003 0.0039,-0.006 z m 34.458984,0.36524 -0.0098,0.0605 c 0.0023,-0.0136 0.0017,-0.0312 0.0039,-0.0449 6.93e-4,-0.005 0.0052,-0.0105 0.0059,-0.0156 z m 8.25,1.65625 -0.02734,0.0215 c 0.004,-0.003 0.0019,-0.0104 0.0059,-0.0137 0.0059,-0.005 0.0156,-0.003 0.02148,-0.008 z"
   id="text181"
   inkscape:connector-curvature="0" />


















</svg>