<?xml version="1.0" encoding="UTF-8" standalone="no"?>
<!-- Generator: Adobe Illustrator 16.0.0, SVG Export Plug-In . SVG Version: 6.00 Build 0)  -->

<svg
   xmlns:dc="http://purl.org/dc/elements/1.1/"
   xmlns:cc="http://creativecommons.org/ns#"
   xmlns:rdf="http://www.w3.org/1999/02/22-rdf-syntax-ns#"
   xmlns:svg="http://www.w3.org/2000/svg"
   xmlns="http://www.w3.org/2000/svg"
   xmlns:xlink="http://www.w3.org/1999/xlink"
   xmlns:sodipodi="http://sodipodi.sourceforge.net/DTD/sodipodi-0.dtd"
   xmlns:inkscape="http://www.inkscape.org/namespaces/inkscape"
   version="1.1"
   id="Fond"
   x="0px"
   y="0px"
   width="446.25"
   height="623.625"
   viewBox="0 0 446.25 623.62501"
   enable-background="new 0 0 178.58 249.45"
   xml:space="preserve"
   sodipodi:docname="ETS-Type1-Couleur2.svg"
   inkscape:version="0.92.0 r15299"><metadata
   id="metadata336"><rdf:RDF><cc:Work
       rdf:about=""><dc:format>image/svg+xml</dc:format><dc:type
         rdf:resource="http://purl.org/dc/dcmitype/StillImage" /><dc:title /></cc:Work></rdf:RDF></metadata><defs
   id="defs334">
	
	
	

					
					
					
					
				
				
					<linearGradient
   id="SVGID_6_"
   gradientUnits="userSpaceOnUse"
   x1="4.6259999"
   y1="182.06841"
   x2="35.375999"
   y2="182.06841"
   gradientTransform="matrix(-1,0,0,1,178.21,0)">
					<stop
   offset="0.2832"
   style="stop-color:#560F19"
   id="stop40" />
					<stop
   offset="1"
   style="stop-color:#BE0A26"
   id="stop42" />
				</linearGradient>
				
				
			
			<defs
   id="defs35">
				<path
   id="SVGID_4_"
   d="M 169.75,238.137 V 126.759 c 0.411,-1.443 1.717,-2.894 1.729,-2.905 0.187,-0.186 0.196,-0.485 0.022,-0.683 l -0.875,-1 c -0.095,-0.109 -0.239,-0.196 -0.376,-0.17 -0.143,0 -0.278,0.061 -0.373,0.167 -0.019,0.021 -1.903,2.083 -4.877,2.083 -0.841,0 -1.462,0.037 -1.813,0.104 l -148.08,0.007 c -0.438,-0.075 -1.059,-0.112 -1.898,-0.112 -2.974,0 -4.858,-2.062 -4.877,-2.083 C 8.236,122.061 8.101,122 7.959,122 c -10e-4,0 -0.002,0 -0.003,0 -0.143,0.001 -0.279,0.062 -0.374,0.17 l -0.875,1 c -0.171,0.196 -0.16,0.495 0.021,0.681 0.305,0.314 1.855,2.21 1.855,3.648 0,0.062 0.015,0.123 0.042,0.18 v 109.517 c -0.027,0.062 -0.042,0.13 -0.042,0.199 0,1.438 -1.55,3.334 -1.854,3.646 -0.186,0.187 -0.196,0.484 -0.023,0.683 l 0.875,1 c 0.095,0.108 0.251,0.182 0.377,0.171 0.142,0 0.277,-0.062 0.373,-0.167 0.019,-0.021 1.903,-2.083 4.877,-2.083 0.359,0 0.662,-0.009 0.913,-0.021 h 149.944 c 0.273,0.012 0.575,0.021 0.935,0.021 2.974,0 4.858,2.062 4.877,2.083 0.095,0.105 0.23,0.167 0.373,0.167 0.168,-0.013 0.282,-0.062 0.376,-0.171 l 0.875,-1 c 0.172,-0.195 0.16,-0.494 -0.021,-0.681 -0.013,-0.013 -1.319,-1.463 -1.73,-2.906 z M 9.75,132.125 c 0,-1.93 1.57,-3.5 3.5,-3.5 H 165 c 1.93,0 3.5,1.57 3.5,3.5 v 103.75 c 0,1.93 -1.57,3.5 -3.5,3.5 H 13.25 c -1.93,0 -3.5,-1.57 -3.5,-3.5 z"
   inkscape:connector-curvature="0" />
			</defs>
			<clipPath
   id="SVGID_5_">
				<use
   xlink:href="#SVGID_4_"
   overflow="visible"
   id="use37"
   style="overflow:visible"
   x="0"
   y="0"
   width="100%"
   height="100%" />
			</clipPath>
			
		
			<defs
   id="defs193">
				<path
   id="SVGID_7_"
   d="m 157.584,47.316 -0.875,-1 c -0.094,-0.108 -0.23,-0.17 -0.374,-0.171 -0.001,0 -0.001,0 -0.002,0 -0.143,0 -0.278,0.061 -0.374,0.168 -0.019,0.021 -1.885,2.082 -4.876,2.082 -0.838,0 -1.458,0.037 -1.813,0.104 L 15.106,48.507 c -0.44,-0.075 -1.062,-0.112 -1.898,-0.112 -2.974,0 -4.858,-2.062 -4.877,-2.083 C 8.236,46.206 8.1,46.145 7.958,46.145 7.852,46.157 7.676,46.207 7.581,46.315 l -0.875,1 c -0.171,0.196 -0.16,0.495 0.021,0.681 0.305,0.314 1.855,2.21 1.855,3.648 0,0.062 0.015,0.122 0.041,0.178 l -0.25,65.385 c 0,2.757 2.243,5 5,5 h 137.5 c 2.757,0 5,-2.243 5,-5 l -0.042,-66.304 c 0.412,-1.446 1.717,-2.893 1.728,-2.904 0.189,-0.185 0.199,-0.484 0.025,-0.683 z M 151.125,121 h -138 c -1.93,0 -3.5,-1.57 -3.5,-3.5 V 57.125 c 0,-1.93 1.57,-3.5 3.5,-3.5 h 138 c 1.93,0 3.5,1.57 3.5,3.5 V 117.5 c 0,1.93 -1.57,3.5 -3.5,3.5 z"
   inkscape:connector-curvature="0" />
			</defs>
			<clipPath
   id="SVGID_8_">
				<use
   xlink:href="#SVGID_7_"
   overflow="visible"
   id="use195"
   style="overflow:visible"
   x="0"
   y="0"
   width="100%"
   height="100%" />
			</clipPath>
			
		
					
					
					
					
				
				
					<linearGradient
   gradientTransform="matrix(-1,0,0,1,178.21,0)"
   y2="83.943398"
   x2="50.000999"
   y1="83.943398"
   x1="19.250999"
   gradientUnits="userSpaceOnUse"
   id="SVGID_9_">
					<stop
   id="stop198"
   style="stop-color:#560F19"
   offset="0.2832" />
					<stop
   id="stop200"
   style="stop-color:#BE0A26"
   offset="1" />
				</linearGradient>
				
				
			
					
					
					
					
				
				
					<linearGradient
   id="SVGID_15_"
   gradientUnits="userSpaceOnUse"
   x1="19.250999"
   y1="7.6104002"
   x2="50.000999"
   y2="7.6104002"
   gradientTransform="matrix(-1,0,0,1,178.21,0)">
					<stop
   offset="0.2832"
   style="stop-color:#560F19"
   id="stop269" />
					<stop
   offset="1"
   style="stop-color:#BE0A26"
   id="stop271" />
				</linearGradient>
				
				
			
			<defs
   id="defs264">
				<path
   id="SVGID_13_"
   d="m 157.584,25.691 -0.875,-1 c -0.094,-0.108 -0.23,-0.17 -0.374,-0.171 -0.001,0 -0.001,0 -0.002,0 -0.143,0 -0.278,0.061 -0.374,0.168 -0.019,0.021 -1.885,2.082 -4.876,2.082 -0.838,0 -1.458,0.037 -1.813,0.104 L 15.106,26.882 C 14.666,26.807 14.044,26.77 13.208,26.77 10.234,26.77 8.35,24.708 8.331,24.687 8.236,24.581 8.1,24.52 7.958,24.52 7.852,24.532 7.676,24.582 7.581,24.69 l -0.875,1 c -0.171,0.196 -0.16,0.495 0.021,0.681 0.305,0.314 1.855,2.21 1.855,3.648 0,0.062 0.015,0.122 0.041,0.178 l -0.25,10.677 c 0,2.757 2.243,5 5,5 h 137.5 c 2.757,0 5,-2.243 5,-5 l -0.042,-11.596 c 0.412,-1.446 1.717,-2.893 1.728,-2.904 0.189,-0.185 0.199,-0.484 0.025,-0.683 z m -6.459,18.976 h -138 c -1.93,0 -3.5,-1.57 -3.5,-3.5 V 35.5 c 0,-1.93 1.57,-3.5 3.5,-3.5 h 138 c 1.93,0 3.5,1.57 3.5,3.5 v 5.667 c 0,1.93 -1.57,3.5 -3.5,3.5 z"
   inkscape:connector-curvature="0" />
			</defs>
			<clipPath
   id="SVGID_14_">
				<use
   xlink:href="#SVGID_13_"
   overflow="visible"
   id="use266"
   style="overflow:visible"
   x="0"
   y="0"
   width="100%"
   height="100%" />
			</clipPath>
			
		
		
		
		
		
			

		
			

		

		

	
		
		
		
		
		
			

		
			

		

		

	
		
		
		
		
			

		
			

		

		

	</defs><sodipodi:namedview
   pagecolor="#ffffff"
   bordercolor="#666666"
   borderopacity="1"
   objecttolerance="10"
   gridtolerance="10"
   guidetolerance="10"
   inkscape:pageopacity="0"
   inkscape:pageshadow="2"
   inkscape:window-width="1280"
   inkscape:window-height="961"
   id="namedview332"
   showgrid="false"
   inkscape:zoom="2.2615087"
   inkscape:cx="250.45137"
   inkscape:cy="540.42859"
   inkscape:window-x="1272"
   inkscape:window-y="-8"
   inkscape:window-maximized="1"
   inkscape:current-layer="Fond" />

<path
   style="display:inline;fill:#be0a26;stroke-width:2.60575104"
   d="M 383.40039 53.943359 C 382.12498 53.982879 381.0358 54.050111 380.39062 54.171875 L 380.19727 54.171875 C 379.12609 54.469584 378.10133 54.940065 377.08398 55.470703 L 376.76758 54.171875 L 376.74805 54.171875 L 375.07617 54.894531 C 374.36902 54.611482 373.67878 54.379956 372.99609 54.171875 L 358.20703 54.173828 C 355.77773 54.715059 353.32232 55.3711 350.72656 55.941406 C 350.59106 55.858026 350.45774 55.77479 350.32227 55.691406 C 351.56908 55.232 353.07607 54.65934 354.63281 54.173828 L 352.14258 54.173828 C 351.98434 54.225348 351.81898 54.280009 351.66211 54.330078 C 350.80221 54.603682 349.99526 54.841021 349.22656 55.046875 C 348.5548 54.684309 347.83355 54.382226 347.03711 54.173828 L 343.07422 54.173828 C 341.967 54.494041 341.0379 55.060031 340.17188 55.685547 C 339.52812 55.703527 338.8843 55.723764 338.24023 55.746094 C 337.30581 55.57117 336.36273 55.336978 335.38672 55.068359 C 334.86209 54.780231 334.31836 54.47271 333.7832 54.173828 L 333.26172 54.173828 C 333.52686 54.348465 333.78482 54.509721 334.05078 54.685547 C 333.80636 54.613707 333.572 54.547936 333.32031 54.472656 C 332.97151 54.36809 332.66391 54.275708 332.32812 54.173828 L 329.01562 54.173828 C 330.68996 54.657529 332.48012 55.276428 334.39258 55.830078 L 331.31641 55.888672 C 329.64088 55.758384 327.95991 55.462011 326.43555 54.763672 C 326.0647 54.593539 325.70966 54.39186 325.36328 54.175781 L 324.95898 54.175781 C 326.01203 54.857385 327.1263 55.441137 328.31641 55.822266 C 326.27459 55.6999 324.28469 55.809236 322.47852 56.462891 L 319.03711 55.792969 L 318.70312 55.732422 C 319.36404 55.135418 320.11003 54.628778 320.99219 54.175781 L 320.16211 54.175781 C 319.61357 54.58994 319.06799 55.091375 318.51953 55.701172 L 314.2168 54.929688 C 313.52417 54.722327 312.85006 54.464121 312.18945 54.175781 L 311.28125 54.175781 C 311.36455 54.221541 311.44036 54.279141 311.52539 54.322266 C 313.08884 55.114414 314.82972 55.489999 316.53906 55.873047 L 318.13281 56.158203 C 317.70182 56.6752 317.2681 57.234984 316.83008 57.890625 C 316.83008 57.890625 316.83098 57.892578 316.83398 57.892578 C 317.28348 57.248343 317.74222 56.683113 318.23828 56.175781 L 321.57227 56.771484 L 321.66016 56.796875 C 320.919 57.144107 320.49184 57.775011 320.07617 58.4375 C 320.07917 58.4401 320.08319 58.439453 320.08789 58.439453 C 320.30677 58.137186 320.52916 57.83547 320.74805 57.533203 C 321.02861 57.259049 321.3717 57.017527 321.73828 56.820312 L 326.34961 58.167969 L 327.01953 58.369141 C 325.28069 58.426001 323.70685 58.729455 322.54492 59.591797 C 322.37346 59.571477 322.20284 59.544731 322.03125 59.525391 L 322.03125 59.53125 C 322.19828 59.55262 322.36433 59.580996 322.53125 59.603516 C 322.33191 59.752747 322.13841 59.909607 321.96484 60.09375 C 321.6842 60.08805 321.40327 60.082551 321.12305 60.082031 C 318.96549 60.074231 316.80729 59.945132 314.67578 60.242188 C 313.67009 60.380317 312.67962 60.616948 311.71289 60.929688 C 311.11662 60.188518 310.6968 59.173034 310.51367 57.792969 L 310.50781 57.792969 C 310.54401 59.180179 310.82092 60.249986 311.2793 61.078125 C 311.02524 61.167345 310.76942 61.255418 310.51953 61.355469 C 309.18278 61.892251 307.89978 62.588011 306.75586 63.460938 L 305.08984 64.933594 L 305.0957 64.941406 C 306.24484 64.047634 307.34752 63.073332 308.63477 62.390625 C 309.51191 61.925616 310.43877 61.56183 311.38867 61.267578 C 313.05609 63.975931 316.83729 63.854476 320.60352 63.589844 C 320.58272 63.819645 320.54586 64.03158 320.53906 64.28125 L 320.55078 64.28125 C 320.58438 64.026668 320.64408 63.814317 320.69336 63.583984 C 321.88192 63.499794 323.06753 63.406917 324.18164 63.382812 C 325.3855 63.356752 326.38094 63.75551 327.31641 64.333984 C 322.43583 65.46488 317.93733 66.95193 312.86914 65.708984 C 312.11087 65.52137 311.2816 65.100599 310.71094 64.542969 C 310.49205 64.238096 310.27032 63.934427 310.04883 63.634766 L 310.04102 63.634766 C 310.46054 64.301838 310.88822 64.934032 311.63086 65.283203 C 316.52965 67.584081 323.00658 65.357653 328.25195 64.974609 C 328.36921 65.060599 328.48493 65.149691 328.59961 65.238281 C 325.49973 65.752842 322.71898 66.729166 320.1543 67.529297 L 323.53125 67.529297 C 325.75692 66.866513 327.68705 66.334185 329.71289 66.095703 C 329.94272 66.268829 330.18678 66.428884 330.42578 66.59375 C 326.45347 66.907475 327.69229 66.918156 330.68945 66.777344 C 331.12426 67.063001 331.59078 67.310137 332.07812 67.529297 L 338.125 67.529297 C 338.49077 67.376844 338.84695 67.211512 339.1875 67.027344 C 339.72583 67.169682 340.31319 67.352007 340.89453 67.529297 L 343.43945 67.529297 C 342.30307 67.139878 341.22039 66.731317 340.28516 66.386719 C 340.42326 66.303339 340.55461 66.220103 340.6875 66.136719 C 342.69638 66.577498 344.62155 67.075375 346.51367 67.529297 L 364.05469 67.529297 C 364.81766 67.257826 365.59031 66.957914 366.38477 66.591797 C 366.5557 66.70288 366.72635 66.813209 366.90039 66.923828 C 367.22728 67.132964 367.54572 67.323638 367.86914 67.529297 L 368.87109 67.529297 C 368.73386 67.445907 368.59129 67.374428 368.45508 67.289062 C 368.64872 67.374822 368.84342 67.452182 369.03906 67.529297 L 375.46094 67.529297 C 376.70729 66.928639 377.91517 66.255106 379.08008 65.683594 C 380.27612 65.310971 381.48175 64.859617 382.5918 64.460938 C 383.57938 64.33586 384.53655 64.467238 385.45898 65.003906 L 385.45898 63.533203 C 387.15715 63.208785 388.85239 62.89852 390.53906 62.613281 C 392.35996 62.901438 394.0387 62.854677 395.49805 62.28125 L 395.49805 62.019531 C 396.12421 61.979431 396.80066 61.95163 397.49219 61.9375 L 397.48633 60.642578 C 397.40013 60.645178 397.31478 60.643189 397.22852 60.646484 C 396.65173 60.552474 396.07473 60.424575 395.49805 60.304688 L 395.49805 60.058594 L 395.49805 58.923828 L 395.49805 57.072266 C 394.5704 57.611656 393.61974 57.738357 392.62695 57.613281 C 391.52211 57.214601 390.31388 56.763247 389.11523 56.390625 C 387.8749 55.778274 386.5796 55.044657 385.23242 54.414062 C 384.59585 54.164578 383.98965 54.026755 383.40039 53.943359 z M 365.51758 54.701172 C 367.81846 54.659482 370.13333 54.948068 372.49414 55.787109 C 372.58484 55.819239 372.67864 55.859639 372.76953 55.892578 L 371.74219 56.335938 L 371.55859 56.431641 C 369.64649 55.624989 367.93482 55.456794 366.34375 55.615234 C 366.07015 55.310362 365.79639 55.000833 365.51758 54.701172 z M 364.00586 54.773438 C 364.39672 55.119999 364.7511 55.465939 365.08203 55.804688 C 361.51736 56.523874 358.47286 58.523851 354.93164 57.84375 C 354.08998 57.682193 353.34287 57.395393 352.64453 57.048828 C 356.4828 56.144633 360.23273 55.067885 364.00586 54.773438 z M 343.83203 54.919922 C 343.99984 54.914222 344.17177 54.916387 344.34766 54.929688 C 345.34045 55.005257 346.20135 55.247842 346.98047 55.583984 C 346.20346 55.742935 345.4822 55.851445 344.7832 55.9375 C 344.61201 55.90868 344.44372 55.866107 344.27148 55.841797 C 343.32166 55.706272 342.36532 55.672709 341.40625 55.671875 C 342.14073 55.249011 342.92771 54.950631 343.83203 54.919922 z M 381.67188 55.451172 C 382.30313 55.428762 382.96827 55.520382 383.75781 55.740234 C 383.53372 55.794954 383.31653 55.870384 383.11328 55.966797 C 381.89118 56.550485 381.018 57.09478 380.32227 57.542969 C 379.92619 57.331903 379.5653 57.132274 379.25 56.947266 C 378.95555 56.775286 378.65838 56.610123 378.36914 56.451172 C 379.6606 55.842078 380.61972 55.488351 381.67188 55.451172 z M 326.61523 55.896484 C 327.44293 55.884494 328.25919 55.946274 329.07227 56.033203 C 329.84821 56.217534 330.63688 56.329805 331.43555 56.384766 C 333.38798 56.756085 335.3381 57.275137 337.35156 57.742188 C 337.0302 57.942023 336.6949 58.107077 336.35156 58.253906 C 335.00567 58.270586 333.65787 58.391673 332.32227 58.574219 L 332.23633 58.591797 C 331.3998 58.535307 330.55398 58.47003 329.70898 58.419922 L 323.94531 56.748047 L 322.55078 56.476562 C 322.66934 56.437132 322.78818 56.393692 322.9043 56.365234 C 324.17134 56.054501 325.40421 55.914115 326.61523 55.896484 z M 348.4043 56.34375 C 348.4303 56.36199 348.45773 56.378244 348.48633 56.396484 C 348.23878 56.440784 347.98453 56.485004 347.73438 56.529297 C 347.95585 56.469367 348.1802 56.408894 348.4043 56.34375 z M 367.10547 56.453125 C 368.0722 56.471365 369.07553 56.661846 370.13867 57.099609 L 370.21094 57.142578 L 369.50391 57.513672 L 369.39453 57.513672 C 369.03496 57.515472 368.67524 57.530354 368.31641 57.552734 C 367.91194 57.245746 367.50837 56.879731 367.10547 56.453125 z M 333.48828 56.457031 C 333.70847 56.462031 333.92903 56.474729 334.14844 56.480469 L 336.75195 56.466797 C 337.03757 56.653968 337.32058 56.837063 337.60742 57.023438 C 336.28589 56.893071 334.90352 56.683476 333.48828 56.457031 z M 365.76172 56.529297 C 366.14758 56.950001 366.50478 57.337719 366.86133 57.697266 C 366.16416 57.790156 365.47159 57.912735 364.78711 58.066406 L 358.09375 59.867188 C 357.9348 59.822888 357.782 59.781278 357.62305 59.734375 L 357.61328 59.728516 C 357.37303 59.632046 357.13655 59.524693 356.89844 59.421875 C 357.38394 59.329245 357.89175 59.202133 358.44336 59.013672 C 361.04062 58.127947 363.31824 56.860627 365.76172 56.529297 z M 339.58203 56.978516 C 340.23086 57.061896 340.89022 57.123028 341.5625 57.154297 C 340.84592 57.175147 340.11634 57.176024 339.37109 57.152344 C 339.44409 57.095014 339.51402 57.038448 339.58203 56.978516 z M 385.70508 57.240234 C 386.67137 57.249834 387.64979 57.485461 388.63672 57.824219 C 389.75459 58.363607 390.75594 58.792159 391.69141 59.052734 C 392.87442 59.545221 394.06048 60.003121 395.23828 60.224609 C 395.22528 60.232409 395.21057 60.238544 395.19727 60.246094 C 392.31994 59.633065 389.35224 58.818277 385.58398 58.554688 C 384.4885 58.478518 383.39998 58.482309 382.31641 58.537109 C 382.22411 58.494139 382.12175 58.451149 382.03125 58.408203 C 382.56801 58.06685 383.19614 57.746898 383.98047 57.494141 C 384.54917 57.310435 385.1253 57.234397 385.70508 57.240234 z M 376.49023 57.373047 C 376.73413 57.478215 376.98024 57.588753 377.22461 57.695312 C 376.72376 57.672382 376.22195 57.696267 375.7207 57.751953 C 375.98493 57.621874 376.24665 57.493799 376.49023 57.373047 z M 348.4707 57.890625 L 348.80859 58.011719 C 348.09722 58.22539 347.40733 58.527842 346.70898 58.783203 L 344.40625 59.595703 C 343.52855 59.208611 342.64128 58.802137 341.73633 58.367188 C 344.03869 58.483691 346.27312 58.260483 348.4707 57.890625 z M 338.375 57.962891 C 338.70064 58.027331 339.02277 58.071611 339.3457 58.121094 C 339.65709 58.318219 339.9684 58.514606 340.28125 58.708984 L 339.05078 58.390625 C 338.67422 58.340545 338.29599 58.319702 337.91797 58.294922 C 338.07014 58.184438 338.22538 58.079868 338.375 57.962891 z M 350.55273 59.025391 C 350.76797 59.011321 350.98489 59.012367 351.20117 59.029297 C 351.43308 59.047537 351.66653 59.077451 351.89844 59.119141 L 353.42773 59.666016 C 351.69908 59.705966 350.04954 60.129905 348.41406 60.736328 C 347.82172 60.638898 347.23218 60.509078 346.65039 60.367188 L 346.23633 60.257812 L 348.64258 59.408203 C 349.26796 59.230361 349.90685 59.067286 350.55273 59.025391 z M 336.61719 59.091797 C 338.22572 59.158557 339.81262 59.533741 341.36914 59.951172 L 342.44336 60.255859 C 341.00759 60.534675 339.53146 60.526149 338.08008 60.367188 C 336.7259 60.220092 335.39307 59.934299 334.06836 59.613281 C 334.32242 59.608881 334.57824 59.604781 334.82422 59.587891 C 335.47378 59.543511 336.06125 59.357411 336.61719 59.091797 z M 327.04102 59.263672 C 327.53144 59.262372 328.03922 59.288166 328.54883 59.316406 L 325.26562 59.957031 C 324.76972 59.883211 324.27244 59.81629 323.77539 59.75 C 324.74077 59.3972 325.84948 59.266877 327.04102 59.263672 z M 384.69141 59.539062 C 384.96597 59.553393 385.24054 59.562507 385.51562 59.585938 C 388.47512 59.838147 390.92176 60.406686 393.21094 60.945312 C 390.89333 61.360079 388.06515 60.749985 385.46094 59.828125 L 385.46094 59.796875 C 385.24414 59.711745 385.02102 59.642825 384.79492 59.580078 C 384.76002 59.566788 384.72632 59.552433 384.69141 59.539062 z M 331.16992 59.619141 L 335.0918 60.800781 C 336.89758 61.222913 338.74041 61.597023 340.5957 61.568359 C 341.76931 61.549859 342.91408 61.269785 344.04883 60.947266 C 344.6081 61.257707 345.16661 61.56626 345.73047 61.857422 C 345.21781 62.095666 344.69589 62.352655 344.17773 62.603516 C 343.61114 62.700976 343.0796 62.853459 342.58789 63.066406 C 337.39822 62.245561 332.21441 61.08103 326.97656 60.222656 L 328.83789 60.005859 C 329.61701 59.891206 330.39341 59.752031 331.16992 59.619141 z M 323.71484 59.773438 C 324.18078 59.842697 324.64664 59.912428 325.11133 59.988281 L 325.04883 60 C 324.36844 60.09563 323.68383 60.11206 322.99609 60.107422 C 323.22384 59.977838 323.46451 59.868184 323.71484 59.773438 z M 365.01953 59.871094 L 364.78125 59.996094 C 363.86142 60.342659 362.85934 60.568326 361.85352 60.623047 C 361.74147 60.612627 361.62632 60.599067 361.51172 60.585938 L 365.01953 59.871094 z M 326.69141 60.255859 C 331.86432 61.173394 336.97348 62.396654 342.0918 63.308594 C 341.48184 63.621044 340.90636 63.990109 340.33984 64.384766 C 340.26824 64.415406 340.19718 64.446282 340.125 64.476562 C 336.34585 63.708424 332.45258 63.295766 328.33789 64.109375 C 327.27996 63.27814 326.16164 62.578182 324.79102 62.484375 C 323.58872 62.402185 322.27653 62.489575 320.95508 62.591797 C 321.26381 61.748925 321.70511 61.109915 322.24805 60.628906 L 323.13672 60.671875 L 326.69141 60.255859 z M 316.83789 60.367188 L 321.5625 60.595703 C 321.18727 61.134872 320.90645 61.798094 320.73438 62.607422 C 317.2883 62.878826 313.79491 63.224117 311.88477 61.121094 C 312.12997 61.052064 312.37594 60.98212 312.62305 60.921875 C 314.00149 60.585733 315.41778 60.380215 316.83789 60.367188 z M 352.99219 60.414062 C 353.63401 60.419263 354.25281 60.479002 354.85742 60.578125 C 353.32938 60.806545 351.78112 60.917382 350.23633 60.90625 C 349.98565 60.90405 349.73619 60.887747 349.48633 60.867188 C 350.73021 60.547432 351.89326 60.405302 352.99219 60.414062 z M 374.98242 60.544922 C 375.17837 60.640762 375.37353 60.739078 375.56641 60.841797 C 374.01416 61.410734 372.42088 62.076688 370.80859 62.783203 C 370.41169 62.45776 370.05655 62.15773 369.68945 61.908203 C 371.44362 61.417506 373.20791 60.94337 374.98242 60.544922 z M 381.42188 60.998047 C 382.82801 60.977197 384.12888 61.220813 385.19727 61.853516 C 384.10163 62.060021 382.99775 62.47748 381.89453 62.933594 C 378.65829 63.495633 375.67701 63.906696 372.88672 64.162109 C 372.56105 64.006181 372.26756 63.840841 371.99805 63.669922 C 373.51801 62.948314 375.30658 62.222003 377.12695 61.707031 C 377.27965 61.792761 377.43228 61.87935 377.58594 61.962891 L 377.88281 61.521484 C 379.08558 61.224361 380.28738 61.01494 381.42188 60.998047 z M 385.46094 61.183594 C 386.14721 61.437785 386.82293 61.66424 387.48828 61.869141 C 386.79935 62.010268 386.12593 62.145416 385.45898 62.275391 L 385.45898 62.017578 L 385.46094 62.017578 L 385.46094 61.183594 z M 357.57422 61.380859 C 357.84522 61.500724 358.12743 61.609955 358.40625 61.708984 C 358.47505 61.732954 358.54592 61.750878 358.61523 61.773438 C 359.19264 62.041542 359.76372 62.347949 360.33203 62.671875 C 359.16348 62.677375 358.31748 63.090638 357.54297 63.724609 C 355.49136 63.364635 353.47025 62.869571 351.4375 62.242188 C 352.13584 62.259647 352.83538 62.251593 353.53125 62.195312 L 357.57422 61.380859 z M 346.18555 62.082031 C 346.78138 62.382751 347.37992 62.665177 347.98047 62.939453 C 346.99805 62.64277 346.12821 62.511678 345.34766 62.509766 C 345.62467 62.364912 345.90222 62.218414 346.18555 62.082031 z M 362.80859 62.173828 C 363.21249 62.202488 363.6215 62.223945 364.02539 62.234375 C 364.33537 62.241175 364.64502 62.222122 364.95312 62.195312 C 364.61444 62.362915 364.23295 62.576947 363.8418 62.800781 C 363.44627 62.901858 363.04935 63.000092 362.6543 63.087891 C 362.6202 63.077471 362.58829 63.070417 362.55469 63.060547 C 362.16349 62.76604 361.77783 62.495575 361.39844 62.244141 C 361.86883 62.244604 362.34128 62.224328 362.80859 62.173828 z M 367.27734 63.294922 C 367.87112 63.254872 368.34214 63.388522 368.85156 63.650391 C 368.22337 63.930723 367.59372 64.204492 366.96484 64.476562 C 366.62628 64.479163 366.29882 64.467664 365.96484 64.464844 C 365.80589 64.386304 365.65758 64.311898 365.48828 64.230469 C 365.3137 64.144479 365.14203 64.062548 364.97266 63.984375 C 365.96803 63.549215 366.68355 63.334985 367.27734 63.294922 z M 361.20508 64.011719 C 361.33693 64.041399 361.46914 64.067123 361.59961 64.101562 L 361.37695 64.232422 C 361.04845 64.201492 360.71494 64.184764 360.38867 64.146484 C 360.65954 64.108934 360.93319 64.055804 361.20508 64.011719 z M 346.19922 64.095703 C 349.20753 64.034673 351.9242 65.644476 355.04102 66.271484 C 354.71266 66.610232 354.35636 66.956822 353.96289 67.300781 C 350.18716 67.003726 346.44179 65.931539 342.60352 65.027344 C 343.30186 64.680779 344.04636 64.393978 344.89062 64.232422 C 345.33425 64.147732 345.76945 64.104432 346.19922 64.095703 z M 306.79688 64.183594 C 306.79388 64.183594 306.79597 64.185547 306.79297 64.185547 C 307.76156 65.635621 308.70746 66.720845 309.65625 67.529297 L 310.2793 67.529297 C 308.84655 66.674925 307.80009 65.619426 306.79688 64.183594 z M 397.50195 64.632812 C 394.16203 65.097303 391.07594 66.576974 387.91016 67.933594 C 388.32877 68.062849 388.73045 68.228448 389.12109 68.414062 C 390.97424 67.653243 392.80673 66.867794 394.57422 66.167969 C 395.55407 65.882454 396.53066 65.658207 397.50391 65.509766 L 397.50195 64.632812 z M 331.52539 64.921875 C 330.85571 64.953145 330.19309 65.016225 329.54688 65.099609 C 329.47647 65.039679 329.40434 64.983108 329.33398 64.925781 C 330.08183 64.904931 330.80884 64.903625 331.52539 64.921875 z M 353.37891 64.951172 C 354.16405 65.172348 354.95212 65.362798 355.74023 65.527344 C 355.73523 65.532544 355.73226 65.537749 355.72656 65.542969 C 354.93243 65.435455 354.15503 65.211067 353.37891 64.951172 z M 372.43945 65.777344 C 372.65729 65.89059 372.83199 65.996124 373.07617 66.113281 C 373.27681 66.209691 373.49335 66.282517 373.72266 66.339844 C 372.02952 66.808652 370.89049 66.673031 369.44727 66.103516 C 370.44464 66.014716 371.44179 65.904619 372.43945 65.777344 z M 332.13672 65.960938 C 332.95266 65.964038 333.81723 66.029308 334.72656 66.140625 C 334.04125 66.265336 333.34367 66.366961 332.61914 66.417969 C 331.99681 66.461719 332.02473 66.468989 331.52539 66.505859 C 331.24983 66.356393 330.98388 66.187613 330.72266 66.005859 C 331.18453 65.974589 331.65413 65.959139 332.13672 65.960938 z M 360.02734 66.166016 C 360.79771 66.237886 361.56961 66.295528 362.3418 66.326172 C 360.02106 67.133916 357.74171 67.420526 355.47852 67.376953 C 355.75473 67.077294 356.03108 66.767763 356.30469 66.462891 C 357.47144 66.578925 358.70216 66.521681 360.02734 66.166016 z M 336.39453 66.400391 C 336.57902 66.434661 336.75004 66.457294 336.93945 66.496094 C 336.16033 66.832236 335.30006 67.074824 334.30469 67.150391 C 333.44528 67.214391 332.6917 67.025418 331.99023 66.714844 C 333.26536 66.646544 334.6072 66.567784 335.69727 66.486328 C 335.93621 66.468608 336.16345 66.431871 336.39453 66.400391 z M 383.39648 110.29297 C 382.12292 110.33257 381.03517 110.39984 380.39062 110.52148 L 380.19531 110.52148 C 379.12405 110.81922 378.09942 111.2896 377.08203 111.82031 L 376.76758 110.52148 L 376.75195 110.52148 L 375.08008 111.24609 C 374.37023 110.96184 373.67739 110.73023 372.99219 110.52148 L 358.20117 110.52344 C 355.77377 111.06386 353.32024 111.71921 350.72656 112.28906 C 350.59106 112.20566 350.45774 112.12245 350.32227 112.03906 C 351.56906 111.57967 353.07609 111.00849 354.63281 110.52344 L 352.14258 110.52344 C 351.9843 110.57494 351.81901 110.62961 351.66211 110.67969 C 350.80221 110.95329 349.99526 111.19064 349.22656 111.39648 C 348.5548 111.03392 347.83355 110.73184 347.03711 110.52344 L 343.07227 110.52344 C 341.96371 110.84387 341.03292 111.41052 340.16602 112.03711 C 339.5281 112.05481 338.88825 112.07546 338.25 112.09766 C 337.31159 111.92242 336.36692 111.6858 335.38672 111.41602 C 334.86292 111.12834 334.31954 110.82167 333.78516 110.52344 L 333.26172 110.52344 C 333.52686 110.69807 333.78482 110.85933 334.05078 111.03516 C 333.80636 110.96326 333.572 110.89755 333.32031 110.82227 C 332.97165 110.71774 332.66377 110.62528 332.32812 110.52344 L 329.01367 110.52344 C 330.69013 111.00778 332.48323 111.62742 334.39844 112.18164 L 331.31641 112.24023 C 329.64088 112.10995 327.95991 111.81359 326.43555 111.11523 C 326.0627 110.94419 325.70562 110.74264 325.35742 110.52539 L 324.95508 110.52539 C 326.00699 111.20676 327.11991 111.79018 328.30859 112.17188 C 326.26863 112.05021 324.28107 112.16098 322.47656 112.81445 L 319.03711 112.14453 L 318.70117 112.08398 C 319.3625 111.48629 320.10934 110.97882 320.99219 110.52539 L 320.16016 110.52539 C 319.61154 110.93918 319.06587 111.44107 318.51758 112.05078 L 314.2168 111.28125 C 313.52277 111.07347 312.84741 110.81447 312.18555 110.52539 L 311.28125 110.52539 C 311.36455 110.57119 311.44036 110.62874 311.52539 110.67188 C 313.08884 111.46401 314.82972 111.83961 316.53906 112.22266 L 318.13281 112.50781 C 317.70182 113.02481 317.2681 113.58264 316.83008 114.23828 C 316.83008 114.23828 316.83098 114.24219 316.83398 114.24219 C 317.28348 113.59795 317.74222 113.03272 318.23828 112.52539 L 321.57227 113.12109 L 321.66016 113.14648 C 320.919 113.49372 320.49184 114.12462 320.07617 114.78711 C 320.07917 114.79011 320.08319 114.78906 320.08789 114.78906 C 320.30677 114.4868 320.52916 114.18508 320.74805 113.88281 C 321.02861 113.60866 321.3717 113.36714 321.73828 113.16992 L 326.34961 114.51758 L 327.01953 114.71875 C 325.28069 114.77565 323.70685 115.07906 322.54492 115.94141 C 322.37346 115.92111 322.20284 115.8943 322.03125 115.875 L 322.03125 115.88086 C 322.19828 115.90246 322.36433 115.93063 322.53125 115.95312 C 322.33243 116.10184 322.13979 116.25807 321.9668 116.44141 C 321.68548 116.43541 321.40392 116.43019 321.12305 116.42969 C 318.96549 116.42169 316.80729 116.29474 314.67578 116.5918 C 313.67009 116.72993 312.67962 116.96656 311.71289 117.2793 C 311.11662 116.53813 310.6968 115.52264 310.51367 114.14258 L 310.50781 114.14258 C 310.54401 115.52979 310.82092 116.59959 311.2793 117.42773 C 311.02524 117.51693 310.76942 117.60503 310.51953 117.70508 C 309.18278 118.24186 307.89978 118.93762 306.75586 119.81055 L 305.08984 121.2832 L 305.0957 121.29102 C 306.24484 120.39724 307.34752 119.42099 308.63477 118.73828 C 309.51121 118.27364 310.43763 117.91132 311.38672 117.61719 C 313.05385 120.32651 316.83685 120.20412 320.60352 119.93945 C 320.58272 120.16925 320.54586 120.38119 320.53906 120.63086 L 320.55078 120.63086 C 320.58438 120.37667 320.64408 120.16362 320.69336 119.93359 C 321.88192 119.84939 323.06753 119.75653 324.18164 119.73242 C 325.3855 119.70632 326.38094 120.10512 327.31641 120.68359 C 322.43583 121.81449 317.93733 123.30154 312.86914 122.05859 C 312.11087 121.87098 311.2816 121.44827 310.71094 120.89062 C 310.49205 120.58576 310.27032 120.28404 310.04883 119.98438 L 310.04102 119.98438 C 310.46054 120.65144 310.88822 121.28169 311.63086 121.63086 C 316.52965 123.93174 323.00658 121.70726 328.25195 121.32422 C 328.36921 121.41022 328.48493 121.4993 328.59961 121.58789 C 325.50204 122.10207 322.72332 123.07712 320.16016 123.87695 L 323.53711 123.87695 C 325.76021 123.21502 327.68889 122.68358 329.71289 122.44531 C 329.94272 122.61846 330.18678 122.77849 330.42578 122.94336 C 326.45347 123.25708 327.69229 123.26776 330.68945 123.12695 C 331.12308 123.41184 331.58837 123.65815 332.07422 123.87695 L 338.13086 123.87695 C 338.49459 123.72508 338.8487 123.56018 339.1875 123.37695 C 339.72396 123.5188 340.3095 123.70039 340.88867 123.87695 L 343.43359 123.87695 C 342.29935 123.48835 341.2188 123.08034 340.28516 122.73633 C 340.42326 122.65293 340.55461 122.56971 340.6875 122.48633 C 342.69572 122.92696 344.62021 123.42365 346.51172 123.87695 L 364.06445 123.87695 C 364.82482 123.60611 365.5951 123.30628 366.38672 122.94141 C 366.55687 123.0521 366.72698 123.16324 366.90039 123.27344 C 367.22651 123.48208 367.54453 123.67177 367.86719 123.87695 L 368.86914 123.87695 C 368.73514 123.79555 368.59591 123.7259 368.46289 123.64258 C 368.65175 123.72608 368.84244 123.80169 369.0332 123.87695 L 375.46094 123.87695 C 376.70725 123.27653 377.9152 122.6047 379.08008 122.0332 C 380.27612 121.66058 381.48175 121.20923 382.5918 120.81055 C 383.57938 120.68547 384.53655 120.81655 385.45898 121.35352 L 385.45898 119.88281 C 387.1565 119.55852 388.85108 119.24804 390.53711 118.96289 C 392.35874 119.25137 394.0382 119.20251 395.49805 118.62891 L 395.49805 118.36914 C 396.12237 118.32914 396.79701 118.30131 397.48633 118.28711 L 397.48633 116.99219 C 397.40013 116.99519 397.31478 116.99269 397.22852 116.99609 C 396.65173 116.90209 396.07473 116.77421 395.49805 116.6543 L 395.49805 116.40625 L 395.49805 115.27344 L 395.49805 113.42188 C 394.5704 113.96126 393.61974 114.08797 392.62695 113.96289 C 391.52211 113.56421 390.31388 113.11286 389.11523 112.74023 C 387.8749 112.12789 386.5796 111.39426 385.23242 110.76367 C 384.59432 110.51358 383.98709 110.37626 383.39648 110.29297 z M 365.51758 111.04883 C 367.81846 111.00713 370.13333 111.29768 372.49414 112.13672 C 372.58614 112.16932 372.68122 112.21072 372.77344 112.24414 L 371.74219 112.68945 L 371.5625 112.7832 C 369.64876 111.97506 367.93597 111.80629 366.34375 111.96484 C 366.07015 111.65997 365.79639 111.34849 365.51758 111.04883 z M 364.00586 111.12305 C 364.39672 111.46961 364.7511 111.81555 365.08203 112.1543 C 361.51736 112.87348 358.47286 114.87151 354.93164 114.19141 C 354.08998 114.02985 353.34287 113.74305 352.64453 113.39648 C 356.4828 112.49229 360.23273 111.4175 364.00586 111.12305 z M 343.83203 111.26758 C 343.99984 111.26158 344.17177 111.2666 344.34766 111.2793 C 345.34045 111.3549 346.20135 111.59745 346.98047 111.93359 C 346.20057 112.09314 345.47675 112.20099 344.77539 112.28711 C 344.6068 112.25881 344.44107 112.21716 344.27148 112.19336 C 343.31973 112.05755 342.36142 112.02604 341.40039 112.02539 C 342.13678 111.60041 342.92489 111.29838 343.83203 111.26758 z M 381.67188 111.80078 C 382.30313 111.77838 382.96827 111.86998 383.75781 112.08984 C 383.53372 112.14454 383.31653 112.21999 383.11328 112.31641 C 381.89118 112.90009 381.018 113.44439 380.32227 113.89258 C 379.92619 113.68151 379.5653 113.47993 379.25 113.29492 C 378.95555 113.12294 378.65838 112.95973 378.36914 112.80078 C 379.6606 112.19169 380.61972 111.83796 381.67188 111.80078 z M 326.61523 112.24609 C 327.43365 112.23409 328.24089 112.29389 329.04492 112.37891 C 329.83525 112.56884 330.63919 112.68094 331.45312 112.73633 C 333.39974 113.10747 335.34409 113.62419 337.35156 114.08984 C 337.0272 114.29155 336.68862 114.45981 336.3418 114.60742 C 334.99913 114.62462 333.65464 114.74563 332.32227 114.92773 L 332.25781 114.93945 C 331.41173 114.88255 330.55607 114.82013 329.70117 114.76953 L 323.94531 113.09961 L 322.54688 112.82812 C 322.66674 112.78812 322.78662 112.74362 322.9043 112.71484 C 324.17134 112.40412 325.40424 112.26372 326.61523 112.24609 z M 348.4043 112.69336 C 348.4303 112.71156 348.45773 112.72789 348.48633 112.74609 C 348.23878 112.79039 347.98453 112.83459 347.73438 112.87891 C 347.95585 112.81901 348.1802 112.7585 348.4043 112.69336 z M 367.10547 112.80273 C 368.0722 112.82093 369.07553 113.01145 370.13867 113.44922 L 370.21484 113.49414 L 369.50391 113.86719 L 369.39453 113.86719 C 369.03562 113.86919 368.67655 113.8821 368.31836 113.9043 C 367.91314 113.59705 367.5091 113.2301 367.10547 112.80273 z M 333.50391 112.80859 C 333.71888 112.81359 333.93422 112.82663 334.14844 112.83203 L 336.75391 112.81641 C 337.03858 113.00298 337.31951 113.18727 337.60547 113.37305 C 336.28928 113.24312 334.91315 113.03411 333.50391 112.80859 z M 365.76172 112.87891 C 366.14914 113.3013 366.50728 113.69011 366.86523 114.05078 C 366.16679 114.14368 365.47284 114.26401 364.78711 114.41797 L 358.09375 116.21875 C 357.9348 116.17445 357.782 116.13285 357.62305 116.08594 L 357.61328 116.08203 C 357.37095 115.98473 357.13275 115.87524 356.89258 115.77148 C 357.37983 115.67888 357.88945 115.55056 358.44336 115.36133 C 361.04062 114.4756 363.31824 113.21024 365.76172 112.87891 z M 339.58203 113.32617 C 340.23086 113.40957 340.89022 113.47264 341.5625 113.50391 C 340.84592 113.52471 340.11634 113.52565 339.37109 113.50195 C 339.44409 113.44465 339.51402 113.3861 339.58203 113.32617 z M 385.70508 113.58984 C 386.67137 113.59984 387.64979 113.83509 388.63672 114.17383 C 389.75459 114.71322 390.75594 115.13982 391.69141 115.40039 C 392.87442 115.89288 394.06048 116.35273 395.23828 116.57422 C 395.22528 116.58222 395.21057 116.5879 395.19727 116.5957 C 392.31994 115.98267 389.35224 115.16789 385.58398 114.9043 C 384.4885 114.8281 383.39998 114.83212 382.31641 114.88672 C 382.22411 114.84372 382.12175 114.80072 382.03125 114.75781 C 382.56801 114.41646 383.19614 114.09651 383.98047 113.84375 C 384.54917 113.66004 385.1253 113.58401 385.70508 113.58984 z M 376.49023 113.72266 C 376.73544 113.8284 376.98279 113.93972 377.22852 114.04688 C 376.72376 114.02338 376.21804 114.04887 375.71289 114.10547 C 375.98006 113.97396 376.24417 113.84465 376.49023 113.72266 z M 348.46484 114.24023 L 348.80859 114.36328 C 348.09722 114.57695 347.40733 114.8794 346.70898 115.13477 L 344.4082 115.94531 C 343.52996 115.55801 342.64185 115.15202 341.73633 114.7168 C 344.03669 114.8332 346.26908 114.60952 348.46484 114.24023 z M 338.375 114.3125 C 338.70064 114.3769 339.02277 114.42122 339.3457 114.4707 C 339.6586 114.66879 339.9708 114.86719 340.28516 115.0625 L 339.05078 114.74219 C 338.67297 114.69189 338.29336 114.67314 337.91406 114.64844 C 338.0678 114.53696 338.22394 114.4306 338.375 114.3125 z M 350.55273 115.375 C 350.76797 115.3609 350.98489 115.35975 351.20117 115.37695 C 351.43308 115.39515 351.66653 115.42705 351.89844 115.46875 L 353.42773 116.01562 C 351.69908 116.05563 350.04954 116.47951 348.41406 117.08594 C 347.82172 116.98854 347.23218 116.85869 346.65039 116.7168 L 346.23633 116.60742 L 348.64258 115.75781 C 349.26796 115.57997 349.90685 115.4169 350.55273 115.375 z M 336.61719 115.44141 C 338.22572 115.50821 339.81262 115.88335 341.36914 116.30078 L 342.44336 116.60547 C 341.00759 116.88428 339.53146 116.87573 338.08008 116.7168 C 336.7259 116.56968 335.39307 116.28391 334.06836 115.96289 C 334.32242 115.95889 334.57824 115.9549 334.82422 115.9375 C 335.47378 115.8931 336.06125 115.70702 336.61719 115.44141 z M 327.04102 115.61328 C 327.53335 115.61228 328.04307 115.63762 328.55469 115.66602 L 325.26562 116.30664 C 324.76972 116.23284 324.27244 116.1659 323.77539 116.09961 C 324.74077 115.74681 325.84948 115.61649 327.04102 115.61328 z M 384.6875 115.88672 C 384.96337 115.90102 385.23922 115.91205 385.51562 115.93555 C 388.47512 116.18776 390.92176 116.75629 393.21094 117.29492 C 390.89336 117.70966 388.06513 117.0996 385.46094 116.17773 L 385.46094 116.14648 C 385.24596 116.06208 385.02482 115.99402 384.80078 115.93164 C 384.76248 115.91704 384.72578 115.90132 384.6875 115.88672 z M 331.16992 115.96875 L 335.0918 117.15039 C 336.89758 117.57252 338.74041 117.94663 340.5957 117.91797 C 341.76931 117.89947 342.91408 117.61938 344.04883 117.29688 C 344.6081 117.6073 345.16661 117.91587 345.73047 118.20703 C 345.21661 118.44582 344.69321 118.70168 344.17383 118.95312 C 343.60963 119.05052 343.07975 119.2021 342.58984 119.41406 C 337.39955 118.5932 332.21503 117.43074 326.97656 116.57227 L 328.83789 116.35547 C 329.61701 116.24082 330.39341 116.10164 331.16992 115.96875 z M 323.71484 116.12305 C 324.18078 116.19235 324.64664 116.26204 325.11133 116.33789 L 325.04883 116.34961 C 324.36844 116.44521 323.68383 116.46167 322.99609 116.45703 C 323.2241 116.3274 323.46441 116.21782 323.71484 116.12305 z M 365.01953 116.21875 L 364.78125 116.34375 C 363.86142 116.69031 362.85934 116.91794 361.85352 116.97266 C 361.74147 116.96226 361.62632 116.94865 361.51172 116.93555 L 365.01953 116.21875 z M 326.69141 116.60547 C 331.86432 117.523 336.97348 118.74626 342.0918 119.6582 C 341.4795 119.97185 340.90266 120.34198 340.33398 120.73828 C 340.26518 120.76768 340.19601 120.79522 340.12695 120.82422 C 336.34723 120.05583 332.45326 119.64524 328.33789 120.45898 C 327.27996 119.62775 326.16164 118.92779 324.79102 118.83398 C 323.58872 118.75178 322.27653 118.83898 320.95508 118.94141 C 321.26373 118.09859 321.70524 117.45955 322.24805 116.97852 L 323.13672 117.02148 L 326.69141 116.60547 z M 316.83789 116.7168 L 321.5625 116.94531 C 321.18727 117.48448 320.90645 118.14771 320.73438 118.95703 C 317.2883 119.22844 313.79491 119.57373 311.88477 117.4707 C 312.12997 117.4017 312.37584 117.33176 312.62305 117.27148 C 314.00149 116.93535 315.41778 116.72983 316.83789 116.7168 z M 352.99219 116.76367 C 353.63401 116.76867 354.25281 116.82857 354.85742 116.92773 C 353.32938 117.15615 351.78112 117.26699 350.23633 117.25586 C 349.98565 117.25386 349.73619 117.2374 349.48633 117.2168 C 350.73021 116.89704 351.89326 116.75491 352.99219 116.76367 z M 374.98242 116.89453 C 375.17837 116.99033 375.37353 117.08868 375.56641 117.19141 C 374.01416 117.76034 372.42088 118.4263 370.80859 119.13281 C 370.4109 118.80672 370.05538 118.50565 369.6875 118.25586 C 371.44226 117.76499 373.20731 117.29312 374.98242 116.89453 z M 381.42188 117.3457 C 382.82801 117.3249 384.12888 117.57043 385.19727 118.20312 C 384.10217 118.4095 382.99913 118.82737 381.89648 119.2832 C 378.65954 119.8454 375.67753 120.25626 372.88672 120.51172 C 372.56105 120.35579 372.26756 120.19045 371.99805 120.01953 C 373.51801 119.29792 375.30658 118.57161 377.12695 118.05664 C 377.27965 118.14234 377.43228 118.22896 377.58594 118.3125 L 377.88281 117.87109 C 379.08558 117.57397 380.28737 117.3626 381.42188 117.3457 z M 385.46094 117.5332 C 386.14661 117.78716 386.82155 118.01399 387.48633 118.21875 C 386.7981 118.35972 386.12527 118.4932 385.45898 118.62305 L 385.45898 118.36719 L 385.46094 118.36719 L 385.46094 117.5332 z M 357.57422 117.73047 C 357.84522 117.85033 358.12743 117.95957 358.40625 118.05859 C 358.47505 118.08259 358.54592 118.10045 358.61523 118.12305 C 359.19264 118.39115 359.76372 118.69757 360.33203 119.02148 C 359.16348 119.02748 358.31748 119.44025 357.54297 120.07422 C 355.49136 119.71425 353.47025 119.21918 351.4375 118.5918 C 352.13584 118.6093 352.83538 118.59977 353.53125 118.54297 L 357.57422 117.73047 z M 346.18555 118.43164 C 346.78138 118.73236 347.37992 119.01479 347.98047 119.28906 C 346.99805 118.99238 346.12821 118.85934 345.34766 118.85742 C 345.62462 118.71259 345.9023 118.56799 346.18555 118.43164 z M 362.80859 118.52344 C 363.21249 118.55214 363.6215 118.57163 364.02539 118.58203 C 364.33537 118.58903 364.64502 118.57162 364.95312 118.54492 C 364.61514 118.71219 364.23394 118.92519 363.84375 119.14844 C 363.44734 119.24975 363.05024 119.3495 362.6543 119.4375 C 362.6207 119.4271 362.59004 119.4182 362.55664 119.4082 C 362.16424 119.11274 361.77705 118.84393 361.39648 118.5918 C 361.86753 118.59233 362.34065 118.57414 362.80859 118.52344 z M 367.27734 119.64453 C 367.87112 119.60443 368.34214 119.73813 368.85156 120 C 368.22337 120.28033 367.59372 120.5541 366.96484 120.82617 C 366.62696 120.82917 366.30012 120.81715 365.9668 120.81445 C 365.80706 120.73565 365.65828 120.65989 365.48828 120.57812 C 365.3137 120.49213 365.14203 120.41216 364.97266 120.33398 C 365.96803 119.89882 366.68355 119.68459 367.27734 119.64453 z M 361.20508 120.36133 C 361.33693 120.39103 361.46914 120.41687 361.59961 120.45117 L 361.37695 120.58203 C 361.04845 120.55113 360.71494 120.53429 360.38867 120.49609 C 360.65954 120.45859 360.93319 120.40539 361.20508 120.36133 z M 346.19922 120.44531 C 349.20753 120.38431 351.9242 121.99408 355.04102 122.62109 C 354.71266 122.95984 354.35636 123.30643 353.96289 123.65039 C 350.18716 123.35334 346.44179 122.28115 342.60352 121.37695 C 343.30186 121.03039 344.04636 120.74359 344.89062 120.58203 C 345.33425 120.49733 345.76945 120.45404 346.19922 120.44531 z M 306.79688 120.53125 C 306.79388 120.53125 306.79597 120.53516 306.79297 120.53516 C 307.76041 121.98351 308.70469 123.06878 309.65234 123.87695 L 310.27344 123.87695 C 308.84349 123.02263 307.79883 121.96527 306.79688 120.53125 z M 397.48828 120.98242 C 394.15361 121.44931 391.07163 122.9281 387.91016 124.2832 C 388.32877 124.41246 388.73046 124.57806 389.12109 124.76367 C 390.97424 124.00285 392.80673 123.21741 394.57422 122.51758 C 395.54945 122.23341 396.52153 122.01182 397.49023 121.86328 L 397.48828 120.98242 z M 331.52539 121.27148 C 330.85571 121.30278 330.19309 121.36588 329.54688 121.44922 C 329.47647 121.38932 329.40434 121.33272 329.33398 121.27539 C 330.08183 121.25459 330.80884 121.25338 331.52539 121.27148 z M 353.36719 121.29492 C 354.15623 121.51751 354.94816 121.71158 355.74023 121.87695 C 355.73523 121.88195 355.73226 121.88738 355.72656 121.89258 C 354.92839 121.78452 354.14727 121.55669 353.36719 121.29492 z M 372.43945 122.12695 C 372.65729 122.2402 372.83199 122.34573 373.07617 122.46289 C 373.27681 122.55929 373.49335 122.63213 373.72266 122.68945 C 372.02952 123.15826 370.89049 123.02264 369.44727 122.45312 C 370.44464 122.36432 371.44179 122.25423 372.43945 122.12695 z M 332.13672 122.31055 C 332.95148 122.31355 333.81481 122.37925 334.72266 122.49023 C 334.03859 122.61461 333.34229 122.71667 332.61914 122.76758 C 331.99681 122.81138 332.02473 122.81857 331.52539 122.85547 C 331.24983 122.706 330.98388 122.53722 330.72266 122.35547 C 331.18453 122.32417 331.65413 122.30875 332.13672 122.31055 z M 360.02734 122.51562 C 360.79901 122.58763 361.57221 122.64318 362.3457 122.67383 C 360.02354 123.48268 357.74307 123.77016 355.47852 123.72656 C 355.75473 123.4269 356.03108 123.11737 356.30469 122.8125 C 357.47144 122.92851 358.70216 122.8713 360.02734 122.51562 z M 336.39453 122.75 C 336.57902 122.7843 336.75004 122.8069 336.93945 122.8457 C 336.16033 123.18185 335.30006 123.42443 334.30469 123.5 C 333.44528 123.564 332.6917 123.37503 331.99023 123.06445 C 333.26536 122.99615 334.6072 122.91737 335.69727 122.83594 C 335.93621 122.81824 336.16345 122.7814 336.39453 122.75 z M 420.68945 307.92969 C 420.36956 307.93369 420.09346 307.94307 419.80273 307.95117 C 418.16798 308.10059 416.67166 308.75709 415.19141 309.5293 L 414.875 308.22461 L 413.1875 308.95508 C 412.42111 308.64826 411.67534 308.40082 410.9375 308.18164 L 396.54297 308.18359 C 394.04056 308.73322 391.51172 309.41406 388.83594 310.00195 C 388.70044 309.91855 388.56714 309.83534 388.43164 309.75195 C 389.72053 309.27705 391.28182 308.67874 392.89453 308.18359 L 390.40234 308.18359 C 390.19419 308.25169 389.9773 308.32298 389.77148 308.38867 C 388.91159 308.66228 388.10268 308.89961 387.33398 309.10547 C 386.60812 308.7137 385.82858 308.38944 384.95312 308.18359 L 381.38477 308.18359 C 380.18996 308.49118 379.196 309.082 378.2793 309.74414 C 377.63552 309.76234 376.99172 309.78229 376.34766 309.80469 C 375.41576 309.6301 374.47708 309.3966 373.50391 309.12891 C 372.94905 308.82421 372.37534 308.50036 371.80859 308.18359 L 371.29492 308.18359 C 371.58616 308.37547 371.86985 308.55281 372.16211 308.74609 C 371.91717 308.67419 371.68205 308.60877 371.42969 308.5332 C 371.02118 308.41074 370.65831 308.30217 370.26758 308.18359 L 366.94922 308.18359 C 368.67289 308.67388 370.52336 309.31784 372.50195 309.89062 L 369.42578 309.94922 C 367.75026 309.81893 366.06931 309.52256 364.54492 308.82422 C 364.14199 308.63937 363.75511 308.42205 363.38086 308.18359 L 362.99414 308.18359 C 364.06962 308.88654 365.20687 309.49246 366.42578 309.88281 C 364.38358 309.76034 362.39441 309.86971 360.58789 310.52344 L 357.14648 309.85352 L 356.8125 309.79297 C 357.49855 309.17327 358.27591 308.64926 359.20312 308.18359 L 358.33398 308.18555 C 357.76498 308.608 357.19959 309.12939 356.63086 309.76172 L 352.32812 308.99023 C 351.59409 308.77047 350.87947 308.49616 350.18164 308.18555 L 349.31445 308.18555 C 349.42378 308.24705 349.52448 308.32198 349.63672 308.37891 C 351.20017 309.17105 352.94102 309.54664 354.65039 309.92969 L 356.24609 310.21484 C 355.8145 310.73237 355.38003 311.2927 354.94141 311.94922 C 354.94141 311.94922 354.94231 311.95117 354.94531 311.95117 C 355.39507 311.30654 355.85514 310.74194 356.35156 310.23438 L 359.68164 310.82812 L 359.77148 310.85352 C 359.02879 311.2005 358.60364 311.83285 358.1875 312.49609 C 358.1905 312.49909 358.19452 312.49795 358.19922 312.50195 C 358.4181 312.19708 358.64048 311.89602 358.85938 311.59375 C 359.14053 311.319 359.48407 311.07634 359.85156 310.87891 L 364.46094 312.22656 L 365.13672 312.42969 C 363.39553 312.48599 361.81951 312.78903 360.65625 313.65234 C 360.48479 313.63154 360.31417 313.60524 360.14258 313.58594 L 360.14258 313.5918 C 360.30961 313.6126 360.47568 313.64166 360.64258 313.66406 C 360.44402 313.81285 360.25115 313.969 360.07812 314.15234 C 359.79656 314.14734 359.51551 314.13867 359.23438 314.13867 C 357.0768 314.13067 354.91861 314.00633 352.78711 314.30078 C 351.78132 314.44071 350.7891 314.67731 349.82227 314.99023 C 349.22688 314.24942 348.80795 313.23573 348.625 311.85742 L 348.61914 311.85742 C 348.65534 313.243 348.93157 314.31088 349.38867 315.13867 C 349.13487 315.22777 348.88062 315.31611 348.63086 315.41602 C 347.29411 315.95277 346.01111 316.64856 344.86719 317.52148 L 343.20117 318.99414 L 343.20703 319 C 344.35617 318.10362 345.45693 317.12997 346.74414 316.44727 C 347.61946 315.98321 348.54632 315.62 349.49414 315.32617 C 351.15906 318.04183 354.94409 317.91948 358.71289 317.6543 C 358.69209 317.88308 358.65689 318.09318 358.65039 318.3418 L 358.66016 318.3418 C 358.69376 318.088 358.75376 317.8761 358.80273 317.64648 C 359.99192 317.56208 361.17828 317.46955 362.29297 317.44531 C 363.49683 317.41921 364.49227 317.8154 365.42773 318.39648 C 364.13453 318.69545 362.86879 319.01665 361.61133 319.30859 L 363.99414 319.30859 C 364.80254 319.19409 365.59853 319.09297 366.36328 319.03711 C 366.48054 319.12571 366.59623 319.21039 366.71094 319.29883 C 366.69384 319.30183 366.67726 319.30559 366.66016 319.30859 L 381.61133 319.30859 C 381.31011 319.23579 381.0152 319.16497 380.71289 319.09375 C 381.41123 318.74458 382.15378 318.45648 382.99805 318.29492 C 383.44168 318.21002 383.87883 318.16732 384.30859 318.1582 C 386.14179 318.1199 387.87336 318.70503 389.64648 319.30859 L 392.46289 319.30859 C 392.0957 319.2067 391.73055 319.09377 391.36523 318.96875 C 391.82269 319.09947 392.28178 319.19741 392.74023 319.30859 L 418.49219 319.30859 C 419.24835 319.0458 419.99527 318.77726 420.70117 318.52539 C 421.68875 318.39771 422.64592 318.53039 423.56836 319.06445 L 423.56836 317.5918 C 425.26473 317.26767 426.95767 316.95523 428.64258 316.66992 C 430.46574 316.95945 432.14651 316.91384 433.60742 316.33984 L 433.60742 316.07617 C 433.65402 316.07317 433.70888 316.07331 433.75586 316.07031 L 433.75586 314.44727 C 433.76086 314.42957 433.77029 314.41223 433.77539 314.39453 C 433.71939 314.38283 433.6634 314.37293 433.60742 314.36133 L 433.60742 314.11914 L 433.60742 312.98242 L 433.60742 311.13086 C 432.67977 311.67025 431.72912 311.79694 430.73633 311.67188 C 429.63149 311.27319 428.4213 310.82379 427.22266 310.45117 C 425.98232 309.83882 424.68897 309.10325 423.3418 308.47266 C 422.40447 308.10529 421.52938 307.9534 420.68945 307.92969 z M 403.625 308.76172 C 405.92588 308.72002 408.24271 309.00847 410.60352 309.84766 C 410.69552 309.88026 410.79059 309.92176 410.88281 309.95508 L 409.85156 310.40039 L 409.67188 310.49414 C 407.75813 309.68602 406.04339 309.51725 404.45117 309.67578 C 404.17757 309.37093 403.90382 309.06138 403.625 308.76172 z M 402.11523 308.83398 C 402.5061 309.18058 402.86048 309.52651 403.19141 309.86523 C 399.62674 310.58442 396.58223 312.5844 393.04102 311.9043 C 392.19936 311.74274 391.45225 311.4559 390.75391 311.10938 C 394.59218 310.20515 398.34211 309.12843 402.11523 308.83398 z M 381.94141 308.98047 C 382.10922 308.97547 382.28114 308.97723 382.45703 308.99023 C 383.44982 309.06583 384.30877 309.30839 385.08789 309.64453 C 384.31091 309.80348 383.5916 309.91198 382.89258 309.99805 C 382.72138 309.96915 382.5531 309.92654 382.38086 309.90234 C 381.43106 309.76684 380.4747 309.7332 379.51562 309.73242 C 380.25011 309.30956 381.03705 309.01116 381.94141 308.98047 z M 419.7832 309.51172 C 420.4145 309.48822 421.0796 309.58102 421.86914 309.80078 C 421.64244 309.85548 421.42525 309.93067 421.22461 310.02734 C 420.00251 310.61103 419.12933 311.15533 418.43359 311.60352 C 418.03752 311.39245 417.67662 311.19282 417.36133 311.00781 C 417.06688 310.83583 416.76971 310.67067 416.48047 310.51172 C 417.77193 309.90262 418.73105 309.5489 419.7832 309.51172 z M 364.72461 309.95703 C 365.55321 309.94403 366.36966 310.00643 367.18359 310.09375 C 367.95831 310.27772 368.74561 310.39036 369.54297 310.44531 C 371.49585 310.81666 373.447 311.33558 375.46094 311.80273 C 375.1397 312.0026 374.80414 312.16767 374.46094 312.31445 C 373.11504 312.33005 371.76724 312.45411 370.43164 312.63672 L 370.35156 312.65234 C 369.51121 312.59554 368.65942 312.53076 367.81055 312.48047 L 362.05469 310.80859 L 360.66016 310.53711 C 360.77846 310.49781 360.89782 310.45421 361.01367 310.42578 C 362.28072 310.11505 363.51359 309.97465 364.72461 309.95703 z M 386.51367 310.4043 C 386.53977 310.4225 386.5671 310.43883 386.5957 310.45703 C 386.34816 310.50133 386.0939 310.54553 385.84375 310.58984 C 386.06524 310.52994 386.2896 310.46944 386.51367 310.4043 z M 405.21484 310.51562 C 406.18158 310.53382 407.1849 310.72252 408.24805 311.16016 L 408.32422 311.20508 L 407.61328 311.57812 L 407.50391 311.57812 C 407.14496 311.58013 406.78592 311.59383 406.42773 311.61523 C 406.02251 311.30799 405.61847 310.94299 405.21484 310.51562 z M 371.5918 310.51758 C 371.81381 310.52258 372.03648 310.53582 372.25781 310.54102 L 374.86133 310.52734 C 375.14694 310.71444 375.42993 310.8976 375.7168 311.08398 C 374.39344 310.95344 373.00904 310.7443 371.5918 310.51758 z M 403.87305 310.5918 L 403.87109 310.59375 C 404.25766 311.01523 404.61549 311.40166 404.97266 311.76172 C 404.27484 311.85472 403.58159 311.97696 402.89648 312.13086 L 396.20117 313.93164 C 396.04222 313.88734 395.89137 313.84184 395.73242 313.79492 L 395.72266 313.78906 C 395.48162 313.69236 395.2447 313.58347 395.00586 313.48047 C 395.49194 313.38767 396.00037 313.26108 396.55273 313.07227 C 399.15067 312.18892 401.42885 310.92273 403.87305 310.5918 z M 377.69141 311.03906 C 378.34024 311.12246 378.99956 311.18331 379.67188 311.21484 C 378.95526 311.23564 378.22569 311.23579 377.48047 311.21289 C 377.55347 311.15559 377.62366 311.09899 377.69141 311.03906 z M 423.81445 311.30078 C 424.78077 311.31118 425.75917 311.54599 426.74609 311.88477 C 427.86396 312.42155 428.86532 312.84877 429.80078 313.10938 C 430.98379 313.60447 432.16986 314.06367 433.34766 314.28516 C 433.33466 314.29316 433.32109 314.29753 433.30859 314.30273 C 430.43067 313.68968 427.46245 312.87498 423.69336 312.61133 C 422.59553 312.53473 421.50389 312.53775 420.41797 312.59375 C 420.32837 312.55205 420.22854 312.51045 420.14062 312.46875 C 420.67741 312.12742 421.30551 311.80745 422.08984 311.55469 C 422.65855 311.37098 423.23467 311.29479 423.81445 311.30078 z M 414.59961 311.4375 C 414.84142 311.54121 415.08564 311.6522 415.32812 311.75781 C 414.82984 311.73431 414.33072 311.76081 413.83203 311.81641 C 414.09566 311.68664 414.35652 311.55794 414.59961 311.4375 z M 386.58398 311.95312 L 386.91797 312.07227 C 386.2066 312.28594 385.5167 312.58839 384.81836 312.84375 L 382.51758 313.6543 C 381.64366 313.26888 380.75836 312.86451 379.85742 312.43164 C 382.15671 312.54681 384.38913 312.32272 386.58398 311.95312 z M 376.48438 312.02539 C 376.81261 312.09029 377.13741 312.13578 377.46289 312.18555 C 377.77258 312.3815 378.08145 312.57816 378.39258 312.77148 L 377.16016 312.45117 C 376.78495 312.40137 376.40791 312.38212 376.03125 312.35742 C 376.18264 312.24772 376.33559 312.1414 376.48438 312.02539 z M 388.66211 313.08789 C 388.87734 313.07489 389.09427 313.07474 389.31055 313.08984 C 389.54246 313.11064 389.7759 313.13799 390.00781 313.17969 L 391.5332 313.72461 C 389.80517 313.76501 388.15649 314.19043 386.52148 314.79688 C 385.9298 314.69937 385.34093 314.56811 384.75977 314.42773 L 384.3457 314.31836 L 386.75195 313.46875 C 387.37733 313.29078 388.01622 313.13016 388.66211 313.08789 z M 374.73047 313.15234 C 376.33744 313.22014 377.92351 313.59704 379.47852 314.01172 L 380.55273 314.31641 C 379.11697 314.5952 377.64086 314.58674 376.18945 314.42773 C 374.83592 314.28077 373.5038 313.99465 372.17969 313.67383 C 372.43323 313.66883 372.68826 313.66579 372.93359 313.65039 C 373.58469 313.60709 374.17341 313.41902 374.73047 313.15234 z M 365.15039 313.32422 C 365.63837 313.32322 366.14344 313.34785 366.65039 313.37695 L 363.36914 314.01758 C 362.87577 313.94408 362.38121 313.87647 361.88672 313.81055 C 362.85152 313.45841 363.95985 313.32755 365.15039 313.32422 z M 422.79102 313.5957 C 423.06881 313.6113 423.34665 313.62193 423.625 313.64453 C 426.5861 313.89937 429.03397 314.46509 431.32422 315.00391 C 429.00583 315.42017 426.17614 314.81108 423.57031 313.88867 L 423.57031 313.85742 C 423.35404 313.77252 423.13173 313.70316 422.90625 313.64062 C 422.86745 313.62502 422.82955 313.6105 422.79102 313.5957 z M 369.2793 313.67773 L 373.20117 314.85938 C 375.00698 315.28411 376.84978 315.65757 378.70508 315.62891 C 379.87866 315.61071 381.02348 315.33228 382.1582 315.00977 C 382.71727 315.32008 383.27622 315.62886 383.83984 315.91992 C 383.32393 316.15965 382.79886 316.41766 382.27734 316.66992 C 381.71575 316.76712 381.18912 316.91797 380.70117 317.12891 C 375.50502 316.30721 370.31483 315.14008 365.07031 314.28125 L 366.94727 314.06055 C 367.72639 313.9485 368.50278 313.81326 369.2793 313.67773 z M 361.82812 313.83203 L 361.82812 313.83398 C 362.29143 313.90278 362.75472 313.97156 363.2168 314.04688 L 363.1582 314.05664 C 362.47972 314.15204 361.79515 314.17018 361.10938 314.16602 C 361.33738 314.03677 361.57761 313.92654 361.82812 313.83203 z M 403.12891 313.93164 L 402.89062 314.05859 C 401.9708 314.40516 400.96871 314.63148 399.96289 314.68359 C 399.85084 314.67319 399.73569 314.65998 399.62109 314.64648 L 403.12891 313.93164 z M 364.79102 314.31445 C 369.96922 315.23134 375.08355 316.45653 380.20703 317.36914 C 379.60172 317.67844 379.03086 318.04448 378.46875 318.43555 C 378.38795 318.47015 378.3076 318.50495 378.22656 318.53906 C 374.44979 317.77443 370.55924 317.36076 366.44727 318.17383 C 365.38933 317.3452 364.27102 316.64068 362.90039 316.54688 C 361.6981 316.46477 360.38593 316.55488 359.06445 316.65625 C 359.37365 315.81089 359.81476 315.16928 360.35938 314.6875 L 361.24609 314.73047 L 364.79102 314.31445 z M 354.94727 314.42578 L 359.67188 314.6543 C 359.296 315.19397 359.01398 315.85938 358.8418 316.66992 C 355.3941 316.94105 351.89921 317.28639 349.99023 315.17969 C 350.23674 315.11039 350.48399 315.04066 350.73242 314.98047 C 352.11086 314.64693 353.52713 314.43881 354.94727 314.42578 z M 391.10156 314.47461 C 391.74068 314.47961 392.35682 314.54021 392.95898 314.63867 C 391.43316 314.86694 389.8882 314.97988 388.3457 314.96875 C 388.10076 314.96575 387.85731 314.94773 387.61328 314.92773 C 388.85049 314.61067 390.00785 314.46619 391.10156 314.47461 z M 413.08789 314.60547 C 413.28593 314.70217 413.4828 314.80246 413.67773 314.90625 C 412.12494 315.476 410.53082 316.14204 408.91797 316.84961 C 408.5189 316.52181 408.1602 316.21935 407.79102 315.96875 C 409.54648 315.47738 411.31202 315.00467 413.08789 314.60547 z M 419.53125 315.05859 C 420.93739 315.03779 422.23826 315.28139 423.30664 315.91406 C 422.21806 316.11914 421.1215 316.53741 420.02539 316.98828 C 416.77803 317.55277 413.78683 317.96445 410.98828 318.2207 L 410.98633 318.2207 C 410.66421 318.06592 410.37256 317.90115 410.10547 317.73047 C 411.62444 317.00933 413.41329 316.2825 415.23242 315.76758 C 415.38642 315.85408 415.5404 315.94096 415.69531 316.02539 L 415.99414 315.58008 C 417.19583 315.28341 418.39777 315.07548 419.53125 315.05859 z M 423.57031 315.24219 C 424.25594 315.49599 424.93098 315.72295 425.5957 315.92773 C 424.9075 316.06871 424.23465 316.20219 423.56836 316.33203 L 423.56836 316.07812 L 423.57031 316.07812 L 423.57031 315.24219 z M 395.68359 315.44141 C 395.95459 315.56388 396.23682 315.67437 396.51562 315.77344 C 396.58702 315.79694 396.6605 315.81664 396.73242 315.83984 C 397.30967 316.10818 397.88101 316.41225 398.44922 316.73633 C 397.27864 316.74133 396.43136 317.15222 395.65625 317.78516 C 393.60003 317.42601 391.57444 316.93179 389.53711 316.30273 C 390.23873 316.32093 390.93957 316.31326 391.63867 316.25586 L 395.68359 315.44141 z M 384.29297 316.14258 C 384.89279 316.44646 385.49692 316.73173 386.10156 317.00781 C 385.1108 316.70807 384.23506 316.57523 383.44922 316.57422 C 383.72863 316.42804 384.00712 316.28016 384.29297 316.14258 z M 400.91797 316.23633 C 401.32186 316.26503 401.73087 316.28647 402.13477 316.29688 C 402.44347 316.30487 402.75177 316.28637 403.05859 316.25977 C 402.72581 316.42445 402.3501 316.63453 401.9668 316.85352 C 401.56147 316.95722 401.15681 317.05859 400.75195 317.14844 C 400.72595 317.14044 400.70303 317.13475 400.67773 317.12695 C 400.28388 316.83003 399.89557 316.55992 399.51367 316.30664 C 399.98156 316.30682 400.45318 316.28583 400.91797 316.23633 z M 405.38672 317.35742 C 405.98049 317.31702 406.45151 317.45022 406.96094 317.71094 C 406.3353 317.98809 405.70835 318.26426 405.08203 318.53711 C 404.73891 318.54011 404.40677 318.53034 404.06836 318.52734 C 403.91123 318.44964 403.76484 318.37544 403.59766 318.29492 C 403.42307 318.20892 403.25141 318.12635 403.08203 318.05078 C 404.07743 317.61565 404.79292 317.39979 405.38672 317.35938 L 405.38672 317.35742 z M 348.16016 317.69336 C 348.16016 317.69636 348.15534 317.69427 348.15234 317.69727 C 348.56082 318.34419 348.98237 318.95433 349.68945 319.30859 L 349.80469 319.30859 C 349.44167 319.11281 349.10085 318.87573 348.82227 318.60352 C 348.60338 318.29862 348.38165 317.99563 348.16016 317.69336 z M 399.30664 318.07227 C 399.44084 318.10277 399.5763 318.13032 399.70898 318.16602 L 399.49219 318.29297 C 399.16167 318.26147 398.82627 318.24338 398.49805 318.20508 C 398.7666 318.16888 399.0371 318.11578 399.30664 318.07227 z M 344.9082 318.24414 C 344.9052 318.24414 344.90534 318.25 344.90234 318.25 C 345.15761 318.63215 345.4115 318.97443 345.66406 319.30859 L 345.73438 319.30859 C 345.45344 318.97443 345.17711 318.62901 344.9082 318.24414 z M 369.63477 318.98047 L 369.63477 318.98242 C 368.96509 319.01112 368.30248 319.07412 367.65625 319.16016 C 367.58585 319.10026 367.51371 319.04365 367.44336 318.98633 C 368.19121 318.96283 368.91818 318.96237 369.63477 318.98047 z M 433.75586 319.05078 C 431.5354 319.60165 429.40048 320.52571 427.25195 321.46094 C 427.5117 321.68018 427.7545 321.91564 427.98828 322.16211 C 429.58126 321.49809 431.15644 320.82928 432.68359 320.22461 C 433.04092 320.12022 433.3991 320.02838 433.75586 319.93945 L 433.75586 319.05078 z "
   id="path32" />
</svg>