<?xml version="1.0" encoding="UTF-8" standalone="no"?>
<!-- Generator: Adobe Illustrator 16.0.0, SVG Export Plug-In . SVG Version: 6.00 Build 0)  -->

<svg
   xmlns:dc="http://purl.org/dc/elements/1.1/"
   xmlns:cc="http://creativecommons.org/ns#"
   xmlns:rdf="http://www.w3.org/1999/02/22-rdf-syntax-ns#"
   xmlns:svg="http://www.w3.org/2000/svg"
   xmlns="http://www.w3.org/2000/svg"
   xmlns:sodipodi="http://sodipodi.sourceforge.net/DTD/sodipodi-0.dtd"
   xmlns:inkscape="http://www.inkscape.org/namespaces/inkscape"
   version="1.1"
   id="Fond"
   x="0px"
   y="0px"
   width="446.25"
   height="623.625"
   viewBox="0 0 446.25 623.62501"
   enable-background="new 0 0 178.58 249.45"
   xml:space="preserve"
   sodipodi:docname="ETS-Type2-Libelles-Outline.svg"
   inkscape:version="0.92.0 r15299"><metadata
   id="metadata336"><rdf:RDF><cc:Work
       rdf:about=""><dc:format>image/svg+xml</dc:format><dc:type
         rdf:resource="http://purl.org/dc/dcmitype/StillImage" /><dc:title /></cc:Work></rdf:RDF></metadata><defs
   id="defs334">
	
	

	
	
	

		
		
		
		
		
			

		
			

		

		

	
		
		
		
		
			

		
			

		

		

	
		
		
		
		
			

		
			

		

		

	</defs><sodipodi:namedview
   pagecolor="#ffffff"
   bordercolor="#666666"
   borderopacity="1"
   objecttolerance="10"
   gridtolerance="10"
   guidetolerance="10"
   inkscape:pageopacity="0"
   inkscape:pageshadow="2"
   inkscape:window-width="1280"
   inkscape:window-height="961"
   id="namedview332"
   showgrid="false"
   inkscape:zoom="2.2615088"
   inkscape:cx="69.413695"
   inkscape:cy="433.62236"
   inkscape:window-x="1272"
   inkscape:window-y="-8"
   inkscape:window-maximized="1"
   inkscape:current-layer="Fond" />

<path
   style="fill:#be0a26;fill-opacity:1;fill-rule:evenodd;stroke:none;stroke-width:1px;stroke-linecap:butt;stroke-linejoin:miter;stroke-opacity:1"
   d="M 21.849609 50.4375 A 1.4568047 1.4568047 0 0 0 20.392578 51.894531 L 20.392578 53.900391 A 1.4568047 1.4568047 0 0 0 21.900391 55.355469 C 21.892391 55.659204 21.881947 55.730278 21.873047 56.136719 A 1.4568047 1.4568047 0 0 0 21.873047 56.150391 L 21.748047 66.128906 A 1.4568047 1.4568047 0 0 0 21.748047 66.146484 C 21.748047 66.6306 21.700657 66.839707 21.679688 66.957031 C 21.662817 66.958231 21.676183 66.958084 21.658203 66.958984 A 1.4568047 1.4568047 0 0 0 20.267578 68.414062 L 20.267578 70.134766 A 1.4568047 1.4568047 0 0 0 21.724609 71.591797 L 26.476562 71.591797 A 1.4568047 1.4568047 0 0 0 27.816406 70.701172 L 27.865234 70.849609 A 1.4568047 1.4568047 0 0 0 29.25 71.851562 L 31.189453 71.851562 A 1.4568047 1.4568047 0 0 0 32.583984 70.8125 L 32.878906 69.828125 L 32.878906 70.134766 A 1.4568047 1.4568047 0 0 0 34.335938 71.591797 L 40.130859 71.591797 A 1.4568047 1.4568047 0 0 0 41.587891 70.134766 L 41.587891 69.181641 C 41.785446 69.217091 41.971354 69.318359 42.169922 69.318359 C 42.810613 69.318359 43.425575 69.128035 43.996094 68.84375 A 1.4568047 1.4568047 0 0 0 44.625 68.986328 L 47.660156 68.986328 A 1.4568047 1.4568047 0 0 0 48.111328 68.912109 A 1.4568047 1.4568047 0 0 0 48.564453 68.986328 L 52.771484 68.986328 A 1.4568047 1.4568047 0 0 0 54.228516 67.529297 L 54.228516 65.943359 A 1.4568047 1.4568047 0 0 0 53.234375 64.564453 C 53.236175 64.427616 53.248047 64.312854 53.248047 64.171875 L 53.248047 61.029297 C 53.251347 61.017747 53.263958 61.001964 53.267578 60.990234 C 53.638389 61.187093 54.008418 61.417969 54.423828 61.417969 C 54.536211 61.417969 54.649875 61.340422 54.765625 61.320312 C 54.714765 61.752958 54.550782 62.132145 54.550781 62.587891 C 54.550781 63.76625 54.697688 64.852482 55.025391 65.839844 A 1.4568047 1.4568047 0 0 0 55.033203 65.863281 C 55.37155 66.826606 55.870958 67.668106 56.578125 68.300781 A 1.4568047 1.4568047 0 0 0 56.589844 68.310547 C 57.317853 68.947708 58.281748 69.318359 59.25 69.318359 C 59.499582 69.318359 59.720866 69.184265 59.962891 69.134766 L 59.960938 69.626953 A 1.4568047 1.4568047 0 0 0 59.960938 69.634766 C 59.960938 69.962306 59.940189 69.991576 59.917969 70.140625 A 1.4568047 1.4568047 0 0 0 59.013672 71.488281 L 59.013672 72.84375 A 1.4568047 1.4568047 0 0 0 60.470703 74.300781 L 64.675781 74.300781 A 1.4568047 1.4568047 0 0 0 66.132812 72.84375 L 66.132812 71.259766 A 1.4568047 1.4568047 0 0 0 65.140625 69.880859 C 65.142425 69.744023 65.154297 69.62926 65.154297 69.488281 L 65.154297 66.953125 C 65.226617 67.124281 65.245165 67.330877 65.335938 67.492188 A 1.4568047 1.4568047 0 0 0 65.34375 67.505859 C 66.001122 68.644164 67.339346 69.318359 68.660156 69.318359 C 69.277648 69.318359 69.875861 69.082588 70.419922 68.779297 A 1.4568047 1.4568047 0 0 0 71.164062 68.986328 L 74.214844 68.986328 A 1.4568047 1.4568047 0 0 0 75.654297 67.748047 C 75.827461 67.925296 75.896722 68.200778 76.09375 68.351562 A 1.4568047 1.4568047 0 0 0 76.111328 68.365234 C 76.954509 68.990972 77.99255 69.318359 79.048828 69.318359 C 80.898917 69.318359 82.457754 68.196085 83.560547 66.587891 C 83.662823 66.887208 83.713062 67.22175 83.865234 67.492188 A 1.4568047 1.4568047 0 0 0 83.873047 67.505859 C 84.530418 68.644164 85.868643 69.318359 87.189453 69.318359 C 87.808107 69.318359 88.407644 69.083134 88.951172 68.779297 A 1.4568047 1.4568047 0 0 0 89.693359 68.986328 L 92.742188 68.986328 A 1.4568047 1.4568047 0 0 0 93.255859 68.890625 A 1.4568047 1.4568047 0 0 0 93.773438 68.986328 L 97.978516 68.986328 A 1.4568047 1.4568047 0 0 0 99.435547 67.529297 L 99.435547 65.943359 A 1.4568047 1.4568047 0 0 0 98.441406 64.564453 C 98.443106 64.427985 98.455078 64.312285 98.455078 64.171875 L 98.455078 61.029297 C 98.458378 61.017747 98.470989 61.001964 98.474609 60.990234 C 98.84542 61.187093 99.215449 61.417969 99.630859 61.417969 C 99.822206 61.417969 100.01568 61.308203 100.21289 61.251953 C 100.30819 61.70434 100.30349 62.189836 100.54297 62.587891 A 1.4568047 1.4568047 0 0 0 100.56641 62.628906 C 100.61811 62.708966 100.7047 62.75133 100.75977 62.828125 A 1.4568047 1.4568047 0 0 0 100.0293 64.113281 L 100.09375 67.699219 A 1.4568047 1.4568047 0 0 0 101.55078 69.130859 L 102.77148 69.130859 A 1.4568047 1.4568047 0 0 0 103.33594 69.015625 L 103.33789 69.015625 C 103.91228 69.20978 104.51068 69.318359 105.11328 69.318359 C 105.84862 69.318359 106.5845 69.140966 107.23438 68.791016 A 1.4568047 1.4568047 0 0 0 107.25195 68.78125 C 107.93356 68.401878 108.49634 67.823136 108.88086 67.146484 L 108.88086 67.144531 C 109.30618 66.40016 109.49219 65.54186 109.49219 64.652344 C 109.49219 63.557527 109.15069 62.508958 108.49219 61.679688 A 1.4568047 1.4568047 0 0 0 109.01172 60.566406 L 109.01172 56.876953 A 1.4568047 1.4568047 0 0 0 107.55469 55.419922 L 106.33398 55.419922 A 1.4568047 1.4568047 0 0 0 105.73047 55.552734 C 105.29662 55.417593 104.85865 55.314453 104.4082 55.314453 C 103.50384 55.314453 102.60379 55.564029 101.875 56.089844 C 101.73249 56.191552 101.67788 56.374378 101.54883 56.492188 C 101.49163 56.412528 101.47373 56.316963 101.40625 56.242188 C 100.89561 55.667274 100.07719 55.314453 99.326172 55.314453 C 98.789158 55.314453 98.363718 55.601861 97.919922 55.839844 A 1.4568047 1.4568047 0 0 0 96.917969 55.439453 L 96.132812 55.439453 A 1.4568047 1.4568047 0 0 0 95.013672 55.962891 C 95.222058 55.713076 95.169656 55.852318 94.878906 55.939453 C 94.668097 56.002633 94.244396 56.064453 93.660156 56.064453 A 1.4568047 1.4568047 0 0 0 93.044922 56.203125 A 1.4568047 1.4568047 0 0 0 91.763672 55.439453 L 90.880859 55.439453 A 1.4568047 1.4568047 0 0 0 89.761719 55.962891 C 89.970105 55.713076 89.917702 55.852318 89.626953 55.939453 A 1.4568047 1.4568047 0 0 0 89.617188 55.941406 C 89.426934 55.999926 89.008068 56.064453 88.423828 56.064453 A 1.4568047 1.4568047 0 0 0 88.033203 56.121094 A 1.4568047 1.4568047 0 0 0 86.802734 55.439453 L 85.919922 55.439453 A 1.4568047 1.4568047 0 0 0 84.800781 55.962891 C 85.004872 55.718226 84.957521 55.852676 84.667969 55.939453 C 84.457157 56.002633 84.033459 56.064453 83.449219 56.064453 A 1.4568047 1.4568047 0 0 0 82.291016 56.638672 C 81.403431 55.844557 80.298444 55.314453 79.097656 55.314453 C 77.996647 55.314453 76.91516 55.717467 76.070312 56.429688 C 75.46037 56.943877 75.076687 57.679591 74.691406 58.40625 L 74.691406 56.896484 A 1.4568047 1.4568047 0 0 0 73.234375 55.439453 L 72.351562 55.439453 A 1.4568047 1.4568047 0 0 0 71.232422 55.962891 C 71.436513 55.718226 71.389162 55.852676 71.099609 55.939453 A 1.4568047 1.4568047 0 0 0 71.089844 55.941406 C 70.89959 55.999926 70.480725 56.064453 69.896484 56.064453 A 1.4568047 1.4568047 0 0 0 69.505859 56.121094 A 1.4568047 1.4568047 0 0 0 68.275391 55.439453 L 67.392578 55.439453 A 1.4568047 1.4568047 0 0 0 66.273438 55.962891 C 66.477525 55.718226 66.430177 55.852676 66.140625 55.939453 C 65.931013 56.002273 65.504162 56.064453 64.919922 56.064453 A 1.4568047 1.4568047 0 0 0 64.892578 56.066406 A 1.4568047 1.4568047 0 0 0 63.697266 55.439453 L 62.830078 55.439453 A 1.4568047 1.4568047 0 0 0 62.042969 55.671875 C 61.745274 55.577815 61.458933 55.49597 61.191406 55.435547 C 60.815646 55.350677 60.428408 55.314453 60.021484 55.314453 C 58.923401 55.314453 57.843886 55.697543 56.994141 56.394531 C 56.818437 56.53865 56.761475 56.795914 56.605469 56.960938 C 56.491282 56.711996 56.392775 56.456705 56.199219 56.242188 C 55.688574 55.667254 54.870159 55.314453 54.119141 55.314453 C 53.582126 55.314453 53.156687 55.601861 52.712891 55.839844 A 1.4568047 1.4568047 0 0 0 51.710938 55.439453 L 50.925781 55.439453 A 1.4568047 1.4568047 0 0 0 49.806641 55.962891 C 50.015027 55.713076 49.962624 55.852318 49.671875 55.939453 C 49.461066 56.002633 49.037365 56.064453 48.453125 56.064453 A 1.4568047 1.4568047 0 0 0 47.130859 56.916016 C 47.126559 56.910116 47.125494 56.902344 47.121094 56.896484 C 46.347695 55.859792 45.042125 55.314453 43.726562 55.314453 C 42.924084 55.314453 42.141043 55.476863 41.425781 55.796875 C 40.787777 56.074415 40.2534 56.537767 39.8125 57.072266 L 39.773438 55.835938 L 39.775391 55.851562 C 39.765591 55.373928 39.808189 55.181832 39.824219 55.074219 C 39.863999 55.069219 39.832416 55.070859 39.884766 55.068359 A 1.4568047 1.4568047 0 0 0 41.275391 53.613281 L 41.275391 51.894531 A 1.4568047 1.4568047 0 0 0 39.818359 50.4375 L 35.003906 50.4375 A 1.4568047 1.4568047 0 0 0 33.609375 51.474609 L 30.785156 60.876953 L 27.847656 51.460938 A 1.4568047 1.4568047 0 0 0 26.457031 50.4375 L 21.849609 50.4375 z M 38.361328 52.462891 L 38.361328 52.476562 L 38.361328 52.478516 C 38.337978 52.489436 38.314426 52.482411 38.291016 52.494141 L 38.361328 52.462891 z M 24.789062 53.351562 L 25.384766 53.351562 L 25.820312 54.75 A 1.4568047 1.4568047 0 0 0 24.976562 54.476562 L 24.955078 54.476562 A 1.4568047 1.4568047 0 0 0 24.845703 54.482422 C 24.850803 54.376712 24.860151 53.992212 24.863281 53.958984 A 1.4568047 1.4568047 0 0 0 24.789062 53.351562 z M 36.087891 53.351562 L 37.583984 53.351562 C 37.44342 53.559185 37.164192 53.697145 37.089844 53.90625 C 36.881378 54.492558 36.875293 55.05802 36.882812 55.71875 A 1.4568047 1.4568047 0 0 0 35.689453 54.675781 L 36.087891 53.351562 z M 62.113281 57.695312 L 62.134766 57.720703 C 62.132466 57.718103 62.1273 57.719297 62.125 57.716797 C 62.1188 57.710097 62.119601 57.702033 62.113281 57.695312 z M 27.050781 58.691406 L 28.212891 62.412109 C 28.368835 62.919013 28.540657 63.503405 28.712891 64.089844 L 27.820312 61.367188 A 1.4568047 1.4568047 0 0 0 27.8125 61.349609 C 27.624918 60.802531 27.382378 59.974828 27.097656 58.908203 L 27.095703 58.900391 C 27.094802 58.896991 27.09465 58.895978 27.09375 58.892578 C 27.077 58.826538 27.067221 58.757571 27.050781 58.691406 z M 93.220703 60.494141 A 1.4568047 1.4568047 0 0 0 93.273438 60.511719 C 93.272238 60.616712 93.261719 60.709755 93.261719 60.816406 L 93.261719 64.318359 C 93.261719 64.485785 93.251204 64.449527 93.240234 64.576172 A 1.4568047 1.4568047 0 0 0 93.207031 64.564453 C 93.208831 64.427617 93.220703 64.312854 93.220703 64.171875 L 93.220703 60.494141 z M 40.457031 61.130859 C 40.455831 61.131701 40.456305 61.133966 40.455078 61.134766 C 40.452278 61.136866 40.448212 61.136572 40.445312 61.138672 L 40.457031 61.130859 z M 59.960938 61.179688 L 59.960938 62.998047 C 59.921478 62.675176 59.824219 62.448544 59.824219 62.066406 C 59.824219 61.673207 59.919589 61.491407 59.960938 61.179688 z M 43.361328 61.337891 L 43.337891 61.371094 C 43.341491 61.365894 43.34015 61.358716 43.34375 61.353516 C 43.34795 61.347116 43.357178 61.344321 43.361328 61.337891 z M 83.072266 63.330078 C 83.072338 63.353858 83.076072 63.370901 83.076172 63.394531 A 1.4568047 1.4568047 0 0 0 83.017578 63.341797 A 1.4568047 1.4568047 0 0 0 83.072266 63.330078 z M 81.033203 63.417969 A 1.4568047 1.4568047 0 0 0 80.833984 63.666016 C 80.584577 64.060777 80.355759 64.267865 80.175781 64.373047 C 79.907245 64.529984 79.757855 64.548828 79.707031 64.548828 C 79.355705 64.548828 79.430291 64.588858 79.275391 64.283203 C 79.201151 64.13289 79.197531 63.705851 79.138672 63.464844 L 81.033203 63.417969 z M 34.326172 64.994141 L 34.361328 66.189453 L 34.359375 66.175781 C 34.369175 66.652377 34.325454 66.846442 34.308594 66.955078 C 34.279664 66.957678 34.302291 66.957484 34.269531 66.958984 A 1.4568047 1.4568047 0 0 0 33.693359 67.107422 L 34.326172 64.994141 z M 26.425781 66.466797 L 26.492188 66.669922 A 1.4568047 1.4568047 0 0 0 26.476562 66.669922 C 26.454383 66.669922 26.438056 66.673728 26.416016 66.673828 C 26.417816 66.598298 26.424481 66.545848 26.425781 66.466797 z M 71.068359 66.845703 L 71.048828 66.861328 C 71.054228 66.857728 71.05713 66.851326 71.0625 66.847656 C 71.0641 66.846556 71.066659 66.846893 71.068359 66.845703 z M 89.595703 66.845703 L 89.576172 66.861328 C 89.581572 66.857728 89.584474 66.851296 89.589844 66.847656 C 89.591444 66.846556 89.594003 66.846888 89.595703 66.845703 z M 61.726562 66.871094 L 61.701172 66.888672 C 61.705372 66.885672 61.706738 66.879973 61.710938 66.876953 C 61.715238 66.873653 61.722274 66.874394 61.726562 66.871094 z M 29.693359 67.072266 A 1.4568047 1.4568047 0 0 0 30.527344 67.529297 L 30.201172 68.619141 L 29.693359 67.072266 z M 106.72852 67.203125 L 106.70117 67.224609 C 106.70517 67.221409 106.70303 67.214208 106.70703 67.210938 C 106.71303 67.206035 106.72262 67.208125 106.72852 67.203125 z M 37.125 67.400391 C 37.11076 67.584217 37.128799 67.835891 37.105469 67.998047 A 1.4568047 1.4568047 0 0 0 37.169922 68.677734 L 36.580078 68.677734 C 36.712722 68.47403 36.969709 68.327138 37.042969 68.121094 C 37.125199 67.889821 37.08914 67.629824 37.125 67.400391 z M 69.712891 67.658203 A 1.4568047 1.4568047 0 0 0 69.757812 67.902344 L 69.734375 67.902344 L 69.712891 67.658203 z M 88.242188 67.660156 A 1.4568047 1.4568047 0 0 0 88.287109 67.902344 L 88.263672 67.902344 L 88.242188 67.660156 z M 86.853516 131.75586 C 86.019168 131.75586 85.237637 132.28812 84.8125 132.87891 C 84.37558 133.47543 84.162109 134.22152 84.162109 134.94336 C 84.162109 135.65456 84.35725 136.39149 84.78125 136.99219 A 1.4568047 1.4568047 0 0 0 84.796875 137.01562 C 84.956239 137.23201 85.204928 137.39192 85.441406 137.55664 C 85.205602 137.60314 84.947536 137.6543 84.494141 137.6543 A 1.4568047 1.4568047 0 0 0 84.191406 137.6875 A 1.4568047 1.4568047 0 0 0 82.962891 137.00977 L 81.744141 137.00977 A 1.4568047 1.4568047 0 0 0 81.140625 137.14258 C 80.707384 137.0074 80.269365 136.9043 79.818359 136.9043 C 78.913998 136.9043 78.013957 137.15386 77.285156 137.67969 C 77.006258 137.87873 76.871472 138.20949 76.646484 138.4668 A 1.4568047 1.4568047 0 0 0 75.189453 137.00977 L 73.96875 137.00977 A 1.4568047 1.4568047 0 0 0 73.365234 137.14258 C 72.931377 137.00743 72.493399 136.9043 72.042969 136.9043 C 71.138607 136.9043 70.238566 137.15386 69.509766 137.67969 C 68.971023 138.06418 68.598299 138.62343 68.277344 139.20117 C 68.155304 139.01197 68.118755 138.76491 67.96875 138.59375 C 67.046489 137.53019 65.696367 136.9043 64.289062 136.9043 C 63.188057 136.9043 62.106566 137.30731 61.261719 138.01953 C 61.097307 138.15813 61.038621 138.39675 60.890625 138.55273 C 60.776303 138.30291 60.676607 138.04724 60.482422 137.83203 C 59.97177 137.25708 59.153348 136.9043 58.402344 136.9043 C 57.865331 136.9043 57.43989 137.1917 56.996094 137.42969 A 1.4568047 1.4568047 0 0 0 55.994141 137.0293 L 55.208984 137.0293 A 1.4568047 1.4568047 0 0 0 54.089844 137.55273 C 54.298241 137.3029 54.245846 137.44209 53.955078 137.5293 C 53.744243 137.5925 53.32056 137.6543 52.736328 137.6543 A 1.4568047 1.4568047 0 0 0 51.425781 138.47852 C 51.283273 138.31175 51.237776 138.06116 51.072266 137.91602 C 50.351978 137.27547 49.390205 136.9043 48.425781 136.9043 C 47.917314 136.9043 47.442889 137.07597 46.980469 137.27148 A 1.4568047 1.4568047 0 0 0 46.177734 137.0293 L 45.392578 137.0293 A 1.4568047 1.4568047 0 0 0 44.273438 137.55273 C 44.481834 137.3029 44.42944 137.44209 44.138672 137.5293 C 43.927837 137.5925 43.504153 137.6543 42.919922 137.6543 A 1.4568047 1.4568047 0 0 0 41.662109 138.37891 C 40.956305 137.47463 39.834157 136.9043 38.681641 136.9043 C 37.973789 136.9043 37.294473 137.11533 36.666016 137.44922 C 36.522358 137.52552 36.417972 137.66031 36.28125 137.74805 C 36.20941 137.68865 36.18884 137.58646 36.111328 137.5332 C 35.517524 137.10661 34.787192 136.9043 34.076172 136.9043 C 33.525171 136.9043 33.00743 137.10017 32.507812 137.32031 A 1.4568047 1.4568047 0 0 0 31.636719 137.0293 L 30.849609 137.0293 A 1.4568047 1.4568047 0 0 0 29.730469 137.55273 C 29.938866 137.3029 29.886471 137.44209 29.595703 137.5293 C 29.384868 137.5925 28.961185 137.6543 28.376953 137.6543 A 1.4568047 1.4568047 0 0 0 27.746094 137.80078 L 27.746094 137.4707 C 27.746094 136.98659 27.793483 136.77748 27.814453 136.66016 C 27.836303 136.65816 27.812951 136.65944 27.837891 136.6582 A 1.4568047 1.4568047 0 0 0 29.226562 135.20312 L 29.226562 133.48438 A 1.4568047 1.4568047 0 0 0 27.769531 132.02734 L 21.787109 132.02734 A 1.4568047 1.4568047 0 0 0 20.330078 133.48438 L 20.330078 135.49023 A 1.4568047 1.4568047 0 0 0 21.839844 136.94531 C 21.833944 137.23428 21.810547 137.43076 21.810547 137.75781 L 21.810547 147.73633 C 21.810547 148.22044 21.763157 148.42953 21.742188 148.54688 C 21.724007 148.54788 21.73829 148.54778 21.71875 148.54883 A 1.4568047 1.4568047 0 0 0 20.330078 150.00391 L 20.330078 151.72461 A 1.4568047 1.4568047 0 0 0 21.787109 153.18164 L 27.769531 153.18164 A 1.4568047 1.4568047 0 0 0 29.226562 151.72461 L 29.226562 150.57617 L 32.615234 150.57617 A 1.4568047 1.4568047 0 0 0 32.988281 150.52539 A 1.4568047 1.4568047 0 0 0 33.369141 150.57617 L 37.509766 150.57617 A 1.4568047 1.4568047 0 0 0 37.867188 150.5293 A 1.4568047 1.4568047 0 0 0 38.232422 150.57617 L 42.292969 150.57617 A 1.4568047 1.4568047 0 0 0 42.539062 150.55273 L 42.539062 151.22461 C 42.539062 151.54827 42.520227 151.57476 42.498047 151.72461 A 1.4568047 1.4568047 0 0 0 41.576172 153.07812 L 41.576172 154.43359 A 1.4568047 1.4568047 0 0 0 43.033203 155.89062 L 47.238281 155.89062 A 1.4568047 1.4568047 0 0 0 48.695312 154.43359 L 48.695312 152.84961 A 1.4568047 1.4568047 0 0 0 47.707031 151.47266 C 47.708531 151.34253 47.716797 151.20731 47.716797 151.07812 L 47.716797 150.90234 C 48.795041 150.89534 49.853885 150.51423 50.683594 149.82422 C 51.002522 149.5622 51.137431 149.12636 51.392578 148.79883 L 51.392578 149.11914 A 1.4568047 1.4568047 0 0 0 52.849609 150.57617 L 57.054688 150.57617 A 1.4568047 1.4568047 0 0 0 58.511719 149.11914 L 58.511719 147.5332 A 1.4568047 1.4568047 0 0 0 57.519531 146.1543 C 57.521331 146.01746 57.533203 145.9027 57.533203 145.76172 L 57.533203 142.61719 C 57.536403 142.60619 57.547361 142.59118 57.550781 142.58008 C 57.921132 142.77718 58.291189 143.00781 58.707031 143.00781 C 58.803971 143.00781 58.902306 142.93893 59.001953 142.92383 C 58.964343 143.26575 58.818359 143.57724 58.818359 143.92773 C 58.818359 145.1848 59.006231 146.34491 59.419922 147.38477 C 59.828999 148.41303 60.449949 149.30221 61.285156 149.94141 A 1.4568047 1.4568047 0 0 0 61.302734 149.95508 C 62.145914 150.58081 63.183957 150.9082 64.240234 150.9082 C 65.58556 150.9082 66.730323 150.2417 67.730469 149.33203 A 1.4568047 1.4568047 0 0 0 69.185547 150.7207 L 70.40625 150.7207 A 1.4568047 1.4568047 0 0 0 70.970703 150.60547 L 70.972656 150.60547 C 71.547051 150.79962 72.145459 150.9082 72.748047 150.9082 C 73.483386 150.9082 74.219264 150.7308 74.869141 150.38086 A 1.4568047 1.4568047 0 0 0 74.886719 150.37109 C 75.171418 150.21263 75.328507 149.90617 75.568359 149.68555 A 1.4568047 1.4568047 0 0 0 76.960938 150.7207 L 78.179688 150.7207 A 1.4568047 1.4568047 0 0 0 78.746094 150.60547 C 79.321047 150.80004 79.920203 150.9082 80.523438 150.9082 C 81.258775 150.9082 81.994653 150.7308 82.644531 150.38086 A 1.4568047 1.4568047 0 0 0 82.662109 150.37109 C 82.925607 150.22443 83.066275 149.93835 83.291016 149.73828 A 1.4568047 1.4568047 0 0 0 84.607422 150.57617 L 88.8125 150.57617 A 1.4568047 1.4568047 0 0 0 90.259766 149.27148 C 90.479361 149.49165 90.58644 149.8247 90.841797 150.00195 C 91.697873 150.59619 92.726124 150.9082 93.775391 150.9082 C 94.848156 150.9082 95.902546 150.55061 96.742188 149.89062 C 97.07335 149.63353 97.213116 149.19054 97.476562 148.86133 L 97.476562 149.11914 A 1.4568047 1.4568047 0 0 0 98.933594 150.57617 L 103.13867 150.57617 A 1.4568047 1.4568047 0 0 0 103.55469 150.51367 A 1.4568047 1.4568047 0 0 0 103.97461 150.57617 L 108.17969 150.57617 A 1.4568047 1.4568047 0 0 0 108.55469 150.52344 A 1.4568047 1.4568047 0 0 0 109.2832 150.7207 L 110.50195 150.7207 A 1.4568047 1.4568047 0 0 0 111.06836 150.60547 C 111.64331 150.80003 112.24247 150.9082 112.8457 150.9082 C 113.58104 150.9082 114.31692 150.7308 114.9668 150.38086 A 1.4568047 1.4568047 0 0 0 114.98438 150.37109 C 115.66594 149.99172 116.22875 149.41301 116.61328 148.73633 L 116.61328 148.73438 C 117.03861 147.98998 117.22461 147.1317 117.22461 146.24219 C 117.22461 145.14703 116.88157 144.09891 116.22266 143.26953 A 1.4568047 1.4568047 0 0 0 116.74219 142.15625 L 116.74219 138.4668 A 1.4568047 1.4568047 0 0 0 115.28516 137.00977 L 114.06641 137.00977 A 1.4568047 1.4568047 0 0 0 113.46289 137.14258 C 113.02965 137.00739 112.59163 136.9043 112.14062 136.9043 C 111.23628 136.9043 110.33622 137.15386 109.60742 137.67969 C 108.95521 138.14516 108.43762 138.78824 108.11523 139.52148 C 108.01713 139.25828 107.97478 138.95721 107.83594 138.7168 C 107.1736 137.5699 105.8224 136.9043 104.48828 136.9043 C 103.92474 136.9043 103.45009 137.11181 102.96875 137.33203 A 1.4568047 1.4568047 0 0 0 102.08008 137.0293 L 101.29297 137.0293 A 1.4568047 1.4568047 0 0 0 100.17383 137.55273 C 100.37795 137.30803 100.33059 137.44245 100.04102 137.5293 C 99.830185 137.5925 99.406497 137.6543 98.822266 137.6543 A 1.4568047 1.4568047 0 0 0 97.400391 138.79883 C 97.127937 138.48599 96.974181 138.05671 96.636719 137.81836 C 95.791108 137.22109 94.768851 136.9043 93.726562 136.9043 C 92.667209 136.9043 91.630122 137.28617 90.789062 137.94531 A 1.4568047 1.4568047 0 0 0 90.779297 137.95312 C 90.124978 138.47492 89.698326 139.23886 89.291016 140.01172 L 89.291016 138.48633 A 1.4568047 1.4568047 0 0 0 88.607422 137.25195 C 88.704312 137.15375 88.842131 137.08459 88.916016 136.97656 C 89.333594 136.3763 89.515625 135.65097 89.515625 134.94336 C 89.515625 134.22468 89.321883 133.48727 88.898438 132.88281 C 88.477351 132.27073 87.66048 131.75586 86.853516 131.75586 z M 26.3125 134.0625 L 26.3125 134.06836 C 26.3035 134.07236 26.305705 134.08369 26.296875 134.08789 C 26.273755 134.09949 26.251766 134.09092 26.228516 134.10352 L 26.3125 134.0625 z M 24.726562 134.94141 L 25.560547 134.94141 C 25.427813 135.14617 25.15626 135.29281 25.083984 135.49609 C 24.862324 136.11952 24.832032 136.71181 24.832031 137.4707 L 24.832031 147.45117 C 24.832032 148.3976 24.804269 149.14382 24.755859 149.6582 A 1.4568047 1.4568047 0 0 0 24.830078 150.26758 L 24.025391 150.26758 C 24.151336 150.06634 24.401121 149.91213 24.472656 149.71094 C 24.694323 149.0875 24.724609 148.49522 24.724609 147.73633 L 24.724609 137.75781 C 24.724609 136.8114 24.752401 136.06292 24.800781 135.54883 A 1.4568047 1.4568047 0 0 0 24.726562 134.94141 z M 32.205078 137.39258 C 32.198378 137.39558 32.19416 137.40285 32.1875 137.40625 C 32.1821 137.40925 32.175272 137.40707 32.169922 137.41016 L 32.205078 137.39258 z M 102.66992 137.41211 C 102.66592 137.41411 102.66416 137.41792 102.66016 137.41992 C 102.65716 137.42192 102.65339 137.42023 102.65039 137.42188 L 102.66992 137.41211 z M 102.16211 139.2168 C 102.15311 139.2218 102.14612 139.23133 102.13672 139.23633 C 102.12972 139.24033 102.11883 139.24014 102.11133 139.24414 L 102.16211 139.2168 z M 39.953125 140.12109 L 39.964844 140.14062 C 39.962644 140.13663 39.957278 140.13486 39.955078 140.13086 C 39.953278 140.12786 39.955005 140.12409 39.953125 140.12109 z M 98.576172 140.30078 L 98.580078 140.30859 C 98.579319 140.30659 98.576972 140.30669 98.576172 140.30469 C 98.575677 140.30369 98.576667 140.30178 98.576172 140.30078 z M 105.93359 140.30469 L 105.94727 140.33203 C 105.94527 140.32703 105.93725 140.32501 105.93555 140.32031 C 105.93355 140.31531 105.93587 140.30929 105.93359 140.30469 z M 52.625 140.38086 L 52.632812 140.4043 C 52.631512 140.4003 52.628253 140.39853 52.626953 140.39453 C 52.625553 140.39053 52.626541 140.38456 52.625 140.38086 z M 50.228516 140.78125 L 50.234375 140.79883 C 50.233543 140.79683 50.231269 140.79497 50.230469 140.79297 C 50.229069 140.78997 50.230005 140.78495 50.228516 140.78125 z M 27.746094 142.00977 A 1.4568047 1.4568047 0 0 0 27.990234 142.10156 C 27.989134 142.20619 27.980469 142.30011 27.980469 142.40625 L 27.980469 145.9082 C 27.980469 146.23627 27.9598 146.26635 27.9375 146.41602 A 1.4568047 1.4568047 0 0 0 27.746094 146.51367 L 27.746094 142.00977 z M 93.6875 142.24805 C 93.810796 142.84236 93.939453 143.4331 93.939453 144.24023 C 93.939453 144.82516 93.839513 145.16383 93.769531 145.58203 C 93.63413 144.99625 93.498047 144.4028 93.498047 143.57227 C 93.498047 143.00134 93.60833 142.66045 93.6875 142.24805 z M 84.097656 143.06836 L 84.097656 143.61133 C 84.026006 143.50035 83.982928 143.37342 83.900391 143.26953 A 1.4568047 1.4568047 0 0 0 84.097656 143.06836 z M 47.716797 143.09766 C 47.755877 143.39593 47.851562 143.58515 47.851562 143.94922 C 47.851562 144.43057 47.762142 144.53262 47.716797 144.88086 L 47.716797 143.09766 z M 66.226562 145.00781 A 1.4568047 1.4568047 0 0 0 66.025391 145.25586 C 65.775983 145.65062 65.547162 145.85771 65.367188 145.96289 C 65.098669 146.11982 64.94928 146.13867 64.898438 146.13867 C 64.5471 146.13867 64.621697 146.17867 64.466797 145.87305 C 64.392617 145.72285 64.389007 145.29458 64.330078 145.05273 L 66.226562 145.00781 z M 74.363281 148.79297 L 74.335938 148.81445 C 74.339938 148.81145 74.337797 148.80408 74.341797 148.80078 C 74.347797 148.79578 74.357361 148.79797 74.363281 148.79297 z M 82.136719 148.79297 L 82.109375 148.81445 C 82.113375 148.81145 82.111234 148.80408 82.115234 148.80078 C 82.121134 148.79578 82.130839 148.79797 82.136719 148.79297 z M 114.45898 148.79297 L 114.43164 148.81445 C 114.43564 148.81145 114.4335 148.80408 114.4375 148.80078 C 114.4435 148.79578 114.45308 148.79797 114.45898 148.79297 z M 41.597656 330.74609 C 41.053978 330.74609 40.54546 330.98226 40.181641 331.26953 C 39.807987 331.55282 39.522584 331.91636 39.330078 332.30273 A 1.4568047 1.4568047 0 0 0 39.306641 332.35352 L 37.990234 335.27344 A 1.4568047 1.4568047 0 0 0 38.216797 336.82617 L 38.412109 337.05078 C 38.210195 337.17458 37.982917 337.25271 37.800781 337.40625 C 37.386795 337.75525 37.175466 338.29574 36.865234 338.74805 C 36.705493 338.12716 36.539301 337.50635 36.28125 336.91211 C 35.600053 335.31049 34.51484 333.96523 33.101562 332.9668 C 31.636693 331.90425 29.831918 331.38672 27.853516 331.38672 A 1.4568047 1.4568047 0 0 0 27.847656 331.38672 L 21.78125 331.41406 A 1.4568047 1.4568047 0 0 0 20.330078 332.87109 L 20.330078 334.87695 A 1.4568047 1.4568047 0 0 0 21.839844 336.33203 C 21.833944 336.621 21.810547 336.81748 21.810547 337.14453 L 21.810547 347.125 C 21.810547 347.6089 21.763367 347.81606 21.742188 347.93359 C 21.725317 347.93459 21.738683 347.93451 21.720703 347.93555 A 1.4568047 1.4568047 0 0 0 20.330078 349.39062 L 20.330078 351.11133 A 1.4568047 1.4568047 0 0 0 21.787109 352.56836 L 27.748047 352.56836 C 29.826092 352.56836 31.705269 352.02482 33.197266 350.88867 C 34.526365 349.88631 35.516107 348.57278 36.173828 347.06445 C 36.578932 347.94532 37.084891 348.76232 37.824219 349.32812 A 1.4568047 1.4568047 0 0 0 37.841797 349.3418 C 38.684976 349.96753 39.723019 350.29492 40.779297 350.29492 C 42.618071 350.29492 44.164894 349.18092 45.267578 347.58984 C 45.387403 347.93557 45.46967 348.30181 45.662109 348.60938 C 46.311063 349.64655 47.552803 350.29492 48.775391 350.29492 C 49.520066 350.29492 50.255384 350.08644 50.929688 349.73242 A 1.4568047 1.4568047 0 0 0 50.957031 349.71875 C 51.236516 349.56429 51.435349 349.32636 51.660156 349.11719 C 52.311263 349.83138 53.261941 350.29492 54.21875 350.29492 C 54.859441 350.29492 55.474404 350.1046 56.044922 349.82031 A 1.4568047 1.4568047 0 0 0 56.673828 349.96289 L 59.707031 349.96289 A 1.4568047 1.4568047 0 0 0 60.160156 349.88867 A 1.4568047 1.4568047 0 0 0 60.613281 349.96289 L 64.818359 349.96289 A 1.4568047 1.4568047 0 0 0 65.199219 349.9082 A 1.4568047 1.4568047 0 0 0 65.591797 349.96289 L 69.796875 349.96289 A 1.4568047 1.4568047 0 0 0 70.234375 349.89453 A 1.4568047 1.4568047 0 0 0 70.994141 350.10742 L 72.212891 350.10742 A 1.4568047 1.4568047 0 0 0 72.779297 349.99219 C 73.35425 350.18676 73.953409 350.29492 74.556641 350.29492 C 75.291979 350.29492 76.027492 350.11667 76.675781 349.76758 A 1.4568047 1.4568047 0 0 0 76.693359 349.75781 C 77.373383 349.37931 77.938197 348.80233 78.324219 348.12305 L 78.324219 348.12109 C 78.74955 347.37671 78.935547 346.51841 78.935547 345.62891 C 78.935547 344.53375 78.592518 343.48563 77.933594 342.65625 A 1.4568047 1.4568047 0 0 0 78.453125 341.54297 L 78.453125 337.85352 A 1.4568047 1.4568047 0 0 0 76.996094 336.39648 L 75.777344 336.39648 A 1.4568047 1.4568047 0 0 0 75.173828 336.5293 C 74.739372 336.3938 74.300684 336.29102 73.849609 336.29102 C 72.945248 336.29102 72.045207 336.54058 71.316406 337.06641 C 70.859579 337.39245 70.578076 337.88487 70.275391 338.35352 L 70.275391 332.76562 A 1.4568047 1.4568047 0 0 0 68.818359 331.30859 L 67.951172 331.30859 A 1.4568047 1.4568047 0 0 0 66.832031 331.83203 C 67.032537 331.59166 66.984781 331.725 66.699219 331.81055 C 66.488381 331.87375 66.0647 331.93555 65.480469 331.93555 A 1.4568047 1.4568047 0 0 0 64.751953 332.13281 C 64.308631 331.59415 63.598336 331.14258 62.861328 331.14258 C 62.026971 331.14258 61.245542 331.67201 60.818359 332.26562 C 60.381456 332.86214 60.167969 333.60824 60.167969 334.33008 C 60.167969 335.0453 60.367252 335.78131 60.789062 336.37891 A 1.4568047 1.4568047 0 0 0 60.804688 336.40234 C 60.963695 336.61823 61.214141 336.77831 61.451172 336.94336 C 61.213947 336.99086 60.953078 337.04297 60.5 337.04297 A 1.4568047 1.4568047 0 0 0 59.177734 337.89062 C 59.173934 337.88563 59.173722 337.87825 59.169922 337.87305 C 58.397129 336.83614 57.090953 336.29102 55.775391 336.29102 C 54.972914 336.29102 54.189154 336.45287 53.472656 336.77344 C 52.913579 337.01665 52.475487 337.44742 52.0625 337.88867 A 1.4568047 1.4568047 0 0 0 50.621094 336.625 L 50.046875 336.625 L 50.054688 335.48438 A 1.4568047 1.4568047 0 0 0 48.597656 334.01953 L 47.410156 334.01953 A 1.4568047 1.4568047 0 0 0 45.990234 335.15234 C 45.937824 335.38204 45.837279 335.65314 45.673828 335.96094 C 45.532033 336.22795 45.375468 336.42397 45.201172 336.58008 A 1.4568047 1.4568047 0 0 0 45.183594 336.59766 C 45.152774 336.62626 45.15841 336.62245 45.15625 336.62695 A 1.4568047 1.4568047 0 0 0 43.875 337.50586 C 43.352144 337.07239 42.778646 336.76461 42.128906 336.57812 L 43.09375 335.48047 A 1.4568047 1.4568047 0 0 0 43.115234 335.45508 C 43.370275 335.15146 43.54715 334.8032 43.669922 334.44922 C 43.805926 334.08682 43.888672 333.6996 43.888672 333.30859 C 43.888672 332.69994 43.682012 332.03435 43.273438 331.5332 A 1.4568047 1.4568047 0 0 0 43.160156 331.41016 C 42.790772 331.05038 42.20994 330.74609 41.597656 330.74609 z M 64.900391 332.25977 L 64.919922 332.28516 C 64.916122 332.27916 64.908217 332.27513 64.904297 332.26953 C 64.902197 332.26653 64.902491 332.26277 64.900391 332.25977 z M 25.333984 334.31055 C 24.826577 335.12764 24.832032 335.84251 24.832031 336.80469 L 24.832031 346.83789 C 24.832032 347.7843 24.804239 348.5328 24.755859 349.04688 A 1.4568047 1.4568047 0 0 0 24.830078 349.6543 L 24.025391 349.6543 C 24.151338 349.45306 24.40112 349.29885 24.472656 349.09766 C 24.693665 348.47605 24.724609 347.8839 24.724609 347.125 L 24.724609 337.14453 C 24.724609 336.19812 24.752401 335.44963 24.800781 334.93555 A 1.4568047 1.4568047 0 0 0 24.720703 334.31445 L 25.333984 334.31055 z M 27.785156 336.08203 C 28.825868 336.12303 29.456577 336.44176 30.046875 337.31055 C 30.643895 338.18922 31.085938 339.87288 31.085938 342.35547 C 31.085938 343.44461 30.944782 344.42454 30.671875 345.31445 A 1.4568047 1.4568047 0 0 0 30.667969 345.32617 C 30.419847 346.15794 30.062119 346.75379 29.603516 347.20508 C 29.206862 347.5954 28.838789 347.75195 28.1875 347.75195 C 27.972986 347.75195 27.826426 347.74493 27.714844 347.73633 C 27.722144 347.4211 27.746094 347.19952 27.746094 346.83789 L 27.746094 336.80469 C 27.746094 336.22543 27.792456 336.14051 27.785156 336.08203 z M 64.933594 336.32617 A 1.4568047 1.4568047 0 0 0 65.09375 336.38086 C 65.09225 336.50242 65.082031 336.6013 65.082031 336.72656 L 65.082031 337.11719 A 1.4568047 1.4568047 0 0 0 64.613281 336.63867 C 64.710171 336.54047 64.847991 336.47131 64.921875 336.36328 C 64.929575 336.35228 64.926074 336.33727 64.933594 336.32617 z M 33.054688 337.13086 C 33.244127 337.42975 33.454739 337.70752 33.601562 338.05273 A 1.4568047 1.4568047 0 0 0 33.605469 338.06445 C 34.124872 339.25727 34.380859 340.48932 34.380859 341.80859 C 34.380859 343.15583 34.134097 344.43917 33.630859 345.69727 A 1.4568047 1.4568047 0 0 0 33.626953 345.70312 C 33.590733 345.79483 33.527523 345.86246 33.488281 345.95117 C 33.813119 344.81597 34 343.62135 34 342.35547 C 34 340.25722 33.646631 338.58715 33.054688 337.13086 z M 47.234375 338.63672 A 1.4568047 1.4568047 0 0 0 47.28125 338.73633 A 1.4568047 1.4568047 0 0 0 47.207031 338.67188 C 47.217861 338.66177 47.223645 338.64702 47.234375 338.63672 z M 47.164062 338.73438 L 47.146484 338.75195 C 47.151284 338.74795 47.153383 338.74063 47.158203 338.73633 C 47.159703 338.73533 47.162562 338.73584 47.164062 338.73438 z M 51.089844 341.06641 C 51.157874 341.49707 51.193176 341.9391 51.441406 342.31836 A 1.4568047 1.4568047 0 0 0 51.460938 342.34766 C 51.578671 342.51855 51.781659 342.63208 51.955078 342.76953 C 51.557056 343.19836 51.210415 343.64222 50.996094 344.19336 A 1.4568047 1.4568047 0 0 0 50.025391 344.55859 L 50.035156 341.16211 L 50.666016 341.14258 A 1.4568047 1.4568047 0 0 0 51.089844 341.06641 z M 52.505859 342.10742 C 52.504659 342.10826 52.50518 342.11033 52.503906 342.11133 C 52.501106 342.11333 52.497041 342.11323 52.494141 342.11523 L 52.505859 342.10742 z M 55.408203 342.31445 L 55.384766 342.34766 C 55.388266 342.34266 55.387125 342.33528 55.390625 342.33008 C 55.394825 342.32408 55.404063 342.32105 55.408203 342.31445 z M 44.818359 344.30273 L 44.816406 344.38086 A 1.4568047 1.4568047 0 0 0 44.75 344.32031 A 1.4568047 1.4568047 0 0 0 44.818359 344.30273 z M 42.761719 344.39648 A 1.4568047 1.4568047 0 0 0 42.564453 344.64258 C 42.315046 345.03734 42.086225 345.24443 41.90625 345.34961 C 41.634848 345.50822 41.483234 345.52734 41.4375 345.52734 C 41.088514 345.52734 41.161317 345.56644 41.005859 345.25977 C 40.931619 345.10946 40.927999 344.68241 40.869141 344.44141 L 42.761719 344.39648 z M 33.460938 346.1582 L 33.457031 346.16992 C 33.457583 346.16792 33.456481 346.16606 33.457031 346.16406 C 33.45774 346.16206 33.460237 346.1612 33.460938 346.1582 z M 67.919922 346.52344 L 67.910156 346.58398 C 67.912456 346.57038 67.911862 346.55276 67.914062 346.53906 C 67.914755 346.53406 67.919222 346.52854 67.919922 346.52344 z M 76.169922 348.17969 L 76.142578 348.20117 C 76.146578 348.19817 76.144437 348.1908 76.148438 348.1875 C 76.154336 348.1825 76.164042 348.18469 76.169922 348.17969 z "
   id="path4492" />


















</svg>