<?xml version="1.0" encoding="UTF-8" standalone="no"?>
<!-- Generator: Adobe Illustrator 16.0.0, SVG Export Plug-In . SVG Version: 6.00 Build 0)  -->

<svg
   xmlns:dc="http://purl.org/dc/elements/1.1/"
   xmlns:cc="http://creativecommons.org/ns#"
   xmlns:rdf="http://www.w3.org/1999/02/22-rdf-syntax-ns#"
   xmlns:svg="http://www.w3.org/2000/svg"
   xmlns="http://www.w3.org/2000/svg"
   xmlns:xlink="http://www.w3.org/1999/xlink"
   xmlns:sodipodi="http://sodipodi.sourceforge.net/DTD/sodipodi-0.dtd"
   xmlns:inkscape="http://www.inkscape.org/namespaces/inkscape"
   version="1.1"
   id="Fond"
   x="0px"
   y="0px"
   width="446.25"
   height="623.625"
   viewBox="0 0 446.25 623.625"
   enable-background="new 0 0 178.58 249.45"
   xml:space="preserve"
   sodipodi:docname="ETS-Type2-Couleur2.svg"
   inkscape:version="0.92.0 r15299"><metadata
   id="metadata321"><rdf:RDF><cc:Work
       rdf:about=""><dc:format>image/svg+xml</dc:format><dc:type
         rdf:resource="http://purl.org/dc/dcmitype/StillImage" /><dc:title /></cc:Work></rdf:RDF></metadata><defs
   id="defs319">
	
	
	

		
		
		
		
			

		
			

		

		

	
				
					<linearGradient
   gradientTransform="matrix(-1,0,0,1,178.21,0)"
   y2="39.419899"
   x2="36.042"
   y1="39.419899"
   x1="5.21"
   gradientUnits="userSpaceOnUse"
   id="SVGID_12_">
					<stop
   id="stop254"
   style="stop-color:#560F19"
   offset="0.2832" />
					<stop
   id="stop256"
   style="stop-color:#BE0A26"
   offset="1" />
				</linearGradient>
				
				
			
					
					
					
					
				
		
		
		
		
			

		
			

		

		

	
				
					<linearGradient
   gradientTransform="matrix(-1,0,0,1,178.21,0)"
   y2="93.761703"
   x2="50.000999"
   y1="93.761703"
   x1="19.250999"
   gradientUnits="userSpaceOnUse"
   id="SVGID_9_">
					<stop
   id="stop198"
   style="stop-color:#560F19"
   offset="0.2832" />
					<stop
   id="stop200"
   style="stop-color:#BE0A26"
   offset="1" />
				</linearGradient>
				
				
			
					
					
					
					
				
		
		
		
		
			

		
			

		

		

	
				
					<linearGradient
   gradientTransform="matrix(-1,0,0,1,178.21,0)"
   y2="187.332"
   x2="35.375999"
   y1="187.332"
   x1="4.6259999"
   gradientUnits="userSpaceOnUse"
   id="SVGID_6_">
					<stop
   id="stop40"
   style="stop-color:#560F19"
   offset="0.2832" />
					<stop
   id="stop42"
   style="stop-color:#BE0A26"
   offset="1" />
				</linearGradient>
				
				
			
					
					
					
					
				
			<defs
   id="defs35">
				<path
   inkscape:connector-curvature="0"
   d="M 169.75,238.095 V 137.327 c 0.411,-1.443 1.717,-2.894 1.729,-2.905 0.187,-0.186 0.196,-0.484 0.022,-0.683 l -0.875,-1 c -0.095,-0.108 -0.239,-0.196 -0.376,-0.171 -0.143,0 -0.278,0.061 -0.373,0.167 -0.019,0.021 -1.903,2.083 -4.877,2.083 -0.841,0 -1.462,0.037 -1.813,0.104 l -148.08,0.007 c -0.438,-0.074 -1.059,-0.111 -1.898,-0.111 -2.974,0 -4.858,-2.062 -4.877,-2.083 -0.095,-0.106 -0.23,-0.167 -0.373,-0.167 -10e-4,0 -0.002,0 -0.003,0 -0.143,0.002 -0.279,0.062 -0.374,0.171 l -0.875,1 c -0.171,0.196 -0.16,0.495 0.021,0.681 0.305,0.314 1.855,2.211 1.855,3.648 0,0.062 0.015,0.123 0.042,0.18 v 98.906 c -0.027,0.062 -0.042,0.13 -0.042,0.199 0,1.438 -1.55,3.334 -1.854,3.646 -0.186,0.187 -0.196,0.484 -0.023,0.683 l 0.875,1 c 0.095,0.108 0.251,0.182 0.377,0.171 0.142,0 0.277,-0.062 0.373,-0.167 0.019,-0.021 1.903,-2.083 4.877,-2.083 0.359,0 0.662,-0.009 0.913,-0.021 h 149.944 c 0.273,0.012 0.575,0.021 0.935,0.021 2.974,0 4.858,2.062 4.877,2.083 0.095,0.105 0.23,0.167 0.373,0.167 0.168,-0.013 0.282,-0.062 0.376,-0.171 l 0.875,-1 c 0.172,-0.195 0.16,-0.494 -0.021,-0.681 -0.013,-0.013 -1.319,-1.463 -1.73,-2.906 z m -160,-95.402 c 0,-1.93 1.57,-3.5 3.5,-3.5 H 165 c 1.93,0 3.5,1.57 3.5,3.5 v 93.14 c 0,1.93 -1.57,3.5 -3.5,3.5 H 13.25 c -1.93,0 -3.5,-1.57 -3.5,-3.5 z"
   id="SVGID_4_" />
			</defs>
			<clipPath
   id="SVGID_5_">
				<use
   height="100%"
   width="100%"
   y="0"
   x="0"
   style="overflow:visible"
   id="use37"
   overflow="visible"
   xlink:href="#SVGID_4_" />
			</clipPath>
			
		</defs><sodipodi:namedview
   pagecolor="#ffffff"
   bordercolor="#666666"
   borderopacity="1"
   objecttolerance="10"
   gridtolerance="10"
   guidetolerance="10"
   inkscape:pageopacity="0"
   inkscape:pageshadow="2"
   inkscape:window-width="1280"
   inkscape:window-height="961"
   id="namedview317"
   showgrid="false"
   fit-margin-top="0"
   fit-margin-left="0"
   fit-margin-right="0"
   fit-margin-bottom="0"
   inkscape:zoom="0.94608139"
   inkscape:cx="-15.455713"
   inkscape:cy="260.97532"
   inkscape:window-x="1272"
   inkscape:window-y="-8"
   inkscape:window-maximized="1"
   inkscape:current-layer="Fond" />

<path
   style="fill:#be0a26;stroke-width:2.60090041"
   d="M 419.00781 55.099609 C 417.73496 55.139064 416.64976 55.206598 416.00586 55.328125 L 415.81836 55.328125 C 414.7487 55.624885 413.72267 56.093285 412.70703 56.623047 L 412.39258 55.328125 L 412.37305 55.328125 L 410.70508 56.050781 C 409.99694 55.767333 409.30657 55.536323 408.62305 55.328125 L 393.86328 55.330078 C 391.43852 55.869953 388.98763 56.524461 386.39648 57.09375 C 386.26124 57.010521 386.12743 56.926979 385.99219 56.84375 C 387.23654 56.385253 388.73926 55.814373 390.29297 55.330078 L 387.81445 55.330078 C 387.65636 55.381549 387.4907 55.436306 387.33398 55.486328 C 386.47569 55.759425 385.66961 55.997654 384.90234 56.203125 C 384.23192 55.841284 383.51341 55.538701 382.71875 55.330078 L 378.76367 55.330078 C 377.65807 55.650023 376.72788 56.215279 375.86328 56.839844 C 375.22057 56.85779 374.57857 56.878101 373.93555 56.900391 C 373.00318 56.725844 372.0637 56.492619 371.08984 56.224609 C 370.56532 55.936546 370.02333 55.628868 369.48828 55.330078 L 368.9668 55.330078 C 369.23269 55.5052 369.49116 55.667468 369.75781 55.84375 C 369.51307 55.771757 369.27757 55.706285 369.02539 55.630859 C 368.67429 55.525607 368.36521 55.432609 368.02734 55.330078 L 364.72656 55.330078 C 366.39848 55.813047 368.18605 56.431647 370.0957 56.984375 L 367.02148 57.042969 C 365.34911 56.912924 363.67192 56.61501 362.15039 55.917969 C 361.78043 55.748244 361.42733 55.547375 361.08203 55.332031 L 360.67383 55.332031 C 361.72569 56.013104 362.83875 56.595842 364.02734 56.976562 C 361.98915 56.854372 360.00414 56.962778 358.20117 57.615234 L 354.76562 56.945312 L 354.43359 56.886719 C 355.09334 56.290906 355.83812 55.784172 356.71875 55.332031 L 355.89062 55.332031 C 355.34326 55.745044 354.79914 56.245318 354.25195 56.853516 L 349.95703 56.085938 C 349.26459 55.878633 348.59026 55.620468 347.92969 55.332031 L 347.02539 55.332031 C 347.10874 55.377801 347.18449 55.435387 347.26953 55.478516 C 348.83007 56.269187 350.56725 56.645011 352.27344 57.027344 L 353.86328 57.310547 C 353.43309 57.826558 353.00357 58.384681 352.56641 59.039062 C 352.56641 59.039062 352.5661 59.042969 352.57031 59.042969 C 353.01892 58.400003 353.47757 57.836421 353.97266 57.330078 L 357.29883 57.923828 L 357.38672 57.949219 C 356.64694 58.295804 356.22154 58.924681 355.80664 59.585938 C 355.80924 59.588538 355.81316 59.587891 355.81836 59.587891 C 356.03684 59.286186 356.25809 58.985298 356.47656 58.683594 C 356.7566 58.40995 357.1009 58.169505 357.4668 57.972656 L 362.06836 59.318359 L 362.73438 59.519531 C 360.99872 59.576569 359.42891 59.878691 358.26953 60.740234 C 358.09943 60.719947 357.93015 60.692997 357.75977 60.673828 L 357.75977 60.677734 C 357.92622 60.699062 358.09148 60.727554 358.25781 60.75 C 358.05962 60.898407 357.86606 61.05529 357.69336 61.238281 C 357.4127 61.232559 357.13178 61.227083 356.85156 61.226562 C 354.69799 61.218761 352.54355 61.092169 350.41602 61.388672 C 349.41233 61.526546 348.42381 61.762111 347.45898 62.074219 C 346.86379 61.334426 346.44646 60.320859 346.26367 58.943359 L 346.25781 58.943359 C 346.29397 60.327025 346.57039 61.39434 347.02734 62.220703 C 346.77402 62.309706 346.52078 62.398214 346.27148 62.498047 C 344.93722 63.033832 343.65354 63.728308 342.51172 64.599609 L 340.84961 66.070312 L 340.85547 66.078125 C 342.00247 65.186016 343.10187 64.212686 344.38672 63.53125 C 345.26158 63.067452 346.18739 62.703751 347.13477 62.410156 C 348.7982 65.115316 352.57425 64.994603 356.33398 64.730469 C 356.31318 64.959504 356.27799 65.171089 356.27148 65.419922 L 356.28125 65.419922 C 356.3148 65.165814 356.37467 64.95256 356.42383 64.722656 C 357.61057 64.638595 358.79384 64.547522 359.90625 64.523438 C 361.10787 64.497428 362.10143 64.895256 363.03516 65.472656 C 358.16367 66.601447 353.67203 68.086335 348.61328 66.845703 C 347.85639 66.658438 347.03053 66.236279 346.46094 65.679688 C 346.24246 65.375382 346.02186 65.074494 345.80078 64.775391 L 345.79297 64.775391 C 346.21174 65.441221 346.63765 66.069448 347.37891 66.417969 C 352.2686 68.714564 358.73509 66.493655 363.9707 66.111328 C 364.08774 66.197158 364.20191 66.286577 364.31641 66.375 C 361.22311 66.888467 358.44817 67.861705 355.88867 68.660156 L 359.25586 68.660156 C 361.47729 67.998718 363.40379 67.468497 365.42578 67.230469 C 365.65544 67.403403 365.89996 67.56191 366.13867 67.726562 C 362.1723 68.039784 363.40738 68.050657 366.39844 67.910156 C 366.83201 68.195104 367.29911 68.441474 367.78516 68.660156 L 373.82812 68.660156 C 374.19124 68.508757 374.54453 68.34505 374.88281 68.162109 C 375.41715 68.303391 375.99978 68.484553 376.57617 68.660156 L 379.11719 68.660156 C 377.98487 68.272198 376.90664 67.864904 375.97461 67.521484 C 376.11246 67.438256 376.24235 67.354713 376.375 67.271484 C 378.38021 67.711459 380.30047 68.207387 382.18945 68.660156 L 399.70898 68.660156 C 400.46967 68.389373 401.23922 68.089666 402.03125 67.724609 C 402.20135 67.835226 402.36964 67.94649 402.54297 68.056641 C 402.86899 68.265227 403.18718 68.45503 403.50977 68.660156 L 404.50781 68.660156 C 404.37387 68.578751 404.23452 68.509079 404.10156 68.425781 C 404.29009 68.509172 404.48145 68.585004 404.67188 68.660156 L 411.08789 68.660156 C 412.33197 68.06068 413.53853 67.388759 414.70117 66.818359 C 415.89499 66.446433 417.09905 65.99755 418.20703 65.599609 C 419.19277 65.474766 420.14569 65.604808 421.06641 66.140625 L 421.06641 64.673828 C 422.76199 64.349894 424.45454 64.038718 426.13867 63.753906 C 427.95626 64.041561 429.6312 63.994255 431.08789 63.421875 L 431.08789 63.162109 C 431.71078 63.122239 432.38439 63.094329 433.07227 63.080078 L 433.06836 61.787109 C 432.98418 61.789625 432.90069 61.78779 432.81641 61.791016 C 432.24057 61.697149 431.66365 61.570876 431.08789 61.451172 L 431.08789 61.203125 L 431.08789 60.072266 L 431.08789 58.222656 C 430.16197 58.761043 429.2136 58.888515 428.22266 58.763672 C 427.11987 58.365734 425.91321 57.916851 424.7168 57.544922 C 423.47877 56.93371 422.18646 56.199731 420.8418 55.570312 C 420.20382 55.320276 419.59829 55.182711 419.00781 55.099609 z M 401.1582 55.855469 C 403.4548 55.813854 405.76663 56.103906 408.12305 56.941406 C 408.21356 56.973553 408.30769 57.013948 408.39844 57.046875 L 407.37305 57.490234 L 407.18945 57.585938 C 405.28099 56.780844 403.57051 56.611391 401.98242 56.769531 C 401.70933 56.465226 401.4365 56.15457 401.1582 55.855469 z M 399.65039 55.929688 C 400.04053 56.275607 400.3943 56.620867 400.72461 56.958984 C 397.16658 57.676835 394.12837 59.671022 390.59375 58.992188 C 389.75366 58.830931 389.00759 58.545139 388.31055 58.199219 C 392.14167 57.296706 395.88429 56.223588 399.65039 55.929688 z M 379.51562 56.074219 C 379.68312 56.068497 379.85374 56.072933 380.0293 56.085938 C 381.02024 56.161364 381.87858 56.402765 382.65625 56.738281 C 381.88027 56.897014 381.16095 57.005892 380.46289 57.091797 C 380.29253 57.063135 380.12458 57.020308 379.95312 56.996094 C 379.00486 56.860795 378.04929 56.826978 377.0918 56.826172 C 377.82504 56.403955 378.61277 56.104876 379.51562 56.074219 z M 417.2832 56.605469 C 417.91332 56.583101 418.57716 56.67507 419.36523 56.894531 C 419.14156 56.94915 418.92553 57.02486 418.72266 57.121094 C 417.50281 57.703695 416.63194 58.246005 415.9375 58.693359 C 415.54216 58.482686 415.17994 58.28232 414.86523 58.097656 C 414.57133 57.925997 414.27503 57.762171 413.98633 57.603516 C 415.27541 56.995553 416.23301 56.642578 417.2832 56.605469 z M 362.33008 57.050781 C 363.15204 57.038817 363.96203 57.097712 364.76953 57.183594 C 365.54382 57.36857 366.33181 57.479827 367.12891 57.535156 C 369.08143 57.905894 371.03133 58.423555 373.04492 58.890625 C 372.72387 59.09027 372.38988 59.257669 372.04688 59.404297 C 370.70359 59.420943 369.35835 59.542406 368.02539 59.724609 L 367.94531 59.740234 C 367.11084 59.683925 366.2649 59.62038 365.42188 59.570312 L 359.66406 57.900391 L 358.27344 57.628906 C 358.39152 57.589711 358.51116 57.545876 358.62695 57.517578 C 359.89164 57.207421 361.12131 57.068376 362.33008 57.050781 z M 384.07812 57.498047 C 384.10413 57.516253 384.13155 57.530648 384.16016 57.548828 C 383.91307 57.593043 383.65984 57.637451 383.41016 57.681641 C 383.63123 57.62182 383.85445 57.563069 384.07812 57.498047 z M 402.74609 57.607422 C 403.71103 57.625628 404.71227 57.814999 405.77344 58.251953 L 405.8457 58.294922 L 405.13867 58.666016 L 405.0293 58.666016 C 404.67042 58.667815 404.31124 58.680835 403.95312 58.703125 C 403.54934 58.396684 403.14832 58.033304 402.74609 57.607422 z M 369.18555 57.609375 C 369.40688 57.614317 369.62884 57.627091 369.84961 57.632812 L 372.44727 57.619141 C 372.73245 57.806041 373.01432 57.989679 373.30078 58.175781 C 371.98049 58.045476 370.59947 57.835601 369.18555 57.609375 z M 401.40234 57.681641 C 401.78788 58.10198 402.14573 58.488501 402.50195 58.847656 C 401.80611 58.940378 401.11289 59.063401 400.42969 59.216797 L 393.74805 61.013672 C 393.58939 60.969457 393.43988 60.927676 393.28125 60.880859 L 393.26758 60.876953 C 393.02647 60.7802 392.7896 60.671508 392.55078 60.568359 C 393.0366 60.475897 393.54546 60.348818 394.09766 60.160156 C 396.69075 59.27585 398.9627 58.011955 401.40234 57.681641 z M 375.27148 58.128906 C 375.91911 58.212135 376.57701 58.27543 377.24805 58.306641 C 376.5328 58.327448 375.8044 58.328274 375.06055 58.304688 C 375.13337 58.247467 375.20386 58.188727 375.27148 58.128906 z M 421.30859 58.390625 C 422.27311 58.400248 423.25124 58.63649 424.23633 58.974609 C 425.35211 59.512996 426.35141 59.939129 427.28516 60.199219 C 428.46597 60.690789 429.64861 61.150017 430.82422 61.371094 C 430.81121 61.378896 430.79647 61.383082 430.7832 61.390625 C 427.91163 60.778763 424.94819 59.966185 421.1875 59.703125 C 420.0945 59.627127 419.0089 59.631136 417.92773 59.685547 C 417.83566 59.642606 417.73293 59.599529 417.64258 59.556641 C 418.17836 59.215923 418.80502 58.896819 419.58789 58.644531 C 420.15554 58.461168 420.72987 58.384799 421.30859 58.390625 z M 412.11133 58.525391 C 412.35321 58.629739 412.59741 58.739992 412.83984 58.845703 C 412.34182 58.823075 411.84414 58.846997 411.3457 58.902344 C 411.60912 58.772663 411.86843 58.645789 412.11133 58.525391 z M 384.14258 59.041016 L 384.48242 59.162109 C 383.77238 59.375383 383.08181 59.676752 382.38477 59.931641 L 380.08594 60.742188 C 379.21055 60.356085 378.32447 59.951377 377.42188 59.517578 C 379.71922 59.633812 381.94973 59.410005 384.14258 59.041016 z M 374.06836 59.113281 C 374.39485 59.177888 374.71728 59.221937 375.04102 59.271484 C 375.3512 59.467878 375.66099 59.663785 375.97266 59.857422 L 374.74219 59.539062 C 374.36722 59.489177 373.98971 59.470022 373.61328 59.445312 C 373.76517 59.335034 373.91904 59.230036 374.06836 59.113281 z M 386.22266 60.173828 C 386.43749 60.159783 386.65329 60.158956 386.86914 60.175781 C 387.10062 60.193988 387.33493 60.225938 387.56641 60.267578 L 389.08984 60.8125 C 387.36443 60.852736 385.71842 61.277282 384.08594 61.882812 C 383.49535 61.785591 382.90821 61.655156 382.32812 61.513672 L 381.91406 61.404297 L 384.31445 60.556641 C 384.93867 60.379129 385.57797 60.215645 386.22266 60.173828 z M 372.31055 60.240234 C 373.91652 60.306739 375.50265 60.680904 377.05664 61.097656 L 378.12695 61.402344 C 376.69386 61.68064 375.22214 61.672337 373.77344 61.513672 C 372.42263 61.366929 371.0929 61.079918 369.77148 60.759766 C 370.02429 60.755344 370.27877 60.753234 370.52344 60.736328 C 371.17028 60.692139 371.75682 60.504327 372.31055 60.240234 z M 362.75586 60.410156 C 363.24694 60.408856 363.7553 60.434359 364.26562 60.462891 L 360.98633 61.103516 C 360.48893 61.029442 359.9907 60.962963 359.49219 60.896484 C 360.45626 60.543701 361.56561 60.413358 362.75586 60.410156 z M 420.29883 60.685547 C 420.5726 60.699852 420.84678 60.708962 421.12109 60.732422 C 424.07501 60.984163 426.51589 61.552227 428.80078 62.089844 C 426.48785 62.503259 423.66512 61.894517 421.06641 60.974609 L 421.06641 60.943359 C 420.85105 60.85883 420.62873 60.788984 420.4043 60.726562 C 420.36866 60.713038 420.3342 60.699124 420.29883 60.685547 z M 366.87695 60.767578 L 370.79102 61.945312 C 372.59344 62.366658 374.43136 62.741501 376.2832 62.712891 C 377.45499 62.694424 378.59749 62.413843 379.73047 62.091797 C 380.28857 62.401569 380.84753 62.709464 381.41016 63 C 380.89835 63.237852 380.37667 63.493687 379.85938 63.744141 C 379.29394 63.841284 378.76608 63.994634 378.27539 64.207031 C 373.09666 63.388062 367.92404 62.225994 362.69727 61.369141 L 364.54883 61.152344 C 365.3265 61.037904 366.10188 60.900214 366.87695 60.767578 z M 359.43555 60.919922 C 359.90087 60.989106 360.36597 61.059027 360.83008 61.134766 L 360.76758 61.146484 C 360.08841 61.241963 359.40328 61.258536 358.7168 61.253906 C 358.94464 61.124251 359.18505 61.014649 359.43555 60.919922 z M 400.66211 61.015625 L 400.42578 61.140625 C 399.50766 61.486545 398.5059 61.712959 397.50195 61.767578 C 397.39011 61.757175 397.27644 61.745478 397.16211 61.732422 L 400.66211 61.015625 z M 362.40625 61.402344 C 367.56951 62.318134 372.66662 63.538948 377.77539 64.449219 C 377.16631 64.761519 376.59124 65.13112 376.02539 65.525391 C 375.95569 65.555119 375.88637 65.583891 375.81641 65.613281 C 372.04377 64.846343 368.15651 64.435827 364.04883 65.248047 C 362.99286 64.418362 361.87784 63.718632 360.50977 63.625 C 359.30942 63.542942 357.99902 63.63229 356.67969 63.734375 C 356.98748 62.893103 357.42732 62.255696 357.96875 61.775391 L 358.85742 61.818359 L 362.40625 61.402344 z M 352.57227 61.513672 L 357.28516 61.742188 C 356.91125 62.279879 356.63064 62.941359 356.45898 63.748047 C 353.01974 64.018933 349.53331 64.364471 347.62695 62.265625 C 347.87144 62.196753 348.11672 62.126539 348.36328 62.066406 C 349.73918 61.73089 351.15475 61.526674 352.57227 61.513672 z M 388.65625 61.558594 C 389.29849 61.563796 389.91849 61.625177 390.52344 61.724609 C 388.99676 61.953072 387.44968 62.0619 385.90625 62.050781 C 385.65682 62.048581 385.4088 62.032058 385.16016 62.011719 C 386.40089 61.692965 387.56 61.549857 388.65625 61.558594 z M 410.60547 61.689453 C 410.8021 61.785634 410.9978 61.885143 411.19141 61.988281 C 409.64179 62.556219 408.05097 63.218503 406.44141 63.923828 C 406.04479 63.598614 405.68714 63.299997 405.32031 63.050781 C 407.07199 62.560751 408.83342 62.087388 410.60547 61.689453 z M 417.03516 62.140625 C 418.43868 62.119818 419.73637 62.364561 420.80273 62.996094 C 419.70986 63.202059 418.6082 63.619324 417.50781 64.074219 C 414.27708 64.635358 411.30111 65.045768 408.51562 65.300781 C 408.19056 65.145143 407.89599 64.979202 407.62695 64.808594 C 409.14424 64.088254 410.92892 63.361677 412.74609 62.847656 C 412.89955 62.933772 413.05272 63.021564 413.20703 63.105469 L 413.50391 62.662109 C 414.70334 62.365992 415.90379 62.157474 417.03516 62.140625 z M 421.06641 62.328125 C 421.752 62.582051 422.42711 62.809054 423.0918 63.013672 C 422.40264 63.154849 421.72963 63.287968 421.0625 63.417969 L 421.0625 63.160156 L 421.06836 63.160156 L 421.06641 62.328125 z M 393.23047 62.525391 C 393.50096 62.645032 393.78225 62.754687 394.06055 62.853516 C 394.13051 62.877704 394.20269 62.896956 394.27344 62.919922 C 394.84896 63.187266 395.41787 63.489601 395.98438 63.8125 C 394.81813 63.817702 393.97408 64.231039 393.20117 64.863281 C 391.15356 64.504058 389.1362 64.010849 387.10742 63.384766 C 387.80355 63.402192 388.50168 63.392065 389.19531 63.335938 L 393.23047 62.525391 z M 381.86328 63.224609 C 382.4578 63.52468 383.05505 63.806388 383.6543 64.080078 C 382.67417 63.784192 381.80618 63.6523 381.02734 63.650391 C 381.30369 63.505911 381.58069 63.360636 381.86328 63.224609 z M 398.45703 63.316406 C 398.86017 63.345016 399.26873 63.364596 399.67188 63.375 C 399.98111 63.382022 400.28833 63.364602 400.5957 63.337891 C 400.25712 63.505441 399.87545 63.71951 399.48438 63.943359 C 399.09035 64.044014 398.6943 64.139105 398.30078 64.226562 C 398.26671 64.21616 398.23498 64.209128 398.20117 64.199219 C 397.81002 63.904732 397.42622 63.636106 397.04688 63.384766 C 397.51639 63.385226 397.99059 63.366812 398.45703 63.316406 z M 402.91602 64.435547 C 403.50871 64.395571 403.97981 64.52962 404.48828 64.791016 C 403.86154 65.070698 403.23288 65.343786 402.60547 65.615234 C 402.26811 65.617835 401.94218 65.606377 401.60938 65.603516 C 401.44968 65.524708 401.3008 65.448908 401.13086 65.367188 C 400.9566 65.281357 400.78429 65.201074 400.61523 65.123047 C 401.60878 64.688697 402.32335 64.475536 402.91602 64.435547 z M 396.85742 65.150391 C 396.98851 65.179911 397.12037 65.206033 397.25 65.240234 L 397.02734 65.371094 C 396.6994 65.340221 396.36675 65.323363 396.04102 65.285156 C 396.31226 65.247547 396.58519 65.194554 396.85742 65.150391 z M 381.87695 65.234375 C 384.87969 65.173462 387.59214 66.780408 390.70312 67.40625 C 390.37541 67.744367 390.01969 68.090272 389.62695 68.433594 C 385.85825 68.137089 382.12021 67.066575 378.28906 66.164062 C 378.9861 65.818144 379.72765 65.53235 380.57031 65.371094 C 381.01314 65.286564 381.44801 65.243088 381.87695 65.234375 z M 342.55469 65.320312 C 342.55209 65.320312 342.55143 65.324219 342.54883 65.324219 C 343.51457 66.770025 344.45834 67.853553 345.4043 68.660156 L 346.02734 68.660156 C 344.59817 67.807094 343.55576 66.753057 342.55469 65.320312 z M 433.07617 65.771484 C 429.74806 66.237389 426.67281 67.714012 423.51758 69.066406 C 423.93382 69.19533 424.33222 69.362106 424.7207 69.546875 C 426.57201 68.786903 428.40026 68.001876 430.16602 67.302734 C 431.1391 67.019192 432.1116 66.796841 433.07812 66.648438 L 433.07617 65.771484 z M 367.23047 66.060547 C 366.56204 66.091758 365.90088 66.153073 365.25586 66.236328 C 365.18564 66.176507 365.11319 66.11972 365.04297 66.0625 C 365.78943 66.041693 366.51522 66.04226 367.23047 66.060547 z M 389.07617 66.097656 C 389.84913 66.314597 390.62452 66.502087 391.40039 66.664062 C 391.39519 66.669004 391.39192 66.672533 391.38672 66.677734 C 390.60497 66.571878 389.84021 66.35204 389.07617 66.097656 z M 408.06641 66.912109 C 408.28436 67.025405 408.4588 67.130845 408.70312 67.248047 C 408.90339 67.34428 409.12073 67.41739 409.34961 67.474609 C 407.65949 67.942584 406.52272 67.806856 405.08203 67.238281 C 406.07688 67.149721 407.07125 67.039026 408.06641 66.912109 z M 367.83984 67.095703 C 368.65408 67.098824 369.51841 67.164332 370.42578 67.275391 C 369.74203 67.399792 369.04516 67.50185 368.32227 67.552734 C 367.70096 67.59643 367.72898 67.603796 367.23047 67.640625 L 367.22852 67.640625 C 366.95399 67.491619 366.68996 67.323671 366.42969 67.142578 C 366.8907 67.111367 367.35813 67.093909 367.83984 67.095703 z M 395.67969 67.300781 C 396.4507 67.372722 397.22131 67.428398 397.99414 67.458984 C 395.67635 68.266299 393.40094 68.553281 391.14062 68.509766 C 391.41632 68.210662 391.69175 67.901962 391.96484 67.597656 C 393.12942 67.713474 394.35695 67.655786 395.67969 67.300781 z M 372.0918 67.535156 C 372.27568 67.569332 372.44594 67.59221 372.63477 67.630859 C 371.8571 67.966376 370.9994 68.207777 370.00586 68.283203 C 369.14696 68.347185 368.3923 68.158412 367.69141 67.847656 C 368.96509 67.779435 370.30556 67.70245 371.39453 67.621094 C 371.63303 67.603408 371.86118 67.566549 372.0918 67.535156 z M 382.70508 136.88086 C 381.43095 136.92027 380.34356 136.98775 379.69922 137.10938 L 379.50977 137.10938 C 378.44017 137.40692 377.4142 137.8764 376.39844 138.40625 L 376.08398 137.10938 L 376.06836 137.10938 L 374.39844 137.83203 C 373.69019 137.54848 373.00005 137.31771 372.31641 137.10938 L 357.55859 137.11133 C 355.13325 137.6512 352.68097 138.30571 350.08984 138.875 C 349.9546 138.7918 349.82275 138.70823 349.6875 138.625 C 350.93186 138.16651 352.43503 137.59562 353.98828 137.11133 L 351.50586 137.11133 C 351.34777 137.16281 351.18211 137.21756 351.02539 137.26758 C 350.16709 137.54067 349.36102 137.77695 348.59375 137.98242 C 347.92333 137.62058 347.20481 137.31939 346.41016 137.11133 L 342.45312 137.11133 C 341.34674 137.43212 340.41612 137.99951 339.55078 138.625 C 338.91754 138.64269 338.28392 138.66149 337.65039 138.68359 C 336.70756 138.50795 335.75848 138.27128 334.77344 138 C 334.25246 137.71385 333.71306 137.40813 333.18164 137.11133 L 332.65625 137.11133 C 332.92211 137.28649 333.18061 137.44872 333.44727 137.625 C 333.20356 137.55329 332.96968 137.48715 332.71875 137.41211 C 332.3684 137.30708 332.05985 137.21366 331.72266 137.11133 L 328.42188 137.11133 C 330.09505 137.59432 331.88409 138.21273 333.79492 138.76562 L 330.7168 138.82422 C 329.04442 138.69417 327.3653 138.39821 325.84375 137.70117 C 325.47182 137.53055 325.11666 137.32981 324.76953 137.11328 L 324.36914 137.11328 C 325.41848 137.79292 326.52895 138.37517 327.71484 138.75586 C 325.67764 138.63429 323.69255 138.74545 321.89062 139.39844 L 318.46094 138.72852 L 318.125 138.66797 C 318.78432 138.07208 319.5285 137.56536 320.4082 137.11328 L 319.58008 137.11328 C 319.03271 137.52621 318.48862 138.02623 317.94141 138.63477 L 313.64844 137.86719 C 312.956 137.65988 312.28167 137.40172 311.62109 137.11328 L 310.71875 137.11328 C 310.80211 137.15905 310.87785 137.21664 310.96289 137.25977 C 312.52343 138.05043 314.26061 138.42431 315.9668 138.80664 L 317.55664 139.0918 C 317.12658 139.60769 316.69484 140.16613 316.25781 140.82031 C 316.25781 140.82031 316.25912 140.82227 316.26172 140.82227 C 316.71035 140.17922 317.16698 139.61575 317.66211 139.10938 L 320.99023 139.70508 L 321.07422 139.73047 C 320.33606 140.07731 319.91052 140.70475 319.49609 141.36523 C 319.49869 141.36836 319.50261 141.36914 319.50781 141.36914 C 319.72629 141.06744 319.94754 140.7646 320.16602 140.46289 C 320.44605 140.18925 320.79036 139.95074 321.15625 139.75391 L 325.75781 141.09766 L 326.42383 141.29883 C 324.68947 141.35592 323.11998 141.65928 321.96094 142.51953 C 321.79006 142.49924 321.62023 142.47232 321.44922 142.45312 L 321.44922 142.45898 C 321.61568 142.48031 321.78091 142.50875 321.94727 142.53125 C 321.74778 142.68046 321.55239 142.83535 321.37891 143.01953 C 321.09954 143.01355 320.81996 143.00833 320.54102 143.00781 C 318.38747 142.99975 316.23496 142.87147 314.10742 143.16797 C 313.10436 143.30574 312.11465 143.54171 311.15039 143.85352 C 310.55523 143.11373 310.13592 142.10211 309.95312 140.72461 L 309.94727 140.72461 C 309.98342 142.10815 310.2619 143.17366 310.71875 144 C 310.46464 144.08921 310.21086 144.17922 309.96094 144.2793 C 308.62668 144.81508 307.34492 145.50956 306.20312 146.38086 L 304.54102 147.84961 L 304.54688 147.85742 C 305.69387 146.96531 306.79523 145.99394 308.08008 145.3125 C 308.95492 144.8487 309.88077 144.485 310.82812 144.19141 C 312.49201 146.8952 316.26628 146.77386 320.02539 146.50977 C 320.00458 146.73911 319.96939 146.95003 319.96289 147.19922 L 319.97266 147.19922 C 320.00621 146.94537 320.06803 146.73361 320.11719 146.50391 C 321.3033 146.4199 322.48778 146.32679 323.59961 146.30273 C 324.80123 146.27673 325.79482 146.67455 326.72852 147.25195 C 321.85706 148.38074 317.36539 149.86563 312.30664 148.625 C 311.54978 148.43774 310.72194 148.01753 310.15234 147.46094 C 309.93387 147.15663 309.71326 146.85379 309.49219 146.55469 L 309.48438 146.55469 C 309.90312 147.22052 310.32906 147.8507 311.07031 148.19922 C 315.96001 150.49581 322.4265 148.27493 327.66211 147.89258 C 327.77915 147.97838 327.89332 148.06587 328.00781 148.1543 C 324.91394 148.66786 322.13954 149.64246 319.58008 150.44141 L 322.94727 150.44141 C 325.16881 149.77984 327.09715 149.24779 329.11914 149.00977 C 329.3488 149.18265 329.59142 149.34319 329.83008 149.50781 C 325.86384 149.82102 327.10081 149.83191 330.0918 149.69141 C 330.52601 149.9767 330.9937 150.2228 331.48047 150.44141 L 337.52148 150.44141 C 337.88489 150.28999 338.23785 150.12437 338.57617 149.94141 C 339.11294 150.08333 339.69812 150.26485 340.27734 150.44141 L 342.81641 150.44141 C 341.68195 150.05264 340.60159 149.64479 339.66797 149.30078 C 339.80582 149.21758 339.93571 149.13597 340.06836 149.05273 C 342.07357 149.49271 343.99382 149.98864 345.88281 150.44141 L 363.40039 150.44141 C 364.16106 150.17074 364.93068 149.87087 365.72266 149.50586 C 365.89302 149.61661 366.06282 149.72762 366.23633 149.83789 C 366.56235 150.04648 366.88057 150.2363 367.20312 150.44141 L 368.20117 150.44141 C 368.06651 150.35958 367.92664 150.28882 367.79297 150.20508 C 367.98286 150.2891 368.17535 150.36573 368.36719 150.44141 L 374.78125 150.44141 C 376.02502 149.84195 377.23 149.16997 378.39258 148.59961 C 379.58642 148.22768 380.79045 147.77684 381.89844 147.37891 C 382.88418 147.25406 383.83905 147.38385 384.75977 147.91992 L 384.75977 146.45312 C 386.4548 146.12931 388.14649 145.81988 389.83008 145.53516 C 391.64767 145.82281 393.32456 145.77551 394.78125 145.20312 L 394.78125 144.94141 C 395.40363 144.90163 396.07651 144.87366 396.76367 144.85938 L 396.76367 143.56836 C 396.67818 143.57091 396.5934 143.56899 396.50781 143.57227 C 395.93216 143.47845 395.35683 143.35013 394.78125 143.23047 L 394.78125 142.98438 L 394.78125 141.85156 L 394.78125 140.00391 C 393.85533 140.54228 392.90501 140.66977 391.91406 140.54492 C 390.81128 140.14698 389.60459 139.69615 388.4082 139.32422 C 387.17017 138.71301 385.87787 137.97903 384.5332 137.34961 C 383.89731 137.10039 383.29371 136.96395 382.70508 136.88086 z M 364.85352 137.63672 C 367.15011 137.5951 369.46192 137.88321 371.81836 138.7207 C 371.90965 138.75311 372.00433 138.79301 372.0957 138.82617 L 371.06641 139.27148 L 370.88672 139.36719 C 368.97722 138.56117 367.26655 138.39062 365.67773 138.54883 C 365.40464 138.24452 365.13181 137.93582 364.85352 137.63672 z M 363.34375 137.70898 C 363.73389 138.0549 364.08763 138.40016 364.41797 138.73828 C 360.85994 139.45613 357.82173 141.45227 354.28711 140.77344 C 353.44702 140.61218 352.70095 140.32639 352.00391 139.98047 C 355.83503 139.07796 359.57765 138.00289 363.34375 137.70898 z M 343.20898 137.85352 C 343.37648 137.84753 343.5471 137.85153 343.72266 137.86523 C 344.7136 137.94063 345.57194 138.18206 346.34961 138.51758 C 345.57147 138.67678 344.85021 138.78514 344.15039 138.87109 C 343.98237 138.8429 343.81742 138.80114 343.64844 138.77734 C 342.69825 138.64176 341.7407 138.61003 340.78125 138.60938 C 341.51616 138.18482 342.30371 137.8833 343.20898 137.85352 z M 380.97852 138.38281 C 381.60864 138.36044 382.27055 138.4524 383.05859 138.67188 C 382.83492 138.72907 382.61889 138.80481 382.41602 138.89844 C 381.19617 139.48104 380.3253 140.02335 379.63086 140.4707 C 379.23552 140.26003 378.8733 140.05966 378.55859 139.875 C 378.26472 139.70334 377.96839 139.53951 377.67969 139.38086 C 378.96877 138.7729 379.92835 138.41992 380.97852 138.38281 z M 326.02344 138.83008 C 326.83611 138.81837 327.63707 138.87688 328.43555 138.96094 C 329.22799 139.15247 330.03522 139.26469 330.85156 139.32031 C 332.79472 139.69077 334.73632 140.20703 336.74023 140.67188 C 336.41676 140.873 336.08015 141.04025 335.73438 141.1875 C 334.3933 141.20441 333.05148 141.32397 331.7207 141.50586 L 331.64844 141.51953 C 330.80697 141.46283 329.9556 141.39994 329.10547 141.34961 L 323.35742 139.68359 L 321.96289 139.41211 C 322.08279 139.37221 322.20296 139.32759 322.32031 139.29883 C 323.585 138.98867 324.81467 138.84767 326.02344 138.83008 z M 347.77344 139.27539 C 347.79945 139.2936 347.82491 139.30797 347.85352 139.32617 C 347.60643 139.37296 347.35318 139.41737 347.10352 139.45898 C 347.32459 139.39919 347.54976 139.34041 347.77344 139.27539 z M 366.43945 139.38672 C 367.40439 139.40493 368.40563 139.5943 369.4668 140.03125 L 369.54102 140.07422 L 368.83203 140.44727 L 368.72266 140.44727 C 368.36508 140.44927 368.00723 140.46414 367.65039 140.48633 C 367.24551 140.17951 366.84275 139.81373 366.43945 139.38672 z M 332.89844 139.39258 C 333.11327 139.39752 333.32868 139.41055 333.54297 139.41602 L 336.14648 139.40039 C 336.43076 139.58667 336.71057 139.77153 336.99609 139.95703 C 335.68121 139.82738 334.30641 139.61789 332.89844 139.39258 z M 365.09766 139.46289 C 365.48418 139.88433 365.84206 140.27097 366.19922 140.63086 C 365.50205 140.72366 364.80943 140.84632 364.125 141 L 357.44336 142.79688 C 357.2847 142.75269 357.13326 142.71088 356.97461 142.66406 L 356.96094 142.6582 C 356.71957 142.5614 356.48322 142.45286 356.24414 142.34961 C 356.72999 142.25712 357.23882 142.13007 357.79102 141.94141 C 360.38411 141.05709 362.65801 139.7932 365.09766 139.46289 z M 338.9668 139.91016 C 339.61442 139.99336 340.27233 140.05475 340.94336 140.08594 C 340.22811 140.10674 339.49972 140.10757 338.75586 140.08398 C 338.82868 140.02679 338.89917 139.96998 338.9668 139.91016 z M 385.00391 140.16992 C 385.9684 140.17981 386.9446 140.41383 387.92969 140.75195 C 389.04545 141.29034 390.04477 141.71647 390.97852 141.97656 C 392.1593 142.47073 393.34392 142.92996 394.51953 143.14844 C 394.50653 143.1565 394.48891 143.1616 394.47461 143.16992 C 391.6041 142.55813 388.64202 141.74538 384.88281 141.48242 C 383.79202 141.40653 382.70786 141.41082 381.62891 141.46484 C 381.53475 141.42104 381.43022 141.37773 381.33789 141.33398 C 381.8737 140.99327 382.50033 140.67416 383.2832 140.42188 C 383.85085 140.23851 384.42521 140.1641 385.00391 140.16992 z M 375.80469 140.30469 C 376.04969 140.41041 376.29734 140.52178 376.54297 140.62891 C 376.03897 140.6055 375.53372 140.6309 375.0293 140.6875 C 375.29657 140.55592 375.55856 140.4267 375.80469 140.30469 z M 347.83203 140.82227 L 348.17578 140.94531 C 347.46576 141.15859 346.77712 141.45996 346.08008 141.71484 L 343.78516 142.52344 C 342.90824 142.13674 342.02136 141.73144 341.11719 141.29688 C 343.41261 141.41295 345.64093 141.19071 347.83203 140.82227 z M 337.76172 140.89258 C 338.08759 140.95708 338.40931 141.00129 338.73242 141.05078 C 339.04658 141.24967 339.36014 141.44845 339.67578 141.64453 L 338.43555 141.32227 C 338.05821 141.27207 337.67958 141.25322 337.30078 141.22852 C 337.45475 141.11696 337.61055 141.01077 337.76172 140.89258 z M 349.91797 141.95312 C 350.1328 141.93934 350.34665 141.94013 350.5625 141.95703 C 350.79398 141.97524 351.02829 142.00526 351.25977 142.04688 L 352.78711 142.59375 C 351.06141 142.63365 349.41391 143.05667 347.78125 143.66211 C 347.19004 143.56491 346.60219 143.43461 346.02148 143.29297 L 345.60938 143.18359 L 348.00977 142.33594 C 348.63396 142.15843 349.27328 141.99495 349.91797 141.95312 z M 336.00586 142.01953 C 337.61158 142.08614 339.19625 142.46026 340.75 142.87695 L 341.82227 143.18164 C 340.38917 143.45994 338.91745 143.45161 337.46875 143.29297 C 336.116 143.14602 334.78422 142.85983 333.46094 142.53906 C 333.71557 142.53516 333.97041 142.53305 334.2168 142.51562 C 334.86453 142.47144 335.45143 142.28422 336.00586 142.01953 z M 326.44922 142.19141 C 326.93967 142.1904 327.44738 142.21376 327.95703 142.24219 L 324.67773 142.88281 C 324.18229 142.80902 323.68604 142.74203 323.18945 142.67578 C 324.15293 142.32377 325.26009 142.1946 326.44922 142.19141 z M 383.99805 142.46484 C 384.27031 142.47915 384.54167 142.49037 384.81445 142.51367 C 387.76663 142.76526 390.20847 143.32985 392.49219 143.86719 C 390.17957 144.27993 387.35775 143.67161 384.75977 142.75195 L 384.75977 142.72461 C 384.55221 142.64312 384.33918 142.57458 384.12305 142.51367 C 384.08091 142.49755 384.04018 142.48094 383.99805 142.46484 z M 330.57031 142.54688 L 334.48438 143.72461 C 336.2868 144.14596 338.12667 144.5208 339.97852 144.49219 C 341.14962 144.47372 342.29147 144.19485 343.42383 143.87305 C 343.98232 144.18305 344.54047 144.4905 345.10352 144.78125 C 344.5914 145.01923 344.07037 145.27478 343.55273 145.52539 C 342.98748 145.62269 342.4574 145.77385 341.9668 145.98633 C 336.78742 145.16708 331.61224 144.00516 326.38477 143.14844 L 328.24219 142.93164 C 329.01986 142.8172 329.79524 142.67951 330.57031 142.54688 z M 323.13086 142.70117 C 323.59548 142.77028 324.06004 142.83843 324.52344 142.91406 L 324.46094 142.92578 C 323.78111 143.02139 323.09534 143.03984 322.4082 143.03516 C 322.63682 142.90485 322.87938 142.79627 323.13086 142.70117 z M 364.35547 142.79688 L 364.11914 142.92188 C 363.20102 143.26778 362.19926 143.49421 361.19531 143.54883 C 361.08347 143.53842 360.9698 143.52462 360.85547 143.51172 L 364.35547 142.79688 z M 326.09961 143.18164 C 331.26286 144.09743 336.36196 145.31824 341.4707 146.22852 C 340.86282 146.54 340.28926 146.90942 339.72461 147.30273 C 339.6523 147.33363 339.58038 147.36402 339.50781 147.39453 C 335.73575 146.62784 331.84919 146.21526 327.74219 147.02734 C 326.68622 146.19766 325.5712 145.49988 324.20312 145.40625 C 323.00341 145.32424 321.69363 145.4112 320.375 145.51367 C 320.68276 144.67324 321.12104 144.03467 321.66211 143.55469 L 322.55078 143.59766 L 326.09961 143.18164 z M 316.26562 143.29297 L 320.98047 143.52148 C 320.60594 144.05965 320.32411 144.72148 320.15234 145.5293 C 316.71398 145.80012 313.22893 146.14397 311.32227 144.04688 C 311.56675 143.97808 311.81023 143.90774 312.05664 143.84766 C 313.43252 143.51214 314.84814 143.30597 316.26562 143.29297 z M 352.35156 143.33984 C 352.99216 143.34479 353.6094 143.40494 354.21289 143.50391 C 352.68744 143.73198 351.14377 143.84314 349.60156 143.83203 C 349.35396 143.83003 349.10617 143.81094 348.85938 143.79102 C 350.09852 143.47301 351.25653 143.33112 352.35156 143.33984 z M 374.30078 143.4707 C 374.49689 143.5666 374.69175 143.66478 374.88477 143.76758 C 373.33549 144.33543 371.74392 144.99992 370.13477 145.70508 C 369.73867 145.38031 369.38386 145.07911 369.01758 144.83008 C 370.76845 144.3403 372.52957 143.8684 374.30078 143.4707 z M 380.72852 143.92188 C 382.13207 143.90107 383.43168 144.14387 384.49805 144.77539 C 383.40785 144.98086 382.30865 145.39798 381.21094 145.85156 C 377.97557 146.41368 374.99595 146.82488 372.20703 147.08008 C 371.88283 146.92473 371.58878 146.75812 371.32031 146.58789 C 372.83752 145.86759 374.62434 145.14292 376.44141 144.62891 C 376.59408 144.71461 376.74681 144.80128 376.90039 144.88477 L 377.19727 144.44336 C 378.39711 144.14707 379.59679 143.93872 380.72852 143.92188 z M 384.75977 144.10547 C 385.44575 144.35958 386.12011 144.58821 386.78516 144.79297 C 386.09714 144.93391 385.42388 145.06551 384.75781 145.19531 L 384.75781 144.93945 L 384.75977 144.93945 L 384.75977 144.10547 z M 356.92578 144.30469 C 357.19627 144.42433 357.47756 144.53399 357.75586 144.63281 C 357.82426 144.65648 357.89397 144.67477 357.96289 144.69727 C 358.53909 144.96474 359.10868 145.26862 359.67578 145.5918 C 358.51076 145.59778 357.66697 146.01241 356.89453 146.64453 C 354.84479 146.28494 352.82583 145.79108 350.79492 145.16406 C 351.49342 145.18175 352.19267 145.17397 352.88867 145.11719 L 356.92578 144.30469 z M 345.55664 145.00391 C 346.1543 145.30556 346.75498 145.58829 347.35742 145.86328 C 346.37296 145.5652 345.50227 145.43153 344.7207 145.42969 C 344.99739 145.285 345.27366 145.14012 345.55664 145.00391 z M 362.15039 145.0957 C 362.55353 145.12431 362.96209 145.14585 363.36523 145.15625 C 363.67451 145.16327 363.98169 145.14379 364.28906 145.11719 C 363.95017 145.28489 363.56925 145.49853 363.17773 145.72266 C 362.78383 145.82329 362.38953 145.92038 361.99609 146.00781 C 361.96202 145.99741 361.9303 145.99035 361.89648 145.98047 C 361.50601 145.6865 361.12088 145.41698 360.74219 145.16602 C 361.21165 145.16647 361.68397 145.14624 362.15039 145.0957 z M 366.60938 146.21484 C 367.20204 146.17484 367.67316 146.30894 368.18164 146.57031 C 367.5549 146.85 366.92627 147.12308 366.29883 147.39453 C 365.96082 147.39765 365.63422 147.38541 365.30078 147.38281 C 365.14187 147.30432 364.99349 147.22982 364.82422 147.14844 C 364.64996 147.06263 364.47765 146.98232 364.30859 146.9043 C 365.30214 146.46995 366.01668 146.25483 366.60938 146.21484 z M 360.55078 146.92969 C 360.68187 146.95918 360.81373 146.98533 360.94336 147.01953 L 360.7207 147.15039 C 360.39299 147.11949 360.05988 147.10256 359.73438 147.06445 C 360.00534 147.02684 360.27881 146.97385 360.55078 146.92969 z M 345.57031 147.01367 C 348.57303 146.95278 351.2855 148.56166 354.39648 149.1875 C 354.06877 149.52562 353.71307 149.87152 353.32031 150.21484 C 349.55163 149.91834 345.81355 148.84587 341.98242 147.94336 C 342.67946 147.59744 343.42098 147.31165 344.26367 147.15039 C 344.70648 147.06589 345.14135 147.02238 345.57031 147.01367 z M 306.24609 147.10156 C 306.24349 147.10156 306.24284 147.10352 306.24023 147.10352 C 307.20666 148.55036 308.15102 149.63452 309.09766 150.44141 L 309.7168 150.44141 C 308.28889 149.5887 307.24636 148.53316 306.24609 147.10156 z M 396.76562 147.55273 C 393.43859 148.01866 390.36514 149.49393 387.21094 150.8457 C 387.62661 150.97445 388.02607 151.14173 388.41406 151.32617 C 390.26466 150.56645 392.09232 149.78092 393.85742 149.08203 C 394.82988 148.79867 395.80167 148.57593 396.76758 148.42773 L 396.76562 147.55273 z M 330.92383 147.83984 C 330.2554 147.87105 329.59424 147.93432 328.94922 148.01758 C 328.87899 147.95778 328.80655 147.89902 328.73633 147.8418 C 329.48279 147.82099 330.20855 147.82156 330.92383 147.83984 z M 352.72461 147.86328 C 353.51364 148.08592 354.30365 148.27804 355.0957 148.44336 C 355.0905 148.4483 355.08723 148.45378 355.08203 148.45898 C 354.28499 148.35107 353.50355 148.12473 352.72461 147.86328 z M 371.75977 148.69336 C 371.97772 148.80676 372.15387 148.91199 372.39844 149.0293 C 372.59871 149.1255 372.81409 149.19669 373.04297 149.25391 C 371.35283 149.72188 370.21608 149.58617 368.77539 149.01758 C 369.76971 148.92907 370.76513 148.8202 371.75977 148.69336 z M 331.53516 148.875 C 332.34939 148.8789 333.21174 148.94399 334.11914 149.05469 C 333.43536 149.17909 332.73852 149.28115 332.01562 149.33203 C 331.39657 149.37552 331.4249 149.3832 330.92773 149.41992 L 330.92578 149.41797 C 330.65074 149.26878 330.38379 149.10133 330.12305 148.91992 C 330.58406 148.88931 331.05347 148.87289 331.53516 148.875 z M 359.37109 149.08008 C 360.14086 149.15197 360.91201 149.20962 361.68359 149.24023 C 359.36721 150.04645 357.09294 150.33255 354.83398 150.28906 C 355.10968 149.98996 355.38511 149.68126 355.6582 149.37695 C 356.82229 149.49272 358.04906 149.43464 359.37109 149.08008 z M 335.78906 149.31445 C 335.97165 149.34824 336.1407 149.3701 336.32812 149.4082 C 335.55046 149.74372 334.69276 149.98512 333.69922 150.06055 C 332.84357 150.12424 332.09321 149.93745 331.39453 149.62891 C 332.66575 149.56081 334.00129 149.48156 335.08789 149.40039 C 335.32769 149.38244 335.55719 149.34605 335.78906 149.31445 z M 419.75977 336.10156 C 419.52275 336.10492 419.31219 336.11127 419.0918 336.11719 C 417.43962 336.25607 415.93053 336.92053 414.4375 337.69922 L 414.11914 336.39453 L 412.43164 337.125 C 411.66357 336.81756 410.91509 336.56888 410.17578 336.34961 L 395.83789 336.35156 C 393.33452 336.90044 390.80609 337.58155 388.12891 338.16797 C 387.99366 338.08477 387.85986 338.0012 387.72461 337.91797 C 389.01375 337.44399 390.57615 336.84594 392.18945 336.35156 L 389.71094 336.35156 C 389.49681 336.42158 389.27416 336.49494 389.0625 336.5625 C 388.2042 336.83559 387.39812 337.07187 386.63086 337.27734 C 385.90164 336.88207 385.11622 336.55611 384.23438 336.35156 L 380.70898 336.35156 C 379.51154 336.65649 378.51759 337.24775 377.59961 337.91016 C 376.94715 337.92836 376.29536 337.9482 375.64258 337.9707 C 374.71986 337.7969 373.7897 337.56542 372.82617 337.30078 C 372.26948 336.9951 371.69366 336.66923 371.125 336.35156 L 370.61328 336.35156 C 370.90725 336.54522 371.19336 336.72488 371.48828 336.91992 C 371.2428 336.84782 371.00679 336.78267 370.75391 336.70703 C 370.33912 336.58268 369.97065 336.47184 369.57422 336.35156 L 366.26172 336.35156 C 367.98106 336.84009 369.82694 337.48236 371.80078 338.05469 L 368.75391 338.11328 C 367.08153 337.98064 365.40434 337.68728 363.88281 336.99023 C 363.48086 336.80584 363.09566 336.58968 362.72266 336.35156 L 362.7207 336.35156 L 362.33203 336.35156 C 363.41045 337.05722 364.55033 337.66493 365.77344 338.05469 C 363.73572 337.93132 361.75054 338.03919 359.94727 338.68945 L 356.49805 338.01758 L 356.16992 337.95898 C 356.85556 337.34013 357.63338 336.81561 358.56055 336.35156 L 357.68945 336.35352 C 357.68945 336.35352 357.6875 336.35352 357.6875 336.35352 C 357.11793 336.77473 356.55138 337.29368 355.98242 337.92578 L 351.6875 337.16016 C 350.95358 336.9393 350.23889 336.66409 349.54102 336.35352 L 348.66992 336.35352 C 348.78173 336.41651 348.88515 336.49253 349 336.55078 C 350.56054 337.34145 352.29772 337.71792 354.00391 338.09766 L 355.5957 338.38281 C 355.16493 338.8992 354.7327 339.45823 354.29492 340.11328 C 354.29492 340.11328 354.29778 340.11914 354.30078 340.11914 C 354.75054 339.47452 355.21047 338.90999 355.70703 338.40234 L 359.0293 338.99805 L 359.12109 339.02539 C 358.3788 339.37157 357.95278 340.00354 357.53711 340.66602 C 357.54011 340.66902 357.54188 340.66692 357.54688 340.66992 C 357.76535 340.36562 357.9866 340.06538 358.20508 339.76367 C 358.4867 339.48848 358.83295 339.24628 359.20117 339.04883 L 363.79688 340.38867 L 364.48047 340.59375 C 362.73985 340.64925 361.16294 340.95232 360 341.81445 C 359.82862 341.79405 359.65786 341.76735 359.48633 341.74805 L 359.48633 341.75195 C 359.654 341.77345 359.82079 341.80162 359.98828 341.82422 C 359.78993 341.97231 359.59855 342.12795 359.42578 342.31055 C 359.1438 342.30455 358.86162 342.29993 358.58008 342.29883 C 356.42653 342.29083 354.27207 342.16508 352.14453 342.45898 C 351.13945 342.59889 350.14971 342.83552 349.18359 343.14844 C 348.59021 342.40931 348.17268 341.39786 347.99023 340.02344 L 347.98633 340.02344 C 348.02233 341.40432 348.29694 342.46917 348.75195 343.29492 C 348.49969 343.38362 348.24621 343.4729 347.99805 343.57227 C 346.66378 344.10805 345.38203 344.80253 344.24023 345.67383 L 342.57812 347.14453 L 342.58398 347.14844 C 343.73098 346.25373 344.83039 345.28495 346.11523 344.60352 C 346.98827 344.14068 347.91211 343.77559 348.85742 343.48242 C 350.51834 346.1971 354.29851 346.07545 358.0625 345.81055 C 358.0411 346.03871 358.0065 346.2483 358 346.49609 L 358.00977 346.49609 C 358.04317 346.24307 358.10337 346.03176 358.15234 345.80273 C 359.33872 345.71853 360.52269 345.62562 361.63477 345.60156 C 362.83638 345.57556 363.82995 345.97078 364.76367 346.55078 C 363.47867 346.84785 362.22022 347.16854 360.9707 347.45898 L 363.35547 347.45898 C 364.15451 347.3461 364.94105 347.24664 365.69727 347.19141 C 365.81431 347.27981 365.93048 347.36469 366.04492 347.45312 C 366.03437 347.45488 366.02421 347.45722 366.01367 347.45898 L 380.92578 347.45898 C 380.62252 347.38561 380.32586 347.31389 380.02148 347.24219 C 380.71853 346.89367 381.46004 346.60852 382.30273 346.44727 C 382.74554 346.36237 383.18041 346.3195 383.60938 346.31055 C 385.44108 346.2723 387.17132 346.85638 388.94336 347.45898 L 391.73633 347.45898 C 391.34927 347.35125 390.9632 347.23095 390.57812 347.09766 C 391.06196 347.23707 391.54797 347.34098 392.0332 347.45898 L 417.74414 347.45898 C 418.49447 347.19877 419.23566 346.93332 419.93555 346.68359 C 420.92129 346.55615 421.8742 346.68759 422.79492 347.2207 L 422.79492 345.74805 C 424.48654 345.42484 426.17526 345.11469 427.85547 344.83008 C 429.67679 345.11977 431.35715 345.07534 432.81641 344.50195 L 432.81641 344.23633 C 432.863 344.23335 432.91788 344.23342 432.96484 344.23047 L 432.96484 342.60547 C 432.96951 342.5891 432.97767 342.57301 432.98242 342.55664 C 432.92706 342.54501 432.87177 342.53495 432.81641 342.52344 L 432.81641 342.28516 L 432.81641 341.15039 L 432.81641 339.30273 C 431.89049 339.83592 430.94211 339.96728 429.95117 339.83984 C 428.84839 339.4419 427.64173 338.99302 426.44531 338.62109 C 425.20728 338.00988 423.91498 337.2733 422.57031 336.64648 C 421.57391 336.25597 420.64712 336.10682 419.75977 336.10156 z M 402.89062 336.92969 C 405.18723 336.88549 407.49905 337.17814 409.85547 338.01562 C 409.94607 338.04782 410.03998 338.08812 410.13086 338.12109 L 409.10547 338.56445 L 408.92383 338.66016 C 407.01444 337.85637 405.30357 337.68777 403.71484 337.84375 C 403.44175 337.53944 403.16893 337.23139 402.89062 336.92969 z M 401.38281 337.00586 C 401.77295 337.34918 402.12672 337.69444 402.45703 338.03516 C 398.899 338.753 395.8608 340.7459 392.32617 340.07227 C 391.48608 339.91101 390.74001 339.62586 390.04297 339.27734 C 393.8741 338.37483 397.61671 337.29976 401.38281 337.00586 z M 381.24609 337.14844 C 381.41349 337.14244 381.58616 337.14746 381.76172 337.16016 C 382.75266 337.23296 383.611 337.47698 384.38867 337.8125 C 383.62301 337.96913 382.91232 338.07617 382.22266 338.16211 C 382.04314 338.13171 381.86613 338.088 381.68555 338.0625 C 380.74052 337.92873 379.7882 337.89526 378.83398 337.89453 C 379.56446 337.47537 380.34728 337.17896 381.24609 337.14844 z M 419.01758 337.67969 C 419.64769 337.65739 420.31154 337.74929 421.09961 337.96875 C 420.87333 338.02335 420.6573 338.09908 420.45703 338.19531 C 419.23721 338.77791 418.36631 339.32022 417.67188 339.76758 C 417.27654 339.55691 416.91432 339.35394 416.59961 339.17188 C 416.30571 339.00022 416.0094 338.83899 415.7207 338.67773 C 417.00977 338.06977 417.96739 337.7168 419.01758 337.67969 z M 364.06055 338.12891 C 364.89318 338.11651 365.71538 338.17773 366.5332 338.26562 C 367.29267 338.44374 368.06638 338.55439 368.84766 338.60938 C 370.80474 338.98005 372.7591 339.5006 374.77734 339.96875 C 374.46063 340.1657 374.13099 340.32912 373.79297 340.47461 C 372.44516 340.49041 371.09532 340.61211 369.75781 340.79492 L 369.6543 340.81445 C 368.83391 340.75885 368.00242 340.69793 367.17383 340.64844 L 361.39648 338.97266 L 360.02148 338.70508 C 360.13434 338.66798 360.24871 338.62478 360.35938 338.59766 C 361.62405 338.28685 362.85178 338.14687 364.06055 338.12891 z M 385.81055 338.57227 C 385.83655 338.59047 385.86202 338.60485 385.89062 338.62305 C 385.64355 338.66725 385.39226 338.71165 385.14258 338.75586 C 385.36365 338.69606 385.58687 338.63469 385.81055 338.57227 z M 370.875 338.68164 C 371.11081 338.68664 371.34698 338.70103 371.58203 338.70703 L 374.17969 338.69336 C 374.46802 338.88235 374.75336 339.06769 375.04297 339.25586 C 373.70641 339.12436 372.30723 338.91091 370.875 338.68164 z M 404.47656 338.68164 C 405.4415 338.69724 406.44469 338.88922 407.50586 339.32617 L 407.57617 339.36719 L 406.87109 339.73633 L 406.76172 339.73633 C 406.4022 339.73833 406.04237 339.75299 405.68359 339.77539 C 405.28018 339.46941 404.87842 339.10713 404.47656 338.68164 z M 403.13477 338.76172 C 403.51819 339.17977 403.87422 339.56423 404.22852 339.92188 C 403.53467 340.01488 402.84335 340.13688 402.16211 340.29102 L 395.48047 342.08594 C 395.32181 342.04174 395.17233 341.99604 395.01367 341.94922 L 395 341.94531 C 394.76468 341.85091 394.53397 341.74319 394.30078 341.64258 C 394.78067 341.55008 395.2856 341.4243 395.83008 341.23828 C 398.42318 340.35398 400.69512 339.09463 403.13477 338.76172 z M 377.00391 339.20703 C 377.65153 339.29283 378.30944 339.3516 378.98047 339.38281 C 378.26522 339.40361 377.53683 339.40315 376.79297 339.37695 C 376.86577 339.31975 376.93628 339.26425 377.00391 339.20703 z M 423.04102 339.46484 C 424.00553 339.47494 424.98366 339.71037 425.96875 340.04688 C 427.08454 340.58526 428.08385 341.01139 429.01758 341.27148 C 430.19839 341.76566 431.38103 342.22488 432.55664 342.44336 C 432.54414 342.45036 432.53018 342.45559 432.51758 342.46289 C 429.64519 341.85097 426.68176 341.03853 422.91992 340.77539 C 421.82428 340.69879 420.73608 340.70106 419.65234 340.75586 C 419.56274 340.71416 419.46284 340.67256 419.375 340.63086 C 419.91079 340.29014 420.53744 339.97169 421.32031 339.7168 C 421.88796 339.53441 422.46231 339.45878 423.04102 339.46484 z M 413.84375 339.60156 C 414.08298 339.70398 414.32468 339.81349 414.56445 339.91797 C 414.07187 339.89577 413.57892 339.92001 413.08594 339.97461 C 413.34597 339.8466 413.60373 339.72055 413.84375 339.60156 z M 385.88672 340.11719 L 386.21484 340.23438 C 385.5048 340.44504 384.81423 340.74902 384.11719 341.00391 L 381.81836 341.8125 C 380.94864 341.42879 380.0684 341.02651 379.17188 340.5957 C 381.46717 340.71018 383.69566 340.48648 385.88672 340.11719 z M 375.80078 340.19141 C 376.12993 340.25651 376.45489 340.30173 376.78125 340.35156 C 377.08637 340.54472 377.39074 340.73724 377.69727 340.92773 L 376.47266 340.61133 C 376.10052 340.56183 375.72709 340.54228 375.35352 340.51758 C 375.50254 340.40943 375.65428 340.30559 375.80078 340.19141 z M 387.95508 341.25195 C 388.16998 341.23785 388.38569 341.23761 388.60156 341.25391 C 388.83304 341.27471 389.06735 341.30215 389.29883 341.34375 L 390.81445 341.88477 C 389.08967 341.92607 387.44455 342.34926 385.8125 342.95508 C 385.22396 342.85798 384.63863 342.72956 384.06055 342.58984 L 383.64648 342.48047 L 386.04688 341.63281 C 386.67109 341.4553 387.31038 341.29414 387.95508 341.25195 z M 374.04492 341.31641 C 375.65023 341.38351 377.23568 341.75959 378.78906 342.17383 L 379.85938 342.47852 C 378.42627 342.75681 376.95456 342.7485 375.50586 342.58984 C 374.1531 342.44289 372.82135 342.15671 371.49805 341.83594 C 371.75282 341.83194 372.00928 341.8299 372.25586 341.8125 C 372.90416 341.7694 373.49009 341.58147 374.04492 341.31641 z M 364.48633 341.48828 C 364.96924 341.48728 365.46911 341.51156 365.9707 341.53906 L 362.71094 342.17773 C 362.21894 342.10453 361.72553 342.03846 361.23242 341.97266 C 362.19478 341.622 363.29919 341.49164 364.48633 341.48828 z M 422.02734 341.75781 C 422.30247 341.77221 422.57785 341.78304 422.85352 341.80664 C 425.80744 342.06094 428.24832 342.62651 430.5332 343.16406 C 428.22031 343.57747 425.3975 342.9687 422.79883 342.04883 L 422.79883 342.01953 C 422.59313 341.93863 422.38014 341.87317 422.16602 341.8125 C 422.11912 341.7948 422.07402 341.77571 422.02734 341.75781 z M 368.60938 341.83789 L 372.52344 343.01562 C 374.32586 343.43957 376.16378 343.81572 378.01562 343.78711 C 379.18673 343.76861 380.32859 343.48782 381.46094 343.16602 C 382.01953 343.47609 382.57943 343.78342 383.14258 344.07422 C 382.62322 344.31557 382.09341 344.57412 381.56836 344.82812 C 381.0154 344.92512 380.49692 345.0738 380.01562 345.28125 C 374.82788 344.4612 369.64616 343.297 364.41016 342.43945 L 366.28125 342.2207 C 367.05892 342.10886 367.83431 341.97314 368.60938 341.83789 z M 361.17578 341.99609 C 361.63626 342.06449 362.09737 342.13222 362.55664 342.20703 L 362.49805 342.21875 C 361.82209 342.31375 361.1422 342.33025 360.45898 342.32617 C 360.68618 342.19765 360.92623 342.09009 361.17578 341.99609 z M 402.39453 342.08984 L 402.1582 342.21875 C 401.24009 342.56467 400.23832 342.78978 399.23438 342.8418 C 399.12254 342.8314 399.00702 342.81974 398.89258 342.80664 L 402.39453 342.08984 z M 364.125 342.47461 C 369.29737 343.39027 374.40382 344.6102 379.52148 345.52148 C 378.92122 345.82767 378.35415 346.19085 377.79688 346.57812 C 377.70817 346.61602 377.62037 346.65402 377.53125 346.69141 C 373.76342 345.92899 369.88334 345.51702 365.78125 346.32812 C 364.72528 345.50104 363.61026 344.79871 362.24219 344.70508 C 361.04184 344.62248 359.73145 344.71108 358.41211 344.8125 C 358.72147 343.96722 359.16376 343.32675 359.70898 342.8457 L 360.58984 342.88867 L 364.125 342.47461 z M 354.30273 342.58398 L 359.02148 342.8125 C 358.64529 343.35154 358.36369 344.01593 358.19141 344.82617 C 354.74909 345.0965 351.25872 345.44213 349.35352 343.33789 C 349.60005 343.26859 349.84719 343.1988 350.0957 343.13867 C 351.47158 342.80576 352.88524 342.59699 354.30273 342.58398 z M 390.38867 342.63477 C 391.03022 342.63977 391.6496 342.69977 392.25391 342.79883 C 390.72787 343.02764 389.18147 343.14002 387.63867 343.12891 C 387.38988 343.12591 387.1425 343.10839 386.89453 343.08789 C 388.13457 342.76893 389.29297 342.62633 390.38867 342.63477 z M 412.33594 342.76562 C 412.53397 342.86232 412.73082 342.9607 412.92578 343.06445 C 411.3753 343.63361 409.78433 344.29858 408.17383 345.00586 C 407.7764 344.6794 407.4184 344.37874 407.05078 344.12891 C 408.80245 343.63862 410.56392 343.16395 412.33594 342.76562 z M 418.76562 343.21875 C 420.16917 343.19785 421.46879 343.44073 422.53516 344.07227 C 421.44764 344.27723 420.35089 344.69403 419.25586 345.14453 C 416.01609 345.70762 413.03243 346.12124 410.24023 346.37695 L 410.23828 346.375 C 409.91674 346.22057 409.62597 346.05512 409.35938 345.88477 C 410.87658 345.16447 412.66145 344.4398 414.47852 343.92578 C 414.63126 344.01168 414.78389 344.09779 414.9375 344.18164 L 415.23438 343.74023 C 416.43421 343.44395 417.63389 343.2356 418.76562 343.21875 z M 422.79883 343.40234 C 423.48308 343.65573 424.15691 343.88351 424.82031 344.08789 C 424.13246 344.22879 423.46082 344.36242 422.79492 344.49219 L 422.79492 344.23633 L 422.79883 344.23633 L 422.79883 343.40234 z M 394.96289 343.59961 C 395.23338 343.72185 395.51467 343.83085 395.79297 343.92969 C 395.86617 343.95489 395.9418 343.97425 396.01562 343.99805 C 396.5913 344.2658 397.15991 344.5693 397.72656 344.89258 C 396.55808 344.89558 395.71295 345.30671 394.93945 345.9375 C 392.88596 345.57898 390.86275 345.08721 388.82812 344.45898 C 389.52817 344.47678 390.23019 344.46696 390.92773 344.41016 L 394.96289 343.59961 z M 383.5957 344.30078 C 384.19677 344.60415 384.80035 344.88963 385.40625 345.16602 C 384.4145 344.86537 383.53814 344.73148 382.75195 344.73047 C 383.03079 344.58458 383.31048 344.43808 383.5957 344.30078 z M 400.18945 344.39258 C 400.59259 344.42118 400.9992 344.44272 401.40234 344.45312 C 401.71299 344.46013 402.02328 344.44096 402.33203 344.41406 C 402.00016 344.57818 401.62447 344.78961 401.24219 345.00781 C 400.83405 345.1124 400.42523 345.2123 400.01758 345.30273 C 399.99558 345.29573 399.97503 345.29166 399.95312 345.28516 C 399.55881 344.9877 399.17138 344.71652 398.78906 344.46289 C 399.25539 344.46299 399.72622 344.44268 400.18945 344.39258 z M 404.64844 345.51172 C 405.24112 345.47142 405.71223 345.60512 406.2207 345.86523 C 405.59337 346.14518 404.96396 346.41902 404.33594 346.69141 C 403.99856 346.69441 403.67265 346.68239 403.33984 346.67969 C 403.18087 346.60119 403.03253 346.52671 402.86328 346.44531 C 402.68902 346.35951 402.51671 346.27464 402.34766 346.19922 C 403.3412 345.76487 404.05576 345.55203 404.64844 345.51172 z M 347.52734 345.84961 C 347.52734 345.85261 347.52253 345.85052 347.51953 345.85352 C 347.92566 346.49676 348.346 347.10469 349.04688 347.45898 L 349.16406 347.45898 C 348.80404 347.26366 348.46592 347.02601 348.18945 346.75586 C 347.97098 346.45155 347.74842 346.15131 347.52734 345.84961 z M 398.58984 346.22656 C 398.72048 346.25636 398.85323 346.28151 398.98242 346.31641 L 398.75977 346.44727 C 398.43135 346.41587 398.09766 346.39767 397.77148 346.35938 C 398.04303 346.32168 398.3173 346.27058 398.58984 346.22656 z M 344.2832 346.40039 C 344.2802 346.40039 344.28034 346.4082 344.27734 346.4082 C 344.53066 346.78744 344.78256 347.1271 345.0332 347.45898 L 345.10352 347.45898 C 344.82449 347.12672 344.55044 346.78286 344.2832 346.40039 z M 368.96289 347.13281 C 368.29446 347.16141 367.6333 347.22471 366.98828 347.31055 C 366.91808 347.25075 366.84561 347.19394 366.77539 347.13672 C 367.52185 347.11592 368.24764 347.11471 368.96289 347.13281 z M 432.96484 347.20508 C 430.74885 347.75475 428.61883 348.67617 426.47461 349.60938 C 426.7333 349.82785 426.97611 350.06304 427.20898 350.30859 C 428.79824 349.6461 430.37085 348.98025 431.89453 348.37695 C 432.25158 348.27265 432.60837 348.18062 432.96484 348.0918 L 432.96484 347.20508 z "
   id="path32" />
</svg>