<?xml version="1.0" encoding="UTF-8" standalone="no"?>
<!-- Generator: Adobe Illustrator 16.0.0, SVG Export Plug-In . SVG Version: 6.00 Build 0)  -->

<svg
   xmlns:dc="http://purl.org/dc/elements/1.1/"
   xmlns:cc="http://creativecommons.org/ns#"
   xmlns:rdf="http://www.w3.org/1999/02/22-rdf-syntax-ns#"
   xmlns:svg="http://www.w3.org/2000/svg"
   xmlns="http://www.w3.org/2000/svg"
   xmlns:sodipodi="http://sodipodi.sourceforge.net/DTD/sodipodi-0.dtd"
   xmlns:inkscape="http://www.inkscape.org/namespaces/inkscape"
   version="1.1"
   id="Fond"
   x="0px"
   y="0px"
   width="38.355595"
   height="23.36079"
   viewBox="0 0 38.355595 23.360791"
   enable-background="new 0 0 178.58 249.45"
   xml:space="preserve"
   sodipodi:docname="icon-book.svg"
   inkscape:version="0.92.0 r15299"><metadata
   id="metadata336"><rdf:RDF><cc:Work
       rdf:about=""><dc:format>image/svg+xml</dc:format><dc:type
         rdf:resource="http://purl.org/dc/dcmitype/StillImage" /><dc:title></dc:title></cc:Work></rdf:RDF></metadata><defs
   id="defs334">
	
	
	

		
		
		
		
			

		
			

		

		

	
			
			
		
				
				
				
				
				
				
				
				
				
				
				
				
				
				
				
				
				
				
				
				
				
				
				
				
				
				
				
				
				
				
				
				
				
				
				
				
				
				
				
				
				
				
				
				
				
				
				
				
				
				
				
				
				
				
				
			
				
				
			</defs><sodipodi:namedview
   pagecolor="#ffffff"
   bordercolor="#666666"
   borderopacity="1"
   objecttolerance="10"
   gridtolerance="10"
   guidetolerance="10"
   inkscape:pageopacity="0"
   inkscape:pageshadow="2"
   inkscape:window-width="1280"
   inkscape:window-height="961"
   id="namedview332"
   showgrid="false"
   inkscape:zoom="12.793025"
   inkscape:cx="5.5981397"
   inkscape:cy="6.3234986"
   inkscape:window-x="1272"
   inkscape:window-y="-8"
   inkscape:window-maximized="1"
   inkscape:current-layer="Fond"
   fit-margin-top="0"
   fit-margin-left="0"
   fit-margin-right="0"
   fit-margin-bottom="0" />

<path
   d="m 19.095283,22.71209 c -0.34396,0 -0.67229,-0.12507 -1.00582,-0.38044 -0.20586,-0.16156 -0.38044,-0.35177 -0.54982,-0.5446 -0.0182,-0.0182 -0.0339,-0.0417 -0.0495,-0.0625 H 4.297223 c -0.17198,0 -0.39868,-0.0808 -0.52115,-0.20325 -0.12247,-0.12507 -0.20325,-0.39347 -0.20065,-0.56805 v -2.97837 l -1.80057,0.003 c -0.30487,0 -0.727,-0.3179 -0.79735996,-0.61235 -0.28924,-0.57066 -0.20846,-1.09963 0.20063996,-1.47746 0.11987,-0.11205 0.43516,-0.24494 0.59672,-0.24494 l 1.87614,0.005 V 8.00546 l -1.83184,0.003 c -0.60193,0 -0.90679996,-0.44819 -1.00581996,-0.59672 -0.13029,-0.20064 -0.29445,-0.59932 0.0104,-1.12308 C 0.94099304,6.09323 1.076493,5.95252 1.204173,5.82484 1.324043,5.71019 1.610673,5.59553 1.777443,5.59032 l 1.79796,-0.0547 V 2.74226 c 0,-0.16938 0.0782,-0.48467 0.19804,-0.60714 0.12247,-0.12508 0.35699,-0.20846 0.52897,-0.20846 0.003,0 0.68531,-0.003 0.68792,-0.003 0.0599,0 0.12247,0.0104 0.1824,0.0313 0.0182,-0.005 0.0365,-0.013 0.0521,-0.0182 0.23192,-0.0678 0.46643,-0.17719 0.74004,-0.34135 0.10162,-0.0599 0.26839,-0.11205 0.38565,-0.11205 0.008,0 0.0182,0 0.0261,0 0.10944,-0.0547 0.23191,-0.086 0.33874,-0.086 0.37002,0.0521 0.54982,0.0599 0.72701,0.0599 l 0.88074,-0.0339 c 0.42735,-0.0208 0.85469,-0.0417 1.28724,-0.0417 v 0 c 0.7218,0 1.38105,-0.10162 2.0377,-0.20325 0.41953,-0.0625 0.83384,-0.14331 1.24816,-0.21888 0.44818,-0.086 0.89377,-0.16937 1.34456,-0.23452 0.34917,-0.0521 0.69053,-0.0782 1.02406,-0.0782 1.29506,0 2.54061,0.38305 3.70538,1.14132 0.0756,0.0495 0.14592,0.10162 0.20586,0.15895 0.87813,-0.60974 1.75106,-0.998 2.66047,-1.18301 0.39347,-0.0782 0.79215,-0.11205 1.18822,-0.11205 0.22149,0 0.44558,0.0104 0.66707,0.0287 0.46122,0.0339 0.92244,0.11986 1.37844,0.21106 l 0.9042,0.16416 c 0.79215,0.13811 1.5869,0.27882 2.39208,0.32051 0.25797,0.013 1.31851,0.0313 1.31851,0.0313 0,0 1.11526,0.0521 1.14392,0.0521 0.31791,0 0.50291,-0.0182 0.68792,-0.0547 0.11466,0 0.30488,0.0287 0.46122,0.0834 0.013,0 0.0261,-0.003 0.0417,-0.003 0.11987,0 0.30227,0.0599 0.4065,0.12247 0.19804,0.11987 0.42213,0.24234 0.65404,0.30748 0.0313,0.008 0.0625,0.0209 0.0964,0.0391 0.0599,-0.0208 0.12247,-0.0313 0.1824,-0.0313 0,0 0.64622,0 0.65144,0 0.17458,0 0.39346,0.12247 0.51854,0.24233 0.13029,0.12247 0.25797,0.35439 0.25797,0.53158 v 2.83505 l 1.811,0.0573 c 0.15634,0.005 0.39607,0.086 0.51072,0.19022 0.20325,0.1824 0.42735,0.41953 0.54721,0.76609 0.10944,0.34396 0.0443,0.69574 -0.1824,0.97455 -0.2736,0.32833 -0.60975,0.48988 -1.00582,0.48988 l -1.75628,-0.008 v 7.64266 l 1.86572,-0.005 c 0.22931,0 0.61235,0.20846 0.73222,0.40389 0.0443,0.0651 0.11204,0.15635 0.17979,0.23973 0.16417,0.19804 0.21628,0.6332 0.10163,0.86251 l -0.12768,0.27881 c -0.15374,0.3596 -0.44819,0.54982 -0.83124,0.54982 l -1.85008,-0.005 0.005,2.94971 c 0,0.17198 -0.14592,0.41432 -0.26839,0.53939 -0.12247,0.12248 -0.36741,0.2684 -0.53939,0.2684 h -13.11214 c -0.008,0.013 -0.0182,0.026 -0.0261,0.0365 -0.24233,0.26839 -0.40129,0.44037 -0.5915,0.58369 -0.32051,0.24494 -0.64623,0.3648 -0.9928,0.3648 z"
   id="path61"
   inkscape:connector-curvature="0"
   style="clip-rule:evenodd;display:inline;fill:#51ffff;fill-opacity:1;fill-rule:evenodd;stroke-width:2.60575104" />
</svg>