<?xml version="1.0" encoding="UTF-8" standalone="no"?>
<!-- Generator: Adobe Illustrator 16.0.0, SVG Export Plug-In . SVG Version: 6.00 Build 0)  -->

<svg
   xmlns:dc="http://purl.org/dc/elements/1.1/"
   xmlns:cc="http://creativecommons.org/ns#"
   xmlns:rdf="http://www.w3.org/1999/02/22-rdf-syntax-ns#"
   xmlns:svg="http://www.w3.org/2000/svg"
   xmlns="http://www.w3.org/2000/svg"
   xmlns:sodipodi="http://sodipodi.sourceforge.net/DTD/sodipodi-0.dtd"
   xmlns:inkscape="http://www.inkscape.org/namespaces/inkscape"
   version="1.1"
   id="Fond"
   x="0px"
   y="0px"
   width="35.439945"
   height="25.340261"
   viewBox="0 0 35.439945 25.340262"
   enable-background="new 0 0 178.58 249.45"
   xml:space="preserve"
   sodipodi:docname="icon-eagle-stroke.svg"
   inkscape:version="0.92.0 r15299"><metadata
   id="metadata336"><rdf:RDF><cc:Work
       rdf:about=""><dc:format>image/svg+xml</dc:format><dc:type
         rdf:resource="http://purl.org/dc/dcmitype/StillImage" /><dc:title /></cc:Work></rdf:RDF></metadata><defs
   id="defs334">
	
	
	

		
		
		
		
			

		
			

		

		

	
			
			
		
				
				
				
				
			
				
				
				
			
					
					
				
					
					
				
					
					
				</defs><sodipodi:namedview
   pagecolor="#ffffff"
   bordercolor="#666666"
   borderopacity="1"
   objecttolerance="10"
   gridtolerance="10"
   guidetolerance="10"
   inkscape:pageopacity="0"
   inkscape:pageshadow="2"
   inkscape:window-width="1280"
   inkscape:window-height="961"
   id="namedview332"
   showgrid="false"
   inkscape:zoom="9.0460349"
   inkscape:cx="-15.618514"
   inkscape:cy="2.5229254"
   inkscape:window-x="1272"
   inkscape:window-y="-8"
   inkscape:window-maximized="1"
   inkscape:current-layer="Fond"
   fit-margin-top="0"
   fit-margin-left="0"
   fit-margin-right="0"
   fit-margin-bottom="0" />

<path
   style="display:inline;fill:#560f19;stroke-width:2.60575104"
   d="M 17.585938 0 C 17.208675 0.0006490901 16.810927 0.19301457 16.558594 0.4765625 L 16.554688 0.4765625 C 16.551687 0.4791625 16.545986 0.48500446 16.541016 0.49023438 L 16.427734 0.62304688 C 16.414734 0.63867688 16.343078 0.72525225 16.330078 0.73828125 C 15.902738 1.2985172 15.585448 1.8864145 15.330078 2.3867188 C 15.194578 2.6551116 15.061931 2.9262676 14.931641 3.1972656 C 14.884741 3.2962856 14.838572 3.3918684 14.789062 3.4882812 C 14.637925 3.2641864 14.490974 3.0437536 14.339844 2.8222656 C 13.915104 2.1942796 13.470336 1.5745852 13.003906 0.97265625 C 12.917906 0.84758025 12.745634 0.60233386 12.427734 0.40429688 C 12.219274 0.27400885 11.979964 0.20898438 11.740234 0.20898438 C 11.484864 0.20898438 11.233209 0.28115848 11.011719 0.4296875 C 10.586989 0.7163205 10.369088 1.2249526 10.455078 1.7304688 L 11.759766 1.6425781 L 10.486328 1.9179688 C 10.567128 2.4130616 10.650336 2.911157 10.728516 3.40625 L 10.861328 4.2792969 C 10.926428 4.7248809 10.993446 5.1676984 11.066406 5.6132812 L 10.263672 5.0683594 L 7.828125 3.40625 C 6.579965 2.559381 5.4628763 1.846727 4.4101562 1.234375 C 4.3293563 1.182255 4.1154244 1.052125 3.8027344 0.984375 C 3.7141344 0.966135 3.62245 0.95703125 3.53125 0.95703125 C 3.06743 0.95703125 2.6264513 1.2041736 2.3945312 1.6210938 C 2.1157212 2.1161867 2.1911715 2.7380295 2.5820312 3.1523438 L 2.7421875 3.3222656 L 2.9433594 3.5390625 C 3.9648194 4.6100265 4.9772437 5.6757781 5.9960938 6.7519531 C 6.4625236 7.2444401 6.9248494 7.7438311 7.3808594 8.2519531 C 6.9691494 8.1789931 6.557545 8.1087646 6.140625 8.0410156 C 5.411015 7.9211506 4.5389731 7.7865035 3.6269531 7.7109375 C 3.5592531 7.7005175 3.4870075 7.6953125 3.4296875 7.6953125 C 3.0153675 7.6953125 2.5776281 7.9158111 2.3300781 8.2519531 C 2.1137981 8.5464031 2.0331556 8.9197029 2.1035156 9.2792969 C 2.1739156 9.6388899 2.3923881 9.9484526 2.7050781 10.138672 C 2.7180781 10.146472 2.8697825 10.236322 2.8828125 10.244141 C 3.7166525 10.689725 4.5001694 11.062272 5.2871094 11.4375 L 5.8613281 11.710938 C 6.4137481 11.974118 6.9781756 12.250472 7.5410156 12.544922 C 5.4355756 13.579405 3.2118131 14.729647 0.68945312 16.082031 C 0.30380314 16.287886 0.047549365 16.676168 0.005859375 17.111328 C -0.035840625 17.546489 0.14888436 17.974443 0.49023438 18.248047 C 0.72214437 18.433055 1.0629719 18.554688 1.3574219 18.554688 C 1.4486219 18.554688 1.5637437 18.541677 1.6523438 18.523438 L 1.9472656 18.482422 L 2.5585938 18.388672 C 3.5513837 18.229721 4.5430131 18.056097 5.5332031 17.878906 C 6.2237231 17.756436 6.9090794 17.632883 7.5996094 17.515625 C 7.8940594 17.466115 8.1743125 17.419305 8.4453125 17.375 L 8.4121094 17.429688 L 7.3984375 19.052734 C 6.9658774 19.758894 6.4742 20.600988 6.0625 21.546875 C 5.9739 21.75273 5.9023313 22.09622 5.9257812 22.320312 C 5.9934813 22.97175 6.5354031 23.472646 7.1894531 23.488281 L 7.2128906 23.488281 C 7.5177606 23.488281 7.89048 23.349723 8.125 23.162109 L 9.015625 22.523438 L 9.6464844 22.058594 L 10.339844 21.548828 C 10.657744 21.316916 10.943824 21.104287 11.246094 20.90625 L 11.369141 20.824219 C 11.963251 20.430751 12.523732 20.061371 13.107422 19.777344 C 13.299896 19.68031 13.459799 19.546164 13.603516 19.396484 C 13.653807 19.509152 13.688934 19.627485 13.744141 19.738281 C 14.030771 20.321969 14.406622 20.845427 14.857422 21.298828 C 14.862422 21.304028 14.953764 21.393228 14.958984 21.398438 C 15.209134 21.638167 15.538211 21.765625 15.869141 21.765625 C 16.054151 21.765625 16.241436 21.727258 16.416016 21.646484 C 16.905906 21.419784 17.204449 20.916344 17.167969 20.376953 L 17.134766 19.953125 C 17.121766 19.700367 17.111303 19.395336 17.158203 19.142578 C 17.163203 19.106098 17.174347 19.044995 17.335938 18.927734 C 17.533977 18.784417 17.751164 18.6752 17.964844 18.560547 C 18.397394 18.328635 18.706192 18.136184 19.013672 17.943359 C 19.203892 17.823494 19.393757 17.704497 19.591797 17.589844 C 19.680126 17.538208 19.760317 17.504721 19.847656 17.455078 C 20.491084 17.660353 20.881333 18.118466 21.041016 18.792969 C 21.153066 19.262004 21.092481 19.727582 20.988281 20.191406 C 20.884051 20.681287 20.714259 21.155303 20.599609 21.642578 C 20.445869 22.278381 20.349682 22.923438 20.232422 23.564453 C 20.206322 23.689529 20.186169 23.815677 20.167969 23.943359 C 20.154969 24.011109 20.102659 25.429745 20.355469 25.335938 C 21.059019 25.072757 21.761956 24.81008 22.447266 24.507812 C 23.086589 24.224016 23.725082 23.939721 24.363281 23.654297 C 24.472912 23.698534 24.584456 23.740951 24.707031 23.753906 C 24.753931 23.756506 24.797497 23.759766 24.841797 23.759766 C 25.099767 23.759766 25.340368 23.683671 25.548828 23.550781 C 25.606128 23.542981 25.663373 23.531912 25.720703 23.513672 C 25.921343 23.458952 26.10147 23.358155 26.25 23.222656 C 26.46106 23.212236 26.681528 23.147196 26.861328 23.042969 C 27.284422 22.79937 27.517775 22.305304 27.507812 21.820312 C 27.514751 21.815133 27.520448 21.811791 27.527344 21.806641 C 27.752746 21.946431 28.011904 22.037109 28.255859 22.037109 C 28.740529 22.037109 29.236191 21.71966 29.462891 21.294922 C 29.512391 21.208932 29.686084 21.067801 29.871094 20.914062 C 30.428724 20.463268 30.801903 19.974865 31.101562 19.552734 C 31.482003 19.013343 31.857836 18.590048 32.253906 18.253906 C 32.868866 17.724939 33.283078 17.062975 33.486328 16.28125 C 33.509728 16.19265 33.552647 16.079507 33.623047 15.949219 C 33.891447 15.683433 34.084606 15.285428 34.128906 14.839844 C 34.141906 14.740824 34.207014 14.561967 34.277344 14.369141 C 34.621304 13.449311 34.838425 12.492687 35.015625 11.671875 C 35.164145 10.981351 35.289005 10.254358 35.390625 9.5117188 C 35.393625 9.4882687 35.40365 9.3789206 35.40625 9.3554688 C 35.46095 9.1235575 35.535579 8.422227 34.855469 7.84375 C 33.914799 7.051602 32.930952 6.3662292 31.919922 5.8007812 C 30.353872 4.9226433 28.732113 4.3510616 27.095703 4.1035156 C 26.509403 4.0149256 25.900763 3.9655011 25.283203 3.9550781 L 25.056641 3.953125 C 23.706871 3.953125 22.413491 4.1566604 21.207031 4.5527344 C 20.582205 4.759361 19.988351 5.0175564 19.423828 5.3203125 C 19.417533 5.2681151 19.412979 5.2165142 19.40625 5.1640625 L 19.324219 4.296875 C 19.248619 3.502121 19.174555 2.7055586 19.046875 1.9160156 C 19.005175 1.6580466 18.959656 1.4038015 18.910156 1.1484375 C 18.834556 0.7315175 18.524969 0.29372563 18.136719 0.11914062 C 18.058519 0.082660645 17.975311 0.057949375 17.894531 0.037109375 C 17.798733 0.013805685 17.686453 0.00016147028 17.587891 0 L 17.585938 0 z M 17.587891 1.3027344 L 17.601562 1.3027344 C 17.630263 1.3157644 17.629566 1.3580587 17.634766 1.3867188 C 17.681666 1.6316587 17.723946 1.8761526 17.765625 2.1210938 C 17.937605 3.1868455 18.010997 4.2688796 18.123047 5.3398438 C 18.158799 5.5925301 18.18064 5.8379532 18.210938 6.0878906 C 18.028745 6.220151 17.845091 6.3503055 17.671875 6.4941406 C 17.492109 6.6426174 17.327436 6.7938569 17.169922 6.9472656 C 17.166917 6.9217471 17.161026 6.8966293 17.158203 6.8710938 C 17.090503 6.2222618 17.057347 5.568101 16.960938 4.921875 C 16.957937 4.906235 16.954172 4.8886769 16.951172 4.8730469 C 16.946172 4.8495969 16.95188 4.8164038 16.925781 4.8085938 L 16.916016 4.8085938 C 16.892516 4.8085938 16.878234 4.8391819 16.865234 4.8574219 C 16.721914 5.0554589 16.595119 5.2583369 16.480469 5.4667969 C 16.107849 6.1338689 15.79709 6.8296701 15.4375 7.5019531 C 15.3489 7.6713271 15.25005 7.8403916 15.15625 8.0097656 C 15.12235 8.0644856 15.106837 8.0878906 15.085938 8.0878906 C 15.067735 8.0878906 15.044959 8.0670806 15.005859 8.0253906 C 14.737534 7.7569984 14.512501 7.455921 14.306641 7.140625 C 14.132061 6.867021 13.955835 6.5900202 13.796875 6.3007812 C 13.788875 6.2825413 13.781287 6.2513112 13.742188 6.2382812 C 13.723985 6.4415303 13.736094 6.6372521 13.746094 6.8300781 C 13.800794 7.6925811 13.967346 8.530737 14.128906 9.375 C 14.207106 9.791921 14.290971 10.208733 14.369141 10.623047 C 14.374141 10.651707 14.392541 10.689431 14.369141 10.712891 C 14.361141 10.718091 14.353603 10.720703 14.345703 10.720703 C 14.322303 10.720703 14.29955 10.696624 14.28125 10.683594 C 13.63503 10.310972 13.022506 9.8765625 12.410156 9.4492188 C 11.993236 9.1625864 11.571229 8.8836164 11.130859 8.6308594 C 11.065759 8.5917694 11.003297 8.5605594 10.935547 8.5371094 C 11.089287 8.6934544 11.242095 8.8488615 11.390625 9.0078125 C 11.820575 9.4664245 12.228261 9.9547934 12.650391 10.423828 C 13.017811 10.835537 13.39558 11.230903 13.8125 11.587891 C 13.8333 11.606131 13.871081 11.62237 13.863281 11.65625 C 13.850281 11.68752 13.809303 11.676431 13.783203 11.681641 C 13.681573 11.692061 13.576229 11.697266 13.474609 11.697266 C 13.122829 11.697266 12.778211 11.640016 12.431641 11.572266 C 11.860981 11.462825 11.296573 11.306689 10.720703 11.228516 C 10.692003 11.225916 10.671278 11.22405 10.642578 11.21875 C 10.637578 11.26305 10.672559 11.281237 10.693359 11.304688 C 10.953929 11.57829 11.288856 11.744699 11.617188 11.898438 C 11.997628 12.070417 12.384536 12.22711 12.759766 12.396484 C 12.798866 12.417334 12.855446 12.415991 12.863281 12.462891 C 12.866281 12.512401 12.806031 12.524072 12.769531 12.544922 C 12.248381 12.841977 11.722329 13.138501 11.193359 13.419922 C 10.466359 13.800362 9.7204986 14.160586 8.9804688 14.525391 C 8.7381287 14.645256 8.4910363 14.75382 8.2539062 14.894531 C 8.3607465 14.881501 8.4706381 14.871109 8.5800781 14.855469 C 10.041717 14.679152 11.492955 14.448404 12.939453 14.191406 C 12.906377 14.369211 12.875849 14.54732 12.859375 14.728516 C 12.859075 14.731827 12.859672 14.73497 12.859375 14.738281 C 12.569005 15.302888 12.252192 15.853718 11.914062 16.390625 C 11.551865 16.96389 11.192278 17.528302 10.830078 18.09375 C 10.814478 18.12502 10.801391 18.149716 10.775391 18.191406 C 10.929131 18.144506 11.046156 18.076214 11.166016 18.005859 C 11.700196 17.687957 12.209981 17.328346 12.712891 16.960938 C 12.775723 16.916585 12.839213 16.875322 12.902344 16.832031 C 12.943827 17.17964 13.006275 17.520342 13.085938 17.855469 C 12.977287 18.038368 12.865749 18.219158 12.759766 18.404297 C 12.705066 18.492887 12.636771 18.555311 12.550781 18.599609 C 11.847221 18.943568 11.198962 19.379945 10.544922 19.8125 C 10.219202 20.028777 9.9051436 20.25637 9.5898438 20.488281 C 9.1468734 20.811395 8.7105581 21.139778 8.2675781 21.462891 C 7.9548881 21.689592 7.640815 21.914577 7.328125 22.138672 C 7.302025 22.159522 7.2812875 22.179688 7.2421875 22.179688 L 7.2402344 22.179688 C 7.2352344 22.130177 7.2623906 22.097028 7.2753906 22.060547 C 7.6271606 21.247553 8.0622175 20.486785 8.5234375 19.736328 C 9.1071275 18.798258 9.6910537 17.86841 10.277344 16.927734 C 10.496224 16.573352 10.710173 16.208559 10.908203 15.835938 C 10.923803 15.809876 10.936878 15.774761 10.955078 15.738281 C 10.939478 15.727861 10.92185 15.726562 10.90625 15.726562 C 10.88285 15.726562 10.858691 15.733628 10.837891 15.736328 C 9.6861877 15.861407 8.5391106 16.033736 7.4003906 16.226562 C 5.7222906 16.510589 4.0531 16.82731 2.375 17.095703 C 2.05449 17.147823 1.7339231 17.192673 1.4082031 17.242188 C 1.3978031 17.242188 1.3881 17.248047 1.375 17.248047 C 1.3594 17.248047 1.3411115 17.242242 1.3203125 17.226562 C 4.2804425 15.63966 7.2533549 14.105042 10.296875 12.664062 C 10.158775 12.570253 10.036532 12.490287 9.9140625 12.404297 C 8.8066119 11.685064 7.6270163 11.101257 6.4414062 10.533203 C 5.4824863 10.071985 4.518795 9.625304 3.578125 9.125 C 3.518225 9.09113 3.4564144 9.0579644 3.3964844 9.0214844 C 3.4120844 9.0006344 3.4271125 8.9941406 3.4453125 8.9941406 C 3.4583125 8.9941406 3.4752813 8.9974 3.4882812 9 C 4.3143112 9.06775 5.1342756 9.1887196 5.9472656 9.3242188 C 7.4768456 9.5743705 8.9912565 9.8735823 10.523438 10.066406 C 10.546836 10.069006 10.574803 10.082031 10.595703 10.082031 C 10.608703 10.082031 10.621106 10.079436 10.628906 10.066406 C 10.649706 10.027316 10.603478 9.9961174 10.580078 9.9648438 C 10.095418 9.3707322 9.6025194 8.7822494 9.0996094 8.2089844 C 8.4012694 7.4064134 7.6859944 6.6209124 6.9589844 5.8496094 C 5.9401444 4.7734344 4.9224975 3.7044284 3.8984375 2.6308594 C 3.7863975 2.5136004 3.6752119 2.3920112 3.5449219 2.2539062 C 3.6465419 2.2747564 3.705695 2.3189852 3.765625 2.3554688 C 4.906945 3.0199356 6.0130119 3.7358766 7.1074219 4.4785156 C 8.6005219 5.4947586 10.09283 6.5195606 11.59375 7.5410156 C 11.91425 7.7598986 12.245239 7.9705701 12.568359 8.1894531 C 12.594359 8.2076931 12.615906 8.21875 12.628906 8.21875 C 12.655006 8.21875 12.666688 8.1946981 12.679688 8.1425781 C 12.768287 7.7517161 12.734386 7.3609134 12.679688 6.9726562 C 12.601487 6.4801693 12.456429 6.0042057 12.380859 5.5117188 C 12.253179 4.7430217 12.147204 3.974428 12.027344 3.203125 C 11.946544 2.681975 11.860074 2.1624279 11.771484 1.6386719 C 11.766484 1.6047919 11.7604 1.5677409 11.75 1.5078125 C 11.86465 1.5781625 11.914672 1.6789831 11.982422 1.7675781 C 12.430612 2.3486611 12.859774 2.9468956 13.271484 3.5566406 C 13.732704 4.2315306 14.18463 4.9168979 14.625 5.6074219 C 14.6875 5.7116519 14.764928 5.8065791 14.830078 5.9082031 C 14.848278 5.9394731 14.863306 5.9511719 14.878906 5.9511719 C 14.897106 5.9511719 14.915394 5.9336138 14.933594 5.9023438 C 15.113384 5.6443746 15.275946 5.3790717 15.429688 5.1054688 C 15.815328 4.4097323 16.13781 3.6840266 16.5 2.9726562 C 16.75537 2.4697465 17.029087 1.9742325 17.373047 1.5234375 C 17.425147 1.4661075 17.472607 1.4049823 17.527344 1.3476562 C 17.542944 1.3398562 17.554091 1.3027344 17.587891 1.3027344 z M 25.054688 5.2558594 L 25.056641 5.2558594 L 25.261719 5.2558594 C 25.811529 5.2636594 26.355781 5.3078989 26.900391 5.3886719 C 28.461231 5.6257959 29.909973 6.1648967 31.283203 6.9335938 C 31.767496 7.2051633 32.23631 7.498517 32.689453 7.8144531 C 32.691376 7.8157933 32.69339 7.8170184 32.695312 7.8183594 C 33.147881 8.1341635 33.585519 8.4713464 34.009766 8.828125 C 34.011868 8.8298914 34.013523 8.832217 34.015625 8.8339844 C 34.095238 8.9026221 34.148972 8.9758241 34.121094 9.0898438 C 34.102894 9.1680138 34.102297 9.2512524 34.091797 9.3320312 C 34.000597 10.022555 33.884858 10.707918 33.736328 11.390625 C 33.553928 12.245311 33.354355 13.097158 33.046875 13.917969 C 32.955675 14.170727 32.864605 14.424967 32.828125 14.693359 C 32.812525 14.836675 32.75783 14.958923 32.65625 15.060547 C 32.57285 15.143927 32.508494 15.24082 32.458984 15.347656 C 32.359984 15.540481 32.27608 15.738806 32.21875 15.947266 C 32.08326 16.468417 31.81796 16.900829 31.40625 17.25 C 30.87728 17.698189 30.431883 18.224915 30.033203 18.792969 C 29.762203 19.17862 29.467019 19.554507 29.099609 19.851562 C 28.802549 20.093898 28.501424 20.327263 28.308594 20.673828 C 28.287199 20.71284 28.267948 20.724949 28.248047 20.722656 C 28.227918 20.717832 28.208046 20.704979 28.185547 20.675781 C 28.006302 20.451724 27.820316 20.235885 27.619141 20.037109 C 27.423096 19.842662 27.210057 19.665212 26.974609 19.511719 C 26.971068 19.50941 26.968396 19.506203 26.964844 19.503906 C 26.805894 19.402281 26.645933 19.318406 26.476562 19.240234 C 26.434863 19.219384 26.389339 19.212216 26.355469 19.253906 C 26.321569 19.292996 26.342281 19.329409 26.363281 19.363281 C 26.384081 19.397151 26.407581 19.432917 26.425781 19.466797 C 26.503981 19.602296 26.587199 19.736247 26.667969 19.869141 C 26.613269 19.861341 26.57295 19.837256 26.53125 19.816406 C 26.48695 19.792956 26.436878 19.757787 26.392578 19.804688 C 26.350878 19.848987 26.382203 19.901013 26.408203 19.945312 C 26.483803 20.07039 26.555959 20.195232 26.605469 20.328125 C 26.641969 20.419325 26.679041 20.510356 26.681641 20.609375 C 26.681641 20.629481 26.673092 20.637594 26.667969 20.650391 C 26.661167 20.662945 26.657497 20.679824 26.644531 20.683594 C 26.627755 20.690805 26.608019 20.692717 26.578125 20.681641 C 26.489207 20.653698 26.417765 20.601104 26.341797 20.542969 C 26.20056 20.434107 26.086822 20.299409 25.978516 20.160156 C 25.976079 20.157443 25.973159 20.157031 25.970703 20.154297 C 25.970018 20.153534 25.969437 20.153105 25.96875 20.152344 C 25.949077 20.129415 25.927791 20.111613 25.902344 20.105469 C 25.887304 20.101837 25.871905 20.097777 25.851562 20.111328 C 25.799463 20.145198 25.815037 20.192032 25.835938 20.236328 C 25.877637 20.314498 25.915361 20.392531 25.957031 20.470703 C 26.045238 20.644514 26.135763 20.822251 26.226562 20.996094 C 26.13123 20.93531 26.048089 20.862919 25.96875 20.791016 C 25.967513 20.789931 25.966108 20.790109 25.964844 20.789062 C 25.962487 20.78693 25.959383 20.785334 25.957031 20.783203 C 25.954598 20.781177 25.951654 20.783179 25.949219 20.78125 C 25.933429 20.771105 25.916957 20.759766 25.902344 20.759766 C 25.89489 20.759766 25.885758 20.763565 25.876953 20.767578 C 25.869329 20.769383 25.863728 20.758172 25.855469 20.763672 C 25.816369 20.789732 25.806019 20.827445 25.824219 20.869141 C 25.832219 20.892591 25.843016 20.914707 25.853516 20.935547 C 25.968176 21.219574 26.093033 21.497218 26.189453 21.789062 C 26.202453 21.825543 26.242225 21.874985 26.203125 21.898438 C 26.188275 21.907035 26.178728 21.89726 26.167969 21.892578 C 26.147935 21.877651 26.128327 21.858686 26.113281 21.841797 C 25.969961 21.690664 25.834716 21.536551 25.691406 21.382812 C 25.689629 21.381037 25.687321 21.380711 25.685547 21.378906 C 25.684184 21.377519 25.683004 21.376396 25.681641 21.375 C 25.654823 21.348189 25.624895 21.326755 25.591797 21.318359 C 25.590018 21.318222 25.589711 21.314453 25.587891 21.314453 C 25.584472 21.314453 25.579976 21.317839 25.576172 21.318359 C 25.562026 21.317914 25.549578 21.310076 25.533203 21.320312 C 25.473303 21.359403 25.508484 21.417285 25.521484 21.466797 C 25.55238 21.567107 25.60037 21.658636 25.619141 21.78125 C 25.600012 21.766822 25.584445 21.754314 25.572266 21.744141 C 25.568353 21.741207 25.56427 21.739609 25.560547 21.736328 C 25.55983 21.735762 25.559304 21.734955 25.558594 21.734375 C 25.526453 21.708122 25.496903 21.679963 25.460938 21.666016 C 25.456425 21.665118 25.454104 21.658203 25.449219 21.658203 C 25.442719 21.658203 25.435866 21.660806 25.429688 21.662109 C 25.41928 21.662645 25.412872 21.652793 25.400391 21.658203 C 25.324791 21.694683 25.355469 21.776653 25.355469 21.841797 C 25.355469 21.849597 25.363281 21.860674 25.363281 21.871094 L 25.363281 22.226562 C 25.294936 22.109996 25.241167 22.011633 25.1875 21.914062 C 25.175365 21.891257 25.16061 21.870205 25.142578 21.853516 C 25.133003 21.84171 25.117796 21.838794 25.103516 21.833984 C 25.099629 21.832675 25.096169 21.83065 25.091797 21.830078 C 25.085238 21.829221 25.082035 21.823152 25.074219 21.824219 C 25.019519 21.832019 25.008434 21.883434 24.990234 21.927734 C 24.977234 21.964214 24.970131 22.003886 24.957031 22.042969 C 24.917206 22.169886 24.879743 22.293609 24.837891 22.417969 C 24.769277 21.814611 24.639772 21.226543 24.480469 20.648438 C 24.474276 20.622057 24.465421 20.595796 24.451172 20.576172 C 24.448023 20.570626 24.439796 20.570708 24.435547 20.566406 C 24.427321 20.560712 24.423206 20.550781 24.410156 20.550781 L 24.400391 20.550781 C 24.395575 20.550473 24.3943 20.546142 24.388672 20.546875 C 24.323572 20.554675 24.318359 20.611943 24.318359 20.664062 C 24.315359 20.747442 24.315359 20.830026 24.318359 20.916016 C 24.323359 21.101024 24.306691 21.286347 24.275391 21.46875 C 24.244849 21.659445 24.185981 21.840909 24.083984 22.021484 C 24.041211 21.937448 24.017448 21.859505 23.998047 21.779297 C 23.987647 21.732397 23.990134 21.672532 23.927734 21.662109 C 23.926326 21.662109 23.925235 21.662309 23.923828 21.662109 C 23.920618 21.661179 23.921604 21.656857 23.917969 21.65625 C 23.913553 21.655269 23.912234 21.658599 23.908203 21.658203 C 23.9077 21.658148 23.906708 21.658203 23.90625 21.658203 C 23.903742 21.658203 23.902734 21.659931 23.900391 21.660156 C 23.847531 21.660778 23.824584 21.707186 23.796875 21.744141 C 23.726034 21.850347 23.64802 21.957251 23.5625 22.080078 C 23.549504 22.036267 23.538144 22.004199 23.53125 21.976562 C 23.48955 21.783738 23.451826 21.588009 23.410156 21.392578 C 23.401492 21.354123 23.382538 21.355604 23.369141 21.335938 C 23.356363 21.309888 23.34341 21.278655 23.324219 21.273438 C 23.321709 21.273438 23.317072 21.277088 23.314453 21.277344 C 23.28734 21.273929 23.257739 21.278816 23.212891 21.310547 C 23.126891 21.370477 23.034559 21.405571 22.943359 21.447266 C 22.925909 21.455478 22.912428 21.457269 22.900391 21.457031 C 22.888859 21.451963 22.876953 21.447541 22.876953 21.419922 L 22.876953 20.740234 C 22.911173 20.773601 22.934266 20.808085 22.953125 20.845703 C 22.953948 20.847352 22.956185 20.846073 22.957031 20.847656 C 22.958056 20.849679 22.959917 20.851481 22.960938 20.853516 C 22.979138 20.887386 23.003856 20.908203 23.035156 20.908203 C 23.043156 20.908203 23.050694 20.90885 23.058594 20.90625 C 23.110694 20.89322 23.113281 20.852237 23.113281 20.810547 C 23.100281 20.542154 23.081359 20.269692 23.068359 20.003906 C 23.06375 19.965473 23.067724 19.927099 23.068359 19.888672 C 23.179122 20.053764 23.27527 20.221807 23.369141 20.386719 C 23.491611 20.602996 23.615811 20.822786 23.738281 21.039062 C 23.756317 21.067871 23.779813 21.087496 23.808594 21.09375 C 23.815498 21.096618 23.818425 21.109375 23.826172 21.109375 C 23.834172 21.109375 23.846922 21.106762 23.857422 21.101562 C 23.914722 21.078112 23.907531 21.028026 23.894531 20.978516 C 23.889531 20.962886 23.884106 20.949881 23.878906 20.931641 C 23.714736 20.407885 23.550232 19.88769 23.388672 19.361328 C 23.381697 19.340883 23.373628 19.320161 23.386719 19.294922 C 23.555448 19.555473 23.727122 19.814827 23.890625 20.070312 C 23.907269 20.094079 23.923932 20.121333 23.943359 20.142578 C 23.94808 20.14774 23.953771 20.148309 23.958984 20.152344 C 23.972764 20.165652 23.986396 20.179688 24.005859 20.179688 C 24.016259 20.179688 24.029969 20.175789 24.042969 20.167969 C 24.118569 20.131489 24.073634 20.059927 24.052734 20.007812 C 23.896394 19.520537 23.743591 19.031545 23.582031 18.546875 C 23.514512 18.331176 23.441279 18.115973 23.371094 17.884766 C 23.417586 17.903714 23.45204 17.923878 23.494141 17.943359 C 23.585055 17.985855 23.677713 18.028222 23.755859 18.076172 C 23.842447 18.125549 23.923202 18.184796 24.005859 18.240234 C 24.070479 18.284064 24.138247 18.32263 24.201172 18.369141 C 24.347123 18.47702 24.489497 18.591728 24.632812 18.705078 C 24.65697 18.723193 24.682368 18.739133 24.708984 18.746094 C 24.717124 18.749305 24.72351 18.759766 24.732422 18.759766 C 24.748022 18.759766 24.763697 18.754581 24.779297 18.744141 C 24.833997 18.705051 24.805969 18.651721 24.792969 18.607422 C 24.722569 18.383328 24.587339 18.200619 24.417969 18.039062 C 24.324169 17.950473 24.219472 17.875061 24.107422 17.773438 C 24.151722 17.778637 24.172559 17.782536 24.193359 17.785156 C 24.537319 17.839876 24.850738 17.966692 25.142578 18.138672 C 25.238763 18.193209 25.330233 18.250722 25.423828 18.306641 C 25.5727 18.396567 25.722569 18.485517 25.873047 18.574219 C 25.876075 18.575972 25.879762 18.576296 25.882812 18.578125 C 25.907139 18.592713 25.931735 18.606681 25.957031 18.611328 C 25.964361 18.613476 25.97089 18.621094 25.978516 18.621094 C 25.996716 18.621094 26.017603 18.612657 26.033203 18.591797 C 26.061832 18.560294 26.056175 18.534395 26.041016 18.509766 C 26.030415 18.488802 26.01111 18.47005 25.994141 18.451172 C 25.992384 18.449045 25.990042 18.447436 25.988281 18.445312 C 25.805037 18.223346 25.595923 18.022852 25.369141 17.841797 C 25.366967 17.840062 25.365458 17.837669 25.363281 17.835938 C 24.946361 17.505008 24.478796 17.242339 24.009766 16.992188 C 23.830442 16.897403 23.65008 16.801813 23.470703 16.707031 C 23.504072 16.68869 23.525407 16.684126 23.552734 16.681641 C 23.899294 16.673841 24.245884 16.669929 24.589844 16.662109 C 24.649744 16.662109 24.712858 16.653672 24.767578 16.632812 C 24.798878 16.622393 24.832031 16.612002 24.832031 16.570312 C 24.832031 16.566285 24.826732 16.567935 24.826172 16.564453 C 24.826172 16.52418 24.794453 16.515483 24.767578 16.505859 C 24.764891 16.504897 24.764319 16.500947 24.761719 16.5 C 24.738219 16.4948 24.714906 16.489595 24.691406 16.484375 C 24.4568 16.438794 24.220361 16.417923 23.984375 16.388672 C 23.815709 16.366599 23.647786 16.335185 23.478516 16.320312 C 23.477868 16.320256 23.47721 16.320369 23.476562 16.320312 C 23.468795 16.319691 23.460894 16.320919 23.453125 16.320312 C 23.078151 16.288143 22.701996 16.269531 22.324219 16.269531 C 22.305798 16.269531 22.287892 16.269494 22.269531 16.269531 C 22.521767 16.170146 22.773068 16.076551 23.021484 15.994141 C 23.164804 15.944631 23.307854 15.902374 23.458984 15.855469 L 23.691406 15.785156 C 23.869202 15.731045 24.021369 15.636474 24.154297 15.521484 C 24.239619 15.50888 24.325589 15.495942 24.408203 15.484375 C 24.449903 15.479175 24.488281 15.459666 24.488281 15.410156 C 24.488281 15.380995 24.47468 15.363022 24.455078 15.351562 C 24.436691 15.336428 24.412378 15.327181 24.388672 15.324219 C 24.37147 15.323146 24.354686 15.32295 24.337891 15.322266 C 24.42652 15.205662 24.503423 15.080302 24.548828 14.939453 C 24.835468 14.874313 25.120274 14.800838 25.396484 14.707031 C 25.657054 14.615831 25.980936 14.485827 26.291016 14.238281 C 26.321804 14.215503 26.346321 14.185494 26.375 14.160156 C 26.495287 14.128989 26.615465 14.097599 26.734375 14.066406 C 26.783875 14.053376 26.825513 14.02607 26.820312 13.96875 C 26.819497 13.962642 26.814123 13.96374 26.8125 13.958984 C 26.812415 13.958183 26.812601 13.957809 26.8125 13.957031 C 26.806681 13.912302 26.774807 13.90625 26.744141 13.90625 L 26.710938 13.90625 C 26.684838 13.90625 26.661525 13.907556 26.640625 13.910156 C 26.622394 13.912911 26.604163 13.915207 26.585938 13.917969 C 26.729639 13.709623 26.822266 13.463991 26.822266 13.193359 C 26.822266 12.474171 26.244581 11.890625 25.525391 11.890625 L 25.511719 11.890625 L 25.453125 11.890625 L 25.449219 11.890625 C 25.420519 11.890625 25.393934 11.893236 25.365234 11.898438 L 25.349609 11.898438 C 25.216719 11.898438 25.086008 11.915339 24.960938 11.949219 C 24.848888 11.917949 24.733141 11.900391 24.613281 11.900391 C 24.478819 11.900391 24.347016 11.891072 24.214844 11.884766 C 24.222443 11.882756 24.228749 11.877077 24.236328 11.875 C 24.40771 11.828019 24.571926 11.758282 24.728516 11.669922 C 24.787814 11.636784 24.845894 11.602561 24.902344 11.5625 C 24.933784 11.540009 24.965636 11.518917 24.996094 11.494141 C 25.104608 11.406459 25.208859 11.309308 25.302734 11.189453 C 25.303079 11.188997 25.30239 11.187956 25.302734 11.1875 C 25.448023 10.994985 25.533974 10.77238 25.601562 10.541016 C 25.705793 10.176211 25.790913 9.8035916 25.970703 9.4648438 C 25.971298 9.4636505 25.97013 9.4621396 25.970703 9.4609375 C 25.980797 9.4407056 25.987689 9.419767 25.986328 9.4003906 C 25.986281 9.3998991 25.986386 9.3989267 25.986328 9.3984375 C 25.984441 9.379066 25.972029 9.3625539 25.947266 9.3496094 C 25.946652 9.3492888 25.947896 9.3479711 25.947266 9.3476562 C 25.934266 9.3424564 25.922609 9.3398438 25.912109 9.3398438 C 25.907037 9.3398438 25.905045 9.3482053 25.900391 9.3496094 C 25.895788 9.3511617 25.88892 9.3467594 25.884766 9.3496094 C 25.871567 9.3586642 25.861284 9.3756088 25.851562 9.3925781 C 25.848933 9.3972438 25.844098 9.3973786 25.841797 9.4023438 C 25.732357 9.6081976 25.651747 9.8234392 25.560547 10.037109 C 25.511047 10.154368 25.463199 10.273471 25.408203 10.388672 C 25.407945 10.389209 25.408462 10.390088 25.408203 10.390625 C 25.353395 10.505291 25.290734 10.615636 25.216797 10.720703 C 25.216469 10.721169 25.217125 10.72219 25.216797 10.722656 C 25.131013 10.851116 25.033932 10.964035 24.919922 11.056641 C 24.805538 11.14955 24.673271 11.221325 24.519531 11.269531 C 24.193811 11.373761 23.877163 11.515597 23.533203 11.5625 C 23.518568 11.565425 23.504546 11.564292 23.490234 11.566406 C 23.430182 11.573362 23.371479 11.57565 23.314453 11.574219 C 23.194237 11.571057 23.080062 11.546141 22.974609 11.5 C 22.932351 11.481523 22.890861 11.459749 22.851562 11.433594 C 22.831136 11.419975 22.810596 11.408354 22.791016 11.392578 C 22.730395 11.343834 22.673066 11.287459 22.621094 11.216797 C 22.620507 11.215999 22.619727 11.215645 22.619141 11.214844 C 22.618561 11.21407 22.61777 11.213673 22.617188 11.212891 C 22.596888 11.185853 22.573183 11.162891 22.544922 11.154297 C 22.540282 11.152945 22.538217 11.144531 22.533203 11.144531 C 22.522803 11.144531 22.509094 11.146477 22.496094 11.154297 C 22.495002 11.154934 22.495178 11.155601 22.494141 11.15625 C 22.431641 11.19273 22.458734 11.247364 22.490234 11.296875 C 22.544798 11.39345 22.608371 11.473409 22.677734 11.544922 C 22.726614 11.598886 22.78192 11.642732 22.837891 11.685547 C 22.844072 11.690225 22.849227 11.696586 22.855469 11.701172 C 22.596798 11.641781 22.341483 11.574347 22.095703 11.488281 C 22.10047 11.45419 22.088765 11.420926 22.058594 11.394531 C 21.977844 11.313753 21.880212 11.229896 21.945312 11.099609 C 22.010452 10.961505 22.137273 10.899099 22.283203 10.880859 C 22.431723 10.862619 22.560482 10.910742 22.669922 11.017578 C 22.727242 11.072298 22.783191 11.129523 22.837891 11.189453 C 23.035931 11.426577 23.300599 11.522159 23.605469 11.480469 C 24.285569 11.386662 24.812967 11.068745 25.123047 10.435547 C 25.203837 10.266173 25.235706 10.086732 25.253906 9.8496094 C 25.201796 9.5056504 25.009936 9.1980705 24.728516 8.9453125 C 24.590416 8.8228415 24.423948 8.7480519 24.236328 8.7324219 C 24.210228 8.7324219 24.182997 8.7298219 24.154297 8.7324219 C 24.008357 8.7480559 24.007775 8.7481364 24.046875 8.5996094 C 24.091175 8.4484744 24.143784 8.4140375 24.302734 8.4609375 C 24.490354 8.5156585 24.632081 8.6412019 24.775391 8.7636719 C 24.929131 8.8965649 25.074124 9.0376953 25.246094 9.1445312 C 25.438924 9.2643966 25.645033 9.3287794 25.876953 9.3183594 C 25.910753 9.3157394 25.945262 9.3137935 25.976562 9.3085938 C 26.028712 9.2955637 26.09875 9.2930065 26.09375 9.2226562 C 26.09115 9.1522865 26.025403 9.1516844 25.970703 9.1464844 C 25.694493 9.1126104 25.486443 8.9538774 25.283203 8.7871094 C 25.124243 8.6568214 24.974714 8.5124376 24.802734 8.4003906 C 24.602084 8.2727066 24.393377 8.2298219 24.148438 8.2324219 C 23.653347 8.2350269 23.245689 8.4510199 22.849609 8.7011719 C 22.680239 8.8106129 22.511169 8.9231048 22.349609 9.0429688 C 21.997829 9.2983328 21.597891 9.4640869 21.207031 9.6386719 C 20.709684 9.8605967 20.232523 10.11797 19.765625 10.392578 C 19.762818 10.390517 19.758648 10.388785 19.755859 10.386719 C 19.635989 10.298119 19.53912 10.191468 19.4375 10.089844 C 19.4325 10.084644 19.350903 10.001314 19.345703 9.9960938 C 19.186753 9.8397488 19.020301 9.695394 18.837891 9.5625 C 18.475691 9.296714 18.035431 9.1484375 17.582031 9.1484375 C 17.416555 9.1484375 17.251702 9.1716935 17.085938 9.2109375 C 17.417331 8.52776 17.914343 7.9743798 18.498047 7.4921875 C 19.425697 6.7260975 20.471961 6.1629892 21.613281 5.7851562 C 22.171659 5.6002621 22.738345 5.468602 23.3125 5.3808594 C 23.315769 5.3803774 23.318997 5.3793854 23.322266 5.3789062 C 23.606455 5.3372478 23.892827 5.3077497 24.179688 5.2871094 C 24.469848 5.2662316 24.761543 5.2558594 25.054688 5.2558594 z M 15.695312 9.2246094 C 15.666849 9.3099542 15.624338 9.3937532 15.601562 9.4804688 C 15.55332 9.6593166 15.54935 9.8563005 15.576172 10.048828 L 15.496094 9.625 L 15.441406 9.34375 C 15.521801 9.3215128 15.609602 9.2697659 15.695312 9.2246094 z M 24.005859 9.2714844 C 24.038436 9.2659469 24.072266 9.2747287 24.103516 9.2929688 C 24.322396 9.4206508 24.486266 9.5962085 24.572266 9.8359375 C 24.598066 9.9010815 24.589172 9.9693606 24.576172 10.037109 C 24.539692 10.258598 24.414135 10.438039 24.296875 10.623047 L 24.298828 10.623047 C 24.124248 10.904468 23.860891 11.019544 23.519531 11.027344 C 23.339741 11.014315 23.146582 10.977291 22.982422 10.849609 C 22.823492 10.721928 22.787059 10.545031 22.880859 10.365234 C 22.893859 10.341784 22.900987 10.309241 22.929688 10.306641 C 22.968788 10.301431 22.971375 10.341784 22.984375 10.365234 C 23.075575 10.518973 23.216692 10.595691 23.388672 10.587891 C 23.696152 10.577468 24.074828 10.281431 24.173828 9.984375 C 24.246788 9.760281 24.173311 9.5892544 23.957031 9.4902344 C 23.858031 9.4433314 23.848862 9.4206212 23.914062 9.3320312 C 23.940117 9.2968515 23.973283 9.2770219 24.005859 9.2714844 z M 17.607422 10.455078 C 17.669025 10.457089 17.730586 10.469309 17.791016 10.486328 C 17.807794 10.491002 17.825131 10.492165 17.841797 10.498047 C 17.92148 10.526387 18.000485 10.566283 18.076172 10.623047 C 18.076172 10.623047 18.078125 10.623047 18.078125 10.623047 C 18.205329 10.714021 18.320598 10.817336 18.429688 10.923828 C 18.429688 10.923828 18.431641 10.923828 18.431641 10.923828 C 18.605886 11.1007 18.776307 11.283397 18.976562 11.431641 C 18.976562 11.431641 18.978516 11.431641 18.978516 11.431641 C 19.152701 11.561505 19.336308 11.674351 19.525391 11.775391 C 19.525391 11.775391 19.527344 11.775391 19.527344 11.775391 C 19.716424 11.876349 19.90993 11.966326 20.107422 12.050781 C 20.364092 12.162828 20.619634 12.282483 20.876953 12.396484 C 20.876953 12.396484 20.878906 12.396484 20.878906 12.396484 C 21.135681 12.510221 21.394286 12.619285 21.658203 12.712891 C 21.658203 12.712891 21.660156 12.712891 21.660156 12.712891 C 21.898651 12.796661 22.138637 12.870313 22.380859 12.931641 C 22.380859 12.931641 22.382812 12.931641 22.382812 12.931641 C 22.625026 12.992907 22.869619 13.044023 23.115234 13.083984 C 23.115234 13.083984 23.117188 13.083984 23.117188 13.083984 C 23.609051 13.163899 24.107772 13.201824 24.611328 13.203125 C 24.606328 13.205725 24.599597 13.208984 24.591797 13.208984 C 23.724087 13.323637 22.859246 13.482932 22.009766 13.714844 C 21.224131 13.929818 20.465933 14.19901 19.744141 14.542969 C 19.022823 14.886701 18.339215 15.305485 17.697266 15.814453 C 17.697266 15.814453 17.695312 15.814453 17.695312 15.814453 C 17.414274 16.038244 17.141782 16.276924 16.886719 16.529297 C 16.886719 16.529297 16.884766 16.529297 16.884766 16.529297 C 16.850866 16.563167 16.81245 16.600881 16.84375 16.650391 C 16.84375 16.650391 16.845703 16.650391 16.845703 16.650391 C 16.863594 16.675107 16.882039 16.6875 16.902344 16.6875 C 16.904351 16.6875 16.906198 16.685668 16.908203 16.685547 C 16.932985 16.686108 16.9582 16.675887 16.984375 16.662109 C 17.059975 16.617809 17.142533 16.5736 17.220703 16.529297 C 17.840873 16.164492 18.421515 15.74373 19.015625 15.347656 C 19.539385 15.001091 20.073866 14.681135 20.660156 14.441406 C 20.916826 14.335874 21.179116 14.251112 21.445312 14.173828 C 21.711509 14.096545 21.98161 14.026739 22.25 13.951172 C 22.488511 13.883767 22.725779 13.819629 22.966797 13.765625 C 23.209132 13.71123 23.452975 13.666685 23.703125 13.636719 C 24.021025 13.600239 24.344856 13.579469 24.660156 13.503906 C 24.662051 13.503456 24.664122 13.50436 24.666016 13.503906 C 24.851026 13.457006 25.050047 13.417402 25.185547 13.279297 C 25.240267 13.224576 25.294776 13.205394 25.349609 13.199219 C 25.402112 13.194039 25.455716 13.199645 25.509766 13.193359 C 25.353416 13.326252 25.168736 13.407512 24.978516 13.472656 C 24.527726 13.626395 24.058219 13.706965 23.599609 13.816406 C 23.422347 13.859104 23.245387 13.898629 23.072266 13.951172 C 22.896735 14.004446 22.724501 14.07089 22.564453 14.167969 C 22.543588 14.180243 22.523316 14.192443 22.505859 14.207031 C 22.486252 14.223417 22.470703 14.24173 22.470703 14.273438 C 22.470703 14.338577 22.531842 14.350254 22.576172 14.371094 C 22.690664 14.423734 22.8085 14.462501 22.931641 14.490234 C 23.052324 14.517414 23.17833 14.534567 23.308594 14.541016 C 23.064901 14.616201 22.834356 14.680782 22.611328 14.755859 C 22.610186 14.756244 22.608563 14.755475 22.607422 14.755859 C 21.320182 15.185808 20.105527 15.777579 18.935547 16.462891 C 18.437847 16.752129 17.962541 17.079912 17.457031 17.353516 C 17.154761 17.515073 16.847826 17.669799 16.566406 17.873047 C 16.209416 18.133623 15.951874 18.460013 15.871094 18.908203 C 15.803394 19.288642 15.813831 19.671643 15.832031 20.054688 C 15.842282 20.180539 15.852935 20.30677 15.863281 20.455078 C 15.825256 20.419075 15.805083 20.398786 15.783203 20.376953 C 15.426213 20.019965 15.136199 19.608998 14.912109 19.158203 C 14.234609 17.798001 14.020103 16.347921 14.158203 14.841797 C 14.223303 14.106975 14.463313 13.429416 14.851562 12.806641 C 15.242434 12.170838 15.747704 11.629859 16.302734 11.134766 C 16.565914 10.900249 16.852664 10.688891 17.183594 10.542969 C 17.203205 10.534379 17.22268 10.532827 17.242188 10.525391 C 17.343538 10.489856 17.441889 10.465908 17.539062 10.460938 C 17.561918 10.459647 17.584804 10.454427 17.607422 10.455078 z M 20.480469 10.787109 C 20.910743 10.838588 21.319615 10.972881 21.6875 11.259766 C 21.728443 11.291157 21.761385 11.329165 21.798828 11.363281 C 21.552588 11.263902 21.307064 11.162841 21.064453 11.052734 L 20.628906 10.857422 C 20.570331 10.831938 20.533331 10.811304 20.480469 10.787109 z M 16.767578 12.027344 C 16.758594 12.027344 16.749266 12.030616 16.740234 12.03125 C 16.71438 12.03267 16.688929 12.032007 16.662109 12.035156 C 16.615209 12.037756 16.572271 12.043573 16.556641 12.095703 C 16.550141 12.121763 16.555347 12.142748 16.566406 12.160156 C 16.566406 12.160156 16.566406 12.162109 16.566406 12.162109 C 16.577469 12.179698 16.594378 12.195303 16.611328 12.210938 C 17.028248 12.591378 17.522448 12.794894 18.080078 12.841797 C 18.155678 12.846997 18.225868 12.851555 18.298828 12.859375 C 18.353528 12.854175 18.41142 12.85418 18.46875 12.84375 C 18.55995 12.82551 18.580056 12.789768 18.541016 12.701172 C 18.470616 12.529192 18.339294 12.411513 18.177734 12.320312 C 18.045379 12.245051 17.905731 12.190405 17.763672 12.150391 C 17.763672 12.150391 17.761719 12.150391 17.761719 12.150391 C 17.619054 12.110327 17.472749 12.083997 17.324219 12.064453 C 17.152239 12.041003 16.970816 12.035164 16.791016 12.027344 L 16.767578 12.027344 z "
   id="path292" />
</svg>