<?xml version="1.0" encoding="UTF-8" standalone="no"?>
<!-- Generator: Adobe Illustrator 16.0.0, SVG Export Plug-In . SVG Version: 6.00 Build 0)  -->

<svg
   xmlns:dc="http://purl.org/dc/elements/1.1/"
   xmlns:cc="http://creativecommons.org/ns#"
   xmlns:rdf="http://www.w3.org/1999/02/22-rdf-syntax-ns#"
   xmlns:svg="http://www.w3.org/2000/svg"
   xmlns="http://www.w3.org/2000/svg"
   xmlns:sodipodi="http://sodipodi.sourceforge.net/DTD/sodipodi-0.dtd"
   xmlns:inkscape="http://www.inkscape.org/namespaces/inkscape"
   version="1.1"
   id="Fond"
   x="0px"
   y="0px"
   width="38.355595"
   height="23.36079"
   viewBox="0 0 38.355595 23.360791"
   enable-background="new 0 0 178.58 249.45"
   xml:space="preserve"
   sodipodi:docname="icon-book-stroke.svg"
   inkscape:version="0.92.0 r15299"><metadata
   id="metadata336"><rdf:RDF><cc:Work
       rdf:about=""><dc:format>image/svg+xml</dc:format><dc:type
         rdf:resource="http://purl.org/dc/dcmitype/StillImage" /><dc:title /></cc:Work></rdf:RDF></metadata><defs
   id="defs334">
	
	
	

		
		
		
		
			

		
			

		

		

	
			
			
		
				
				
				
				
				
				
				
				
				
				
				
				
				
				
				
				
				
				
				
				
				
				
				
				
				
				
				
				
				
				
				
				
				
				
				
				
				
				
				
				
				
				
				
				
				
				
				
				
				
				
				
				
				
				
				
			
				
				
			</defs><sodipodi:namedview
   pagecolor="#ffffff"
   bordercolor="#666666"
   borderopacity="1"
   objecttolerance="10"
   gridtolerance="10"
   guidetolerance="10"
   inkscape:pageopacity="0"
   inkscape:pageshadow="2"
   inkscape:window-width="1280"
   inkscape:window-height="961"
   id="namedview332"
   showgrid="false"
   inkscape:zoom="12.793025"
   inkscape:cx="-7.6512677"
   inkscape:cy="6.3234986"
   inkscape:window-x="1272"
   inkscape:window-y="-8"
   inkscape:window-maximized="1"
   inkscape:current-layer="Fond"
   fit-margin-top="0"
   fit-margin-left="0"
   fit-margin-right="0"
   fit-margin-bottom="0" />

<path
   style="display:inline;fill:#560f19;stroke-width:2.60575104"
   d="M 15.261719 0 C 14.894309 0 14.523018 0.029284375 14.142578 0.083984375 C 13.683968 0.15178437 13.229438 0.23627562 12.773438 0.32226562 C 12.369537 0.39786563 11.959881 0.4765225 11.550781 0.5390625 C 10.925401 0.6354625 10.279669 0.734375 9.6621094 0.734375 L 9.6582031 0.734375 C 9.1657231 0.734375 8.7248694 0.75644375 8.2871094 0.77734375 L 7.8691406 0.79492188 C 7.7258306 0.79992188 7.5847263 0.80859375 7.4414062 0.80859375 C 7.3006962 0.80859375 7.1615375 0.80364375 7.0234375 0.77734375 C 6.9452375 0.76434375 6.7910706 0.74804688 6.7128906 0.74804688 C 6.5513406 0.74804688 6.3874756 0.77994375 6.2285156 0.83984375 C 6.0252756 0.86064375 5.8060887 0.93287687 5.6367188 1.0292969 C 5.4412888 1.1465569 5.283945 1.2271769 5.140625 1.2792969 C 5.091125 1.2762969 5.0436606 1.2734375 4.9941406 1.2734375 L 4.96875 1.2734375 L 4.7265625 1.2773438 L 4.5332031 1.2773438 L 4.3730469 1.2773438 L 4.3710938 1.2773438 C 3.8004337 1.2773438 3.4825244 1.4953344 3.3027344 1.6777344 C 3.0577944 1.9278844 2.9121019 2.3591575 2.9199219 2.7109375 L 2.9199219 4.9042969 L 2.4082031 4.9199219 L 1.7460938 4.9414062 C 1.1884637 4.9544062 0.84319313 5.2479419 0.68945312 5.4199219 C 0.59565313 5.5085219 0.41806125 5.6906094 0.26953125 5.9433594 C -0.23858875 6.8188994 0.096691875 7.5083019 0.26367188 7.7636719 C 0.66496188 8.3629919 1.18451 8.6601562 1.8125 8.6601562 L 2.5957031 8.65625 L 2.90625 8.65625 L 2.9980469 8.65625 C 2.9950469 10.76951 2.9950469 12.879574 2.9980469 14.990234 L 1.7734375 14.990234 C 1.3929975 14.990234 1.0464106 15.128751 0.74414062 15.394531 C 0.11876062 15.975611 -0.02756375 16.790548 0.34765625 17.548828 C 0.51963625 18.197658 1.0848681 18.628906 1.7675781 18.628906 C 2.1506181 18.625906 2.5368819 18.623047 2.9199219 18.623047 L 2.9199219 20.914062 C 2.9169219 21.101682 2.9123338 21.577883 3.3085938 21.976562 C 3.5535338 22.224113 3.9437988 22.373047 4.2929688 22.373047 L 17.189453 22.373047 C 17.351013 22.550237 17.507051 22.706297 17.681641 22.841797 C 18.140251 23.193577 18.598001 23.361328 19.087891 23.361328 C 19.106091 23.361328 19.138622 23.360422 19.169922 23.357422 C 19.198622 23.357422 19.223253 23.361328 19.251953 23.361328 C 19.739223 23.361328 20.205465 23.194221 20.640625 22.863281 C 20.825635 22.719971 20.995347 22.556096 21.154297 22.378906 L 27.345703 22.373047 L 33.970703 22.378906 C 34.817573 22.378906 35.431641 21.766135 35.431641 20.921875 L 35.427734 18.849609 L 35.425781 18.623047 L 35.449219 18.623047 L 36.617188 18.626953 C 37.268628 18.626953 37.799974 18.278346 38.052734 17.697266 C 38.097034 17.590426 38.134758 17.502645 38.173828 17.421875 C 38.421378 16.931995 38.35698 16.335566 38 15.884766 C 37.9323 15.803966 37.876988 15.732459 37.830078 15.662109 C 37.582538 15.253009 37.113609 14.988281 36.574219 14.988281 L 35.373047 14.992188 L 35.357422 14.992188 C 35.360422 12.878927 35.360422 10.767567 35.357422 8.6542969 C 35.717012 8.6542969 36.072051 8.6541094 36.431641 8.6621094 C 36.874621 8.6621094 37.463237 8.5374794 37.960938 7.9433594 C 38.341378 7.4821494 38.451284 6.9059356 38.271484 6.3535156 C 38.102114 5.8453856 37.789213 5.5222687 37.539062 5.2929688 C 37.301943 5.0792887 36.915556 4.9381469 36.597656 4.9355469 L 35.783203 4.9101562 L 35.433594 4.9003906 L 35.433594 2.6953125 C 35.433594 1.8823225 34.83121 1.2695312 34.03125 1.2695312 L 33.974609 1.2695312 L 33.71875 1.2734375 L 33.388672 1.2695312 L 33.384766 1.2695312 C 33.330066 1.2695312 33.274776 1.2723437 33.222656 1.2773438 C 33.068926 1.2304438 32.897881 1.1315587 32.744141 1.0429688 C 32.598211 0.95436875 32.399854 0.8828325 32.214844 0.8515625 C 32.042864 0.7759625 31.856238 0.73632812 31.673828 0.73632812 C 31.590428 0.73632812 31.472052 0.747325 31.388672 0.765625 C 31.227112 0.799525 31.062597 0.8125 30.898438 0.8125 L 30.75 0.80859375 C 30.41125 0.79039375 30.057505 0.77016562 29.703125 0.75976562 L 29.140625 0.74804688 C 28.890475 0.74504687 28.644681 0.74141563 28.394531 0.72851562 C 27.644071 0.69201563 26.887211 0.55867875 26.082031 0.41796875 L 25.775391 0.36328125 C 25.577351 0.32938125 25.384893 0.29294625 25.189453 0.25390625 C 24.725633 0.16270625 24.249666 0.069683125 23.728516 0.033203125 C 23.496606 0.015003125 23.256661 0.00390625 23.019531 0.00390625 C 22.547891 0.00390625 22.117435 0.04552625 21.703125 0.12890625 C 20.838015 0.30609625 20.009614 0.64422625 19.183594 1.1601562 C 17.951074 0.39146625 16.630386 0.004553125 15.259766 0.001953125 L 15.261719 0 z M 15.332031 1.3085938 C 15.593282 1.3117201 15.852026 1.3301119 16.105469 1.3671875 C 16.144087 1.372843 16.182262 1.3802886 16.220703 1.3867188 C 16.458544 1.4264868 16.692541 1.4816115 16.923828 1.5507812 C 16.956151 1.5604359 16.989286 1.5679026 17.021484 1.578125 C 17.252295 1.6514991 17.478522 1.7455147 17.703125 1.8476562 C 18.010267 1.9874177 18.315023 2.1452644 18.611328 2.3378906 C 18.877108 2.5098706 18.975913 2.6866456 18.970703 3.0097656 C 18.960303 8.5574056 18.964844 14.104704 18.964844 19.652344 L 18.964844 19.835938 C 18.751174 19.718677 18.538866 19.61041 18.328125 19.511719 C 18.117931 19.413334 17.907774 19.323408 17.693359 19.244141 C 17.086219 19.020041 16.461323 18.886751 15.820312 18.832031 C 15.585793 18.811131 15.347801 18.802734 15.113281 18.802734 C 15.044769 18.802734 14.97662 18.813096 14.908203 18.814453 C 14.548903 18.821776 14.18945 18.841474 13.830078 18.871094 C 13.789677 18.874369 13.749421 18.873582 13.708984 18.876953 C 13.333754 18.913453 12.967027 18.928331 12.591797 18.957031 C 12.172277 18.998731 11.755467 19.048793 11.335938 19.095703 C 11.26796 19.103349 11.199017 19.108097 11.130859 19.115234 C 10.86763 19.14308 10.604012 19.167178 10.339844 19.183594 C 10.206798 19.192006 10.07438 19.192588 9.9414062 19.197266 C 9.6706865 19.206563 9.399907 19.214438 9.1289062 19.205078 C 9.1081341 19.20436 9.0872575 19.20387 9.0664062 19.203125 C 8.7485063 19.187525 8.4344406 19.132133 8.1191406 19.095703 C 7.8481506 19.059203 7.573085 19.029297 7.296875 19.029297 L 7.2753906 19.029297 C 7.1555306 19.029297 7.1152344 18.980566 7.1152344 18.847656 C 7.0813344 17.305056 7.0429462 15.763296 7.0039062 14.228516 C 6.9804062 13.316496 6.9577406 12.400291 6.9316406 11.488281 C 6.8977406 10.245341 6.8587056 9.0053156 6.8222656 7.7597656 C 6.7988656 7.0197356 6.7805656 6.2777963 6.7597656 5.5351562 C 6.7258656 4.4172863 6.6887812 3.3001675 6.6445312 2.1796875 C 6.6407662 2.1070981 6.6563359 2.0764184 6.6875 2.0625 C 6.709977 2.0548166 6.7333444 2.0496385 6.7832031 2.0585938 C 6.9959817 2.0982391 7.2094005 2.1089452 7.4238281 2.109375 C 7.4309983 2.1094035 7.4381423 2.1113281 7.4453125 2.1113281 C 7.6049197 2.1113281 7.7642306 2.1026659 7.9238281 2.0976562 C 7.9257778 2.0975763 7.9277379 2.0977365 7.9296875 2.0976562 C 8.4899275 2.0741563 9.0504413 2.0390625 9.6132812 2.0390625 L 9.6425781 2.0390625 L 9.6679688 2.0390625 C 10.371519 2.0390625 11.061433 1.934955 11.751953 1.828125 C 12.620362 1.6955168 13.470831 1.5013711 14.333984 1.3710938 C 14.335938 1.3708085 14.33789 1.3713772 14.339844 1.3710938 C 14.617724 1.3313952 14.893764 1.3148956 15.166016 1.3105469 C 15.221471 1.3097356 15.276938 1.3078899 15.332031 1.3085938 z M 22.828125 1.3144531 C 23.098541 1.3062194 23.369618 1.3164612 23.640625 1.3378906 C 24.286845 1.3847906 24.915631 1.5448569 25.556641 1.6542969 C 26.473861 1.8132469 27.397218 1.9882562 28.330078 2.0351562 C 28.775658 2.0584562 29.221739 2.0534063 29.662109 2.0664062 C 30.008669 2.0768063 30.351999 2.0989875 30.693359 2.1171875 C 30.728965 2.1189066 30.763409 2.1163055 30.798828 2.1171875 C 30.833016 2.1180171 30.867474 2.1191406 30.900391 2.1191406 C 30.914396 2.1191406 30.927463 2.1153787 30.941406 2.1152344 C 31.177899 2.1132605 31.412858 2.0970823 31.642578 2.0507812 C 31.681802 2.0423058 31.693412 2.0530165 31.703125 2.0644531 C 31.706234 2.0687567 31.715533 2.0686431 31.716797 2.0742188 C 31.721226 2.0915414 31.716797 2.1133847 31.716797 2.1347656 C 31.708897 2.4135756 31.699853 2.68993 31.689453 2.96875 C 31.679053 3.32573 31.665991 3.6801294 31.650391 4.0371094 C 31.603491 5.5041494 31.557972 6.9711169 31.513672 8.4355469 C 31.480657 9.6576492 31.451568 10.882174 31.414062 12.099609 C 31.413042 12.132716 31.413145 12.166123 31.412109 12.199219 C 31.412109 12.199219 31.412109 12.201172 31.412109 12.201172 C 31.388618 13.172463 31.36073 14.14003 31.339844 15.111328 C 31.311144 16.158838 31.292372 17.208349 31.263672 18.255859 C 31.258672 18.464319 31.241441 18.66654 31.244141 18.875 C 31.244141 18.875 31.244141 18.876953 31.244141 18.876953 C 31.244525 18.887909 31.237082 18.890743 31.236328 18.900391 C 31.229774 18.991566 31.177396 19.032592 31.076172 19.037109 C 30.614952 19.063209 30.157182 19.102771 29.701172 19.175781 C 29.396302 19.227881 29.075056 19.206397 28.759766 19.216797 L 28.71875 19.216797 C 28.7129 19.216811 28.707022 19.216794 28.701172 19.216797 C 28.500242 19.216797 28.298526 19.199083 28.097656 19.1875 C 27.59183 19.158412 27.086515 19.110657 26.583984 19.050781 C 26.104524 18.996081 25.627898 18.958355 25.148438 18.921875 C 24.562137 18.874975 23.984081 18.820318 23.400391 18.804688 C 23.335291 18.801687 23.264359 18.802734 23.199219 18.802734 C 23.020461 18.802734 22.847587 18.82348 22.671875 18.835938 C 22.558223 18.843922 22.442461 18.844291 22.330078 18.857422 C 22.113662 18.882858 21.901257 18.926504 21.689453 18.970703 C 21.581626 18.993158 21.471886 19.007898 21.365234 19.035156 C 21.12557 19.096463 20.890042 19.176671 20.65625 19.261719 C 20.586113 19.287259 20.514937 19.306329 20.445312 19.333984 C 20.138971 19.455486 19.837425 19.59449 19.541016 19.755859 C 19.499316 19.781959 19.466157 19.816406 19.398438 19.816406 L 19.398438 19.6875 C 19.398438 19.686198 19.398438 19.684896 19.398438 19.683594 C 19.398438 14.034324 19.397531 8.3849413 19.394531 2.7382812 C 19.394531 2.6863685 19.403818 2.6454495 19.421875 2.609375 C 19.441092 2.5725625 19.471978 2.5410156 19.517578 2.5097656 C 20.262818 1.9886156 21.065864 1.5925562 21.964844 1.4101562 C 22.232607 1.3560748 22.501877 1.3291246 22.771484 1.3183594 C 22.790447 1.3176332 22.809171 1.3150035 22.828125 1.3144531 z M 6.3535156 2.1484375 C 6.3729705 2.1590413 6.3769531 2.1878455 6.3769531 2.2167969 C 6.4004531 2.9229569 6.4237656 3.6336838 6.4472656 4.3398438 C 6.4941656 5.8355438 6.5403237 7.332425 6.5898438 8.828125 C 6.6132437 9.516045 6.6263312 10.201401 6.6445312 10.894531 C 6.6836313 12.345931 6.7226587 13.803795 6.7617188 15.265625 C 6.7878187 16.344405 6.8150375 17.424477 6.8359375 18.498047 C 6.8389375 18.625727 6.8222531 18.748624 6.8144531 18.871094 C 6.8144531 18.912794 6.7930187 18.940137 6.7617188 18.960938 C 6.5874872 19.107864 6.4295037 19.273056 6.2792969 19.443359 C 6.1294217 19.613346 5.985159 19.792227 5.8398438 19.964844 C 5.827042 19.981518 5.8011833 19.993099 5.7851562 20.005859 C 5.7530099 20.031897 5.7244629 20.05635 5.6738281 20.089844 C 5.6738281 19.826654 5.6727344 19.583478 5.6777344 19.335938 C 5.6595344 17.879317 5.6425406 16.435136 5.6191406 14.978516 C 5.5905206 13.258726 5.554725 11.533604 5.515625 9.8085938 C 5.471325 7.8282237 5.4173344 5.8475575 5.3652344 3.8671875 C 5.3548344 3.4737175 5.343725 3.08097 5.328125 2.6875 C 5.3231517 2.6201976 5.3512463 2.5853671 5.4082031 2.5664062 C 5.7234931 2.4726063 6.015455 2.32562 6.296875 2.15625 C 6.3024235 2.1523809 6.3039184 2.1549277 6.3085938 2.1523438 C 6.3336575 2.1390596 6.3437618 2.1438626 6.3535156 2.1484375 z M 32.011719 2.1503906 C 32.02594 2.1446096 32.043259 2.14455 32.080078 2.1679688 C 32.340658 2.3243188 32.608541 2.4680281 32.900391 2.5488281 C 32.952486 2.5631581 32.988567 2.5813606 33.009766 2.6113281 C 33.030222 2.6411761 33.037056 2.6805259 33.033203 2.7382812 C 33.033106 2.7399477 33.033319 2.7404917 33.033203 2.7421875 C 33.009986 3.1630179 33.004509 3.585029 32.994141 4.0058594 C 32.994141 4.0058594 32.994141 4.0078125 32.994141 4.0078125 C 32.957656 5.5367392 32.921836 7.0628679 32.882812 8.5917969 C 32.882812 8.5917969 32.882812 8.59375 32.882812 8.59375 C 32.85932 9.6796885 32.830789 10.764306 32.8125 11.847656 C 32.812475 11.848955 32.812525 11.850263 32.8125 11.851562 C 32.770836 13.942675 32.736291 16.037787 32.697266 18.128906 C 32.697266 18.128906 32.697266 18.130859 32.697266 18.130859 C 32.686898 18.653973 32.684881 19.181977 32.679688 19.705078 C 32.679688 19.705078 32.679688 19.707031 32.679688 19.707031 C 32.676765 19.828806 32.679688 19.945921 32.679688 20.078125 C 32.588487 20.036425 32.543651 19.985064 32.494141 19.927734 C 32.207511 19.596804 31.933804 19.241061 31.589844 18.957031 C 31.583322 18.952424 31.586799 18.942847 31.582031 18.9375 C 31.558472 18.907027 31.547485 18.87221 31.541016 18.830078 C 31.510016 18.574718 31.530156 18.326322 31.535156 18.076172 C 31.558656 17.039082 31.576109 16.003887 31.599609 14.966797 C 31.628309 13.752517 31.660106 12.531333 31.691406 11.314453 C 31.733086 9.9203731 31.771459 8.5281887 31.818359 7.1367188 C 31.860039 5.8155987 31.899059 4.4949481 31.943359 3.1738281 C 31.953759 2.8585281 31.972022 2.5438156 31.982422 2.2285156 C 31.982422 2.2187144 31.985905 2.2173301 31.986328 2.2089844 C 31.989258 2.1784073 31.996253 2.156853 32.011719 2.1503906 z M 13.478516 2.1992188 C 13.270707 2.2148538 13.064577 2.257775 12.857422 2.296875 C 12.716712 2.322935 12.611413 2.4341906 12.470703 2.4628906 C 12.306543 2.4967906 12.133559 2.4673937 11.974609 2.5585938 C 11.810449 2.6550437 11.587991 2.56762 11.431641 2.71875 C 11.309171 2.83601 11.137451 2.8801625 10.994141 2.9765625 C 10.863851 3.0677625 10.717546 3.1302 10.566406 3.1875 C 10.402246 3.25264 10.218141 3.304595 10.119141 3.453125 C 9.9940606 3.640735 9.8327706 3.7817994 9.6816406 3.9433594 C 9.6138906 4.0189194 9.5468875 4.0910875 9.4921875 4.1796875 C 9.3123975 4.4532875 9.1576987 4.73945 8.9179688 4.96875 C 8.7720487 5.11207 8.630275 5.2616138 8.515625 5.4335938 C 8.395755 5.6107838 8.336 5.8162863 8.25 6.0039062 C 8.13012 6.2436263 8.08855 6.5148106 8.03125 6.7753906 C 7.95305 7.1037106 7.9941406 7.4353419 7.9941406 7.7636719 C 7.9889406 7.9017719 7.9998125 8.0422394 8.0078125 8.1621094 C 8.0078125 8.4565594 8.0201781 8.7276962 8.0800781 9.0039062 C 8.1295881 9.2306062 8.1913288 9.4445456 8.3242188 9.6347656 C 8.3372187 9.6555656 8.3446562 9.6750719 8.3476562 9.7011719 C 8.3476562 9.8054019 8.4036 9.8886219 8.4375 9.9824219 C 8.4844 10.102282 8.5579094 10.207606 8.5996094 10.322266 C 8.6334894 10.429096 8.6914062 10.525328 8.7539062 10.611328 C 8.8268662 10.712958 8.9283688 10.79421 8.9804688 10.90625 C 9.0560388 11.0652 9.1730963 11.180944 9.3164062 11.277344 C 9.4466962 11.358114 9.5559263 11.449156 9.6601562 11.566406 C 9.7409363 11.652396 9.8319388 11.754591 9.9804688 11.775391 C 10.089909 11.785821 10.202403 11.828722 10.283203 11.919922 C 10.371793 12.021552 10.483648 12.111328 10.611328 12.111328 C 10.762468 12.111328 10.899649 12.145216 11.042969 12.166016 C 11.118529 12.176516 11.196531 12.210888 11.269531 12.242188 C 11.394601 12.296988 11.508362 12.419979 11.669922 12.318359 C 11.706402 12.297559 11.7682 12.296241 11.8125 12.306641 C 12.05223 12.369141 12.298026 12.343066 12.535156 12.322266 C 13.103206 12.272756 13.680002 12.241648 14.232422 12.048828 C 14.407002 11.986288 14.556536 11.879553 14.728516 11.814453 C 14.944796 11.731073 15.137251 11.584711 15.337891 11.457031 C 15.525511 11.334561 15.686748 11.173266 15.861328 11.035156 C 16.064578 10.870996 16.193214 10.624428 16.427734 10.486328 C 16.524144 10.434208 16.559825 10.321606 16.640625 10.253906 C 16.695355 10.206996 16.749962 10.173169 16.789062 10.105469 C 16.872442 9.9543288 16.94785 9.8008587 17.0625 9.6679688 C 17.11201 9.6132387 17.183544 9.580725 17.214844 9.515625 C 17.269564 9.387945 17.321606 9.25528 17.378906 9.125 C 17.391906 9.0937 17.430734 9.0820563 17.427734 9.0351562 C 17.412034 8.8579663 17.471325 8.6837063 17.453125 8.5039062 C 17.453125 8.4752063 17.447937 8.4407219 17.460938 8.4199219 C 17.541638 8.2922419 17.529297 8.1433125 17.529297 8.0078125 C 17.542297 7.4553925 17.535156 6.9033256 17.535156 6.3535156 C 17.535156 6.2935756 17.535206 6.2272469 17.503906 6.1855469 C 17.443806 6.1021569 17.4295 6.0033219 17.4375 5.9199219 C 17.45835 5.6072319 17.367275 5.3165913 17.296875 5.0195312 C 17.226515 4.7224813 17.051491 4.4728237 16.962891 4.1835938 C 16.921201 4.0350637 16.766359 3.9577656 16.693359 3.8222656 C 16.576109 3.6138056 16.412214 3.4460669 16.240234 3.2792969 C 16.115164 3.1516169 15.970126 3.0332806 15.847656 2.9003906 C 15.725186 2.7674906 15.584736 2.6758062 15.410156 2.6289062 C 15.358036 2.6158062 15.301453 2.6328625 15.251953 2.6015625 C 15.155543 2.5312225 15.035221 2.5195812 14.925781 2.4882812 C 14.800701 2.4569812 14.675204 2.44015 14.552734 2.40625 C 14.401604 2.36454 14.253342 2.312525 14.107422 2.265625 C 13.895052 2.195285 13.686324 2.1835837 13.478516 2.1992188 z M 24.529297 2.3359375 C 24.442897 2.3567775 24.442312 2.4309063 24.445312 2.5039062 C 24.453112 2.6029262 24.452491 2.7017813 24.462891 2.8007812 C 24.473321 2.9440513 24.473406 2.9439813 24.322266 2.9257812 C 23.934016 2.8841813 23.537344 2.859375 23.146484 2.859375 C 23.005734 2.861985 22.943359 2.9107381 22.943359 3.0175781 C 22.943359 3.1295681 23.017491 3.1923125 23.150391 3.1953125 L 23.417969 3.1953125 C 23.355469 3.2630225 23.324256 3.3013906 23.285156 3.3378906 C 23.209756 3.4082506 23.201844 3.4940906 23.214844 3.5878906 C 23.233084 3.6660906 23.285081 3.7103031 23.363281 3.7207031 C 23.436261 3.7311231 23.503856 3.7090594 23.535156 3.6308594 C 23.587266 3.5057794 23.703125 3.4212981 23.765625 3.2988281 C 23.791625 3.3900281 23.80475 3.4745469 23.78125 3.5605469 C 23.75258 3.6673869 23.815062 3.7597906 23.914062 3.7753906 C 24.015673 3.7910206 24.070262 3.7474375 24.101562 3.6484375 C 24.140863 3.5415975 24.127575 3.432355 24.109375 3.328125 C 24.096335 3.231725 24.130125 3.2341875 24.203125 3.2421875 C 24.513205 3.2813275 24.819473 3.3157094 25.126953 3.3496094 C 25.267703 3.3626294 25.341809 3.2643987 25.287109 3.1367188 C 25.253239 3.0507488 25.180409 3.028625 25.099609 3.015625 C 25.003189 3.002625 24.862 3.0326313 24.8125 2.9570312 C 24.7578 2.8788612 24.781437 2.7494081 24.773438 2.6425781 C 24.768238 2.5696181 24.780628 2.4934812 24.736328 2.4257812 C 24.686818 2.3475812 24.617897 2.3125375 24.529297 2.3359375 z M 21.611328 2.5253906 C 21.574193 2.5371206 21.541022 2.5638062 21.513672 2.5976562 C 21.461562 2.6680162 21.3907 2.7180656 21.3125 2.7597656 C 21.25519 2.7884456 21.211622 2.8294187 21.169922 2.8867188 C 21.094352 2.9987588 20.981196 3.0937125 20.853516 3.1328125 C 20.660686 3.1927425 20.467584 3.2479719 20.246094 3.3261719 C 20.311194 3.1255319 20.295781 2.9454225 20.300781 2.7578125 C 20.303411 2.6718225 20.291725 2.599 20.203125 2.5625 C 20.140585 2.5365 20.080091 2.5540156 20.025391 2.6035156 C 19.960291 2.6660556 19.8958 2.749925 19.9375 2.828125 C 20.0209 2.994885 19.968066 3.15355 19.947266 3.3125 C 19.902986 3.60695 19.92702 3.8898056 20.03125 4.1660156 C 20.05731 4.2286156 20.100903 4.2510937 20.158203 4.2460938 C 20.272843 4.2356738 20.374316 4.0983781 20.353516 3.9863281 C 20.340516 3.9003381 20.332728 3.8119281 20.298828 3.7363281 C 20.251968 3.6425381 20.301441 3.6270156 20.369141 3.6035156 C 20.848601 3.4419556 21.344746 3.3470094 21.847656 3.2871094 C 21.923226 3.2767094 21.993481 3.244825 22.050781 3.203125 C 22.123781 3.148405 22.13805 3.067775 22.09375 2.984375 C 22.04684 2.898375 21.972731 2.8892812 21.894531 2.9257812 C 21.803331 2.9700812 21.709699 2.9674688 21.605469 2.9804688 C 21.660189 2.8996987 21.74735 2.8607437 21.78125 2.7773438 C 21.81775 2.6887437 21.811269 2.604175 21.730469 2.546875 C 21.690079 2.518205 21.648463 2.5136606 21.611328 2.5253906 z M 34.035156 2.5761719 C 34.121156 2.5761719 34.132812 2.6158488 34.132812 2.6992188 L 34.132812 5.984375 C 34.132812 6.166775 34.13271 6.1686181 34.3125 6.1738281 C 35.06296 6.1972281 35.815939 6.2225937 36.574219 6.2460938 C 36.608119 6.2460938 36.639269 6.2437781 36.667969 6.2675781 C 36.824319 6.4082881 36.966759 6.5565156 37.037109 6.7597656 C 37.058924 6.8252004 37.060347 6.8877579 37.046875 6.9492188 C 37.034201 7.0034 37.010689 7.0557928 36.970703 7.1054688 C 36.840413 7.2618288 36.692191 7.362375 36.462891 7.359375 C 35.704611 7.346375 34.94316 7.3545625 34.1875 7.3515625 C 34.13781 7.3515625 34.107137 7.3582859 34.087891 7.3789062 C 34.087891 7.3789062 34.085938 7.3789062 34.085938 7.3789062 C 34.066392 7.3968275 34.058594 7.4277306 34.058594 7.4785156 C 34.061594 10.383926 34.061594 13.283394 34.058594 16.183594 C 34.058594 16.285224 34.089821 16.300781 34.175781 16.300781 C 34.978351 16.295781 35.772945 16.301875 36.578125 16.296875 C 36.656325 16.296875 36.70831 16.316319 36.75 16.386719 C 36.8204 16.493559 36.902948 16.601505 36.986328 16.703125 C 37.028028 16.755225 37.039113 16.798778 37.007812 16.861328 C 36.955971 16.967638 36.903532 17.081139 36.859375 17.1875 C 36.85564 17.195593 36.849662 17.197821 36.845703 17.205078 C 36.825539 17.244093 36.802647 17.275994 36.773438 17.294922 C 36.737443 17.316134 36.693129 17.326172 36.634766 17.326172 C 35.853036 17.321172 35.068829 17.325312 34.287109 17.320312 C 34.228489 17.320312 34.189796 17.328437 34.166016 17.349609 C 34.139518 17.370191 34.128906 17.407577 34.128906 17.474609 C 34.131906 18.623749 34.127812 19.780548 34.132812 20.929688 C 34.132812 20.993969 34.123946 21.030563 34.101562 21.052734 C 34.077289 21.072751 34.040342 21.078125 33.982422 21.078125 C 29.563072 21.073125 25.149172 21.073125 20.732422 21.078125 C 20.633402 21.078125 20.572291 21.052138 20.525391 20.960938 C 20.437875 20.803915 20.321761 20.666858 20.175781 20.507812 L 20.347656 20.507812 L 32.712891 20.507812 L 32.806641 20.507812 C 32.840627 20.507812 32.849354 20.498823 32.859375 20.488281 C 32.885054 20.474327 32.887843 20.437373 32.890625 20.330078 C 32.927065 18.537328 32.961547 16.752394 32.998047 14.964844 C 33.029347 13.463934 33.06245 11.952092 33.09375 10.451172 C 33.13542 8.5620019 33.175097 6.67042 33.216797 4.78125 C 33.229797 4.0803 33.246766 3.3806275 33.259766 2.6796875 C 33.259766 2.6439488 33.267514 2.6222714 33.279297 2.6054688 C 33.294569 2.5918239 33.316203 2.5820312 33.351562 2.5820312 L 33.355469 2.5820312 C 33.475339 2.5850313 33.596927 2.5859375 33.716797 2.5859375 C 33.815797 2.5859375 33.916605 2.5850781 34.015625 2.5800781 C 34.026025 2.5770781 34.028003 2.578125 34.033203 2.578125 L 34.035156 2.5761719 z M 4.9921875 2.578125 C 4.9934984 2.5780932 4.9947824 2.5781577 4.9960938 2.578125 C 5.0794938 2.578125 5.0989625 2.6087031 5.1015625 2.6894531 C 5.1223625 3.8073231 5.1465219 4.9198962 5.1699219 6.0351562 C 5.2116219 7.9347563 5.2506494 9.8341356 5.2871094 11.728516 C 5.3079094 12.679616 5.32815 13.628978 5.34375 14.580078 C 5.38285 16.284238 5.4153887 17.985293 5.4492188 19.689453 C 5.4542187 19.934393 5.4641969 20.173686 5.4667969 20.416016 C 5.4667969 20.449015 5.4742301 20.471345 5.4882812 20.486328 C 5.4906657 20.489417 5.4969569 20.489821 5.5 20.492188 C 5.5082433 20.497136 5.5143193 20.505859 5.5273438 20.505859 C 5.5377437 20.505859 5.5480938 20.504953 5.5585938 20.501953 C 5.5612448 20.501505 5.5616416 20.502554 5.5644531 20.501953 L 5.65625 20.501953 L 5.6621094 20.501953 L 17.982422 20.501953 L 17.988281 20.501953 L 18.177734 20.501953 C 18.016184 20.684363 17.88287 20.853406 17.78125 21.041016 C 17.763991 21.070697 17.734462 21.070233 17.707031 21.070312 L 17.628906 21.070312 L 4.3945312 21.070312 C 4.3176816 21.070312 4.2889564 21.071845 4.2675781 21.0625 C 4.2596654 21.060671 4.2505988 21.057187 4.2460938 21.052734 C 4.2312622 21.034351 4.2324219 20.99855 4.2324219 20.912109 L 4.2324219 17.505859 C 4.2324219 17.318249 4.2318825 17.318359 4.0390625 17.318359 C 3.2860025 17.318359 2.5277937 17.319219 1.7773438 17.324219 C 1.6860838 17.324219 1.6360344 17.296937 1.6152344 17.210938 C 1.5969344 17.135368 1.5762094 17.057288 1.5371094 16.992188 C 1.4120394 16.757668 1.4237031 16.548938 1.6269531 16.361328 C 1.6777457 16.318156 1.7193999 16.294259 1.7792969 16.292969 C 2.5746772 16.292969 3.3660632 16.29384 4.1640625 16.298828 L 4.1875 16.298828 C 4.2155095 16.298828 4.2292595 16.288956 4.2460938 16.28125 C 4.286229 16.266525 4.3105469 16.238125 4.3105469 16.164062 C 4.3075469 13.274282 4.3075469 10.381968 4.3105469 7.4921875 C 4.3105469 7.3722775 4.2735125 7.3515625 4.1640625 7.3515625 C 3.3849425 7.3545625 2.6059388 7.3505156 1.8242188 7.3535156 C 1.5975187 7.3561256 1.4727212 7.208425 1.3632812 7.046875 C 1.2695012 6.903555 1.3137312 6.7539913 1.3945312 6.6132812 C 1.4674913 6.4908113 1.5643856 6.3900156 1.6660156 6.2910156 C 1.7009137 6.2536215 1.7437926 6.2450418 1.7929688 6.2441406 C 2.5707957 6.2206629 3.352383 6.1920976 4.125 6.1738281 C 4.1292828 6.1738281 4.128892 6.1720489 4.1328125 6.171875 C 4.2348125 6.169275 4.2324219 6.1218281 4.2324219 6.0488281 L 4.2324219 2.7421875 C 4.2324219 2.6544352 4.229742 2.6183147 4.2441406 2.5996094 C 4.250161 2.5938984 4.2625259 2.5913166 4.2753906 2.5898438 C 4.2934951 2.5840924 4.3248394 2.5813044 4.375 2.5820312 L 4.390625 2.5820312 L 4.5332031 2.5820312 L 4.7265625 2.5820312 C 4.8125625 2.5820312 4.8990344 2.5830781 4.9902344 2.5800781 C 4.9902344 2.5800781 4.9921875 2.578125 4.9921875 2.578125 z M 13.554688 2.6777344 C 13.641329 2.6787094 13.729111 2.6900875 13.816406 2.7109375 C 13.907606 2.7318375 14.009044 2.7200562 14.089844 2.7851562 C 14.100244 2.7901562 14.118506 2.7901562 14.128906 2.7851562 C 14.405116 2.6366363 14.600136 2.8489125 14.816406 2.9453125 C 14.905006 2.9844025 15.006444 3.0169187 15.089844 3.0742188 C 15.105444 3.0899188 15.13015 3.1015875 15.15625 3.1171875 C 15.13025 3.1458875 15.114562 3.1712531 15.101562 3.1894531 C 14.898313 3.3301731 14.774202 3.557205 14.576172 3.703125 C 14.370312 3.851655 14.206494 4.0435181 14.021484 4.2050781 C 13.846894 4.3536081 13.666737 4.4959787 13.554688 4.6992188 C 13.494758 4.7982388 13.393872 4.8358625 13.326172 4.9140625 C 13.154202 5.0990725 12.989715 5.2870294 12.765625 5.4121094 C 12.729125 5.4301094 12.707716 5.4518812 12.666016 5.4257812 C 12.400226 5.2329513 12.106256 5.0763219 11.884766 4.8261719 C 11.759696 4.6828519 11.595154 4.61465 11.433594 4.53125 C 11.290274 4.45307 11.175839 4.3444694 11.074219 4.2246094 C 10.988229 4.1229794 10.905031 4.0319469 10.769531 3.9980469 C 10.691321 3.9771969 10.673206 3.9010625 10.628906 3.8515625 C 10.615806 3.8359625 10.625709 3.8092281 10.599609 3.7988281 C 10.456269 3.7362681 10.535728 3.6881719 10.611328 3.6386719 C 10.879718 3.4719119 11.156065 3.3151675 11.453125 3.2109375 C 11.612075 3.1535575 11.768779 3.0924313 11.943359 3.0820312 C 12.071039 3.0716113 12.192638 3.0045781 12.304688 2.9550781 C 12.507937 2.8612381 12.711464 2.8268813 12.927734 2.8007812 C 13.050204 2.7825513 13.169842 2.7200187 13.294922 2.6992188 C 13.382212 2.6848688 13.468046 2.6767594 13.554688 2.6777344 z M 27.572266 2.9082031 C 27.452366 2.9290531 27.470516 3.0155625 27.478516 3.1015625 C 27.483516 3.1849425 27.487234 3.2655625 27.490234 3.3515625 C 27.448564 3.3439625 27.410841 3.3359375 27.369141 3.3359375 C 27.306591 3.3306375 27.244191 3.3273906 27.212891 3.4003906 C 27.184191 3.4837706 27.212878 3.5488156 27.267578 3.6035156 C 27.296218 3.6296156 27.335253 3.64325 27.376953 3.65625 C 27.569783 3.71875 27.768117 3.7193469 27.960938 3.7480469 C 28.055138 3.7584669 28.068981 3.7942 28.050781 3.875 C 28.027381 3.99747 28.029919 4.1190681 28.074219 4.2363281 C 28.108089 4.3223581 28.180919 4.35935 28.261719 4.34375 C 28.352949 4.32812 28.375187 4.257875 28.367188 4.171875 C 28.364187 4.137975 28.364375 4.1035656 28.359375 4.0722656 C 28.354165 3.8272856 28.366396 3.8170406 28.603516 3.8066406 L 28.619141 3.8066406 C 28.692141 3.8014306 28.735706 3.7715719 28.753906 3.7011719 C 28.772206 3.6334219 28.7474 3.5735969 28.6875 3.5292969 C 28.6432 3.4979969 28.587903 3.4863281 28.533203 3.4863281 C 28.329953 3.4863281 28.132281 3.4452875 27.931641 3.4296875 C 27.850861 3.4244775 27.798641 3.4036875 27.806641 3.3046875 C 27.817141 3.2291175 27.801416 3.1485125 27.791016 3.0703125 C 27.775376 2.9582525 27.684306 2.8874031 27.572266 2.9082031 z M 25.839844 3.1171875 C 25.720014 3.0989475 25.647106 3.1952475 25.691406 3.3046875 C 25.720076 3.3802875 25.770763 3.4290531 25.851562 3.4394531 C 26.106922 3.4758931 26.357921 3.5149281 26.613281 3.5488281 C 26.701901 3.5618581 26.751766 3.5124281 26.759766 3.4238281 C 26.746736 3.3248081 26.69798 3.249975 26.59375 3.234375 C 26.34099 3.192715 26.089994 3.1536875 25.839844 3.1171875 z M 15.533203 3.28125 C 15.590204 3.2721325 15.652948 3.3078969 15.736328 3.3886719 C 15.900498 3.5502319 16.083245 3.7036694 16.234375 3.8808594 C 16.388115 4.0632594 16.538348 4.2615887 16.642578 4.4804688 C 16.694688 4.5873088 16.758459 4.6906919 16.818359 4.7949219 C 16.927819 4.9825319 16.968116 5.1958369 16.978516 5.4042969 C 16.986316 5.5345869 17.085303 5.6496562 17.033203 5.7851562 C 17.001953 5.9310762 17.107234 6.0507013 17.115234 6.1757812 C 17.125634 6.5457912 17.118234 6.91384 17.115234 7.28125 C 17.110234 7.42718 17.151087 7.57022 17.117188 7.71875 C 17.085988 7.86728 17.047781 8.015535 17.050781 8.171875 C 17.056001 8.333435 16.997425 8.4797294 16.953125 8.6308594 C 16.893195 8.8288994 16.820375 9.0233175 16.734375 9.2109375 C 16.726545 9.2395375 16.677759 9.2792469 16.630859 9.3105469 C 16.581359 9.3444269 16.550109 9.3938844 16.537109 9.4589844 C 16.498019 9.6153344 16.36465 9.71347 16.28125 9.84375 C 16.16138 10.03397 15.947343 10.137263 15.814453 10.314453 C 15.731063 10.431713 15.650456 10.558531 15.541016 10.644531 C 15.356006 10.798271 15.168736 10.945235 14.978516 11.078125 C 14.853436 11.174545 14.717531 11.2526 14.582031 11.3125 C 14.425681 11.38286 14.293743 11.515625 14.095703 11.515625 C 13.999293 11.515625 13.896547 11.598303 13.810547 11.658203 C 13.763637 11.694703 13.720069 11.710938 13.667969 11.710938 C 13.574159 11.721338 13.490309 11.746081 13.412109 11.800781 C 13.336549 11.850481 13.250722 11.791875 13.169922 11.796875 C 13.050052 11.802175 12.93497 11.827266 12.8125 11.822266 C 12.65395 11.806626 12.587244 11.740981 12.652344 11.582031 C 12.735714 11.363151 12.813819 11.149886 12.824219 10.910156 C 12.824219 10.894556 12.83335 10.874975 12.84375 10.859375 C 12.93754 10.687395 12.967431 10.490994 13.019531 10.308594 C 13.100301 9.9959038 13.180269 9.690285 13.287109 9.390625 C 13.334009 9.262945 13.339819 9.1231244 13.386719 8.9902344 C 13.425799 8.8625344 13.510315 8.786425 13.671875 8.765625 C 13.791735 8.750025 13.899669 8.7877438 14.011719 8.7773438 C 14.087279 8.7747438 14.160156 8.77605 14.222656 8.71875 C 14.251326 8.69555 14.317016 8.6855719 14.353516 8.7011719 C 14.525496 8.7688719 14.708887 8.6933594 14.873047 8.7558594 C 15.115387 8.8496594 15.360529 8.7480219 15.605469 8.7949219 C 15.923369 8.8600619 16.25762 8.8703669 16.5625 8.9980469 C 16.66673 9.0396969 16.731116 8.9850344 16.791016 8.9277344 C 16.853516 8.8756144 16.839247 8.77605 16.810547 8.71875 C 16.706317 8.51029 16.550252 8.3431781 16.357422 8.2050781 C 16.305322 8.1685881 16.26825 8.1094 16.21875 8.0625 C 15.91127 7.79411 15.616736 7.5092688 15.291016 7.2617188 C 14.996566 7.0350188 14.702004 6.802225 14.402344 6.578125 C 14.300904 6.502555 14.272169 6.4239056 14.292969 6.2910156 C 14.316419 6.1164256 14.353428 5.9525756 14.423828 5.7910156 C 14.457698 5.7154556 14.526659 5.6784687 14.568359 5.6054688 C 14.669979 5.4178488 14.768797 5.2247369 14.841797 5.0292969 C 14.901697 4.8755669 15.007216 4.72147 14.978516 4.53125 C 14.973316 4.47131 15.003906 4.3645875 15.066406 4.3046875 C 15.089706 4.2837875 15.100656 4.2578625 15.097656 4.2265625 C 15.066386 4.0181025 15.170531 3.8510131 15.269531 3.6894531 C 15.316431 3.6086731 15.316381 3.5215594 15.363281 3.4433594 C 15.424516 3.3443544 15.476202 3.2903675 15.533203 3.28125 z M 12.972656 3.3144531 C 12.892707 3.3144531 12.832858 3.3245469 12.789062 3.3515625 C 12.745089 3.3792487 12.71485 3.4250881 12.6875 3.5019531 C 12.6745 3.5332031 12.666684 3.5530469 12.654297 3.5605469 C 12.642036 3.5662941 12.625637 3.562842 12.59375 3.546875 C 12.59375 3.546875 12.591797 3.546875 12.591797 3.546875 C 12.58772 3.5448781 12.586006 3.5486226 12.582031 3.546875 C 12.464086 3.4915642 12.387668 3.5427674 12.384766 3.6738281 C 12.384766 3.6999281 12.387766 3.7266 12.384766 3.75 C 12.382166 3.7865 12.364625 3.8118656 12.328125 3.8222656 C 12.288618 3.8308239 12.278854 3.805016 12.255859 3.7871094 C 12.164659 3.7220094 12.197328 3.6198325 12.173828 3.5390625 C 12.149078 3.4687025 12.117213 3.41766 12.078125 3.390625 C 12.039039 3.3635938 11.990271 3.3606625 11.931641 3.3828125 C 11.850841 3.4114725 11.809228 3.4862531 11.798828 3.5644531 C 11.785828 3.6947431 11.736328 3.8286944 11.798828 3.9589844 C 11.827428 4.0267344 11.859188 4.0957156 11.867188 4.1660156 C 11.895857 4.3718756 11.961572 4.5656319 12.013672 4.7636719 C 12.044942 4.8809719 12.124278 4.8565625 12.205078 4.8515625 C 12.249373 4.8476575 12.294901 4.8388806 12.328125 4.8183594 C 12.328125 4.8183594 12.330078 4.8183594 12.330078 4.8183594 C 12.363301 4.7975331 12.384766 4.7643425 12.384766 4.7109375 C 12.384766 4.6093175 12.408241 4.50266 12.369141 4.40625 C 12.346166 4.3602027 12.385449 4.346346 12.414062 4.3359375 C 12.414062 4.3359375 12.416016 4.3359375 12.416016 4.3359375 C 12.452062 4.3262847 12.49508 4.32911 12.507812 4.3261719 C 12.559928 4.3352719 12.60577 4.3349594 12.644531 4.3261719 C 12.683293 4.3173844 12.715484 4.2994875 12.740234 4.2734375 C 12.740234 4.2734375 12.742188 4.2734375 12.742188 4.2734375 C 12.809619 4.2115506 12.884537 4.1683987 12.964844 4.1269531 C 12.964844 4.1269531 12.966797 4.1269531 12.966797 4.1269531 C 13.086667 4.0670531 13.148438 3.9720844 13.148438 3.8339844 C 13.148438 3.6984844 13.081397 3.5723506 13.091797 3.4316406 C 13.094297 3.4120906 13.082345 3.3838025 13.0625 3.359375 C 13.042979 3.3353674 13.012019 3.3151169 12.972656 3.3144531 z M 29.964844 3.4101562 C 29.916969 3.4114825 29.870484 3.4387725 29.833984 3.4921875 C 29.802734 3.5390875 29.770203 3.5488281 29.720703 3.5488281 C 29.663373 3.5468281 29.606128 3.5429688 29.548828 3.5429688 C 29.408098 3.5403587 29.353516 3.5845763 29.353516 3.6914062 C 29.353516 3.7930762 29.417249 3.8574219 29.537109 3.8574219 C 29.693459 3.8604219 29.844961 3.859375 29.988281 3.859375 C 30.235821 3.843775 30.478371 3.8224531 30.712891 3.8144531 C 30.788451 3.8144531 30.850231 3.8033813 30.894531 3.7382812 C 30.933431 3.6809512 30.934938 3.6171875 30.898438 3.5546875 C 30.859347 3.4846875 30.79175 3.4700687 30.71875 3.4804688 C 30.54938 3.4986688 30.381604 3.51565 30.214844 3.53125 C 30.167884 3.53385 30.133509 3.531275 30.099609 3.484375 C 30.061829 3.433655 30.012719 3.40883 29.964844 3.4101562 z M 21.623047 3.9609375 C 21.537087 3.9765675 21.497438 4.039 21.460938 4.125 C 21.421837 4.23184 21.379766 4.3339119 21.384766 4.4511719 C 21.384766 4.4902319 21.356825 4.5364125 21.328125 4.5703125 C 21.289035 4.6224125 21.216162 4.6438469 21.164062 4.6230469 C 21.117162 4.6048069 21.143262 4.5417 21.164062 4.5 C 21.200563 4.41922 21.194453 4.3307375 21.189453 4.2734375 C 21.189453 4.2213375 21.190547 4.1946281 21.185547 4.1738281 C 21.185547 4.0982481 21.196027 4.0175531 21.091797 4.0019531 C 20.997997 3.9863131 20.930359 4.0292344 20.880859 4.1152344 C 20.857059 4.1569144 20.854375 4.2043938 20.859375 4.2460938 C 20.880275 4.3894138 20.825488 4.5220462 20.804688 4.6601562 C 20.796888 4.6992562 20.776062 4.7350469 20.726562 4.7480469 C 20.624932 4.7767469 20.523505 4.80985 20.421875 4.84375 C 20.377575 4.85935 20.360009 4.8528813 20.349609 4.8007812 C 20.326159 4.6626812 20.236403 4.6314437 20.126953 4.7148438 C 20.035723 4.7825938 20.026438 4.8723325 20.023438 4.9765625 C 20.005198 5.2736325 20.090341 5.2930363 20.337891 5.1914062 C 20.689671 5.0454862 21.060964 4.958325 21.433594 4.890625 C 21.657684 4.848925 21.886581 4.8288344 22.113281 4.8027344 C 22.225361 4.7897144 22.288156 4.7272594 22.285156 4.6308594 C 22.282546 4.5344694 22.216877 4.4856938 22.091797 4.4960938 C 22.008417 4.5038938 21.928456 4.5162969 21.847656 4.5292969 C 21.748666 4.5449369 21.680297 4.5482563 21.716797 4.4101562 C 21.732397 4.3528262 21.744737 4.2995 21.773438 4.25 C 21.814937 4.17443 21.817725 4.091225 21.765625 4.015625 C 21.734355 3.960925 21.680347 3.9505375 21.623047 3.9609375 z M 10.125 4 C 10.142266 3.9977125 10.159484 4.0116875 10.177734 4.0546875 C 10.266364 4.2370975 10.339172 4.4152438 10.326172 4.6210938 C 10.318352 4.7227238 10.388634 4.799425 10.427734 4.890625 C 10.511114 5.101695 10.592369 5.3214863 10.667969 5.5351562 C 10.675969 5.5534562 10.667969 5.5763594 10.667969 5.5683594 C 10.678369 5.7090694 10.587853 5.8065681 10.626953 5.9238281 C 10.679093 6.0984081 10.665281 6.2915675 10.738281 6.4609375 C 10.745681 6.4714375 10.748047 6.4856938 10.748047 6.4960938 C 10.719397 6.6811038 10.790331 6.8553638 10.832031 7.0273438 C 10.860701 7.1498138 10.796228 7.2128531 10.736328 7.2519531 C 10.483568 7.4187231 10.298304 7.6528681 10.089844 7.8613281 C 9.8449038 8.1088681 9.5978387 8.3371287 9.2929688 8.5117188 C 9.0532388 8.6472188 8.7891875 8.752475 8.5859375 8.953125 C 8.5441975 8.992225 8.4746094 9.0039738 8.4746094 8.9023438 C 8.4772094 8.8059337 8.4629281 8.7201063 8.4238281 8.6289062 C 8.3795281 8.5168563 8.3326031 8.398515 8.4082031 8.265625 C 8.4342031 8.226535 8.4121594 8.1321781 8.3808594 8.0800781 C 8.3131594 7.9732381 8.3280875 7.872465 8.3671875 7.765625 C 8.3777875 7.731725 8.3874281 7.7116344 8.3613281 7.6777344 C 8.3275281 7.6230144 8.312425 7.5631844 8.390625 7.5214844 C 8.442725 7.4928144 8.4110625 7.4381844 8.4140625 7.3964844 C 8.4140625 7.3573444 8.3821906 7.3098625 8.4003906 7.2890625 C 8.5100406 7.1483525 8.419225 6.9603756 8.515625 6.8222656 C 8.562525 6.7623356 8.5369219 6.6998781 8.5449219 6.6425781 C 8.5683719 6.4914481 8.6704938 6.3815788 8.7460938 6.2617188 C 8.7903937 6.1887488 8.8313594 6.1237562 8.8183594 6.0351562 C 8.8001294 5.9361463 8.82805 5.8503562 8.90625 5.7851562 C 8.98964 5.7174062 9.0234625 5.6204844 9.0390625 5.5214844 C 9.0442625 5.4849844 9.06245 5.4596063 9.09375 5.4414062 C 9.21362 5.3684462 9.2766219 5.244855 9.3574219 5.140625 C 9.3678219 5.127625 9.3878125 5.1126094 9.3828125 5.0996094 C 9.3515425 4.9250194 9.5344844 4.8776725 9.5839844 4.7578125 C 9.6360944 4.6275225 9.7180281 4.5137394 9.7988281 4.4121094 C 9.8926281 4.2896394 9.9927719 4.1712956 10.076172 4.0410156 C 10.090487 4.0201656 10.107734 4.0022875 10.125 4 z M 27.189453 4.1386719 C 27.103463 4.1204319 27.014719 4.1809188 27.011719 4.2929688 C 27.003919 4.4336788 26.952491 4.5637213 26.962891 4.7070312 C 26.978521 4.8737613 26.967551 4.8736688 26.800781 4.8554688 C 26.665311 4.8450487 26.591113 4.93221 26.632812 5.0625 C 26.661482 5.15112 26.719347 5.1959844 26.810547 5.2089844 C 27.196197 5.2637044 27.5857 5.3222531 27.96875 5.3769531 C 28.02345 5.3847531 28.100516 5.3795531 28.103516 5.4394531 C 28.113936 5.5541031 28.205713 5.6132187 28.257812 5.6992188 C 28.322952 5.8034187 28.438719 5.8294438 28.511719 5.7773438 C 28.592519 5.7304338 28.605481 5.6159488 28.550781 5.5117188 C 28.540381 5.4909187 28.525353 5.4746594 28.501953 5.4433594 C 28.572303 5.4483594 28.632153 5.4511719 28.689453 5.4511719 C 28.824933 5.4537719 28.897828 5.362055 28.861328 5.234375 C 28.835268 5.137955 28.769589 5.0967969 28.667969 5.0917969 C 28.248439 5.0657469 27.831639 4.9928594 27.412109 4.9433594 C 27.328739 4.9329294 27.290109 4.9095469 27.287109 4.8105469 C 27.281909 4.6594169 27.326197 4.5189669 27.341797 4.3730469 C 27.354827 4.2557869 27.296293 4.1594719 27.189453 4.1386719 z M 14.662109 4.1875 C 14.698609 4.1666 14.727656 4.1888062 14.722656 4.2539062 C 14.701756 4.2955963 14.680384 4.364575 14.646484 4.421875 C 14.617884 4.460945 14.606103 4.4986688 14.595703 4.5429688 C 14.543583 4.7227688 14.432947 4.8762013 14.373047 5.0507812 C 14.292267 5.2853012 14.141272 5.4829362 14.076172 5.7226562 C 14.037082 5.8581562 13.944666 5.9862506 13.884766 6.1191406 C 13.835256 6.2259406 13.731813 6.1576062 13.695312 6.1289062 C 13.505092 5.9777762 13.289822 5.8627319 13.107422 5.7011719 C 13.068322 5.6725119 13.070287 5.6204844 13.117188 5.5839844 C 13.234448 5.4771444 13.339094 5.3483906 13.490234 5.2753906 C 13.539774 5.2519406 13.557909 5.1979625 13.599609 5.1640625 C 13.935749 4.8852525 14.305844 4.6421513 14.558594 4.2695312 C 14.579424 4.2356312 14.620409 4.2083 14.662109 4.1875 z M 23.408203 4.4296875 C 23.251863 4.4036275 23.113916 4.5266219 23.166016 4.6386719 C 23.236416 4.7950219 23.175097 4.9361112 23.154297 5.0820312 C 23.141267 5.1810512 23.162059 5.2577625 23.255859 5.2890625 C 23.352269 5.3203425 23.425109 5.2865125 23.474609 5.1953125 C 23.529309 5.0832725 23.500597 4.96101 23.529297 4.84375 C 23.547597 4.78405 23.561841 4.7723438 23.619141 4.7773438 C 23.744221 4.7929438 23.869698 4.8027594 24.023438 4.8183594 C 24.091178 4.8235694 24.160828 4.7878238 24.173828 4.6835938 C 24.189458 4.5923837 24.123761 4.5136469 24.019531 4.4980469 C 23.816281 4.4694469 23.611443 4.4661875 23.408203 4.4296875 z M 10.746094 4.5527344 C 10.821674 4.5371344 10.8411 4.6015 10.875 4.625 C 10.96099 4.70318 11.087244 4.7199887 11.152344 4.8242188 C 11.298264 5.0561288 11.559775 5.1496438 11.765625 5.3085938 C 11.929785 5.4310637 12.104067 5.5428963 12.273438 5.6601562 C 12.343438 5.7070562 12.336584 5.8085812 12.271484 5.8632812 C 11.977034 6.1108212 11.655761 6.3273006 11.400391 6.6191406 C 11.353491 6.6738606 11.283888 6.7096437 11.242188 6.7773438 C 11.229188 6.8008438 11.201881 6.8087813 11.175781 6.8007812 C 11.152281 6.7955813 11.145625 6.7676406 11.140625 6.7441406 C 11.031575 6.4627206 11.071644 6.1603338 11.027344 5.8710938 C 11.001284 5.7095438 11.013115 5.5143962 10.859375 5.3789062 C 10.804675 5.3267862 10.848937 5.2279437 10.835938 5.1523438 C 10.796838 4.9543038 10.733094 4.7585944 10.746094 4.5527344 z M 24.814453 4.6054688 C 24.731113 4.5950388 24.663203 4.6249375 24.658203 4.7109375 C 24.647773 4.8099575 24.689386 4.8991219 24.791016 4.9199219 C 24.913486 4.9482219 25.037032 4.9772719 25.169922 4.9511719 C 25.258522 4.9328719 25.333922 4.9407469 25.419922 4.9980469 C 25.667472 5.1569969 25.805199 5.4178638 26.037109 5.5898438 C 26.110069 5.6471437 26.188731 5.6966187 26.269531 5.6367188 C 26.352831 5.5715788 26.334656 5.4759781 26.285156 5.3925781 C 26.259136 5.3482481 26.230494 5.3112562 26.183594 5.2851562 C 26.079364 5.2226162 26.014394 5.1185437 25.933594 5.0273438 C 25.912794 5.0012438 25.911475 4.9805187 25.921875 4.9492188 C 25.973995 4.7694187 25.907009 4.6953375 25.724609 4.6484375 C 25.424949 4.5702375 25.116723 4.6341687 24.814453 4.6054688 z M 30.109375 4.6796875 C 30.073871 4.6966225 30.045581 4.727825 30.019531 4.765625 C 29.990831 4.804715 29.97915 4.85675 29.96875 4.90625 C 29.89579 5.17725 29.896657 5.1777344 29.623047 5.1777344 C 29.484907 5.1777344 29.423828 5.2303987 29.423828 5.3554688 C 29.426438 5.4779587 29.484947 5.5332031 29.623047 5.5332031 C 29.894047 5.5332031 30.150883 5.4882437 30.414062 5.4648438 C 30.536532 5.4518438 30.659437 5.4121594 30.779297 5.3808594 C 30.891327 5.3547994 30.959034 5.2481144 30.927734 5.1464844 C 30.891254 5.0317844 30.80995 5.0443 30.71875 5.0625 C 30.56501 5.0911 30.412214 5.1412469 30.240234 5.1230469 C 30.266334 5.0370569 30.289747 4.9641844 30.310547 4.8964844 C 30.333947 4.8078944 30.325575 4.7324469 30.234375 4.6855469 C 30.18617 4.6608069 30.144879 4.6627525 30.109375 4.6796875 z M 15.703125 5.1113281 C 15.672222 5.110352 15.641294 5.1191269 15.613281 5.1386719 C 15.578081 5.1621219 15.541679 5.1900844 15.511719 5.2246094 C 15.511719 5.2246094 15.509766 5.2265625 15.509766 5.2265625 C 15.480663 5.2606786 15.458914 5.301032 15.455078 5.3496094 C 15.444678 5.4851094 15.368501 5.5891169 15.332031 5.7167969 C 15.285131 5.8861769 15.358653 6.0436181 15.533203 6.0488281 C 15.616603 6.0518281 15.67965 6.1054062 15.75 6.1289062 C 15.77475 6.1367263 15.778706 6.1607881 15.777344 6.1894531 C 15.777344 6.1894531 15.777344 6.1914062 15.777344 6.1914062 C 15.776031 6.2203975 15.768231 6.2525787 15.769531 6.2773438 C 15.774731 6.3086438 15.787694 6.3288094 15.808594 6.3496094 C 15.808594 6.3496094 15.808594 6.3515625 15.808594 6.3515625 C 15.944084 6.4766425 16.063731 6.4649563 16.175781 6.3164062 C 16.175781 6.3164062 16.177734 6.3164062 16.177734 6.3164062 C 16.183477 6.3093926 16.189116 6.3025437 16.195312 6.2949219 C 16.202001 6.2871533 16.209306 6.2791007 16.216797 6.2734375 C 16.230719 6.2629923 16.246823 6.2569802 16.265625 6.2695312 C 16.286475 6.2838813 16.284203 6.2971969 16.275391 6.3105469 C 16.266928 6.3238969 16.250641 6.3365594 16.244141 6.3496094 C 16.244141 6.3496094 16.244141 6.3515625 16.244141 6.3515625 C 16.23669 6.3658858 16.238154 6.3802153 16.232422 6.3945312 C 16.195895 6.4860793 16.188079 6.5746981 16.257812 6.6601562 C 16.287762 6.6992562 16.324839 6.7236281 16.367188 6.7363281 C 16.367188 6.7363281 16.369141 6.7363281 16.369141 6.7363281 C 16.410988 6.7485209 16.457007 6.7505467 16.501953 6.7441406 C 16.621813 6.7259406 16.675117 6.6068175 16.685547 6.5234375 C 16.695947 6.4087875 16.749932 6.3242687 16.789062 6.2304688 C 16.843812 6.1073412 16.828054 5.9689247 16.746094 5.8828125 C 16.718897 5.8541098 16.684268 5.8307312 16.642578 5.8164062 C 16.470598 5.7565063 16.286573 5.7089919 16.101562 5.7011719 C 15.877463 5.6961719 15.877593 5.7049588 15.882812 5.4804688 L 15.882812 5.4433594 L 15.886719 5.4433594 L 15.886719 5.3066406 C 15.886719 5.3066406 15.886719 5.3046875 15.886719 5.3046875 C 15.886719 5.2694975 15.878021 5.2373256 15.861328 5.2089844 C 15.827866 5.1528665 15.764306 5.1139692 15.703125 5.1113281 z M 9.6796875 5.6230469 C 9.5806775 5.6256469 9.4673937 5.7349844 9.4960938 5.8339844 C 9.5301937 5.9590644 9.4872344 6.0741463 9.4902344 6.1914062 C 9.4955344 6.3607762 9.49745 6.5304956 9.46875 6.6972656 C 9.45835 6.7598456 9.4362062 6.8242188 9.3789062 6.8242188 C 9.2772862 6.8295188 9.2005625 6.8934375 9.1015625 6.8984375 C 9.0416325 6.9010375 8.9817875 6.9289906 8.9296875 6.9628906 C 8.8984875 6.9863506 8.838575 7.0305781 8.859375 7.0800781 C 8.882029 7.1333635 8.9112832 7.1831805 8.9511719 7.21875 C 8.9511719 7.21875 8.9511719 7.2207031 8.9511719 7.2207031 C 8.9651092 7.2334592 8.9921694 7.2285389 9.0097656 7.2363281 C 9.0398389 7.2489011 9.0638205 7.2688685 9.1074219 7.2617188 C 9.1087202 7.2615473 9.1100295 7.2618852 9.1113281 7.2617188 C 9.1113281 7.2617188 9.1132812 7.2617188 9.1132812 7.2617188 C 9.2019783 7.2505158 9.2902664 7.2492641 9.3789062 7.2441406 C 9.420279 7.24201 9.460997 7.2285655 9.5019531 7.2226562 C 9.5467206 7.2156894 9.5927976 7.2151803 9.6367188 7.1992188 C 9.6385775 7.1985644 9.6407211 7.1998936 9.6425781 7.1992188 C 9.7468081 7.1627187 9.8847806 7.0820988 9.8691406 6.9804688 C 9.8431406 6.7381388 9.9512094 6.5112219 9.9121094 6.2636719 C 9.9460094 6.1151419 9.8840812 5.9707956 9.8632812 5.8222656 C 9.8502813 5.7102256 9.7793369 5.6230469 9.6855469 5.6230469 C 9.6855469 5.6230469 9.6835938 5.625 9.6835938 5.625 C 9.6820544 5.6249532 9.6812399 5.6230469 9.6796875 5.6230469 z M 24.158203 5.6953125 C 24.129861 5.6894375 24.098956 5.6933344 24.066406 5.7089844 C 23.980426 5.7532744 23.933406 5.8293688 23.941406 5.9179688 C 23.954436 6.0430388 23.871778 6.1236562 23.830078 6.2226562 C 23.759718 6.3920262 23.632203 6.2493781 23.533203 6.2675781 C 23.488903 6.2753781 23.443384 6.2589062 23.396484 6.2539062 C 23.253174 6.2408763 23.176416 6.2987656 23.166016 6.4160156 C 23.158196 6.5358656 23.225828 6.5963875 23.361328 6.6171875 C 23.697468 6.6745375 24.042766 6.6548688 24.378906 6.7304688 C 24.467106 6.7487087 24.483703 6.7831281 24.470703 6.8613281 C 24.452403 7.0020381 24.439641 7.1424931 24.431641 7.2832031 C 24.429031 7.3822231 24.471287 7.4720344 24.585938 7.4902344 C 24.684938 7.5058744 24.745472 7.4447431 24.763672 7.3144531 C 24.779272 7.1737431 24.796688 7.0352413 24.804688 6.8945312 C 24.807288 6.8005312 24.838475 6.7850937 24.921875 6.8085938 C 25.049555 6.8372938 25.18221 6.8594125 25.3125 6.8828125 C 25.45582 6.9114825 25.547559 6.8034662 25.505859 6.6601562 C 25.469379 6.5455262 25.382203 6.5273188 25.283203 6.5117188 C 25.059103 6.4700388 24.839324 6.4264656 24.615234 6.3847656 C 24.615234 6.3925656 24.612234 6.4032031 24.615234 6.4082031 C 24.487554 6.3873031 24.358796 6.3639906 24.228516 6.3378906 C 24.197016 6.3326906 24.186878 6.3119031 24.205078 6.2832031 C 24.257178 6.1893931 24.248656 6.0775156 24.285156 5.9785156 C 24.308656 5.8821056 24.306728 5.8054344 24.236328 5.7402344 C 24.212878 5.7167844 24.186546 5.7011875 24.158203 5.6953125 z M 12.6875 6 C 12.719089 5.999375 12.750609 6.0110531 12.787109 6.0332031 C 13.042479 6.1895431 13.271319 6.3827275 13.537109 6.5234375 C 13.672609 6.5963975 13.700575 6.7668187 13.609375 6.9492188 C 13.505155 7.1524687 13.438769 7.3650969 13.417969 7.5917969 C 13.415269 7.6569369 13.368456 7.7005125 13.347656 7.7578125 C 13.261666 7.9766925 13.162819 8.1893231 13.074219 8.4082031 C 13.058519 8.4499031 13.029334 8.4578906 12.990234 8.4628906 C 12.643674 8.5124006 12.32832 8.6574938 12 8.7460938 C 11.96095 8.7564938 11.922572 8.7454594 11.888672 8.7558594 C 11.583802 8.8340294 11.582781 8.8341419 11.431641 8.5761719 C 11.424241 8.5683719 11.421875 8.5607344 11.421875 8.5527344 C 11.450535 8.4016044 11.340478 8.2683125 11.330078 8.1328125 C 11.317078 7.9295725 11.223291 7.731905 11.275391 7.515625 C 11.202431 7.268075 11.347544 7.1289963 11.527344 6.9726562 C 11.717564 6.8058863 11.910688 6.6335594 12.111328 6.4746094 C 12.283308 6.3391094 12.400271 6.1543694 12.587891 6.0371094 C 12.623066 6.0124594 12.655911 6.000625 12.6875 6 z M 20.703125 6.0058594 C 20.676089 6.0097594 20.64975 6.0201594 20.625 6.0371094 C 20.55466 6.0814094 20.515625 6.1490219 20.515625 6.2324219 C 20.515625 6.3053819 20.510625 6.3768656 20.515625 6.4472656 C 20.520845 6.5254956 20.495522 6.5723031 20.419922 6.5957031 C 20.331342 6.6217631 20.274794 6.6867906 20.246094 6.7753906 C 20.233094 6.8249006 20.236291 6.8743156 20.275391 6.9160156 C 20.317101 6.9577156 20.361963 6.9465813 20.414062 6.9257812 C 20.687663 6.7955213 20.984185 6.78645 21.296875 6.71875 C 21.197865 6.84122 21.207703 6.9803888 21.158203 7.1054688 C 21.126953 7.1836388 21.136004 7.2766469 21.240234 7.3105469 C 21.339254 7.3392069 21.409459 7.2956188 21.443359 7.1992188 C 21.472059 7.1184388 21.497338 7.0378312 21.523438 6.9570312 C 21.549487 6.8762112 21.573507 6.7969 21.685547 6.8125 C 21.630847 6.89067 21.612234 6.9765125 21.615234 7.0703125 C 21.615234 7.1510925 21.641209 7.2239875 21.724609 7.2421875 C 21.807989 7.2578175 21.868456 7.2155656 21.910156 7.1347656 C 21.957066 7.0435656 21.990234 6.9466813 22.052734 6.8632812 C 22.151754 6.7486213 22.225146 6.62495 22.410156 6.65625 C 22.501326 6.66928 22.586572 6.5488956 22.576172 6.4472656 C 22.568352 6.3534456 22.510462 6.2988281 22.414062 6.2988281 C 21.981513 6.2988281 21.554296 6.3345563 21.134766 6.4101562 C 20.832316 6.4648762 20.838797 6.4780413 20.841797 6.1757812 L 20.841797 6.1503906 C 20.846997 6.0957006 20.839209 6.0482312 20.787109 6.0195312 C 20.758444 6.0051812 20.730161 6.0019594 20.703125 6.0058594 z M 28.431641 6.2890625 C 28.348231 6.2916725 28.299016 6.343675 28.291016 6.421875 C 28.277986 6.596455 28.228566 6.7596656 28.134766 6.9160156 C 28.095696 6.9707156 28.074219 6.994775 28.011719 6.984375 C 27.899669 6.966075 27.780676 6.9557125 27.666016 6.9453125 C 27.548736 6.9348925 27.475941 7.0064437 27.494141 7.1210938 C 27.504571 7.2226838 27.556576 7.2884281 27.666016 7.2988281 C 27.871876 7.3196281 28.0754 7.3489875 28.28125 7.3671875 C 28.34639 7.3723875 28.368519 7.3984375 28.386719 7.4609375 C 28.423219 7.5834075 28.399756 7.705655 28.410156 7.828125 C 28.417966 7.934935 28.45045 8.0086719 28.5625 8.0136719 C 28.66669 8.0214919 28.728328 7.9584075 28.736328 7.8359375 C 28.744128 7.7160675 28.74475 7.5905731 28.71875 7.4707031 C 28.70825 7.4212031 28.706944 7.3925781 28.777344 7.3925781 C 29.048344 7.3821781 29.324713 7.3658437 29.595703 7.3398438 C 29.754653 7.3242437 29.912019 7.2832406 30.068359 7.2441406 C 30.162159 7.2206906 30.224672 7.1009656 30.201172 7.0097656 C 30.169902 6.8977656 30.086 6.908875 30 6.921875 C 29.87752 6.942675 29.748134 6.9628281 29.615234 6.9863281 C 29.615234 6.9316181 29.614187 6.8874031 29.617188 6.8457031 C 29.622187 6.7988031 29.626047 6.7578375 29.623047 6.7109375 C 29.623047 6.6145375 29.586652 6.5353438 29.482422 6.5273438 C 29.391242 6.5169237 29.320947 6.5923887 29.310547 6.6992188 C 29.307547 6.7617588 29.311641 6.8242188 29.306641 6.8867188 C 29.298821 6.9675187 29.276112 7.0303906 29.164062 7.0253906 C 28.968633 7.0149906 28.778768 7.0559562 28.585938 7.0351562 C 28.546907 7.0324563 28.496069 7.0482187 28.480469 7.0117188 C 28.464869 6.9779187 28.502637 6.9453625 28.523438 6.9140625 C 28.609438 6.7577225 28.615856 6.5879956 28.597656 6.4160156 C 28.589836 6.3300356 28.517641 6.2860625 28.431641 6.2890625 z M 26.066406 6.6484375 C 26.033834 6.652675 26.004566 6.6666687 25.978516 6.6992188 C 25.931216 6.7669687 25.922509 6.8535031 25.974609 6.9082031 C 26.063009 7.0020131 26.003297 7.07285 25.966797 7.15625 C 25.927797 7.26308 25.876244 7.3690681 25.902344 7.4863281 C 25.917974 7.5671181 25.969322 7.6087406 26.044922 7.6191406 C 26.125682 7.6321806 26.177038 7.5937375 26.210938 7.5234375 C 26.226537 7.4869875 26.238306 7.4473031 26.253906 7.4082031 C 26.300806 7.3039731 26.333275 7.1862813 26.421875 7.1132812 C 26.497445 7.0508812 26.583263 7.1240938 26.664062 7.1210938 L 26.666016 7.1210938 C 26.804106 7.1237037 26.883719 7.059955 26.886719 6.953125 C 26.889329 6.846265 26.815797 6.7410938 26.716797 6.7460938 C 26.526577 6.7538938 26.349722 6.6829969 26.169922 6.6542969 C 26.133442 6.6490969 26.098979 6.6442 26.066406 6.6484375 z M 30.919922 6.7441406 C 30.776602 6.7832306 30.639404 6.8300531 30.496094 6.8769531 C 30.420474 6.9030131 30.369763 6.9595563 30.351562 7.0351562 C 30.333362 7.0898962 30.350219 7.1458 30.386719 7.1875 C 30.425819 7.2292 30.471338 7.2154656 30.523438 7.1972656 C 30.648517 7.1555856 30.779866 7.1120125 30.910156 7.0703125 C 31.011816 7.0364325 31.059266 6.961 31.072266 6.875 C 31.072266 6.76291 31.016322 6.7128406 30.919922 6.7441406 z M 14.138672 6.8828125 C 14.297622 6.9922625 14.462156 7.0793437 14.597656 7.2148438 C 14.707096 7.3242837 14.831954 7.4133406 14.964844 7.4941406 C 15.139434 7.6035806 15.269426 7.76556 15.441406 7.875 C 15.694166 8.02874 15.862502 8.2635394 16.076172 8.4746094 L 16.074219 8.4746094 C 15.998659 8.4928094 15.938794 8.4615719 15.871094 8.4511719 C 15.746024 8.4276719 15.621821 8.4231562 15.494141 8.4101562 C 15.296101 8.3892562 15.095171 8.3815187 14.894531 8.3242188 C 14.756421 8.2825187 14.595146 8.3162188 14.441406 8.3242188 C 14.329356 8.3294188 14.216862 8.338575 14.107422 8.359375 C 13.943262 8.385475 13.787864 8.28385 13.621094 8.34375 C 13.563794 8.36462 13.558619 8.2903937 13.574219 8.2460938 C 13.626339 8.0923537 13.686169 7.9434494 13.730469 7.7871094 C 13.774749 7.6229494 13.822875 7.4616919 13.859375 7.2949219 C 13.890645 7.1516119 13.962194 7.0046256 14.058594 6.8847656 C 14.084694 6.8557656 14.115172 6.8672125 14.138672 6.8828125 z M 10.890625 7.6230469 C 10.898425 7.7272769 10.930781 7.7961531 10.925781 7.8769531 C 10.910141 8.1297131 11.0104 8.3618325 11.0625 8.6015625 C 11.0756 8.6667025 11.09075 8.734375 11.09375 8.796875 C 11.10156 8.906285 10.983156 8.9193 10.910156 8.9375 C 10.683456 8.9922 10.443494 8.9882313 10.208984 9.0195312 C 10.107354 9.0300313 10.017628 9.0162469 9.9238281 8.9980469 C 9.7674881 8.9719469 9.6185763 8.9987313 9.4726562 9.0195312 C 9.4231662 9.0273312 9.3711437 9.0429813 9.3398438 8.9882812 C 9.9000737 8.5922113 10.351235 8.0712369 10.890625 7.6230469 z M 21.597656 8.1210938 C 21.319492 8.123375 21.009887 8.2518681 20.810547 8.3925781 C 20.380597 8.6974481 20.256671 10.176581 21.056641 9.9316406 C 21.239041 9.8795306 21.729722 9.6307819 21.888672 9.7636719 C 22.240452 10.063342 22.246226 9.9828412 22.035156 10.363281 C 21.792826 10.790621 21.58605 11.191131 21.40625 11.644531 C 21.19015 12.178711 21.181641 12.717086 21.181641 13.316406 C 21.181641 13.480576 21.111216 14.355406 21.291016 14.441406 C 21.436956 14.514366 21.401609 14.900318 21.537109 15.017578 C 21.901909 15.348508 22.062914 15.857239 22.458984 16.162109 C 22.331304 16.326279 22.14073 16.538343 21.96875 16.658203 C 21.8984 16.707703 21.628297 16.638037 21.529297 16.648438 C 21.135827 16.684918 20.896627 16.813606 20.654297 17.128906 C 20.338997 17.551036 20.578552 18.008289 20.951172 18.287109 C 21.102312 18.404359 21.936156 18.147241 22.035156 17.988281 C 22.152416 17.790251 22.310522 17.73454 22.294922 17.46875 C 22.289922 17.33586 22.258422 17.143305 22.294922 17.015625 C 22.370492 16.757655 22.717956 16.438044 22.947266 16.615234 C 23.192206 16.800244 23.472491 16.925689 23.738281 17.074219 C 24.030121 17.230559 24.322073 17.287047 24.626953 17.373047 C 24.910973 17.453827 25.231595 17.549437 25.515625 17.585938 C 25.903875 17.635438 26.258881 17.636744 26.644531 17.652344 C 27.032781 17.667984 27.354599 17.507875 27.724609 17.421875 C 27.878349 17.390605 28.434825 16.931591 28.546875 16.962891 C 28.841325 17.043671 29.109859 17.536362 29.380859 17.695312 C 29.657049 17.859472 30.099824 17.644704 29.740234 17.371094 C 29.414514 17.126154 29.108911 16.849772 28.806641 16.576172 C 29.181871 16.240032 29.382713 15.777634 29.539062 15.308594 C 29.651103 14.977664 29.811791 14.618054 29.837891 14.271484 C 29.882221 13.695614 29.92196 13.085631 29.78125 12.525391 C 29.73174 12.329961 29.679785 11.863359 29.515625 11.730469 C 29.387935 11.623629 28.929613 10.701259 29.007812 10.630859 C 29.158953 10.503179 29.27073 10.322333 29.4375 10.220703 C 29.63033 10.103403 29.872265 10.188806 30.078125 10.128906 C 30.554955 9.9829862 30.581397 9.6519594 30.591797 9.2246094 C 30.594407 8.9979094 30.503477 8.41405 30.154297 8.46875 C 29.771257 8.53128 29.12768 8.60649 29 9.0625 C 28.88539 9.48202 29.228116 9.8715706 28.816406 10.150391 C 28.607946 10.293721 28.589946 10.353613 28.410156 10.189453 C 28.277256 10.069593 28.182382 9.9499331 28.039062 9.8457031 C 27.718563 9.6085831 27.368701 9.4480325 27.019531 9.2578125 C 26.847551 9.1640025 26.622502 9.0319094 26.445312 8.9746094 C 26.307212 8.9277194 26.041737 8.93235 25.929688 8.84375 C 25.520588 8.52846 24.819946 8.7748062 24.353516 8.6914062 C 24.285766 8.6783762 24.07038 8.8418219 23.96875 8.8574219 C 23.78114 8.8886919 23.527441 8.9713125 23.363281 9.0703125 C 23.141791 9.2058125 22.645253 9.4236756 22.533203 9.6660156 C 22.434183 9.4549456 22.086797 9.4096244 22.091797 9.2089844 C 22.097027 9.0109444 22.250013 8.8816713 22.195312 8.6132812 C 22.121047 8.2445663 21.87582 8.1188125 21.597656 8.1210938 z M 22.458984 16.162109 C 22.352154 16.081309 22.339124 16.315849 22.458984 16.162109 z M 21.507812 8.6035156 C 21.692633 8.6182342 21.815496 8.738115 21.707031 9.0117188 C 21.608011 9.2566587 21.403163 9.479375 21.126953 9.484375 C 21.022723 9.486975 20.798778 9.2591563 20.830078 9.1601562 C 20.716072 8.8442063 21.199778 8.5789847 21.507812 8.6035156 z M 29.84375 8.9160156 C 29.893737 8.9147994 29.943006 8.9254387 29.990234 8.953125 C 30.506174 9.252785 30.153928 9.7284906 29.679688 9.7753906 C 29.139314 9.5656269 29.493838 8.9245291 29.84375 8.9160156 z M 12.851562 8.9375 C 12.88316 8.9440125 12.91145 8.9609312 12.9375 8.9882812 C 12.9844 9.0404113 12.936181 9.0865719 12.925781 9.1386719 C 12.886691 9.3262919 12.841225 9.5148631 12.765625 9.6894531 C 12.692695 9.8510031 12.700587 10.034409 12.617188 10.193359 C 12.546888 10.323649 12.569678 10.475821 12.517578 10.619141 C 12.465468 10.783301 12.397803 10.9348 12.345703 11.09375 C 12.322203 11.17713 12.339259 11.28385 12.255859 11.34375 C 12.211549 11.19522 12.193434 11.046952 12.115234 10.914062 C 12.042264 10.781173 12.002588 10.628989 11.992188 10.480469 C 11.979157 10.290249 11.876978 10.129666 11.830078 9.9472656 C 11.814478 9.8769056 11.777344 9.7923094 11.777344 9.7246094 C 11.777344 9.5943194 11.733778 9.4779387 11.705078 9.3554688 C 11.694678 9.2981188 11.697241 9.2682875 11.744141 9.2421875 C 11.830131 9.1926975 11.913353 9.135475 12.001953 9.109375 C 12.249503 9.046835 12.500497 9.0006594 12.748047 8.9433594 C 12.785827 8.9342594 12.819965 8.9309875 12.851562 8.9375 z M 24.679688 9.0800781 C 24.787499 9.0768156 24.901666 9.0833437 24.947266 9.0898438 C 25.215666 9.1237237 25.491768 9.14054 25.111328 9.28125 C 24.970618 9.33337 24.692066 9.7520156 24.634766 9.7285156 C 24.465396 9.6607656 23.859243 9.7100831 24.070312 10.033203 C 24.229262 10.272933 24.742772 9.9626156 24.826172 10.416016 C 24.896532 10.799066 25.769401 10.874481 25.988281 10.650391 C 26.212321 10.431511 26.2865 10.232619 26.1875 9.9121094 C 26.15623 9.8000594 25.753234 9.3320938 25.802734 9.2460938 C 25.891334 9.0871437 27.510984 9.9263306 27.646484 10.087891 C 27.792404 10.259871 28.150378 10.425646 28.205078 10.660156 C 28.218108 10.735726 27.789709 11.155603 27.724609 11.220703 C 27.297269 11.653253 26.798421 12.022508 26.394531 12.486328 C 26.324171 12.348228 25.993584 12.131047 25.839844 12.123047 C 25.633994 12.112647 25.432413 12.061816 25.226562 12.041016 C 25.046762 12.030616 24.924525 12.239685 24.828125 12.078125 C 24.760375 11.960865 24.606825 11.896557 24.515625 11.779297 C 24.400975 11.635977 24.2735 11.499428 24.15625 11.361328 C 23.89567 11.056458 23.632328 10.753434 23.361328 10.458984 C 23.194558 10.281794 22.748539 10.050272 23.011719 9.8261719 C 23.134189 9.7219419 23.548169 9.6107463 23.605469 9.5039062 C 23.767029 9.1937763 24.272019 9.37775 24.449219 9.125 C 24.470064 9.09505 24.571876 9.0833406 24.679688 9.0800781 z M 11.142578 9.2558594 C 11.189498 9.2558594 11.223341 9.2629875 11.244141 9.3046875 C 11.304101 9.4193475 11.331981 9.5428988 11.363281 9.6679688 C 11.404981 9.8581888 11.414013 10.053921 11.445312 10.244141 C 11.458343 10.340561 11.5469 10.425084 11.5625 10.521484 C 11.59117 10.690854 11.650341 10.850159 11.681641 11.011719 C 11.684241 11.032619 11.692725 11.048194 11.703125 11.058594 C 11.786545 11.134164 11.823609 11.241491 11.849609 11.337891 C 11.891359 11.483811 11.854754 11.6536 11.958984 11.75 C 11.961584 11.84643 11.867188 11.909522 11.804688 11.857422 C 11.749968 11.815722 11.697938 11.809278 11.648438 11.830078 C 11.499907 11.900438 11.372475 11.793603 11.234375 11.783203 C 11.067605 11.767573 10.921326 11.682984 10.759766 11.646484 C 10.741566 11.641184 10.723278 11.619141 10.705078 11.619141 C 10.486198 11.666041 10.368584 11.496791 10.214844 11.400391 C 10.061104 11.303971 9.9180588 11.192103 9.7617188 11.095703 C 9.7252187 11.069603 9.7357313 11.035866 9.7070312 11.009766 C 9.5897713 10.887296 9.4257812 10.800224 9.3632812 10.646484 C 9.2772913 10.438024 9.0300313 10.382291 8.9570312 10.181641 C 8.8971013 10.027911 8.7818969 9.9082881 8.7167969 9.7675781 C 8.6646969 9.6451081 8.6464594 9.4961788 8.6308594 9.3554688 C 8.6230394 9.2954687 8.6965812 9.2526375 8.7382812 9.2734375 C 8.8920212 9.3593375 9.0519875 9.3279375 9.2109375 9.3359375 C 9.4063775 9.3463375 9.5942894 9.335925 9.7871094 9.390625 C 9.8496494 9.408925 9.9315531 9.3814937 10.001953 9.3710938 C 10.296403 9.3398937 10.603985 9.4010875 10.890625 9.3046875 C 10.974005 9.2785875 11.053978 9.2558594 11.142578 9.2558594 z M 14.408203 9.2871094 C 14.361303 9.2740594 14.32391 9.2939281 14.296875 9.3222656 C 14.296875 9.3222656 14.294922 9.3222656 14.294922 9.3222656 C 14.268201 9.3509331 14.250634 9.390625 14.240234 9.421875 C 14.180304 9.625125 14.120447 9.8338594 14.060547 10.037109 C 14.050396 10.066201 14.049087 10.09205 14.039062 10.105469 C 14.028138 10.117809 14.010039 10.117829 13.962891 10.089844 C 13.902991 10.050744 13.800159 10.059166 13.755859 10.134766 C 13.755859 10.134766 13.753906 10.136719 13.753906 10.136719 C 13.696781 10.229618 13.62314 10.313792 13.550781 10.396484 C 13.549586 10.397809 13.548069 10.399069 13.546875 10.400391 C 13.445295 10.507221 13.473868 10.642553 13.617188 10.689453 C 13.679707 10.710253 13.714819 10.748656 13.761719 10.785156 C 13.884189 10.871116 13.927669 10.865956 14.037109 10.753906 C 14.038563 10.752432 14.039538 10.753467 14.041016 10.751953 C 14.060894 10.732075 14.076558 10.705766 14.095703 10.683594 C 14.116546 10.660787 14.142541 10.642578 14.181641 10.642578 C 14.270226 10.642578 14.332326 10.603871 14.373047 10.552734 C 14.414088 10.501596 14.434891 10.434282 14.441406 10.373047 C 14.467344 10.105302 14.514212 9.8399976 14.527344 9.5722656 L 14.527344 9.5703125 L 14.527344 9.46875 C 14.535344 9.37755 14.494173 9.3079594 14.408203 9.2871094 z M 10.513672 9.8730469 C 10.406837 9.8795569 10.304097 9.8941887 10.205078 9.921875 C 10.106661 9.9495464 10.011901 9.9918144 9.9199219 10.048828 C 9.8626219 10.085328 9.8547344 10.128894 9.8652344 10.183594 C 9.8808344 10.243494 9.9172694 10.256519 9.9746094 10.261719 C 10.020836 10.265661 10.066121 10.275841 10.097656 10.298828 C 10.128434 10.322715 10.147647 10.360246 10.138672 10.425781 C 10.133672 10.472681 10.135672 10.517553 10.138672 10.564453 C 10.141172 10.615263 10.158491 10.657534 10.1875 10.685547 C 10.216551 10.714335 10.257087 10.727928 10.308594 10.722656 C 10.386794 10.722656 10.464799 10.7032 10.542969 10.6875 C 10.582069 10.6823 10.61262 10.687813 10.632812 10.705078 C 10.653009 10.722336 10.662109 10.751262 10.662109 10.789062 C 10.662109 10.890693 10.663016 10.985631 10.666016 11.082031 C 10.6713 11.149348 10.694769 11.194352 10.732422 11.214844 C 10.769089 11.234799 10.819101 11.232065 10.876953 11.205078 C 10.922042 11.184462 10.954416 11.154107 10.976562 11.119141 C 10.999211 11.083382 11.010399 11.04221 11.011719 10.996094 C 11.019719 10.818904 11.003084 10.638777 11.021484 10.466797 C 11.029363 10.383888 11.010955 10.32709 10.970703 10.291016 C 10.930966 10.254867 10.869843 10.240894 10.789062 10.246094 C 10.788032 10.24617 10.788129 10.24602 10.787109 10.246094 C 10.699829 10.252609 10.650736 10.249366 10.626953 10.222656 C 10.603176 10.195955 10.604807 10.145252 10.623047 10.060547 C 10.638647 9.9641469 10.586612 9.8704369 10.513672 9.8730469 z M 22.535156 10.318359 C 23.032856 10.868169 23.540721 11.402643 24.025391 11.970703 C 24.090531 12.051473 24.686936 12.509778 24.541016 12.580078 C 24.428956 12.629588 24.397106 13.089122 24.378906 13.201172 C 24.352846 13.378362 24.512301 13.703048 24.619141 13.835938 C 24.845841 14.125177 24.489695 14.258991 24.296875 14.457031 C 23.840865 14.926071 23.326482 15.331766 22.826172 15.753906 C 22.654192 15.897216 22.470094 15.412756 22.371094 15.347656 C 22.261684 15.264266 22.308669 15.18495 22.230469 15.09375 C 22.154899 15.01298 22.037134 15.043041 21.990234 14.925781 C 21.719234 14.300401 21.585938 13.740654 21.585938 13.052734 C 21.585938 12.002614 22.060906 11.225159 22.535156 10.318359 z M 28.5625 11.128906 C 28.779993 11.136102 29.019488 11.747307 29.101562 11.888672 C 29.375183 12.357712 29.434203 13.00749 29.470703 13.53125 C 29.470703 13.85697 29.456564 14.910678 29.146484 15.111328 C 29.089154 15.150408 28.529969 16.324966 28.480469 16.259766 C 28.120879 15.780306 27.592047 15.40652 27.185547 14.96875 C 27.010967 14.78114 26.591884 14.434393 26.521484 14.189453 C 26.503244 14.129523 26.667347 13.991616 26.685547 13.916016 C 26.706247 13.803966 26.717844 13.691479 26.714844 13.574219 C 26.714844 13.287589 26.602109 12.992962 26.787109 12.794922 C 27.003389 12.565622 27.235541 12.357562 27.457031 12.138672 C 27.787961 11.807742 28.199703 11.421376 28.470703 11.166016 C 28.500343 11.139307 28.53143 11.127878 28.5625 11.128906 z M 23.167969 11.921875 C 23.062435 11.914713 22.956449 11.912084 22.849609 11.927734 L 22.849609 11.925781 C 22.793917 11.925781 22.738969 11.926612 22.683594 11.927734 C 22.626919 11.928381 22.570348 11.930263 22.513672 11.927734 C 22.399022 11.927734 22.367195 11.978441 22.359375 12.087891 C 22.356375 12.179091 22.430372 12.231086 22.451172 12.291016 C 22.451172 12.291016 22.451172 12.292969 22.451172 12.292969 C 22.451172 12.292969 22.453125 12.294922 22.453125 12.294922 C 22.484869 12.399984 22.548215 12.491164 22.550781 12.617188 C 22.550781 12.703188 22.620447 12.80463 22.623047 12.90625 C 22.628047 12.92705 22.643809 12.953784 22.662109 12.958984 C 22.716809 12.979784 22.714844 13.023372 22.714844 13.070312 C 22.716344 13.102863 22.715859 13.145482 22.724609 13.177734 C 22.733755 13.20859 22.753278 13.232422 22.798828 13.232422 C 22.798828 13.232422 22.800781 13.234375 22.800781 13.234375 C 22.907611 13.234375 23.022094 13.298251 23.121094 13.175781 C 23.178394 13.105431 23.182859 13.005213 23.255859 12.945312 C 23.357459 12.864532 23.404247 12.74226 23.435547 12.625 C 23.459047 12.54422 23.548244 12.481166 23.527344 12.384766 C 23.670644 12.319626 23.602881 12.186908 23.613281 12.080078 C 23.621096 12.034473 23.609061 12.001017 23.585938 11.978516 C 23.585938 11.978516 23.585938 11.976562 23.585938 11.976562 C 23.562815 11.954089 23.527365 11.942058 23.484375 11.939453 C 23.459044 11.939093 23.433472 11.93871 23.408203 11.9375 C 23.328022 11.93278 23.247592 11.927279 23.167969 11.921875 z M 16.181641 12.412109 C 16.130176 12.412109 16.080737 12.427081 16.054688 12.457031 C 15.960877 12.563861 15.868556 12.66921 15.785156 12.78125 C 15.727836 12.85679 15.668026 12.899072 15.566406 12.888672 C 15.459566 12.878072 15.348378 12.889531 15.236328 12.894531 C 15.106008 12.894531 15.036475 12.953057 15.046875 13.054688 C 15.059905 13.171978 15.140567 13.1979 15.242188 13.1875 C 15.393327 13.1718 15.544182 13.17705 15.695312 13.15625 C 15.830813 13.13805 16.001873 13.027239 16.126953 13.199219 C 16.134753 13.209619 16.1667 13.208984 16.1875 13.208984 C 16.35166 13.208984 16.510315 13.229759 16.671875 13.255859 C 16.750045 13.266279 16.818397 13.240297 16.841797 13.154297 C 16.862647 13.068307 16.826234 12.992897 16.740234 12.966797 C 16.602124 12.930277 16.479255 12.849634 16.328125 12.865234 C 16.286395 12.870434 16.255909 12.855519 16.224609 12.824219 C 16.258124 12.78834 16.293853 12.762698 16.322266 12.726562 C 16.382366 12.658812 16.378259 12.509131 16.318359 12.457031 C 16.287089 12.427081 16.233106 12.412109 16.181641 12.412109 z M 28.255859 12.416016 C 28.215473 12.415691 28.179705 12.428362 28.15625 12.476562 C 28.08065 12.630302 27.934266 12.742083 27.884766 12.914062 C 27.832666 13.091252 27.669952 13.208232 27.607422 13.382812 C 27.560522 13.510492 27.566991 13.618419 27.587891 13.730469 C 27.593101 13.755319 27.606435 13.767928 27.625 13.775391 C 27.625 13.775391 27.625 13.777344 27.625 13.777344 C 27.643565 13.784506 27.667293 13.785156 27.689453 13.785156 C 27.897913 13.811256 28.109243 13.832031 28.320312 13.832031 L 28.533203 13.832031 C 28.603558 13.832031 28.661752 13.808293 28.705078 13.767578 C 28.748399 13.726863 28.776036 13.669316 28.785156 13.597656 C 28.808656 13.404836 28.668606 13.229929 28.697266 13.037109 C 28.700266 13.026709 28.689888 13.011059 28.679688 13.005859 C 28.575457 12.953759 28.598965 12.827531 28.546875 12.744141 C 28.512975 12.697241 28.463537 12.638719 28.460938 12.568359 C 28.460938 12.508459 28.451706 12.440757 28.378906 12.435547 C 28.339806 12.430347 28.296246 12.416341 28.255859 12.416016 z M 7.8339844 12.865234 C 7.7324044 12.865234 7.6612031 12.950445 7.6582031 13.078125 C 7.6552031 13.169325 7.6582031 13.255163 7.6582031 13.351562 C 7.6582031 13.565202 7.6997356 13.608056 7.9160156 13.597656 C 7.9395156 13.597656 7.9660875 13.601562 7.9921875 13.601562 C 8.3048775 13.625063 8.6176594 13.656934 8.9121094 13.677734 C 9.0345794 13.672534 9.132745 13.668156 9.234375 13.660156 C 9.336005 13.652336 9.3966719 13.588587 9.3886719 13.492188 C 9.3834619 13.380178 9.3073375 13.334009 9.2109375 13.349609 C 8.8695875 13.393909 8.5412281 13.313134 8.2050781 13.302734 C 8.0126481 13.292314 8.0127656 13.276165 8.0097656 13.078125 C 8.0045556 12.945255 7.9434244 12.865234 7.8339844 12.865234 z M 14.005859 12.935547 C 13.846899 12.935547 13.690857 12.988219 13.529297 13.011719 C 13.430287 13.027349 13.368519 13.08588 13.386719 13.1875 C 13.404959 13.29955 13.484325 13.311181 13.578125 13.300781 C 13.731865 13.282481 13.872947 13.235469 14.029297 13.230469 C 14.157017 13.230469 14.233056 13.149134 14.222656 13.052734 C 14.209626 12.914674 14.110089 12.925147 14.005859 12.935547 z M 17.208984 13.027344 C 17.115194 13.016924 17.050072 13.094994 17.076172 13.183594 C 17.094412 13.272244 17.154894 13.320997 17.246094 13.341797 C 17.436314 13.383477 17.62228 13.42705 17.8125 13.46875 C 17.90892 13.4896 17.971984 13.428431 17.958984 13.332031 C 17.948564 13.240841 17.897194 13.175097 17.808594 13.154297 C 17.610554 13.107407 17.409634 13.069044 17.208984 13.027344 z M 12.865234 13.052734 C 12.703674 13.037034 12.562592 13.097681 12.414062 13.113281 C 12.174333 13.139281 11.945457 13.172484 11.710938 13.208984 C 11.591068 13.224614 11.522169 13.299425 11.542969 13.390625 C 11.569029 13.513075 11.662059 13.519506 11.755859 13.503906 C 11.925229 13.480406 12.091692 13.459694 12.263672 13.433594 C 12.276672 13.516934 12.205141 13.539037 12.181641 13.585938 C 12.132111 13.697987 12.17181 13.796241 12.28125 13.806641 C 12.36203 13.817081 12.41665 13.763684 12.46875 13.708984 C 12.5365 13.620394 12.6328 13.550839 12.6875 13.449219 C 12.73179 13.363219 12.815684 13.361963 12.896484 13.351562 C 13.005934 13.330723 13.079394 13.240297 13.058594 13.154297 C 13.029934 13.047667 12.948634 13.063134 12.865234 13.052734 z M 10.556641 13.3125 C 10.439381 13.3021 10.319074 13.317713 10.214844 13.382812 C 10.128944 13.440143 10.122959 13.574206 10.193359 13.628906 C 10.289769 13.709686 10.622362 13.61726 10.664062 13.5 C 10.666463 13.4844 10.668828 13.470019 10.673828 13.449219 C 10.668618 13.378819 10.637441 13.3175 10.556641 13.3125 z M 16.992188 13.935547 C 16.869737 13.930337 16.851537 14.005802 16.835938 14.107422 C 16.817837 14.224682 16.810547 14.337818 16.810547 14.455078 C 16.815747 14.520278 16.794262 14.545556 16.726562 14.535156 C 16.695263 14.524556 16.664759 14.524531 16.630859 14.519531 C 16.497969 14.498681 16.430309 14.535089 16.412109 14.636719 C 16.396479 14.743549 16.468028 14.839209 16.580078 14.849609 C 16.780718 14.870459 16.964719 14.951856 17.167969 14.972656 C 17.522349 15.006536 17.857876 15.135343 18.191406 15.257812 C 18.248736 15.278713 18.307909 15.291028 18.349609 15.236328 C 18.391209 15.192028 18.388634 15.129553 18.365234 15.064453 C 18.333944 15.001883 18.293628 14.951806 18.236328 14.941406 C 17.999208 14.868446 17.77879 14.743531 17.53125 14.707031 C 17.44005 14.699231 17.354872 14.662744 17.263672 14.652344 C 17.164692 14.641924 17.122412 14.600981 17.132812 14.494141 C 17.140613 14.382101 17.140563 14.270253 17.164062 14.189453 L 17.164062 14.128906 C 17.153632 14.016876 17.085988 13.935547 16.992188 13.935547 z M 14.386719 14.037109 C 14.300719 14.026679 14.213984 14.107354 14.208984 14.208984 C 14.200984 14.268914 14.202078 14.337244 14.205078 14.402344 C 14.212898 14.488354 14.198627 14.541016 14.091797 14.541016 C 13.982337 14.546226 13.916041 14.646417 13.931641 14.748047 C 13.952481 14.860117 14.030536 14.886694 14.134766 14.871094 C 14.387526 14.834594 14.637218 14.850703 14.892578 14.845703 C 14.923878 14.845703 14.962916 14.839794 14.978516 14.871094 C 15.059296 15.022224 15.207666 15.122293 15.259766 15.289062 C 15.285826 15.375032 15.351513 15.430956 15.445312 15.410156 C 15.546912 15.389306 15.582031 15.31515 15.582031 15.21875 C 15.576821 15.07022 15.496808 14.962314 15.392578 14.839844 C 15.423778 14.839844 15.442737 14.835078 15.460938 14.830078 C 15.606897 14.824868 15.674016 14.763744 15.666016 14.646484 C 15.658196 14.539644 15.595146 14.494141 15.441406 14.494141 C 15.235556 14.499541 15.028116 14.503906 14.822266 14.503906 C 14.535416 14.514326 14.534297 14.509943 14.529297 14.220703 C 14.526697 14.119103 14.488339 14.052709 14.386719 14.037109 z M 25.193359 14.394531 C 25.252478 14.398968 25.313112 14.433544 25.375 14.513672 C 25.5548 14.737762 25.335216 15.2915 25.416016 15.5625 C 25.475936 15.76575 25.514578 15.678221 25.517578 15.957031 C 25.522778 16.152471 25.466075 16.479699 25.546875 16.662109 C 25.760545 17.110299 26.127733 16.123047 25.914062 16.123047 C 25.914062 15.878107 25.526956 14.157336 26.160156 14.503906 C 26.425936 14.647216 26.885977 15.225094 27.029297 15.496094 C 27.091837 15.613354 27.314403 15.710241 27.408203 15.806641 C 27.528073 15.931721 27.633389 16.06503 27.755859 16.1875 C 27.883549 16.31258 28.035741 16.445884 28.150391 16.583984 C 28.244201 16.696034 28.011731 16.716709 27.957031 16.787109 C 27.824131 16.961699 27.358201 17.111963 27.144531 17.164062 C 26.399291 17.333423 25.747857 17.190165 24.992188 17.078125 C 24.392868 16.986925 23.528228 16.678029 23.142578 16.193359 C 23.040948 16.060469 24.510959 14.959089 24.693359 14.787109 C 24.851662 14.642509 25.016005 14.381222 25.193359 14.394531 z M 13.117188 14.630859 C 12.932187 14.654259 12.746853 14.671166 12.564453 14.697266 C 12.441953 14.718116 12.378272 14.787691 12.388672 14.894531 C 12.399102 15.011821 12.484952 15.032344 12.607422 15.027344 C 12.550022 15.128974 12.526297 15.225848 12.529297 15.330078 C 12.537117 15.410838 12.559838 15.476588 12.648438 15.492188 C 12.729217 15.497397 12.817078 15.4714 12.830078 15.375 C 12.850928 15.25774 12.904209 15.166712 12.974609 15.070312 C 13.021509 15.005152 13.053331 14.953125 13.144531 14.953125 C 13.248781 14.953125 13.320934 14.861386 13.302734 14.759766 C 13.287104 14.647686 13.216188 14.620459 13.117188 14.630859 z M 9.1855469 14.634766 C 9.0865569 14.634766 9.0247187 14.685489 9.0117188 14.787109 C 9.0037187 14.828779 9.0058594 14.868456 9.0058594 14.910156 C 9.0162794 15.022196 8.9720719 15.069453 8.8574219 15.064453 C 8.5369119 15.051453 8.22155 15.064466 7.90625 15.009766 C 7.81247 14.988926 7.744775 15.035099 7.734375 15.136719 C 7.729165 15.233129 7.7811875 15.315312 7.8671875 15.320312 C 8.0104975 15.322913 8.14054 15.375 8.28125 15.375 C 8.51316 15.38 8.7400419 15.375 9.0449219 15.375 C 9.3107019 15.3593 9.6521412 15.352869 9.9882812 15.292969 C 10.092531 15.282549 10.156884 15.207728 10.146484 15.111328 C 10.136064 15.009728 10.071009 14.978516 9.9746094 14.978516 C 9.8417194 14.970716 9.7123287 15.03125 9.5742188 15.03125 C 9.3422887 15.02604 9.3400312 15.030091 9.3320312 14.800781 C 9.3294212 14.704411 9.2845469 14.639766 9.1855469 14.634766 z M 11.337891 14.894531 C 11.116391 14.904951 11.020437 14.960211 11.023438 15.087891 C 11.023438 15.194711 11.082606 15.235469 11.197266 15.230469 C 11.395316 15.225259 11.500187 15.160234 11.492188 15.027344 C 11.489577 14.936154 11.436891 14.889531 11.337891 14.894531 z M 16.080078 15.628906 C 15.983678 15.613276 15.932337 15.665953 15.898438 15.751953 C 15.869737 15.822313 15.872141 15.900303 15.869141 15.970703 C 15.861321 16.121863 15.841233 16.137812 15.695312 16.132812 L 15.400391 16.132812 C 15.262251 16.132812 15.199219 16.195897 15.199219 16.310547 C 15.199219 16.425217 15.262288 16.486963 15.392578 16.476562 C 15.634908 16.458362 15.872894 16.517578 16.115234 16.517578 C 16.414894 16.517578 16.708145 16.582641 17.015625 16.619141 C 17.091145 16.619141 17.154109 16.591854 17.162109 16.490234 C 17.169929 16.388604 17.104212 16.285791 17.007812 16.275391 C 16.755052 16.233661 16.508619 16.205128 16.255859 16.173828 C 16.196159 16.168628 16.1614 16.169984 16.1875 16.083984 C 16.2132 16.000604 16.198597 15.907606 16.216797 15.816406 C 16.235037 15.725196 16.181708 15.644506 16.080078 15.628906 z M 10.316406 16.070312 C 10.217406 16.065103 10.124366 16.112584 10.134766 16.208984 C 10.147796 16.386134 10.011122 16.386009 9.9199219 16.412109 C 9.8495619 16.430309 9.7722062 16.449903 9.6914062 16.470703 C 9.7174062 16.415983 9.7323594 16.375025 9.7558594 16.328125 C 9.7975594 16.247345 9.7767719 16.172559 9.7011719 16.130859 C 9.6204019 16.081359 9.539075 16.107334 9.484375 16.177734 C 9.398385 16.294994 9.3079469 16.412032 9.2480469 16.544922 C 9.2193869 16.610022 9.1751219 16.634766 9.1074219 16.634766 C 8.8703019 16.639966 8.6362069 16.651709 8.4042969 16.599609 C 8.3183069 16.578759 8.2480969 16.615172 8.2167969 16.701172 C 8.1881369 16.792372 8.2115344 16.862597 8.3027344 16.904297 C 8.3600544 16.925097 8.4152687 16.946172 8.4804688 16.951172 C 9.0745787 16.995472 9.6624063 16.925097 10.253906 16.904297 C 10.368566 16.899097 10.488209 16.87505 10.605469 16.84375 C 10.696679 16.83333 10.759741 16.732484 10.744141 16.646484 C 10.718081 16.550024 10.653041 16.513697 10.556641 16.529297 C 10.530541 16.529297 10.503956 16.528203 10.472656 16.533203 C 10.433956 16.533203 10.428641 16.529322 10.431641 16.482422 C 10.444641 16.404252 10.440359 16.318422 10.443359 16.232422 C 10.448579 16.146462 10.410206 16.080713 10.316406 16.070312 z M 7.7363281 16.251953 C 7.6424981 16.251953 7.5878906 16.315709 7.5878906 16.412109 C 7.5828906 16.487669 7.5878906 16.559166 7.5878906 16.634766 C 7.5878906 16.710336 7.5798906 16.793628 7.5878906 16.861328 C 7.5931006 16.960378 7.6503406 17.016484 7.7441406 17.021484 C 7.8352906 17.026694 7.90325 16.978578 7.90625 16.892578 C 7.91725 16.725808 7.9577031 16.557395 7.9082031 16.390625 C 7.8873531 16.304615 7.8327281 16.246953 7.7363281 16.251953 z M 13.802734 16.251953 C 13.659414 16.261953 13.516352 16.294313 13.388672 16.257812 C 12.877952 16.283863 12.387661 16.352184 11.900391 16.396484 C 11.822241 16.406904 11.772841 16.449131 11.744141 16.519531 C 11.723341 16.589891 11.729809 16.653613 11.787109 16.695312 C 11.839209 16.736973 11.815088 16.7656 11.804688 16.8125 C 11.786448 16.9037 11.68495 16.941344 11.65625 17.027344 C 11.62755 17.113334 11.632725 17.185534 11.703125 17.240234 C 11.773485 17.289734 11.852209 17.268884 11.912109 17.208984 C 11.935509 17.185484 11.955763 17.158912 11.976562 17.132812 C 12.078183 16.994702 12.179638 16.865976 12.273438 16.722656 C 12.294338 16.696356 12.319603 16.696406 12.345703 16.691406 C 12.616703 16.667906 12.883954 16.641334 13.152344 16.615234 C 13.233134 16.610004 13.261756 16.651038 13.285156 16.710938 C 13.332086 16.812558 13.365919 16.919849 13.386719 17.037109 C 13.407559 17.133489 13.468682 17.184863 13.570312 17.164062 C 13.661493 17.148423 13.729872 17.046943 13.701172 16.945312 C 13.690772 16.898422 13.687687 16.8594 13.679688 16.8125 C 13.669287 16.75257 13.615272 16.672559 13.638672 16.630859 C 13.675162 16.573559 13.768784 16.60935 13.833984 16.59375 C 13.930394 16.57811 13.994116 16.492884 13.978516 16.396484 C 13.965486 16.294864 13.904354 16.241553 13.802734 16.251953 z M 17.751953 16.429688 C 17.719379 16.430013 17.688159 16.441363 17.662109 16.476562 C 17.610009 16.557343 17.623034 16.640538 17.677734 16.710938 C 17.779324 16.817767 17.824169 16.946524 17.855469 17.089844 C 17.873669 17.154984 17.875597 17.227209 17.904297 17.287109 C 17.943387 17.373079 18.005792 17.430956 18.107422 17.410156 C 18.206422 17.397126 18.196631 17.312587 18.207031 17.242188 C 18.220131 17.143168 18.167284 17.062562 18.146484 16.976562 C 18.138684 16.921762 18.118419 16.889991 18.199219 16.900391 C 18.300819 16.913421 18.334891 16.843808 18.337891 16.742188 C 18.327471 16.656197 18.281962 16.578175 18.169922 16.546875 C 18.065692 16.510375 17.955793 16.482472 17.851562 16.451172 C 17.817687 16.440772 17.784527 16.429362 17.751953 16.429688 z M 21.587891 17.050781 C 21.746064 17.081562 21.831981 17.20302 21.894531 17.367188 C 21.899751 17.778928 21.420114 17.867897 21.115234 17.841797 C 21.037064 17.836587 20.833263 17.566494 20.914062 17.496094 C 21.127733 17.324114 21.068157 17.107434 21.404297 17.052734 C 21.475304 17.041009 21.535166 17.040521 21.587891 17.050781 z M 15.603516 17.230469 C 15.509656 17.230469 15.449406 17.287047 15.441406 17.373047 C 15.425806 17.576297 15.442028 17.779172 15.486328 17.982422 C 15.512388 18.089222 15.598253 18.141234 15.689453 18.115234 C 15.798893 18.078754 15.811828 17.998744 15.798828 17.902344 C 15.778028 17.772064 15.7656 17.638749 15.75 17.505859 L 15.757812 17.505859 C 15.757812 17.453759 15.762813 17.408887 15.757812 17.367188 C 15.739572 17.283777 15.686916 17.230469 15.603516 17.230469 z M 14.394531 17.746094 C 14.162621 17.761694 13.927215 17.773463 13.703125 17.789062 C 13.598865 17.799482 13.532569 17.881451 13.542969 17.988281 C 13.553389 18.089901 13.614505 18.141259 13.734375 18.130859 C 13.804725 18.125659 13.879566 18.125634 13.947266 18.115234 C 14.231296 18.073534 14.516102 18.104834 14.794922 18.115234 C 14.907002 18.115234 14.971797 18.054745 14.966797 17.953125 C 14.966797 17.851545 14.912177 17.77625 14.810547 17.78125 C 14.667237 17.78125 14.535241 17.735694 14.394531 17.746094 z M 16.451172 17.804688 C 16.339082 17.786448 16.273438 17.842374 16.273438 17.964844 C 16.283858 18.061254 16.340428 18.126991 16.455078 18.150391 C 16.835518 18.220751 17.221122 18.293541 17.601562 18.369141 C 17.807423 18.403021 17.997929 18.496741 18.193359 18.556641 C 18.321079 18.600941 18.395166 18.546313 18.384766 18.408203 C 18.374336 18.296153 18.315832 18.220753 18.201172 18.189453 C 17.896302 18.108673 17.610869 17.994825 17.292969 17.953125 C 17.014149 17.911435 16.732592 17.856787 16.451172 17.804688 z M 13.021484 17.890625 C 12.865144 17.895925 12.71363 17.919238 12.5625 17.960938 C 12.45823 17.992207 12.423853 18.079381 12.439453 18.175781 C 12.457693 18.277361 12.525333 18.323534 12.626953 18.302734 C 12.765063 18.268834 12.907471 18.244116 13.050781 18.228516 C 13.152421 18.225916 13.193172 18.147206 13.201172 18.066406 C 13.198562 17.943916 13.130924 17.885625 13.021484 17.890625 z M 11.587891 18.035156 C 11.163151 18.071586 10.737887 18.104125 10.310547 18.140625 C 10.167207 18.156265 10.098303 18.284429 10.158203 18.412109 C 10.210323 18.513809 10.300716 18.493281 10.410156 18.488281 C 10.496146 18.482981 10.602801 18.473291 10.707031 18.462891 C 11.011911 18.434191 11.313611 18.412159 11.613281 18.380859 C 11.733171 18.370439 11.801416 18.289784 11.791016 18.177734 C 11.780586 18.060524 11.725991 18.024756 11.587891 18.035156 z M 7.7753906 18.085938 L 7.7753906 18.087891 C 7.6842406 18.082681 7.6232344 18.115184 7.6152344 18.208984 C 7.6048144 18.305404 7.6711606 18.392603 7.7753906 18.408203 C 7.8900506 18.423903 8.0018906 18.438819 8.1191406 18.449219 C 8.3979606 18.470019 8.6827744 18.486353 8.9589844 18.501953 C 9.0761944 18.507163 9.1464844 18.431698 9.1464844 18.330078 C 9.1412744 18.228408 9.0951113 18.162109 8.9882812 18.162109 C 8.5817813 18.146409 8.1766806 18.138037 7.7753906 18.085938 z M 15.197266 19.064453 C 16.035714 19.07138 16.829383 19.229414 17.591797 19.505859 C 17.688916 19.541079 17.788757 19.56605 17.884766 19.605469 C 17.884766 19.605469 17.886719 19.605469 17.886719 19.605469 C 18.169782 19.721764 18.446968 19.855664 18.720703 20.007812 C 18.720703 20.007812 18.722656 20.009766 18.722656 20.009766 C 18.731642 20.010987 18.740745 20.020054 18.751953 20.029297 C 18.633928 20.150609 18.495877 20.199046 18.345703 20.222656 C 18.290282 20.231013 18.239378 20.2469 18.177734 20.246094 C 14.451514 20.241094 10.734032 20.242188 7.0078125 20.242188 L 6.0878906 20.242188 C 6.0617906 20.242188 6.0253656 20.253297 6.0097656 20.216797 C 5.9996875 20.194024 6.0189294 20.163347 6.0390625 20.142578 C 6.0390625 20.142578 6.0410156 20.140625 6.0410156 20.140625 C 6.1634906 19.993405 6.28833 19.846113 6.421875 19.707031 C 6.5404141 19.583065 6.6673886 19.469348 6.8046875 19.365234 C 6.8211885 19.352501 6.8347369 19.336585 6.8515625 19.324219 C 6.8515625 19.324219 6.8535156 19.322266 6.8535156 19.322266 C 6.9042843 19.281881 6.9564216 19.27097 7.015625 19.269531 C 7.0298787 19.269038 7.0431673 19.266486 7.0585938 19.267578 C 7.0657724 19.268012 7.0729182 19.268351 7.0800781 19.269531 C 7.6377081 19.371161 8.200175 19.430317 8.765625 19.466797 C 8.984505 19.479797 9.2049381 19.486328 9.4238281 19.486328 C 9.4924432 19.486328 9.5604145 19.477614 9.6289062 19.476562 C 9.8719401 19.472577 10.114932 19.459129 10.357422 19.443359 C 10.471772 19.43591 10.586874 19.437557 10.701172 19.427734 C 11.264022 19.380834 11.829728 19.306673 12.392578 19.251953 C 12.767798 19.220653 13.143644 19.192116 13.521484 19.166016 C 13.789874 19.141266 14.055177 19.114921 14.322266 19.095703 C 14.613372 19.075115 14.904742 19.061842 15.197266 19.064453 z M 23.099609 19.076172 C 23.292857 19.07321 23.48647 19.071077 23.681641 19.082031 C 24.497241 19.126331 25.314602 19.199131 26.132812 19.269531 C 26.870242 19.334681 27.598508 19.446656 28.335938 19.472656 C 28.388422 19.474163 28.441555 19.472824 28.494141 19.474609 C 28.692399 19.481247 28.889607 19.488281 29.089844 19.488281 C 29.163261 19.488281 29.238313 19.484716 29.3125 19.482422 C 29.351003 19.481092 29.389228 19.48657 29.427734 19.484375 C 30.063534 19.442675 30.691683 19.393305 31.314453 19.265625 C 31.33886 19.260179 31.359451 19.265603 31.380859 19.269531 C 31.409833 19.275374 31.437719 19.286575 31.464844 19.302734 C 31.475177 19.309255 31.485701 19.312749 31.496094 19.320312 C 31.811384 19.547012 32.066256 19.837708 32.316406 20.142578 C 32.337027 20.163003 32.357407 20.191184 32.34375 20.216797 C 32.34237 20.219223 32.339518 20.218722 32.337891 20.220703 C 32.321713 20.246763 32.291448 20.243189 32.263672 20.242188 C 32.261911 20.242062 32.25945 20.242188 32.257812 20.242188 L 31.259766 20.242188 L 20.017578 20.242188 C 19.835178 20.242188 19.743591 20.109423 19.582031 20.039062 C 19.792306 19.922242 19.998374 19.817809 20.205078 19.722656 C 20.205078 19.722656 20.207031 19.720703 20.207031 19.720703 C 20.413739 19.626026 20.622415 19.544032 20.833984 19.46875 C 21.259553 19.318465 21.691648 19.216854 22.128906 19.152344 C 22.449076 19.105689 22.772931 19.081046 23.099609 19.076172 z M 19.183594 20.160156 C 19.238294 20.160156 19.289684 20.171813 19.333984 20.195312 C 19.654057 20.37877 19.930563 20.605339 20.152344 20.886719 C 20.22594 20.980324 20.293857 21.079188 20.355469 21.185547 C 20.355469 21.185547 20.355469 21.1875 20.355469 21.1875 C 20.375019 21.21745 20.384438 21.242169 20.382812 21.267578 C 20.3806 21.292267 20.369056 21.318562 20.34375 21.347656 C 20.34375 21.347656 20.341797 21.349609 20.341797 21.349609 C 20.188744 21.518311 20.042987 21.688623 19.861328 21.826172 C 19.763406 21.901185 19.661741 21.962477 19.552734 22.003906 C 19.537275 22.009849 19.519641 22.008602 19.503906 22.013672 C 19.402919 22.045751 19.298348 22.066262 19.181641 22.054688 C 19.073603 22.067274 18.977347 22.045146 18.882812 22.017578 C 18.854248 22.009116 18.822535 22.009385 18.794922 21.998047 C 18.687336 21.954041 18.585606 21.891958 18.490234 21.816406 C 18.305224 21.675696 18.155693 21.496199 18.001953 21.324219 C 18.000118 21.322132 18.001628 21.320359 18 21.318359 C 17.971623 21.281955 17.970573 21.257461 17.992188 21.21875 C 17.992188 21.21875 17.992188 21.216797 17.992188 21.216797 C 18.054459 21.105231 18.125984 21.00075 18.201172 20.902344 C 18.201172 20.902344 18.201172 20.900391 18.201172 20.900391 C 18.276439 20.802008 18.357765 20.710375 18.445312 20.625 C 18.620875 20.45367 18.821479 20.309318 19.042969 20.189453 C 19.079469 20.168653 19.128884 20.160156 19.183594 20.160156 z "
   id="path63" />
</svg>