<?xml version="1.0" encoding="UTF-8" standalone="no"?>
<!-- Created with Inkscape (http://www.inkscape.org/) -->

<svg
   xmlns:dc="http://purl.org/dc/elements/1.1/"
   xmlns:cc="http://creativecommons.org/ns#"
   xmlns:rdf="http://www.w3.org/1999/02/22-rdf-syntax-ns#"
   xmlns:svg="http://www.w3.org/2000/svg"
   xmlns="http://www.w3.org/2000/svg"
   xmlns:sodipodi="http://sodipodi.sourceforge.net/DTD/sodipodi-0.dtd"
   xmlns:inkscape="http://www.inkscape.org/namespaces/inkscape"
   width="9.6346092mm"
   height="7.4294758mm"
   viewBox="0 0 9.6346092 7.4294758"
   version="1.1"
   id="svg4800"
   inkscape:version="0.92.0 r15299"
   sodipodi:docname="icon-eye-full.svg">
  <defs
     id="defs4794" />
  <sodipodi:namedview
     id="base"
     pagecolor="#ffffff"
     bordercolor="#666666"
     borderopacity="1.0"
     inkscape:pageopacity="0.0"
     inkscape:pageshadow="2"
     inkscape:zoom="11.2"
     inkscape:cx="13.368009"
     inkscape:cy="11.114273"
     inkscape:document-units="mm"
     inkscape:current-layer="layer1"
     showgrid="false"
     inkscape:window-width="1280"
     inkscape:window-height="961"
     inkscape:window-x="1272"
     inkscape:window-y="-8"
     inkscape:window-maximized="1"
     fit-margin-top="0.5"
     fit-margin-left="0.5"
     fit-margin-right="0.5"
     fit-margin-bottom="0.5" />
  <metadata
     id="metadata4797">
    <rdf:RDF>
      <cc:Work
         rdf:about="">
        <dc:format>image/svg+xml</dc:format>
        <dc:type
           rdf:resource="http://purl.org/dc/dcmitype/StillImage" />
        <dc:title />
      </cc:Work>
    </rdf:RDF>
  </metadata>
  <g
     inkscape:label="Layer 1"
     inkscape:groupmode="layer"
     id="layer1"
     transform="translate(-94.96887,-90.690039)">
    <path
       d="m 97.262131,97.450278 c -0.08429,-0.01449 -0.146184,-0.06387 -0.188328,-0.146185 -0.03753,-0.07177 -0.05334,-0.14355 -0.06453,-0.20479 l -0.01976,-0.128406 c -0.03819,-0.243641 -0.07441,-0.480039 -0.13499,-0.721046 0,0.0013 -0.0013,0.002 -0.0026,0.002 -0.0086,0 -0.03885,-0.02239 -0.05729,-0.03622 -0.05202,-0.03885 -0.105358,-0.07836 -0.140258,-0.133673 -0.04741,-0.07309 -0.07507,-0.156721 -0.08165,-0.246934 -0.0079,-0.111285 0.02173,-0.21796 0.08692,-0.316733 l 0.06256,-0.07507 c 0.02897,-0.03227 0.09087,-0.09812 0.09087,-0.122479 0,-0.149478 -0.0053,-0.313442 -0.01383,-0.46226 -0.0066,0.0033 -0.01449,0.0046 -0.02502,0.0046 -0.02239,0 -0.05268,-0.0059 -0.08034,-0.01054 -0.05268,-0.0086 -0.106016,-0.01119 -0.159354,-0.01119 l -0.534035,0.0158 c -0.03819,0.01646 -0.07639,0.02963 -0.11787,0.02963 -0.121821,-0.02634 -0.18306,-0.081 -0.21796,-0.156721 -0.03753,-0.07968 -0.04017,-0.169232 -0.0066,-0.241007 0.03753,-0.0777 0.107992,-0.10931 0.159354,-0.131698 0.06387,-0.05795 0.123796,-0.116553 0.183061,-0.1745 0.209399,-0.206766 0.354926,-0.39707 0.513622,-0.609762 0.07704,-0.104041 0.155403,-0.206766 0.240349,-0.304881 0.123137,-0.144867 0.275907,-0.248909 0.454358,-0.307514 0.195571,-0.06519 0.331879,-0.109968 0.474771,-0.136966 0.128405,-0.02371 0.259445,-0.03227 0.390484,-0.03885 0.07375,-0.0033 0.148819,-0.0059 0.223887,-0.0059 0.05861,0 0.116553,0.0013 0.175158,0.0046 0.08955,0.0053 0.178451,0.01712 0.268006,0.02897 0.423409,0.05531 0.792163,0.152112 1.221499,0.3141 0.156065,0.05795 0.360195,0.141575 0.543915,0.267347 0.1587,0.108651 0.34768,0.18306 0.6124,0.242324 0.17055,0.03753 0.35031,0.06058 0.54852,0.07112 0.23706,0.01185 0.47477,0.02436 0.71183,0.04149 0.079,0.0059 0.23376,0.0079 0.3997,0.0079 0.25615,0 0.53865,-0.0046 0.62491,-0.0066 0,0 0.25615,-0.0086 0.25681,-0.0086 0.10667,0.0046 0.18306,0.06848 0.20742,0.171866 0.004,0.01449 0.009,0.07704 0.008,0.09219 -0.0198,0.129064 -0.0244,0.253519 -0.0138,0.322002 0.007,0.04741 -0.008,0.109309 -0.0388,0.145526 -0.0316,0.03687 -0.0863,0.06124 -0.13434,0.06124 -0.11589,-0.01844 -0.19228,-0.02437 -0.26866,-0.03095 0,0 -0.37205,-0.03556 -0.54457,-0.05465 -0.39575,-0.04346 -0.8883,-0.09746 -1.28011,-0.09746 -0.002,0 -0.14486,-0.002 -0.14486,-0.002 -0.0678,-0.002 -0.13499,-0.004 -0.20282,-0.0086 -0.0612,-0.0033 -0.28117,-0.02371 -0.28117,-0.02371 -0.0461,-0.004 -0.0922,-0.0066 -0.13763,-0.0066 -0.0672,0 -0.12577,0.0059 -0.17977,0.01778 -0.0764,0.05268 -0.19557,0.09943 -0.31475,0.146185 l -0.0817,0.03161 c -0.2252,0.09021 -0.451725,0.177133 -0.686148,0.241665 -0.245617,0.06782 -0.495184,0.119187 -0.742118,0.152112 -0.01317,0.002 -0.02568,0.0033 -0.03885,0.0053 0.08429,0.08231 0.1745,0.156721 0.262738,0.231789 0.453041,0.37929 0.978518,0.719729 1.611328,1.043707 0.31344,0.16133 0.5742,0.279199 0.8218,0.371388 0.18898,0.07112 0.38324,0.11787 0.57749,0.138941 0.0836,0.0086 0.1666,0.01383 0.24891,0.01383 0.25944,0 0.49255,-0.04544 0.71314,-0.138942 0.13895,-0.05795 0.24496,-0.131039 0.32596,-0.223228 0.0369,-0.04214 0.0652,-0.08626 0.0856,-0.133015 -0.0573,0.07375 -0.1633,0.116553 -0.24825,0.125113 -0.002,0 -0.005,0 -0.007,0 -0.30554,0 -0.52087,-0.175158 -0.57552,-0.425384 -0.0645,-0.289736 0.10535,-0.607128 0.37797,-0.707877 0.0816,-0.02963 0.16594,-0.04478 0.25088,-0.04478 0.24628,0 0.46029,0.123796 0.58804,0.338463 0.0658,0.109968 0.10338,0.233106 0.11326,0.365462 0.0125,0.138942 0.006,0.263396 -0.0198,0.378632 -0.0468,0.206766 -0.14948,0.388509 -0.30488,0.541279 -0.15935,0.155404 -0.35361,0.271956 -0.59396,0.355584 -0.25681,0.09087 -0.52876,0.134991 -0.83035,0.134991 l -0.1317,-0.0026 c -0.35163,-0.01515 -0.71578,-0.100749 -1.14446,-0.270639 -0.85538,-0.337806 -1.720634,-0.81982 -2.645154,-1.472384 -0.08956,-0.06321 -0.176475,-0.132356 -0.262079,-0.200839 0,0 -0.16989,-0.132357 -0.175158,-0.136308 0,0 -0.0026,0.244958 -0.0033,0.298296 0,0.07178 -6.58e-4,0.142892 -0.0059,0.214668 -0.0033,0.05597 -0.01778,0.109309 -0.04412,0.157379 -0.01712,0.03161 -0.02371,0.07573 -0.03029,0.129722 -0.01844,0.148819 -0.02436,0.295662 -0.02963,0.442506 l -0.01053,0.24825 c -0.0072,0.162647 -0.01383,0.324636 -0.02634,0.486625 -0.01054,0.129064 -0.05992,0.202814 -0.138941,0.241007 -0.05926,0.02963 -0.125772,0.04544 -0.197547,0.04544 -0.0066,0.004 -0.06848,-0.0013 -0.07573,-0.002 z m 5.900069,-1.54811 c 0.2364,0 0.29435,0.09482 0.30817,0.156721 0.005,-0.09482 -0.001,-0.172524 -0.0191,-0.242324 -0.0277,-0.107993 -0.1238,-0.185695 -0.23442,-0.189646 -6.6e-4,0 -6.6e-4,0 -6.6e-4,0 -0.0915,0 -0.16002,0.06651 -0.16265,0.151453 -0.003,0.06651 0.0165,0.09219 0.0395,0.109968 0.007,0.0053 0.0303,0.01383 0.0672,0.01383 0,0 6.5e-4,0 0.002,0 z m -6.17005,-1.612642 c 0.129064,0.01251 0.258787,0.02239 0.387851,0.02963 -0.119187,-0.175158 -0.179109,-0.371388 -0.181085,-0.58869 -0.08165,0.06914 -0.14816,0.140917 -0.202156,0.217302 -0.07704,0.109968 -0.16594,0.210717 -0.254836,0.310149 l -0.004,0.0046 z m 2.418634,-0.694707 c 0.02371,0.227179 -0.0158,0.436579 -0.118528,0.626883 0.02897,-0.0059 0.05729,-0.01317 0.08626,-0.01975 0.215326,-0.054 0.381266,-0.115236 0.521524,-0.194254 0.06848,-0.03885 0.12709,-0.081 0.17779,-0.127089 -0.0579,-0.04939 -0.111282,-0.07836 -0.17779,-0.109968 -0.140917,-0.06848 -0.300271,-0.125771 -0.489258,-0.175817 z"
       id="path236"
       inkscape:connector-curvature="0"
       style="clip-rule:evenodd;fill:#fff5c4;fill-rule:evenodd;stroke-width:0.65848994" />
    <path
       d="m 102.4991,93.109512 c -0.40365,0 -0.77636,-0.03951 -1.0549,-0.07441 -0.42999,-0.05334 -0.76121,-0.247592 -1.18133,-0.493868 -0.10997,-0.06519 -0.23442,-0.137624 -0.37073,-0.214667 -0.421433,-0.23574 -0.940982,-0.355585 -1.544817,-0.355585 -0.335172,0 -0.69339,0.03885 -1.00749,0.109968 -0.435262,0.09812 -0.86789,0.40102 -1.131286,0.790188 -0.054,0.08099 -0.140917,0.131039 -0.238373,0.136966 h -6.59e-4 c -0.118528,0 -0.301588,-0.133015 -0.32266,-0.25286 v 0 c 0,0 -0.03029,-0.189645 0.04346,-0.296321 0.334513,-0.497818 0.883693,-0.865256 1.505308,-1.006172 0.04412,-0.0099 0.446456,-0.09746 1.005514,-0.09746 0.746069,0 1.424314,0.159355 1.962303,0.460285 0.11918,0.06782 0.22586,0.134331 0.30817,0.185694 l 0.11129,0.06848 c 0.39048,0.228496 0.62556,0.359535 0.92978,0.397728 0.10931,0.01383 0.403,0.04543 0.77702,0.04543 0.47938,0 0.89423,-0.0507 1.23401,-0.150794 0.0145,-0.0046 0.0711,-0.01251 0.0869,-0.01251 0.0454,0 0.0896,0.0099 0.13104,0.02832 0.0441,0.02173 0.10141,0.06387 0.14224,0.202815 0.0408,0.138941 0.0145,0.20479 -0.008,0.242324 -0.0428,0.06782 -0.10601,0.114577 -0.17845,0.135649 -0.34109,0.09943 -0.74475,0.150794 -1.19845,0.150794 z"
       id="path244"
       inkscape:connector-curvature="0"
       style="fill:#fff5c4;stroke-width:0.65848994" />
    <path
       d="m 98.298064,92.944891 c 0.05531,0 0.109973,0.0013 0.165288,0.0046 0.106022,0.0059 0.210727,0.02239 0.316749,0.03622 0.387867,0.0507 0.759273,0.159355 1.124752,0.296979 0.177797,0.06651 0.351657,0.141576 0.508377,0.248909 0.20414,0.138942 0.43199,0.21401 0.66971,0.267347 0.19031,0.04148 0.38129,0.06453 0.57621,0.07441 0.23575,0.01185 0.47216,0.02436 0.70856,0.04148 0.081,0.0059 0.24036,0.0079 0.41158,0.0079 0.25814,0 0.54197,-0.0046 0.62889,-0.0066 0.0593,-0.0013 0.11721,-0.0046 0.17517,-0.0066 0.0204,-6.62e-4 0.0395,-0.002 0.0593,-0.002 0.005,0 0.01,0 0.0138,0 0.031,0.0013 0.0448,0.01515 0.052,0.04544 0.003,0.0158 0.004,0.03161 0.003,0.04741 -0.0178,0.111944 -0.027,0.25747 -0.0125,0.353609 0.002,0.01185 -10e-4,0.01712 -0.0105,0.01712 -0.003,0 -0.006,-6.61e-4 -0.009,-0.0013 -0.10865,-0.02041 -0.21863,-0.02568 -0.3286,-0.03622 -0.44187,-0.03753 -1.18732,-0.145526 -1.75627,-0.145526 -0.0204,0 -0.0408,0 -0.0612,0 -0.0915,-0.0033 -0.18306,-0.0046 -0.27526,-0.01054 -0.0928,-0.0053 -0.18571,-0.0158 -0.27855,-0.02371 -0.0507,-0.0046 -0.10076,-0.0072 -0.15081,-0.0072 -0.0724,0 -0.14486,0.0059 -0.21665,0.02239 -0.005,0.0013 -0.0112,0.002 -0.0158,0.0053 -0.12643,0.0777 -0.26736,0.125113 -0.40433,0.179767 -0.219288,0.08758 -0.440551,0.172525 -0.669058,0.23574 -0.237066,0.06519 -0.476767,0.114577 -0.72042,0.14816 -0.07178,0.0092 -0.144216,0.02041 -0.214677,0.03819 -0.02173,0.0053 -0.04083,0.01317 -0.06124,0.02502 -0.01449,0.01054 -0.01712,0.02107 -0.0086,0.03622 0.02568,0.04478 0.05531,0.08692 0.09153,0.124455 0.104705,0.110626 0.221262,0.208082 0.337162,0.30488 0.50245,0.420776 1.056273,0.76319 1.638393,1.061486 0.27263,0.140259 0.55119,0.271957 0.83896,0.37929 0.19953,0.07507 0.40631,0.125114 0.61769,0.148161 0.0896,0.0092 0.17846,0.01449 0.26604,0.01449 0.26538,0 0.52615,-0.04544 0.77771,-0.151453 0.14685,-0.0619 0.27922,-0.145526 0.38523,-0.26603 0.0955,-0.108651 0.15081,-0.232447 0.162,-0.377973 0.006,-0.102066 0.002,-0.202157 -0.0237,-0.301589 -0.0454,-0.177134 -0.20546,-0.305539 -0.38853,-0.312783 -0.004,0 -0.009,0 -0.0125,0 -0.17385,0 -0.31543,0.135649 -0.32136,0.310808 -0.005,0.09614 0.023,0.180426 0.0994,0.242983 0.0487,0.04083 0.11788,0.0507 0.17121,0.0507 0.006,0 0.0119,0 0.0171,0 0.0112,0 0.0211,-6.62e-4 0.0303,-6.62e-4 0.20283,0 0.0606,0.09812 -0.0375,0.108651 -0.0118,0.0013 -0.0237,0.002 -0.0362,0.002 -0.15673,0 -0.32597,-0.103383 -0.36943,-0.298954 -0.0461,-0.208742 0.0751,-0.444481 0.27394,-0.517573 0.0632,-0.02305 0.12908,-0.0349 0.19427,-0.0349 0.17385,0 0.34309,0.08297 0.44647,0.258128 0.054,0.09087 0.083,0.188986 0.0909,0.293686 0.01,0.110626 0.008,0.221253 -0.0165,0.329904 -0.0408,0.179109 -0.1284,0.33122 -0.25945,0.459626 -0.15211,0.148818 -0.33321,0.24825 -0.5334,0.317392 -0.25221,0.0889 -0.51167,0.125771 -0.7764,0.125771 -0.0415,0 -0.083,-6.61e-4 -0.12445,-0.0026 -0.38063,-0.0158 -0.73887,-0.119845 -1.09117,-0.258786 -0.93445,-0.369413 -1.792499,-0.875792 -2.61038,-1.453946 -0.142906,-0.100754 -0.276585,-0.215331 -0.41685,-0.322007 -0.05992,-0.04543 -0.121168,-0.08955 -0.185703,-0.12643 -0.02041,-0.01251 -0.0428,-0.02239 -0.06519,-0.02963 -0.0046,-0.0013 -0.0079,-0.002 -0.0112,-0.002 -0.0099,0 -0.01251,0.0066 -0.01383,0.0191 -6.59e-4,0.03095 -0.004,0.06256 -0.0053,0.09416 0,0.09812 0,0.19623 0,0.295004 -0.0059,0.123797 0,0.247592 -0.0086,0.371388 -0.002,0.03161 -0.0099,0.06124 -0.02502,0.08956 -0.03227,0.05861 -0.04083,0.123795 -0.04873,0.188986 -0.02371,0.185035 -0.027,0.370729 -0.0349,0.555766 -0.0099,0.210058 -0.01646,0.419458 -0.03227,0.629516 -6.59e-4,0.01317 -0.0033,0.02634 -0.0033,0.03885 -0.0026,0.03095 -0.01712,0.05334 -0.04346,0.06651 -0.04017,0.01975 -0.08231,0.02832 -0.125119,0.02832 -0.01712,0 -0.03556,-0.0013 -0.05334,-0.004 -0.03292,-0.0059 -0.05136,-0.03028 -0.06651,-0.0586 -0.02568,-0.05005 -0.03885,-0.104041 -0.04807,-0.158038 -0.04609,-0.292369 -0.0856,-0.574203 -0.157386,-0.860646 -0.01976,-0.0777 -0.1778,-0.147502 -0.220604,-0.215326 -0.03358,-0.05202 -0.05202,-0.109309 -0.05663,-0.170549 -0.0053,-0.07836 0.01712,-0.149477 0.06058,-0.214668 0.0026,-0.004 0.0059,-0.0086 0.0086,-0.01317 0.07178,-0.08231 0.171874,-0.169231 0.171874,-0.27459 0,-0.15277 -0.0053,-0.320026 -0.01449,-0.472137 -0.0033,-0.04939 -0.02766,-0.08363 -0.0698,-0.106016 -0.054,-0.02832 -0.112606,-0.04149 -0.172531,-0.05202 -0.0619,-0.0099 -0.123802,-0.01317 -0.186362,-0.01317 -0.03951,0 -0.0777,0.0013 -0.117216,0.0026 -0.140924,0.004 -0.281188,0.0092 -0.422111,0.01383 -0.0191,6.61e-4 -0.08626,0.02963 -0.112607,0.02963 -0.002,0 -0.0046,0 -0.0059,-6.62e-4 -0.05861,-0.0158 -0.09482,-0.109309 -0.06914,-0.163964 0.01778,-0.03753 0.113924,-0.05663 0.141583,-0.08758 0.06519,-0.07308 0.136313,-0.139589 0.206116,-0.208072 0.18241,-0.181085 0.337821,-0.384558 0.491256,-0.590665 0.07507,-0.100749 0.150801,-0.200181 0.233116,-0.295662 0.103387,-0.122479 0.229823,-0.208742 0.381283,-0.259445 0.150143,-0.04939 0.296992,-0.102066 0.453061,-0.13104 0.121827,-0.02239 0.244311,-0.03029 0.368113,-0.03622 0.07441,-0.0026 0.14685,-0.0046 0.219287,-0.0046 m 0.597277,1.5086 c 0.0026,0 0.0072,0 0.0099,0 0.173191,-0.02173 0.343748,-0.05004 0.512987,-0.09153 0.19558,-0.04873 0.386551,-0.111285 0.563034,-0.210717 0.114582,-0.06453 0.217312,-0.144209 0.300952,-0.24825 0.0112,-0.01449 0.0112,-0.02634 0.003,-0.04083 -0.0151,-0.02897 -0.0375,-0.054 -0.0612,-0.07704 -0.0724,-0.07112 -0.16067,-0.118528 -0.252209,-0.161989 -0.235092,-0.11326 -0.484671,-0.184377 -0.73886,-0.23969 -0.0099,-0.002 -0.0191,-0.0059 -0.02831,-0.0059 -0.002,0 -0.004,0 -0.0059,6.59e-4 0.127093,0.422751 0.02963,0.781628 -0.30292,1.075314 M 97.404835,93.41441 c -0.04346,0.01383 -0.175825,0.08429 -0.22719,0.123138 -0.120509,0.09021 -0.228506,0.192279 -0.315431,0.316075 -0.09548,0.135649 -0.20875,0.254836 -0.316747,0.378632 -0.03424,0.03951 -0.06848,0.07968 -0.09878,0.122479 -0.01712,0.02436 -0.01646,0.027 0.01317,0.03622 0.02305,0.0072 0.04741,0.01317 0.07243,0.01515 0.148167,0.0158 0.296334,0.03292 0.445159,0.04741 0.260774,0.02436 0.522865,0.04017 0.785615,0.04609 0.0046,0 0.0086,0.0013 0.01251,0.0013 0.0026,0 0.0046,-6.62e-4 0.0066,-0.002 -0.366127,-0.277893 -0.489929,-0.638745 -0.377321,-1.084543 m 0.893611,-0.798748 c -0.0777,0 -0.154752,0.0026 -0.233116,0.0059 -0.127094,0.0059 -0.266042,0.01449 -0.410916,0.04083 -0.158045,0.02897 -0.300944,0.07638 -0.438574,0.123137 l -0.05861,0.0191 c -0.206775,0.06848 -0.385234,0.189646 -0.52945,0.358877 -0.08495,0.09877 -0.165947,0.204132 -0.246286,0.311466 -0.154094,0.207425 -0.295675,0.391802 -0.458329,0.55379 l -0.03753,0.03622 c -0.05004,0.04807 -0.09943,0.09614 -0.14685,0.146844 -0.07639,0.03556 -0.17385,0.0889 -0.229165,0.203473 -0.05597,0.121821 -0.054,0.260103 0.004,0.384558 0.05597,0.119845 0.155411,0.206766 0.274602,0.23969 0.02897,0.0079 0.06387,0.01251 0.09351,0.01251 0.06387,0 0.117875,-0.01646 0.161995,-0.03095 l 0.172533,-0.0059 0.209409,-0.0066 c 0.03687,-0.0013 0.07178,-0.0026 0.107338,-0.0026 0.03622,0 0.07178,6.61e-4 0.107998,0.0053 0.004,0.0889 0.0059,0.179768 0.0066,0.266689 -0.01383,0.0158 -0.03293,0.03753 -0.04675,0.05268 l -0.0428,0.04675 c -0.01383,0.01646 -0.02766,0.0349 -0.03885,0.054 -0.08231,0.125113 -0.121168,0.265371 -0.11129,0.412215 0.0092,0.120503 0.04478,0.229813 0.108655,0.327928 0.04939,0.07836 0.121827,0.131698 0.179118,0.175158 0.0053,0.004 0.01054,0.0072 0.01449,0.01119 0.04873,0.206765 0.08099,0.416823 0.115899,0.63676 l 0.0191,0.125771 c 0.01383,0.07507 0.03358,0.165939 0.08099,0.258128 0.08429,0.162647 0.210067,0.215985 0.301602,0.231788 0.04346,0.0066 0.07704,0.0092 0.110632,0.0092 0.0968,0 0.188336,-0.02173 0.272626,-0.06321 0.127095,-0.0619 0.212043,-0.18767 0.224556,-0.333196 l 0.004,-0.05005 c 0.01185,-0.156062 0.01844,-0.320026 0.02568,-0.48399 l 0.0066,-0.146843 0.0046,-0.102725 c 0.0053,-0.142234 0.0099,-0.284468 0.02832,-0.426043 0.0026,-0.02107 0.0079,-0.06321 0.01251,-0.07573 0.03753,-0.06717 0.05861,-0.143551 0.06387,-0.224545 0.004,-0.06124 0.0053,-0.123796 0.0059,-0.186353 0.05926,0.04675 0.11985,0.09285 0.180435,0.136307 0.935097,0.660466 1.811587,1.148407 2.679507,1.490822 0.44648,0.176475 0.82711,0.26603 1.19786,0.281833 0.0468,0.002 0.0928,0.0026 0.13894,0.0026 0.3207,0 0.61045,-0.04741 0.88636,-0.144209 0.26144,-0.09153 0.47612,-0.219936 0.65326,-0.39246 0.17846,-0.175817 0.29634,-0.384558 0.34967,-0.622273 0.0303,-0.132356 0.0382,-0.273273 0.0237,-0.431311 -0.0118,-0.154087 -0.0573,-0.301588 -0.13566,-0.433945 -0.15474,-0.262079 -0.42738,-0.418799 -0.72898,-0.418799 -0.10404,0 -0.20743,0.01844 -0.30752,0.05465 -0.35363,0.129723 -0.56502,0.524158 -0.48204,0.898181 0.0514,0.234422 0.21204,0.418799 0.42276,0.504403 -0.17318,0.06058 -0.35559,0.08956 -0.55578,0.08956 -0.0764,0 -0.15344,-0.0046 -0.2318,-0.01251 -0.17978,-0.01975 -0.36087,-0.06321 -0.5367,-0.129064 -0.24102,-0.09021 -0.49718,-0.205449 -0.8047,-0.364145 -0.62165,-0.31805 -1.137923,-0.652563 -1.577814,-1.020659 -6.61e-4,0 -0.0013,-6.61e-4 -0.002,-0.0013 0.152119,-0.02897 0.303577,-0.06453 0.45372,-0.106017 0.254848,-0.07046 0.497184,-0.164623 0.703304,-0.247592 l 0.0797,-0.03161 c 0.10142,-0.03951 0.21468,-0.08297 0.32532,-0.144868 0.0356,-0.0053 0.0705,-0.0079 0.10996,-0.0079 0.0408,0 0.0817,0.002 0.12315,0.0059 l 0.0935,0.0086 c 0.0652,0.0059 0.13039,0.01251 0.19558,0.0158 0.0658,0.0046 0.135,0.0066 0.2048,0.0086 l 0.077,0.002 h 0.0724 c 0.38325,0 0.87056,0.05334 1.26237,0.09614 0.17385,0.0191 0.33322,0.03622 0.46624,0.04741 l 0.083,0.0072 c 0.0705,0.0059 0.14225,0.01119 0.21205,0.02436 0.0198,0.004 0.0494,0.0072 0.0698,0.0072 0.0968,0 0.19755,-0.04544 0.26011,-0.119846 0.0626,-0.07375 0.0915,-0.185035 0.0751,-0.280516 -0.007,-0.04083 -0.004,-0.146844 0.0132,-0.247593 0.002,-0.01317 0.003,-0.02568 0.004,-0.03885 0.001,-0.04478 -0.001,-0.08626 -0.01,-0.127089 -0.0435,-0.183719 -0.18439,-0.30093 -0.36153,-0.308173 l -0.0882,6.59e-4 -0.0698,0.0033 -0.11062,0.004 c -0.0863,0.002 -0.36746,0.0066 -0.62165,0.0066 -0.16068,0 -0.31082,-0.0013 -0.38721,-0.0072 -0.23969,-0.01713 -0.47873,-0.02964 -0.71646,-0.04215 -0.18899,-0.0099 -0.36021,-0.03161 -0.5222,-0.06717 -0.24168,-0.054 -0.41355,-0.121162 -0.55514,-0.21796 -0.19755,-0.135649 -0.41355,-0.223887 -0.57883,-0.285785 -0.441211,-0.16594 -0.821835,-0.26603 -1.197191,-0.314758 l -0.05992,-0.0079 c -0.09416,-0.01317 -0.186361,-0.02502 -0.281188,-0.03029 -0.05992,-0.002 -0.120509,-0.0033 -0.18241,-0.0033 z m 1.256456,1.364391 c 0.01185,-0.05334 0.0191,-0.107992 0.02305,-0.163305 0.06848,0.0237 0.131704,0.04807 0.191629,0.07441 -0.06387,0.03227 -0.134997,0.0619 -0.214677,0.0889 z"
       id="path238"
       inkscape:connector-curvature="0"
       style="fill:#560f19;stroke-width:0.65850484" />
    <path
       d="m 98.201262,91.51926 c 0.553815,0 1.256455,0.08955 1.882048,0.439213 0.18373,0.104041 0.33913,0.207424 0.4175,0.25286 0.40434,0.237056 0.65523,0.376656 0.99173,0.418141 0.16463,0.02041 0.4557,0.04675 0.79747,0.04675 0.39907,0 0.86662,-0.03556 1.28017,-0.157379 0.0138,-0.004 0.027,-0.0059 0.0408,-0.0059 0.0224,0 0.0435,0.0046 0.0639,0.01383 0.0356,0.01712 0.0816,0.175816 0.0612,0.209399 -0.0184,0.02897 -0.0468,0.05268 -0.083,0.06256 -0.36944,0.109309 -0.77178,0.145526 -1.15373,0.145526 -0.38063,0 -0.7415,-0.03688 -1.03454,-0.07309 -0.39577,-0.04939 -0.69868,-0.226521 -1.1175,-0.472796 -0.11063,-0.06519 -0.23641,-0.138283 -0.373383,-0.215985 -0.528791,-0.29632 -1.128044,-0.376656 -1.625886,-0.376656 -0.540644,0 -0.962097,0.09548 -1.04507,0.113919 -0.457672,0.103383 -0.933123,0.4188 -1.230116,0.858671 -0.02634,0.03951 -0.06848,0.0619 -0.111948,0.06453 -6.59e-4,0 -6.59e-4,0 -0.0013,0 -0.03227,0 -0.144215,-0.08165 -0.150801,-0.117211 -0.0072,-0.03688 -0.0066,-0.140259 0.01646,-0.173842 0.336504,-0.499794 0.879124,-0.81982 1.407257,-0.939665 0.081,-0.01778 0.462281,-0.09285 0.968683,-0.09285 m 0,-0.329245 c -0.577523,0 -0.99634,0.09087 -1.041779,0.101407 -0.66247,0.150795 -1.248553,0.543255 -1.607446,1.076632 -0.113924,0.164622 -0.06782,0.417482 -0.06717,0.419458 0.03622,0.201498 0.295016,0.384558 0.474134,0.384558 0.170557,-0.0092 0.304236,-0.08626 0.38721,-0.210717 0.239043,-0.354268 0.634154,-0.630833 1.028607,-0.720388 0.304236,-0.06848 0.648643,-0.106017 0.972634,-0.106017 0.574888,0 1.068118,0.112602 1.465206,0.334513 0.133679,0.07573 0.258138,0.14816 0.367448,0.212034 0.4366,0.256152 0.78101,0.458309 1.24461,0.515597 0.28382,0.03556 0.66247,0.07573 1.07536,0.07573 0.47018,0 0.88966,-0.054 1.24723,-0.159355 0.10866,-0.03095 0.2048,-0.102724 0.26737,-0.201498 0.0645,-0.106017 0.0724,-0.228496 0.029,-0.37929 -0.0441,-0.151453 -0.11722,-0.250226 -0.22258,-0.302247 -0.0731,-0.03292 -0.14027,-0.04741 -0.20875,-0.04741 -0.0448,0 -0.0895,0.0066 -0.13237,0.0191 -0.32069,0.09482 -0.73095,0.144209 -1.18862,0.144209 -0.36417,0 -0.64996,-0.03095 -0.75599,-0.04412 -0.27262,-0.03358 -0.48467,-0.152112 -0.86594,-0.375998 -0.0283,-0.0158 -0.0645,-0.03885 -0.108,-0.06585 -0.0843,-0.05268 -0.19295,-0.120504 -0.31411,-0.188987 -0.565674,-0.314758 -1.271606,-0.481356 -2.046025,-0.481356 z"
       id="path246"
       inkscape:connector-curvature="0"
       style="fill:#560f19;stroke-width:0.65850484" />
  </g>
</svg>
