<?xml version="1.0" encoding="UTF-8" standalone="no"?>
<!-- Generator: Adobe Illustrator 16.0.0, SVG Export Plug-In . SVG Version: 6.00 Build 0)  -->

<svg
   xmlns:dc="http://purl.org/dc/elements/1.1/"
   xmlns:cc="http://creativecommons.org/ns#"
   xmlns:rdf="http://www.w3.org/1999/02/22-rdf-syntax-ns#"
   xmlns:svg="http://www.w3.org/2000/svg"
   xmlns="http://www.w3.org/2000/svg"
   xmlns:sodipodi="http://sodipodi.sourceforge.net/DTD/sodipodi-0.dtd"
   xmlns:inkscape="http://www.inkscape.org/namespaces/inkscape"
   version="1.1"
   id="Fond"
   x="0px"
   y="0px"
   width="34.168182"
   height="25.44173"
   viewBox="0 0 34.168182 25.441731"
   enable-background="new 0 0 178.58 249.45"
   xml:space="preserve"
   sodipodi:docname="icon-eye-stroke.svg"
   inkscape:version="0.92.0 r15299"><metadata
   id="metadata336"><rdf:RDF><cc:Work
       rdf:about=""><dc:format>image/svg+xml</dc:format><dc:type
         rdf:resource="http://purl.org/dc/dcmitype/StillImage" /><dc:title /></cc:Work></rdf:RDF></metadata><defs
   id="defs334">
	
	
	

		
		
		
		
		
			

		
			

		

		

	
			
			
		
				
			
				
			
					
					
				
					
					
				</defs><sodipodi:namedview
   pagecolor="#ffffff"
   bordercolor="#666666"
   borderopacity="1"
   objecttolerance="10"
   gridtolerance="10"
   guidetolerance="10"
   inkscape:pageopacity="0"
   inkscape:pageshadow="2"
   inkscape:window-width="1280"
   inkscape:window-height="961"
   id="namedview332"
   showgrid="false"
   inkscape:zoom="12.793026"
   inkscape:cx="3.3089366"
   inkscape:cy="12.555995"
   inkscape:window-x="1272"
   inkscape:window-y="-8"
   inkscape:window-maximized="1"
   inkscape:current-layer="Fond"
   fit-margin-top="0"
   fit-margin-left="0"
   fit-margin-right="0"
   fit-margin-bottom="0" />

<path
   style="display:inline;fill:#560f19;stroke:none;stroke-width:2.60575104"
   d="M 10.814453 0 C 8.5292132 -1.3322676e-015 6.8712063 0.35869063 6.6914062 0.40039062 C 4.0700263 0.99710062 1.7502182 2.5514494 0.33007812 4.6621094 C -0.12071188 5.3135494 0.061843125 6.3144556 0.064453125 6.3222656 C 0.20776312 7.1196256 1.2326363 7.84375 1.9414062 7.84375 C 2.6162962 7.80725 3.1443262 7.5022556 3.4726562 7.0097656 C 4.4185463 5.6078756 5.9821288 4.5125831 7.5429688 4.1582031 C 8.7468288 3.8872031 10.110548 3.7382812 11.392578 3.7382812 C 13.667398 3.7382812 15.618183 4.18436 17.189453 5.0625 C 17.718423 5.36216 18.211981 5.6495837 18.644531 5.9023438 C 20.372141 6.9159738 21.733909 7.7147063 23.568359 7.9414062 C 24.691439 8.0821163 26.190419 8.2421875 27.824219 8.2421875 C 29.684729 8.2421875 31.344846 8.0282481 32.759766 7.6113281 C 33.189716 7.4888581 33.568856 7.2053131 33.816406 6.8144531 C 34.071766 6.3949231 34.103621 5.90921 33.931641 5.3125 C 33.757061 4.71317 33.467701 4.3230375 33.050781 4.1171875 C 32.761541 3.9868975 32.495599 3.9296875 32.224609 3.9296875 C 32.047409 3.9296875 31.870542 3.9563594 31.701172 4.0058594 C 30.432172 4.3810894 28.809047 4.5761719 26.998047 4.5761719 C 25.557067 4.5761719 24.425379 4.4525106 24.005859 4.4003906 C 22.927079 4.2675006 22.088808 3.8000225 20.580078 2.9140625 C 20.468038 2.8515625 20.324324 2.7591737 20.152344 2.6523438 C 19.818814 2.4438838 19.389616 2.1752969 18.910156 1.9042969 C 16.671816 0.65875688 13.878813 7.2280145e-020 10.814453 0 z M 10.814453 1.3027344 C 13.005893 1.3027344 15.786249 1.6573656 18.261719 3.0410156 C 18.988719 3.4527256 19.602029 3.8612156 19.912109 4.0410156 C 21.512039 4.9790856 22.506351 5.5311525 23.837891 5.6953125 C 24.489331 5.7761125 25.639798 5.8808594 26.992188 5.8808594 C 28.571268 5.8808594 30.422184 5.7398725 32.058594 5.2578125 C 32.113294 5.2422125 32.165983 5.234375 32.220703 5.234375 C 32.309303 5.234375 32.391876 5.2525625 32.472656 5.2890625 C 32.613366 5.3567625 32.795624 5.9862506 32.714844 6.1191406 C 32.641844 6.2338006 32.530039 6.3261444 32.386719 6.3652344 C 30.924899 6.7977944 29.333596 6.9414062 27.822266 6.9414062 C 26.316136 6.9414062 24.888076 6.7956638 23.728516 6.6523438 C 22.162466 6.4569138 20.963901 5.7558 19.306641 4.78125 C 18.868881 4.52328 18.370125 4.2352144 17.828125 3.9277344 C 15.735705 2.7551444 13.364481 2.4355469 11.394531 2.4355469 C 9.2552113 2.4355469 7.5880856 2.8137587 7.2597656 2.8867188 C 5.4487656 3.2958288 3.5677781 4.5445162 2.3925781 6.2851562 C 2.2883481 6.4415062 2.1211887 6.5305856 1.9492188 6.5410156 L 1.9433594 6.5410156 C 1.8156794 6.5410156 1.3737062 6.2168819 1.3476562 6.0761719 C 1.3189563 5.9302519 1.3209094 5.5215719 1.4121094 5.3886719 C 2.7436494 3.4109119 4.8906588 2.1441619 6.9804688 1.6699219 C 7.3009787 1.5995219 8.8106332 1.3027344 10.814453 1.3027344 z M 11.197266 5.640625 C 10.889786 5.640625 10.583517 5.6510625 10.273438 5.6640625 C 9.7705276 5.6875625 9.2217075 5.7219119 8.6484375 5.8261719 C 8.0230575 5.9408219 7.4567094 6.12749 6.9121094 6.3125 L 6.6816406 6.3886719 C 5.8634306 6.6596719 5.1565875 7.1389138 4.5859375 7.8085938 C 4.2497875 8.1994537 3.9292381 8.6162756 3.6113281 9.0410156 C 3.0015881 9.8618256 2.440495 10.591412 1.796875 11.232422 L 1.6484375 11.376953 C 1.4504075 11.567173 1.2559794 11.756391 1.0683594 11.957031 C 0.76608933 12.097741 0.38098938 12.308319 0.16210938 12.761719 C -0.059380625 13.243779 -0.051535625 13.790713 0.17773438 14.283203 C 0.39922438 14.757443 0.79203183 15.102132 1.2636719 15.232422 C 1.3783319 15.263722 1.5155525 15.28125 1.6328125 15.28125 C 1.8855725 15.28125 2.1008106 15.217526 2.2753906 15.160156 L 2.9570312 15.136719 L 3.7851562 15.109375 C 3.9310762 15.104375 4.0702275 15.099609 4.2109375 15.099609 C 4.3542475 15.099609 4.4953519 15.103294 4.6386719 15.121094 C 4.6542719 15.472874 4.6613625 15.831821 4.6640625 16.175781 C 4.6093625 16.238281 4.5332356 16.324836 4.4785156 16.384766 L 4.3105469 16.568359 C 4.2558469 16.633559 4.20054 16.707643 4.15625 16.783203 C 3.83053 17.278303 3.6757638 17.832982 3.7148438 18.414062 C 3.7513438 18.890922 3.8937344 19.322678 4.1464844 19.710938 C 4.3419144 20.021017 4.6268156 20.232317 4.8535156 20.404297 C 4.8743156 20.419897 4.8965094 20.433619 4.9121094 20.449219 C 5.1049394 21.267429 5.2329837 22.09843 5.3710938 22.96875 L 5.4453125 23.466797 C 5.5000125 23.763857 5.578015 24.123471 5.765625 24.488281 C 6.099165 25.131901 6.5967844 25.341767 6.9589844 25.404297 C 7.1309644 25.430397 7.2655475 25.441406 7.3984375 25.441406 C 7.7814875 25.441406 8.1430325 25.355556 8.4765625 25.191406 C 8.9794725 24.946466 9.3157244 24.448917 9.3652344 23.873047 L 9.3808594 23.675781 C 9.4277594 23.058221 9.4538019 22.408596 9.4824219 21.759766 L 9.5078125 21.179688 L 9.5273438 20.771484 C 9.5481437 20.208644 9.5657219 19.646168 9.6386719 19.085938 C 9.6490719 19.002537 9.6693 18.836609 9.6875 18.787109 C 9.83602 18.521319 9.9205662 18.218948 9.9414062 17.898438 C 9.9570062 17.656108 9.9622437 17.407696 9.9648438 17.160156 C 10.199354 17.345166 10.438004 17.527239 10.677734 17.699219 C 14.377904 20.312789 17.84687 22.244619 21.28125 23.599609 C 23.04795 24.297949 24.554444 24.652304 26.021484 24.714844 C 26.206494 24.722844 26.387902 24.724609 26.570312 24.724609 C 27.839312 24.724609 28.986315 24.537347 30.078125 24.154297 C 31.112605 23.792097 31.961169 23.284263 32.662109 22.601562 C 33.368269 21.905822 33.835805 21.079352 34.046875 20.138672 C 34.166735 19.614912 34.197955 19.057021 34.140625 18.431641 C 34.093725 17.821901 33.913596 17.238604 33.603516 16.714844 C 32.991166 15.677754 31.91219 15.058594 30.71875 15.058594 C 30.30704 15.058594 29.898023 15.130168 29.501953 15.273438 C 28.102663 15.786777 27.26542 17.348055 27.59375 18.828125 C 27.79699 19.755765 28.433738 20.485479 29.267578 20.824219 C 28.582268 21.063949 27.860509 21.177734 27.068359 21.177734 C 26.766099 21.177734 26.460471 21.160206 26.150391 21.128906 C 25.439021 21.050706 24.723084 20.879711 24.027344 20.619141 C 23.073644 20.262151 22.06063 19.805714 20.84375 19.177734 C 18.38392 17.919154 16.340249 16.595292 14.599609 15.138672 C 14.596609 15.138672 14.594797 15.134813 14.591797 15.132812 C 15.193727 15.018163 15.792609 14.879004 16.386719 14.714844 C 17.395149 14.436024 18.354322 14.062705 19.169922 13.734375 L 19.486328 13.609375 C 19.887608 13.453025 20.335667 13.280096 20.773438 13.035156 C 20.914147 13.014356 21.050691 13.003906 21.207031 13.003906 C 21.368591 13.003906 21.531143 13.011844 21.695312 13.027344 L 22.064453 13.0625 C 22.322423 13.0859 22.581874 13.112 22.839844 13.125 C 23.100424 13.1432 23.374181 13.150403 23.650391 13.158203 L 23.955078 13.166016 L 24.240234 13.166016 C 25.756784 13.166016 27.685908 13.377505 29.236328 13.546875 C 29.924248 13.622475 30.553718 13.690085 31.080078 13.734375 L 31.410156 13.763672 C 31.688966 13.787072 31.971837 13.807275 32.248047 13.859375 C 32.326247 13.874975 32.444611 13.888672 32.525391 13.888672 C 32.908431 13.888672 33.307138 13.708512 33.554688 13.414062 C 33.802237 13.122212 33.916713 12.682517 33.851562 12.304688 C 33.825562 12.143128 33.834644 11.722899 33.902344 11.324219 C 33.910344 11.272119 33.915369 11.222032 33.917969 11.169922 C 33.922969 10.992722 33.913006 10.829519 33.878906 10.667969 C 33.706926 9.9409588 33.150169 9.4759356 32.449219 9.4472656 L 32.099609 9.4511719 L 31.824219 9.4648438 L 31.386719 9.4804688 C 31.045369 9.4884687 29.931591 9.5058594 28.925781 9.5058594 C 28.289971 9.5058594 27.696801 9.5002625 27.394531 9.4765625 C 26.446041 9.4087625 25.499264 9.3600569 24.558594 9.3105469 C 23.810744 9.2714469 23.133198 9.1856319 22.492188 9.0449219 C 21.535878 8.8312519 20.855152 8.5646806 20.294922 8.1816406 C 19.513192 7.6448506 18.659909 7.2957213 18.005859 7.0507812 C 16.260009 6.3941313 14.752858 5.9975175 13.267578 5.8046875 L 13.03125 5.7734375 C 12.65863 5.7213375 12.293199 5.6751669 11.917969 5.6542969 C 11.680839 5.6462969 11.442206 5.640625 11.197266 5.640625 z M 11.197266 6.9433594 L 11.197266 6.9453125 C 11.416146 6.9453125 11.632682 6.9496906 11.851562 6.9628906 C 12.271083 6.9862906 12.683986 7.0507587 13.103516 7.1054688 C 14.638296 7.3061187 16.108497 7.73665 17.554688 8.28125 C 18.258237 8.54443 18.946236 8.840885 19.566406 9.265625 C 20.374186 9.815435 21.276117 10.113149 22.216797 10.324219 C 22.969857 10.488379 23.724794 10.580051 24.496094 10.619141 C 25.428954 10.666041 26.365311 10.715443 27.300781 10.783203 C 27.621281 10.806603 28.252198 10.814453 28.929688 10.814453 C 29.951148 10.814453 31.074009 10.795009 31.417969 10.787109 C 31.652489 10.782109 31.882028 10.769619 32.111328 10.761719 C 32.192128 10.758719 32.267533 10.753906 32.345703 10.753906 L 32.400391 10.753906 C 32.522861 10.758906 32.576799 10.813704 32.605469 10.933594 C 32.618469 10.996094 32.621741 11.058554 32.619141 11.121094 C 32.548741 11.564064 32.511029 12.139091 32.568359 12.519531 C 32.576359 12.566431 32.564044 12.587891 32.527344 12.587891 C 32.516944 12.587891 32.503334 12.585984 32.490234 12.583984 C 32.060284 12.503184 31.626566 12.481143 31.191406 12.439453 C 29.442946 12.290923 26.491604 11.863281 24.240234 11.863281 L 23.998047 11.863281 C 23.635847 11.850281 23.274956 11.845766 22.910156 11.822266 C 22.542746 11.801466 22.174051 11.759816 21.806641 11.728516 C 21.606001 11.710316 21.408968 11.699219 21.210938 11.699219 C 20.924298 11.699219 20.637546 11.723863 20.353516 11.789062 C 20.332716 11.794063 20.309216 11.795794 20.291016 11.808594 C 19.790706 12.116074 19.233396 12.305214 18.691406 12.521484 C 17.823686 12.868054 16.947169 13.202975 16.042969 13.453125 C 15.104899 13.711095 14.157489 13.906163 13.193359 14.039062 C 12.909329 14.075563 12.62256 14.121076 12.34375 14.191406 C 12.25775 14.212206 12.182343 14.242162 12.101562 14.289062 C 12.044263 14.330763 12.032506 14.373674 12.066406 14.433594 C 12.168026 14.610784 12.286368 14.777251 12.429688 14.925781 C 12.843998 15.363551 13.305062 15.749763 13.763672 16.132812 C 15.751862 17.797883 17.942604 19.151621 20.246094 20.332031 C 21.324874 20.887051 22.427686 21.409244 23.566406 21.833984 C 24.355946 22.131034 25.173316 22.328722 26.009766 22.419922 C 26.364146 22.456422 26.71594 22.476562 27.0625 22.476562 C 28.11262 22.476562 29.145225 22.296473 30.140625 21.876953 C 30.721705 21.632013 31.244532 21.301079 31.664062 20.824219 C 32.041893 20.394269 32.262351 19.905948 32.306641 19.330078 C 32.330141 18.926188 32.314691 18.530189 32.212891 18.136719 C 32.033091 17.435769 31.398228 16.927097 30.673828 16.898438 L 30.625 16.898438 C 29.93709 16.898438 29.376966 17.435776 29.353516 18.128906 C 29.335316 18.509346 29.443824 18.842304 29.746094 19.089844 C 29.938914 19.251404 30.212768 19.291016 30.423828 19.291016 L 30.492188 19.291016 C 30.536487 19.291016 30.574858 19.287109 30.611328 19.287109 C 31.413898 19.287109 30.851151 19.675107 30.462891 19.716797 C 30.415991 19.721797 30.369832 19.724609 30.320312 19.724609 C 29.700142 19.724609 29.031355 19.316879 28.859375 18.542969 C 28.676965 17.716949 29.156419 16.783381 29.943359 16.494141 C 30.193509 16.402941 30.452977 16.355469 30.710938 16.355469 C 31.398857 16.355469 32.069416 16.683823 32.478516 17.376953 C 32.692196 17.736553 32.806621 18.124742 32.837891 18.539062 C 32.876991 18.976833 32.867984 19.415753 32.771484 19.845703 C 32.609934 20.554463 32.264634 21.155943 31.746094 21.664062 C 31.144164 22.252962 30.426916 22.646312 29.634766 22.919922 C 28.636766 23.271692 27.61001 23.417969 26.5625 23.417969 C 26.39834 23.417969 26.234472 23.41365 26.070312 23.40625 C 24.564193 23.34375 23.146033 22.932633 21.751953 22.382812 C 18.054393 20.920993 14.660168 18.916756 11.423828 16.628906 C 10.858378 16.230226 10.328457 15.777599 9.7734375 15.355469 C 9.5363075 15.175669 9.2944325 15.001389 9.0390625 14.855469 C 8.9582625 14.805969 8.86985 14.766941 8.78125 14.738281 C 8.76305 14.733281 8.7493281 14.730469 8.7363281 14.730469 C 8.6972281 14.730469 8.6868406 14.755187 8.6816406 14.804688 C 8.6786406 14.927157 8.6673094 15.052654 8.6621094 15.177734 L 8.6621094 16.345703 C 8.6386094 16.835583 8.6608531 17.324573 8.6269531 17.814453 C 8.6189531 17.939533 8.5891969 18.057882 8.5292969 18.169922 C 8.4016069 18.401832 8.3672075 18.659999 8.3359375 18.917969 C 8.2421375 19.650189 8.2285256 20.384968 8.1972656 21.117188 C 8.1581656 21.948418 8.1328025 22.776192 8.0703125 23.607422 C 8.0673125 23.659522 8.0566406 23.712209 8.0566406 23.761719 C 8.0462406 23.884189 7.9890456 23.973271 7.8847656 24.025391 C 7.7258056 24.103591 7.560005 24.136719 7.390625 24.136719 C 7.322925 24.136719 7.2480844 24.131694 7.1777344 24.121094 C 7.0474444 24.097694 6.9759456 24.000712 6.9160156 23.888672 C 6.8143856 23.690632 6.7610894 23.477342 6.7246094 23.263672 C 6.5421994 22.106712 6.3855925 20.990922 6.1015625 19.857422 C 6.0233625 19.549942 5.3978856 19.274249 5.2285156 19.005859 C 5.0956156 18.799999 5.0240994 18.574361 5.0058594 18.332031 C 4.9850594 18.021941 5.0740638 17.740392 5.2460938 17.482422 C 5.2564937 17.466822 5.2687969 17.447888 5.2792969 17.429688 C 5.5633269 17.103967 5.9589844 16.76067 5.9589844 16.34375 C 5.9589844 15.73922 5.9388437 15.076539 5.9023438 14.474609 C 5.8893438 14.279179 5.79177 14.143287 5.625 14.054688 C 5.41133 13.942638 5.1804894 13.891299 4.9433594 13.849609 C 4.6984194 13.810509 4.4526181 13.796875 4.2050781 13.796875 C 4.0487281 13.796875 3.8985375 13.801241 3.7421875 13.806641 C 3.1845575 13.822241 2.6298956 13.843128 2.0722656 13.861328 C 1.9966656 13.864328 1.72923 13.978516 1.625 13.978516 C 1.617 13.978516 1.6068625 13.979563 1.6015625 13.976562 C 1.3696525 13.914062 1.226495 13.544395 1.328125 13.328125 C 1.398525 13.179595 1.7792319 13.102939 1.8886719 12.980469 C 2.1466419 12.691229 2.4288681 12.429193 2.7050781 12.158203 C 3.4268781 11.441613 4.0412975 10.635912 4.6484375 9.8203125 C 4.9454975 9.4216325 5.2445925 9.0282306 5.5703125 8.6503906 C 5.9794125 8.1657206 6.4807581 7.8236869 7.0800781 7.6230469 C 7.6741881 7.4276169 8.2554769 7.2201288 8.8730469 7.1054688 C 9.3551069 7.0168688 9.8382451 6.9843875 10.328125 6.9609375 C 10.622575 6.9505375 10.910626 6.9433594 11.197266 6.9433594 z M 14.78125 8.65625 C 14.77325 8.65625 14.765613 8.6552031 14.757812 8.6582031 C 15.260722 10.331093 14.876457 11.751902 13.560547 12.914062 L 13.599609 12.914062 C 14.284919 12.828062 14.959226 12.714951 15.628906 12.550781 C 16.402816 12.357961 17.159082 12.110267 17.857422 11.716797 C 18.310832 11.461437 18.715945 11.146085 19.046875 10.734375 C 19.091175 10.677075 19.092494 10.631539 19.058594 10.574219 C 18.998694 10.459569 18.910216 10.358778 18.816406 10.267578 C 18.529776 9.9861481 18.180559 9.7989331 17.818359 9.6269531 C 16.888109 9.1787631 15.900351 8.8985675 14.894531 8.6796875 C 14.855431 8.6716875 14.8177 8.65625 14.78125 8.65625 z M 7.6601562 8.8027344 C 7.4881763 8.8574344 6.9649687 9.1353225 6.7617188 9.2890625 C 6.2848587 9.6460525 5.8576319 10.049183 5.5136719 10.539062 C 5.1358419 11.075852 4.6871056 11.549183 4.2597656 12.039062 C 4.1242656 12.195412 3.9890106 12.354068 3.8691406 12.523438 C 3.8014406 12.619837 3.804675 12.629536 3.921875 12.666016 C 4.013075 12.694716 4.1099644 12.718762 4.2089844 12.726562 C 4.7952844 12.789062 5.37985 12.856743 5.96875 12.914062 C 7.00063 13.010462 8.038435 13.072243 9.078125 13.095703 C 9.096325 13.095703 9.1113531 13.101562 9.1269531 13.101562 C 9.1373531 13.101562 9.1463969 13.09875 9.1542969 13.09375 C 7.7060249 11.994521 7.2154202 10.565937 7.6601562 8.8027344 z M 16.259766 10.394531 C 16.530766 10.488331 16.780458 10.58327 17.017578 10.6875 C 16.764828 10.81518 16.483259 10.932222 16.167969 11.039062 C 16.214869 10.827993 16.244166 10.613411 16.259766 10.394531 z "
   id="path236" />
</svg>