<?xml version="1.0" encoding="UTF-8" standalone="no"?>
<!-- Created with Inkscape (http://www.inkscape.org/) -->

<svg
   xmlns:dc="http://purl.org/dc/elements/1.1/"
   xmlns:cc="http://creativecommons.org/ns#"
   xmlns:rdf="http://www.w3.org/1999/02/22-rdf-syntax-ns#"
   xmlns:svg="http://www.w3.org/2000/svg"
   xmlns="http://www.w3.org/2000/svg"
   xmlns:sodipodi="http://sodipodi.sourceforge.net/DTD/sodipodi-0.dtd"
   xmlns:inkscape="http://www.inkscape.org/namespaces/inkscape"
   width="9.6346092mm"
   height="7.4294758mm"
   viewBox="0 0 9.6346092 7.4294758"
   version="1.1"
   id="svg4800"
   inkscape:version="0.92.0 r15299"
   sodipodi:docname="icon-eye-stroke.svg">
  <defs
     id="defs4794" />
  <sodipodi:namedview
     id="base"
     pagecolor="#ffffff"
     bordercolor="#666666"
     borderopacity="1.0"
     inkscape:pageopacity="0.0"
     inkscape:pageshadow="2"
     inkscape:zoom="11.2"
     inkscape:cx="-1.7405179"
     inkscape:cy="11.114273"
     inkscape:document-units="mm"
     inkscape:current-layer="layer1"
     showgrid="false"
     inkscape:window-width="1280"
     inkscape:window-height="961"
     inkscape:window-x="1272"
     inkscape:window-y="-8"
     inkscape:window-maximized="1"
     fit-margin-top="0.5"
     fit-margin-left="0.5"
     fit-margin-right="0.5"
     fit-margin-bottom="0.5" />
  <metadata
     id="metadata4797">
    <rdf:RDF>
      <cc:Work
         rdf:about="">
        <dc:format>image/svg+xml</dc:format>
        <dc:type
           rdf:resource="http://purl.org/dc/dcmitype/StillImage" />
        <dc:title />
      </cc:Work>
    </rdf:RDF>
  </metadata>
  <g
     inkscape:label="Layer 1"
     inkscape:groupmode="layer"
     id="layer1"
     transform="translate(-94.96887,-90.690039)">
    <path
       d="m 98.297936,92.94489 c 0.05531,0 0.109968,0.0013 0.165281,0.0046 0.106017,0.0059 0.210717,0.02239 0.316734,0.03622 0.38785,0.0507 0.759239,0.159355 1.124701,0.296979 0.177788,0.06651 0.351638,0.141576 0.508358,0.248909 0.20413,0.138942 0.43197,0.21401 0.66968,0.267347 0.1903,0.04148 0.38127,0.06453 0.57618,0.07441 0.23574,0.01185 0.47214,0.02436 0.70853,0.04148 0.081,0.0059 0.24035,0.0079 0.41156,0.0079 0.25813,0 0.54194,-0.0046 0.62886,-0.0066 0.0593,-0.0013 0.11721,-0.0046 0.17516,-0.0066 0.0204,-6.59e-4 0.0395,-0.002 0.0593,-0.002 0.005,0 0.01,0 0.0138,0 0.031,0.0013 0.0448,0.01515 0.052,0.04544 0.003,0.0158 0.004,0.03161 0.003,0.04741 -0.0178,0.111944 -0.027,0.25747 -0.0125,0.353609 0.002,0.01185 -0.001,0.01712 -0.0105,0.01712 -0.003,0 -0.006,-6.58e-4 -0.009,-0.0013 -0.10865,-0.02041 -0.21862,-0.02568 -0.32859,-0.03622 -0.44185,-0.03753 -1.18726,-0.145526 -1.75619,-0.145526 -0.0204,0 -0.0408,0 -0.0612,0 -0.0915,-0.0033 -0.18306,-0.0046 -0.27525,-0.01054 -0.0928,-0.0053 -0.1857,-0.0158 -0.27854,-0.02371 -0.0507,-0.0046 -0.10075,-0.0072 -0.1508,-0.0072 -0.0724,0 -0.14486,0.0059 -0.21664,0.02239 -0.005,0.0013 -0.0112,0.002 -0.0158,0.0053 -0.12643,0.0777 -0.26735,0.125113 -0.40432,0.179767 -0.219274,0.08758 -0.440527,0.172525 -0.669023,0.23574 -0.237056,0.06519 -0.476746,0.114577 -0.720388,0.14816 -0.07178,0.0092 -0.144209,0.02041 -0.214667,0.03819 -0.02173,0.0053 -0.04083,0.01317 -0.06124,0.02502 -0.01449,0.01054 -0.01712,0.02107 -0.0086,0.03622 0.02568,0.04478 0.05531,0.08692 0.09153,0.124455 0.1047,0.110626 0.221252,0.208082 0.337147,0.30488 0.502427,0.420776 1.056221,0.76319 1.638321,1.061486 0.27262,0.140259 0.55116,0.271957 0.83892,0.37929 0.19952,0.07507 0.40629,0.125114 0.61766,0.148161 0.0896,0.0092 0.17845,0.01449 0.26603,0.01449 0.26537,0 0.52613,-0.04544 0.77768,-0.151453 0.14684,-0.0619 0.2792,-0.145526 0.38521,-0.26603 0.0955,-0.108651 0.1508,-0.232447 0.16199,-0.377973 0.006,-0.102066 0.002,-0.202157 -0.0237,-0.301589 -0.0454,-0.177134 -0.20545,-0.305539 -0.38851,-0.312783 -0.004,0 -0.009,0 -0.0125,0 -0.17384,0 -0.31542,0.135649 -0.32135,0.310808 -0.005,0.09614 0.023,0.180426 0.0994,0.242983 0.0487,0.04083 0.11787,0.0507 0.1712,0.0507 0.006,0 0.0119,0 0.0171,0 0.0112,0 0.0211,-6.58e-4 0.0303,-6.58e-4 0.20282,0 0.0606,0.09812 -0.0375,0.108651 -0.0118,0.0013 -0.0237,0.002 -0.0362,0.002 -0.15672,0 -0.32595,-0.103383 -0.36941,-0.298954 -0.0461,-0.208742 0.0751,-0.444481 0.27393,-0.517573 0.0632,-0.02305 0.12907,-0.0349 0.19426,-0.0349 0.17384,0 0.34307,0.08297 0.44645,0.258128 0.054,0.09087 0.083,0.188986 0.0909,0.293686 0.01,0.110626 0.008,0.221253 -0.0165,0.329904 -0.0408,0.179109 -0.1284,0.33122 -0.25944,0.459626 -0.15211,0.148818 -0.3332,0.24825 -0.53338,0.317392 -0.2522,0.0889 -0.51165,0.125771 -0.77636,0.125771 -0.0415,0 -0.083,-6.58e-4 -0.12445,-0.0026 -0.38061,-0.0158 -0.73883,-0.119845 -1.09112,-0.258786 -0.9344,-0.369413 -1.792411,-0.875792 -2.610255,-1.453946 -0.142893,-0.100749 -0.276566,-0.215326 -0.416825,-0.322002 -0.05992,-0.04543 -0.121162,-0.08955 -0.185694,-0.12643 -0.02041,-0.01251 -0.0428,-0.02239 -0.06519,-0.02963 -0.0046,-0.0013 -0.0079,-0.002 -0.0112,-0.002 -0.0099,0 -0.01251,0.0066 -0.01383,0.0191 -6.58e-4,0.03095 -0.004,0.06256 -0.0053,0.09416 0,0.09812 0,0.19623 0,0.295004 -0.0059,0.123796 0,0.247592 -0.0086,0.371388 -0.002,0.03161 -0.0099,0.06124 -0.02502,0.08956 -0.03227,0.05861 -0.04083,0.123796 -0.04873,0.188986 -0.02371,0.185036 -0.027,0.37073 -0.0349,0.555766 -0.0099,0.210058 -0.01646,0.419458 -0.03227,0.629516 -6.58e-4,0.01317 -0.0033,0.02634 -0.0033,0.03885 -0.0026,0.03095 -0.01712,0.05334 -0.04346,0.06651 -0.04017,0.01975 -0.08231,0.02832 -0.125113,0.02832 -0.01712,0 -0.03556,-0.0013 -0.05334,-0.004 -0.03292,-0.0059 -0.05136,-0.03029 -0.06651,-0.05861 -0.02568,-0.05005 -0.03885,-0.104041 -0.04807,-0.158038 -0.04609,-0.292369 -0.0856,-0.574203 -0.157379,-0.860646 -0.01976,-0.0777 -0.177792,-0.147502 -0.220594,-0.215326 -0.03358,-0.05202 -0.05202,-0.109309 -0.05663,-0.170549 -0.0053,-0.07836 0.01712,-0.149477 0.06058,-0.214668 0.0026,-0.004 0.0059,-0.0086 0.0086,-0.01317 0.07178,-0.08231 0.171866,-0.169231 0.171866,-0.27459 0,-0.15277 -0.0053,-0.320026 -0.01449,-0.472137 -0.0033,-0.04939 -0.02766,-0.08363 -0.0698,-0.106017 -0.054,-0.02832 -0.112601,-0.04149 -0.172524,-0.05202 -0.0619,-0.0099 -0.123796,-0.01317 -0.186353,-0.01317 -0.03951,0 -0.0777,0.0013 -0.117211,0.0026 -0.140917,0.004 -0.281175,0.0092 -0.422092,0.01383 -0.0191,6.58e-4 -0.08626,0.02963 -0.112602,0.02963 -0.002,0 -0.0046,0 -0.0059,-6.59e-4 -0.05861,-0.0158 -0.09482,-0.109309 -0.06914,-0.163964 0.01778,-0.03753 0.113919,-0.05663 0.141576,-0.08758 0.06519,-0.07309 0.136307,-0.1396 0.206107,-0.208083 0.182402,-0.181085 0.337806,-0.384558 0.491234,-0.590665 0.07507,-0.100749 0.150794,-0.200181 0.233105,-0.295662 0.103383,-0.122479 0.229813,-0.208742 0.381266,-0.259445 0.150136,-0.04939 0.296979,-0.102066 0.453041,-0.13104 0.121821,-0.02239 0.2443,-0.03029 0.368096,-0.03622 0.07441,-0.0026 0.146843,-0.0046 0.219277,-0.0046 m 0.59725,1.5086 c 0.0026,0 0.0072,0 0.0099,0 0.173183,-0.02173 0.343732,-0.05004 0.512963,-0.09153 0.195572,-0.04873 0.386534,-0.111285 0.563009,-0.210717 0.114572,-0.06453 0.217302,-0.144209 0.300932,-0.24825 0.0112,-0.01449 0.0112,-0.02634 0.003,-0.04083 -0.0151,-0.02897 -0.0375,-0.054 -0.0612,-0.07704 -0.0724,-0.07112 -0.16067,-0.118528 -0.252199,-0.161989 -0.235081,-0.11326 -0.484649,-0.184377 -0.738826,-0.23969 -0.0099,-0.002 -0.0191,-0.0059 -0.02831,-0.0059 -0.002,0 -0.004,0 -0.0059,6.58e-4 0.127088,0.422751 0.02963,0.781628 -0.302906,1.075314 m -1.490821,-1.039097 c -0.04346,0.01383 -0.175817,0.08429 -0.227179,0.123138 -0.120504,0.09021 -0.228496,0.192279 -0.315417,0.316075 -0.09548,0.135649 -0.208741,0.254836 -0.316733,0.378632 -0.03424,0.03951 -0.06848,0.07968 -0.09877,0.122479 -0.01712,0.02436 -0.01646,0.027 0.01317,0.03622 0.02305,0.0072 0.04741,0.01317 0.07243,0.01515 0.14816,0.0158 0.29632,0.03292 0.445139,0.04741 0.260762,0.02436 0.522841,0.04017 0.785579,0.04609 0.0046,0 0.0086,0.0013 0.01251,0.0013 0.0026,0 0.0046,-6.59e-4 0.0066,-0.002 C 97.415966,94.22101 97.29217,93.860158 97.404772,93.41436 m 0.893571,-0.798748 c -0.0777,0 -0.154745,0.0026 -0.233105,0.0059 -0.127089,0.0059 -0.26603,0.01449 -0.410898,0.04083 -0.158038,0.02897 -0.30093,0.07638 -0.438554,0.123137 l -0.05861,0.0191 c -0.206766,0.06848 -0.385217,0.189646 -0.529426,0.358877 -0.08495,0.09877 -0.16594,0.204132 -0.246275,0.311466 -0.154087,0.207425 -0.295662,0.391802 -0.458309,0.55379 l -0.03753,0.03622 c -0.05004,0.04807 -0.09943,0.09614 -0.146843,0.146844 -0.07639,0.03556 -0.173842,0.0889 -0.229155,0.203473 -0.05597,0.121821 -0.054,0.260103 0.004,0.384558 0.05597,0.119845 0.155404,0.206766 0.27459,0.23969 0.02897,0.0079 0.06387,0.01251 0.09351,0.01251 0.06387,0 0.11787,-0.01646 0.161988,-0.03095 l 0.172525,-0.0059 0.2094,-0.0066 c 0.03687,-0.0013 0.07178,-0.0026 0.107333,-0.0026 0.03622,0 0.07178,6.59e-4 0.107993,0.0053 0.004,0.0889 0.0059,0.179768 0.0066,0.266689 -0.01383,0.0158 -0.03293,0.03753 -0.04675,0.05268 l -0.0428,0.04675 c -0.01383,0.01646 -0.02766,0.0349 -0.03885,0.054 -0.08231,0.125113 -0.121162,0.265371 -0.111285,0.412215 0.0092,0.120503 0.04478,0.229813 0.108651,0.327928 0.04939,0.07836 0.121821,0.131698 0.179109,0.175158 0.0053,0.004 0.01054,0.0072 0.01449,0.01119 0.04873,0.206766 0.08099,0.416824 0.115894,0.63676 l 0.0191,0.125772 c 0.01383,0.07507 0.03358,0.165939 0.08099,0.258128 0.08429,0.162647 0.210058,0.215984 0.301588,0.231788 0.04346,0.0066 0.07704,0.0092 0.110627,0.0092 0.0968,0 0.188328,-0.02173 0.272614,-0.06321 0.127089,-0.0619 0.212034,-0.18767 0.224546,-0.333196 l 0.004,-0.05005 c 0.01185,-0.156062 0.01844,-0.320026 0.02568,-0.48399 l 0.0066,-0.146843 0.0046,-0.102725 c 0.0053,-0.142234 0.0099,-0.284468 0.02832,-0.426043 0.0026,-0.02107 0.0079,-0.06321 0.01251,-0.07573 0.03753,-0.06717 0.05861,-0.143551 0.06387,-0.224545 0.004,-0.06124 0.0053,-0.123796 0.0059,-0.186353 0.05926,0.04675 0.119845,0.09285 0.180427,0.136307 0.935055,0.660466 1.811505,1.148407 2.679392,1.490822 0.44646,0.176475 0.82707,0.26603 1.1978,0.281833 0.0468,0.002 0.0928,0.0026 0.13894,0.0026 0.32068,0 0.61042,-0.04741 0.88632,-0.144209 0.26142,-0.09153 0.47609,-0.219936 0.65323,-0.39246 0.17845,-0.175817 0.29632,-0.384558 0.34965,-0.622273 0.0303,-0.132356 0.0382,-0.273273 0.0237,-0.431311 -0.0118,-0.154087 -0.0573,-0.301588 -0.13565,-0.433945 -0.15474,-0.262079 -0.42736,-0.418799 -0.72895,-0.418799 -0.10404,0 -0.20742,0.01844 -0.30751,0.05465 -0.35361,0.129723 -0.56499,0.524158 -0.48202,0.898181 0.0514,0.234422 0.21204,0.418799 0.42275,0.504403 -0.17318,0.06058 -0.35558,0.08956 -0.55576,0.08956 -0.0764,0 -0.15343,-0.0046 -0.23179,-0.01251 -0.17977,-0.01975 -0.36085,-0.06321 -0.53667,-0.129064 -0.24101,-0.09021 -0.49716,-0.205449 -0.80467,-0.364145 -0.62162,-0.31805 -1.137874,-0.652563 -1.577745,-1.020659 -6.59e-4,0 -0.0013,-6.59e-4 -0.002,-0.0013 0.152112,-0.02897 0.303564,-0.06453 0.4537,-0.106017 0.254836,-0.07046 0.497165,-0.164623 0.703275,-0.247592 l 0.0797,-0.03161 c 0.10141,-0.03951 0.21467,-0.08297 0.3253,-0.144868 0.0356,-0.0053 0.0705,-0.0079 0.10996,-0.0079 0.0408,0 0.0817,0.002 0.12314,0.0059 l 0.0935,0.0086 c 0.0652,0.0059 0.13038,0.01251 0.19557,0.0158 0.0658,0.0046 0.13499,0.0066 0.20479,0.0086 l 0.077,0.002 h 0.0724 c 0.38324,0 0.87052,0.05334 1.26232,0.09614 0.17384,0.0191 0.3332,0.03622 0.46621,0.04741 l 0.083,0.0072 c 0.0705,0.0059 0.14224,0.01119 0.21204,0.02436 0.0198,0.004 0.0494,0.0072 0.0698,0.0072 0.0968,0 0.19754,-0.04544 0.2601,-0.119846 0.0626,-0.07375 0.0915,-0.185035 0.0751,-0.280516 -0.007,-0.04083 -0.004,-0.146844 0.0132,-0.247593 0.002,-0.01317 0.003,-0.02568 0.004,-0.03885 10e-4,-0.04478 -0.001,-0.08626 -0.01,-0.127089 -0.0435,-0.183719 -0.18438,-0.30093 -0.36151,-0.308173 l -0.0882,6.58e-4 -0.0698,0.0033 -0.11062,0.004 c -0.0863,0.002 -0.36744,0.0066 -0.62162,0.0066 -0.16067,0 -0.31081,-0.0013 -0.38719,-0.0072 -0.23969,-0.01712 -0.47872,-0.02963 -0.71644,-0.04214 -0.18898,-0.0099 -0.36019,-0.03161 -0.52218,-0.06717 -0.24167,-0.054 -0.41353,-0.121162 -0.55511,-0.21796 -0.19754,-0.135649 -0.41353,-0.223887 -0.57881,-0.285785 -0.441191,-0.16594 -0.821798,-0.26603 -1.197137,-0.314758 l -0.05992,-0.0079 c -0.09416,-0.01317 -0.186353,-0.02502 -0.281175,-0.03029 -0.05992,-0.002 -0.120504,-0.0033 -0.182402,-0.0033 z m 1.256399,1.364391 c 0.01185,-0.05334 0.0191,-0.107992 0.02305,-0.163305 0.06848,0.0237 0.131698,0.04807 0.191621,0.07441 -0.06387,0.03227 -0.134991,0.0619 -0.214668,0.0889 z"
       id="path238"
       inkscape:connector-curvature="0"
       style="fill:#560f19;stroke-width:0.65848994" />
    <path
       d="m 98.201138,91.519259 c 0.55379,0 1.256399,0.08955 1.881962,0.439213 0.18372,0.104041 0.33912,0.207424 0.41748,0.25286 0.40432,0.237056 0.6552,0.376656 0.99169,0.418141 0.16462,0.02041 0.45568,0.04675 0.79743,0.04675 0.39905,0 0.86658,-0.03556 1.28011,-0.157379 0.0138,-0.004 0.027,-0.0059 0.0408,-0.0059 0.0224,0 0.0435,0.0046 0.0639,0.01383 0.0356,0.01712 0.0816,0.175816 0.0612,0.209399 -0.0184,0.02897 -0.0468,0.05268 -0.083,0.06256 -0.36942,0.109309 -0.77175,0.145526 -1.15368,0.145526 -0.38061,0 -0.74146,-0.03688 -1.03449,-0.07309 -0.39575,-0.04939 -0.69865,-0.226521 -1.11745,-0.472796 -0.11063,-0.06519 -0.2364,-0.138283 -0.373367,-0.215985 -0.528767,-0.29632 -1.127993,-0.376656 -1.625812,-0.376656 -0.54062,0 -0.962054,0.09548 -1.045023,0.113919 -0.457651,0.103383 -0.933081,0.4188 -1.23006,0.858671 -0.02634,0.03951 -0.06848,0.0619 -0.111943,0.06453 -6.58e-4,0 -6.58e-4,0 -0.0013,0 -0.03227,0 -0.144209,-0.08165 -0.150794,-0.117211 -0.0072,-0.03688 -0.0066,-0.140259 0.01646,-0.173842 0.336489,-0.499794 0.879084,-0.81982 1.407193,-0.939665 0.081,-0.01778 0.46226,-0.09285 0.968639,-0.09285 m 0,-0.329245 c -0.577496,0 -0.996295,0.09087 -1.041731,0.101407 -0.662441,0.150795 -1.248497,0.543255 -1.607374,1.076632 -0.113919,0.164622 -0.06782,0.417482 -0.06717,0.419458 0.03622,0.201498 0.295003,0.384558 0.474113,0.384558 0.170549,-0.0092 0.304222,-0.08626 0.387192,-0.210717 0.239032,-0.354268 0.634126,-0.630833 1.028561,-0.720388 0.304222,-0.06848 0.648613,-0.106017 0.97259,-0.106017 0.574862,0 1.06807,0.112602 1.46514,0.334513 0.133673,0.07573 0.258126,0.14816 0.367436,0.212034 0.43658,0.256152 0.78097,0.458309 1.24455,0.515597 0.28381,0.03556 0.66244,0.07573 1.07531,0.07573 0.47016,0 0.88962,-0.054 1.24718,-0.159355 0.10865,-0.03095 0.20479,-0.102724 0.26735,-0.201498 0.0645,-0.106017 0.0724,-0.228496 0.029,-0.37929 -0.0441,-0.151453 -0.11721,-0.250226 -0.22257,-0.302247 -0.0731,-0.03292 -0.14026,-0.04741 -0.20874,-0.04741 -0.0448,0 -0.0895,0.0066 -0.13236,0.0191 -0.32068,0.09482 -0.73092,0.144209 -1.18857,0.144209 -0.36415,0 -0.64993,-0.03095 -0.75595,-0.04412 -0.27261,-0.03358 -0.48465,-0.152112 -0.86591,-0.375998 -0.0283,-0.0158 -0.0645,-0.03885 -0.10799,-0.06585 -0.0843,-0.05268 -0.19294,-0.120504 -0.3141,-0.188987 -0.565646,-0.314758 -1.271547,-0.481356 -2.045931,-0.481356 z"
       id="path246"
       inkscape:connector-curvature="0"
       style="fill:#560f19;stroke-width:0.65848994" />
  </g>
</svg>
