<?xml version="1.0" encoding="UTF-8" standalone="no"?>
<!-- Created with Inkscape (http://www.inkscape.org/) -->

<svg
   xmlns:dc="http://purl.org/dc/elements/1.1/"
   xmlns:cc="http://creativecommons.org/ns#"
   xmlns:rdf="http://www.w3.org/1999/02/22-rdf-syntax-ns#"
   xmlns:svg="http://www.w3.org/2000/svg"
   xmlns="http://www.w3.org/2000/svg"
   xmlns:sodipodi="http://sodipodi.sourceforge.net/DTD/sodipodi-0.dtd"
   xmlns:inkscape="http://www.inkscape.org/namespaces/inkscape"
   width="9.6346092mm"
   height="7.4294758mm"
   viewBox="0 0 9.6346092 7.4294758"
   version="1.1"
   id="svg4800"
   inkscape:version="0.92.0 r15299"
   sodipodi:docname="icon-eye.svg">
  <defs
     id="defs4794" />
  <sodipodi:namedview
     id="base"
     pagecolor="#ffffff"
     bordercolor="#666666"
     borderopacity="1.0"
     inkscape:pageopacity="0.0"
     inkscape:pageshadow="2"
     inkscape:zoom="11.2"
     inkscape:cx="-1.7405179"
     inkscape:cy="11.114273"
     inkscape:document-units="mm"
     inkscape:current-layer="layer1"
     showgrid="false"
     inkscape:window-width="1280"
     inkscape:window-height="961"
     inkscape:window-x="1272"
     inkscape:window-y="-8"
     inkscape:window-maximized="1"
     fit-margin-top="0.5"
     fit-margin-left="0.5"
     fit-margin-right="0.5"
     fit-margin-bottom="0.5" />
  <metadata
     id="metadata4797">
    <rdf:RDF>
      <cc:Work
         rdf:about="">
        <dc:format>image/svg+xml</dc:format>
        <dc:type
           rdf:resource="http://purl.org/dc/dcmitype/StillImage" />
        <dc:title />
      </cc:Work>
    </rdf:RDF>
  </metadata>
  <g
     inkscape:label="Layer 1"
     inkscape:groupmode="layer"
     id="layer1"
     transform="translate(-94.96887,-90.690039)">
    <path
       d="m 97.262131,97.450278 c -0.08429,-0.01449 -0.146184,-0.06387 -0.188328,-0.146185 -0.03753,-0.07177 -0.05334,-0.14355 -0.06453,-0.20479 l -0.01976,-0.128406 c -0.03819,-0.243641 -0.07441,-0.480039 -0.13499,-0.721046 0,0.0013 -0.0013,0.002 -0.0026,0.002 -0.0086,0 -0.03885,-0.02239 -0.05729,-0.03622 -0.05202,-0.03885 -0.105358,-0.07836 -0.140258,-0.133673 -0.04741,-0.07309 -0.07507,-0.156721 -0.08165,-0.246934 -0.0079,-0.111285 0.02173,-0.21796 0.08692,-0.316733 l 0.06256,-0.07507 c 0.02897,-0.03227 0.09087,-0.09812 0.09087,-0.122479 0,-0.149478 -0.0053,-0.313442 -0.01383,-0.46226 -0.0066,0.0033 -0.01449,0.0046 -0.02502,0.0046 -0.02239,0 -0.05268,-0.0059 -0.08034,-0.01054 -0.05268,-0.0086 -0.106016,-0.01119 -0.159354,-0.01119 l -0.534035,0.0158 c -0.03819,0.01646 -0.07639,0.02963 -0.11787,0.02963 -0.121821,-0.02634 -0.18306,-0.081 -0.21796,-0.156721 -0.03753,-0.07968 -0.04017,-0.169232 -0.0066,-0.241007 0.03753,-0.0777 0.107992,-0.10931 0.159354,-0.131698 0.06387,-0.05795 0.123796,-0.116553 0.183061,-0.1745 0.209399,-0.206766 0.354926,-0.39707 0.513622,-0.609762 0.07704,-0.104041 0.155403,-0.206766 0.240349,-0.304881 0.123137,-0.144867 0.275907,-0.248909 0.454358,-0.307514 0.195571,-0.06519 0.331879,-0.109968 0.474771,-0.136966 0.128405,-0.02371 0.259445,-0.03227 0.390484,-0.03885 0.07375,-0.0033 0.148819,-0.0059 0.223887,-0.0059 0.05861,0 0.116553,0.0013 0.175158,0.0046 0.08955,0.0053 0.178451,0.01712 0.268006,0.02897 0.423409,0.05531 0.792163,0.152112 1.221499,0.3141 0.156065,0.05795 0.360195,0.141575 0.543915,0.267347 0.1587,0.108651 0.34768,0.18306 0.6124,0.242324 0.17055,0.03753 0.35031,0.06058 0.54852,0.07112 0.23706,0.01185 0.47477,0.02436 0.71183,0.04149 0.079,0.0059 0.23376,0.0079 0.3997,0.0079 0.25615,0 0.53865,-0.0046 0.62491,-0.0066 0,0 0.25615,-0.0086 0.25681,-0.0086 0.10667,0.0046 0.18306,0.06848 0.20742,0.171866 0.004,0.01449 0.009,0.07704 0.008,0.09219 -0.0198,0.129064 -0.0244,0.253519 -0.0138,0.322002 0.007,0.04741 -0.008,0.109309 -0.0388,0.145526 -0.0316,0.03687 -0.0863,0.06124 -0.13434,0.06124 -0.11589,-0.01844 -0.19228,-0.02437 -0.26866,-0.03095 0,0 -0.37205,-0.03556 -0.54457,-0.05465 -0.39575,-0.04346 -0.8883,-0.09746 -1.28011,-0.09746 -0.002,0 -0.14486,-0.002 -0.14486,-0.002 -0.0678,-0.002 -0.13499,-0.004 -0.20282,-0.0086 -0.0612,-0.0033 -0.28117,-0.02371 -0.28117,-0.02371 -0.0461,-0.004 -0.0922,-0.0066 -0.13763,-0.0066 -0.0672,0 -0.12577,0.0059 -0.17977,0.01778 -0.0764,0.05268 -0.19557,0.09943 -0.31475,0.146185 l -0.0817,0.03161 c -0.2252,0.09021 -0.451725,0.177133 -0.686148,0.241665 -0.245617,0.06782 -0.495184,0.119187 -0.742118,0.152112 -0.01317,0.002 -0.02568,0.0033 -0.03885,0.0053 0.08429,0.08231 0.1745,0.156721 0.262738,0.231789 0.453041,0.37929 0.978518,0.719729 1.611328,1.043707 0.31344,0.16133 0.5742,0.279199 0.8218,0.371388 0.18898,0.07112 0.38324,0.11787 0.57749,0.138941 0.0836,0.0086 0.1666,0.01383 0.24891,0.01383 0.25944,0 0.49255,-0.04544 0.71314,-0.138942 0.13895,-0.05795 0.24496,-0.131039 0.32596,-0.223228 0.0369,-0.04214 0.0652,-0.08626 0.0856,-0.133015 -0.0573,0.07375 -0.1633,0.116553 -0.24825,0.125113 -0.002,0 -0.005,0 -0.007,0 -0.30554,0 -0.52087,-0.175158 -0.57552,-0.425384 -0.0645,-0.289736 0.10535,-0.607128 0.37797,-0.707877 0.0816,-0.02963 0.16594,-0.04478 0.25088,-0.04478 0.24628,0 0.46029,0.123796 0.58804,0.338463 0.0658,0.109968 0.10338,0.233106 0.11326,0.365462 0.0125,0.138942 0.006,0.263396 -0.0198,0.378632 -0.0468,0.206766 -0.14948,0.388509 -0.30488,0.541279 -0.15935,0.155404 -0.35361,0.271956 -0.59396,0.355584 -0.25681,0.09087 -0.52876,0.134991 -0.83035,0.134991 l -0.1317,-0.0026 c -0.35163,-0.01515 -0.71578,-0.100749 -1.14446,-0.270639 -0.85538,-0.337806 -1.720634,-0.81982 -2.645154,-1.472384 -0.08956,-0.06321 -0.176475,-0.132356 -0.262079,-0.200839 0,0 -0.16989,-0.132357 -0.175158,-0.136308 0,0 -0.0026,0.244958 -0.0033,0.298296 0,0.07178 -6.58e-4,0.142892 -0.0059,0.214668 -0.0033,0.05597 -0.01778,0.109309 -0.04412,0.157379 -0.01712,0.03161 -0.02371,0.07573 -0.03029,0.129722 -0.01844,0.148819 -0.02436,0.295662 -0.02963,0.442506 l -0.01053,0.24825 c -0.0072,0.162647 -0.01383,0.324636 -0.02634,0.486625 -0.01054,0.129064 -0.05992,0.202814 -0.138941,0.241007 -0.05926,0.02963 -0.125772,0.04544 -0.197547,0.04544 -0.0066,0.004 -0.06848,-0.0013 -0.07573,-0.002 z m 5.900069,-1.54811 c 0.2364,0 0.29435,0.09482 0.30817,0.156721 0.005,-0.09482 -0.001,-0.172524 -0.0191,-0.242324 -0.0277,-0.107993 -0.1238,-0.185695 -0.23442,-0.189646 -6.6e-4,0 -6.6e-4,0 -6.6e-4,0 -0.0915,0 -0.16002,0.06651 -0.16265,0.151453 -0.003,0.06651 0.0165,0.09219 0.0395,0.109968 0.007,0.0053 0.0303,0.01383 0.0672,0.01383 0,0 6.5e-4,0 0.002,0 z m -6.17005,-1.612642 c 0.129064,0.01251 0.258787,0.02239 0.387851,0.02963 -0.119187,-0.175158 -0.179109,-0.371388 -0.181085,-0.58869 -0.08165,0.06914 -0.14816,0.140917 -0.202156,0.217302 -0.07704,0.109968 -0.16594,0.210717 -0.254836,0.310149 l -0.004,0.0046 z m 2.418634,-0.694707 c 0.02371,0.227179 -0.0158,0.436579 -0.118528,0.626883 0.02897,-0.0059 0.05729,-0.01317 0.08626,-0.01975 0.215326,-0.054 0.381266,-0.115236 0.521524,-0.194254 0.06848,-0.03885 0.12709,-0.081 0.17779,-0.127089 -0.0579,-0.04939 -0.111282,-0.07836 -0.17779,-0.109968 -0.140917,-0.06848 -0.300271,-0.125771 -0.489258,-0.175817 z"
       id="path236"
       inkscape:connector-curvature="0"
       style="clip-rule:evenodd;fill:#fff5c4;fill-rule:evenodd;stroke-width:0.65848994" />
    <path
       d="m 102.4991,93.109512 c -0.40365,0 -0.77636,-0.03951 -1.0549,-0.07441 -0.42999,-0.05334 -0.76121,-0.247592 -1.18133,-0.493868 -0.10997,-0.06519 -0.23442,-0.137624 -0.37073,-0.214667 -0.421433,-0.23574 -0.940982,-0.355585 -1.544817,-0.355585 -0.335172,0 -0.69339,0.03885 -1.00749,0.109968 -0.435262,0.09812 -0.86789,0.40102 -1.131286,0.790188 -0.054,0.08099 -0.140917,0.131039 -0.238373,0.136966 h -6.59e-4 c -0.118528,0 -0.301588,-0.133015 -0.32266,-0.25286 v 0 c 0,0 -0.03029,-0.189645 0.04346,-0.296321 0.334513,-0.497818 0.883693,-0.865256 1.505308,-1.006172 0.04412,-0.0099 0.446456,-0.09746 1.005514,-0.09746 0.746069,0 1.424314,0.159355 1.962303,0.460285 0.11918,0.06782 0.22586,0.134331 0.30817,0.185694 l 0.11129,0.06848 c 0.39048,0.228496 0.62556,0.359535 0.92978,0.397728 0.10931,0.01383 0.403,0.04543 0.77702,0.04543 0.47938,0 0.89423,-0.0507 1.23401,-0.150794 0.0145,-0.0046 0.0711,-0.01251 0.0869,-0.01251 0.0454,0 0.0896,0.0099 0.13104,0.02832 0.0441,0.02173 0.10141,0.06387 0.14224,0.202815 0.0408,0.138941 0.0145,0.20479 -0.008,0.242324 -0.0428,0.06782 -0.10601,0.114577 -0.17845,0.135649 -0.34109,0.09943 -0.74475,0.150794 -1.19845,0.150794 z"
       id="path244"
       inkscape:connector-curvature="0"
       style="fill:#fff5c4;stroke-width:0.65848994" />
  </g>
</svg>
