<?xml version="1.0" encoding="UTF-8" standalone="no"?>
<!-- Generator: Adobe Illustrator 16.0.0, SVG Export Plug-In . SVG Version: 6.00 Build 0)  -->

<svg
   xmlns:dc="http://purl.org/dc/elements/1.1/"
   xmlns:cc="http://creativecommons.org/ns#"
   xmlns:rdf="http://www.w3.org/1999/02/22-rdf-syntax-ns#"
   xmlns:svg="http://www.w3.org/2000/svg"
   xmlns="http://www.w3.org/2000/svg"
   xmlns:sodipodi="http://sodipodi.sourceforge.net/DTD/sodipodi-0.dtd"
   xmlns:inkscape="http://www.inkscape.org/namespaces/inkscape"
   version="1.1"
   id="Layer_1"
   x="0px"
   y="0px"
   width="56.693px"
   height="56.693px"
   viewBox="-7.087 -7.087 56.693 56.693"
   enable-background="new -7.087 -7.087 56.693 56.693"
   xml:space="preserve"
   sodipodi:docname="Localite-Ville.svg"
   inkscape:version="0.92.0 r15299"><metadata
   id="metadata11"><rdf:RDF><cc:Work
       rdf:about=""><dc:format>image/svg+xml</dc:format><dc:type
         rdf:resource="http://purl.org/dc/dcmitype/StillImage" /></cc:Work></rdf:RDF></metadata><defs
   id="defs9" /><sodipodi:namedview
   pagecolor="#ffffff"
   bordercolor="#666666"
   borderopacity="1"
   objecttolerance="10"
   gridtolerance="10"
   guidetolerance="10"
   inkscape:pageopacity="0"
   inkscape:pageshadow="2"
   inkscape:window-width="1280"
   inkscape:window-height="961"
   id="namedview7"
   showgrid="false"
   inkscape:zoom="4.1627714"
   inkscape:cx="-3.8435933"
   inkscape:cy="28.3465"
   inkscape:window-x="1272"
   inkscape:window-y="-8"
   inkscape:window-maximized="1"
   inkscape:current-layer="Layer_1" />
<path
   d="M 28.851562 0.28515625 C 27.582563 0.27115625 26.317734 0.30667188 25.052734 0.38867188 C 24.253734 0.44067187 23.487672 0.60875 22.763672 0.96875 C 22.199672 1.24975 21.602234 1.4611875 20.990234 1.6171875 C 20.176234 1.8251875 19.385328 2.0949219 18.611328 2.4199219 C 17.555328 2.8629219 16.521047 3.3422656 15.623047 4.0722656 C 15.287047 4.3452656 14.908172 4.5332188 14.451172 4.5742188 C 13.799172 4.6322187 13.249422 4.9578906 12.732422 5.3378906 C 12.468422 5.5308906 12.254719 5.7781875 12.011719 5.9921875 C 11.808719 6.1711875 11.599078 6.3471094 11.330078 6.4121094 C 11.193078 6.4461094 11.068078 6.4942656 10.955078 6.5722656 C 9.7650781 7.3782656 8.7404062 8.3507813 7.9414062 9.5507812 C 7.3864063 10.382781 6.9386875 11.275766 6.4296875 12.134766 C 6.2596875 12.422766 6.0860938 12.707797 5.8710938 12.966797 C 5.6990938 13.173797 5.4957969 13.314844 5.2167969 13.339844 C 4.9557969 13.363844 4.7639531 13.505609 4.6269531 13.724609 C 4.5129531 13.905609 4.42375 14.100875 4.34375 14.296875 C 4.06075 14.992875 3.7115312 15.644719 3.2695312 16.261719 C 2.5705312 17.240719 2.08775 18.336516 1.71875 19.478516 C 1.48475 20.203516 1.4577656 20.9845 1.1347656 21.6875 C 0.61676563 23.6825 0.43820313 25.701906 0.65820312 27.753906 C 0.81220312 29.186906 1.0855469 30.594234 1.4355469 31.990234 C 1.6425469 32.813234 1.8778594 33.632656 2.0058594 34.472656 C 2.0848594 34.991656 2.1161875 35.50825 2.1171875 36.03125 C 2.1181875 36.32825 2.1625 36.624406 2.4375 36.816406 C 2.5695 36.906406 2.673625 37.019438 2.765625 37.148438 C 2.988625 37.463438 3.1656406 37.806969 3.3066406 38.167969 C 3.7816406 39.383969 4.2723281 40.591766 4.8613281 41.759766 C 5.4863281 42.999766 6.2898906 44.100391 7.3378906 45.025391 C 8.0768906 45.676391 8.8227969 46.319547 9.5917969 46.935547 C 10.154797 47.386547 10.755406 47.788187 11.316406 48.242188 C 12.087406 48.863187 12.744891 49.597719 13.337891 50.386719 C 13.843891 51.059719 14.478 51.560391 15.25 51.900391 C 16.913 52.634391 18.570375 53.381234 20.234375 54.115234 C 21.224375 54.551234 22.238906 54.926734 23.253906 55.302734 C 23.648906 55.448734 24.050562 55.613062 24.351562 55.914062 C 24.565562 56.128062 24.807844 56.242688 25.089844 56.304688 C 25.646844 56.426687 26.211391 56.431859 26.775391 56.380859 C 27.387391 56.329859 27.978672 56.202187 28.513672 55.867188 C 28.825672 55.672187 29.182734 55.568781 29.552734 55.550781 C 29.971734 55.529781 30.385063 55.472187 30.789062 55.367188 C 31.694063 55.133187 32.60325 54.908109 33.53125 54.787109 C 34.41425 54.671109 35.270797 54.462094 36.091797 54.121094 C 38.129797 53.277094 40.1165 52.324109 42.0625 51.287109 C 43.0715 50.747109 44.065516 50.178219 44.853516 49.324219 C 44.942516 49.227219 45.049687 49.140469 45.179688 49.105469 C 45.290687 49.074469 45.383656 49.020172 45.472656 48.951172 C 45.827656 48.678172 46.145891 48.362828 46.462891 48.048828 C 48.003891 46.508828 49.344578 44.800594 50.642578 43.058594 C 51.359578 42.096594 51.987016 41.082078 52.416016 39.955078 C 52.686016 39.250078 53.015563 38.571484 53.351562 37.896484 C 53.584563 37.429484 53.799219 36.952125 53.949219 36.453125 C 54.237219 35.499125 54.519016 34.544937 54.791016 33.585938 C 54.998016 32.855938 55.189516 32.118469 55.228516 31.355469 C 55.251516 30.905469 55.317469 30.464828 55.480469 30.048828 C 55.745469 29.380828 55.833313 28.6925 55.820312 28.0625 C 55.822312 27.1885 55.724844 26.404 55.589844 25.625 C 55.288844 23.906 54.813984 22.233609 54.208984 20.599609 C 52.973984 17.259609 51.309859 14.128453 49.505859 11.064453 C 49.187859 10.522453 48.773344 10.0735 48.277344 9.6875 C 47.750344 9.2745 47.206297 8.883 46.654297 8.5 C 45.965297 8.022 45.294109 7.52375 44.662109 6.96875 C 43.766109 6.18075 42.773641 5.5320625 41.681641 5.0390625 C 40.895641 4.6860625 40.1635 4.24125 39.4375 3.78125 C 38.1705 2.98225 36.860516 2.2813437 35.353516 2.0273438 C 34.783516 1.9313437 34.262188 1.6707344 33.742188 1.4277344 C 32.192188 0.70673437 30.570562 0.30315625 28.851562 0.28515625 z M 27.257812 3.1210938 C 27.583313 3.1175312 27.909828 3.1220156 28.236328 3.1347656 C 29.168328 3.1717656 30.090906 3.2735156 31.003906 3.4785156 C 31.667906 3.6285156 32.287437 3.8886406 32.898438 4.1816406 C 33.992437 4.7056406 35.131984 5.1362188 36.208984 5.6992188 C 36.795984 6.0062188 37.316484 6.415375 37.896484 6.734375 C 38.464484 7.046375 39.012781 7.3891406 39.550781 7.7441406 L 39.724609 7.7441406 C 40.656609 7.7441406 41.431297 8.3831406 41.654297 9.2441406 C 42.086297 9.5751406 42.5125 9.9119531 42.9375 10.251953 C 43.3815 10.607953 43.801266 10.994281 44.322266 11.238281 C 44.780266 11.451281 45.158141 11.757094 45.494141 12.121094 C 45.772141 12.425094 45.995031 12.772 46.207031 13.125 C 47.015031 14.475 47.723859 15.872516 48.255859 17.353516 C 48.366859 17.660516 48.406328 17.984875 48.486328 18.296875 C 48.577328 18.650875 48.684469 18.998953 48.980469 19.251953 C 49.105469 19.360953 49.1395 19.523641 49.1875 19.681641 C 49.3415 20.195641 49.557812 20.686594 49.757812 21.183594 C 50.118812 22.084594 50.526703 22.967719 50.845703 23.886719 C 51.095703 24.610719 51.151656 25.350469 51.097656 26.105469 C 51.007656 27.373469 50.900484 28.639297 50.771484 29.904297 C 50.635484 31.243297 50.508266 32.583484 50.197266 33.896484 C 50.083266 34.381484 49.910203 34.841344 49.658203 35.277344 C 49.348203 35.819344 49.157219 36.416953 48.949219 37.001953 C 48.639219 37.877953 48.251672 38.716766 47.763672 39.509766 C 47.622672 39.738766 47.503234 39.979031 47.365234 40.207031 C 47.268234 40.367031 47.266641 40.557703 47.181641 40.720703 C 47.040641 40.991703 46.875453 41.246281 46.689453 41.488281 C 45.472453 43.070281 44.116219 44.520922 42.574219 45.794922 C 42.349219 45.979922 42.108516 46.136344 41.853516 46.277344 C 41.499516 46.474344 41.178594 46.721969 40.933594 47.042969 C 40.714594 47.330969 40.466172 47.587266 40.201172 47.822266 C 40.058172 48.788266 39.235469 49.53125 38.230469 49.53125 L 37.597656 49.53125 C 36.935656 49.87725 36.247297 50.178016 35.529297 50.416016 C 34.444297 50.776016 33.328547 50.944172 32.185547 50.951172 C 31.620547 50.953172 31.056234 50.951172 30.490234 50.951172 C 29.522234 50.963172 28.556797 50.953672 27.591797 50.888672 C 27.408797 50.876672 27.227875 50.853078 27.046875 50.830078 C 27.006875 50.825078 26.959688 50.821828 26.929688 50.798828 C 26.579687 50.539828 26.158953 50.504875 25.751953 50.421875 C 24.207953 50.111875 22.677672 49.728484 21.138672 49.396484 L 21.117188 49.390625 C 20.888188 49.482625 20.638953 49.533203 20.376953 49.533203 L 18.466797 49.533203 C 17.362797 49.533203 16.466797 48.637203 16.466797 47.533203 L 16.466797 47.060547 C 16.063797 46.841547 15.660094 46.624781 15.246094 46.425781 C 14.921094 46.269781 14.606641 46.091578 14.306641 45.892578 C 14.012641 45.698578 13.747453 45.485969 13.564453 45.167969 C 13.390453 44.866969 13.126656 44.630734 12.847656 44.427734 C 12.210656 43.963734 11.700047 43.377141 11.248047 42.744141 C 10.580047 41.807141 9.8418437 40.936594 8.9648438 40.183594 C 8.4398437 39.733594 8.0736719 39.178766 7.8886719 38.509766 C 7.8006719 38.191766 7.6907344 37.881031 7.5527344 37.582031 C 7.4467344 37.352031 7.332625 37.126266 7.140625 36.947266 C 7.016625 36.832266 6.9311562 36.682719 6.9101562 36.511719 C 6.8561562 36.049719 6.705875 35.614594 6.546875 35.183594 C 6.086875 33.935594 5.7857656 32.645609 5.5097656 31.349609 C 5.2697656 30.219609 5.0693594 29.083547 4.9433594 27.935547 C 4.8543594 27.124547 4.8831875 26.319672 4.9921875 25.513672 C 5.2151875 23.870672 5.56675 22.255641 6.09375 20.681641 C 6.27175 20.148641 6.4722344 19.623953 6.7402344 19.126953 C 6.8172344 18.983953 6.9028125 18.846656 7.0078125 18.722656 C 7.3228125 18.347656 7.5704844 17.929375 7.7714844 17.484375 C 7.8844844 17.235375 7.9999687 16.988531 8.1679688 16.769531 C 8.2549688 16.651531 8.3542812 16.546656 8.4882812 16.472656 C 8.6112813 16.406656 8.6894375 16.290641 8.7734375 16.181641 C 8.9714375 15.923641 9.1469219 15.648375 9.2949219 15.359375 C 10.109922 13.761375 11.163297 12.323734 12.279297 10.927734 C 13.066297 9.9437344 13.905172 9.0055781 14.826172 8.1425781 C 14.989172 7.9895781 15.159891 7.8449844 15.337891 7.7089844 C 15.631891 7.4849844 15.956125 7.3544531 16.328125 7.3144531 C 16.793125 7.2654531 17.205312 7.0901094 17.570312 6.7871094 C 18.512313 6.0051094 19.561297 5.3829844 20.654297 4.8339844 C 21.837297 4.2409844 23.055563 3.7364062 24.351562 3.4414062 C 25.310063 3.2231563 26.281312 3.1317812 27.257812 3.1210938 z M 38.230469 9.7441406 L 38.230469 13.148438 L 15.419922 13.148438 L 11.300781 18.296875 L 45.394531 18.296875 L 41.275391 13.148438 L 39.724609 13.148438 L 39.724609 9.7441406 L 38.230469 9.7441406 z M 14.205078 19.792969 L 15.060547 20.646484 L 15.912109 19.792969 L 14.205078 19.792969 z M 19.521484 19.792969 L 20.373047 20.646484 L 21.228516 19.792969 L 19.521484 19.792969 z M 24.835938 19.792969 L 25.689453 20.646484 L 26.542969 19.792969 L 24.835938 19.792969 z M 30.150391 19.792969 L 31.080078 20.722656 L 32.054688 19.792969 L 30.150391 19.792969 z M 35.466797 19.792969 L 36.320312 20.646484 L 37.173828 19.792969 L 35.466797 19.792969 z M 40.779297 19.792969 L 41.634766 20.646484 L 42.488281 19.792969 L 40.779297 19.792969 z M 17.716797 20.103516 L 16.115234 21.703125 L 17.716797 23.304688 L 19.318359 21.703125 L 17.716797 20.103516 z M 23.03125 20.103516 L 21.431641 21.703125 L 23.03125 23.304688 L 24.632812 21.703125 L 23.03125 20.103516 z M 28.347656 20.103516 L 26.746094 21.703125 L 28.359375 23.316406 L 29.998047 21.755859 L 28.347656 20.103516 z M 38.976562 20.103516 L 37.376953 21.703125 L 38.976562 23.304688 L 40.578125 21.703125 L 38.976562 20.103516 z M 33.775391 20.216797 L 32.136719 21.779297 L 33.660156 23.302734 L 35.261719 21.701172 L 33.775391 20.216797 z M 13.150391 20.849609 L 13.150391 22.556641 L 14.003906 21.703125 L 13.150391 20.849609 z M 43.544922 20.849609 L 42.689453 21.703125 L 43.544922 22.556641 L 43.544922 20.849609 z M 15.060547 22.759766 L 14.205078 23.613281 L 15.912109 23.613281 L 15.060547 22.759766 z M 20.373047 22.759766 L 19.521484 23.613281 L 21.228516 23.613281 L 20.373047 22.759766 z M 25.689453 22.759766 L 24.835938 23.613281 L 26.542969 23.613281 L 25.689453 22.759766 z M 36.318359 22.759766 L 35.464844 23.613281 L 37.171875 23.613281 L 36.318359 22.759766 z M 41.634766 22.759766 L 40.779297 23.613281 L 42.486328 23.613281 L 41.634766 22.759766 z M 31.056641 22.810547 L 30.214844 23.613281 L 31.857422 23.613281 L 31.056641 22.810547 z M 13.150391 25.107422 L 13.150391 35.572266 L 43.544922 35.572266 L 43.544922 25.107422 L 13.150391 25.107422 z M 15.060547 28.347656 L 21.703125 28.347656 L 21.703125 31.003906 L 15.060547 31.003906 L 15.060547 28.347656 z M 24.359375 28.347656 L 32.332031 28.347656 L 32.332031 31.003906 L 24.359375 31.003906 L 24.359375 28.347656 z M 34.990234 28.347656 L 41.634766 28.347656 L 41.634766 31.003906 L 34.990234 31.003906 L 34.990234 28.347656 z M 13.357422 37.066406 L 16.96875 41.882812 L 16.96875 39.392578 L 15.226562 37.066406 L 13.357422 37.066406 z M 18.464844 37.066406 L 18.464844 47.53125 L 20.373047 47.53125 L 20.373047 41.634766 L 24.359375 41.634766 L 24.359375 47.53125 L 38.228516 47.53125 L 38.228516 37.066406 L 18.464844 37.066406 z M 41.46875 37.066406 L 39.724609 39.392578 L 39.724609 41.882812 L 43.337891 37.066406 L 41.46875 37.066406 z M 27.017578 41.634766 L 29.675781 41.634766 L 29.675781 44.292969 L 27.017578 44.292969 L 27.017578 41.634766 z M 32.332031 41.634766 L 34.990234 41.634766 L 34.990234 44.292969 L 32.332031 44.292969 L 32.332031 41.634766 z "
   transform="translate(-7.087,-7.087)"
   id="path2" />

</svg>