<?xml version="1.0" encoding="UTF-8" standalone="no"?>
<!-- Generator: Adobe Illustrator 16.0.0, SVG Export Plug-In . SVG Version: 6.00 Build 0)  -->

<svg
   xmlns:dc="http://purl.org/dc/elements/1.1/"
   xmlns:cc="http://creativecommons.org/ns#"
   xmlns:rdf="http://www.w3.org/1999/02/22-rdf-syntax-ns#"
   xmlns:svg="http://www.w3.org/2000/svg"
   xmlns="http://www.w3.org/2000/svg"
   xmlns:sodipodi="http://sodipodi.sourceforge.net/DTD/sodipodi-0.dtd"
   xmlns:inkscape="http://www.inkscape.org/namespaces/inkscape"
   version="1.1"
   id="Layer_1"
   x="0px"
   y="0px"
   width="56.693px"
   height="56.693px"
   viewBox="-7.087 -7.087 56.693 56.693"
   enable-background="new -7.087 -7.087 56.693 56.693"
   xml:space="preserve"
   sodipodi:docname="Localite-Cite.svg"
   inkscape:version="0.92.0 r15299"><metadata
   id="metadata25"><rdf:RDF><cc:Work
       rdf:about=""><dc:format>image/svg+xml</dc:format><dc:type
         rdf:resource="http://purl.org/dc/dcmitype/StillImage" /></cc:Work></rdf:RDF></metadata><defs
   id="defs23">
	
	
	

			
			
		
		
		
	</defs><sodipodi:namedview
   pagecolor="#ffffff"
   bordercolor="#666666"
   borderopacity="1"
   objecttolerance="10"
   gridtolerance="10"
   guidetolerance="10"
   inkscape:pageopacity="0"
   inkscape:pageshadow="2"
   inkscape:window-width="1280"
   inkscape:window-height="961"
   id="namedview21"
   showgrid="false"
   inkscape:zoom="4.1627714"
   inkscape:cx="-3.8435933"
   inkscape:cy="28.3465"
   inkscape:window-x="-8"
   inkscape:window-y="-8"
   inkscape:window-maximized="1"
   inkscape:current-layer="Layer_1" />
<path
   style="fill:#bd0926"
   d="M 28.851562 0.28515625 C 27.582563 0.27115625 26.317734 0.30667188 25.052734 0.38867188 C 24.253734 0.44067187 23.487672 0.60875 22.763672 0.96875 C 22.199672 1.24975 21.602234 1.4611875 20.990234 1.6171875 C 20.176234 1.8251875 19.385328 2.0949219 18.611328 2.4199219 C 17.555328 2.8629219 16.521047 3.3422656 15.623047 4.0722656 C 15.287047 4.3452656 14.908172 4.5332188 14.451172 4.5742188 C 13.799172 4.6322187 13.249422 4.9578906 12.732422 5.3378906 C 12.468422 5.5308906 12.254719 5.7781875 12.011719 5.9921875 C 11.808719 6.1711875 11.599078 6.3471094 11.330078 6.4121094 C 11.193078 6.4461094 11.068078 6.4942656 10.955078 6.5722656 C 9.7650781 7.3782656 8.7404062 8.3507813 7.9414062 9.5507812 C 7.3864063 10.382781 6.9386875 11.275766 6.4296875 12.134766 C 6.2596875 12.422766 6.0860938 12.707797 5.8710938 12.966797 C 5.6990938 13.173797 5.4957969 13.314844 5.2167969 13.339844 C 4.9557969 13.363844 4.7639531 13.505609 4.6269531 13.724609 C 4.5129531 13.905609 4.42375 14.100875 4.34375 14.296875 C 4.06075 14.992875 3.7115312 15.644719 3.2695312 16.261719 C 2.5705312 17.240719 2.08775 18.336516 1.71875 19.478516 C 1.48475 20.203516 1.4577656 20.9845 1.1347656 21.6875 C 0.61676563 23.6825 0.43820313 25.701906 0.65820312 27.753906 C 0.81220312 29.186906 1.0855469 30.594234 1.4355469 31.990234 C 1.6425469 32.813234 1.8778594 33.632656 2.0058594 34.472656 C 2.0848594 34.991656 2.1161875 35.50825 2.1171875 36.03125 C 2.1181875 36.32825 2.1625 36.624406 2.4375 36.816406 C 2.5695 36.906406 2.673625 37.019438 2.765625 37.148438 C 2.988625 37.463438 3.1656406 37.806969 3.3066406 38.167969 C 3.7816406 39.383969 4.2723281 40.591766 4.8613281 41.759766 C 5.4863281 42.999766 6.2898906 44.100391 7.3378906 45.025391 C 8.0768906 45.676391 8.8227969 46.319547 9.5917969 46.935547 C 10.154797 47.386547 10.755406 47.788187 11.316406 48.242188 C 12.087406 48.863187 12.744891 49.597719 13.337891 50.386719 C 13.843891 51.059719 14.478 51.560391 15.25 51.900391 C 16.913 52.634391 18.570375 53.381234 20.234375 54.115234 C 21.224375 54.551234 22.238906 54.926734 23.253906 55.302734 C 23.648906 55.448734 24.050562 55.613062 24.351562 55.914062 C 24.565562 56.128062 24.807844 56.242688 25.089844 56.304688 C 25.646844 56.426687 26.211391 56.431859 26.775391 56.380859 C 27.387391 56.329859 27.978672 56.202187 28.513672 55.867188 C 28.825672 55.672187 29.182734 55.568781 29.552734 55.550781 C 29.971734 55.529781 30.385063 55.472187 30.789062 55.367188 C 31.694063 55.133187 32.60325 54.908109 33.53125 54.787109 C 34.41425 54.671109 35.270797 54.462094 36.091797 54.121094 C 38.129797 53.277094 40.1165 52.324109 42.0625 51.287109 C 43.0715 50.747109 44.065516 50.178219 44.853516 49.324219 C 44.942516 49.227219 45.049687 49.140469 45.179688 49.105469 C 45.290687 49.074469 45.383656 49.020172 45.472656 48.951172 C 45.827656 48.678172 46.145891 48.362828 46.462891 48.048828 C 48.003891 46.508828 49.344578 44.800594 50.642578 43.058594 C 51.359578 42.096594 51.987016 41.082078 52.416016 39.955078 C 52.686016 39.250078 53.015563 38.571484 53.351562 37.896484 C 53.584563 37.429484 53.799219 36.952125 53.949219 36.453125 C 54.237219 35.499125 54.519016 34.544937 54.791016 33.585938 C 54.998016 32.855938 55.189516 32.118469 55.228516 31.355469 C 55.251516 30.905469 55.317469 30.464828 55.480469 30.048828 C 55.745469 29.380828 55.833313 28.6925 55.820312 28.0625 C 55.822312 27.1885 55.724844 26.404 55.589844 25.625 C 55.288844 23.906 54.813984 22.233609 54.208984 20.599609 C 52.973984 17.259609 51.309859 14.128453 49.505859 11.064453 C 49.187859 10.522453 48.773344 10.0735 48.277344 9.6875 C 47.750344 9.2745 47.206297 8.883 46.654297 8.5 C 45.965297 8.022 45.294109 7.52375 44.662109 6.96875 C 43.766109 6.18075 42.773641 5.5320625 41.681641 5.0390625 C 40.895641 4.6860625 40.1635 4.24125 39.4375 3.78125 C 38.1705 2.98225 36.860516 2.2813437 35.353516 2.0273438 C 34.783516 1.9313437 34.262188 1.6707344 33.742188 1.4277344 C 32.192188 0.70673437 30.570562 0.30315625 28.851562 0.28515625 z M 27.257812 3.1210938 C 27.583313 3.1175312 27.909828 3.1220156 28.236328 3.1347656 C 29.168328 3.1717656 30.090906 3.2735156 31.003906 3.4785156 C 31.667906 3.6285156 32.287437 3.8886406 32.898438 4.1816406 C 33.992437 4.7056406 35.131984 5.1362188 36.208984 5.6992188 C 36.795984 6.0062188 37.316484 6.415375 37.896484 6.734375 C 39.704484 7.726375 41.3355 8.9669531 42.9375 10.251953 C 43.3815 10.607953 43.801266 10.994281 44.322266 11.238281 C 44.780266 11.451281 45.158141 11.757094 45.494141 12.121094 C 45.772141 12.425094 45.995031 12.772 46.207031 13.125 C 46.487031 13.593 46.748953 14.068828 47.001953 14.548828 C 47.949953 14.705828 48.675781 15.523625 48.675781 16.515625 L 48.675781 18.845703 C 48.748781 18.994703 48.842469 19.134953 48.980469 19.251953 C 49.105469 19.360953 49.1395 19.523641 49.1875 19.681641 C 49.3415 20.195641 49.559766 20.686594 49.759766 21.183594 C 50.120766 22.084594 50.526703 22.967719 50.845703 23.886719 C 51.094703 24.610719 51.151656 25.350469 51.097656 26.105469 C 51.007656 27.373469 50.900484 28.639297 50.771484 29.904297 C 50.635484 31.243297 50.508266 32.583484 50.197266 33.896484 C 50.083266 34.381484 49.910203 34.841344 49.658203 35.277344 C 49.348203 35.819344 49.157219 36.416953 48.949219 37.001953 C 48.867219 37.232953 48.763875 37.453688 48.671875 37.679688 L 48.671875 43.794922 C 48.671875 44.898922 47.775875 45.794922 46.671875 45.794922 L 42.574219 45.794922 C 42.349219 45.979922 42.108516 46.136344 41.853516 46.277344 C 41.499516 46.474344 41.178594 46.721969 40.933594 47.042969 C 40.496594 47.616969 39.949328 48.066703 39.361328 48.470703 C 38.171328 49.285703 36.907297 49.958062 35.529297 50.414062 C 34.444297 50.774062 33.328547 50.942219 32.185547 50.949219 C 31.620547 50.951219 31.056234 50.949219 30.490234 50.949219 C 29.522234 50.961219 28.556797 50.953672 27.591797 50.888672 C 27.408797 50.876672 27.227875 50.851125 27.046875 50.828125 C 27.006875 50.823125 26.959688 50.819875 26.929688 50.796875 C 26.579687 50.537875 26.158953 50.502922 25.751953 50.419922 C 24.207953 50.109922 22.677672 49.726531 21.138672 49.394531 C 20.143672 49.178531 19.254969 48.759938 18.417969 48.210938 C 17.399969 47.543937 16.344047 46.951828 15.248047 46.423828 C 14.923047 46.267828 14.608594 46.089625 14.308594 45.890625 C 14.292594 45.879625 14.278672 45.868422 14.263672 45.857422 L 10.492188 45.857422 C 9.3881875 45.857422 8.4921875 44.961422 8.4921875 43.857422 L 8.4921875 39.685547 C 8.2171875 39.339547 8.0077656 38.953766 7.8847656 38.509766 C 7.7967656 38.191766 7.6868281 37.881031 7.5488281 37.582031 C 7.4428281 37.352031 7.3306719 37.126266 7.1386719 36.947266 C 7.0146719 36.832266 6.92725 36.682719 6.90625 36.511719 C 6.85225 36.049719 6.7039219 35.614594 6.5449219 35.183594 C 6.0849219 33.935594 5.7838125 32.645609 5.5078125 31.349609 C 5.2678125 30.219609 5.0654531 29.083547 4.9394531 27.935547 C 4.8504531 27.124547 4.8812344 26.319672 4.9902344 25.513672 C 5.2132344 23.870672 5.5647969 22.255641 6.0917969 20.681641 C 6.2697969 20.148641 6.4683281 19.623953 6.7363281 19.126953 C 6.8133281 18.983953 6.9008594 18.846656 7.0058594 18.722656 C 7.0718594 18.644656 7.1216406 18.556609 7.1816406 18.474609 C 7.1796406 18.435609 7.1640625 18.400328 7.1640625 18.361328 L 7.1640625 15.601562 C 7.1640625 14.497563 8.0600625 13.601562 9.1640625 13.601562 L 10.326172 13.601562 L 10.328125 13.601562 C 10.930125 12.677563 11.588297 11.791734 12.279297 10.927734 C 13.066297 9.9437344 13.905172 9.0055781 14.826172 8.1425781 C 14.989172 7.9895781 15.159891 7.8449844 15.337891 7.7089844 C 15.631891 7.4849844 15.956125 7.3544531 16.328125 7.3144531 C 16.793125 7.2654531 17.205312 7.0901094 17.570312 6.7871094 C 18.512313 6.0051094 19.561297 5.3829844 20.654297 4.8339844 C 21.837297 4.2409844 23.055563 3.7364062 24.351562 3.4414062 C 25.310063 3.2231563 26.281312 3.1317812 27.257812 3.1210938 z M 9.1621094 15.601562 L 9.1621094 18.361328 L 10.775391 20.519531 L 16.675781 20.519531 L 18.298828 18.359375 L 18.298828 15.601562 L 17.134766 15.601562 L 17.134766 16.929688 L 15.640625 16.929688 L 15.640625 15.601562 L 14.478516 15.601562 L 14.478516 16.929688 L 12.982422 16.929688 L 12.982422 15.601562 L 11.820312 15.601562 L 11.820312 16.929688 L 10.326172 16.929688 L 10.326172 15.601562 L 9.1621094 15.601562 z M 30.580078 15.601562 L 30.580078 18.359375 L 32.201172 20.519531 L 38.103516 20.519531 L 39.714844 18.361328 L 39.714844 15.601562 L 38.552734 15.601562 L 38.552734 16.929688 L 37.058594 16.929688 L 37.058594 15.601562 L 35.894531 15.601562 L 35.894531 16.929688 L 34.400391 16.929688 L 34.400391 15.601562 L 33.238281 15.601562 L 33.238281 16.929688 L 31.742188 16.929688 L 31.742188 15.601562 L 30.580078 15.601562 z M 45.511719 16.517578 L 45.511719 17.847656 L 44.017578 17.847656 L 44.017578 16.519531 L 42.853516 16.519531 L 42.853516 17.847656 L 41.216797 17.847656 L 41.216797 18.859375 L 40.013672 20.638672 L 40.013672 21.4375 L 45.0625 21.4375 L 46.673828 19.279297 L 46.673828 16.517578 L 45.511719 16.517578 z M 10.492188 22.015625 L 10.492188 43.855469 L 16.970703 43.855469 L 16.970703 22.015625 L 10.492188 22.015625 z M 31.908203 22.015625 L 31.908203 43.855469 L 38.388672 43.855469 L 38.388672 22.015625 L 31.908203 22.015625 z M 39.992188 22.931641 L 39.992188 25.087891 L 45.345703 25.087891 L 45.345703 22.931641 L 39.992188 22.931641 z M 41.355469 26.685547 L 41.355469 28.595703 L 40.025391 28.595703 L 40.025391 43.792969 L 46.671875 43.792969 L 46.671875 28.595703 L 45.175781 28.595703 L 45.175781 26.685547 L 44.013672 26.685547 L 44.013672 28.595703 L 42.519531 28.595703 L 42.519531 26.685547 L 41.355469 26.685547 z M 19.791016 26.748047 L 19.791016 28.658203 L 18.462891 28.658203 L 18.462891 43.855469 L 21.779297 43.855469 L 21.779297 39.287109 C 21.779297 37.295109 23.1095 36.298828 24.4375 36.298828 C 25.7655 36.298828 27.09375 37.295109 27.09375 39.287109 L 27.09375 43.855469 L 30.419922 43.855469 L 30.423828 28.658203 L 28.929688 28.658203 L 28.929688 26.748047 L 27.765625 26.748047 L 27.765625 28.658203 L 26.269531 28.658203 L 26.269531 26.748047 L 25.107422 26.748047 L 25.107422 28.658203 L 23.611328 28.658203 L 23.611328 26.748047 L 22.449219 26.748047 L 22.449219 28.658203 L 20.953125 28.658203 L 20.953125 26.748047 L 19.791016 26.748047 z "
   transform="translate(-7.087,-7.087)"
   id="path2" />

</svg>