<?xml version="1.0" encoding="utf-8"?>
<!-- Generator: Adobe Illustrator 16.0.0, SVG Export Plug-In . SVG Version: 6.00 Build 0)  -->
<!DOCTYPE svg PUBLIC "-//W3C//DTD SVG 1.1//EN" "http://www.w3.org/Graphics/SVG/1.1/DTD/svg11.dtd">
<svg version="1.1" id="Layer_1" xmlns="http://www.w3.org/2000/svg" xmlns:xlink="http://www.w3.org/1999/xlink" x="0px" y="0px"
	 width="56.693px" height="56.693px" viewBox="-7.087 -7.087 56.693 56.693" enable-background="new -7.087 -7.087 56.693 56.693"
	 xml:space="preserve">
<g>
	<path fill="#BD0926" d="M2.076,8.514v2.76l1.612,2.158h5.901l1.622-2.159V8.514h-1.163v1.329H8.554V8.514H7.391v1.329H5.896V8.515
		H4.733v1.328H3.239V8.515L2.076,8.514L2.076,8.514z M23.494,8.514v2.759l1.621,2.159h5.901l1.612-2.158v-2.76h-1.162v1.329h-1.495
		V8.515h-1.163v1.328h-1.494V8.515h-1.163v1.328h-1.495V8.515L23.494,8.514L23.494,8.514z M3.405,14.928v21.841h6.478V14.928H3.405z
		 M24.822,14.928v21.841h6.479V14.928H24.822z M23.336,21.571h-1.494v-1.909h-1.164v1.909h-1.495v-1.909h-1.163v1.909h-1.495v-1.909
		h-1.163v1.909h-1.495v-1.909h-1.163v1.909h-1.329v15.198h3.318V32.2c0-1.992,1.329-2.989,2.657-2.989
		c1.328,0,2.657,0.997,2.657,2.989v4.568h3.326"/>
	<polyline fill="#BD0926" points="39.584,21.508 38.089,21.508 38.089,19.599 36.926,19.599 36.926,21.508 35.432,21.508 
		35.432,19.599 34.269,19.599 34.269,21.508 32.939,21.508 32.939,36.706 39.584,36.706 	"/>
	<g>
		<g>
			<polygon fill="#BD0926" points="30.705,11.344 30.452,11.344 30.452,11.682 			"/>
			<polygon fill="#BD0926" points="38.425,9.431 38.425,10.761 36.93,10.761 36.93,9.433 35.767,9.433 35.767,10.761 34.129,10.761 
				34.129,11.773 32.927,13.551 32.927,14.35 37.975,14.35 39.587,12.192 39.587,9.431 			"/>
		</g>
		<rect x="32.905" y="15.845" fill="#BD0926" width="5.354" height="2.155"/>
	</g>
</g>
<path fill-rule="evenodd" clip-rule="evenodd" fill="#BD0926" d="M48.503,18.538c-0.301-1.719-0.776-3.392-1.381-5.026
	c-1.235-3.34-2.9-6.471-4.704-9.535C42.1,3.435,41.686,2.987,41.19,2.601c-0.527-0.413-1.07-0.805-1.622-1.188
	c-0.689-0.478-1.36-0.977-1.992-1.532c-0.896-0.788-1.89-1.436-2.982-1.929c-0.786-0.353-1.517-0.797-2.243-1.257
	c-1.267-0.799-2.578-1.5-4.085-1.754c-0.57-0.096-1.09-0.358-1.61-0.601c-1.55-0.721-3.172-1.123-4.891-1.141
	c-1.269-0.014-2.535,0.021-3.8,0.103c-0.799,0.052-1.565,0.219-2.289,0.579c-0.564,0.281-1.16,0.493-1.772,0.649
	c-0.814,0.208-1.606,0.477-2.38,0.802c-1.056,0.443-2.09,0.923-2.988,1.653C8.2-2.742,7.821-2.553,7.364-2.512
	C6.712-2.454,6.162-2.129,5.645-1.749c-0.264,0.193-0.477,0.441-0.72,0.655c-0.203,0.179-0.412,0.355-0.681,0.42
	c-0.137,0.034-0.262,0.082-0.375,0.16c-1.19,0.806-2.216,1.777-3.015,2.977C0.299,3.295-0.148,4.188-0.657,5.047
	C-0.827,5.335-1.001,5.62-1.216,5.879c-0.172,0.207-0.376,0.349-0.655,0.374c-0.261,0.024-0.453,0.166-0.59,0.385
	c-0.114,0.181-0.203,0.375-0.283,0.571c-0.283,0.696-0.631,1.348-1.073,1.965c-0.699,0.979-1.182,2.076-1.551,3.218
	c-0.234,0.725-0.261,1.506-0.584,2.209c-0.518,1.995-0.696,4.014-0.476,6.066c0.154,1.433,0.426,2.841,0.776,4.237
	c0.207,0.823,0.443,1.642,0.571,2.482c0.079,0.519,0.11,1.036,0.111,1.559c0.001,0.297,0.045,0.592,0.32,0.784
	c0.132,0.09,0.237,0.204,0.329,0.333c0.223,0.315,0.399,0.657,0.54,1.018c0.475,1.216,0.967,2.425,1.556,3.593
	c0.625,1.24,1.427,2.34,2.475,3.265c0.739,0.651,1.485,1.294,2.254,1.91c0.563,0.451,1.164,0.854,1.725,1.308
	c0.771,0.621,1.428,1.355,2.021,2.144c0.506,0.673,1.141,1.174,1.913,1.514c1.663,0.734,3.321,1.48,4.985,2.214
	c0.99,0.436,2.004,0.812,3.019,1.188c0.395,0.146,0.796,0.311,1.097,0.612c0.214,0.214,0.457,0.328,0.739,0.39
	c0.557,0.122,1.122,0.126,1.686,0.075c0.612-0.051,1.202-0.178,1.737-0.513c0.312-0.195,0.67-0.299,1.04-0.317
	c0.419-0.021,0.832-0.078,1.236-0.183c0.905-0.234,1.814-0.458,2.742-0.579c0.883-0.116,1.739-0.326,2.56-0.667
	c2.038-0.844,4.025-1.796,5.971-2.833c1.009-0.54,2.003-1.109,2.791-1.963c0.089-0.097,0.196-0.185,0.326-0.22
	c0.111-0.031,0.204-0.085,0.293-0.154c0.355-0.273,0.673-0.589,0.99-0.903c1.541-1.54,2.882-3.248,4.18-4.99
	c0.717-0.962,1.345-1.975,1.774-3.102c0.27-0.705,0.599-1.385,0.935-2.06c0.233-0.467,0.448-0.944,0.598-1.443
	c0.288-0.954,0.57-1.909,0.842-2.868c0.207-0.73,0.398-1.466,0.437-2.229c0.023-0.45,0.089-0.891,0.252-1.307
	c0.265-0.668,0.354-1.357,0.341-1.987C48.736,20.101,48.638,19.317,48.503,18.538z M44.01,19.018
	c-0.09,1.268-0.196,2.534-0.325,3.799c-0.136,1.339-0.264,2.679-0.575,3.992c-0.114,0.485-0.287,0.945-0.539,1.381
	c-0.31,0.542-0.501,1.139-0.709,1.724c-0.082,0.231-0.185,0.452-0.277,0.678v6.115c0,1.104-0.896,2-2,2h-4.097
	c-0.225,0.185-0.466,0.342-0.721,0.483c-0.354,0.197-0.676,0.444-0.921,0.765c-0.437,0.574-0.983,1.024-1.571,1.428
	c-1.19,0.815-2.454,1.489-3.832,1.945c-1.085,0.36-2.202,0.528-3.345,0.535c-0.565,0.002-1.129,0-1.695,0
	c-0.968,0.012-1.934,0.003-2.899-0.062c-0.183-0.012-0.364-0.036-0.545-0.059c-0.04-0.005-0.087-0.009-0.117-0.032
	c-0.35-0.259-0.771-0.294-1.178-0.377c-1.544-0.31-3.073-0.693-4.612-1.025c-0.995-0.216-1.884-0.635-2.721-1.184
	c-1.018-0.667-2.074-1.259-3.17-1.787c-0.325-0.156-0.64-0.334-0.94-0.533c-0.016-0.011-0.029-0.023-0.044-0.034H3.405
	c-1.104,0-2-0.896-2-2v-4.171c-0.275-0.346-0.484-0.733-0.607-1.177c-0.088-0.318-0.198-0.628-0.336-0.927
	c-0.106-0.23-0.219-0.455-0.411-0.634c-0.124-0.115-0.21-0.266-0.231-0.437c-0.054-0.462-0.204-0.897-0.363-1.328
	c-0.46-1.248-0.761-2.538-1.037-3.834c-0.24-1.13-0.441-2.265-0.567-3.413c-0.089-0.811-0.059-1.617,0.05-2.423
	c0.223-1.643,0.574-3.257,1.101-4.831c0.178-0.533,0.378-1.058,0.646-1.555c0.077-0.143,0.163-0.281,0.268-0.405
	c0.066-0.078,0.117-0.166,0.177-0.248c-0.002-0.039-0.018-0.074-0.018-0.113V8.515c0-1.104,0.896-2,2-2h1.163c0,0,0.001,0,0.001,0
	c0.602-0.924,1.261-1.81,1.952-2.674c0.787-0.984,1.625-1.922,2.546-2.785c0.163-0.153,0.333-0.298,0.511-0.434
	c0.294-0.224,0.62-0.355,0.992-0.395c0.465-0.049,0.877-0.224,1.242-0.527c0.942-0.782,1.99-1.404,3.083-1.953
	c1.183-0.593,2.402-1.098,3.698-1.393c1.278-0.291,2.578-0.357,3.884-0.306c0.932,0.037,1.855,0.139,2.768,0.344
	c0.664,0.15,1.284,0.409,1.895,0.702c1.094,0.524,2.233,0.956,3.31,1.519c0.587,0.307,1.108,0.715,1.688,1.034
	c1.808,0.992,3.439,2.233,5.041,3.518c0.444,0.356,0.864,0.742,1.385,0.986c0.458,0.213,0.836,0.52,1.172,0.884
	c0.278,0.304,0.5,0.65,0.712,1.003c0.28,0.468,0.542,0.944,0.795,1.424c0.948,0.157,1.674,0.975,1.674,1.967v2.329
	c0.073,0.149,0.167,0.289,0.305,0.406c0.125,0.109,0.159,0.272,0.207,0.43c0.154,0.514,0.371,1.005,0.571,1.502
	c0.361,0.901,0.768,1.785,1.087,2.704C44.008,17.524,44.064,18.263,44.01,19.018z"/>
</svg>
