<?xml version="1.0" encoding="utf-8"?>
<!-- Generator: Adobe Illustrator 16.0.0, SVG Export Plug-In . SVG Version: 6.00 Build 0)  -->
<!DOCTYPE svg PUBLIC "-//W3C//DTD SVG 1.1//EN" "http://www.w3.org/Graphics/SVG/1.1/DTD/svg11.dtd">
<svg version="1.1" id="Layer_1" xmlns="http://www.w3.org/2000/svg" xmlns:xlink="http://www.w3.org/1999/xlink" x="0px" y="0px"
	 width="56.693px" height="56.693px" viewBox="-7.087 -7.087 56.693 56.693" enable-background="new -7.087 -7.087 56.693 56.693"
	 xml:space="preserve">
<path fill="#BD0926" d="M8.159,13.927l0.647-1.667h9h7h9l0.647,1.667H8.159z M18.281,28.989H38.15v5.896h-6.578v-4.459H28.76v4.459
	H16.679V27.01h-0.002c0-0.006,0.002-0.01,0.002-0.016c0-1.426-1.587-2.582-3.544-2.582s-3.543,1.156-3.543,2.582
	c0,0.006,0.002,0.01,0.002,0.016H9.592v7.875H4.463v-5.896h3.484v-1.5H2.891l4.686-12.062h27.46l4.686,12.062H18.281V28.989z
	 M33.073,31.947h1.521v-1.521h-1.521V31.947z M25.698,31.947h1.521v-1.521h-1.521V31.947z M31.572,19.76H28.76v4.625h2.812V19.76z
	 M26.505,20.406l1.909-2.083h1.562h0.348h1.562l1.909,2.083l-1.519-3.125h-1.953h-0.348h-1.953L26.505,20.406z M18.385,25.823
	l-2.188-4.5h-2.812h-0.5h-2.812l-2.187,4.5l2.75-3h2.25h0.5h2.25L18.385,25.823z"/>
<path fill-rule="evenodd" clip-rule="evenodd" fill="#BD0926" d="M48.732,20.973c0.014,0.629-0.076,1.319-0.341,1.987
	c-0.163,0.416-0.229,0.856-0.252,1.307c-0.038,0.764-0.229,1.499-0.437,2.229c-0.271,0.959-0.554,1.914-0.842,2.868
	c-0.149,0.499-0.364,0.977-0.598,1.443c-0.336,0.675-0.665,1.354-0.935,2.06c-0.43,1.127-1.058,2.14-1.774,3.102
	c-1.298,1.742-2.639,3.45-4.18,4.99c-0.317,0.314-0.635,0.63-0.99,0.903c-0.089,0.069-0.182,0.123-0.293,0.154
	c-0.13,0.035-0.237,0.123-0.326,0.22c-0.788,0.854-1.782,1.423-2.791,1.963c-1.945,1.037-3.933,1.989-5.971,2.833
	c-0.82,0.341-1.677,0.551-2.56,0.667c-0.928,0.121-1.837,0.345-2.742,0.579c-0.404,0.104-0.817,0.162-1.236,0.183
	c-0.37,0.019-0.729,0.122-1.04,0.317c-0.535,0.335-1.125,0.462-1.737,0.513c-0.564,0.051-1.129,0.047-1.686-0.075
	c-0.283-0.062-0.525-0.176-0.739-0.39c-0.301-0.302-0.702-0.466-1.097-0.612c-1.015-0.375-2.029-0.752-3.019-1.188
	c-1.665-0.733-3.322-1.479-4.985-2.214c-0.771-0.34-1.407-0.841-1.913-1.514c-0.593-0.788-1.251-1.522-2.021-2.144
	c-0.561-0.454-1.162-0.856-1.725-1.308c-0.77-0.616-1.515-1.259-2.254-1.91c-1.048-0.925-1.85-2.024-2.475-3.265
	c-0.589-1.168-1.081-2.377-1.556-3.593c-0.14-0.36-0.317-0.702-0.54-1.018c-0.092-0.129-0.197-0.243-0.329-0.333
	c-0.275-0.192-0.319-0.487-0.32-0.784c-0.001-0.522-0.032-1.04-0.111-1.559c-0.128-0.841-0.364-1.659-0.571-2.482
	c-0.35-1.396-0.622-2.805-0.776-4.237c-0.22-2.052-0.042-4.071,0.476-6.066c0.323-0.704,0.35-1.485,0.584-2.209
	c0.369-1.142,0.852-2.239,1.551-3.218c0.441-0.617,0.79-1.27,1.073-1.965c0.08-0.197,0.168-0.39,0.283-0.571
	c0.137-0.219,0.329-0.361,0.59-0.385c0.279-0.025,0.483-0.167,0.655-0.374c0.215-0.258,0.389-0.544,0.559-0.832
	c0.509-0.859,0.957-1.751,1.511-2.583c0.799-1.2,1.824-2.171,3.015-2.977c0.113-0.078,0.238-0.125,0.375-0.16
	c0.269-0.065,0.478-0.241,0.681-0.42c0.243-0.214,0.457-0.462,0.72-0.655c0.518-0.38,1.068-0.706,1.719-0.763
	C7.821-2.553,8.2-2.742,8.535-3.015c0.898-0.73,1.932-1.21,2.988-1.653c0.774-0.325,1.566-0.594,2.38-0.802
	c0.612-0.156,1.208-0.368,1.772-0.649c0.724-0.36,1.49-0.527,2.289-0.579c1.265-0.082,2.531-0.117,3.8-0.103
	c1.719,0.018,3.341,0.42,4.891,1.141c0.521,0.242,1.04,0.505,1.61,0.601c1.507,0.254,2.818,0.956,4.085,1.754
	c0.727,0.459,1.457,0.904,2.243,1.257c1.093,0.493,2.086,1.141,2.982,1.929c0.632,0.555,1.303,1.055,1.992,1.532
	c0.552,0.382,1.095,0.775,1.622,1.188c0.495,0.386,0.909,0.834,1.228,1.376c1.804,3.063,3.469,6.194,4.704,9.535
	c0.604,1.635,1.08,3.308,1.381,5.026C48.638,19.317,48.736,20.101,48.732,20.973z M23.402,43.863c0.566,0,1.13,0.002,1.695,0
	c1.143-0.007,2.26-0.175,3.345-0.535c1.378-0.456,2.642-1.13,3.832-1.945c0.588-0.403,1.135-0.854,1.571-1.428
	c0.245-0.32,0.566-0.567,0.921-0.765c0.255-0.142,0.496-0.299,0.721-0.483c1.542-1.273,2.898-2.725,4.115-4.307
	c0.187-0.241,0.352-0.496,0.492-0.767c0.085-0.163,0.087-0.353,0.184-0.513c0.139-0.229,0.258-0.471,0.398-0.699
	c0.487-0.793,0.875-1.632,1.185-2.508c0.208-0.585,0.399-1.182,0.709-1.724c0.252-0.436,0.425-0.896,0.539-1.381
	c0.312-1.313,0.439-2.653,0.575-3.992c0.129-1.265,0.235-2.531,0.325-3.799c0.055-0.754-0.002-1.494-0.253-2.215
	c-0.319-0.919-0.726-1.803-1.087-2.704c-0.2-0.497-0.417-0.989-0.571-1.502c-0.048-0.158-0.082-0.321-0.207-0.43
	c-0.296-0.253-0.403-0.601-0.494-0.955c-0.08-0.312-0.12-0.636-0.231-0.942c-0.532-1.482-1.24-2.88-2.048-4.229
	c-0.212-0.353-0.434-0.699-0.712-1.003c-0.336-0.365-0.714-0.671-1.172-0.884c-0.521-0.244-0.94-0.629-1.385-0.986
	c-1.602-1.285-3.233-2.526-5.041-3.518c-0.58-0.319-1.102-0.727-1.688-1.034c-1.076-0.563-2.216-0.995-3.31-1.519
	c-0.61-0.293-1.23-0.552-1.895-0.702c-0.912-0.206-1.836-0.308-2.768-0.344c-1.307-0.051-2.606,0.015-3.884,0.306
	c-1.296,0.295-2.516,0.8-3.698,1.393c-1.093,0.549-2.141,1.171-3.083,1.953c-0.365,0.303-0.777,0.478-1.242,0.527
	c-0.372,0.039-0.698,0.17-0.992,0.395C8.071,0.759,7.901,0.904,7.738,1.056C6.817,1.919,5.979,2.858,5.192,3.842
	C4.076,5.238,3.021,6.675,2.206,8.273C2.059,8.562,1.883,8.836,1.686,9.094C1.602,9.203,1.524,9.32,1.401,9.386
	C1.267,9.46,1.168,9.564,1.078,9.682C0.91,9.901,0.793,10.148,0.68,10.397c-0.201,0.445-0.448,0.863-0.763,1.238
	c-0.104,0.125-0.19,0.263-0.268,0.405c-0.268,0.497-0.468,1.021-0.646,1.555c-0.526,1.574-0.878,3.188-1.101,4.831
	c-0.109,0.806-0.139,1.613-0.05,2.423c0.126,1.148,0.327,2.283,0.567,3.413c0.276,1.296,0.577,2.586,1.037,3.834
	c0.159,0.431,0.309,0.866,0.363,1.328c0.021,0.171,0.107,0.321,0.231,0.437c0.191,0.179,0.304,0.403,0.411,0.634
	c0.139,0.299,0.248,0.608,0.336,0.927c0.185,0.669,0.552,1.224,1.077,1.674c0.877,0.753,1.616,1.625,2.284,2.562
	c0.452,0.633,0.961,1.219,1.598,1.683c0.279,0.203,0.543,0.438,0.717,0.739c0.184,0.317,0.449,0.53,0.743,0.725
	c0.301,0.199,0.616,0.377,0.94,0.533c1.096,0.528,2.153,1.12,3.17,1.787c0.837,0.549,1.727,0.968,2.721,1.184
	c1.54,0.332,3.068,0.716,4.612,1.025c0.407,0.083,0.828,0.118,1.178,0.377c0.03,0.023,0.077,0.027,0.117,0.032
	c0.181,0.022,0.363,0.047,0.545,0.059C21.469,43.865,22.435,43.874,23.402,43.863z"/>
</svg>
