<?xml version="1.0" encoding="UTF-8" standalone="no"?>
<!-- Generator: Adobe Illustrator 16.0.0, SVG Export Plug-In . SVG Version: 6.00 Build 0)  -->

<svg
   xmlns:dc="http://purl.org/dc/elements/1.1/"
   xmlns:cc="http://creativecommons.org/ns#"
   xmlns:rdf="http://www.w3.org/1999/02/22-rdf-syntax-ns#"
   xmlns:svg="http://www.w3.org/2000/svg"
   xmlns="http://www.w3.org/2000/svg"
   xmlns:sodipodi="http://sodipodi.sourceforge.net/DTD/sodipodi-0.dtd"
   xmlns:inkscape="http://www.inkscape.org/namespaces/inkscape"
   version="1.1"
   id="Layer_1"
   x="0px"
   y="0px"
   width="56.693px"
   height="56.693px"
   viewBox="0 0 56.693 56.693"
   enable-background="new 0 0 56.693 56.693"
   xml:space="preserve"
   sodipodi:docname="Logo_Danger.svg"
   inkscape:version="0.92.0 r15299"><metadata
   id="metadata11"><rdf:RDF><cc:Work
       rdf:about=""><dc:format>image/svg+xml</dc:format><dc:type
         rdf:resource="http://purl.org/dc/dcmitype/StillImage" /></cc:Work></rdf:RDF></metadata><defs
   id="defs9" /><sodipodi:namedview
   pagecolor="#ffffff"
   bordercolor="#666666"
   borderopacity="1"
   objecttolerance="10"
   gridtolerance="10"
   guidetolerance="10"
   inkscape:pageopacity="0"
   inkscape:pageshadow="2"
   inkscape:window-width="1280"
   inkscape:window-height="961"
   id="namedview7"
   showgrid="false"
   inkscape:zoom="4.1627714"
   inkscape:cx="-3.8435933"
   inkscape:cy="28.3465"
   inkscape:window-x="-8"
   inkscape:window-y="-8"
   inkscape:window-maximized="1"
   inkscape:current-layer="Layer_1" />
<path
   d="M 28.851562 0.28515625 C 27.582563 0.27115625 26.317734 0.30667188 25.052734 0.38867188 C 24.253734 0.44067187 23.487672 0.60875 22.763672 0.96875 C 22.199672 1.24975 21.602234 1.4611875 20.990234 1.6171875 C 20.176234 1.8251875 19.385328 2.0949219 18.611328 2.4199219 C 17.555328 2.8629219 16.521047 3.3422656 15.623047 4.0722656 C 15.288047 4.3452656 14.908172 4.5332187 14.451172 4.5742188 C 13.800172 4.6322187 13.249422 4.9578906 12.732422 5.3378906 C 12.468422 5.5308906 12.256672 5.7781875 12.013672 5.9921875 C 11.810672 6.1711875 11.601031 6.3471094 11.332031 6.4121094 C 11.195031 6.4461094 11.070031 6.4942656 10.957031 6.5722656 C 9.7650312 7.3782656 8.7404062 8.3507812 7.9414062 9.5507812 C 7.3864063 10.382781 6.9386875 11.274812 6.4296875 12.132812 C 6.2606875 12.420813 6.0860937 12.706844 5.8710938 12.964844 C 5.6990938 13.171844 5.4957969 13.314844 5.2167969 13.339844 C 4.9557969 13.363844 4.7639531 13.505609 4.6269531 13.724609 C 4.5129531 13.905609 4.42375 14.098922 4.34375 14.294922 C 4.06075 14.990922 3.7115312 15.642766 3.2695312 16.259766 C 2.5705313 17.238766 2.08775 18.336516 1.71875 19.478516 C 1.48475 20.203516 1.4577656 20.9845 1.1347656 21.6875 C 0.61676562 23.6825 0.43820313 25.701906 0.65820312 27.753906 C 0.81220313 29.186906 1.0855469 30.593234 1.4355469 31.990234 C 1.6425469 32.812234 1.8778594 33.631656 2.0058594 34.472656 C 2.0848594 34.990656 2.1161875 35.50725 2.1171875 36.03125 C 2.1181875 36.32825 2.1625 36.623453 2.4375 36.814453 C 2.5695 36.904453 2.673625 37.019437 2.765625 37.148438 C 2.988625 37.462438 3.1656406 37.805969 3.3066406 38.167969 C 3.7816406 39.382969 4.2723281 40.591766 4.8613281 41.759766 C 5.4863281 42.999766 6.2898906 44.099391 7.3378906 45.025391 C 8.0768906 45.675391 8.8227969 46.318547 9.5917969 46.935547 C 10.154797 47.386547 10.755406 47.789187 11.316406 48.242188 C 12.087406 48.863188 12.744891 49.596719 13.337891 50.386719 C 13.843891 51.058719 14.478 51.560391 15.25 51.900391 C 16.913 52.634391 18.570375 53.380281 20.234375 54.113281 C 21.224375 54.549281 22.238906 54.926734 23.253906 55.302734 C 23.648906 55.448734 24.050562 55.612063 24.351562 55.914062 C 24.565562 56.127063 24.807844 56.243688 25.089844 56.304688 C 25.646844 56.427687 26.211391 56.431859 26.775391 56.380859 C 27.387391 56.329859 27.978672 56.201234 28.513672 55.865234 C 28.825672 55.670234 29.182734 55.567781 29.552734 55.550781 C 29.971734 55.529781 30.385063 55.471234 30.789062 55.365234 C 31.694063 55.131234 32.60325 54.908109 33.53125 54.787109 C 34.41425 54.670109 35.270797 54.461141 36.091797 54.119141 C 38.129797 53.275141 40.1165 52.324109 42.0625 51.287109 C 43.0715 50.746109 44.065516 50.178219 44.853516 49.324219 C 44.942516 49.226219 45.049687 49.138516 45.179688 49.103516 C 45.290687 49.072516 45.383656 49.019219 45.472656 48.949219 C 45.827656 48.676219 46.145891 48.362828 46.462891 48.048828 C 48.003891 46.507828 49.344578 44.800594 50.642578 43.058594 C 51.359578 42.095594 51.987016 41.082078 52.416016 39.955078 C 52.686016 39.250078 53.015562 38.570531 53.351562 37.894531 C 53.584562 37.427531 53.799219 36.951172 53.949219 36.451172 C 54.237219 35.498172 54.519016 34.544937 54.791016 33.585938 C 54.998016 32.855938 55.189516 32.118469 55.228516 31.355469 C 55.251516 30.906469 55.317469 30.464828 55.480469 30.048828 C 55.745469 29.380828 55.833312 28.6915 55.820312 28.0625 C 55.822313 27.1885 55.724844 26.404 55.589844 25.625 C 55.288844 23.906 54.813984 22.233609 54.208984 20.599609 C 52.973984 17.259609 51.309859 14.128453 49.505859 11.064453 C 49.187859 10.522453 48.773344 10.0725 48.277344 9.6875 C 47.750344 9.2745 47.206297 8.883 46.654297 8.5 C 45.965297 8.022 45.294109 7.52375 44.662109 6.96875 C 43.766109 6.18075 42.773641 5.5320625 41.681641 5.0390625 C 40.895641 4.6860625 40.1635 4.24125 39.4375 3.78125 C 38.1705 2.98225 36.860516 2.2813438 35.353516 2.0273438 C 34.783516 1.9313437 34.262187 1.6707344 33.742188 1.4277344 C 32.192188 0.70673438 30.570562 0.30315625 28.851562 0.28515625 z M 27.259766 3.1210938 C 27.585266 3.1175312 27.909828 3.1220156 28.236328 3.1347656 C 29.168328 3.1717656 30.092859 3.2735156 31.005859 3.4785156 C 31.669859 3.6285156 32.289391 3.8886406 32.900391 4.1816406 C 33.994391 4.7056406 35.133937 5.1362187 36.210938 5.6992188 C 36.797938 6.0062188 37.318437 6.415375 37.898438 6.734375 C 39.706437 7.726375 41.337453 8.9669531 42.939453 10.251953 C 43.383453 10.607953 43.803219 10.994281 44.324219 11.238281 C 44.782219 11.451281 45.160094 11.757094 45.496094 12.121094 C 45.774094 12.425094 45.995031 12.772 46.207031 13.125 C 47.015031 14.475 47.723859 15.872516 48.255859 17.353516 C 48.366859 17.660516 48.406328 17.984875 48.486328 18.296875 C 48.577328 18.650875 48.684469 18.998953 48.980469 19.251953 C 49.105469 19.360953 49.1395 19.523641 49.1875 19.681641 C 49.3415 20.195641 49.559766 20.686594 49.759766 21.183594 C 50.120766 22.084594 50.526703 22.967719 50.845703 23.886719 C 51.094703 24.610719 51.151656 25.349516 51.097656 26.103516 C 51.007656 27.371516 50.900484 28.637344 50.771484 29.902344 C 50.635484 31.240344 50.508266 32.580531 50.197266 33.894531 C 50.083266 34.378531 49.910203 34.839391 49.658203 35.275391 C 49.593203 35.390391 49.547234 35.515766 49.490234 35.634766 C 49.447234 35.882766 49.412812 36.134766 49.382812 36.384766 C 49.311813 36.979766 49.027328 37.479172 48.611328 37.826172 C 48.375328 38.378172 48.115734 38.920547 47.802734 39.435547 C 48.005734 39.968547 47.985406 40.581234 47.691406 41.115234 C 47.372406 41.695234 46.797688 42.041187 46.179688 42.117188 C 45.094687 43.453187 43.907219 44.691016 42.574219 45.791016 C 42.349219 45.977016 42.108516 46.133391 41.853516 46.275391 C 41.499516 46.472391 41.178594 46.718062 40.933594 47.039062 C 40.496594 47.613062 39.949328 48.063797 39.361328 48.466797 C 38.171328 49.282797 36.907297 49.957109 35.529297 50.412109 C 34.444297 50.773109 33.328547 50.941266 32.185547 50.947266 C 31.620547 50.949266 31.056234 50.947266 30.490234 50.947266 C 29.522234 50.959266 28.556797 50.950766 27.591797 50.884766 C 27.408797 50.872766 27.227875 50.850172 27.046875 50.826172 C 27.006875 50.822172 26.959688 50.817922 26.929688 50.794922 C 26.579687 50.534922 26.158953 50.499969 25.751953 50.417969 C 24.741953 50.214969 23.736422 49.983906 22.732422 49.753906 C 22.385422 49.752906 22.038406 49.750047 21.691406 49.748047 C 21.356406 49.746047 21.0225 49.737516 20.6875 49.728516 C 20.4455 49.721516 20.203891 49.715891 19.962891 49.712891 C 19.101891 49.700891 18.583828 49.297938 18.298828 48.960938 C 18.127828 48.758938 17.887266 48.381656 17.822266 47.847656 C 16.987266 47.329656 16.133094 46.848875 15.246094 46.421875 C 14.921094 46.265875 14.606641 46.087672 14.306641 45.888672 C 14.012641 45.693672 13.7455 45.479109 13.5625 45.162109 C 13.3885 44.861109 13.124703 44.626828 12.845703 44.423828 C 12.208703 43.960828 11.700047 43.373234 11.248047 42.740234 C 10.580047 41.802234 9.8418437 40.932688 8.9648438 40.179688 C 8.4398437 39.730688 8.0717188 39.175859 7.8867188 38.505859 C 7.7987187 38.187859 7.6887812 37.877125 7.5507812 37.578125 C 7.5017812 37.473125 7.4505781 37.369531 7.3925781 37.269531 C 7.3295781 37.195531 7.2697969 37.121063 7.2167969 37.039062 C 7.1907969 37.009062 7.170625 36.972359 7.140625 36.943359 C 7.016625 36.828359 6.9311562 36.677813 6.9101562 36.507812 C 6.8561562 36.044812 6.705875 35.609687 6.546875 35.179688 C 6.086875 33.931688 5.7857656 32.640703 5.5097656 31.345703 C 5.2697656 30.214703 5.0693594 29.080594 4.9433594 27.933594 C 4.8543594 27.122594 4.8831875 26.315766 4.9921875 25.509766 C 5.2151875 23.866766 5.56675 22.253687 6.09375 20.679688 C 6.27175 20.146687 6.4722344 19.620047 6.7402344 19.123047 C 6.8172344 18.980047 6.9028125 18.84275 7.0078125 18.71875 C 7.3228125 18.34375 7.5704844 17.925469 7.7714844 17.480469 C 7.8844844 17.231469 7.9999688 16.984625 8.1679688 16.765625 C 8.2589687 16.647625 8.3562344 16.543703 8.4902344 16.470703 C 8.6132344 16.403703 8.6913906 16.287688 8.7753906 16.179688 C 8.8783906 16.045687 8.956875 15.894953 9.046875 15.751953 C 8.933875 15.250953 9.0068281 14.710094 9.2988281 14.246094 C 9.5758281 13.807094 9.99975 13.513719 10.46875 13.386719 C 11.03275 12.540719 11.64425 11.724734 12.28125 10.927734 C 13.06825 9.9437344 13.905172 9.0055781 14.826172 8.1425781 C 14.989172 7.9895781 15.159891 7.8449844 15.337891 7.7089844 C 15.631891 7.4849844 15.958078 7.3544531 16.330078 7.3144531 C 16.795078 7.2654531 17.207266 7.0901094 17.572266 6.7871094 C 18.514266 6.0051094 19.561297 5.3829844 20.654297 4.8339844 C 21.837297 4.2409844 23.057516 3.7364062 24.353516 3.4414062 C 25.312016 3.2231563 26.283266 3.1317812 27.259766 3.1210938 z M 26.181641 8.2753906 C 25.611641 8.2883906 25.041609 8.3297656 24.474609 8.3847656 C 23.925609 8.4387656 23.368125 8.3998281 22.828125 8.5488281 C 22.146125 8.7378281 21.458344 8.9105156 20.777344 9.1035156 C 20.522344 9.1765156 20.241484 9.1876562 20.021484 9.3476562 C 18.973484 10.112656 17.854719 10.778297 16.886719 11.654297 C 15.958719 12.495297 14.984656 13.283875 14.222656 14.296875 C 13.809656 14.846875 13.391047 15.402234 12.873047 15.865234 C 12.234047 16.436234 11.588406 17.0015 10.941406 17.5625 C 10.786406 17.6965 10.655922 17.843625 10.544922 18.015625 C 10.099922 18.704625 9.6552656 19.392266 9.1972656 20.072266 C 9.0562656 20.282266 8.9594844 20.504094 8.8964844 20.746094 C 8.6994844 21.492094 8.498875 22.237422 8.296875 22.982422 C 8.224875 23.249422 8.1920781 23.513875 8.2050781 23.796875 C 8.2600781 24.946875 8.3773281 26.093094 8.3613281 27.246094 C 8.3453281 28.434094 8.3357656 29.621547 8.3847656 30.810547 C 8.4537656 32.487547 8.6407969 34.150453 8.8417969 35.814453 C 8.8587969 35.951453 8.9105 36.020063 9.0625 36.039062 C 9.3625 36.074063 9.6609375 36.138547 9.9609375 36.185547 C 10.460938 36.261547 10.959938 36.388531 11.460938 36.394531 C 12.296938 36.401531 13.135656 36.331969 13.972656 36.292969 C 13.972656 36.298969 13.972656 36.303594 13.972656 36.308594 C 14.608656 36.308594 15.244859 36.296453 15.880859 36.314453 C 16.209859 36.321453 16.542188 36.268906 16.867188 36.378906 C 17.476187 36.585906 18.084078 36.804656 18.705078 36.972656 C 19.061078 37.070656 19.205297 37.246328 19.279297 37.611328 C 19.685297 39.625328 19.988328 41.652125 20.111328 43.703125 C 20.138328 44.144125 20.227969 44.584344 20.167969 45.027344 C 20.056969 45.857344 19.939594 46.685672 19.808594 47.513672 C 19.781594 47.691672 19.841281 47.712844 19.988281 47.714844 C 20.559281 47.722844 21.130172 47.747 21.701172 47.75 C 23.185172 47.759 24.670297 47.760578 26.154297 47.767578 C 26.255297 47.767578 26.357031 47.776969 26.457031 47.792969 C 27.420031 47.944969 28.382703 48.101906 29.345703 48.253906 C 29.491703 48.276906 29.637203 48.275234 29.783203 48.240234 C 30.212203 48.137234 30.638266 48.024406 31.072266 47.941406 C 31.756266 47.808406 32.421906 47.554922 33.128906 47.544922 C 33.976906 47.532922 34.822875 47.527156 35.671875 47.535156 C 35.886875 47.537156 35.949219 47.482719 35.949219 47.261719 C 35.950219 46.433719 35.959187 45.603391 35.992188 44.775391 C 36.036187 43.681391 36.240703 42.599047 36.220703 41.498047 C 36.209703 40.899047 36.212891 40.299219 36.212891 39.699219 C 36.212891 39.580219 36.216141 39.460703 36.244141 39.345703 C 36.385141 38.764703 36.544688 38.187469 36.679688 37.605469 C 36.724688 37.414469 36.807953 37.317813 37.001953 37.257812 C 38.471953 36.805813 39.958703 36.431391 41.470703 36.150391 C 41.752703 36.098391 42.029359 36.077141 42.318359 36.119141 C 43.101359 36.231141 43.886781 36.365437 44.675781 36.398438 C 45.510781 36.433437 46.3495 36.358891 47.1875 36.337891 C 47.3265 36.334891 47.381437 36.284484 47.398438 36.146484 C 47.436438 35.828484 47.478109 35.507406 47.537109 35.191406 C 47.777109 33.891406 47.906266 32.594531 47.697266 31.269531 C 47.604266 30.678531 47.521797 30.071078 47.591797 29.455078 C 47.750797 28.030078 47.997891 26.610063 47.837891 25.164062 C 47.766891 24.534062 47.787312 23.891625 47.695312 23.265625 C 47.575313 22.447625 47.384656 21.640125 47.222656 20.828125 C 47.163656 20.534125 47.098141 20.258625 46.869141 20.015625 C 45.751141 18.827625 44.670172 17.608172 43.826172 16.201172 C 43.439172 15.556172 42.949156 15.001516 42.410156 14.478516 C 41.590156 13.682516 40.799328 12.857688 39.986328 12.054688 C 39.501328 11.575687 39.080109 11.027281 38.537109 10.613281 C 37.775109 10.032281 36.984938 9.4907344 36.210938 8.9277344 C 36.069938 8.8257344 35.924906 8.7758125 35.753906 8.7578125 C 35.168906 8.6958125 34.585047 8.6106406 33.998047 8.5566406 C 33.540047 8.5156406 33.086 8.3885469 32.625 8.4355469 C 31.993 8.5005469 31.365375 8.6126875 30.734375 8.6796875 C 30.286375 8.7276875 29.843625 8.8687344 29.390625 8.8027344 C 28.826625 8.7207344 28.268078 8.5948594 27.705078 8.5058594 C 27.197078 8.4268594 26.698641 8.2643906 26.181641 8.2753906 z M 41.345703 25.464844 C 41.694828 25.473719 42.045031 25.499266 42.394531 25.509766 C 42.936531 25.525766 43.479438 25.555453 44.023438 25.564453 C 44.199438 25.567453 44.272266 25.626781 44.322266 25.800781 C 44.541266 26.568781 44.787719 27.329656 45.011719 28.097656 C 45.166719 28.630656 45.048547 29.17775 45.060547 29.71875 C 45.085547 30.85175 44.816891 31.943969 44.587891 33.042969 C 44.556891 33.195969 44.515656 33.265672 44.347656 33.263672 C 43.711656 33.255672 43.075297 33.259766 42.529297 33.259766 C 41.461297 33.193766 40.488719 33.29175 39.511719 33.34375 C 37.075719 33.47375 34.651125 33.814516 32.203125 33.728516 C 31.962125 33.720516 31.874609 33.663969 31.849609 33.417969 C 31.693609 31.865969 31.655328 30.312859 31.736328 28.755859 C 31.746328 28.589859 31.803219 28.486297 31.949219 28.404297 C 32.703219 27.980297 33.439031 27.523953 34.207031 27.126953 C 34.916031 26.758953 35.702641 26.565328 36.431641 26.236328 C 37.143641 25.913328 37.90225 25.852141 38.65625 25.744141 C 39.20325 25.665141 39.753828 25.606531 40.298828 25.519531 C 40.648828 25.463531 40.996578 25.455969 41.345703 25.464844 z M 17.746094 25.658203 C 18.248094 25.644203 18.647875 25.731531 19.046875 26.019531 C 20.490875 27.062531 22.048203 27.912922 23.658203 28.669922 C 23.896203 28.780922 23.988422 28.9125 23.982422 29.1875 C 23.950422 30.6245 23.896125 32.058141 23.828125 33.494141 C 23.820125 33.660141 23.764375 33.685781 23.609375 33.675781 C 22.700375 33.617781 21.789906 33.543156 20.878906 33.535156 C 20.282906 33.530156 19.682844 33.610594 19.089844 33.683594 C 17.501844 33.878594 15.905453 33.864734 14.314453 33.802734 C 13.344453 33.765734 12.381063 33.550875 11.414062 33.421875 C 11.254062 33.399875 11.206984 33.330922 11.208984 33.169922 C 11.217984 32.350922 11.212891 31.530938 11.212891 30.710938 L 11.275391 30.710938 C 11.275391 30.083937 11.269391 29.458078 11.275391 28.830078 C 11.286391 28.053078 11.148453 27.289484 11.064453 26.521484 C 11.040453 26.300484 11.070641 26.211547 11.306641 26.185547 C 13.447641 25.945547 15.589094 25.721203 17.746094 25.658203 z "
   id="path2" />

</svg>