<?xml version="1.0" encoding="UTF-8" standalone="no"?>
<!-- Generator: Adobe Illustrator 16.0.0, SVG Export Plug-In . SVG Version: 6.00 Build 0)  -->

<svg
   xmlns:dc="http://purl.org/dc/elements/1.1/"
   xmlns:cc="http://creativecommons.org/ns#"
   xmlns:rdf="http://www.w3.org/1999/02/22-rdf-syntax-ns#"
   xmlns:svg="http://www.w3.org/2000/svg"
   xmlns="http://www.w3.org/2000/svg"
   xmlns:sodipodi="http://sodipodi.sourceforge.net/DTD/sodipodi-0.dtd"
   xmlns:inkscape="http://www.inkscape.org/namespaces/inkscape"
   version="1.1"
   id="Layer_1"
   x="0px"
   y="0px"
   width="56.693px"
   height="56.693px"
   viewBox="0 0 56.693 56.693"
   enable-background="new 0 0 56.693 56.693"
   xml:space="preserve"
   sodipodi:docname="Logo_Danger_Decouverte.svg"
   inkscape:version="0.92.0 r15299"><metadata
   id="metadata17"><rdf:RDF><cc:Work
       rdf:about=""><dc:format>image/svg+xml</dc:format><dc:type
         rdf:resource="http://purl.org/dc/dcmitype/StillImage" /></cc:Work></rdf:RDF></metadata><defs
   id="defs15">
	
	
	
</defs><sodipodi:namedview
   pagecolor="#ffffff"
   bordercolor="#666666"
   borderopacity="1"
   objecttolerance="10"
   gridtolerance="10"
   guidetolerance="10"
   inkscape:pageopacity="0"
   inkscape:pageshadow="2"
   inkscape:window-width="1280"
   inkscape:window-height="961"
   id="namedview13"
   showgrid="false"
   inkscape:zoom="4.1627714"
   inkscape:cx="-3.8435933"
   inkscape:cy="28.3465"
   inkscape:window-x="1272"
   inkscape:window-y="-8"
   inkscape:window-maximized="1"
   inkscape:current-layer="Layer_1" />
<path
   d="M 28.851562 0.28515625 C 27.582562 0.27115625 26.317734 0.30667187 25.052734 0.38867188 C 24.253734 0.44067187 23.487672 0.60875 22.763672 0.96875 C 22.199672 1.24975 21.602234 1.4611875 20.990234 1.6171875 C 20.176234 1.8251875 19.385328 2.0949219 18.611328 2.4199219 C 17.555328 2.8629219 16.521047 3.3422656 15.623047 4.0722656 C 15.288047 4.3452656 14.908172 4.5332187 14.451172 4.5742188 C 13.800172 4.6322187 13.249422 4.9578906 12.732422 5.3378906 C 12.468422 5.5308906 12.256672 5.7781875 12.013672 5.9921875 C 11.810672 6.1711875 11.601031 6.3471094 11.332031 6.4121094 C 11.195031 6.4461094 11.070031 6.4942656 10.957031 6.5722656 C 9.7650312 7.3782656 8.7404062 8.3507812 7.9414062 9.5507812 C 7.3864063 10.382781 6.9386875 11.274813 6.4296875 12.132812 C 6.2606875 12.420813 6.0860937 12.706844 5.8710938 12.964844 C 5.6990937 13.171844 5.4957969 13.314844 5.2167969 13.339844 C 4.9557969 13.363844 4.7639531 13.505609 4.6269531 13.724609 C 4.5129531 13.905609 4.42375 14.098922 4.34375 14.294922 C 4.06075 14.990922 3.7115313 15.642766 3.2695312 16.259766 C 2.5705313 17.238766 2.08775 18.336516 1.71875 19.478516 C 1.48475 20.203516 1.4577656 20.9845 1.1347656 21.6875 C 0.61676562 23.6825 0.43820313 25.701906 0.65820312 27.753906 C 0.81220313 29.186906 1.0855469 30.593234 1.4355469 31.990234 C 1.6425469 32.812234 1.8778594 33.631656 2.0058594 34.472656 C 2.0848594 34.990656 2.1161875 35.50725 2.1171875 36.03125 C 2.1181875 36.32825 2.1625 36.623453 2.4375 36.814453 C 2.5695 36.904453 2.673625 37.019437 2.765625 37.148438 C 2.988625 37.462438 3.1656406 37.805969 3.3066406 38.167969 C 3.7816406 39.382969 4.2723281 40.591766 4.8613281 41.759766 C 5.4863281 42.999766 6.2898906 44.099391 7.3378906 45.025391 C 8.0768906 45.675391 8.8227969 46.318547 9.5917969 46.935547 C 10.154797 47.386547 10.755406 47.789187 11.316406 48.242188 C 12.087406 48.863188 12.744891 49.596719 13.337891 50.386719 C 13.843891 51.058719 14.478 51.560391 15.25 51.900391 C 16.913 52.634391 18.570375 53.380281 20.234375 54.113281 C 21.224375 54.549281 22.238906 54.926734 23.253906 55.302734 C 23.648906 55.448734 24.050562 55.612063 24.351562 55.914062 C 24.565562 56.127063 24.807844 56.243688 25.089844 56.304688 C 25.646844 56.427687 26.211391 56.431859 26.775391 56.380859 C 27.387391 56.329859 27.978672 56.201234 28.513672 55.865234 C 28.825672 55.670234 29.182734 55.567781 29.552734 55.550781 C 29.971734 55.529781 30.385063 55.471234 30.789062 55.365234 C 31.694063 55.131234 32.60325 54.908109 33.53125 54.787109 C 34.41425 54.670109 35.270797 54.461141 36.091797 54.119141 C 38.129797 53.275141 40.1165 52.324109 42.0625 51.287109 C 43.0715 50.746109 44.065516 50.178219 44.853516 49.324219 C 44.942516 49.226219 45.049687 49.138516 45.179688 49.103516 C 45.290687 49.072516 45.383656 49.019219 45.472656 48.949219 C 45.827656 48.676219 46.145891 48.362828 46.462891 48.048828 C 48.003891 46.507828 49.344578 44.800594 50.642578 43.058594 C 51.359578 42.095594 51.987016 41.082078 52.416016 39.955078 C 52.686016 39.250078 53.015562 38.570531 53.351562 37.894531 C 53.584562 37.427531 53.799219 36.951172 53.949219 36.451172 C 54.237219 35.498172 54.519016 34.544937 54.791016 33.585938 C 54.998016 32.855938 55.189516 32.118469 55.228516 31.355469 C 55.251516 30.906469 55.317469 30.464828 55.480469 30.048828 C 55.745469 29.380828 55.833312 28.6915 55.820312 28.0625 C 55.822313 27.1885 55.724844 26.404 55.589844 25.625 C 55.288844 23.906 54.813984 22.233609 54.208984 20.599609 C 52.973984 17.259609 51.309859 14.128453 49.505859 11.064453 C 49.187859 10.522453 48.773344 10.0725 48.277344 9.6875 C 47.750344 9.2745 47.206297 8.883 46.654297 8.5 C 45.965297 8.022 45.294109 7.52375 44.662109 6.96875 C 43.766109 6.18075 42.773641 5.5320625 41.681641 5.0390625 C 40.895641 4.6860625 40.1635 4.24125 39.4375 3.78125 C 38.1705 2.98225 36.860516 2.2813438 35.353516 2.0273438 C 34.783516 1.9313437 34.262187 1.6707344 33.742188 1.4277344 C 32.192187 0.70673437 30.570563 0.30315625 28.851562 0.28515625 z M 27.259766 3.1230469 C 27.585266 3.1194844 27.909828 3.1239687 28.236328 3.1367188 C 29.168328 3.1737187 30.092859 3.2754688 31.005859 3.4804688 C 31.669859 3.6304687 32.289391 3.8905938 32.900391 4.1835938 C 33.994391 4.7075938 35.133937 5.1381719 36.210938 5.7011719 C 36.797938 6.0081719 37.318437 6.4173281 37.898438 6.7363281 C 39.706437 7.7283281 41.337453 8.9689062 42.939453 10.253906 C 43.007453 10.308906 43.075578 10.362969 43.142578 10.417969 C 43.877578 9.8149688 44.753937 9.3895469 45.585938 9.3105469 C 45.604937 9.3095469 45.624531 9.3076406 45.644531 9.3066406 C 45.688531 9.3036406 45.762641 9.3027344 45.806641 9.3027344 C 45.835641 9.3027344 45.875297 9.3026875 45.904297 9.3046875 C 47.056297 9.3546875 48.074484 10.255344 48.271484 11.402344 C 48.463484 12.527344 48.014016 13.669953 47.041016 14.626953 C 47.502016 15.510953 47.916859 16.415422 48.255859 17.357422 C 48.366859 17.664422 48.406328 17.988781 48.486328 18.300781 C 48.577328 18.654781 48.684469 19.002859 48.980469 19.255859 C 49.105469 19.364859 49.1395 19.527547 49.1875 19.685547 C 49.3415 20.199547 49.559766 20.6905 49.759766 21.1875 C 50.120766 22.0885 50.526703 22.971625 50.845703 23.890625 C 51.096703 24.612625 51.154609 25.351469 51.099609 26.105469 C 51.009609 27.373469 50.902438 28.639297 50.773438 29.904297 C 50.686437 30.758297 50.59875 31.612938 50.46875 32.460938 L 51.111328 36.677734 C 51.209328 37.337734 50.973516 38.004078 50.478516 38.455078 C 50.106516 38.795078 49.625813 38.976562 49.132812 38.976562 C 48.971812 38.976562 48.808438 38.957969 48.648438 38.917969 L 48.146484 38.792969 C 48.033484 39.007969 47.929734 39.2285 47.802734 39.4375 C 48.005734 39.9705 47.983453 40.583188 47.689453 41.117188 C 47.437453 41.574188 47.026547 41.879344 46.560547 42.027344 C 46.282547 42.377344 45.877313 42.735937 45.320312 43.085938 C 44.467312 44.047938 43.572219 44.968969 42.574219 45.792969 C 42.349219 45.978969 42.108516 46.135344 41.853516 46.277344 C 41.499516 46.474344 41.178594 46.720016 40.933594 47.041016 C 40.496594 47.615016 39.949328 48.06575 39.361328 48.46875 C 38.171328 49.28475 36.907297 49.959063 35.529297 50.414062 C 34.444297 50.775062 33.328547 50.943219 32.185547 50.949219 C 31.620547 50.951219 31.056234 50.949219 30.490234 50.949219 C 29.522234 50.961219 28.556797 50.952719 27.591797 50.886719 C 27.408797 50.874719 27.227875 50.852125 27.046875 50.828125 C 27.006875 50.824125 26.959688 50.819875 26.929688 50.796875 C 26.579687 50.536875 26.158953 50.501922 25.751953 50.419922 C 24.741953 50.216922 23.736422 49.985859 22.732422 49.755859 C 22.385422 49.754859 22.038406 49.753953 21.691406 49.751953 C 21.356406 49.749953 21.0225 49.739469 20.6875 49.730469 C 20.4455 49.723469 20.203891 49.717844 19.962891 49.714844 C 19.101891 49.702844 18.583828 49.299891 18.298828 48.962891 C 18.127828 48.760891 17.887266 48.383609 17.822266 47.849609 C 16.987266 47.331609 16.133094 46.850828 15.246094 46.423828 C 14.921094 46.267828 14.606641 46.089625 14.306641 45.890625 C 14.012641 45.695625 13.7455 45.481063 13.5625 45.164062 C 13.3885 44.863062 13.124703 44.628781 12.845703 44.425781 C 12.208703 43.962781 11.700047 43.375187 11.248047 42.742188 C 10.580047 41.804187 9.8418437 40.934641 8.9648438 40.181641 C 8.4398437 39.732641 8.0717187 39.177813 7.8867188 38.507812 C 7.7987188 38.189813 7.6887812 37.879078 7.5507812 37.580078 C 7.5017812 37.475078 7.4505781 37.371484 7.3925781 37.271484 C 7.3295781 37.197484 7.2697969 37.123016 7.2167969 37.041016 C 7.1907969 37.011016 7.170625 36.974313 7.140625 36.945312 C 7.016625 36.830313 6.9311562 36.679766 6.9101562 36.509766 C 6.8561562 36.046766 6.705875 35.611641 6.546875 35.181641 C 6.086875 33.933641 5.7857656 32.642656 5.5097656 31.347656 C 5.2697656 30.216656 5.0693594 29.082547 4.9433594 27.935547 C 4.8543594 27.124547 4.8831875 26.317719 4.9921875 25.511719 C 5.2151875 23.868719 5.56675 22.255641 6.09375 20.681641 C 6.27175 20.148641 6.4722344 19.623953 6.7402344 19.126953 C 6.8172344 18.983953 6.9028125 18.844703 7.0078125 18.720703 C 7.3228125 18.345703 7.5704844 17.927422 7.7714844 17.482422 C 7.8844844 17.233422 7.9999688 16.986578 8.1679688 16.767578 C 8.2589688 16.649578 8.3562344 16.545656 8.4902344 16.472656 C 8.6132344 16.405656 8.6913906 16.289641 8.7753906 16.181641 C 8.8783906 16.047641 8.956875 15.896906 9.046875 15.753906 C 8.933875 15.252906 9.0068281 14.712047 9.2988281 14.248047 C 9.5758281 13.809047 9.99975 13.515672 10.46875 13.388672 C 11.03275 12.542672 11.64425 11.726688 12.28125 10.929688 C 13.06825 9.9456875 13.905172 9.0075312 14.826172 8.1445312 C 14.989172 7.9915313 15.159891 7.8469375 15.337891 7.7109375 C 15.631891 7.4869375 15.958078 7.3564063 16.330078 7.3164062 C 16.795078 7.2674062 17.207266 7.0920625 17.572266 6.7890625 C 18.514266 6.0070625 19.561297 5.3849375 20.654297 4.8359375 C 21.837297 4.2429375 23.057516 3.7383594 24.353516 3.4433594 C 25.312016 3.2251094 26.283266 3.1337344 27.259766 3.1230469 z M 26.181641 8.2773438 C 25.611641 8.2903437 25.039656 8.3297656 24.472656 8.3847656 C 23.923656 8.4387656 23.366172 8.4017813 22.826172 8.5507812 C 22.144172 8.7397813 21.458344 8.9124688 20.777344 9.1054688 C 20.522344 9.1784688 20.239531 9.1876562 20.019531 9.3476562 C 18.971531 10.112656 17.852766 10.78025 16.884766 11.65625 C 15.956766 12.49725 14.984656 13.285828 14.222656 14.298828 C 13.809656 14.848828 13.389094 15.402234 12.871094 15.865234 C 12.232094 16.436234 11.588406 17.0015 10.941406 17.5625 C 10.786406 17.6965 10.655922 17.845578 10.544922 18.017578 C 10.099922 18.706578 9.6533125 19.392266 9.1953125 20.072266 C 9.0543125 20.282266 8.9575313 20.504094 8.8945312 20.746094 C 8.6975312 21.492094 8.498875 22.239375 8.296875 22.984375 C 8.224875 23.251375 8.190125 23.513875 8.203125 23.796875 C 8.258125 24.946875 8.3773281 26.093094 8.3613281 27.246094 C 8.3453281 28.434094 8.3338125 29.621547 8.3828125 30.810547 C 8.4518125 32.487547 8.6407969 34.150453 8.8417969 35.814453 C 8.8587969 35.951453 8.9105 36.020063 9.0625 36.039062 C 9.3625 36.074063 9.6609375 36.138547 9.9609375 36.185547 C 10.460938 36.261547 10.959938 36.388531 11.460938 36.394531 C 12.296937 36.401531 13.133703 36.331969 13.970703 36.292969 L 13.970703 36.310547 C 14.606703 36.310547 15.242906 36.296453 15.878906 36.314453 C 16.207906 36.321453 16.540234 36.268906 16.865234 36.378906 C 17.474234 36.585906 18.082125 36.804656 18.703125 36.972656 C 19.059125 37.070656 19.203344 37.246328 19.277344 37.611328 C 19.683344 39.625328 19.986375 41.652125 20.109375 43.703125 C 20.136375 44.144125 20.226016 44.584344 20.166016 45.027344 C 20.055016 45.857344 19.937641 46.685672 19.806641 47.513672 C 19.779641 47.691672 19.839328 47.712844 19.986328 47.714844 C 20.557328 47.722844 21.128219 47.748953 21.699219 47.751953 C 23.183219 47.760953 24.668344 47.760578 26.152344 47.767578 C 26.253344 47.767578 26.355078 47.776969 26.455078 47.792969 L 26.890625 47.861328 L 26.890625 8.3476562 C 26.656625 8.3046563 26.421641 8.2703438 26.181641 8.2773438 z M 45.773438 11.300781 C 45.639138 11.313577 45.497357 11.350312 45.353516 11.400391 C 44.272079 11.776893 43.049689 13.109093 43.589844 13.96875 C 43.884844 14.43675 44.760078 13.902266 45.205078 13.572266 C 45.482759 13.367276 45.773251 13.093455 45.988281 12.787109 C 45.988778 12.787875 45.989738 12.788297 45.990234 12.789062 C 45.992498 12.78584 45.993848 12.782526 45.996094 12.779297 C 46.083753 12.653249 46.142857 12.519724 46.197266 12.384766 C 46.212862 12.346195 46.241714 12.31053 46.253906 12.271484 C 46.269639 12.22088 46.27572 12.168389 46.285156 12.117188 C 46.292278 12.078679 46.305362 12.040683 46.308594 12.001953 C 46.308648 12.001307 46.308541 12.000646 46.308594 12 C 46.315729 11.912645 46.313828 11.825906 46.298828 11.738281 C 46.289926 11.686352 46.267826 11.633703 46.238281 11.583984 C 46.238027 11.58356 46.238536 11.582455 46.238281 11.582031 C 46.208473 11.532252 46.169031 11.486133 46.125 11.445312 C 46.035813 11.362628 45.923858 11.3053 45.816406 11.300781 C 45.812315 11.300781 45.808562 11.300761 45.804688 11.300781 C 45.794355 11.300835 45.784347 11.300054 45.773438 11.300781 z M 40.757812 11.796875 C 40.036813 11.799875 38.410594 13.579328 38.558594 14.736328 C 38.615594 15.183328 39.192578 15.581922 39.642578 15.544922 C 40.288578 15.492922 40.767094 14.752484 40.996094 14.146484 C 41.270094 13.420484 41.605672 12.119312 40.888672 11.820312 C 40.847672 11.803313 40.802813 11.795875 40.757812 11.796875 z M 40.976562 16.738281 C 40.611562 16.736281 40.247625 16.774563 39.890625 16.851562 C 38.841625 17.078563 37.911 17.642734 37.5 18.302734 C 37.5 18.302734 37.498047 18.302734 37.498047 18.302734 C 37.500047 18.305734 37.505625 18.312469 37.515625 18.355469 C 37.537625 18.451469 37.621141 18.643094 37.744141 18.871094 C 37.988141 19.328094 38.456781 19.952844 38.300781 20.839844 C 38.091781 22.032844 37.204828 22.753906 36.548828 23.378906 C 36.506828 23.418906 36.469687 23.455141 36.429688 23.494141 C 36.447688 23.601141 36.460656 23.709312 36.472656 23.820312 C 36.549656 24.601312 36.489875 25.430484 36.171875 26.146484 C 36.246875 26.207484 36.322484 26.257156 36.396484 26.285156 C 36.968484 26.505156 38.04025 26.147609 38.78125 25.599609 C 39.25425 25.250609 39.592828 24.687563 39.923828 23.976562 C 40.253828 23.266562 40.560797 22.431156 41.091797 21.660156 C 41.282797 21.381156 41.498891 21.139875 41.712891 20.921875 C 41.487891 20.280875 41.417094 19.592641 41.621094 18.931641 C 41.827094 18.264641 42.250203 17.672594 42.783203 17.183594 C 42.769203 17.173594 42.757141 17.16425 42.744141 17.15625 C 42.295141 16.88725 41.658562 16.742281 40.976562 16.738281 z M 45.382812 17.560547 C 45.345813 17.560547 45.308484 17.562406 45.271484 17.566406 C 45.064484 17.591406 44.755219 17.705437 44.449219 17.898438 C 43.836219 18.283438 43.258719 19.004438 43.136719 19.398438 C 43.069719 19.618437 43.107875 20.201047 43.296875 20.623047 C 43.452875 20.971047 43.620703 21.099531 43.720703 21.144531 C 43.752703 21.086531 43.793797 21.015516 43.841797 20.853516 C 43.963797 20.436516 44.024406 19.820844 44.316406 19.214844 C 44.615406 18.593844 45.084656 18.142484 45.347656 17.771484 C 45.424656 17.663484 45.432844 17.632359 45.464844 17.568359 C 45.437844 17.564359 45.409813 17.560547 45.382812 17.560547 z M 31.888672 18.873047 L 28.890625 21.121094 L 28.890625 27.564453 C 29.709625 26.837453 30.607781 26.115031 31.550781 25.457031 C 31.652781 25.386031 31.754422 25.315094 31.857422 25.246094 C 32.011422 24.503094 32.422562 23.819656 32.851562 23.222656 C 33.166562 22.784656 33.506281 22.405188 33.863281 22.117188 C 34.042281 21.973187 34.222266 21.850766 34.447266 21.759766 C 34.559266 21.714766 34.69275 21.671203 34.84375 21.658203 C 35.01375 21.643203 35.18675 21.670328 35.34375 21.736328 C 35.49175 21.797328 35.615703 21.87775 35.720703 21.96875 C 35.767703 21.92275 35.817328 21.874078 35.861328 21.830078 L 31.888672 18.873047 z M 34.78125 23.421875 C 34.59225 23.587875 34.357672 23.839531 34.138672 24.144531 C 33.658672 24.813531 33.356578 25.710391 33.392578 26.025391 C 33.396578 26.026391 33.414609 26.064469 33.474609 26.105469 C 33.557609 26.164469 33.693609 26.204078 33.724609 26.205078 C 33.989609 26.214078 34.563031 25.842109 34.707031 25.537109 C 34.850031 25.235109 34.949531 24.538609 34.894531 23.974609 C 34.875531 23.786609 34.83725 23.601875 34.78125 23.421875 z M 17.746094 25.658203 C 18.248094 25.644203 18.647875 25.731531 19.046875 26.019531 C 20.490875 27.062531 22.048203 27.912922 23.658203 28.669922 C 23.896203 28.780922 23.988422 28.9125 23.982422 29.1875 C 23.951422 30.6245 23.896172 32.058141 23.826172 33.494141 C 23.818172 33.660141 23.762422 33.685781 23.607422 33.675781 C 22.698422 33.617781 21.787953 33.543156 20.876953 33.535156 C 20.280953 33.530156 19.682844 33.610594 19.089844 33.683594 C 17.501844 33.878594 15.9035 33.864734 14.3125 33.802734 C 13.3425 33.765734 12.379109 33.550875 11.412109 33.421875 C 11.252109 33.399875 11.205031 33.330922 11.207031 33.169922 C 11.216031 32.350922 11.212891 31.530938 11.212891 30.710938 L 11.275391 30.710938 C 11.275391 30.083938 11.267391 29.457078 11.275391 28.830078 C 11.286391 28.053078 11.148453 27.289484 11.064453 26.521484 C 11.040453 26.300484 11.070641 26.211547 11.306641 26.185547 C 13.447641 25.945547 15.589094 25.721203 17.746094 25.658203 z M 41.839844 25.730469 C 41.978844 26.397469 41.952797 27.146203 41.841797 27.908203 C 41.622797 29.410203 41.036109 31.094328 40.287109 32.736328 C 39.980109 33.405328 39.649922 34.062031 39.294922 34.707031 L 41.101562 34.976562 L 49.132812 36.978516 L 49.132812 36.976562 L 49.107422 36.810547 L 49.080078 36.634766 L 48.382812 32.060547 L 46.490234 28.810547 L 44.429688 29.498047 L 43.007812 32.029297 L 43.8125 28.197266 L 45.671875 27.400391 L 45.429688 26.984375 L 41.839844 25.730469 z M 40.318359 26.328125 C 40.143359 26.522125 39.947656 26.706094 39.722656 26.871094 C 38.727656 27.607094 37.269172 28.318672 35.826172 27.763672 C 35.578172 27.667672 35.345813 27.537906 35.132812 27.378906 C 34.713813 27.650906 34.215875 27.806062 33.671875 27.789062 C 33.251875 27.775063 32.884594 27.631391 32.558594 27.400391 C 32.404594 27.291391 32.254906 27.156188 32.128906 26.992188 C 30.927906 27.859188 29.794625 28.829328 28.890625 29.736328 L 28.890625 33.292969 L 29.224609 33.568359 C 29.836609 32.965359 30.717141 32.204375 31.619141 31.484375 C 32.231141 30.996375 32.833609 30.545609 33.349609 30.224609 C 33.607609 30.064609 33.838938 29.934844 34.085938 29.839844 C 34.208937 29.792844 34.335766 29.750328 34.509766 29.736328 C 34.684766 29.722328 34.958937 29.738266 35.210938 29.947266 C 35.461937 30.157266 35.524969 30.424656 35.542969 30.597656 C 35.560969 30.770656 35.542531 30.904203 35.519531 31.033203 C 35.471531 31.293203 35.384437 31.544172 35.273438 31.826172 C 35.049438 32.392172 34.718656 33.065812 34.347656 33.757812 C 33.802656 34.773812 33.212469 35.778281 32.730469 36.488281 L 34.775391 38.191406 C 35.189391 37.839406 35.820734 37.179219 36.427734 36.324219 C 37.263734 35.147219 38.140656 33.625172 38.847656 32.076172 C 39.554656 30.527172 40.090391 28.943687 40.275391 27.679688 C 40.352391 27.147687 40.361359 26.696125 40.318359 26.328125 z M 33.414062 32.103516 C 33.142063 32.304516 32.872422 32.510656 32.607422 32.722656 C 31.550422 33.566656 30.496844 34.542656 30.089844 34.972656 C 30.114844 35.402656 30.203109 35.685344 30.287109 35.777344 C 30.376109 35.874344 30.582406 35.980578 31.191406 35.892578 C 31.540406 35.415578 32.311172 34.200812 32.951172 33.007812 C 33.111172 32.708813 33.265062 32.407516 33.414062 32.103516 z M 29.390625 35.769531 L 28.890625 36.369141 L 28.890625 38.701172 L 30.537109 36.724609 L 29.390625 35.769531 z M 37.578125 37.435547 C 36.729125 38.613547 35.961969 39.505203 35.042969 39.908203 L 34.595703 40.103516 L 31.755859 37.738281 L 28.890625 41.175781 L 28.890625 44.130859 C 33.358625 44.037859 37.373406 43.560703 40.316406 42.845703 C 41.959406 42.447703 43.270422 41.969234 44.107422 41.490234 C 44.942422 41.010234 45.175781 40.596109 45.175781 40.412109 C 45.175781 40.228109 44.942422 39.815938 44.107422 39.335938 C 43.270422 38.856938 41.959406 38.377516 40.316406 37.978516 C 40.213406 37.954516 40.105 37.93025 40 37.90625 L 38.751953 42.363281 L 38.601562 37.613281 C 38.261562 37.550281 37.919125 37.490547 37.578125 37.435547 z "
   id="path2" />

</svg>