<?xml version="1.0" encoding="utf-8"?>
<!-- Generator: Adobe Illustrator 16.0.0, SVG Export Plug-In . SVG Version: 6.00 Build 0)  -->
<!DOCTYPE svg PUBLIC "-//W3C//DTD SVG 1.1//EN" "http://www.w3.org/Graphics/SVG/1.1/DTD/svg11.dtd">
<svg version="1.1" id="Layer_1" xmlns="http://www.w3.org/2000/svg" xmlns:xlink="http://www.w3.org/1999/xlink" x="0px" y="0px"
	 width="56.693px" height="56.693px" viewBox="0 0 56.693 56.693" enable-background="new 0 0 56.693 56.693" xml:space="preserve">
<path fill="#560F19" d="M45.816,11.299c-0.015,0-0.028,0-0.043,0.001c-1.144,0.109-2.797,1.693-2.185,2.667
	c0.295,0.469,1.171-0.064,1.616-0.394c0.573-0.423,1.213-1.134,1.093-1.835C46.262,11.527,46.031,11.309,45.816,11.299
	L45.816,11.299z M40.758,11.796c-0.721,0.003-2.348,1.783-2.2,2.94c0.058,0.447,0.635,0.845,1.084,0.809
	c0.646-0.052,1.125-0.792,1.354-1.398c0.274-0.726,0.61-2.028-0.107-2.327C40.848,11.804,40.803,11.795,40.758,11.796L40.758,11.796
	z M40.976,16.737c-0.365-0.002-0.729,0.036-1.086,0.113c-1.049,0.227-1.979,0.792-2.39,1.452c0,0,0-0.001-0.001-0.001
	c0.002,0.003,0.006,0.011,0.016,0.054c0.022,0.096,0.106,0.288,0.229,0.516c0.244,0.457,0.712,1.08,0.556,1.967
	c-0.209,1.193-1.096,1.914-1.752,2.539c-0.042,0.04-0.079,0.077-0.119,0.116c0.018,0.107,0.031,0.216,0.043,0.327
	c0.077,0.781,0.017,1.61-0.301,2.326c0.076,0.063,0.152,0.112,0.226,0.14c0.572,0.22,1.645-0.138,2.386-0.686
	c0.473-0.349,0.811-0.912,1.142-1.623c0.33-0.71,0.637-1.545,1.168-2.316c0.191-0.279,0.406-0.52,0.62-0.738
	c-0.225-0.641-0.294-1.33-0.09-1.991c0.206-0.667,0.629-1.258,1.162-1.747c-0.014-0.01-0.026-0.02-0.039-0.028
	C42.295,16.886,41.657,16.741,40.976,16.737L40.976,16.737z M45.382,17.561c-0.037,0-0.074,0.002-0.111,0.006
	c-0.207,0.025-0.515,0.139-0.821,0.332c-0.613,0.385-1.192,1.105-1.314,1.499c-0.067,0.22-0.029,0.803,0.16,1.225
	c0.157,0.349,0.325,0.478,0.425,0.523c0.032-0.058,0.073-0.129,0.121-0.291c0.122-0.417,0.183-1.034,0.475-1.64
	c0.299-0.621,0.769-1.072,1.032-1.443c0.077-0.108,0.084-0.139,0.116-0.203C45.437,17.564,45.409,17.562,45.382,17.561
	L45.382,17.561z M31.889,18.873l-5.177,3.883c0.381,0.979,0.907,2.785,0.907,2.785l-0.865,1.174l-0.989-1.36L24.979,22.9h-1.116
	l-2.574,3.861l0.52,2.549l-3.243-2.838l-8.169,6.646l0.946,2.064l4.413-0.557l4.738-2.757l4.473,0.72l0.736,0.109l-0.371-0.31
	l0.112-0.476c0.242-1.03,1.047-1.992,2.137-3.114s2.49-2.309,3.968-3.342c0.102-0.071,0.203-0.142,0.306-0.211
	c0.154-0.743,0.565-1.428,0.994-2.025c0.314-0.438,0.654-0.817,1.012-1.105c0.179-0.144,0.359-0.267,0.584-0.358
	c0.112-0.045,0.246-0.088,0.397-0.101c0.17-0.015,0.342,0.013,0.499,0.079c0.147,0.062,0.271,0.141,0.377,0.232
	c0.047-0.045,0.097-0.093,0.141-0.138L31.889,18.873L31.889,18.873z M34.781,23.422c-0.189,0.166-0.425,0.418-0.644,0.723
	c-0.48,0.669-0.782,1.566-0.746,1.881c0.004,0,0.023,0.038,0.083,0.08c0.083,0.059,0.218,0.098,0.249,0.099
	c0.265,0.009,0.839-0.362,0.983-0.667c0.143-0.302,0.243-1,0.188-1.564C34.876,23.787,34.838,23.602,34.781,23.422L34.781,23.422z
	 M33.392,26.027c-0.001,0-0.001,0.005,0.002,0.022C33.393,26.042,33.393,26.034,33.392,26.027L33.392,26.027z M41.839,25.729
	c0.139,0.667,0.114,1.416,0.003,2.178c-0.219,1.502-0.805,3.187-1.554,4.829c-0.307,0.669-0.638,1.326-0.993,1.971l1.806,0.268
	l8.031,2.003l-0.75-4.919l-1.891-3.249l-2.062,0.687l-1.422,2.534l0.804-3.832l1.86-0.797l-0.242-0.417L41.839,25.729L41.839,25.729
	z M40.317,26.329c-0.175,0.194-0.37,0.378-0.595,0.543c-0.995,0.736-2.453,1.446-3.896,0.891c-0.248-0.096-0.481-0.225-0.694-0.384
	c-0.419,0.272-0.918,0.427-1.462,0.41c-0.42-0.014-0.786-0.158-1.112-0.389c-0.154-0.109-0.304-0.244-0.43-0.408
	c-1.274,0.92-2.483,1.959-3.411,2.913c-0.731,0.752-1.267,1.492-1.538,1.963l2.043,1.702c0.612-0.603,1.494-1.365,2.396-2.085
	c0.612-0.488,1.214-0.938,1.73-1.259c0.258-0.16,0.488-0.29,0.735-0.385c0.123-0.047,0.25-0.089,0.424-0.103
	c0.175-0.014,0.449,0.001,0.701,0.21c0.251,0.21,0.315,0.478,0.333,0.651s-0.001,0.307-0.024,0.436
	c-0.048,0.26-0.134,0.511-0.245,0.793c-0.224,0.566-0.555,1.238-0.926,1.93c-0.545,1.016-1.135,2.022-1.617,2.732l2.044,1.702
	c0.414-0.352,1.045-1.012,1.652-1.867c0.836-1.177,1.713-2.698,2.42-4.247s1.243-3.134,1.428-4.398
	C40.352,27.147,40.36,26.697,40.317,26.329L40.317,26.329z M33.415,32.103c-0.273,0.201-0.542,0.407-0.807,0.619
	c-1.057,0.844-2.112,1.821-2.519,2.251c0.025,0.43,0.114,0.712,0.198,0.804c0.089,0.097,0.296,0.203,0.905,0.115
	c0.349-0.477,1.119-1.691,1.759-2.884C33.112,32.709,33.267,32.408,33.415,32.103L33.415,32.103z M29.391,35.769l-6.882,8.262
	c0.607,0.039,1.229,0.07,1.865,0.093l6.164-7.399L29.391,35.769L29.391,35.769z M26.572,36.678
	c-1.334,0.013-2.631,0.061-3.876,0.138l-1.075,1.395l-0.427-1.281c-1.858,0.158-3.574,0.387-5.093,0.669l-0.117,4.196l-1.021-3.967
	c-0.219,0.048-0.438,0.099-0.657,0.151c-1.643,0.399-2.955,0.878-3.791,1.357c-0.836,0.48-1.068,0.892-1.068,1.076
	s0.232,0.597,1.068,1.077c0.836,0.479,2.147,0.958,3.791,1.356c1.76,0.428,3.905,0.771,6.298,0.997L26.572,36.678L26.572,36.678z
	 M37.578,37.435c-0.849,1.178-1.617,2.07-2.536,2.473l-0.447,0.196l-2.841-2.366l-5.337,6.407c0.296,0.004,0.594,0.006,0.894,0.006
	c5.1,0,9.718-0.507,13.005-1.305c1.643-0.398,2.954-0.877,3.791-1.356c0.835-0.48,1.067-0.893,1.067-1.077s-0.232-0.597-1.067-1.076
	c-0.837-0.479-2.148-0.958-3.791-1.357c-0.103-0.024-0.211-0.049-0.316-0.073l-1.248,4.457l-0.151-4.749
	C38.261,37.55,37.92,37.491,37.578,37.435L37.578,37.435z"/>
<g>
	<path fill-rule="evenodd" clip-rule="evenodd" fill="#560F19" d="M48.971,36.937l0.161,0.04l-0.052-0.342
		C49.044,36.736,49.007,36.836,48.971,36.937z"/>
	<path fill-rule="evenodd" clip-rule="evenodd" fill="#560F19" d="M45.493,12.123c0.188,0.206,0.346,0.433,0.497,0.666
		c0.229-0.326,0.369-0.689,0.308-1.05c-0.036-0.21-0.267-0.429-0.481-0.438c-0.004,0-0.008,0-0.012,0c-0.011,0-0.021,0-0.031,0.001
		c-0.27,0.026-0.567,0.138-0.857,0.301C45.123,11.756,45.315,11.93,45.493,12.123z"/>
	<path fill-rule="evenodd" clip-rule="evenodd" fill="#560F19" d="M55.59,25.625c-0.301-1.719-0.776-3.392-1.381-5.026
		c-1.235-3.34-2.9-6.471-4.704-9.535c-0.318-0.542-0.732-0.991-1.228-1.376c-0.527-0.413-1.07-0.805-1.622-1.188
		c-0.689-0.478-1.36-0.977-1.992-1.532c-0.896-0.788-1.89-1.436-2.982-1.929c-0.786-0.353-1.517-0.797-2.243-1.257
		c-1.267-0.799-2.578-1.5-4.085-1.754c-0.57-0.096-1.09-0.358-1.61-0.601c-1.55-0.721-3.172-1.123-4.891-1.141
		c-1.269-0.014-2.535,0.021-3.8,0.103c-0.799,0.052-1.565,0.219-2.289,0.579c-0.564,0.281-1.16,0.493-1.772,0.649
		c-0.814,0.208-1.606,0.477-2.38,0.802c-1.056,0.443-2.09,0.923-2.988,1.653c-0.335,0.273-0.714,0.462-1.171,0.503
		c-0.651,0.058-1.202,0.383-1.719,0.763c-0.264,0.193-0.477,0.441-0.72,0.655c-0.203,0.179-0.412,0.355-0.681,0.42
		c-0.137,0.034-0.262,0.082-0.375,0.16C9.765,7.379,8.74,8.35,7.941,9.55c-0.555,0.832-1.002,1.725-1.511,2.583
		c-0.169,0.288-0.344,0.574-0.559,0.832c-0.172,0.207-0.376,0.349-0.655,0.374c-0.261,0.024-0.453,0.166-0.59,0.385
		c-0.114,0.181-0.203,0.375-0.283,0.571c-0.283,0.696-0.631,1.348-1.073,1.965c-0.699,0.979-1.182,2.076-1.551,3.218
		c-0.234,0.725-0.261,1.506-0.584,2.209c-0.518,1.995-0.696,4.014-0.476,6.066c0.154,1.433,0.426,2.841,0.776,4.238
		c0.207,0.822,0.443,1.641,0.571,2.482c0.079,0.518,0.11,1.035,0.111,1.559c0.001,0.297,0.045,0.592,0.32,0.783
		c0.132,0.09,0.237,0.205,0.329,0.334c0.223,0.314,0.399,0.656,0.54,1.018c0.475,1.215,0.967,2.424,1.556,3.592
		c0.625,1.24,1.427,2.34,2.475,3.266c0.739,0.65,1.485,1.293,2.254,1.91c0.563,0.451,1.164,0.854,1.725,1.307
		c0.771,0.621,1.428,1.355,2.021,2.145c0.506,0.672,1.141,1.174,1.913,1.514c1.663,0.734,3.321,1.48,4.985,2.213
		c0.99,0.436,2.004,0.812,3.019,1.188c0.395,0.146,0.796,0.311,1.097,0.613c0.214,0.213,0.457,0.328,0.739,0.389
		c0.557,0.123,1.122,0.127,1.686,0.076c0.612-0.051,1.202-0.178,1.737-0.514c0.312-0.195,0.67-0.299,1.04-0.316
		c0.419-0.021,0.832-0.078,1.236-0.184c0.905-0.234,1.814-0.457,2.742-0.578c0.883-0.117,1.739-0.326,2.56-0.668
		c2.038-0.844,4.025-1.795,5.971-2.832c1.009-0.541,2.003-1.109,2.791-1.963c0.089-0.098,0.196-0.186,0.326-0.221
		c0.111-0.031,0.204-0.084,0.293-0.154c0.355-0.273,0.673-0.588,0.99-0.902c1.541-1.541,2.882-3.248,4.18-4.99
		c0.717-0.963,1.345-1.975,1.774-3.102c0.27-0.705,0.599-1.385,0.935-2.061c0.233-0.467,0.448-0.943,0.598-1.443
		c0.288-0.953,0.57-1.908,0.842-2.867c0.207-0.73,0.398-1.467,0.437-2.23c0.023-0.449,0.089-0.891,0.252-1.307
		c0.265-0.668,0.354-1.357,0.341-1.986C55.823,27.188,55.725,26.404,55.59,25.625z M50.479,38.456
		c-0.372,0.34-0.854,0.521-1.347,0.521c-0.161,0-0.324-0.02-0.484-0.06l-0.501-0.125c-0.113,0.215-0.218,0.436-0.345,0.645
		c0.203,0.533,0.182,1.146-0.112,1.68c-0.252,0.457-0.663,0.763-1.129,0.911c-0.278,0.35-0.683,0.707-1.24,1.057
		c-0.853,0.962-1.748,1.884-2.746,2.708c-0.225,0.186-0.466,0.342-0.721,0.484c-0.354,0.197-0.676,0.443-0.921,0.764
		c-0.437,0.574-0.983,1.025-1.571,1.428c-1.19,0.816-2.454,1.49-3.832,1.945c-1.085,0.361-2.202,0.529-3.345,0.535
		c-0.565,0.002-1.129,0-1.695,0c-0.968,0.012-1.934,0.004-2.899-0.062c-0.183-0.012-0.364-0.035-0.545-0.059
		c-0.04-0.004-0.087-0.008-0.117-0.031c-0.35-0.26-0.771-0.295-1.178-0.377c-1.544-0.311-3.073-0.693-4.612-1.025
		c-0.995-0.217-1.884-0.635-2.721-1.184c-1.018-0.668-2.074-1.26-3.17-1.787c-0.325-0.156-0.64-0.334-0.94-0.533
		c-0.294-0.195-0.56-0.408-0.743-0.725c-0.136-0.235-0.333-0.424-0.544-0.595c-1.427-0.394-2.635-0.852-3.499-1.347
		c-1.712-0.984-2.072-2.072-2.072-2.812c0-0.428,0.131-0.974,0.566-1.549c-0.047-0.116-0.094-0.232-0.128-0.356
		c-0.088-0.318-0.198-0.627-0.336-0.926c-0.106-0.23-0.219-0.455-0.411-0.635c-0.124-0.115-0.21-0.266-0.231-0.436
		c-0.054-0.463-0.204-0.898-0.363-1.328c-0.46-1.248-0.761-2.539-1.037-3.834c-0.24-1.131-0.441-2.266-0.567-3.413
		c-0.089-0.811-0.059-1.617,0.05-2.423c0.223-1.643,0.574-3.257,1.101-4.831c0.178-0.533,0.378-1.058,0.646-1.555
		c0.077-0.143,0.163-0.281,0.268-0.405c0.315-0.375,0.562-0.793,0.763-1.238c0.113-0.249,0.229-0.496,0.397-0.715
		c0.091-0.118,0.189-0.222,0.323-0.295c0.123-0.067,0.201-0.184,0.285-0.292c0.103-0.134,0.181-0.284,0.271-0.427
		c-0.113-0.501-0.04-1.042,0.252-1.506c0.277-0.439,0.701-0.733,1.17-0.86c0.564-0.846,1.175-1.661,1.812-2.458
		c0.787-0.984,1.625-1.922,2.546-2.785c0.163-0.153,0.333-0.298,0.511-0.434c0.294-0.224,0.62-0.355,0.992-0.395
		c0.465-0.049,0.877-0.224,1.242-0.527c0.942-0.782,1.99-1.404,3.083-1.953c1.183-0.593,2.402-1.098,3.698-1.393
		c1.278-0.291,2.578-0.357,3.884-0.306c0.932,0.037,1.855,0.139,2.768,0.344c0.664,0.15,1.284,0.409,1.895,0.702
		c1.094,0.524,2.233,0.956,3.31,1.519c0.587,0.307,1.108,0.715,1.688,1.034c1.808,0.992,3.439,2.233,5.041,3.518
		c0.068,0.055,0.136,0.109,0.203,0.164c0.735-0.603,1.612-1.028,2.444-1.107c0.019-0.001,0.037-0.003,0.056-0.004
		c0.044-0.003,0.12-0.005,0.165-0.005c0.029,0,0.069,0,0.098,0.002c1.152,0.05,2.17,0.952,2.367,2.099
		c0.192,1.125-0.258,2.267-1.231,3.224c0.461,0.884,0.876,1.789,1.215,2.731c0.111,0.307,0.151,0.63,0.231,0.942
		c0.091,0.354,0.198,0.702,0.494,0.955c0.125,0.109,0.159,0.272,0.207,0.43c0.154,0.514,0.371,1.005,0.571,1.502
		c0.361,0.901,0.768,1.785,1.087,2.704c0.251,0.722,0.308,1.461,0.253,2.215c-0.09,1.268-0.196,2.534-0.325,3.799
		c-0.087,0.854-0.175,1.707-0.305,2.555l0.643,4.217C51.21,37.337,50.974,38.005,50.479,38.456z"/>
</g>
</svg>
