<?xml version="1.0" encoding="utf-8"?>
<!-- Generator: Adobe Illustrator 16.0.0, SVG Export Plug-In . SVG Version: 6.00 Build 0)  -->
<!DOCTYPE svg PUBLIC "-//W3C//DTD SVG 1.1//EN" "http://www.w3.org/Graphics/SVG/1.1/DTD/svg11.dtd">
<svg version="1.1" id="Layer_1" xmlns="http://www.w3.org/2000/svg" xmlns:xlink="http://www.w3.org/1999/xlink" x="0px" y="0px"
	 width="56.693px" height="56.693px" viewBox="-7.087 -7.087 56.693 56.693" enable-background="new -7.087 -7.087 56.693 56.693"
	 xml:space="preserve">
<path fill="#BD0926" d="M39.764,14.988c1.807-3.294,0.387-6.962-4.646-6.681c-3.737,0.209-5.351-2.279-8.068-4.931
	c-0.901-0.879-2.154-1.211-3.515-1.217c-2.596-0.011-5.583,1.177-7.258,2.061c-1.178,0.621-5.309,3.094-8.852,3.778
	c-4.572,0.884-7.215,5.284-4.534,7.487c4.458,3.662,4.612,8.407,1.316,11.892c-3.64,3.847,0.096,9.397,5.302,8.771
	s7.401,0.045,10.051,2.693c3.438,3.437,10.917,2.057,12.756-2.706c0.853-2.211,2.019-4.682,4.866-5.694
	c3.348-1.189,4.346-4.931,2.177-7.526C37.75,20.99,37.564,18.997,39.764,14.988z M21.85,34.981c-7.308,0-13.249-5.94-13.249-13.248
	S14.542,8.487,21.85,8.487c7.307,0,13.248,5.938,13.248,13.246S29.156,34.981,21.85,34.981z"/>
<g>
	<polygon fill="#BD0926" points="19.869,25.776 19.873,25.776 19.873,23.426 18.258,23.426 18.258,25.093 16.758,25.093 
		16.758,18.718 15.02,18.718 15.02,26.593 19.869,26.593 	"/>
	<path fill="#BD0926" d="M21.895,21.237c-0.296,0.48-0.522,1.141-0.522,2.024v3.332h1.043v-3.332
		C22.416,22.378,22.19,21.718,21.895,21.237z"/>
	<polygon fill="#BD0926" points="26.934,18.718 26.934,25.093 25.434,25.093 25.434,23.426 23.916,23.426 23.916,26.593 
		28.674,26.593 28.674,18.718 	"/>
</g>
<path fill="#BD0926" d="M21.85,10.038c-6.469,0-11.695,5.226-11.695,11.694S15.38,33.429,21.85,33.429
	c6.468,0,11.695-5.228,11.695-11.696S28.317,10.038,21.85,10.038z M21.877,12.294c0.611,0,1.107,0.496,1.107,1.107
	c0,0.612-0.496,1.108-1.107,1.108c-0.612,0-1.108-0.496-1.108-1.108C20.769,12.79,21.265,12.294,21.877,12.294z M21.013,16.392
	L21,16.412v-0.028C21.005,16.386,21.009,16.389,21.013,16.392z M21.846,31.385c-0.612,0-1.108-0.496-1.108-1.108
	c0-0.611,0.496-1.107,1.108-1.107c0.611,0,1.107,0.496,1.107,1.107C22.953,30.889,22.457,31.385,21.846,31.385z M29.518,28.093
	H14.174H13.52v-12.5h1.5v1.625h1.738v-1.625h1.5v6.333h1.776c0.201-0.875,0.574-1.58,1.03-2.091c0.262-0.293,0.545-0.528,0.83-0.705
	c0.284,0.177,0.568,0.412,0.83,0.706c0.456,0.511,0.829,1.216,1.03,2.09h1.679v-6.333h1.5v1.625h1.74v-1.625h1.5v12.5H29.518z"/>
<path fill-rule="evenodd" clip-rule="evenodd" fill="#BD0926" d="M48.503,18.538c-0.301-1.719-0.776-3.392-1.381-5.026
	c-1.235-3.34-2.9-6.471-4.704-9.535C42.1,3.435,41.686,2.987,41.19,2.601c-0.527-0.413-1.07-0.805-1.622-1.188
	c-0.689-0.478-1.36-0.977-1.992-1.532c-0.896-0.788-1.89-1.436-2.982-1.929c-0.786-0.353-1.517-0.797-2.243-1.257
	c-1.267-0.799-2.578-1.5-4.085-1.754c-0.57-0.096-1.09-0.358-1.61-0.601c-1.55-0.721-3.172-1.123-4.891-1.141
	c-1.269-0.014-2.535,0.021-3.8,0.103c-0.799,0.052-1.565,0.219-2.289,0.579c-0.564,0.281-1.16,0.493-1.772,0.649
	c-0.814,0.208-1.606,0.477-2.38,0.802c-1.056,0.443-2.09,0.923-2.988,1.653C8.2-2.742,7.821-2.553,7.364-2.512
	C6.712-2.454,6.162-2.129,5.645-1.749c-0.264,0.193-0.477,0.441-0.72,0.655c-0.203,0.179-0.412,0.355-0.681,0.42
	c-0.137,0.034-0.262,0.082-0.375,0.16c-1.19,0.806-2.216,1.777-3.015,2.977C0.299,3.295-0.148,4.188-0.657,5.047
	C-0.827,5.335-1.001,5.62-1.216,5.879c-0.172,0.207-0.376,0.349-0.655,0.374c-0.261,0.024-0.453,0.166-0.59,0.385
	c-0.114,0.181-0.203,0.375-0.283,0.571c-0.283,0.696-0.631,1.348-1.073,1.965c-0.699,0.979-1.182,2.076-1.551,3.218
	c-0.234,0.725-0.261,1.506-0.584,2.209c-0.518,1.995-0.696,4.014-0.476,6.066c0.154,1.433,0.426,2.841,0.776,4.237
	c0.207,0.823,0.443,1.642,0.571,2.482c0.079,0.519,0.11,1.036,0.111,1.559c0.001,0.297,0.045,0.592,0.32,0.784
	c0.132,0.09,0.237,0.204,0.329,0.333c0.223,0.315,0.399,0.657,0.54,1.018c0.475,1.216,0.967,2.425,1.556,3.593
	c0.625,1.24,1.427,2.34,2.475,3.265c0.739,0.651,1.485,1.294,2.254,1.91c0.563,0.451,1.164,0.854,1.725,1.308
	c0.771,0.621,1.428,1.355,2.021,2.144c0.506,0.673,1.141,1.174,1.913,1.514c1.663,0.734,3.321,1.48,4.985,2.214
	c0.99,0.436,2.004,0.812,3.019,1.188c0.395,0.146,0.796,0.311,1.097,0.612c0.214,0.214,0.457,0.328,0.739,0.39
	c0.557,0.122,1.122,0.126,1.686,0.075c0.612-0.051,1.202-0.178,1.737-0.513c0.312-0.195,0.67-0.299,1.04-0.317
	c0.419-0.021,0.832-0.078,1.236-0.183c0.905-0.234,1.814-0.458,2.742-0.579c0.883-0.116,1.739-0.326,2.56-0.667
	c2.038-0.844,4.025-1.796,5.971-2.833c1.009-0.54,2.003-1.109,2.791-1.963c0.089-0.097,0.196-0.185,0.326-0.22
	c0.111-0.031,0.204-0.085,0.293-0.154c0.355-0.273,0.673-0.589,0.99-0.903c1.541-1.54,2.882-3.248,4.18-4.99
	c0.717-0.962,1.345-1.975,1.774-3.102c0.27-0.705,0.599-1.385,0.935-2.06c0.233-0.467,0.448-0.944,0.598-1.443
	c0.288-0.954,0.57-1.909,0.842-2.868c0.207-0.73,0.398-1.466,0.437-2.229c0.023-0.45,0.089-0.891,0.252-1.307
	c0.265-0.668,0.354-1.357,0.341-1.987C48.736,20.101,48.638,19.317,48.503,18.538z M44.01,19.018
	c-0.09,1.268-0.196,2.534-0.325,3.799c-0.073,0.727-0.147,1.452-0.247,2.175c0.129,0.979,0.074,1.983-0.195,2.97
	c-0.357,1.307-1.049,2.457-1.989,3.391c-0.177,0.363-0.363,0.723-0.576,1.069c-0.141,0.229-0.26,0.471-0.398,0.699
	c-0.097,0.16-0.099,0.35-0.184,0.513c-0.141,0.271-0.306,0.525-0.492,0.767c-1.217,1.582-2.573,3.033-4.115,4.307
	c-0.225,0.185-0.466,0.342-0.721,0.483c-0.354,0.197-0.676,0.444-0.921,0.765c-0.437,0.574-0.983,1.024-1.571,1.428
	c-1.19,0.815-2.454,1.489-3.832,1.945c-1.085,0.36-2.202,0.528-3.345,0.535c-0.565,0.002-1.129,0-1.695,0
	c-0.968,0.012-1.934,0.003-2.899-0.062c-0.183-0.012-0.364-0.036-0.545-0.059c-0.04-0.005-0.087-0.009-0.117-0.032
	c-0.35-0.259-0.771-0.294-1.178-0.377c-1.544-0.31-3.073-0.693-4.612-1.025c-0.995-0.216-1.884-0.635-2.721-1.184
	c-1.018-0.667-2.074-1.259-3.17-1.787c-0.124-0.06-0.237-0.137-0.357-0.203c-3.282-0.312-6.131-2.287-7.402-5.239
	c-0.614-1.427-0.78-2.912-0.538-4.341c-0.015-0.043-0.036-0.083-0.042-0.129c-0.054-0.462-0.204-0.897-0.363-1.328
	c-0.46-1.248-0.761-2.538-1.037-3.834c-0.24-1.13-0.441-2.265-0.567-3.413c-0.089-0.811-0.059-1.617,0.05-2.423
	c0.203-1.499,0.521-2.972,0.973-4.414c-0.094-0.744-0.059-1.518,0.14-2.299c0.549-2.163,2.151-4.06,4.3-5.313
	C3.897,5.517,4.53,4.67,5.192,3.842c0.787-0.984,1.625-1.922,2.546-2.785c0.163-0.153,0.333-0.298,0.511-0.434
	c0.294-0.224,0.62-0.355,0.992-0.395c0.465-0.049,0.877-0.224,1.242-0.527c0.942-0.782,1.99-1.404,3.083-1.953
	c1.183-0.593,2.402-1.098,3.698-1.393c1.278-0.291,2.578-0.357,3.884-0.306c0.932,0.037,1.855,0.139,2.768,0.344
	c0.664,0.15,1.284,0.409,1.895,0.702c1.094,0.524,2.233,0.956,3.31,1.519c0.587,0.307,1.108,0.715,1.688,1.034
	c1.808,0.992,3.439,2.233,5.041,3.518c0.444,0.356,0.864,0.742,1.385,0.986c0.458,0.213,0.836,0.52,1.172,0.884
	c0.232,0.254,0.423,0.541,0.604,0.833c1.963,0.733,3.045,2.012,3.569,2.896c1.064,1.797,1.2,4.031,0.45,6.199
	c0.256,0.607,0.511,1.215,0.728,1.838C44.008,17.524,44.064,18.263,44.01,19.018z"/>
</svg>
