<?xml version="1.0" encoding="UTF-8" standalone="no"?>
<!-- Generator: Adobe Illustrator 16.0.0, SVG Export Plug-In . SVG Version: 6.00 Build 0)  -->

<svg
   xmlns:dc="http://purl.org/dc/elements/1.1/"
   xmlns:cc="http://creativecommons.org/ns#"
   xmlns:rdf="http://www.w3.org/1999/02/22-rdf-syntax-ns#"
   xmlns:svg="http://www.w3.org/2000/svg"
   xmlns="http://www.w3.org/2000/svg"
   xmlns:sodipodi="http://sodipodi.sourceforge.net/DTD/sodipodi-0.dtd"
   xmlns:inkscape="http://www.inkscape.org/namespaces/inkscape"
   version="1.1"
   id="Layer_1"
   x="0px"
   y="0px"
   width="56.693px"
   height="56.693px"
   viewBox="-7.087 -7.087 56.693 56.693"
   enable-background="new -7.087 -7.087 56.693 56.693"
   xml:space="preserve"
   sodipodi:docname="Organisation-Terres_sauvages.svg"
   inkscape:version="0.92.0 r15299"><metadata
   id="metadata15"><rdf:RDF><cc:Work
       rdf:about=""><dc:format>image/svg+xml</dc:format><dc:type
         rdf:resource="http://purl.org/dc/dcmitype/StillImage" /></cc:Work></rdf:RDF></metadata><defs
   id="defs13">
	
	
</defs><sodipodi:namedview
   pagecolor="#ffffff"
   bordercolor="#666666"
   borderopacity="1"
   objecttolerance="10"
   gridtolerance="10"
   guidetolerance="10"
   inkscape:pageopacity="0"
   inkscape:pageshadow="2"
   inkscape:window-width="1280"
   inkscape:window-height="961"
   id="namedview11"
   showgrid="false"
   inkscape:zoom="4.1627714"
   inkscape:cx="-3.8435933"
   inkscape:cy="28.3465"
   inkscape:window-x="-8"
   inkscape:window-y="-8"
   inkscape:window-maximized="1"
   inkscape:current-layer="Layer_1" />
<path
   d="M 28.851562 0.28515625 C 27.582563 0.27115625 26.317734 0.30667188 25.052734 0.38867188 C 24.253734 0.44067187 23.487672 0.60875 22.763672 0.96875 C 22.199672 1.24975 21.602234 1.4611875 20.990234 1.6171875 C 20.176234 1.8251875 19.385328 2.0949219 18.611328 2.4199219 C 17.555328 2.8629219 16.521047 3.3422656 15.623047 4.0722656 C 15.287047 4.3452656 14.908172 4.5332187 14.451172 4.5742188 C 13.799172 4.6322187 13.249422 4.9578906 12.732422 5.3378906 C 12.468422 5.5308906 12.254719 5.7781875 12.011719 5.9921875 C 11.808719 6.1711875 11.599078 6.3471094 11.330078 6.4121094 C 11.193078 6.4461094 11.068078 6.4942656 10.955078 6.5722656 C 9.7650781 7.3782656 8.7404063 8.3507813 7.9414062 9.5507812 C 7.3864063 10.382781 6.9386875 11.275766 6.4296875 12.134766 C 6.2596875 12.422766 6.0860937 12.707797 5.8710938 12.966797 C 5.6990938 13.173797 5.4957969 13.314844 5.2167969 13.339844 C 4.9557969 13.363844 4.7639531 13.505609 4.6269531 13.724609 C 4.5129531 13.905609 4.42375 14.100875 4.34375 14.296875 C 4.06075 14.992875 3.7115313 15.644719 3.2695312 16.261719 C 2.5705313 17.240719 2.08775 18.336516 1.71875 19.478516 C 1.48475 20.203516 1.4577656 20.9845 1.1347656 21.6875 C 0.61676563 23.6825 0.43820313 25.701906 0.65820312 27.753906 C 0.81220312 29.186906 1.0855469 30.594234 1.4355469 31.990234 C 1.6425469 32.813234 1.8778594 33.632656 2.0058594 34.472656 C 2.0848594 34.991656 2.1161875 35.50825 2.1171875 36.03125 C 2.1181875 36.32825 2.1625 36.624406 2.4375 36.816406 C 2.5695 36.906406 2.673625 37.019438 2.765625 37.148438 C 2.988625 37.463438 3.1656406 37.806969 3.3066406 38.167969 C 3.7816406 39.383969 4.2723281 40.591766 4.8613281 41.759766 C 5.4863281 42.999766 6.2898906 44.100391 7.3378906 45.025391 C 8.0768906 45.676391 8.8227969 46.319547 9.5917969 46.935547 C 10.154797 47.386547 10.755406 47.788187 11.316406 48.242188 C 12.087406 48.863187 12.744891 49.597719 13.337891 50.386719 C 13.843891 51.059719 14.478 51.560391 15.25 51.900391 C 16.913 52.634391 18.570375 53.381234 20.234375 54.115234 C 21.224375 54.551234 22.238906 54.926734 23.253906 55.302734 C 23.648906 55.448734 24.050562 55.613062 24.351562 55.914062 C 24.565562 56.128062 24.807844 56.242688 25.089844 56.304688 C 25.646844 56.426687 26.211391 56.431859 26.775391 56.380859 C 27.387391 56.329859 27.978672 56.202187 28.513672 55.867188 C 28.825672 55.672187 29.182734 55.568781 29.552734 55.550781 C 29.971734 55.529781 30.385063 55.472187 30.789062 55.367188 C 31.694063 55.133187 32.60325 54.908109 33.53125 54.787109 C 34.41425 54.671109 35.270797 54.462094 36.091797 54.121094 C 38.129797 53.277094 40.1165 52.324109 42.0625 51.287109 C 43.0715 50.747109 44.065516 50.178219 44.853516 49.324219 C 44.942516 49.227219 45.049687 49.140469 45.179688 49.105469 C 45.290687 49.074469 45.383656 49.020172 45.472656 48.951172 C 45.827656 48.678172 46.145891 48.362828 46.462891 48.048828 C 48.003891 46.508828 49.344578 44.800594 50.642578 43.058594 C 51.359578 42.096594 51.987016 41.082078 52.416016 39.955078 C 52.686016 39.250078 53.015563 38.571484 53.351562 37.896484 C 53.584563 37.429484 53.799219 36.952125 53.949219 36.453125 C 54.237219 35.499125 54.519016 34.544937 54.791016 33.585938 C 54.998016 32.855938 55.189516 32.118469 55.228516 31.355469 C 55.251516 30.905469 55.317469 30.464828 55.480469 30.048828 C 55.745469 29.380828 55.833313 28.6925 55.820312 28.0625 C 55.822313 27.1885 55.724844 26.404 55.589844 25.625 C 55.288844 23.906 54.813984 22.233609 54.208984 20.599609 C 52.973984 17.259609 51.309859 14.128453 49.505859 11.064453 C 49.187859 10.522453 48.773344 10.0735 48.277344 9.6875 C 47.750344 9.2745 47.206297 8.883 46.654297 8.5 C 45.965297 8.022 45.294109 7.52375 44.662109 6.96875 C 43.766109 6.18075 42.773641 5.5320625 41.681641 5.0390625 C 40.895641 4.6860625 40.1635 4.24125 39.4375 3.78125 C 38.1705 2.98225 36.860516 2.2813437 35.353516 2.0273438 C 34.783516 1.9313437 34.262188 1.6707344 33.742188 1.4277344 C 32.192188 0.70673437 30.570562 0.30315625 28.851562 0.28515625 z M 27.257812 3.1210938 C 27.583313 3.1175312 27.909828 3.1239687 28.236328 3.1367188 C 29.168328 3.1737187 30.090906 3.2754688 31.003906 3.4804688 C 31.667906 3.6304687 32.287437 3.8886406 32.898438 4.1816406 C 33.992438 4.7056406 35.131984 5.1381719 36.208984 5.7011719 C 36.795984 6.0081719 37.316484 6.415375 37.896484 6.734375 C 39.704484 7.726375 41.3355 8.9689063 42.9375 10.253906 C 43.3815 10.609906 43.801266 10.994281 44.322266 11.238281 C 44.780266 11.451281 45.158141 11.759047 45.494141 12.123047 C 45.772141 12.427047 45.995031 12.773953 46.207031 13.126953 C 47.015031 14.476953 47.723859 15.874469 48.255859 17.355469 C 48.366859 17.662469 48.406328 17.984875 48.486328 18.296875 C 48.577328 18.650875 48.684469 18.998953 48.980469 19.251953 C 49.105469 19.360953 49.1395 19.523641 49.1875 19.681641 C 49.3415 20.195641 49.557813 20.686594 49.757812 21.183594 C 50.118813 22.084594 50.526703 22.969672 50.845703 23.888672 C 51.095703 24.611672 51.151656 25.350469 51.097656 26.105469 C 51.007656 27.373469 50.900484 28.639297 50.771484 29.904297 C 50.635484 31.243297 50.508266 32.583484 50.197266 33.896484 C 50.083266 34.381484 49.910203 34.841344 49.658203 35.277344 C 49.348203 35.819344 49.157219 36.416953 48.949219 37.001953 C 48.699219 37.707953 48.383531 38.382156 48.019531 39.035156 C 48.148531 39.010156 48.277203 38.980469 48.408203 38.980469 C 48.827203 38.980469 49.244703 39.113047 49.595703 39.373047 C 50.254703 39.860047 50.550797 40.698234 50.341797 41.490234 C 48.807797 47.313234 43.308406 49.380859 39.066406 49.380859 C 38.688406 49.380859 38.322891 49.360125 37.962891 49.328125 C 37.188891 49.759125 36.382297 50.132063 35.529297 50.414062 C 34.444297 50.774062 33.328547 50.942219 32.185547 50.949219 C 31.620547 50.951219 31.056234 50.949219 30.490234 50.949219 C 29.522234 50.961219 28.556797 50.953672 27.591797 50.888672 C 27.408797 50.876672 27.227875 50.851125 27.046875 50.828125 C 27.006875 50.823125 26.959688 50.819875 26.929688 50.796875 C 26.579688 50.537875 26.158953 50.502922 25.751953 50.419922 C 24.207953 50.109922 22.677672 49.726531 21.138672 49.394531 C 20.143672 49.178531 19.254969 48.759938 18.417969 48.210938 C 17.399969 47.543937 16.344047 46.951828 15.248047 46.423828 C 14.923047 46.267828 14.608594 46.089625 14.308594 45.890625 C 14.014594 45.696625 13.747453 45.484016 13.564453 45.166016 C 13.390453 44.865016 13.126656 44.630734 12.847656 44.427734 C 12.210656 43.963734 11.702 43.377141 11.25 42.744141 C 10.582 41.807141 9.8437969 40.934641 8.9667969 40.181641 C 8.4417969 39.731641 8.0736719 39.176813 7.8886719 38.507812 C 7.8006719 38.189813 7.6907344 37.879078 7.5527344 37.580078 C 7.4467344 37.350078 7.3345781 37.126266 7.1425781 36.947266 C 7.0185781 36.832266 6.9311562 36.680766 6.9101562 36.509766 C 6.8561562 36.047766 6.7078281 35.612641 6.5488281 35.181641 C 6.0888281 33.933641 5.7877188 32.643656 5.5117188 31.347656 C 5.2717188 30.217656 5.0693594 29.083547 4.9433594 27.935547 C 4.8543594 27.124547 4.8851406 26.317719 4.9941406 25.511719 C 5.2171406 23.868719 5.5687031 22.255641 6.0957031 20.681641 C 6.2737031 20.148641 6.4722344 19.623953 6.7402344 19.126953 C 6.7572344 19.095953 6.7827813 19.067109 6.8007812 19.037109 C 6.8257813 18.851109 6.8478125 18.665516 6.8828125 18.478516 C 7.3018125 16.209516 8.3743906 14.127187 9.9003906 12.617188 C 10.605391 11.919187 11.406672 11.363219 12.263672 10.949219 C 12.268672 10.942219 12.273297 10.936687 12.279297 10.929688 C 13.066297 9.9456875 13.905172 9.0075312 14.826172 8.1445312 C 14.989172 7.9915312 15.159891 7.8469375 15.337891 7.7109375 C 15.631891 7.4869375 15.956125 7.3544531 16.328125 7.3144531 C 16.793125 7.2654531 17.205313 7.0901094 17.570312 6.7871094 C 18.512313 6.0051094 19.561297 5.3849375 20.654297 4.8359375 C 21.837297 4.2429375 23.055563 3.7364062 24.351562 3.4414062 C 25.310063 3.2231563 26.281312 3.1317812 27.257812 3.1210938 z M 26.664062 10.597656 C 26.607063 10.598656 26.552094 10.599563 26.496094 10.601562 C 26.238094 10.611563 25.982516 10.634781 25.728516 10.675781 C 24.011516 10.957781 22.396906 11.899406 21.128906 13.191406 C 19.604906 12.661406 18.038828 12.298438 16.423828 12.148438 C 16.232828 12.130437 16.043469 12.120141 15.855469 12.119141 C 15.793469 12.118141 15.730922 12.120094 15.669922 12.121094 C 13.940922 12.165094 12.435641 12.919109 11.306641 14.037109 C 10.016641 15.314109 9.17875 17.048703 8.84375 18.845703 C 8.50875 20.642703 8.6745313 22.520312 9.5195312 24.070312 C 10.364531 25.621312 11.936859 26.798359 14.130859 27.068359 C 17.188859 27.445359 19.979141 27.549219 22.744141 27.449219 L 22.78125 27.482422 L 22.8125 27.447266 C 25.1225 27.361266 27.416844 27.133781 29.839844 26.800781 C 29.772844 27.432781 29.853562 28.036313 30.101562 28.570312 C 32.021563 29.867313 34.070656 30.183906 36.472656 29.503906 C 36.775656 29.341906 37.074234 29.156266 37.365234 28.947266 C 38.279234 28.292266 39.000187 27.500969 39.492188 26.667969 C 38.653188 24.967969 38.383453 23.206609 38.689453 21.474609 C 38.114453 21.162609 37.423828 21.010531 36.673828 21.019531 C 36.613828 21.020531 36.555141 21.024344 36.494141 21.027344 C 35.116141 18.342344 33.529859 15.774797 31.505859 13.091797 C 30.188859 11.345797 28.412063 10.585656 26.664062 10.597656 z M 26.847656 12.136719 C 28.084656 12.150719 29.249625 12.678437 30.265625 14.023438 C 32.132625 16.498438 33.604531 18.855406 34.894531 21.316406 C 34.665531 21.388406 34.435078 21.471313 34.205078 21.570312 C 30.510078 18.401313 26.753375 15.552359 22.734375 13.818359 C 23.711375 12.980359 24.859469 12.391031 25.980469 12.207031 C 26.271469 12.159031 26.562656 12.133719 26.847656 12.136719 z M 40.550781 13.595703 L 39.998047 15.046875 C 42.561047 16.016875 44.353469 18.103859 45.355469 20.630859 C 43.050469 17.896859 39.839859 15.982844 36.255859 15.964844 L 36.248047 17.519531 C 38.502047 17.530531 40.648172 18.458453 42.451172 19.939453 C 41.597172 20.381453 40.846172 20.999734 40.201172 21.802734 C 39.935172 23.306734 40.207453 24.781031 41.064453 26.332031 C 42.830453 28.131031 44.912484 29.119078 47.396484 29.080078 C 47.904484 27.545078 48.010844 26.249047 47.839844 25.123047 C 47.653844 20.254047 45.269781 15.381703 40.550781 13.595703 z M 16.318359 13.695312 C 22.113359 14.248312 27.430766 17.868859 32.759766 22.380859 C 32.737766 22.397859 32.714406 22.411734 32.691406 22.427734 C 32.587406 22.502734 32.487672 22.580203 32.388672 22.658203 L 16.523438 17.076172 L 16.318359 13.695312 z M 14.769531 13.785156 L 15.230469 21.355469 L 10.322266 19.417969 C 10.336266 19.321969 10.352141 19.226859 10.369141 19.130859 C 10.651141 17.620859 11.373437 16.154625 12.398438 15.140625 C 13.073438 14.472625 13.861531 13.993156 14.769531 13.785156 z M 16.626953 18.755859 L 25.732422 21.960938 L 22.109375 25.917969 C 21.399375 25.935969 20.68875 25.938734 19.96875 25.927734 L 16.841797 22.279297 L 16.626953 18.755859 z M 10.255859 21.060547 L 15.542969 23.146484 L 17.859375 25.851562 C 16.714375 25.785563 15.541266 25.675391 14.322266 25.525391 C 12.557266 25.308391 11.509859 24.482125 10.880859 23.328125 C 10.521859 22.668125 10.316859 21.889547 10.255859 21.060547 z M 43.267578 21.458984 C 43.298578 21.456984 43.329328 21.458984 43.361328 21.458984 C 44.364328 21.458984 45.177734 22.272391 45.177734 23.275391 C 45.177734 24.279391 44.364328 25.091797 43.361328 25.091797 C 42.357328 25.091797 41.544922 24.279391 41.544922 23.275391 C 41.543922 22.304391 42.307578 21.507984 43.267578 21.458984 z M 27.248047 22.494141 L 31.154297 23.867188 C 30.816297 24.284188 30.538219 24.721109 30.324219 25.162109 C 28.231219 25.465109 26.258641 25.690359 24.306641 25.818359 L 27.304688 22.544922 L 27.248047 22.494141 z M 28.826172 29.566406 C 26.997172 29.874406 25.488344 30.798453 24.402344 32.064453 C 25.560344 33.402453 26.969734 34.262125 28.677734 34.703125 C 30.707734 35.226125 33.188141 35.133906 36.119141 34.378906 C 36.025141 33.255906 35.607438 32.234906 34.398438 31.378906 C 32.391437 31.424906 30.504172 30.811406 28.826172 29.566406 z M 23.496094 33.371094 C 22.741094 34.733094 22.386672 36.315484 22.513672 37.896484 C 25.166672 39.913484 27.589063 40.854406 29.789062 40.816406 C 31.934062 40.779406 33.941391 39.839891 35.900391 37.837891 C 35.952391 37.205891 36.034844 36.585422 36.089844 35.982422 C 33.152844 36.690422 30.547109 36.787078 28.287109 36.205078 C 26.423109 35.724078 24.808094 34.768094 23.496094 33.371094 z M 35.917969 39.929688 C 34.034969 41.494687 31.981453 42.330188 29.814453 42.367188 C 27.619453 42.405187 25.360875 41.642063 23.046875 40.164062 C 23.944875 42.392063 25.960469 44.380828 29.355469 45.423828 C 31.186469 45.728828 32.710016 45.674687 33.916016 45.304688 C 35.316016 44.873688 36.323875 44.049125 37.046875 42.703125 C 36.356875 41.791125 36.038969 40.859687 35.917969 39.929688 z M 48.40625 40.980469 C 48.167344 41.128755 47.874715 41.275939 47.548828 41.416016 C 47.46182 41.453544 47.357595 41.486843 47.265625 41.523438 C 47.012277 41.623839 46.753893 41.723389 46.470703 41.814453 C 44.30962 42.511806 41.425629 42.897924 40.15625 42.275391 C 39.78125 43.866391 38.906031 44.079922 38.207031 43.794922 C 37.473031 44.996922 36.458656 45.900844 35.222656 46.464844 C 36.269733 47.213355 38.43698 47.579794 40.734375 47.251953 C 40.733166 47.25335 40.731669 47.254452 40.730469 47.255859 C 40.747275 47.253467 40.76443 47.248561 40.78125 47.246094 C 41.132824 47.194489 41.485988 47.124821 41.839844 47.039062 C 41.877585 47.029937 41.915403 47.025153 41.953125 47.015625 C 42.726534 46.819842 43.491869 46.536447 44.21875 46.158203 C 44.298627 46.116709 44.374305 46.067299 44.453125 46.023438 C 44.715503 45.877204 44.972388 45.722089 45.220703 45.548828 C 45.451745 45.387892 45.678676 45.222463 45.894531 45.037109 C 45.927635 45.008658 45.95948 44.978257 45.992188 44.949219 C 46.224135 44.743473 46.444433 44.521176 46.654297 44.285156 C 46.687191 44.248143 46.721608 44.213555 46.753906 44.175781 C 46.969611 43.923642 47.168802 43.650229 47.355469 43.363281 C 47.390103 43.310011 47.425438 43.257621 47.458984 43.203125 C 47.638511 42.911683 47.801362 42.604788 47.947266 42.277344 C 47.975957 42.212964 48.002003 42.145879 48.029297 42.080078 C 48.17373 41.731926 48.303737 41.369456 48.40625 40.980469 z "
   transform="translate(-7.087,-7.087)"
   id="path2" />

</svg>