<?xml version="1.0" encoding="utf-8"?>
<!-- Generator: Adobe Illustrator 16.0.0, SVG Export Plug-In . SVG Version: 6.00 Build 0)  -->
<!DOCTYPE svg PUBLIC "-//W3C//DTD SVG 1.1//EN" "http://www.w3.org/Graphics/SVG/1.1/DTD/svg11.dtd">
<svg version="1.1" id="Layer_1" xmlns="http://www.w3.org/2000/svg" xmlns:xlink="http://www.w3.org/1999/xlink" x="0px" y="0px"
	 width="56.693px" height="56.693px" viewBox="-7.087 -7.087 56.693 56.693" enable-background="new -7.087 -7.087 56.693 56.693"
	 xml:space="preserve">
<path fill="#BD0926" d="M21.26,6.439c-2.371,4.977-4.533,10.773-4.643,14.22c0.673,0.739,1.288,1.681,1.77,2.645
	c0.538,1.076,0.927,2.118,0.927,3.049v0.595l-0.577,0.145c-5.503,1.375-9.76,1.386-13.967-0.017l-0.521-0.174v-0.549
	c0-1.264-0.117-3.862,1.259-5.596c-0.1-0.187-0.222-0.359-0.364-0.516c-0.348-0.384-0.864-0.825-1.422-1.225
	c-0.559-0.399-1.164-0.761-1.686-1.013c-0.108-0.052-0.191-0.073-0.292-0.114c0.079,2.214,0.392,5.881,0.971,9.353
	c0.23,1.382,0.502,2.718,0.807,3.895c12.591,1.201,22.884,1.201,35.476,0c0.305-1.177,0.576-2.513,0.807-3.895
	c0.578-3.471,0.893-7.139,0.971-9.353c-0.101,0.041-0.184,0.062-0.291,0.114c-0.522,0.252-1.127,0.613-1.687,1.013
	c-0.559,0.399-1.075,0.841-1.423,1.225c-0.139,0.153-0.259,0.323-0.358,0.506c1.446,1.743,1.254,4.373,1.254,5.605v0.549
	l-0.521,0.174c-4.207,1.402-8.463,1.392-13.967,0.017l-0.577-0.145v-0.595c0-0.931,0.389-1.973,0.927-3.049
	c0.482-0.964,1.098-1.905,1.77-2.645C25.793,17.212,23.631,11.415,21.26,6.439L21.26,6.439z M21.26,9.093l3.533,10.599L21.26,24.99
	l-3.533-5.299l2.824-8.472L21.26,9.093z M21.26,13.821l-1.884,5.65l0.633,0.949c0.423-2.026,1.027-3.955,1.905-4.639L21.26,13.821z
	 M3.974,32.68c0.457,1.347,1.05,2.217,1.321,2.415c10.644,1.315,21.285,1.315,31.93,0c0.271-0.198,0.864-1.068,1.32-2.415
	C26.343,33.813,16.177,33.813,3.974,32.68z"/>
<path fill-rule="evenodd" clip-rule="evenodd" fill="#BD0926" d="M48.503,18.538c-0.301-1.719-0.776-3.392-1.381-5.026
	c-1.235-3.34-2.9-6.471-4.704-9.535C42.1,3.435,41.686,2.987,41.19,2.601c-0.527-0.413-1.07-0.805-1.622-1.188
	c-0.689-0.478-1.36-0.977-1.992-1.532c-0.896-0.788-1.89-1.436-2.982-1.929c-0.786-0.353-1.517-0.797-2.243-1.257
	c-1.267-0.799-2.578-1.5-4.085-1.754c-0.57-0.096-1.09-0.358-1.61-0.601c-1.55-0.721-3.172-1.123-4.891-1.141
	c-1.269-0.014-2.535,0.021-3.8,0.103c-0.799,0.052-1.565,0.219-2.289,0.579c-0.564,0.281-1.16,0.493-1.772,0.649
	c-0.814,0.208-1.606,0.477-2.38,0.802c-1.056,0.443-2.09,0.923-2.988,1.653C8.2-2.742,7.821-2.553,7.364-2.512
	C6.712-2.454,6.162-2.129,5.645-1.749c-0.264,0.193-0.477,0.441-0.72,0.655c-0.203,0.179-0.412,0.355-0.681,0.42
	c-0.137,0.034-0.262,0.082-0.375,0.16c-1.19,0.806-2.216,1.777-3.015,2.977C0.299,3.295-0.148,4.188-0.657,5.047
	C-0.827,5.335-1.001,5.62-1.216,5.879c-0.172,0.207-0.376,0.349-0.655,0.374c-0.261,0.024-0.453,0.166-0.59,0.385
	c-0.114,0.181-0.203,0.375-0.283,0.571c-0.283,0.696-0.631,1.348-1.073,1.965c-0.699,0.979-1.182,2.076-1.551,3.218
	c-0.234,0.725-0.261,1.506-0.584,2.209c-0.518,1.995-0.696,4.014-0.476,6.066c0.154,1.433,0.426,2.841,0.776,4.237
	c0.207,0.823,0.443,1.642,0.571,2.482c0.079,0.519,0.11,1.036,0.111,1.559c0.001,0.297,0.045,0.592,0.32,0.784
	c0.132,0.09,0.237,0.204,0.329,0.333c0.223,0.315,0.399,0.657,0.54,1.018c0.475,1.216,0.967,2.425,1.556,3.593
	c0.625,1.24,1.427,2.34,2.475,3.265c0.739,0.651,1.485,1.294,2.254,1.91c0.563,0.451,1.164,0.854,1.725,1.308
	c0.771,0.621,1.428,1.355,2.021,2.144c0.506,0.673,1.141,1.174,1.913,1.514c1.663,0.734,3.321,1.48,4.985,2.214
	c0.99,0.436,2.004,0.812,3.019,1.188c0.395,0.146,0.796,0.311,1.097,0.612c0.214,0.214,0.457,0.328,0.739,0.39
	c0.557,0.122,1.122,0.126,1.686,0.075c0.612-0.051,1.202-0.178,1.737-0.513c0.312-0.195,0.67-0.299,1.04-0.317
	c0.419-0.021,0.832-0.078,1.236-0.183c0.905-0.234,1.814-0.458,2.742-0.579c0.883-0.116,1.739-0.326,2.56-0.667
	c2.038-0.844,4.025-1.796,5.971-2.833c1.009-0.54,2.003-1.109,2.791-1.963c0.089-0.097,0.196-0.185,0.326-0.22
	c0.111-0.031,0.204-0.085,0.293-0.154c0.355-0.273,0.673-0.589,0.99-0.903c1.541-1.54,2.882-3.248,4.18-4.99
	c0.717-0.962,1.345-1.975,1.774-3.102c0.27-0.705,0.599-1.385,0.935-2.06c0.233-0.467,0.448-0.944,0.598-1.443
	c0.288-0.954,0.57-1.909,0.842-2.868c0.207-0.73,0.398-1.466,0.437-2.229c0.023-0.45,0.089-0.891,0.252-1.307
	c0.265-0.668,0.354-1.357,0.341-1.987C48.736,20.101,48.638,19.317,48.503,18.538z M44.01,19.018
	c-0.09,1.268-0.196,2.534-0.325,3.799c-0.136,1.339-0.264,2.679-0.575,3.992c-0.114,0.485-0.287,0.945-0.539,1.381
	c-0.31,0.542-0.501,1.139-0.709,1.724c-0.31,0.876-0.697,1.715-1.185,2.508c-0.046,0.075-0.088,0.152-0.131,0.229
	c0,0.01,0.002,0.02,0.002,0.029c0,0.264-0.052,0.516-0.145,0.746c-0.421,1.203-1.154,2.667-1.999,3.284
	c-0.275,0.201-0.597,0.328-0.935,0.37c-0.081,0.01-0.163,0.017-0.244,0.026c-0.555,0.557-1.128,1.096-1.738,1.6
	c-0.225,0.185-0.466,0.342-0.721,0.483c-0.354,0.197-0.676,0.444-0.921,0.765c-0.437,0.574-0.983,1.024-1.571,1.428
	c-1.19,0.815-2.454,1.489-3.832,1.945c-1.085,0.36-2.202,0.528-3.345,0.535c-0.565,0.002-1.129,0-1.695,0
	c-0.968,0.012-1.934,0.003-2.899-0.062c-0.183-0.012-0.364-0.036-0.545-0.059c-0.04-0.005-0.087-0.009-0.117-0.032
	c-0.35-0.259-0.771-0.294-1.178-0.377c-1.544-0.31-3.073-0.693-4.612-1.025c-0.995-0.216-1.884-0.635-2.721-1.184
	c-1.018-0.667-2.074-1.259-3.17-1.787c-0.325-0.156-0.64-0.334-0.94-0.533c-0.294-0.194-0.56-0.407-0.743-0.725
	c-0.174-0.301-0.438-0.536-0.717-0.739c-0.085-0.062-0.151-0.142-0.231-0.207C5.367,37.113,5.208,37.1,5.05,37.08
	c-0.338-0.042-0.661-0.17-0.936-0.371c-0.869-0.636-1.62-2.166-2.034-3.387c-0.003-0.01-0.003-0.021-0.006-0.03
	c-0.07-0.062-0.127-0.136-0.199-0.197c-0.525-0.45-0.892-1.005-1.077-1.674c-0.088-0.318-0.198-0.628-0.336-0.927
	c-0.106-0.23-0.219-0.455-0.411-0.634c-0.124-0.115-0.21-0.266-0.231-0.437c-0.054-0.462-0.204-0.897-0.363-1.328
	c-0.46-1.248-0.761-2.538-1.037-3.834c-0.24-1.13-0.441-2.265-0.567-3.413c-0.089-0.811-0.059-1.617,0.05-2.423
	c0.223-1.643,0.574-3.257,1.101-4.831c0.178-0.533,0.378-1.058,0.646-1.555c0.077-0.143,0.163-0.281,0.268-0.405
	c0.315-0.375,0.562-0.793,0.763-1.238c0.113-0.249,0.229-0.496,0.397-0.715C1.168,9.564,1.267,9.46,1.401,9.386
	C1.524,9.32,1.602,9.203,1.686,9.094c0.198-0.258,0.373-0.532,0.521-0.821c0.815-1.598,1.87-3.036,2.986-4.432
	c0.787-0.984,1.625-1.922,2.546-2.785c0.163-0.153,0.333-0.298,0.511-0.434c0.294-0.224,0.62-0.355,0.992-0.395
	c0.465-0.049,0.877-0.224,1.242-0.527c0.942-0.782,1.99-1.404,3.083-1.953c1.183-0.593,2.402-1.098,3.698-1.393
	c1.278-0.291,2.578-0.357,3.884-0.306c0.932,0.037,1.855,0.139,2.768,0.344c0.664,0.15,1.284,0.409,1.895,0.702
	c1.094,0.524,2.233,0.956,3.31,1.519c0.587,0.307,1.108,0.715,1.688,1.034c1.808,0.992,3.439,2.233,5.041,3.518
	c0.444,0.356,0.864,0.742,1.385,0.986c0.458,0.213,0.836,0.52,1.172,0.884c0.278,0.304,0.5,0.65,0.712,1.003
	c0.808,1.35,1.516,2.748,2.048,4.229c0.111,0.307,0.151,0.63,0.231,0.942c0.091,0.354,0.198,0.702,0.494,0.955
	c0.125,0.109,0.159,0.272,0.207,0.43c0.154,0.514,0.371,1.005,0.571,1.502c0.361,0.901,0.768,1.785,1.087,2.704
	C44.008,17.524,44.064,18.263,44.01,19.018z"/>
</svg>
