<?xml version="1.0" encoding="UTF-8" standalone="no"?>
<!-- Generator: Adobe Illustrator 16.0.0, SVG Export Plug-In . SVG Version: 6.00 Build 0)  -->

<svg
   xmlns:dc="http://purl.org/dc/elements/1.1/"
   xmlns:cc="http://creativecommons.org/ns#"
   xmlns:rdf="http://www.w3.org/1999/02/22-rdf-syntax-ns#"
   xmlns:svg="http://www.w3.org/2000/svg"
   xmlns="http://www.w3.org/2000/svg"
   xmlns:xlink="http://www.w3.org/1999/xlink"
   xmlns:sodipodi="http://sodipodi.sourceforge.net/DTD/sodipodi-0.dtd"
   xmlns:inkscape="http://www.inkscape.org/namespaces/inkscape"
   version="1.1"
   id="Layer_1"
   x="0px"
   y="0px"
   width="510.0004"
   height="382.74112"
   viewBox="-7.087 -7.087 510.00041 382.74111"
   enable-background="new -7.087 -7.087 56.693 56.693"
   xml:space="preserve"
   sodipodi:docname="frames.svg"
   inkscape:version="0.92.0 r15299"><metadata
   id="metadata33"><rdf:RDF><cc:Work
       rdf:about=""><dc:format>image/svg+xml</dc:format><dc:type
         rdf:resource="http://purl.org/dc/dcmitype/StillImage" /><dc:title></dc:title></cc:Work></rdf:RDF></metadata><defs
   id="defs31">
		
		
		
		
		
		
		
		
	
	
	

		
	<linearGradient
   gradientUnits="userSpaceOnUse"
   gradientTransform="matrix(0.55209835,0,0,1.8112715,662.09054,-168.5294)"
   id="linearGradient2648"
   x1="-466.66632"
   x2="-376.56265"
   xlink:href="#linearGradient3433"
   y1="-313.40421"
   y2="-322.96063" /><linearGradient
   id="linearGradient3433"><stop
     id="stop3434"
     offset="0"
     stop-color="#6c2f07" /><stop
     id="stop3435"
     offset="1"
     stop-color="#7e4932" /></linearGradient><linearGradient
   gradientUnits="userSpaceOnUse"
   gradientTransform="matrix(1.0339065,0,0,0.96720543,662.09054,-168.5294)"
   id="linearGradient2644"
   spreadMethod="pad"
   x1="-418.90756"
   x2="-418.90756"
   xlink:href="#linearGradient2186"
   y1="-938.97131"
   y2="1093.1052" /><linearGradient
   id="linearGradient2186"><stop
     id="stop2187"
     offset="0"
     stop-color="#004e00" /><stop
     id="stop2188"
     offset="1"
     stop-color="#009300" /></linearGradient><linearGradient
   gradientUnits="userSpaceOnUse"
   gradientTransform="matrix(-0.28519397,0.12188028,0.40344705,0.94404669,2094.8076,-368.35458)"
   id="linearGradient2641"
   x1="3176.5178"
   x2="3085.9951"
   xlink:href="#linearGradient3433"
   y1="-312.25888"
   y2="-321.77554" /><linearGradient
   gradientUnits="userSpaceOnUse"
   gradientTransform="matrix(1.0339065,0,0,0.96720544,662.09054,-168.5294)"
   id="linearGradient2637"
   spreadMethod="pad"
   x1="1858.2909"
   x2="1858.2909"
   xlink:href="#linearGradient2186"
   y1="-938.97131"
   y2="1093.1052" /><linearGradient
   gradientUnits="userSpaceOnUse"
   gradientTransform="matrix(2.9873966,0,0,0.33473962,662.09054,-168.5294)"
   id="linearGradient2634"
   x1="166.38251"
   x2="447.00623"
   xlink:href="#linearGradient2872"
   y1="2958.4705"
   y2="2665.2551" /><linearGradient
   id="linearGradient2872"><stop
     id="stop2874"
     offset="0"
     stop-color="#dec164" /><stop
     id="stop2876"
     offset="1"
     stop-opacity="0"
     stop-color="#dec164" /></linearGradient></defs><sodipodi:namedview
   pagecolor="#ffffff"
   bordercolor="#666666"
   borderopacity="1"
   objecttolerance="10"
   gridtolerance="10"
   guidetolerance="10"
   inkscape:pageopacity="0"
   inkscape:pageshadow="2"
   inkscape:window-width="1280"
   inkscape:window-height="961"
   id="namedview29"
   showgrid="false"
   inkscape:zoom="1.4717619"
   inkscape:cx="211.52384"
   inkscape:cy="260.85947"
   inkscape:window-x="1272"
   inkscape:window-y="-8"
   inkscape:window-maximized="1"
   inkscape:current-layer="Layer_1"
   fit-margin-top="5"
   fit-margin-left="5"
   fit-margin-right="5"
   fit-margin-bottom="5" />


<path
   style="display:inline;fill:#aad4ff;fill-opacity:1;stroke:#000000;stroke-width:0.58065748;stroke-miterlimit:4;stroke-dasharray:none;stroke-opacity:1"
   d="m 476.62128,0.95672296 c -0.52677,0.0173 -0.92888,0.19564004 -0.94412,0.44740004 l -0.17466,2.8601999 -9.25083,5.9636401 -2.77287,-0.0437 -9.20717,-5.9897301 -0.0958,-2.1014799 c -0.0174,-0.28773 -0.53168,-0.47945 -1.16814,-0.44457 l -0.4712,0.0261 c -0.63652,0.0349 -1.13341,0.27876 -1.11597,0.56649 l 0.008,0.0873 -0.38335,-0.24383 c -0.23539,-0.15694 -0.68892,0.15653 -1.03769,0.6884 l -0.2529,0.40147 c -0.34878,0.53186 -0.46186,1.0809199 -0.21775,1.2378599 l 2.07483,1.34277 0.59312,11.3784001 -2.71162,-1.56052 -0.33173,-6.3827 c -0.009,-0.12207 -0.52305,-0.18287 -1.15957,-0.148 l -0.47916,0.0261 c -0.63649,0.0349 -1.14227,0.14841 -1.13353,0.27048 l 0.23531,4.58629 -1.76975,-1.02012 -0.48822,-9.46064 c -0.009,-0.1831 -0.5322,-0.29628 -1.16869,-0.26141 l -0.47971,0.0261 c -0.63646,0.0349 -1.14166,0.20079 -1.13298,0.38389 l 0.40092,7.66366 -3.00819,-1.73461 -0.22683,-4.3946201 c -0.009,-0.0872 -0.52312,-0.1222 -1.1596,-0.0873 l -0.47916,0.0261 c -0.63652,0.0349 -1.14262,0.12205 -1.14262,0.20924 l 0.131,2.5982101 -2.24947,-1.2991 -0.52793,-0.26482 -435.1199213,0.0108 V 370.36378 H 497.58278 V 45.230153 c 0.0128,-0.0194 0.0288,-0.0357 0.0403,-0.0561 v -1.97899 l -2.46782,-1.29911 2.31072,-1.18627 c 0.0784,-0.0349 -0.10469,-0.52312 -0.3924,-1.08986 l -0.21775,-0.42699 c -0.28775,-0.56674 -0.58458,-0.99375 -0.65437,-0.95888 l -3.91491,2.00508 -3.0076,-1.73516 6.83576,-3.49642 c 0.16569,-0.0872 0.0524,-0.60138 -0.23534,-1.16812 l -0.2183,-0.42756 c -0.28775,-0.56674 -0.64523,-0.95874 -0.81089,-0.87155 l -8.43144,4.3158 -1.76975,-1.02012 4.08899,-2.0924 c 0.1046,-0.0523 -0.0434,-0.55794 -0.33115,-1.11596 l -0.21775,-0.42755 c -0.28777,-0.56674 -0.60171,-0.98532 -0.71505,-0.92429 l -5.69375,2.91236 -2.71161,-1.56959 10.34069,-5.29226 1.56107,0.7933 c 0.25288,0.13079 0.68001,-0.22656 0.97646,-0.7933 l 0.21775,-0.42755 c 0.21801,-0.42724 0.29643,-0.85446 0.20924,-1.08987 0.22672,-0.14823 0.18317,-0.68857 -0.0958,-1.23787 l -0.21774,-0.42698 c -0.28775,-0.56674 -0.71488,-0.92466 -0.97644,-0.79387 l -1.66544,0.85454 -10.39342,-5.31835 -1.34277,-2.44171 0.54948,-10.6111701 2.06632,-1.34277 c 0.23543,-0.15695 0.15707,-0.7060099 -0.19167,-1.2378699 l -0.25291,-0.4009 c -0.34877,-0.53187 -0.82836,-0.84591 -1.06376,-0.68897 l -0.37485,0.2444 0.0437,-0.85454 c 0.0174,-0.28773 -0.48854,-0.53217 -1.12502,-0.56705004 l -0.47916,-0.0261 c -0.0796,-0.004 -0.1578,-0.005 -0.23305,-0.003 z m -22.17499,6.66452004 9.04159,5.86782 v 10.17511 l -8.44903,-4.88285 z m 20.88213,0.0783 -0.54948,10.40194 -8.51877,4.89986 v -9.45156 z M 0.96526414,9.071183 H 432.62399 l 2.14289,1.21802 -2.25797,1.15962 c -0.0785,0.0349 0.1046,0.52312 0.39238,1.08986 l 0.21774,0.42699 c 0.28772,0.56674 0.58406,0.99432 0.65382,0.95945 l 3.86274,-1.97957 3.00818,1.73517 -6.77453,3.47034 c -0.16569,0.0872 -0.0524,0.60138 0.23531,1.16812 l 0.21775,0.42755 c 0.28774,0.56674 0.64526,0.95874 0.81089,0.87155 l 8.37926,-4.28972 1.76976,1.02012 -4.03682,2.05782 c -0.1046,0.0523 0.0434,0.55793 0.33118,1.11595 l 0.2183,0.42756 c 0.28777,0.56673 0.60112,0.98475 0.7145,0.92372 l 5.63249,-2.88571 2.71219,1.56052 -9.08586,4.64752 -2.973,-1.52592 c -0.25285,-0.13079 -0.68004,0.22656 -0.97646,0.7933 l -0.21775,0.42755 c -0.28771,0.56674 -0.33164,1.12466 -0.0788,1.25545 l 1.19479,0.61014 -1.08136,0.55798 c -0.25288,0.13078 -0.21766,0.6887 0.0788,1.25544 l 0.21774,0.42756 c 0.28775,0.56674 0.71488,0.92408 0.97644,0.7933 l 2.86873,-1.46469 9.03309,4.62088 -2.71164,1.56108 -5.68522,-2.91236 c -0.10463,-0.0523 -0.41865,0.35755 -0.71505,0.92429 l -0.21775,0.42699 c -0.28771,0.56674 -0.44455,1.06363 -0.33115,1.11595 l 4.08899,2.09297 -1.76975,1.02012 -8.43147,-4.3158 c -0.16569,-0.0872 -0.52311,0.31353 -0.81086,0.87155 l -0.21774,0.42756 c -0.28772,0.56673 -0.40153,1.08965 -0.2359,1.16812 l 6.83576,3.49642 -3.00763,1.73516 -3.91491,-2.00565 c -0.0784,-0.0349 -0.36665,0.3927 -0.65437,0.95945 l -0.21774,0.42699 c -0.28775,0.56674 -0.46215,1.05499 -0.39238,1.08986 l 2.31072,1.1857 -2.24949,1.29911 c -0.54928,0.31389 -0.74107,1.02029 -0.41848,1.56959 l 0.23534,0.41848 c 0.31387,0.5493 1.02024,0.74109 1.56957,0.41848 l 2.28408,-1.31669 -0.13042,2.52847 c 0,0.0872 0.50555,0.17437 1.14204,0.20924 l 0.47916,0.0267 c 0.63651,0.0349 1.15141,-0.009 1.16015,-0.0873 l 0.22625,-4.33338 3.00822,-1.73517 -0.39241,7.60298 c -0.009,0.18311 0.49704,0.34902 1.13353,0.3839 l 0.47974,0.0261 c 0.63643,0.0349 1.15069,-0.0789 1.16811,-0.26198 l 0.48821,-9.39883 1.77034,-1.02011 -0.23534,4.52504 c -0.009,0.12207 0.50523,0.23561 1.13298,0.27048 l 0.47971,0.0261 c 0.63646,0.0349 1.15086,-0.0347 1.15963,-0.148 l 0.33115,-6.32146 2.71161,-1.56108 -0.58405,11.27405 -2.12756,1.37736 c -0.23543,0.15695 -0.13027,0.70657 0.20979,1.23844 l 0.26141,0.4009 c 0.34877,0.53187 0.79321,0.84591 1.02864,0.68896 l 0.44458,-0.28806 -0.008,0.13099 c -0.0174,0.28773 0.48856,0.5316 1.12502,0.56648 l 0.47916,0.0267 c 0.63643,0.0349 1.15969,-0.1574 1.17717,-0.44514 l 0.0873,-2.13607 9.14593,-5.95514 v 3.13011 l -5.31838,3.47884 c -0.0959,0.061 0.12188,0.5495 0.47065,1.08136 l 0.27047,0.4009 c 0.34877,0.53187 0.66259,0.91579 0.76722,0.84604 l 3.81001,-2.49388 v 2.04024 l -7.90806,5.15334 c -0.15695,0.0959 0.0261,0.61017 0.37482,1.14203 l 0.27047,0.40091 c 0.34874,0.53185 0.70634,0.88942 0.85455,0.78479 l 6.39972,-4.17631 v 3.47033 l -3.66201,2.38898 c -0.0698,0.0436 0.17461,0.51434 0.52338,1.0462 l 0.26992,0.40091 c 0.34874,0.53186 0.64534,0.93294 0.71505,0.88062 l 2.14515,-1.41252 v 2.59822 c 0,0.63649 0.60139,1.18627 1.23785,1.18627 h 0.47974 c 0.63648,0 1.06379,-0.54978 1.06379,-1.18627 v -2.65889 l 2.17064,1.37736 c 0.0697,0.0436 0.42754,-0.34876 0.77628,-0.88063 l 0.2705,-0.4009 c 0.34877,-0.53186 0.5313,-1.0026 0.46157,-1.0462 l -3.67899,-2.35439 v -3.47882 l 6.43429,4.14172 c 0.15693,0.0959 0.57576,-0.25293 0.91579,-0.78479 l 0.27047,-0.40147 c 0.34877,-0.53187 0.47053,-1.0374 0.31358,-1.14204 l -7.93413,-5.11818 v -2.04024 l 3.84514,2.4678 c 0.0959,0.061 0.47916,-0.31418 0.8279,-0.84604 l 0.27047,-0.4009 c 0.34881,-0.53187 0.5059,-1.01161 0.40998,-1.08136 l -5.35349,-3.44369 v -3.1301 l 9.18957,5.92849 0.16558,2.89478 c 0.0174,0.28773 0.54944,0.48001 1.17719,0.44513 l 0.47971,-0.0267 c 0.63649,-0.0349 1.13318,-0.27875 1.12447,-0.56648 l -0.0431,-0.88914 0.44455,0.2875 c 0.23537,0.15694 0.7147,-0.1571 1.05471,-0.68897 l 0.2529,-0.4009 c 0.34877,-0.53186 0.43613,-1.08092 0.20074,-1.23787 l -2.12756,-1.37792 -0.54948,-10.51535 2.71164,1.56109 0.3317,6.32088 c 0.009,0.12207 0.52315,0.18345 1.15963,0.14857 l 0.47916,-0.0261 c 0.63652,-0.0349 1.14224,-0.14841 1.13353,-0.27048 l -0.23534,-4.52505 1.77034,1.02012 0.48822,9.39883 c 0.009,0.1831 0.53156,0.29685 1.16811,0.26197 l 0.47974,-0.0261 c 0.63648,-0.0349 1.14227,-0.20079 1.13353,-0.38389 l -0.39241,-7.60299 3.00821,1.73517 0.22625,4.33339 c 0.009,0.0872 0.52312,0.1222 1.15961,0.0873 l 0.47971,-0.0266 c 0.63648,-0.0349 1.14203,-0.12205 1.14203,-0.20924 l -0.13041,-2.53697 1.06945,0.61581 V 367.60228 H 0.96526414 Z m 475.18251586,11.47139 10.21028,5.22308 -10.1581,5.20494 -9.0677,-5.23159 z m -22.4256,0.67989 7.84739,4.52562 -7.90807,4.5602 -8.84141,-4.53412 z m 9.7657,6.59194 v 10.07928 l -8.97185,5.84173 0.56649,-11.06424 z m 2.77229,0.65381 8.47511,4.87378 0.52337,10.3061 -8.99848,-5.81565 z"
   id="path2"
   inkscape:connector-curvature="0"
   sodipodi:nodetypes="ccccccccccccccccccccccccccccccccccccccccccccccccccccccccccccccccccccccccccccccccccsccccccccccccccccccccccccccccccccccccccccccccccccccccccccccccccccccccccccccccccccccccccccccccccccccccccccccccccccccsssscccccccccccccccccccccccccccccccccccccccccccccccccccccccccccccccccccccccccc" /><path
   style="display:inline;fill:#2cd41a;fill-opacity:1;stroke:#000000;stroke-width:0.58065748;stroke-miterlimit:4;stroke-dasharray:none;stroke-opacity:1"
   d="m 458.55229,-1.795157 c -0.17329,0.006 -0.39348,0.0291 -0.66743,0.0731 -1.24723,0.0547 -2.62214,-0.31135 -3.57412,0.71845 -2.73658,1.89920996 -5.66577,3.62829 -8.2834,5.6324899 -0.27883,0.56256 -0.58034,1.11778 -0.85795,1.6807301 L -1.7962613,6.320413 V 370.36378 H 497.58278 v -266.4861 -0.5585 -7.986897 c -7.21803,-2.83651 -14.59886,-9.01946 -16.8073,-12.90603 -1.43121,-2.5187 -4.59773,-6.06002 -7.89331,-16.95587 -3.29558,-10.89584 -3.72701,-15.98316 -5.01895,-25.0023 -0.61694,-4.30703 -0.67521,-7.0128 -0.56988,-8.67981 2.78567,-0.39343 3.57731,4.43595 5.85816,3.65123 1.11211,-0.3707 2.22444,-0.7413 3.33649,-1.11198 l 0.55572,0.31924 c -0.98416,0.98417 -1.96846,1.96853 -2.95261,2.95262 0.0491,0.0555 0.0964,0.11637 0.14287,0.17976 -0.0247,0.0244 -0.0493,0.0487 -0.0737,0.0732 0.70178,0.79404 1.09251,2.52262 2.37878,1.56335 1.00332,-0.33445 2.00655,-0.66866 3.0099,-1.00311 -0.88649,1.15242 -1.77301,2.30489 -2.65947,3.45729 0.0388,0.064 0.0774,0.12825 0.11625,0.19223 -0.0157,0.0204 -0.0314,0.0409 -0.0471,0.0612 0.83452,1.37453 1.66896,2.74906 2.50354,4.12358 0.88817,-0.30895 1.77632,-0.61817 2.66455,-0.92712 -0.78212,0.54788 -1.6698,1.04857 -2.12814,1.74197 -0.033,0.39489 0.005,0.70578 0.0987,0.94584 0.41479,2.10423 4.08272,0.15631 5.09547,-1.15565 0.0666,0.95182 -1.39204,1.48103 -1.87067,2.2818 -0.79817,0.84861 -1.65551,1.63056 -2.6039,2.30902 -0.0747,0.48357 -0.0516,0.83175 0.0488,1.07343 0.13649,0.84642 0.8961,0.83155 1.96994,0.38332 0.53618,-0.24499 0.90652,-0.39062 1.11309,-0.43322 -0.13851,0.1665 -0.39278,0.41074 -0.77401,0.74283 -0.82033,0.85846 -1.94654,1.55897 -1.83384,2.89762 -0.23888,1.71195 -0.73334,3.37245 -1.11312,5.0558 0.0493,-0.022 0.0976,-0.0458 0.1463,-0.0686 -0.025,0.10731 -0.0529,0.21403 -0.0771,0.32151 1.54179,-0.6896 2.76863,-1.77334 3.80943,-3.08927 1.62303,-1.75601 3.34729,-3.43771 4.3419,-5.65178 0.80662,-1.28086 0.24451,-2.93678 0.44853,-4.38271 -0.0348,-1.9527 0.19301,-3.97672 -0.006,-5.88483 -0.018,-0.0304 -0.0363,-0.0609 -0.0544,-0.0913 -0.005,-0.054 -0.009,-0.10782 -0.0148,-0.1616 -1.56772,-2.63687 -3.09607,-5.30166 -5.19756,-7.56046 -1.2309,-1.83585 -3.41635,-2.5993 -5.19642,-3.79242 -0.88207,-0.4602 -1.76386,-0.92057 -2.64585,-1.38076 1.60633,-0.15032 3.26434,0.047 4.82161,-0.0578 1.80218,-0.9799 3.47959,-2.29033 5.35973,-3.06319 0.42431,-0.13495 0.69016,-0.19277 0.84093,-0.1945 -0.23403,0.2966 -0.88451,0.79615 -1.31272,1.1874 -1.21427,1.07934 -2.42901,2.1585 -3.64328,3.23784 0.1281,-0.0136 0.25218,-0.0175 0.37427,-0.0176 -0.10162,0.0904 -0.20344,0.1807 -0.30508,0.27105 2.85306,-0.30217 4.16706,2.88714 6.41162,3.09268 1.01731,0.0618 1.8102,-0.70213 2.67079,-1.21575 -0.79219,0.95899 -1.58485,1.91821 -2.37707,2.8772 0.0556,0.0425 0.10856,0.0906 0.16047,0.14176 -0.0305,0.037 -0.0607,0.0742 -0.0913,0.11114 1.48248,1.1337 1.60909,5.47968 2.57043,5.32232 0.7797,-0.90964 1.55938,-1.81957 2.33906,-2.7292 -0.82366,1.25941 -1.71242,2.50253 -2.31468,3.81793 0.13158,1.28984 0.0558,2.63665 0.4179,3.86387 0.13939,0.56832 0.35952,1.11426 0.72693,1.62063 1.2129,-1.36649 2.39451,-4.54117 3.42724,-6.6271 0.99249,-2.55126 2.42761,-5.55872 1.6144,-8.2721 -0.13564,-0.54782 -0.35658,-1.08542 -0.6884,-1.60531 -1.66721,-3.66742 -3.91688,-7.24608 -7.54457,-9.24686 -1.56214,-1.13428 -3.1892,-2.16185 -5.16526,-2.21149 -2.04235,-0.5519 -4.06591,0.41703 -6.08555,0.69861 -2.83042,0.84911 -5.66063,1.69806 -8.49099,2.54718 0.58208,-1.78484 1.04957,-3.62674 2.35213,-5.049 1.40322,-1.94096 2.991,-3.8045 4.91233,-5.25087 -0.24544,-1.76724 -0.49057,-3.53466 -0.73604,-5.3019 0.73636,1.61997 1.4729,3.24019 2.20923,4.86017 1.47269,-0.24545 2.94521,-0.49115 4.41787,-0.7366 0.15565,-0.53198 0.14415,-3.05332 0.41056,-2.26649 0.006,0.0268 0.0113,0.0445 0.0177,0.0743 0.0203,0.17224 0.0569,0.32869 0.10603,0.47348 0.49541,2.36196 4.18738,1.69839 5.56104,3.67164 0.86326,0.81402 1.72934,-1.52109 1.70966,-2.39805 0.11288,-0.69334 -0.36556,-2.97813 0.5268,-2.36289 0.0468,2.66802 0.0938,5.33587 0.14061,8.00389 0.0224,0.0241 0.0442,0.0517 0.0664,0.0765 0.003,0.059 0.003,0.11794 0.003,0.17692 0.78438,0.84555 1.46024,2.16223 2.67477,1.1392 0.68706,-0.67587 0.96099,-1.99338 1.15394,-2.98211 -0.10104,-1.48594 0.22346,-3.06592 -0.19676,-4.48138 -0.10809,-0.4617 -0.28556,-0.90772 -0.57328,-1.32973 -1.07599,-2.5508 -2.52168,-4.9121501 -3.86445,-7.32626 -1.80599,-0.84433 -3.63387,-1.61266004 -5.64666,-1.75105004 -1.76331,-0.33266 -3.56132,0.29408 -5.31267,0.52566 -1.47011,0.48905004 -3.10507,0.72430004 -4.47516,1.36772004 -1.67452,1.9360499 -3.31468,3.8858499 -4.41616,6.21825 -2.25907,2.06533 -2.57576,6.20194 -3.32461,8.33674 -1.06196,-3.47553 -2.1237,-6.95136 -3.18566,-10.42688 -1.42493,-0.3849301 -3.14011,-0.15393 -4.22678,-1.2565801 0.98117,-0.28112 2.59574,0.0604 3.01611,-0.77175 0.0965,-0.3361399 0.0685,-0.6405099 -0.0329,-0.9265599 -0.17138,-0.94476 -1.23447,-1.66447 -1.65522,-2.54605004 -0.4658,-1.11745 -1.9853,-0.70497 -2.92596,-0.4973 -0.50236,0.22522 -0.8313,0.34736 -1.02297,0.38786 0.17103,-0.1899 0.49411,-0.47044 0.93166,-0.81882 0.77895,-0.59593 1.38307,-1.12485996 1.03601,-1.29059996 0.0834,-0.17684 0.003,-0.29104 -0.33968,-0.30564 -0.0474,-0.002 -0.0995,-0.002 -0.15707,0 z m -7.17826,6.9650499 c 0.0592,-9.3e-4 0.10835,0.0393 0.14682,0.12135 0.0352,0.22457 0.0455,0.54895 0.0295,0.9781601 0.0244,-0.006 0.0502,-0.0155 0.0754,-0.0233 -0.003,0.0873 -0.003,0.1786 -0.006,0.27672 0.57807,-0.15099 1.35415,-0.6887101 2.09301,-1.1533801 -0.51952,0.49872 -1.15493,1.0853901 -1.6167,1.5401101 -0.6659,0.31905 -0.75848,0.65103 -0.59651,0.98893 0.0221,0.54409 0.9301,1.10845 1.36829,1.66202 0.84997,0.63936 1.36194,2.15898 2.62823,1.71475 0.57828,0.061 2.16278,-0.28157 2.65213,-0.18486 -0.56202,0.73085 -2.37785,1.25212 -1.93136,2.15195 0.005,0.10802 0.042,0.22174 0.11965,0.34193 1.70585,2.78327 3.41168,5.56596 5.11759,8.34922 -2.84568,-1.25805 -5.06548,-3.65247 -8.16834,-4.309 -4.96296,-1.32048 -10.60115,-1.22179 -15.05851,1.5883 -2.20472,1.37027 -4.60838,2.67256 -5.83781,5.05978 -0.88336,1.19928 -1.75266,2.40475 -1.77315,3.95516 -0.75727,2.92903 -0.11794,5.95057 -0.11625,8.92987 0.0212,-0.0196 0.0432,-0.039 0.0646,-0.0584 0.003,0.10369 0.004,0.2077 0.004,0.31131 1.28232,-1.17744 2.92599,-2.07754 3.97953,-3.43065 0.67171,-1.51122 1.34304,-3.02232 2.01471,-4.53355 -0.20485,1.14679 -0.40988,2.29347 -0.61465,3.44029 0.0411,-0.0124 0.0812,-0.0272 0.12193,-0.0403 -0.0174,0.0977 -0.0353,0.19545 -0.0528,0.29316 1.99793,-0.60029 3.52239,-2.01299 5.15508,-3.23955 0.23197,-2.86327 1.76807,-5.41239 3.74536,-7.42493 -0.69641,2.08746 -1.42688,4.16772 -1.44029,6.39744 0.0247,-0.006 0.052,-0.0132 0.0771,-0.0193 -0.003,0.0909 -0.007,0.18138 -0.007,0.27275 2.14294,-0.50616 5.35,-1.88812 8.06231,-1.56165 1.86011,0.36215 5.15941,0.33534 5.75949,1.93194 0.0836,0.46402 -0.0306,1.04568 -0.4247,1.78506 -0.21667,0.94993 -0.13184,1.80669 0.10603,2.61807 0.44867,1.80297 1.71126,3.36151 2.24267,5.16637 0.089,0.35365 0.14912,0.71704 0.16671,1.09441 0.0634,1.18969 -0.26989,2.74725 -0.051,2.93504 0.0305,0.46275 0.24733,0.40449 0.99975,-0.82222 1.04957,-1.37529 2.09925,-2.75111 3.14882,-4.12641 -0.029,-0.0769 -0.0567,-0.15484 -0.0839,-0.23362 0.005,-0.006 0.01,-0.0129 0.0148,-0.0193 -0.0888,-0.23636 -0.1683,-0.48301 -0.23987,-0.73433 -0.48328,-1.89462 -0.39877,-4.03014 1.07004,-4.87662 -0.32056,2.98366 -0.6729,8.34653 -0.0902,14.93152 0.89915,10.1613 1.16953,13.66595 4.25741,23.70205 3.08788,10.0361 5.08618,12.4691 9.59673,19.46337 3.43029,4.98693 11.23415,10.465827 16.73922,12.650327 v 264.5723 H 0.96526414 V 9.071183 H 444.24963 c -0.0247,0.21212 -0.0388,0.4274 -0.0374,0.64757 -0.0394,0.6447 -0.40474,1.99634 -0.18316,2.07483 -0.005,0.37021 0.13935,0.41572 0.67873,-0.3958 1.08693,-1.25967 1.95019,-2.69702 2.94413,-4.03058 1.16013,-0.0143 2.52084,0.34026 2.91235,-1.08703 0.36108,-0.7339101 0.63193,-1.1075101 0.80978,-1.1102801 z"
   id="path4606"
   inkscape:connector-curvature="0" /></svg>