<?xml version="1.0" encoding="UTF-8" standalone="no"?>
<!-- Generator: Adobe Illustrator 16.0.0, SVG Export Plug-In . SVG Version: 6.00 Build 0)  -->

<svg
   xmlns:dc="http://purl.org/dc/elements/1.1/"
   xmlns:cc="http://creativecommons.org/ns#"
   xmlns:rdf="http://www.w3.org/1999/02/22-rdf-syntax-ns#"
   xmlns:svg="http://www.w3.org/2000/svg"
   xmlns="http://www.w3.org/2000/svg"
   xmlns:xlink="http://www.w3.org/1999/xlink"
   xmlns:sodipodi="http://sodipodi.sourceforge.net/DTD/sodipodi-0.dtd"
   xmlns:inkscape="http://www.inkscape.org/namespaces/inkscape"
   version="1.1"
   id="Layer_1"
   x="0px"
   y="0px"
   width="510.0004"
   height="382.74112"
   viewBox="-7.087 -7.087 510.00041 382.74111"
   enable-background="new -7.087 -7.087 56.693 56.693"
   xml:space="preserve"
   sodipodi:docname="palmtree-frame.svg"
   inkscape:version="0.92.0 r15299"><metadata
   id="metadata33"><rdf:RDF><cc:Work
       rdf:about=""><dc:format>image/svg+xml</dc:format><dc:type
         rdf:resource="http://purl.org/dc/dcmitype/StillImage" /><dc:title /></cc:Work></rdf:RDF></metadata><defs
   id="defs31">
		
		
		
		
		
		
		
		
	
	
	

		
	<linearGradient
   gradientUnits="userSpaceOnUse"
   gradientTransform="matrix(0.55209835,0,0,1.8112715,662.09054,-168.5294)"
   id="linearGradient2648"
   x1="-466.66632"
   x2="-376.56265"
   xlink:href="#linearGradient3433"
   y1="-313.40421"
   y2="-322.96063" /><linearGradient
   id="linearGradient3433"><stop
     id="stop3434"
     offset="0"
     stop-color="#6c2f07" /><stop
     id="stop3435"
     offset="1"
     stop-color="#7e4932" /></linearGradient><linearGradient
   gradientUnits="userSpaceOnUse"
   gradientTransform="matrix(1.0339065,0,0,0.96720543,662.09054,-168.5294)"
   id="linearGradient2644"
   spreadMethod="pad"
   x1="-418.90756"
   x2="-418.90756"
   xlink:href="#linearGradient2186"
   y1="-938.97131"
   y2="1093.1052" /><linearGradient
   id="linearGradient2186"><stop
     id="stop2187"
     offset="0"
     stop-color="#004e00" /><stop
     id="stop2188"
     offset="1"
     stop-color="#009300" /></linearGradient><linearGradient
   gradientUnits="userSpaceOnUse"
   gradientTransform="matrix(-0.28519397,0.12188028,0.40344705,0.94404669,2094.8076,-368.35458)"
   id="linearGradient2641"
   x1="3176.5178"
   x2="3085.9951"
   xlink:href="#linearGradient3433"
   y1="-312.25888"
   y2="-321.77554" /><linearGradient
   gradientUnits="userSpaceOnUse"
   gradientTransform="matrix(1.0339065,0,0,0.96720544,662.09054,-168.5294)"
   id="linearGradient2637"
   spreadMethod="pad"
   x1="1858.2909"
   x2="1858.2909"
   xlink:href="#linearGradient2186"
   y1="-938.97131"
   y2="1093.1052" /><linearGradient
   gradientUnits="userSpaceOnUse"
   gradientTransform="matrix(2.9873966,0,0,0.33473962,662.09054,-168.5294)"
   id="linearGradient2634"
   x1="166.38251"
   x2="447.00623"
   xlink:href="#linearGradient2872"
   y1="2958.4705"
   y2="2665.2551" /><linearGradient
   id="linearGradient2872"><stop
     id="stop2874"
     offset="0"
     stop-color="#dec164" /><stop
     id="stop2876"
     offset="1"
     stop-opacity="0"
     stop-color="#dec164" /></linearGradient></defs><sodipodi:namedview
   pagecolor="#ffffff"
   bordercolor="#666666"
   borderopacity="1"
   objecttolerance="10"
   gridtolerance="10"
   guidetolerance="10"
   inkscape:pageopacity="0"
   inkscape:pageshadow="2"
   inkscape:window-width="1280"
   inkscape:window-height="961"
   id="namedview29"
   showgrid="false"
   inkscape:zoom="1.4717619"
   inkscape:cx="552.19415"
   inkscape:cy="260.85947"
   inkscape:window-x="1272"
   inkscape:window-y="-8"
   inkscape:window-maximized="1"
   inkscape:current-layer="Layer_1"
   fit-margin-top="5"
   fit-margin-left="5"
   fit-margin-right="5"
   fit-margin-bottom="5" />


<path
   style="display:inline;fill:#2cd41a;fill-opacity:1;stroke:#000000;stroke-width:0.58065748;stroke-miterlimit:4;stroke-dasharray:none;stroke-opacity:1"
   d="m 458.55229,-1.795157 c -0.17329,0.006 -0.39348,0.0291 -0.66743,0.0731 -1.24723,0.0547 -2.62214,-0.31135 -3.57412,0.71845 -2.73658,1.89920996 -5.66577,3.62829 -8.2834,5.6324899 -0.27883,0.56256 -0.58034,1.11778 -0.85795,1.6807301 L -1.7962613,6.320413 V 370.36378 H 497.58278 v -266.4861 -0.5585 -7.986897 c -7.21803,-2.83651 -14.59886,-9.01946 -16.8073,-12.90603 -1.43121,-2.5187 -4.59773,-6.06002 -7.89331,-16.95587 -3.29558,-10.89584 -3.72701,-15.98316 -5.01895,-25.0023 -0.61694,-4.30703 -0.67521,-7.0128 -0.56988,-8.67981 2.78567,-0.39343 3.57731,4.43595 5.85816,3.65123 1.11211,-0.3707 2.22444,-0.7413 3.33649,-1.11198 l 0.55572,0.31924 c -0.98416,0.98417 -1.96846,1.96853 -2.95261,2.95262 0.0491,0.0555 0.0964,0.11637 0.14287,0.17976 -0.0247,0.0244 -0.0493,0.0487 -0.0737,0.0732 0.70178,0.79404 1.09251,2.52262 2.37878,1.56335 1.00332,-0.33445 2.00655,-0.66866 3.0099,-1.00311 -0.88649,1.15242 -1.77301,2.30489 -2.65947,3.45729 0.0388,0.064 0.0774,0.12825 0.11625,0.19223 -0.0157,0.0204 -0.0314,0.0409 -0.0471,0.0612 0.83452,1.37453 1.66896,2.74906 2.50354,4.12358 0.88817,-0.30895 1.77632,-0.61817 2.66455,-0.92712 -0.78212,0.54788 -1.6698,1.04857 -2.12814,1.74197 -0.033,0.39489 0.005,0.70578 0.0987,0.94584 0.41479,2.10423 4.08272,0.15631 5.09547,-1.15565 0.0666,0.95182 -1.39204,1.48103 -1.87067,2.2818 -0.79817,0.84861 -1.65551,1.63056 -2.6039,2.30902 -0.0747,0.48357 -0.0516,0.83175 0.0488,1.07343 0.13649,0.84642 0.8961,0.83155 1.96994,0.38332 0.53618,-0.24499 0.90652,-0.39062 1.11309,-0.43322 -0.13851,0.1665 -0.39278,0.41074 -0.77401,0.74283 -0.82033,0.85846 -1.94654,1.55897 -1.83384,2.89762 -0.23888,1.71195 -0.73334,3.37245 -1.11312,5.0558 0.0493,-0.022 0.0976,-0.0458 0.1463,-0.0686 -0.025,0.10731 -0.0529,0.21403 -0.0771,0.32151 1.54179,-0.6896 2.76863,-1.77334 3.80943,-3.08927 1.62303,-1.75601 3.34729,-3.43771 4.3419,-5.65178 0.80662,-1.28086 0.24451,-2.93678 0.44853,-4.38271 -0.0348,-1.9527 0.19301,-3.97672 -0.006,-5.88483 -0.018,-0.0304 -0.0363,-0.0609 -0.0544,-0.0913 -0.005,-0.054 -0.009,-0.10782 -0.0148,-0.1616 -1.56772,-2.63687 -3.09607,-5.30166 -5.19756,-7.56046 -1.2309,-1.83585 -3.41635,-2.5993 -5.19642,-3.79242 -0.88207,-0.4602 -1.76386,-0.92057 -2.64585,-1.38076 1.60633,-0.15032 3.26434,0.047 4.82161,-0.0578 1.80218,-0.9799 3.47959,-2.29033 5.35973,-3.06319 0.42431,-0.13495 0.69016,-0.19277 0.84093,-0.1945 -0.23403,0.2966 -0.88451,0.79615 -1.31272,1.1874 -1.21427,1.07934 -2.42901,2.1585 -3.64328,3.23784 0.1281,-0.0136 0.25218,-0.0175 0.37427,-0.0176 -0.10162,0.0904 -0.20344,0.1807 -0.30508,0.27105 2.85306,-0.30217 4.16706,2.88714 6.41162,3.09268 1.01731,0.0618 1.8102,-0.70213 2.67079,-1.21575 -0.79219,0.95899 -1.58485,1.91821 -2.37707,2.8772 0.0556,0.0425 0.10856,0.0906 0.16047,0.14176 -0.0305,0.037 -0.0607,0.0742 -0.0913,0.11114 1.48248,1.1337 1.60909,5.47968 2.57043,5.32232 0.7797,-0.90964 1.55938,-1.81957 2.33906,-2.7292 -0.82366,1.25941 -1.71242,2.50253 -2.31468,3.81793 0.13158,1.28984 0.0558,2.63665 0.4179,3.86387 0.13939,0.56832 0.35952,1.11426 0.72693,1.62063 1.2129,-1.36649 2.39451,-4.54117 3.42724,-6.6271 0.99249,-2.55126 2.42761,-5.55872 1.6144,-8.2721 -0.13564,-0.54782 -0.35658,-1.08542 -0.6884,-1.60531 -1.66721,-3.66742 -3.91688,-7.24608 -7.54457,-9.24686 -1.56214,-1.13428 -3.1892,-2.16185 -5.16526,-2.21149 -2.04235,-0.5519 -4.06591,0.41703 -6.08555,0.69861 -2.83042,0.84911 -5.66063,1.69806 -8.49099,2.54718 0.58208,-1.78484 1.04957,-3.62674 2.35213,-5.049 1.40322,-1.94096 2.991,-3.8045 4.91233,-5.25087 -0.24544,-1.76724 -0.49057,-3.53466 -0.73604,-5.3019 0.73636,1.61997 1.4729,3.24019 2.20923,4.86017 1.47269,-0.24545 2.94521,-0.49115 4.41787,-0.7366 0.15565,-0.53198 0.14415,-3.05332 0.41056,-2.26649 0.006,0.0268 0.0113,0.0445 0.0177,0.0743 0.0203,0.17224 0.0569,0.32869 0.10603,0.47348 0.49541,2.36196 4.18738,1.69839 5.56104,3.67164 0.86326,0.81402 1.72934,-1.52109 1.70966,-2.39805 0.11288,-0.69334 -0.36556,-2.97813 0.5268,-2.36289 0.0468,2.66802 0.0938,5.33587 0.14061,8.00389 0.0224,0.0241 0.0442,0.0517 0.0664,0.0765 0.003,0.059 0.003,0.11794 0.003,0.17692 0.78438,0.84555 1.46024,2.16223 2.67477,1.1392 0.68706,-0.67587 0.96099,-1.99338 1.15394,-2.98211 -0.10104,-1.48594 0.22346,-3.06592 -0.19676,-4.48138 -0.10809,-0.4617 -0.28556,-0.90772 -0.57328,-1.32973 -1.07599,-2.5508 -2.52168,-4.9121501 -3.86445,-7.32626 -1.80599,-0.84433 -3.63387,-1.61266004 -5.64666,-1.75105004 -1.76331,-0.33266 -3.56132,0.29408 -5.31267,0.52566 -1.47011,0.48905004 -3.10507,0.72430004 -4.47516,1.36772004 -1.67452,1.9360499 -3.31468,3.8858499 -4.41616,6.21825 -2.25907,2.06533 -2.57576,6.20194 -3.32461,8.33674 -1.06196,-3.47553 -2.1237,-6.95136 -3.18566,-10.42688 -1.42493,-0.3849301 -3.14011,-0.15393 -4.22678,-1.2565801 0.98117,-0.28112 2.59574,0.0604 3.01611,-0.77175 0.0965,-0.3361399 0.0685,-0.6405099 -0.0329,-0.9265599 -0.17138,-0.94476 -1.23447,-1.66447 -1.65522,-2.54605004 -0.4658,-1.11745 -1.9853,-0.70497 -2.92596,-0.4973 -0.50236,0.22522 -0.8313,0.34736 -1.02297,0.38786 0.17103,-0.1899 0.49411,-0.47044 0.93166,-0.81882 0.77895,-0.59593 1.38307,-1.12485996 1.03601,-1.29059996 0.0834,-0.17684 0.003,-0.29104 -0.33968,-0.30564 -0.0474,-0.002 -0.0995,-0.002 -0.15707,0 z m -7.17826,6.9650499 c 0.0592,-9.3e-4 0.10835,0.0393 0.14682,0.12135 0.0352,0.22457 0.0455,0.54895 0.0295,0.9781601 0.0244,-0.006 0.0502,-0.0155 0.0754,-0.0233 -0.003,0.0873 -0.003,0.1786 -0.006,0.27672 0.57807,-0.15099 1.35415,-0.6887101 2.09301,-1.1533801 -0.51952,0.49872 -1.15493,1.0853901 -1.6167,1.5401101 -0.6659,0.31905 -0.75848,0.65103 -0.59651,0.98893 0.0221,0.54409 0.9301,1.10845 1.36829,1.66202 0.84997,0.63936 1.36194,2.15898 2.62823,1.71475 0.57828,0.061 2.16278,-0.28157 2.65213,-0.18486 -0.56202,0.73085 -2.37785,1.25212 -1.93136,2.15195 0.005,0.10802 0.042,0.22174 0.11965,0.34193 1.70585,2.78327 3.41168,5.56596 5.11759,8.34922 -2.84568,-1.25805 -5.06548,-3.65247 -8.16834,-4.309 -4.96296,-1.32048 -10.60115,-1.22179 -15.05851,1.5883 -2.20472,1.37027 -4.60838,2.67256 -5.83781,5.05978 -0.88336,1.19928 -1.75266,2.40475 -1.77315,3.95516 -0.75727,2.92903 -0.11794,5.95057 -0.11625,8.92987 0.0212,-0.0196 0.0432,-0.039 0.0646,-0.0584 0.003,0.10369 0.004,0.2077 0.004,0.31131 1.28232,-1.17744 2.92599,-2.07754 3.97953,-3.43065 0.67171,-1.51122 1.34304,-3.02232 2.01471,-4.53355 -0.20485,1.14679 -0.40988,2.29347 -0.61465,3.44029 0.0411,-0.0124 0.0812,-0.0272 0.12193,-0.0403 -0.0174,0.0977 -0.0353,0.19545 -0.0528,0.29316 1.99793,-0.60029 3.52239,-2.01299 5.15508,-3.23955 0.23197,-2.86327 1.76807,-5.41239 3.74536,-7.42493 -0.69641,2.08746 -1.42688,4.16772 -1.44029,6.39744 0.0247,-0.006 0.052,-0.0132 0.0771,-0.0193 -0.003,0.0909 -0.007,0.18138 -0.007,0.27275 2.14294,-0.50616 5.35,-1.88812 8.06231,-1.56165 1.86011,0.36215 5.15941,0.33534 5.75949,1.93194 0.0836,0.46402 -0.0306,1.04568 -0.4247,1.78506 -0.21667,0.94993 -0.13184,1.80669 0.10603,2.61807 0.44867,1.80297 1.71126,3.36151 2.24267,5.16637 0.089,0.35365 0.14912,0.71704 0.16671,1.09441 0.0634,1.18969 -0.26989,2.74725 -0.051,2.93504 0.0305,0.46275 0.24733,0.40449 0.99975,-0.82222 1.04957,-1.37529 2.09925,-2.75111 3.14882,-4.12641 -0.029,-0.0769 -0.0567,-0.15484 -0.0839,-0.23362 0.005,-0.006 0.01,-0.0129 0.0148,-0.0193 -0.0888,-0.23636 -0.1683,-0.48301 -0.23987,-0.73433 -0.48328,-1.89462 -0.39877,-4.03014 1.07004,-4.87662 -0.32056,2.98366 -0.6729,8.34653 -0.0902,14.93152 0.89915,10.1613 1.16953,13.66595 4.25741,23.70205 3.08788,10.0361 5.08618,12.4691 9.59673,19.46337 3.43029,4.98693 11.23415,10.465827 16.73922,12.650327 v 264.5723 H 0.96526414 V 9.071183 H 444.24963 c -0.0247,0.21212 -0.0388,0.4274 -0.0374,0.64757 -0.0394,0.6447 -0.40474,1.99634 -0.18316,2.07483 -0.005,0.37021 0.13935,0.41572 0.67873,-0.3958 1.08693,-1.25967 1.95019,-2.69702 2.94413,-4.03058 1.16013,-0.0143 2.52084,0.34026 2.91235,-1.08703 0.36108,-0.7339101 0.63193,-1.1075101 0.80978,-1.1102801 z"
   id="path4606"
   inkscape:connector-curvature="0" /></svg>