<?xml version="1.0" encoding="UTF-8" standalone="no"?>
<!-- Generator: Adobe Illustrator 16.0.0, SVG Export Plug-In . SVG Version: 6.00 Build 0)  -->

<svg
   xmlns:dc="http://purl.org/dc/elements/1.1/"
   xmlns:cc="http://creativecommons.org/ns#"
   xmlns:rdf="http://www.w3.org/1999/02/22-rdf-syntax-ns#"
   xmlns:svg="http://www.w3.org/2000/svg"
   xmlns="http://www.w3.org/2000/svg"
   xmlns:xlink="http://www.w3.org/1999/xlink"
   xmlns:sodipodi="http://sodipodi.sourceforge.net/DTD/sodipodi-0.dtd"
   xmlns:inkscape="http://www.inkscape.org/namespaces/inkscape"
   version="1.1"
   id="Layer_1"
   x="0px"
   y="0px"
   width="510.0004"
   height="382.74112"
   viewBox="-7.087 -7.087 510.00041 382.74111"
   enable-background="new -7.087 -7.087 56.693 56.693"
   xml:space="preserve"
   sodipodi:docname="snowflake-frame.svg"
   inkscape:version="0.92.0 r15299"><metadata
   id="metadata33"><rdf:RDF><cc:Work
       rdf:about=""><dc:format>image/svg+xml</dc:format><dc:type
         rdf:resource="http://purl.org/dc/dcmitype/StillImage" /><dc:title /></cc:Work></rdf:RDF></metadata><defs
   id="defs31">
		
		
		
		
		
		
		
		
	
	
	

		
	<linearGradient
   gradientUnits="userSpaceOnUse"
   gradientTransform="matrix(0.55209835,0,0,1.8112715,662.09054,-168.5294)"
   id="linearGradient2648"
   x1="-466.66632"
   x2="-376.56265"
   xlink:href="#linearGradient3433"
   y1="-313.40421"
   y2="-322.96063" /><linearGradient
   id="linearGradient3433"><stop
     id="stop3434"
     offset="0"
     stop-color="#6c2f07" /><stop
     id="stop3435"
     offset="1"
     stop-color="#7e4932" /></linearGradient><linearGradient
   gradientUnits="userSpaceOnUse"
   gradientTransform="matrix(1.0339065,0,0,0.96720543,662.09054,-168.5294)"
   id="linearGradient2644"
   spreadMethod="pad"
   x1="-418.90756"
   x2="-418.90756"
   xlink:href="#linearGradient2186"
   y1="-938.97131"
   y2="1093.1052" /><linearGradient
   id="linearGradient2186"><stop
     id="stop2187"
     offset="0"
     stop-color="#004e00" /><stop
     id="stop2188"
     offset="1"
     stop-color="#009300" /></linearGradient><linearGradient
   gradientUnits="userSpaceOnUse"
   gradientTransform="matrix(-0.28519397,0.12188028,0.40344705,0.94404669,2094.8076,-368.35458)"
   id="linearGradient2641"
   x1="3176.5178"
   x2="3085.9951"
   xlink:href="#linearGradient3433"
   y1="-312.25888"
   y2="-321.77554" /><linearGradient
   gradientUnits="userSpaceOnUse"
   gradientTransform="matrix(1.0339065,0,0,0.96720544,662.09054,-168.5294)"
   id="linearGradient2637"
   spreadMethod="pad"
   x1="1858.2909"
   x2="1858.2909"
   xlink:href="#linearGradient2186"
   y1="-938.97131"
   y2="1093.1052" /><linearGradient
   gradientUnits="userSpaceOnUse"
   gradientTransform="matrix(2.9873966,0,0,0.33473962,662.09054,-168.5294)"
   id="linearGradient2634"
   x1="166.38251"
   x2="447.00623"
   xlink:href="#linearGradient2872"
   y1="2958.4705"
   y2="2665.2551" /><linearGradient
   id="linearGradient2872"><stop
     id="stop2874"
     offset="0"
     stop-color="#dec164" /><stop
     id="stop2876"
     offset="1"
     stop-opacity="0"
     stop-color="#dec164" /></linearGradient></defs><sodipodi:namedview
   pagecolor="#ffffff"
   bordercolor="#666666"
   borderopacity="1"
   objecttolerance="10"
   gridtolerance="10"
   guidetolerance="10"
   inkscape:pageopacity="0"
   inkscape:pageshadow="2"
   inkscape:window-width="1280"
   inkscape:window-height="961"
   id="namedview29"
   showgrid="false"
   inkscape:zoom="1.4717619"
   inkscape:cx="433.59807"
   inkscape:cy="260.85947"
   inkscape:window-x="1272"
   inkscape:window-y="-8"
   inkscape:window-maximized="1"
   inkscape:current-layer="Layer_1"
   fit-margin-top="5"
   fit-margin-left="5"
   fit-margin-right="5"
   fit-margin-bottom="5" />


<path
   style="display:inline;fill:#aad4ff;fill-opacity:1;stroke:#000000;stroke-width:0.58065748;stroke-miterlimit:4;stroke-dasharray:none;stroke-opacity:1"
   d="m 476.62128,0.95672296 c -0.52677,0.0173 -0.92888,0.19564004 -0.94412,0.44740004 l -0.17466,2.8601999 -9.25083,5.9636401 -2.77287,-0.0437 -9.20717,-5.9897301 -0.0958,-2.1014799 c -0.0174,-0.28773 -0.53168,-0.47945 -1.16814,-0.44457 l -0.4712,0.0261 c -0.63652,0.0349 -1.13341,0.27876 -1.11597,0.56649 l 0.008,0.0873 -0.38335,-0.24383 c -0.23539,-0.15694 -0.68892,0.15653 -1.03769,0.6884 l -0.2529,0.40147 c -0.34878,0.53186 -0.46186,1.0809199 -0.21775,1.2378599 l 2.07483,1.34277 0.59312,11.3784001 -2.71162,-1.56052 -0.33173,-6.3827 c -0.009,-0.12207 -0.52305,-0.18287 -1.15957,-0.148 l -0.47916,0.0261 c -0.63649,0.0349 -1.14227,0.14841 -1.13353,0.27048 l 0.23531,4.58629 -1.76975,-1.02012 -0.48822,-9.46064 c -0.009,-0.1831 -0.5322,-0.29628 -1.16869,-0.26141 l -0.47971,0.0261 c -0.63646,0.0349 -1.14166,0.20079 -1.13298,0.38389 l 0.40092,7.66366 -3.00819,-1.73461 -0.22683,-4.3946201 c -0.009,-0.0872 -0.52312,-0.1222 -1.1596,-0.0873 l -0.47916,0.0261 c -0.63652,0.0349 -1.14262,0.12205 -1.14262,0.20924 l 0.131,2.5982101 -2.24947,-1.2991 -0.52793,-0.26482 -435.1199213,0.0108 V 370.36378 H 497.58278 V 45.230153 c 0.0128,-0.0194 0.0288,-0.0357 0.0403,-0.0561 v -1.97899 l -2.46782,-1.29911 2.31072,-1.18627 c 0.0784,-0.0349 -0.10469,-0.52312 -0.3924,-1.08986 l -0.21775,-0.42699 c -0.28775,-0.56674 -0.58458,-0.99375 -0.65437,-0.95888 l -3.91491,2.00508 -3.0076,-1.73516 6.83576,-3.49642 c 0.16569,-0.0872 0.0524,-0.60138 -0.23534,-1.16812 l -0.2183,-0.42756 c -0.28775,-0.56674 -0.64523,-0.95874 -0.81089,-0.87155 l -8.43144,4.3158 -1.76975,-1.02012 4.08899,-2.0924 c 0.1046,-0.0523 -0.0434,-0.55794 -0.33115,-1.11596 l -0.21775,-0.42755 c -0.28777,-0.56674 -0.60171,-0.98532 -0.71505,-0.92429 l -5.69375,2.91236 -2.71161,-1.56959 10.34069,-5.29226 1.56107,0.7933 c 0.25288,0.13079 0.68001,-0.22656 0.97646,-0.7933 l 0.21775,-0.42755 c 0.21801,-0.42724 0.29643,-0.85446 0.20924,-1.08987 0.22672,-0.14823 0.18317,-0.68857 -0.0958,-1.23787 l -0.21774,-0.42698 c -0.28775,-0.56674 -0.71488,-0.92466 -0.97644,-0.79387 l -1.66544,0.85454 -10.39342,-5.31835 -1.34277,-2.44171 0.54948,-10.6111701 2.06632,-1.34277 c 0.23543,-0.15695 0.15707,-0.7060099 -0.19167,-1.2378699 l -0.25291,-0.4009 c -0.34877,-0.53187 -0.82836,-0.84591 -1.06376,-0.68897 l -0.37485,0.2444 0.0437,-0.85454 c 0.0174,-0.28773 -0.48854,-0.53217 -1.12502,-0.56705004 l -0.47916,-0.0261 c -0.0796,-0.004 -0.1578,-0.005 -0.23305,-0.003 z m -22.17499,6.66452004 9.04159,5.86782 v 10.17511 l -8.44903,-4.88285 z m 20.88213,0.0783 -0.54948,10.40194 -8.51877,4.89986 v -9.45156 z M 0.96526414,9.071183 H 432.62399 l 2.14289,1.21802 -2.25797,1.15962 c -0.0785,0.0349 0.1046,0.52312 0.39238,1.08986 l 0.21774,0.42699 c 0.28772,0.56674 0.58406,0.99432 0.65382,0.95945 l 3.86274,-1.97957 3.00818,1.73517 -6.77453,3.47034 c -0.16569,0.0872 -0.0524,0.60138 0.23531,1.16812 l 0.21775,0.42755 c 0.28774,0.56674 0.64526,0.95874 0.81089,0.87155 l 8.37926,-4.28972 1.76976,1.02012 -4.03682,2.05782 c -0.1046,0.0523 0.0434,0.55793 0.33118,1.11595 l 0.2183,0.42756 c 0.28777,0.56673 0.60112,0.98475 0.7145,0.92372 l 5.63249,-2.88571 2.71219,1.56052 -9.08586,4.64752 -2.973,-1.52592 c -0.25285,-0.13079 -0.68004,0.22656 -0.97646,0.7933 l -0.21775,0.42755 c -0.28771,0.56674 -0.33164,1.12466 -0.0788,1.25545 l 1.19479,0.61014 -1.08136,0.55798 c -0.25288,0.13078 -0.21766,0.6887 0.0788,1.25544 l 0.21774,0.42756 c 0.28775,0.56674 0.71488,0.92408 0.97644,0.7933 l 2.86873,-1.46469 9.03309,4.62088 -2.71164,1.56108 -5.68522,-2.91236 c -0.10463,-0.0523 -0.41865,0.35755 -0.71505,0.92429 l -0.21775,0.42699 c -0.28771,0.56674 -0.44455,1.06363 -0.33115,1.11595 l 4.08899,2.09297 -1.76975,1.02012 -8.43147,-4.3158 c -0.16569,-0.0872 -0.52311,0.31353 -0.81086,0.87155 l -0.21774,0.42756 c -0.28772,0.56673 -0.40153,1.08965 -0.2359,1.16812 l 6.83576,3.49642 -3.00763,1.73516 -3.91491,-2.00565 c -0.0784,-0.0349 -0.36665,0.3927 -0.65437,0.95945 l -0.21774,0.42699 c -0.28775,0.56674 -0.46215,1.05499 -0.39238,1.08986 l 2.31072,1.1857 -2.24949,1.29911 c -0.54928,0.31389 -0.74107,1.02029 -0.41848,1.56959 l 0.23534,0.41848 c 0.31387,0.5493 1.02024,0.74109 1.56957,0.41848 l 2.28408,-1.31669 -0.13042,2.52847 c 0,0.0872 0.50555,0.17437 1.14204,0.20924 l 0.47916,0.0267 c 0.63651,0.0349 1.15141,-0.009 1.16015,-0.0873 l 0.22625,-4.33338 3.00822,-1.73517 -0.39241,7.60298 c -0.009,0.18311 0.49704,0.34902 1.13353,0.3839 l 0.47974,0.0261 c 0.63643,0.0349 1.15069,-0.0789 1.16811,-0.26198 l 0.48821,-9.39883 1.77034,-1.02011 -0.23534,4.52504 c -0.009,0.12207 0.50523,0.23561 1.13298,0.27048 l 0.47971,0.0261 c 0.63646,0.0349 1.15086,-0.0347 1.15963,-0.148 l 0.33115,-6.32146 2.71161,-1.56108 -0.58405,11.27405 -2.12756,1.37736 c -0.23543,0.15695 -0.13027,0.70657 0.20979,1.23844 l 0.26141,0.4009 c 0.34877,0.53187 0.79321,0.84591 1.02864,0.68896 l 0.44458,-0.28806 -0.008,0.13099 c -0.0174,0.28773 0.48856,0.5316 1.12502,0.56648 l 0.47916,0.0267 c 0.63643,0.0349 1.15969,-0.1574 1.17717,-0.44514 l 0.0873,-2.13607 9.14593,-5.95514 v 3.13011 l -5.31838,3.47884 c -0.0959,0.061 0.12188,0.5495 0.47065,1.08136 l 0.27047,0.4009 c 0.34877,0.53187 0.66259,0.91579 0.76722,0.84604 l 3.81001,-2.49388 v 2.04024 l -7.90806,5.15334 c -0.15695,0.0959 0.0261,0.61017 0.37482,1.14203 l 0.27047,0.40091 c 0.34874,0.53185 0.70634,0.88942 0.85455,0.78479 l 6.39972,-4.17631 v 3.47033 l -3.66201,2.38898 c -0.0698,0.0436 0.17461,0.51434 0.52338,1.0462 l 0.26992,0.40091 c 0.34874,0.53186 0.64534,0.93294 0.71505,0.88062 l 2.14515,-1.41252 v 2.59822 c 0,0.63649 0.60139,1.18627 1.23785,1.18627 h 0.47974 c 0.63648,0 1.06379,-0.54978 1.06379,-1.18627 v -2.65889 l 2.17064,1.37736 c 0.0697,0.0436 0.42754,-0.34876 0.77628,-0.88063 l 0.2705,-0.4009 c 0.34877,-0.53186 0.5313,-1.0026 0.46157,-1.0462 l -3.67899,-2.35439 v -3.47882 l 6.43429,4.14172 c 0.15693,0.0959 0.57576,-0.25293 0.91579,-0.78479 l 0.27047,-0.40147 c 0.34877,-0.53187 0.47053,-1.0374 0.31358,-1.14204 l -7.93413,-5.11818 v -2.04024 l 3.84514,2.4678 c 0.0959,0.061 0.47916,-0.31418 0.8279,-0.84604 l 0.27047,-0.4009 c 0.34881,-0.53187 0.5059,-1.01161 0.40998,-1.08136 l -5.35349,-3.44369 v -3.1301 l 9.18957,5.92849 0.16558,2.89478 c 0.0174,0.28773 0.54944,0.48001 1.17719,0.44513 l 0.47971,-0.0267 c 0.63649,-0.0349 1.13318,-0.27875 1.12447,-0.56648 l -0.0431,-0.88914 0.44455,0.2875 c 0.23537,0.15694 0.7147,-0.1571 1.05471,-0.68897 l 0.2529,-0.4009 c 0.34877,-0.53186 0.43613,-1.08092 0.20074,-1.23787 l -2.12756,-1.37792 -0.54948,-10.51535 2.71164,1.56109 0.3317,6.32088 c 0.009,0.12207 0.52315,0.18345 1.15963,0.14857 l 0.47916,-0.0261 c 0.63652,-0.0349 1.14224,-0.14841 1.13353,-0.27048 l -0.23534,-4.52505 1.77034,1.02012 0.48822,9.39883 c 0.009,0.1831 0.53156,0.29685 1.16811,0.26197 l 0.47974,-0.0261 c 0.63648,-0.0349 1.14227,-0.20079 1.13353,-0.38389 l -0.39241,-7.60299 3.00821,1.73517 0.22625,4.33339 c 0.009,0.0872 0.52312,0.1222 1.15961,0.0873 l 0.47971,-0.0266 c 0.63648,-0.0349 1.14203,-0.12205 1.14203,-0.20924 l -0.13041,-2.53697 1.06945,0.61581 V 367.60228 H 0.96526414 Z m 475.18251586,11.47139 10.21028,5.22308 -10.1581,5.20494 -9.0677,-5.23159 z m -22.4256,0.67989 7.84739,4.52562 -7.90807,4.5602 -8.84141,-4.53412 z m 9.7657,6.59194 v 10.07928 l -8.97185,5.84173 0.56649,-11.06424 z m 2.77229,0.65381 8.47511,4.87378 0.52337,10.3061 -8.99848,-5.81565 z"
   id="path2"
   inkscape:connector-curvature="0"
   sodipodi:nodetypes="ccccccccccccccccccccccccccccccccccccccccccccccccccccccccccccccccccccccccccccccccccsccccccccccccccccccccccccccccccccccccccccccccccccccccccccccccccccccccccccccccccccccccccccccccccccccccccccccccccccccsssscccccccccccccccccccccccccccccccccccccccccccccccccccccccccccccccccccccccccc" /></svg>