<?xml version="1.0" encoding="UTF-8" standalone="no"?>
<!-- Generator: Adobe Illustrator 16.0.0, SVG Export Plug-In . SVG Version: 6.00 Build 0)  -->

<svg
   xmlns:dc="http://purl.org/dc/elements/1.1/"
   xmlns:cc="http://creativecommons.org/ns#"
   xmlns:rdf="http://www.w3.org/1999/02/22-rdf-syntax-ns#"
   xmlns:svg="http://www.w3.org/2000/svg"
   xmlns="http://www.w3.org/2000/svg"
   xmlns:sodipodi="http://sodipodi.sourceforge.net/DTD/sodipodi-0.dtd"
   xmlns:inkscape="http://www.inkscape.org/namespaces/inkscape"
   version="1.1"
   x="0px"
   y="0px"
   width="460"
   height="635"
   viewBox="0 0 459.99999 634.99999"
   enable-background="new 0 0 178.58 249.45"
   xml:space="preserve"
   id="svg1699"
   sodipodi:docname="modern-stars.svg"
   inkscape:version="0.92.0 r15299"><metadata
   id="metadata1705"><rdf:RDF><cc:Work
       rdf:about=""><dc:format>image/svg+xml</dc:format><dc:type
         rdf:resource="http://purl.org/dc/dcmitype/StillImage" /><dc:title /></cc:Work></rdf:RDF></metadata><defs
   id="defs1703"><linearGradient
   gradientTransform="matrix(-2.488781,0,0,2.488781,446.6229,0.32852321)"
   y2="182.06841"
   x2="35.375999"
   y1="182.06841"
   x1="4.6259999"
   gradientUnits="userSpaceOnUse"
   id="SVGID_6_"><stop
     id="stop42"
     style="stop-color:#560F19"
     offset="0.2832" /><stop
     id="stop44"
     style="stop-color:#BE0A26"
     offset="1" /></linearGradient><linearGradient
   gradientTransform="matrix(-2.488781,0,0,2.488781,446.6229,0.32852321)"
   y2="83.943398"
   x2="50.000999"
   y1="83.943398"
   x1="19.250999"
   gradientUnits="userSpaceOnUse"
   id="SVGID_9_"><stop
     id="stop200"
     style="stop-color:#560F19"
     offset="0.2832" /><stop
     id="stop202"
     style="stop-color:#BE0A26"
     offset="1" /></linearGradient><linearGradient
   gradientTransform="matrix(-1,0,0,1,179.87632,0.4833395)"
   y2="7.6104002"
   x2="50.000999"
   y1="7.6104002"
   x1="19.250999"
   gradientUnits="userSpaceOnUse"
   id="SVGID_15_"><stop
     id="stop271"
     style="stop-color:#560F19"
     offset="0.2832" /><stop
     id="stop273"
     style="stop-color:#BE0A26"
     offset="1" /></linearGradient><linearGradient
   gradientTransform="matrix(-2.488781,0,0,2.488781,446.6229,0.32852321)"
   y2="15.625"
   x2="46.753899"
   y1="15.625"
   x1="16.003901"
   gradientUnits="userSpaceOnUse"
   id="SVGID_3_"><stop
     id="stop12"
     style="stop-color:#560F19"
     offset="0.2832" /><stop
     id="stop14"
     style="stop-color:#BE0A26"
     offset="1" /></linearGradient>
		
		
		
		
		
	
			
		
			
		
			
		
			
		
			
		
		
	</defs><sodipodi:namedview
   pagecolor="#ffffff"
   bordercolor="#666666"
   borderopacity="1"
   objecttolerance="10"
   gridtolerance="10"
   guidetolerance="10"
   inkscape:pageopacity="0"
   inkscape:pageshadow="2"
   inkscape:window-width="1280"
   inkscape:window-height="961"
   id="namedview1701"
   showgrid="false"
   inkscape:zoom="0.94608137"
   inkscape:cx="200.1188"
   inkscape:cy="295.24723"
   inkscape:window-x="1272"
   inkscape:window-y="-8"
   inkscape:window-maximized="1"
   inkscape:current-layer="svg1699"
   units="px"
   fit-margin-top="5"
   fit-margin-left="5"
   fit-margin-right="5"
   fit-margin-bottom="5" />
























































<path
   style="color:#000000;font-style:normal;font-variant:normal;font-weight:normal;font-stretch:normal;font-size:medium;line-height:normal;font-family:sans-serif;font-variant-ligatures:normal;font-variant-position:normal;font-variant-caps:normal;font-variant-numeric:normal;font-variant-alternates:normal;font-feature-settings:normal;text-indent:0;text-align:start;text-decoration:none;text-decoration-line:none;text-decoration-style:solid;text-decoration-color:#000000;letter-spacing:normal;word-spacing:normal;text-transform:none;writing-mode:lr-tb;direction:ltr;text-orientation:mixed;dominant-baseline:auto;baseline-shift:baseline;text-anchor:start;white-space:normal;shape-padding:0;clip-rule:nonzero;display:inline;overflow:visible;visibility:visible;opacity:1;isolation:auto;mix-blend-mode:normal;color-interpolation:sRGB;color-interpolation-filters:linearRGB;solid-color:#000000;solid-opacity:1;vector-effect:none;fill:#000000;fill-opacity:1;fill-rule:evenodd;stroke:none;stroke-width:9.87705612;stroke-linecap:round;stroke-linejoin:round;stroke-miterlimit:4;stroke-dasharray:none;stroke-dashoffset:0;stroke-opacity:1;paint-order:normal;color-rendering:auto;image-rendering:auto;shape-rendering:auto;text-rendering:auto;enable-background:accumulate"
   d="M 39.568359 5 C 20.502506 5 5 20.503819 5 39.570312 L 5 595.42969 C 5 614.49619 20.502506 630 39.568359 630 L 420.43164 630 C 439.49749 630 455 614.49619 455 595.42969 L 455 39.570312 C 455 20.503819 439.49749 5 420.43164 5 L 39.568359 5 z M 39.568359 14.876953 L 67.582031 14.876953 L 70 14.876953 L 70 17.304688 L 70 40.070312 L 114.92969 85 L 345.07031 85 L 390 40.070312 L 390 17.304688 L 390 14.876953 L 392.41797 14.876953 L 420.43164 14.876953 C 434.19654 14.876953 445.12305 25.804948 445.12305 39.570312 L 445.12305 324.24414 L 435 324.24414 L 435 479.62305 L 445.12305 479.62305 L 445.12305 595.42969 C 445.12305 609.19506 434.19654 620.12305 420.43164 620.12305 L 39.568359 620.12305 C 25.803455 620.12305 14.876953 609.19506 14.876953 595.42969 L 14.876953 479.62305 L 25 479.62305 L 25 324.24414 L 14.876953 324.24414 L 14.876953 39.570312 C 14.876953 25.804948 25.803455 14.876953 39.568359 14.876953 z M 70 47.142578 L 70 56.070312 L 98.929688 85 L 107.85742 85 L 70 47.142578 z M 390 47.142578 L 352.14258 85 L 361.07031 85 L 390 56.070312 L 390 47.142578 z M 70 63.142578 L 70 85 L 91.857422 85 L 70 63.142578 z M 390 63.142578 L 368.14258 85 L 390 85 L 390 63.142578 z M 30 324.24414 L 30 479.62305 L 35 479.62305 L 35 324.24414 L 30 324.24414 z M 42 324.24414 L 42 479.62305 L 160 479.62305 L 300 479.62305 L 418 479.62305 L 418 324.24414 L 300 324.24414 L 160 324.24414 L 42 324.24414 z M 425 324.24414 L 425 479.62305 L 430 479.62305 L 430 324.24414 L 425 324.24414 z "
   id="rect4805" /></svg>