<?xml version="1.0" encoding="UTF-8" standalone="no"?>
<!-- Generator: Adobe Illustrator 19.0.0, SVG Export Plug-In . SVG Version: 6.00 Build 0)  -->

<svg
   xmlns:dc="http://purl.org/dc/elements/1.1/"
   xmlns:cc="http://creativecommons.org/ns#"
   xmlns:rdf="http://www.w3.org/1999/02/22-rdf-syntax-ns#"
   xmlns:svg="http://www.w3.org/2000/svg"
   xmlns="http://www.w3.org/2000/svg"
   xmlns:sodipodi="http://sodipodi.sourceforge.net/DTD/sodipodi-0.dtd"
   xmlns:inkscape="http://www.inkscape.org/namespaces/inkscape"
   version="1.1"
   id="Capa_1"
   x="0px"
   y="0px"
   viewBox="0 0 281.81873 206.33242"
   xml:space="preserve"
   inkscape:version="0.48.4 r9939"
   width="100%"
   height="100%"
   sodipodi:docname="logo.svg"
   inkscape:export-filename="E:\Documents Privés\Dropbox\Gecko\logo\favicon.png"
   inkscape:export-xdpi="10.999977"
   inkscape:export-ydpi="10.999977"><metadata
   id="metadata47"><rdf:RDF><cc:Work
       rdf:about=""><dc:format>image/svg+xml</dc:format><dc:type
         rdf:resource="http://purl.org/dc/dcmitype/StillImage" /><dc:title /></cc:Work></rdf:RDF></metadata><defs
   id="defs45">
	
	
	
	
</defs><sodipodi:namedview
   pagecolor="#847676"
   bordercolor="#666666"
   borderopacity="1"
   objecttolerance="10"
   gridtolerance="10"
   guidetolerance="10"
   inkscape:pageopacity="0"
   inkscape:pageshadow="2"
   inkscape:window-width="1280"
   inkscape:window-height="961"
   id="namedview43"
   showgrid="false"
   inkscape:zoom="1.5910255"
   inkscape:cx="163.13161"
   inkscape:cy="87.011105"
   inkscape:window-x="1272"
   inkscape:window-y="-8"
   inkscape:window-maximized="1"
   inkscape:current-layer="Capa_1"
   fit-margin-top="10"
   fit-margin-left="10"
   fit-margin-right="10"
   fit-margin-bottom="10" />
<path
   sodipodi:nodetypes="ccsscccsssc"
   inkscape:connector-curvature="0"
   id="path3775"
   d="M 104.02181,21.396582 26.257006,42.231194 c -1.540404,0.411873 -2.960369,1.055738 -4.233268,1.882303 -5.274141,3.424797 -8.019945,9.995854 -6.310581,16.375921 L 46.065208,173.77641 c 2.122668,7.92131 10.338787,12.66529 18.259889,10.54365 l 77.764163,-20.83421 c 1.5396,-0.4131 2.96038,-1.05573 4.23328,-1.8823 5.27414,-3.4248 8.01912,-9.99711 6.30977,-16.37718 L 122.28088,31.938995 C 120.15902,24.018929 111.94209,19.273691 104.02181,21.396582 z"
   style="fill:#f1f1ef;fill-opacity:1;stroke:#787878;stroke-width:8.42383194;stroke-miterlimit:4;stroke-opacity:1;stroke-dasharray:none" /><path
   sodipodi:nodetypes="sscccccccccsccccscscscccccccccccccccccsccscscccccsssscccccccccsccccccccc"
   inkscape:connector-curvature="0"
   id="path3835"
   d="m 82.153538,40.332428 c -11.382264,-0.02137 -23.236754,4.696191 -29.96875,9.78125 -11.869321,8.96548 -21.178566,26.71764 -15.65625,47.78125 5.511272,21.020412 23.794541,28.606722 35.25,32.281252 2.425191,0.7777 5.973608,1.2198 10.1875,1.375 1.20139,4.38809 2.217057,8.62857 2.96875,11.96875 -4.351083,0.68507 -9.265826,5.23287 -12.15625,8.59375 -0.0012,0.002 9.8e-4,0.0292 0,0.0312 -0.197115,-0.0929 -0.405738,-0.1948 -0.625,-0.25 -1.822548,-0.45845 -3.697859,0.64624 -4.15625,2.46875 -0.458349,1.82254 0.677501,3.6666 2.5,4.125 1.82251,0.45838 3.66661,-0.64625 4.125,-2.46875 0.186231,-0.74042 0.117253,-1.47044 -0.15625,-2.125 3.095516,-1.56373 7.00329,-3.27508 8.40625,-1.4375 1.88528,2.4696 -2.866408,9.91816 -3.5625,13.875 -0.0039,0.004 -0.03061,0.0305 -0.03125,0.0312 -1.04089,0.36686 -1.898314,1.19402 -2.1875,2.34375 -0.45839,1.82249 0.64625,3.69784 2.46875,4.15625 1.822502,0.45838 3.69784,-0.6775 4.15625,-2.5 0.26859,-1.06786 -0.02088,-2.13589 -0.65625,-2.9375 2.02977,-3.51476 1.392707,-12.34144 4.53125,-13.78125 2.17041,-0.99568 4.67134,2.15992 6.5,4.84375 -0.48872,0.43741 -0.85936,1.00406 -1.03125,1.6875 -0.4584,1.82249 0.67747,3.6979 2.5,4.15625 0.62716,0.15775 1.23769,0.114 1.8125,-0.0625 -1.20148,-2.19381 -1.89077,-4.70794 -1.84375,-7.375 l 0.0312,-1.125 c -1.06467,-3.93292 -2.94841,-8.71087 -5.84375,-11 2.04232,-3.84443 4.35477,-9.0235 4.78125,-13.4375 0.493,-0.031 1.00275,-0.0894 1.5,-0.125 l 0.4375,-24.6875 c -1.86843,1.5482 -3.79576,2.99269 -5.8125,4.28125 -2.41285,-3.2196 -6.04047,-6.43633 -9.3125,-9 2.73889,-3.603412 2.43161,-10.786642 1.71875,-15.406252 2e-4,-0.001 0.02925,-0.0273 0.03125,-0.0312 0.2015,-0.0899 0.40694,-0.18 0.59375,-0.3125 1.53292,-1.08712 1.89964,-3.2171 0.8125,-4.75 -0.19537,-0.27544 -0.43451,-0.52059 -0.6875,-0.71875 -1.15497,-0.90491 -2.805058,-0.98554 -4.0625,-0.0937 -1.5329,1.08717 -1.89965,3.21711 -0.8125,4.75 0.44176,0.62255 1.04351,1.0637 1.71875,1.28125 -0.823662,3.36729 -2.100071,7.4405 -4.40625,7.3125 -3.105835,-0.1724 -5.629531,-8.65867 -8.1875,-11.75 0.402041,-1.03162 0.28172,-2.24873 -0.40625,-3.21875 -1.08716,-1.53287 -3.185841,-1.86841 -4.71875,-0.78125 -1.532841,1.0872 -1.899647,3.2171 -0.8125,4.75 0.639121,0.90122 1.630514,1.37105 2.65625,1.40625 1.36355,3.82541 8.475807,9.05778 7.53125,12.375 -0.654357,2.29777 -4.677302,2.16746 -7.90625,1.8125 -0.01483,-0.65567 -0.217308,-1.30017 -0.625,-1.875 -1.08717,-1.53288 -3.217119,-1.89966 -4.75,-0.8125 -1.532883,1.08717 -1.868417,3.2171 -0.78125,4.750002 1.087172,1.53287 3.185868,1.89967 4.71875,0.8125 0.323386,-0.22935 0.596037,-0.506 0.8125,-0.8125 0.0036,-0.006 0.02765,-0.0252 0.03125,-0.0312 3.62318,1.91945 9.231299,4.20843 13.40625,3.625 1.194531,3.29286 2.338808,7.38223 2.6875,11.625 -2.112012,0.57846 -4.287893,0.93059 -6.5625,1.0625 -18.109209,-2.30221 -29.197338,-14.65651 -26.28125,-39.500002 2.790901,-23.774416 40.12549,-33.369653 48.9375,-21.65625 0.53372,0.70943 0.97421,1.3999 1.34375,2.09375 l 0.21875,-13.59375 c -4.6177,-2.661499 -9.93556,-3.771036 -15.375,-3.78125 z m 15.375,3.78125 c 0.72444,0.417545 1.43614,0.879486 2.125,1.375 -0.69234,-0.501359 -1.39443,-0.953925 -2.125,-1.375 z m -0.15625,120.156252 c 0.1404,-0.0431 0.27323,-0.0957 0.40625,-0.15625 -0.13049,0.0584 -0.2693,0.1142 -0.40625,0.15625 z m 0.46875,-6.3125 c 0.40917,0.19571 0.76753,0.48756 1.0625,0.8125 -0.29224,-0.32625 -0.65461,-0.61618 -1.0625,-0.8125 z"
   style="opacity:0.68999999;fill:#000000;fill-opacity:1;fill-rule:evenodd;stroke:none" /><path
   style="font-size:medium;font-style:normal;font-variant:normal;font-weight:normal;font-stretch:normal;text-indent:0;text-align:start;text-decoration:none;line-height:normal;letter-spacing:normal;word-spacing:normal;text-transform:none;direction:ltr;block-progression:tb;writing-mode:lr-tb;text-anchor:start;baseline-shift:baseline;color:#000000;fill:#ffffff;fill-opacity:1;fill-rule:nonzero;stroke:none;stroke-width:2;marker:none;visibility:visible;display:inline;overflow:visible;enable-background:accumulate;font-family:Sans;-inkscape-font-specification:Sans"
   d="m 106.68479,15.707428 c -1.33653,0.07772 -2.67019,0.299818 -4,0.65625 l -77.781252,20.84375 c -2.074411,0.554656 -3.994719,1.41174 -5.71875,2.53125 -7.136344,4.63403 -10.8012221,13.50462 -8.5,22.09375 l 30.34375,113.281252 c 2.858697,10.668 13.955769,17.10772 24.625,14.25 l 77.781252,-20.84375 c 2.0678,-0.55483 3.99159,-1.4097 5.71875,-2.53125 7.13571,-4.63362 10.833,-13.50256 8.53125,-22.09375 l -30.375,-113.281252 c -2.50047,-9.333244 -11.30233,-15.44832 -20.625,-14.90625 z m 0.125,2 c 8.38067,-0.487298 16.30921,4.995604 18.5625,13.40625 l 30.375,113.281252 c 2.07461,7.74339 -1.23488,15.73649 -7.65625,19.90625 -1.54732,1.00477 -3.28575,1.77936 -5.15625,2.28125 l -77.781252,20.84375 c -9.610565,2.57416 -19.611823,-3.20066 -22.1875,-12.8125 L 12.622288,61.332428 c -2.075288,-7.745848 1.205392,-15.737636 7.625,-19.90625 1.545843,-1.003802 3.281443,-1.779964 5.15625,-2.28125 l 77.781252,-20.84375 c 1.20517,-0.323026 2.43249,-0.524407 3.625,-0.59375 z m 2.65625,6.5 c -1.49751,-0.209098 -3.03379,-0.136872 -4.59375,0.28125 l -77.781252,20.84375 c -1.2069,0.3227 -2.314389,0.82062 -3.3125,1.46875 -4.126632,2.679654 -6.313245,7.82552 -4.96875,12.84375 l 30.34375,113.281252 c 1.668938,6.22809 8.118172,9.94875 14.34375,8.28125 l 77.750002,-20.8125 c 1.20974,-0.32459 2.31666,-0.82209 3.3125,-1.46875 4.12935,-2.68143 6.3136,-7.85541 4.96875,-12.875 L 119.18479,32.769928 c -1.2512,-4.67021 -5.20507,-7.932252 -9.71875,-8.5625 z m -0.28125,2 0.0312,0 c 3.74256,0.522574 6.99151,3.18156 8.03125,7.0625 l 30.3438,113.281252 c 1.11619,4.16611 -0.68362,8.47311 -4.09375,10.6875 -0.82128,0.5333 -1.73964,0.94766 -2.75,1.21875 l -77.750002,20.8125 c -5.179034,1.38718 -10.51889,-1.66644 -11.90625,-6.84375 L 20.747288,59.144928 c -1.116451,-4.16707 0.67977,-8.43936 4.09375,-10.65625 0.823611,-0.534818 1.744502,-0.9499 2.75,-1.21875 l 77.781252,-20.84375 c 1.27988,-0.34305 2.56774,-0.388805 3.8125,-0.21875 z"
   id="path3849"
   inkscape:connector-curvature="0" /><polyline
   id="polyline7"
   points="122.688,28.957    122.688,29.207 122.7,29.207  "
   style="fill:none;stroke:#ffffff;stroke-width:0;stroke-linecap:round;stroke-linejoin:round"
   transform="matrix(0.74544157,0,0,0.74544157,23.546517,-11.585755)" />
<g
   id="g13"
   transform="translate(-15.158962,-45.355072)">
</g>
<g
   id="g15"
   transform="translate(-15.158962,-45.355072)">
</g>
<g
   id="g17"
   transform="translate(-15.158962,-45.355072)">
</g>
<g
   id="g19"
   transform="translate(-15.158962,-45.355072)">
</g>
<g
   id="g21"
   transform="translate(-15.158962,-45.355072)">
</g>
<g
   id="g23"
   transform="translate(-15.158962,-45.355072)">
</g>
<g
   id="g25"
   transform="translate(-15.158962,-45.355072)">
</g>
<g
   id="g27"
   transform="translate(-15.158962,-45.355072)">
</g>
<g
   id="g29"
   transform="translate(-15.158962,-45.355072)">
</g>
<g
   id="g31"
   transform="translate(-15.158962,-45.355072)">
</g>
<g
   id="g33"
   transform="translate(-15.158962,-45.355072)">
</g>
<g
   id="g35"
   transform="translate(-15.158962,-45.355072)">
</g>
<g
   id="g37"
   transform="translate(-15.158962,-45.355072)">
</g>
<g
   id="g39"
   transform="translate(-15.158962,-45.355072)">
</g>
<g
   id="g41"
   transform="translate(-15.158962,-45.355072)">
</g>
<path
   style="fill:#f1f1ef;fill-opacity:1;stroke:#e37222;stroke-width:8.42349052;stroke-miterlimit:4;stroke-opacity:1;stroke-dasharray:none"
   d="M 193.27444,26.408734 112.7796,24.985835 c -1.59425,-0.02898 -3.13673,0.198247 -4.58823,0.641654 -6.01419,1.837216 -10.465932,7.396019 -10.582642,14.000078 l -2.07249,117.264193 c -0.14455,8.19951 6.444362,15.02566 14.643382,15.17115 l 80.49413,1.42311 c 1.59382,0.0276 3.13673,-0.19824 4.58823,-0.64165 6.01419,-1.83722 10.4655,-7.39745 10.58221,-14.00151 l 2.07319,-117.264399 c 0.14499,-8.198092 -6.44435,-15.025671 -14.64294,-15.169727 z"
   id="path3773"
   inkscape:connector-curvature="0"
   sodipodi:nodetypes="ccsscccsssc" /><path
   inkscape:connector-curvature="0"
   style="opacity:0.68999999;fill:#e37222;fill-opacity:1;stroke:none"
   d="m 101.49729,46.957428 -0.5625,36.5 c 10.98031,4.75366 16.73945,-15.17805 4.3125,-32.375 -1.13427,-1.569678 -2.39808,-2.938075 -3.75,-4.125 z m 47.875,23.9375 c -16.43982,0.78167 -30.70175,12.3419 -39.71875,22.46875 -2.82892,3.13951 -5.83347,6.37155 -9.03125,9.406252 l -0.4375,28.09375 c 12.4753,-1.18434 25.32769,-3.68195 31.90625,-6.78125 l 17.28125,-53.187502 z"
   id="path3820" /><path
   style="font-size:medium;font-style:normal;font-variant:normal;font-weight:normal;font-stretch:normal;text-indent:0;text-align:start;text-decoration:none;line-height:normal;letter-spacing:normal;word-spacing:normal;text-transform:none;direction:ltr;block-progression:tb;writing-mode:lr-tb;text-anchor:start;baseline-shift:baseline;color:#000000;fill:#ffffff;fill-opacity:1;fill-rule:nonzero;stroke:none;stroke-width:2;marker:none;visibility:visible;display:inline;overflow:visible;enable-background:accumulate;font-family:Sans;-inkscape-font-specification:Sans"
   d="m 112.87229,19.769928 c -2.1568,-0.03921 -4.23261,0.277815 -6.1875,0.875 -8.135342,2.485186 -14.124102,9.982741 -14.281252,18.875 l -2.09375,117.281252 c -0.19468,11.04353 8.70811,20.27282 19.750002,20.46875 l 80.5,1.4375 c 2.1508,0.0372 4.25736,-0.27583 6.21875,-0.875 8.13595,-2.48538 14.12411,-9.98297 14.28125,-18.875 l 2.0625,-117.281252 c 0.19531,-11.042857 -8.70729,-20.274721 -19.75,-20.46875 l -80.5,-1.4375 z m -0.0625,2 80.5,1.4375 c 9.94961,0.174823 17.98843,8.458693 17.8125,18.40625 l -2.0625,117.281252 c -0.14166,8.01591 -5.5205,14.76288 -12.84375,17 -1.77243,0.54145 -3.66745,0.84586 -5.59375,0.8125 l -80.5,-1.4375 c -9.94925,-0.17655 -17.987882,-8.45788 -17.812502,-18.40625 l 2.09375,-117.281252 c 0.14167,-8.016059 5.52115,-14.763092 12.843752,-17 1.77377,-0.541855 3.63208,-0.847592 5.5625,-0.8125 z m -0.0625,6.4375 c -1.23858,-0.02251 -2.44599,0.11813 -3.59375,0.46875 -4.70699,1.437892 -8.2519,5.801567 -8.34375,11 L 98.747288,156.92618 c -0.1136,6.44355 5.022702,11.82311 11.468752,11.9375 l 80.5,1.40625 c 1.25992,0.0218 2.46609,-0.15552 3.59375,-0.5 4.70345,-1.43681 8.22072,-5.77436 8.3125,-10.96875 l 2.09375,-117.281252 c 0.11392,-6.441817 -5.02709,-11.793065 -11.46875,-11.90625 l -0.0312,0 -0.0312,0 -80.4375,-1.40625 z m -0.0625,2 80.46875,1.40625 0.0312,0 0.0312,0 c 5.34541,0.110974 9.59461,4.494199 9.5,9.84375 l -2.09375,117.281252 c -0.0762,4.31391 -2.98089,7.90418 -6.875,9.09375 -0.94452,0.28854 -1.93049,0.45548 -2.96875,0.4375 l -80.5,-1.40625 c -5.35889,-0.0951 -9.62579,-4.51241 -9.53125,-9.875 l 2.0625,-117.250002 c 0.0761,-4.309485 3.01442,-7.936122 6.90625,-9.125 0.92958,-0.283968 1.91755,-0.425359 2.96875,-0.40625 z"
   id="path3843"
   inkscape:connector-curvature="0" /><path
   sodipodi:nodetypes="ccsscccsssc"
   inkscape:connector-curvature="0"
   id="path11"
   d="M 256.32777,50.480132 179.76048,25.602511 c -1.51623,-0.493483 -3.0578,-0.726806 -4.57552,-0.726806 -6.28854,0 -12.17008,4.015694 -14.21109,10.29753 L 124.73274,146.7159 c -2.53377,7.79955 1.7734,16.25286 9.5722,18.78736 l 76.56655,24.87762 c 1.51622,0.49199 3.0578,0.72681 4.57551,0.72681 6.28856,0 12.17009,-4.01719 14.2111,-10.29902 L 265.89998,69.266008 c 2.53376,-7.79807 -1.77341,-16.252865 -9.57221,-18.785876 z"
   style="fill:#f1f1ef;fill-opacity:1;stroke:#07889b;stroke-width:8.42349052;stroke-miterlimit:4;stroke-opacity:1;stroke-dasharray:none" /><path
   style="opacity:0.68999999;fill:#07889b;fill-opacity:1;fill-rule:evenodd;stroke:none"
   d="m 200.02854,50.988678 c -0.65564,-0.01 -1.31619,0.177143 -1.90625,0.5625 -1.57344,1.027586 -2.02761,3.14526 -1,4.71875 0.22479,0.34417 0.501,0.61131 0.8125,0.84375 -2.33382,4.02416 -5.25753,10.5907 -3.8125,14.875 -4.07538,1.68341 -9.5613,4.34195 -13.1875,7.65625 -6.99046,-3.66617 -14.71945,-6.4085 -22.1875,-8 -1.73412,-0.3696 -3.4588,-0.607 -5.15625,-0.71875 l -15.59375,50.093752 c 9.15607,-4.98084 15.15234,-9.43157 23.71875,-12.3125 1.14949,-0.38657 2.22278,-0.75263 3.21875,-1.125 -0.41757,6.11992 0.64721,11.241 1.78125,14.75 -4.71865,0.017 -9.98865,5.89393 -12.875,9.96875 -0.21213,-0.0785 -0.45543,-0.1512 -0.6875,-0.1875 -1.85754,-0.28536 -3.58965,0.98625 -3.875,2.84375 -0.28533,1.85749 0.9863,3.6209 2.84375,3.90625 1.85749,0.28532 3.62089,-1.01747 3.90625,-2.875 0.11585,-0.75463 -0.0413,-1.46777 -0.375,-2.09375 2.93536,-1.84758 6.68073,-3.91657 8.25,-2.21875 2.10803,2.28049 -1.95697,10.15022 -2.28125,14.15625 -0.9991,0.46386 -1.75789,1.39284 -1.9375,2.5625 -0.28531,1.8575 0.98627,3.6209 2.84375,3.90625 1.85751,0.28532 3.58965,-1.01751 3.875,-2.875 0.16807,-1.09419 -0.1911,-2.13595 -0.90625,-2.875 1.67735,-3.70016 0.20292,-12.43109 3.1875,-14.15625 2.06726,-1.19518 4.86501,1.71839 6.9375,4.21875 -0.44548,0.48132 -0.73676,1.11594 -0.84375,1.8125 -0.28532,1.8575 0.98627,3.58965 2.84375,3.875 1.85753,0.28536 3.58964,-0.98625 3.875,-2.84375 0.28532,-1.8575 -0.98626,-3.6209 -2.84375,-3.90625 -0.40631,-0.0624 -0.80648,-0.0454 -1.1875,0.0312 -1.32241,-4.0693 -3.88843,-9.94346 -7.53125,-12.25 1.50978,-5.47275 4.34721,-15.04751 7,-19.9375 1.93133,-0.35076 3.97249,-0.45746 6.4375,-0.1875 4.03903,0.44239 7.34989,2.77753 10.46875,4.5625 -11.34886,11.89653 -1.59375,26.3125 -1.59375,26.3125 0,0 0.17496,0.0773 0.46875,0.21875 0.0137,0.02 0.0174,0.0425 0.0312,0.0625 1.78602,2.59938 4.85478,3.81603 7.78125,3.40625 0.003,-0.002 0.0302,0.002 0.0312,0 8.15289,3.35818 19.9314,7.37955 24.03125,4.5625 3.9259,-2.69743 4.29688,-14.47425 4.09375,-23.21875 2.33162,-2.70218 2.67771,-6.73405 0.5625,-9.8125 -0.85443,-1.24353 -2.0015,-2.19586 -3.28125,-2.78125 -3.75617,-3.7106 -11.68135,-9.429712 -22.0625,-5.46875 -2.91285,-6.194082 -8.15403,-11.738322 -14.65625,-16.343752 1.69201,-4.08336 4.20859,-7.75728 6.34375,-10.40625 3.36628,3.14114 10.8735,3.14503 15.65625,2.59375 0.004,0.003 -6.7e-4,0.0306 0,0.0312 0.0822,0.20479 0.18726,0.40198 0.3125,0.59375 1.02758,1.57343 3.14526,2.0276 4.71875,1 1.57343,-1.02759 1.99635,-3.14526 0.96875,-4.71875 -1.02764,-1.57348 -3.11402,-2.02761 -4.6875,-1 -0.63925,0.41748 -1.10047,1.02111 -1.34375,1.6875 -3.33045,-0.95212 -7.37222,-2.36 -7.15625,-4.65625 0.29139,-3.09692 8.87538,-5.31249 12.0625,-7.75 0.003,-10e-4 0.0292,4.4e-4 0.0312,0 1.00762,0.42367 2.20406,0.361 3.1875,-0.28125 1.57344,-1.02758 2.02761,-3.14527 1,-4.71875 -0.18456,-0.2828 -0.41105,-0.54226 -0.65625,-0.75 -0.002,-9e-4 -0.0292,0.001 -0.0312,0 -10e-4,-0.003 5.2e-4,-0.0282 0,-0.0312 -0.002,-10e-4 -0.0292,-0.0302 -0.0312,-0.0312 -0.006,-0.004 -0.0264,0.004 -0.0312,0 -1.11589,-0.86942 -2.71834,-0.97285 -3.96875,-0.15625 -0.92193,0.6021 -1.45385,1.57382 -1.53125,2.59375 -3.87567,1.20425 -9.3739,8.13481 -12.65625,7.0625 -2.2711,-0.74206 -1.97848,-4.75577 -1.5,-7.96875 0.65578,0.0103 1.31619,-0.17715 1.90625,-0.5625 1.57343,-1.02758 1.99637,-3.14526 0.96875,-4.71875 -0.64223,-0.983396 -1.68852,-1.514631 -2.78125,-1.53125 z"
   id="path3815"
   inkscape:connector-curvature="0" /><path
   style="font-size:medium;font-style:normal;font-variant:normal;font-weight:normal;font-stretch:normal;text-indent:0;text-align:start;text-decoration:none;line-height:normal;letter-spacing:normal;word-spacing:normal;text-transform:none;direction:ltr;block-progression:tb;writing-mode:lr-tb;text-anchor:start;baseline-shift:baseline;color:#000000;fill:#ffffff;fill-opacity:1;fill-rule:nonzero;stroke:none;stroke-width:2;marker:none;visibility:visible;display:inline;overflow:visible;enable-background:accumulate;font-family:Sans;-inkscape-font-specification:Sans"
   d="m 175.18479,19.676178 c -8.50604,0 -16.40785,5.415955 -19.15625,13.875 l -36.25,111.562502 c -3.41268,10.50505 2.40231,21.93012 12.90625,25.34375 l 76.5625,24.875 c 2.0384,0.66143 4.13008,1 6.1875,1 8.50928,0 16.40816,-5.44817 19.15625,-13.90625 l 36.25,-111.531252 c 3.41305,-10.50424 -2.40098,-21.931691 -12.90625,-25.34375 l -76.5625,-24.90625 c -2.05315,-0.668231 -4.14454,-0.96875 -6.1875,-0.96875 z m 0,2 c 1.85578,0 3.72843,0.246821 5.5625,0.84375 l 76.5625,24.90625 c 9.46341,3.073669 14.73064,13.38179 11.65625,22.84375 l -36.25,111.531252 c -2.47737,7.62486 -9.62607,12.53125 -17.28125,12.53125 -1.84686,0 -3.72256,-0.27797 -5.5625,-0.875 l -76.5625,-24.875 c -9.46258,-3.07521 -14.73037,-13.38086 -11.65625,-22.84375 l 36.25,-111.562502 c 2.47718,-7.624293 9.62419,-12.5 17.28125,-12.5 z m 0,6.40625 c -4.92325,0 -9.55034,3.151087 -11.15625,8.09375 L 127.80979,147.70743 c -1.98824,6.12027 1.35839,12.71533 7.46875,14.71875 0.0437,0.0146 0.0257,-0.009 0.0625,0 l 76.53125,24.875 c 1.18343,0.38401 2.3706,0.59375 3.5625,0.59375 4.91801,0 9.54985,-3.1183 11.15625,-8.0625 l 36.25,-111.562502 c 1.9913,-6.12856 -1.37274,-12.72865 -7.5,-14.71875 l -76.5625,-24.875 c -1.1853,-0.385777 -2.39911,-0.59375 -3.59375,-0.59375 z m 0,2 c 0.9775,0 1.97635,0.145755 2.96875,0.46875 l 76.5625,24.875 c 5.09926,1.65622 7.9063,7.12123 6.25,12.21875 l -36.25,111.562502 c -1.33218,4.10018 -5.20948,6.6875 -9.28125,6.6875 -0.97466,0 -1.93439,-0.14326 -2.9375,-0.46875 l -76.5625,-24.875 c -0.0218,-0.007 -0.0112,0.006 -0.0312,0 -5.084,-1.6669 -7.87293,-7.1268 -6.21875,-12.21875 l 36.2187,-111.531252 c 1.33255,-4.101343 5.21344,-6.71875 9.28125,-6.71875 z"
   id="path3837"
   inkscape:connector-curvature="0" /></svg>