<?xml version="1.0" encoding="UTF-8" standalone="no"?>
<!-- Generator: Adobe Illustrator 16.0.0, SVG Export Plug-In . SVG Version: 6.00 Build 0)  -->

<svg
   xmlns:dc="http://purl.org/dc/elements/1.1/"
   xmlns:cc="http://creativecommons.org/ns#"
   xmlns:rdf="http://www.w3.org/1999/02/22-rdf-syntax-ns#"
   xmlns:svg="http://www.w3.org/2000/svg"
   xmlns="http://www.w3.org/2000/svg"
   xmlns:sodipodi="http://sodipodi.sourceforge.net/DTD/sodipodi-0.dtd"
   xmlns:inkscape="http://www.inkscape.org/namespaces/inkscape"
   version="1.1"
   id="Layer_1"
   x="0px"
   y="0px"
   width="59.527px"
   height="59.527px"
   viewBox="-8.504 -8.504 59.527 59.527"
   enable-background="new -8.504 -8.504 59.527 59.527"
   xml:space="preserve"
   sodipodi:docname="Alignement-Bon.svg"
   inkscape:version="0.92.0 r15299"><metadata
   id="metadata11"><rdf:RDF><cc:Work
       rdf:about=""><dc:format>image/svg+xml</dc:format><dc:type
         rdf:resource="http://purl.org/dc/dcmitype/StillImage" /></cc:Work></rdf:RDF></metadata><defs
   id="defs9" /><sodipodi:namedview
   pagecolor="#ffffff"
   bordercolor="#666666"
   borderopacity="1"
   objecttolerance="10"
   gridtolerance="10"
   guidetolerance="10"
   inkscape:pageopacity="0"
   inkscape:pageshadow="2"
   inkscape:window-width="737"
   inkscape:window-height="480"
   id="namedview7"
   showgrid="false"
   inkscape:zoom="3.9645875"
   inkscape:cx="-4.0357288"
   inkscape:cy="29.7635"
   inkscape:window-x="0"
   inkscape:window-y="0"
   inkscape:window-maximized="0"
   inkscape:current-layer="Layer_1" />
<path
   d="M 30.267578 1.703125 C 28.998578 1.689125 27.73375 1.7246406 26.46875 1.8066406 C 25.66975 1.8586406 24.903688 2.0247656 24.179688 2.3847656 C 23.615687 2.6657656 23.01825 2.8772031 22.40625 3.0332031 C 21.59225 3.2412031 20.801344 3.5109375 20.027344 3.8359375 C 18.971344 4.2789375 17.937062 4.7582813 17.039062 5.4882812 C 16.704062 5.7612813 16.324234 5.9502344 15.865234 5.9902344 C 15.214234 6.0472344 14.664484 6.3739062 14.146484 6.7539062 C 13.883484 6.9469062 13.670734 7.1942031 13.427734 7.4082031 C 13.224734 7.5872031 13.015094 7.763125 12.746094 7.828125 C 12.609094 7.863125 12.484094 7.9102813 12.371094 7.9882812 C 11.180094 8.7942813 10.154469 9.7667969 9.3554688 10.966797 C 8.8014687 11.798797 8.3547031 12.689828 7.8457031 13.548828 C 7.6757031 13.836828 7.5001562 14.122859 7.2851562 14.380859 C 7.1131562 14.587859 6.9098594 14.730859 6.6308594 14.755859 C 6.3698594 14.779859 6.1780156 14.921625 6.0410156 15.140625 C 5.9260156 15.321625 5.8378125 15.513937 5.7578125 15.710938 C 5.4748125 16.405938 5.1265469 17.058781 4.6855469 17.675781 C 3.9865469 18.654781 3.5037656 19.752531 3.1347656 20.894531 C 2.9007656 21.618531 2.8737813 22.399516 2.5507812 23.103516 C 2.0327813 25.098516 1.8542188 27.117922 2.0742188 29.169922 C 2.2282187 30.601922 2.4996094 32.01025 2.8496094 33.40625 C 3.0566094 34.22925 3.293875 35.047672 3.421875 35.888672 C 3.500875 36.407672 3.53025 36.925266 3.53125 37.447266 C 3.53225 37.744266 3.5765625 38.038469 3.8515625 38.230469 C 3.9835625 38.320469 4.0896406 38.435453 4.1816406 38.564453 C 4.4046406 38.880453 4.5807031 39.222031 4.7207031 39.582031 C 5.1957031 40.798031 5.6883437 42.007781 6.2773438 43.175781 C 6.9023438 44.416781 7.7039531 45.514453 8.7519531 46.439453 C 9.4909531 47.090453 10.235859 47.733609 11.005859 48.349609 C 11.568859 48.801609 12.169469 49.204203 12.730469 49.658203 C 13.500469 50.280203 14.158953 51.014734 14.751953 51.802734 C 15.257953 52.475734 15.893063 52.976406 16.664062 53.316406 C 18.327063 54.051406 19.985391 54.796297 21.650391 55.529297 C 22.640391 55.965297 23.654922 56.34375 24.669922 56.71875 C 25.064922 56.86475 25.464625 57.028078 25.765625 57.330078 C 25.979625 57.544078 26.222859 57.658703 26.505859 57.720703 C 27.062859 57.842703 27.627406 57.845922 28.191406 57.794922 C 28.803406 57.743922 29.392734 57.61625 29.927734 57.28125 C 30.238734 57.08625 30.59875 56.983844 30.96875 56.964844 C 31.38775 56.943844 31.799125 56.88525 32.203125 56.78125 C 33.108125 56.54725 34.017313 56.324125 34.945312 56.203125 C 35.828313 56.087125 36.685859 55.876156 37.505859 55.535156 C 39.543859 54.691156 41.531562 53.740125 43.476562 52.703125 C 44.485563 52.163125 45.479578 51.594234 46.267578 50.740234 C 46.356578 50.643234 46.46375 50.554531 46.59375 50.519531 C 46.70475 50.488531 46.797719 50.434234 46.886719 50.365234 C 47.241719 50.092234 47.559953 49.776891 47.876953 49.462891 C 49.417953 47.922891 50.758641 46.214656 52.056641 44.472656 C 52.772641 43.510656 53.400078 42.498094 53.830078 41.371094 C 54.100078 40.665094 54.429625 39.985547 54.765625 39.310547 C 54.999625 38.844547 55.214281 38.366188 55.363281 37.867188 C 55.651281 36.913188 55.934078 35.959 56.205078 35 C 56.413078 34.27 56.604578 33.535484 56.642578 32.771484 C 56.665578 32.320484 56.731531 31.880844 56.894531 31.464844 C 57.159531 30.796844 57.250328 30.105563 57.236328 29.476562 C 57.240328 28.604563 57.141859 27.821969 57.005859 27.042969 C 56.704859 25.324969 56.229 23.650625 55.625 22.015625 C 54.39 18.674625 52.725875 15.543469 50.921875 12.480469 C 50.602875 11.938469 50.188359 11.491469 49.693359 11.105469 C 49.166359 10.692469 48.622312 10.299969 48.070312 9.9179688 C 47.381312 9.4409687 46.710125 8.9397656 46.078125 8.3847656 C 45.182125 7.5967656 44.190656 6.9480781 43.097656 6.4550781 C 42.311656 6.1020781 41.580516 5.6582187 40.853516 5.1992188 C 39.586516 4.4012187 38.276531 3.6993125 36.769531 3.4453125 C 36.199531 3.3493125 35.679203 3.08575 35.158203 2.84375 C 33.608203 2.12275 31.986578 1.721125 30.267578 1.703125 z M 28.671875 4.5390625 C 28.997422 4.5355 29.323641 4.5419375 29.650391 4.5546875 C 30.582391 4.5906875 31.507922 4.6924375 32.419922 4.8984375 C 33.084922 5.0484375 33.704453 5.3066094 34.314453 5.5996094 C 35.408453 6.1236094 36.547047 6.5561406 37.623047 7.1191406 C 38.209047 7.4261406 38.7325 7.8333437 39.3125 8.1523438 C 41.1205 9.1443437 42.751516 10.386875 44.353516 11.671875 C 44.798516 12.028875 45.217281 12.41225 45.738281 12.65625 C 46.196281 12.86925 46.574156 13.176016 46.910156 13.541016 C 47.188156 13.845016 47.409094 14.191922 47.621094 14.544922 C 48.429094 15.893922 49.137922 17.291438 49.669922 18.773438 C 49.780922 19.079438 49.820391 19.402844 49.900391 19.714844 C 49.991391 20.068844 50.098531 20.416922 50.394531 20.669922 C 50.519531 20.778922 50.553562 20.941609 50.601562 21.099609 C 50.755562 21.612609 50.973828 22.104563 51.173828 22.601562 C 51.534828 23.502563 51.940766 24.387641 52.259766 25.306641 C 52.510766 26.027641 52.568672 26.767484 52.513672 27.521484 C 52.423672 28.789484 52.3165 30.055312 52.1875 31.320312 C 52.0515 32.659312 51.925281 33.9995 51.613281 35.3125 C 51.499281 35.7975 51.326219 36.257359 51.074219 36.693359 C 50.764219 37.235359 50.573234 37.832969 50.365234 38.417969 C 50.055234 39.293969 49.666688 40.132781 49.179688 40.925781 C 49.039687 41.153781 48.92025 41.394047 48.78125 41.623047 C 48.68425 41.783047 48.682656 41.973719 48.597656 42.136719 C 48.457656 42.407719 48.292469 42.663297 48.105469 42.904297 C 46.888469 44.486297 45.532234 45.937937 43.990234 47.210938 C 43.765234 47.394937 43.524531 47.551359 43.269531 47.693359 C 42.914531 47.891359 42.594609 48.138984 42.349609 48.458984 C 41.913609 49.032984 41.365344 49.483719 40.777344 49.886719 C 39.587344 50.701719 38.323313 51.376031 36.945312 51.832031 C 35.860312 52.192031 34.744563 52.360188 33.601562 52.367188 C 33.036563 52.369188 32.47225 52.367188 31.90625 52.367188 C 30.93925 52.378188 29.973906 52.369641 29.003906 52.306641 C 28.821906 52.294641 28.638031 52.268094 28.457031 52.246094 C 28.417031 52.241094 28.371797 52.237844 28.341797 52.214844 C 27.991797 51.955844 27.569109 51.920891 27.162109 51.837891 C 25.618109 51.528891 24.090781 51.1445 22.550781 50.8125 C 21.556781 50.5965 20.667078 50.177906 19.830078 49.628906 C 18.813078 48.961906 17.756156 48.369797 16.660156 47.841797 C 16.336156 47.685797 16.021703 47.507594 15.720703 47.308594 C 15.426703 47.113594 15.160562 46.900984 14.976562 46.583984 C 14.802563 46.282984 14.538766 46.048703 14.259766 45.845703 C 13.622766 45.381703 13.114109 44.795109 12.662109 44.162109 C 11.994109 43.225109 11.255906 42.352609 10.378906 41.599609 C 9.8539062 41.149609 9.4857813 40.594781 9.3007812 39.925781 C 9.2127812 39.606781 9.1038437 39.297047 8.9648438 38.998047 C 8.8578438 38.767047 8.7456875 38.544234 8.5546875 38.365234 C 8.4306875 38.249234 8.3432656 38.098734 8.3222656 37.927734 C 8.2682656 37.465734 8.1199375 37.030609 7.9609375 36.599609 C 7.5009375 35.351609 7.1998281 34.061625 6.9238281 32.765625 C 6.6838281 31.635625 6.4814687 30.501516 6.3554688 29.353516 C 6.2664687 28.543516 6.29725 27.735687 6.40625 26.929688 C 6.62925 25.286687 6.9818125 23.673609 7.5078125 22.099609 C 7.6858125 21.565609 7.8843438 21.041922 8.1523438 20.544922 C 8.2303438 20.402922 8.317875 20.263672 8.421875 20.138672 C 8.736875 19.763672 8.9825937 19.345391 9.1835938 18.900391 C 9.2965937 18.651391 9.4140313 18.404547 9.5820312 18.185547 C 9.6720312 18.067547 9.7702969 17.964625 9.9042969 17.890625 C 10.027297 17.824625 10.105453 17.706656 10.189453 17.597656 C 10.386453 17.339656 10.563937 17.066344 10.710938 16.777344 C 11.525937 15.179344 12.579312 13.741703 13.695312 12.345703 C 14.482313 11.361703 15.321187 10.423547 16.242188 9.5605469 C 16.405188 9.4085469 16.574953 9.2639062 16.751953 9.1289062 C 17.045953 8.9039063 17.372141 8.7714219 17.744141 8.7324219 C 18.209141 8.6834219 18.621328 8.5080781 18.986328 8.2050781 C 19.928328 7.4230781 20.975359 6.8029062 22.068359 6.2539062 C 23.250359 5.6609063 24.471578 5.154375 25.767578 4.859375 C 26.726078 4.641125 27.695234 4.54975 28.671875 4.5390625 z M 41.951172 10.414062 L 34.53125 16.138672 L 29.294922 12.931641 L 24.054688 16.138672 L 17.265625 10.849609 L 19.980469 21.328125 L 39.091797 21.328125 L 41.951172 10.414062 z M 36.580078 22.884766 C 34.052078 22.884766 31.813562 24.159563 30.476562 26.101562 C 30.194562 26.452562 29.931406 26.831141 29.691406 27.244141 C 25.729406 19.806141 15.843656 22.578453 15.597656 30.439453 C 15.334656 38.817453 26.298406 40.938734 29.691406 49.302734 C 32.240406 42.666734 39.485094 39.641234 42.496094 34.740234 C 43.432094 33.500234 43.988281 31.959016 43.988281 30.291016 C 43.988281 29.229016 43.758516 28.218688 43.353516 27.304688 C 43.347516 27.288688 43.341938 27.273812 43.335938 27.257812 C 43.334938 27.253812 43.332078 27.250094 43.330078 27.246094 C 42.561078 25.240094 40.987813 23.919891 39.132812 23.337891 L 39.123047 23.335938 C 38.329047 23.043937 37.473078 22.884766 36.580078 22.884766 z M 36.580078 24.435547 C 39.823078 24.435547 42.435547 27.048016 42.435547 30.291016 C 42.435547 32.337016 41.3955 34.133688 39.8125 35.179688 C 40.6645 33.514688 40.527203 31.113984 39.283203 28.958984 C 37.845203 26.468984 35.378828 25.0945 33.298828 25.4375 C 34.232828 24.8045 35.361078 24.435547 36.580078 24.435547 z "
   transform="translate(-8.504,-8.504)"
   id="path2" />

</svg>