<?xml version="1.0" encoding="UTF-8" standalone="no"?>
<!-- Generator: Adobe Illustrator 16.0.0, SVG Export Plug-In . SVG Version: 6.00 Build 0)  -->

<svg
   xmlns:dc="http://purl.org/dc/elements/1.1/"
   xmlns:cc="http://creativecommons.org/ns#"
   xmlns:rdf="http://www.w3.org/1999/02/22-rdf-syntax-ns#"
   xmlns:svg="http://www.w3.org/2000/svg"
   xmlns="http://www.w3.org/2000/svg"
   xmlns:sodipodi="http://sodipodi.sourceforge.net/DTD/sodipodi-0.dtd"
   xmlns:inkscape="http://www.inkscape.org/namespaces/inkscape"
   version="1.1"
   id="Logo-PnJ_xA0_Image_1_"
   x="0px"
   y="0px"
   width="56.693001"
   height="56.693001"
   viewBox="0 0 56.693001 56.693001"
   enable-background="new 0 0 2000 1993"
   xml:space="preserve"
   sodipodi:docname="Carte_PNJ.svg"
   inkscape:version="0.92.0 r15299"><metadata
   id="metadata9"><rdf:RDF><cc:Work
       rdf:about=""><dc:format>image/svg+xml</dc:format><dc:type
         rdf:resource="http://purl.org/dc/dcmitype/StillImage" /><dc:title></dc:title></cc:Work></rdf:RDF></metadata><defs
   id="defs7" /><sodipodi:namedview
   pagecolor="#ffffff"
   bordercolor="#666666"
   borderopacity="1"
   objecttolerance="10"
   gridtolerance="10"
   guidetolerance="10"
   inkscape:pageopacity="0"
   inkscape:pageshadow="2"
   inkscape:window-width="711"
   inkscape:window-height="480"
   id="namedview5"
   showgrid="false"
   inkscape:zoom="3.7892624"
   inkscape:cx="26.670205"
   inkscape:cy="35.071875"
   inkscape:window-x="1571"
   inkscape:window-y="271"
   inkscape:window-maximized="0"
   inkscape:current-layer="Logo-PnJ_xA0_Image_1_" />
<path
   d="m 55.821,27.983206 c -0.01203,0.706322 -0.0989,1.391493 -0.36143,2.054541 -0.164456,0.41532 -0.232486,0.857231 -0.254257,1.305736 -0.0371,0.763391 -0.228363,1.499554 -0.433796,2.230216 -0.271049,0.963895 -0.544939,1.927608 -0.850737,2.880897 -0.155417,0.484424 -0.374438,0.949795 -0.580817,1.416715 -0.319018,0.721759 -0.680357,1.426257 -0.972201,2.158378 -0.437368,1.09724 -1.047833,2.088667 -1.749168,3.030834 -1.297113,1.742572 -2.635538,3.451473 -4.181167,4.987341 -0.309217,0.307259 -0.637213,0.596376 -0.96585,0.883335 -0.08809,0.07691 -0.21331,0.11025 -0.31621,0.172273 -0.108059,0.06515 -0.227844,0.124107 -0.311416,0.2143 -0.800814,0.86416 -1.806449,1.440205 -2.829887,1.985224 -1.93628,1.031175 -3.913353,1.979086 -5.94148,2.819542 -0.844722,0.350046 -1.729046,0.539671 -2.629187,0.690277 -0.84292,0.141033 -1.67323,0.355181 -2.512547,0.519674 -0.481398,0.09433 -0.968659,0.161303 -1.455187,0.226335 -0.341614,0.0457 -0.675716,0.126051 -0.962827,0.308018 -0.537337,0.340504 -1.132932,0.461116 -1.748375,0.51305 -0.609946,0.05145 -1.219678,0.04564 -1.819213,-0.107727 -0.220485,-0.05637 -0.39688,-0.172121 -0.575015,-0.318077 C 24.126755,55.754617 23.852224,55.57499 23.563037,55.451917 22.878802,55.160673 22.169315,54.928109 21.485782,54.635437 19.697683,53.869888 17.917584,53.085984 16.135469,52.306639 15.768848,52.14634 15.407387,51.97428 15.043667,51.807446 14.397996,51.511249 13.8584,51.079215 13.433306,50.515416 12.549928,49.343906 11.513819,48.339321 10.310812,47.487742 9.2079867,46.70706 8.2005799,45.80376 7.1973562,44.898515 6.2062546,44.004179 5.4580811,42.938604 4.8596155,41.756732 4.2687224,40.589872 3.7846982,39.37831 3.3005824,38.165746 3.1719429,37.843505 2.9994871,37.535578 2.8186345,37.238226 2.7214145,37.078382 2.57763,36.937957 2.4302731,36.818894 2.1709177,36.609395 2.1124452,36.326448 2.118613,36.029369 2.136048,35.192863 2.0169655,34.373071 1.8314106,33.562243 1.6836568,32.916607 1.5058271,32.27787 1.3489741,31.63424 1.0070244,30.231139 0.7506002,28.813361 0.62504458,27.373642 0.45750476,25.452446 0.65249458,23.563645 1.133954,21.700187 1.4557819,20.991313 1.4865907,20.205951 1.7210914,19.475471 2.079957,18.357688 2.5491418,17.280292 3.2299269,16.322414 3.7052488,15.653562 4.0805111,14.947909 4.3858202,14.195336 4.4520792,14.031998 4.5392533,13.875922 4.628504,13.72328 4.7592199,13.499742 4.9581792,13.363115 5.218359,13.339442 5.4981722,13.313946 5.7189937,13.181817 5.8683048,12.960922 6.1657971,12.520835 6.4572132,12.075217 6.7235914,11.616015 7.2114935,10.774921 7.6566175,9.9084515 8.2382893,9.1242138 8.9648143,8.14476 9.8543294,7.333051 10.854316,6.6395535 c 0.145953,-0.1012243 0.33395,-0.1402736 0.490467,-0.229069 0.227784,-0.1292121 0.458223,-0.2603996 0.66274,-0.4218844 0.254226,-0.2007469 0.469979,-0.4501458 0.725884,-0.6484008 0.507321,-0.3929242 1.065238,-0.7077497 1.716832,-0.7653968 0.457002,-0.040386 0.834768,-0.2311658 1.169115,-0.5035993 0.893668,-0.7281404 1.923364,-1.2051194 2.973671,-1.6473034 0.777548,-0.3273456 1.580346,-0.5795707 2.391939,-0.8129245 0.602984,-0.1733971 1.201389,-0.3856005 1.770084,-0.64855275 0.73309,-0.33892367 1.492408,-0.52146778 2.291024,-0.57309796 1.264716,-0.0817452 2.529921,-0.11641859 3.798057,-0.10222713 1.702604,0.019084 3.305727,0.42252261 4.849127,1.11969704 0.534528,0.2414676 1.081147,0.5052099 1.650116,0.6128766 1.496866,0.2832215 2.807445,0.9626186 4.068253,1.7578266 0.731349,0.461268 1.46676,0.9089828 2.255726,1.2647721 1.092658,0.4927506 2.08547,1.141668 2.981702,1.9298258 0.627076,0.5514613 1.297815,1.0417808 1.976341,1.5251413 0.53752,0.382896 1.066795,0.7772484 1.598636,1.1680149 0.531107,0.3901892 0.95443,0.8725162 1.288533,1.4412692 1.73097,2.946475 3.329911,5.958346 4.549712,9.155102 0.641335,1.680731 1.145725,3.403307 1.468988,5.174839 0.0654,0.35819 0.125861,0.718264 0.165342,1.079949 0.05331,0.487645 0.08403,0.977752 0.124395,1.466795 z M 32.346373,50.944168 c 0.696113,-0.02261 1.373204,-0.07047 2.040554,-0.219831 1.80761,-0.404563 3.432108,-1.208979 4.948027,-2.247356 0.592542,-0.40587 1.149054,-0.853037 1.582667,-1.436771 0.113311,-0.152581 0.259721,-0.288844 0.413826,-0.401616 0.285951,-0.209286 0.59297,-0.389824 0.883745,-0.59288 0.690189,-0.481842 1.296655,-1.060501 1.889135,-1.652835 0.984446,-0.984194 1.92996,-2.003518 2.733095,-3.143454 0.150471,-0.21357 0.267599,-0.452121 0.385033,-0.686629 0.112487,-0.224541 0.179662,-0.474609 0.311141,-0.686174 0.666556,-1.072473 1.184137,-2.210373 1.589292,-3.404157 0.139266,-0.410276 0.312302,-0.814779 0.519291,-1.195274 0.23731,-0.436258 0.419476,-0.886981 0.531413,-1.366847 0.358774,-1.537935 0.488757,-3.107596 0.640419,-4.67367 0.08782,-0.906917 0.144854,-1.816841 0.237982,-2.72312 0.112731,-1.097604 0.01124,-2.159259 -0.428636,-3.182686 -0.327598,-0.762206 -0.64051,-1.530824 -0.950399,-2.300384 -0.181311,-0.450206 -0.340882,-0.909074 -0.516482,-1.36162 -0.05563,-0.143404 -0.09982,-0.311909 -0.204364,-0.411644 -0.256241,-0.244476 -0.378071,-0.546569 -0.463689,-0.871969 -0.08998,-0.341963 -0.14186,-0.696537 -0.260302,-1.027894 -0.597213,-1.670064 -1.396714,-3.24252 -2.363816,-4.730071 -0.336088,-0.51694 -0.753517,-0.971279 -1.305816,-1.252161 C 43.953917,11.067684 43.428977,10.665431 42.905503,10.243698 41.311753,8.959599 39.677698,7.7305334 37.881355,6.730385 37.305332,6.4096944 36.774254,6.0043718 36.185285,5.7124288 35.099101,5.1740042 33.981588,4.6985447 32.884412,4.1816048 32.271748,3.8929742 31.653191,3.6311464 30.98914,3.4809661 30.078067,3.2749924 29.154659,3.1733122 28.223252,3.136694 26.917223,3.085398 25.618766,3.152527 24.340829,3.443497 c -1.295587,0.2949514 -2.513922,0.8003132 -3.696563,1.3935284 -1.087803,0.5456267 -2.13127,1.1648241 -3.069579,1.9430449 -0.369369,0.3063471 -0.78347,0.4861866 -1.253785,0.5361454 -0.370896,0.039414 -0.700357,0.1671068 -0.989636,0.3963885 -0.174929,0.1386326 -0.347446,0.2814285 -0.510619,0.4334321 -0.923286,0.8600572 -1.759794,1.799702 -2.545921,2.7837447 -1.115497,1.396354 -2.167209,2.835344 -2.9869236,4.43044 -0.1474179,0.286868 -0.3373086,0.553254 -0.5206344,0.820218 -0.07603,0.110796 -0.1836923,0.200959 -0.2817368,0.29562 -0.104701,0.101072 -0.2397527,0.180143 -0.3176448,0.297625 -0.1503186,0.226669 -0.2813399,0.468075 -0.3994452,0.713372 -0.2118446,0.439935 -0.4544369,0.858294 -0.764326,1.238182 -0.1018918,0.124867 -0.2015851,0.259457 -0.2656454,0.405505 -0.2254016,0.513627 -0.4635665,1.024429 -0.6450298,1.553919 -0.5380999,1.570086 -0.8813626,3.186758 -1.1038635,4.829716 -0.1091284,0.805966 -0.1637536,1.616186 -0.044488,2.422394 0.1687001,1.140422 0.346194,2.280784 0.5663133,3.412211 0.2530348,1.300661 0.5790154,2.58473 1.0271011,3.836495 0.1542881,0.431062 0.2359054,0.887377 0.3705907,1.326157 0.048915,0.159237 0.1481813,0.305557 0.2382564,0.449204 0.098686,0.157474 0.2396916,0.293128 0.3153852,0.459445 0.148334,0.326008 0.291294,0.659067 0.3879339,1.002762 0.2103485,0.748106 0.6319308,1.341503 1.2066104,1.858017 0.4555666,0.409456 0.8656071,0.869144 1.2942125,1.308107 0.06986,0.07153 0.131174,0.151335 0.198379,0.229616 0.416972,-0.246239 0.778158,-0.539489 1.103711,-0.876893 0.652877,-0.676601 1.126611,-1.470746 1.510362,-2.319437 0.109983,-0.24317 0.276882,-0.410641 0.507505,-0.518125 0.224882,-0.104811 0.464482,-0.178442 0.689182,-0.283587 0.237432,-0.1111 0.486558,-0.215333 0.69196,-0.372533 0.356881,-0.273102 0.429949,-0.720179 0.18354,-1.087789 -0.434346,-0.647975 -0.882981,-1.286773 -1.338334,-1.920375 -0.560023,-0.779254 -1.097513,-1.569873 -1.455615,-2.46664 -0.518131,-1.297531 -0.601916,-2.641496 -0.457368,-4.015545 0.03563,-0.338711 0.141159,-0.639315 0.321187,-0.91895 0.356423,-0.553589 0.706281,-1.111918 1.080413,-1.653533 0.792601,-1.147382 1.227954,-2.408477 1.284442,-3.801306 0.02974,-0.732821 0.06614,-1.465702 0.11725,-2.197367 0.09795,-1.402463 0.713823,-2.519455 1.875029,-3.335875 0.759319,-0.533835 1.594911,-0.906734 2.470289,-1.199497 1.498148,-0.501016 3.050067,-0.772447 4.597314,-1.066365 1.26719,-0.240708 2.529983,-0.504298 3.794485,-0.759107 0.276119,-0.05567 0.499505,-0.1995 0.66045,-0.428934 0.0898,-0.128027 0.169097,-0.26432 0.242897,-0.402284 0.128762,-0.240799 0.238776,-0.491991 0.376484,-0.727381 0.177311,-0.303126 0.439597,-0.520434 0.798402,-0.545262 0.21215,-0.01465 0.438956,0.02434 0.643686,0.08828 0.634099,0.198103 1.263922,0.410914 1.88941,0.634513 0.695289,0.248518 1.398455,0.43793 2.145499,0.345853 0.290225,-0.0358 0.576389,-0.104324 0.846676,-0.154617 0.172761,0.264927 0.31679,0.550853 0.520757,0.785088 0.432421,0.496641 0.903194,0.959975 1.344562,1.44917 0.311874,0.3457 0.636603,0.688088 0.89376,1.072838 0.628908,0.94083 0.819867,1.956781 0.415262,3.047852 -0.112457,0.303217 -0.202318,0.614851 -0.29792,0.924085 -0.17499,0.565927 -0.170594,1.103926 0.175326,1.625698 0.14696,0.221654 0.257889,0.493419 0.295996,0.755277 0.134074,0.920865 0.230287,1.84723 0.339202,2.77168 0.100853,0.855864 0.25108,1.701548 0.534069,2.518514 0.03832,0.110554 0.03179,0.176801 -0.056,0.261129 -0.322103,0.309355 -0.531444,0.686022 -0.638465,1.119636 -0.151327,0.613211 -0.08357,1.226088 -0.008,1.840392 0.06974,0.567142 0.158044,1.134011 0.187173,1.703614 0.03829,0.748744 -0.204486,1.447346 -0.496573,2.125194 -0.332271,0.771049 -0.694037,1.52976 -1.016323,2.30479 -0.500757,1.204269 -0.719777,2.442663 -0.370835,3.734238 0.0389,0.144042 -0.0262,0.263743 -0.141372,0.342966 -0.08583,0.05904 -0.187906,0.09873 -0.287691,0.132646 -0.163112,0.0554 -0.33453,0.08813 -0.494589,0.150393 -0.223844,0.08703 -0.309584,0.236271 -0.296637,0.475976 0.0044,0.08047 0.02424,0.160391 0.02531,0.240738 0.0044,0.323577 0.005,0.647276 0.0055,0.970884 9.16e-4,0.703374 0.01212,1.405988 -0.08595,2.106748 -0.08015,0.572551 -0.274898,1.035764 -0.908294,1.174397 -0.01979,0.0043 -0.03899,0.01203 -0.05896,0.01504 -0.602252,0.09041 -1.204076,0.184064 -1.807091,0.269273 -0.428117,0.0605 -0.856569,0.115234 -1.253694,0.301455 -0.440452,0.20652 -0.697303,0.545475 -0.741638,1.031995 -0.0047,0.05169 0.01591,0.122375 0.05133,0.158416 0.467535,0.475308 0.786523,1.040322 1.020566,1.656876 0.246683,0.64995 0.362865,1.324668 0.369033,2.041139 z m 2.493494,-25.813445 c 0.02824,-0.0035 0.04821,-0.0095 0.06757,-0.008 0.669762,0.05397 1.283281,-0.128483 1.882296,-0.410945 0.374743,-0.17674 0.770891,-0.308808 1.158794,-0.457379 0.06782,-0.02595 0.142411,-0.03428 0.220211,-0.05221 -0.273157,-0.715864 -0.415658,-1.443852 -0.520695,-2.181534 -0.09264,-0.650954 -0.177403,-1.304035 -0.302256,-1.949153 -0.161921,-0.836142 -0.53065,-1.570147 -1.205022,-2.123189 -0.06079,-0.0499 -0.150441,-0.08199 -0.229768,-0.08937 -0.295966,-0.02762 -0.490406,0.146747 -0.673763,0.348679 -0.341339,0.375906 -0.715441,0.429147 -1.161756,0.180478 -1.261418,-0.702736 -2.561035,-1.321447 -3.942787,-1.756186 -1.230641,-0.387181 -2.481709,-0.631778 -3.78157,-0.50524 -0.930369,0.09059 -1.787305,0.384081 -2.528181,0.961585 -0.165249,0.128817 -0.321095,0.169204 -0.524512,0.16343 -1.324288,-0.03753 -2.442014,0.435529 -3.362033,1.379519 -0.670525,0.687997 -1.125023,1.506999 -1.454851,2.398661 -0.538344,1.455247 -0.702922,2.966471 -0.668541,4.506685 0.0028,0.125809 0.0309,0.218737 0.164242,0.270489 0.09777,0.03796 0.192517,0.09721 0.2716,0.166286 0.124609,0.108822 0.251477,0.222049 0.346926,0.355091 0.110106,0.153523 0.04849,0.324428 -0.02821,0.476462 0.201219,-0.09776 0.389766,-0.213145 0.594099,-0.282067 0.209555,-0.07068 0.432758,-0.110766 0.653244,-0.137782 0.372239,-0.04561 0.674922,-0.210866 0.925942,-0.47947 0.141189,-0.151092 0.277615,-0.306591 0.41743,-0.461481 0.205554,0.733519 -0.03637,1.221803 -0.586283,1.443153 -0.09884,0.03981 -0.197829,0.07971 -0.294469,0.124411 -0.240913,0.111435 -0.265157,0.207554 -0.110472,0.419453 0.02492,0.03416 0.04766,0.06989 0.07545,0.110797 -0.227844,0.03115 -0.233035,0.02996 -0.62558,-0.136384 -0.155601,-0.06594 -0.202989,-0.04346 -0.248271,0.117816 0.273462,0.150485 0.38372,0.545597 0.24992,0.932808 -0.383201,0 -0.772448,0 -1.182274,0 0.15044,0.407024 0.130929,0.803413 0.07563,1.202597 -0.03029,0.218767 0.0364,0.408513 0.199875,0.564376 0.211814,-0.435772 0.336973,-0.539853 0.575566,-0.48099 0.19502,0.0481 0.349613,0.280426 0.34256,0.52162 -0.07691,0.01835 -0.155998,0.03552 -0.234165,0.05616 -0.665762,0.175676 -1.007773,0.547146 -1.055773,1.188284 -0.01832,0.244901 -0.0028,0.497886 0.03771,0.740478 0.109159,0.653263 0.249249,1.301421 0.35972,1.954471 0.101892,0.602119 0.127724,1.207368 -0.0097,1.810368 -0.101739,0.446348 -0.303294,0.844225 -0.582497,1.191749 0.26586,0.405505 0.516696,0.80399 0.783899,1.191292 0.287416,0.416688 0.579809,0.830854 0.890217,1.230585 0.18354,0.236332 0.411873,0.436775 0.701609,0.545384 0.101678,0.03811 0.210807,0.05661 0.317004,0.08421 -0.0785,0.221988 -0.07212,0.355029 0.03518,0.575833 0.162196,0.333788 0.405582,0.605917 0.68048,0.84933 0.374682,0.331782 0.774463,0.626551 1.275922,0.743365 0.14409,0.03355 0.28992,0.0399 0.42946,-0.05923 -0.03307,-0.0117 -0.05826,-0.01699 -0.07969,-0.02887 -0.05945,-0.03303 -0.117373,-0.06883 -0.175907,-0.103503 0.05139,-0.0502 0.09414,-0.118941 0.155693,-0.147324 0.237127,-0.109277 0.480269,-0.20567 0.74109,-0.315221 0,0.07266 0,0.127116 0,0.181572 0,0.440604 0.02373,0.882909 -0.008,1.321264 -0.02263,0.31282 0.128517,0.482632 0.36201,0.623027 0.294165,0.176801 0.623992,0.237669 0.958706,0.278116 0.312667,0.0378 0.628083,0.05953 0.937667,0.114261 0.289034,0.05111 0.335293,0.161941 0.222714,0.427598 -0.007,0.01653 -0.0055,0.03665 -0.0081,0.0564 0.323447,0.04956 0.576665,-0.05133 0.766128,-0.309538 0.08696,-0.118485 0.171998,-0.238885 0.266745,-0.351019 0.114197,-0.135107 0.256668,-0.226972 0.451017,-0.242166 0,0.0568 -3.67e-4,0.10633 6.1e-5,0.155833 0.0027,0.316952 0.04296,0.624667 0.202867,0.907888 0.05569,0.09861 0.123052,0.140882 0.242073,0.140122 0.834524,-0.0052 1.669078,-0.0028 2.503632,-0.0028 0.423627,0 0.430223,6.99e-4 0.475993,-0.42538 0.03887,-0.361836 0.05435,-0.726165 0.09307,-1.088001 0.01087,-0.101711 0.06717,-0.198559 0.107021,-0.309812 0.823806,0.654205 1.768374,0.819033 2.757094,0.91968 -0.02104,-0.335186 0.135968,-0.607103 0.251569,-0.891206 0.106533,-0.261858 0.124518,-0.531739 0.0647,-0.804203 -0.01557,-0.07093 -0.06403,-0.14942 -0.121281,-0.194122 -0.313187,-0.244415 -0.68506,-0.317287 -1.066063,-0.276323 -0.448513,0.04829 -0.892873,0.137387 -1.337784,0.21588 -0.380514,0.06713 -0.758952,0.151275 -1.149083,0.103747 -0.22299,-0.02717 -0.429735,-0.09326 -0.601641,-0.27994 0.179387,-0.123894 0.348423,-0.23542 0.511871,-0.354573 0.302774,-0.220712 0.620449,-0.425714 0.8984,-0.674323 0.330285,-0.295498 0.402865,-0.677817 0.242714,-1.095994 -0.02886,-0.07533 -0.06006,-0.149785 -0.09017,-0.224632 0.207479,0.178047 0.423018,0.171817 0.651717,0.07175 0.08354,-0.03659 0.169922,-0.06713 0.256149,-0.09727 0.245005,-0.08563 0.495017,-0.09721 0.751869,-0.06293 0.115021,0.01538 0.201615,0.06564 0.234378,0.165223 0.0767,0.233141 0.168945,0.468439 0.19444,0.709208 0.03328,0.314187 0.0082,0.634513 0.0082,0.985896 0.203997,-0.06029 0.392636,-0.09989 0.568023,-0.171665 0.26763,-0.109551 0.341858,-0.292581 0.237249,-0.564619 -0.07429,-0.19315 -0.172212,-0.377153 -0.254439,-0.567446 -0.119816,-0.277144 -0.164609,-0.554075 0.05185,-0.845592 -0.296637,-0.165496 -0.573153,-0.347554 -0.872385,-0.478043 -0.243051,-0.105965 -0.509398,-0.184185 -0.772387,-0.214482 -0.504818,-0.05816 -0.886798,0.20412 -1.212168,0.555655 -0.234195,0.253045 -0.451261,0.521923 -0.687746,0.77272 -0.330866,0.350927 -0.722403,0.587077 -1.225602,0.597318 -0.04415,8.81e-4 -0.107388,0.0526 -0.126014,0.09597 -0.03108,0.07211 -0.04092,0.156106 -0.04608,0.235967 -0.01631,0.252863 0.09511,0.471631 0.194899,0.693528 0.04333,0.0963 0.09597,0.194487 0.108029,0.296106 0.0062,0.05209 -0.05566,0.131036 -0.108152,0.166469 -0.06611,0.04461 -0.128486,0.01097 -0.171784,-0.06588 -0.04684,-0.08317 -0.105586,-0.161393 -0.168608,-0.233597 -0.23105,-0.264714 -0.477002,-0.312364 -0.789608,-0.149481 -0.11206,0.05838 -0.215448,0.133436 -0.322011,0.202054 -0.162013,0.104354 -0.316179,0.223477 -0.486589,0.311695 -0.301126,0.155954 -0.555779,0.09578 -0.776418,-0.160664 -0.04855,-0.05637 -0.09466,-0.114899 -0.143173,-0.174036 -0.334286,0.212781 -0.548329,0.493511 -0.605825,0.880266 -0.02009,0.135047 -0.03789,0.270458 -0.05661,0.405778 -0.04898,0.354757 -0.205799,0.637492 -0.543077,0.813928 -0.04946,-0.295742 -0.09734,-0.579844 -0.144517,-0.864069 -0.106014,-0.638707 -0.232119,-1.275013 -0.227081,-1.926756 0.0068,-0.881542 0.352087,-1.566987 1.158642,-1.985893 0.03136,-0.01629 0.06562,-0.02705 0.100365,-0.04112 -0.09991,0.223751 -0.206471,0.431427 -0.283905,0.649343 -0.03685,0.103686 -0.03918,0.23071 -0.01914,0.340261 0.02192,0.119852 0.13322,0.187011 0.250959,0.18069 0.0553,-0.003 0.119388,-0.07263 0.157189,-0.127328 0.135357,-0.195854 0.272576,-0.392012 0.387506,-0.59987 0.133953,-0.242258 0.270287,-0.488344 0.359965,-0.748379 0.109678,-0.317834 0.012,-0.613454 -0.201066,-0.880934 -0.168853,0.56863 -0.295661,0.67809 -0.622771,0.546933 0.04223,-0.540248 0.34479,-1.693069 0.644847,-2.427256 0.529703,-1.296073 1.33012,-2.382768 2.500914,-3.180133 0.04241,-0.02887 0.0862,-0.05564 0.129372,-0.08342 -0.01069,0.05403 -0.03398,0.08709 -0.05942,0.118424 -0.473734,0.58419 -0.897301,1.202567 -1.263617,1.858595 -0.329034,0.589296 -0.628328,1.192235 -0.749181,1.86446 -0.03692,0.205366 -0.0589,0.413255 0.0174,0.637796 0.672511,-0.662046 1.467004,-1.115473 2.246353,-1.59227 0.51068,-0.312394 1.007284,-0.647641 1.509353,-0.973953 0.04754,-0.03091 0.08885,-0.07126 0.163418,-0.131887 -0.569886,-0.0464 -0.82524,-0.397604 -0.987284,-0.847355 -0.05826,-0.161697 -0.103052,-0.328166 -0.158502,-0.490927 -0.06192,-0.181693 -0.107388,-0.373506 -0.199295,-0.539336 -0.111937,-0.201932 -0.264882,-0.381285 -0.380331,-0.54277 0.266226,-0.166469 0.563321,-0.340322 0.847226,-0.533472 0.234775,-0.159752 0.452482,-0.344241 0.680418,-0.514235 0.362926,-0.27064 0.734586,-0.526786 1.17458,-0.662683 0.515138,-0.159084 0.998643,-0.08734 1.474576,0.193575 -0.044,0.02902 -0.0723,0.04722 -0.10009,0.0661 -0.03362,0.02282 -0.0669,0.04604 -0.10009,0.06944 -0.555352,0.391678 -0.917912,0.937639 -1.230091,1.523743 -0.09823,0.184368 -0.1767,0.206977 -0.35166,0.08372 -0.06476,-0.04558 -0.117342,-0.110736 -0.168181,-0.17285 -0.06085,-0.07439 -0.108304,-0.159996 -0.171418,-0.232199 -0.218714,-0.250068 -0.623045,-0.212903 -0.755257,0.08472 -0.25334,0.570393 -0.251081,1.149539 0.01188,1.718625 0.08965,0.194031 0.102747,0.189078 0.300484,0.118121 0.4643,-0.166712 0.931347,-0.325188 1.427738,-0.365301 0.581397,-0.04695 1.115955,0.120551 1.628589,0.372594 0.0836,0.04112 0.143388,0.04713 0.215509,-0.01896 0.284088,-0.260308 0.580939,-0.507489 0.855561,-0.777218 0.200456,-0.196887 0.373492,-0.421459 0.580298,-0.658398 0.02458,0.18148 0.05255,0.334426 0.06479,0.488587 0.03972,0.49974 -0.05911,0.986535 -0.138349,1.476337 -0.06201,0.383139 -0.106075,0.770077 -0.136243,1.157015 -0.01365,0.17519 0.04669,0.345882 0.181738,0.479045 0.352149,-0.82745 0.709304,-1.641256 1.045422,-2.46354 0.350957,-0.85869 0.491017,-1.751567 0.356484,-2.675865 -0.04186,-0.287628 -0.106533,-0.571974 -0.160487,-0.856229 -0.177982,0.01486 -0.326743,0.05066 -0.469673,0.03473 -0.382346,-0.0427 -0.763868,-0.09855 -1.14255,-0.166591 -0.293859,-0.05281 -0.581,-0.114686 -0.836722,0.110706 -0.02794,-0.04087 -0.04937,-0.06892 -0.06724,-0.09907 -0.03356,-0.05658 -0.06675,-0.113531 -0.09707,-0.171908 -0.282317,-0.543651 -0.396575,-1.131153 -0.378224,-1.732695 0.02037,-0.6663 0.09258,-1.331202 0.148853,-1.996134 0.02327,-0.276353 0.06378,-0.551248 0.09667,-0.828179 z m -17.90737,11.473081 c 0.120274,-0.16969 0.249218,-0.325614 0.349706,-0.497977 0.3643,-0.624668 0.431261,-1.314914 0.380239,-2.012909 -0.06931,-0.948062 -0.189494,-1.892387 -0.264913,-2.840145 -0.08904,-1.118907 -0.01337,-2.224139 0.378621,-3.289897 0.03539,-0.09621 0.01075,-0.153827 -0.0495,-0.227154 -0.363415,-0.442306 -0.720479,-0.889778 -1.082581,-1.333116 -0.02281,-0.02796 -0.07456,-0.05613 -0.106045,-0.0499 -0.461429,0.09129 -0.909698,0.01708 -1.357509,-0.0912 -0.34937,-0.08451 -0.704052,-0.201568 -1.028078,0.07685 -0.05011,0.04303 -0.107022,0.07825 -0.160762,0.117087 0.05988,0.04932 0.1138,0.110311 0.181372,0.144559 0.06104,0.03093 0.136578,0.04163 0.206562,0.04531 0.129586,0.0068 0.259814,0.0019 0.399293,0.0019 -0.510558,1.501347 -0.619748,2.995066 0.0051,4.514738 0.07206,-0.0812 0.131632,-0.136263 0.176853,-0.201233 0.22873,-0.328288 0.453551,-0.65928 0.680113,-0.989057 0.22531,-0.327893 0.473948,-0.633662 0.821089,-0.844012 0.0436,-0.02641 0.09139,-0.04598 0.148547,-0.0743 0.05951,0.575894 0.07594,1.12623 0.0022,1.675413 -0.05343,0.398151 -0.143754,0.787185 -0.380789,1.124498 -0.245248,0.349013 -0.597763,0.466009 -0.985941,0.294161 -0.164212,-0.07272 -0.278622,-0.03334 -0.40485,0.04938 -0.261798,0.171543 -0.337553,0.420304 -0.286011,0.713766 0.07798,0.443886 0.294408,0.831188 0.550008,1.190169 0.59303,0.832829 1.204564,1.65253 1.827243,2.503045 z m 11.21903,3.624262 c 0.317981,0.04178 0.576512,-0.04701 0.805883,-0.220925 0.295447,-0.223933 0.598588,-0.421277 0.990705,-0.382288 -0.03899,-0.22916 -0.08238,-0.441394 -0.110106,-0.655664 -0.05441,-0.420699 -0.09117,-0.84383 -0.152608,-1.263374 -0.04098,-0.279788 -0.123235,-0.550489 -0.319691,-0.780166 -0.292973,0.146473 -0.534466,0.343847 -0.720784,0.601512 -0.592054,0.818728 -0.580298,1.746552 -0.493399,2.700905 z m 3.647739,-4.804949 c -0.03185,0.02176 -0.04589,0.02844 -0.05618,0.03881 -0.128243,0.12979 -0.255172,0.260916 -0.383934,0.390189 -0.757882,0.7609 -1.08655,1.687994 -1.07858,2.747096 6.71e-4,0.08928 0.01557,0.150697 0.121525,0.142918 0.170165,-0.01252 0.349949,0.0048 0.508573,-0.04467 0.409826,-0.127845 0.6119,-0.464003 0.755867,-0.837418 0.16754,-0.434678 0.221433,-0.891388 0.232089,-1.353081 0.0083,-0.358008 -0.0039,-0.71556 -0.09936,-1.083839 z m 4.710839,-7.581734 c 0.310439,0 0.620878,-0.0015 0.931286,0.001 0.0792,6.38e-4 0.136761,-0.0086 0.151265,-0.104324 0.04345,-0.28699 -0.01218,-0.543773 -0.218837,-0.757679 -0.263264,-0.272524 -0.597305,-0.377608 -0.964995,-0.382987 -0.706617,-0.01033 -1.117054,0.45984 -0.990888,1.116081 0.01982,0.103078 0.06223,0.131218 0.160945,0.129699 0.310347,-0.0049 0.620816,-0.0018 0.931224,-0.0018 z m -1.75445,10.244775 c 0.122838,-0.05157 0.204058,-0.09904 0.291568,-0.119001 0.113068,-0.02583 0.233433,-0.02012 0.34653,-0.04586 0.09792,-0.02228 0.190135,-0.06944 0.284852,-0.10563 -0.06473,-0.08457 -0.12922,-0.169356 -0.19499,-0.253168 -0.003,-0.0038 -0.01741,0.0012 -0.0265,0.0022 -0.08476,0.265535 -0.110014,0.286321 -0.313217,0.246846 0.0091,-0.05871 0.0185,-0.117877 0.02751,-0.177104 0.09026,-0.594553 -0.01963,-1.123952 -0.531413,-1.502259 -0.315477,-0.233172 -0.647808,-0.443734 -0.974003,-0.665419 0.05973,0.270307 0.112884,0.536936 0.178288,0.800618 0.09466,0.38165 0.179967,0.767068 0.303447,1.139662 0.104792,0.316254 0.317767,0.561003 0.607931,0.679093 z m -1.173206,0.0468 c -0.100396,-0.495851 -0.185281,-0.962011 -0.292394,-1.423097 -0.04977,-0.214239 -0.130227,-0.424103 -0.220272,-0.625579 -0.06898,-0.154222 -0.184638,-0.282036 -0.358682,-0.361715 -0.103022,0.472633 -0.226043,0.927368 -0.21499,1.402523 0.01063,0.454978 0.210471,0.762267 0.596084,0.894974 0.155449,0.05348 0.32192,0.07518 0.490254,0.112894 z M 13.261736,31.763361 c 0.02653,-0.03552 0.04699,-0.05746 0.06107,-0.08293 0.02431,-0.04403 0.04776,-0.08907 0.0662,-0.135776 0.165342,-0.419119 0.237188,-0.85793 0.231387,-1.304217 -0.0035,-0.26988 -0.04586,-0.541463 -0.09597,-0.807606 -0.02717,-0.144224 -0.102411,-0.282128 -0.256851,-0.363964 -0.08382,0.325066 -0.170471,0.636306 -0.243539,0.950676 -0.08711,0.374843 -0.151388,0.753849 -0.100274,1.140847 0.03127,0.236819 0.115144,0.448232 0.337981,0.60297 z m 24.296753,-2.707925 c -0.282012,-0.280912 -0.810341,-0.380252 -1.156932,-0.220833 -0.149067,0.06859 -0.254439,0.177864 -0.31224,0.335337 -0.04702,0.128119 -0.02238,0.214604 0.09575,0.294222 0.433796,0.292338 1.079956,0.10551 1.373418,-0.408726 z m -14.819288,-1.50867 c 0.0033,-0.01547 0.0031,-0.02291 0.0054,-0.0238 0.512268,-0.194882 0.672296,-0.62096 0.742341,-1.110124 0.02217,-0.154709 0.05325,-0.309629 0.09746,-0.459445 0.134685,-0.456102 0.465337,-0.703374 0.907744,-0.829942 0.121067,0.346034 0.0068,0.469412 -0.572329,0.622236 0.106869,0.219102 0.285218,0.359983 0.505612,0.433645 0.195723,0.06543 0.402682,0.09992 0.606801,0.136414 0.05383,0.0096 0.121189,-0.01261 0.172456,-0.03911 0.29453,-0.152155 0.514986,-0.38241 0.574191,-0.708449 0.113647,-0.625882 0.467719,-0.97763 1.101909,-1.051018 0.0095,-0.0011 0.01829,-0.0078 0.02733,-0.01203 -0.05273,-0.235847 -0.250622,-0.389278 -0.489825,-0.337466 -0.241249,0.05227 -0.472941,0.147537 -0.709945,0.220379 -0.185525,0.05701 -0.372759,0.108456 -0.571718,0.138116 0.111907,-0.256359 0.274011,-0.458716 0.466406,-0.636307 0.524024,-0.483665 1.159283,-0.73823 1.857564,-0.796211 1.928127,-0.160087 3.641936,0.396692 5.146344,1.599624 0.129739,0.103747 0.239203,0.233658 0.350774,0.357947 0.02672,0.02975 0.0458,0.09475 0.03166,0.128179 -0.325187,0.769074 -0.814676,1.385263 -1.621811,1.69942 -0.04513,0.01753 -0.0927,0.02872 -0.121464,0.03747 0.07936,-0.226668 0.162257,-0.450693 0.234256,-0.678121 0.0186,-0.05874 0.0028,-0.12827 0.0028,-0.191114 -0.26247,-0.04628 -0.40601,0.02811 -0.469398,0.266842 -0.04907,0.184884 -0.06525,0.378156 -0.102961,0.566352 -0.07227,0.360804 -0.26308,0.468227 -0.610282,0.356975 -0.01288,-0.224116 -0.0052,-0.448323 -0.04229,-0.664933 -0.08934,-0.521285 -0.379293,-0.908314 -0.85092,-1.155251 -0.924019,-0.483756 -2.256032,-0.270398 -2.981,0.47555 -0.206593,0.212538 -0.358224,0.504329 -0.370377,0.729174 0.157494,-0.0193 0.311996,-0.0389 0.466651,-0.05698 0.769455,-0.08992 1.540621,-0.158263 2.305374,0.02027 0.23447,0.05476 0.468513,0.142218 0.680297,0.256054 0.463017,0.248852 0.700296,0.657517 0.76399,1.174001 0.01255,0.101954 -0.01411,0.154982 -0.105648,0.201932 -0.461581,0.236909 -0.951835,0.380009 -1.464164,0.447472 -0.637824,0.08396 -1.269815,0.06886 -1.87851,-0.167259 -0.547626,-0.212416 -0.939896,-0.575529 -1.081635,-1.16291 -0.02397,-0.09946 -0.09032,-0.104627 -0.167784,-0.116388 -0.503841,-0.0763 -0.992201,3.04e-4 -1.475706,0.138967 -0.41117,0.11806 -0.826004,0.217066 -1.259342,0.195703 -0.03292,-0.0017 -0.06586,-0.0039 -0.100304,-0.0059 z m 5.108972,-0.32452 c 0.0734,0.377061 -0.135449,0.564528 -0.393614,0.726773 -0.06745,0.04239 -0.121647,0.105661 -0.212027,0.18613 0.607961,0 1.165939,-10e-4 1.723855,0.0011 0.08104,3.35e-4 0.1029,-0.03343 0.105678,-0.10873 0.0095,-0.25733 -0.111235,-0.486035 -0.362865,-0.575195 -0.269798,-0.09554 -0.554222,-0.150119 -0.861027,-0.230102 z m -3.611251,9.678545 c -0.07917,-0.287232 -0.13667,-0.580543 -0.199753,-0.871999 -0.153983,-0.711063 -0.271386,-1.432153 -0.466651,-2.131728 -0.247386,-0.886161 -0.766769,-1.592482 -1.604651,-2.028072 -0.13609,-0.07074 -0.19902,-0.150575 -0.214226,-0.302974 -0.07395,-0.739658 -0.58039,-1.324212 -1.498393,-1.595065 0.05233,0.195763 0.100182,0.385691 0.153983,0.573979 0.184975,0.647185 0.371079,1.294522 0.725334,1.876524 0.212058,0.348435 0.47175,0.649495 0.871683,0.792655 0.112762,0.04039 0.23273,0.06084 0.35569,0.09199 -0.0071,0.03947 -0.0145,0.07321 -0.01896,0.107332 -0.05484,0.419271 0.0027,0.820096 0.230592,1.181234 0.04559,0.07226 0.167174,0.154404 0.234562,0.140426 0.07664,-0.01586 0.131754,-0.13447 0.196272,-0.208405 -0.101891,-0.06187 -0.195264,-0.13994 -0.183478,-0.161759 0.0356,-0.06588 0.107571,-0.116752 0.174318,-0.159722 0.03487,-0.02243 0.08834,-0.01735 0.133617,-0.02243 0.116456,-0.01307 0.171356,0.02407 0.181219,0.156015 0.02895,0.388093 -0.09295,0.724524 -0.304271,1.042571 -0.108732,0.163582 -0.198257,0.340656 -0.284363,0.517457 -0.01832,0.03762 9.2e-5,0.112589 0.02861,0.149937 0.140365,0.183699 0.316882,0.345214 0.429735,0.543317 0.177342,0.31124 0.303172,0.651136 0.470956,0.968271 0.148365,0.280426 0.298317,0.566838 0.494528,0.813563 0.25218,0.317104 0.640938,0.318806 0.96472,0.04336 -0.462406,-0.407359 -0.711807,-0.93846 -0.871072,-1.516481 z m 8.788312,-8.686115 c -0.242592,-0.3433 -0.500115,-0.676146 -0.749059,-1.015039 -0.06162,-0.08387 -0.115937,-0.173033 -0.173952,-0.260278 -0.43746,0.33783 -0.567137,0.848145 -0.352758,1.386387 0.226073,0.567537 0.635198,0.983587 1.144168,1.303001 0.220119,0.138146 0.464727,0.237699 0.722098,0.36679 0.0174,-0.585132 -0.196792,-1.223748 -0.590497,-1.780861 z m 0.183113,-2.710022 c -0.15954,0.271765 -0.302439,0.553224 -0.452086,0.829061 0.288179,0.02705 0.544329,-0.06528 0.731471,-0.311209 0.09166,-0.120461 0.160273,-0.258121 0.250012,-0.380253 0.132731,-0.18066 0.274928,-0.354391 0.412392,-0.530189 -0.359843,-0.114443 -0.724693,0.02276 -0.941789,0.39259 z m -9.160003,4.455602 c -0.0096,-0.0568 -0.01008,-0.08172 -0.01817,-0.103929 -0.05459,-0.150211 -0.172517,-0.216367 -0.318652,-0.270884 -0.351782,-0.131278 -0.418437,-0.342175 -0.229585,-0.664051 0.03151,-0.05376 0.06369,-0.107059 0.106136,-0.178259 -0.152212,0 -0.278683,0.0055 -0.404392,-0.0016 -0.121677,-0.0069 -0.21047,-2.43e-4 -0.230897,0.156835 -0.0099,0.07609 -0.08779,0.143495 -0.135052,0.214695 -0.04629,0.06968 -0.09276,0.13921 -0.153067,0.229677 0.540054,0.0519 0.907286,0.425866 1.383677,0.617496 z m -8.642758,-1.774692 c 0.286897,0.195216 0.589824,0.366942 0.89724,0.556232 0.05536,-0.45829 -0.01624,-0.870511 -0.359934,-1.178803 -0.257646,-0.231075 -0.552176,-0.421429 -0.837821,-0.635546 -0.179968,0.555077 -0.0469,1.021724 0.300515,1.258117 z"
   id="path2"
   inkscape:connector-curvature="0"
   style="clip-rule:evenodd;fill:#ba0d26;fill-rule:evenodd;stroke-width:0.03046117" />
</svg>