<?xml version="1.0" encoding="UTF-8" standalone="no"?>
<!-- Generator: Adobe Illustrator 16.0.0, SVG Export Plug-In . SVG Version: 6.00 Build 0)  -->

<svg
   xmlns:dc="http://purl.org/dc/elements/1.1/"
   xmlns:cc="http://creativecommons.org/ns#"
   xmlns:rdf="http://www.w3.org/1999/02/22-rdf-syntax-ns#"
   xmlns:svg="http://www.w3.org/2000/svg"
   xmlns="http://www.w3.org/2000/svg"
   xmlns:xlink="http://www.w3.org/1999/xlink"
   xmlns:sodipodi="http://sodipodi.sourceforge.net/DTD/sodipodi-0.dtd"
   xmlns:inkscape="http://www.inkscape.org/namespaces/inkscape"
   version="1.1"
   id="Layer_1"
   x="0px"
   y="0px"
   width="56.693001"
   height="56.693001"
   viewBox="0 0 56.693 56.693"
   enable-background="new 0 0 56.693 56.693"
   xml:space="preserve"
   sodipodi:docname="Climat-All.svg"
   inkscape:version="0.92.0 r15299"><metadata
   id="metadata303"><rdf:RDF><cc:Work
       rdf:about=""><dc:format>image/svg+xml</dc:format><dc:type
         rdf:resource="http://purl.org/dc/dcmitype/StillImage" /><dc:title /></cc:Work></rdf:RDF></metadata><defs
   id="defs301">
	<defs
   id="defs5">
		
			<rect
   height="20.27"
   width="42.519001"
   transform="matrix(0.7071,-0.7071,0.7071,0.7071,-14.9999,36.2129)"
   y="26.077999"
   x="14.953"
   id="SVGID_1_" />
	</defs>
	<clipPath
   id="SVGID_2_">
		<use
   height="100%"
   width="100%"
   y="0"
   x="0"
   style="overflow:visible"
   id="use7"
   overflow="visible"
   xlink:href="#SVGID_1_" />
	</clipPath>
	

		
	
			
			
		
				
			
				
			
	<defs
   id="defs25">
		
			<rect
   height="20.226999"
   width="42.519001"
   transform="matrix(0.7071,-0.7071,0.7071,0.7071,-8.477,20.4653)"
   y="10.352"
   x="-0.79400003"
   id="SVGID_3_" />
	</defs>
	<clipPath
   id="SVGID_4_">
		<use
   height="100%"
   width="100%"
   y="0"
   x="0"
   style="overflow:visible"
   id="use27"
   overflow="visible"
   xlink:href="#SVGID_3_" />
	</clipPath>
	

		
	
			
		
				
				
				
			
					
					
				
					
					
				
					
					
				
						
						
						
						
						
					
						
						
						
						
						
					
						
						
						
						
						
					
						
						
						
						
						
					
						
						
						
						
						
					
						
						
						
						
						
					
							
						
							
						
							
						
							
						
							
						
							
						
							
						
							
						
							
						
							
						
							
						
							
						
							
						
							
						
							
						
							
						
							
						
							
						
							
						
							
						
							
						
							
						
							
						
							
						
							
						
							
						
							
						
							
						
							
						
							
						
								
							
								
							
								
							
								
							
								
							
								
							
								
							
								
							
								
							
								
							
								
							
								
							
								
							
								
							
								
							
								
							
								
							
								
							
								
							
								
							
								
							
								
							
								
							
								
							
								
							
								
							
								
							
								
							
								
							
								
							
									
								
									
								
									
								
									
								
									
								
									
								
									
								
									
								
									
								
									
								
									
								
									
								
									
								
									
								
									
								
									
								
									
								
									
								
									
								
									
								
									
								
									
								
									
								
									
								
									
								
									
								
									
								
									
								
									
								
									
								</defs><sodipodi:namedview
   pagecolor="#ffffff"
   bordercolor="#666666"
   borderopacity="1"
   objecttolerance="10"
   gridtolerance="10"
   guidetolerance="10"
   inkscape:pageopacity="0"
   inkscape:pageshadow="2"
   inkscape:window-width="1280"
   inkscape:window-height="961"
   id="namedview299"
   showgrid="false"
   inkscape:zoom="8.3255427"
   inkscape:cx="-11.151262"
   inkscape:cy="36.676287"
   inkscape:window-x="1272"
   inkscape:window-y="-8"
   inkscape:window-maximized="1"
   inkscape:current-layer="Layer_1" />


<path
   style="fill:#bd0c27"
   d="M 28.849609 0.28710938 C 27.580606 0.27310937 26.315785 0.308625 25.050781 0.390625 C 24.251779 0.442625 23.48572 0.60875 22.761719 0.96875 C 22.197717 1.24975 21.602236 1.4611875 20.990234 1.6171875 C 20.176232 1.8251875 19.383377 2.0949219 18.609375 2.4199219 C 17.553373 2.8629219 16.519096 3.3422656 15.621094 4.0722656 C 15.286093 4.3452656 14.909173 4.5351719 14.451172 4.5761719 C 13.80017 4.6331719 13.250423 4.9598438 12.732422 5.3398438 C 12.469421 5.5328438 12.254719 5.7801406 12.011719 5.9941406 C 11.808718 6.1731406 11.599079 6.3490625 11.330078 6.4140625 C 11.193078 6.4490625 11.068078 6.4962187 10.955078 6.5742188 C 9.7640752 7.3802188 8.7404083 8.3507813 7.9414062 9.5507812 C 7.387405 10.382782 6.9386887 11.275766 6.4296875 12.134766 C 6.259687 12.422766 6.0860943 12.708797 5.8710938 12.966797 C 5.6990933 13.173797 5.4938445 13.314844 5.2148438 13.339844 C 4.9538431 13.363844 4.7620004 13.505609 4.625 13.724609 C 4.5099998 13.905609 4.4217969 14.099875 4.3417969 14.296875 C 4.0587962 14.991875 3.7105325 15.644719 3.2695312 16.261719 C 2.5705296 17.240719 2.0877509 18.336516 1.71875 19.478516 C 1.4847494 20.202516 1.4577664 20.9835 1.1347656 21.6875 C 0.61676434 23.6825 0.43820258 25.701906 0.65820312 27.753906 C 0.81220351 29.185906 1.0835929 30.594234 1.4335938 31.990234 C 1.6405943 32.813234 1.8778591 33.631656 2.0058594 34.472656 C 2.0848597 34.991656 2.1161875 35.50925 2.1171875 36.03125 C 2.1181875 36.32825 2.1605462 36.624406 2.4355469 36.816406 C 2.5675472 36.906406 2.673625 37.019438 2.765625 37.148438 C 2.9886255 37.464438 3.1646872 37.807969 3.3046875 38.167969 C 3.7796887 39.383969 4.2723267 40.591766 4.8613281 41.759766 C 5.4863297 42.999766 6.2889349 44.100437 7.3359375 45.023438 C 8.0749394 45.674437 8.8198418 46.317594 9.5898438 46.933594 C 10.152845 47.385594 10.753452 47.786234 11.314453 48.240234 C 12.084455 48.862234 12.742937 49.596766 13.335938 50.384766 C 13.841938 51.057766 14.477045 51.558437 15.248047 51.898438 C 16.911051 52.633437 18.569371 53.380281 20.234375 54.113281 C 21.224378 54.549281 22.23695 54.925781 23.251953 55.300781 C 23.646954 55.446781 24.048608 55.612063 24.349609 55.914062 C 24.563609 56.128062 24.804891 56.240734 25.087891 56.302734 C 25.644893 56.424734 26.211389 56.429906 26.775391 56.378906 C 27.387392 56.327906 27.976718 56.200234 28.511719 55.865234 C 28.82272 55.670234 29.18078 55.567828 29.550781 55.548828 C 29.969782 55.527828 30.383108 55.469234 30.787109 55.365234 C 31.692111 55.131234 32.601294 54.908109 33.529297 54.787109 C 34.412299 54.671109 35.269842 54.460141 36.089844 54.119141 C 38.127849 53.275141 40.115542 52.324109 42.060547 51.287109 C 43.06955 50.747109 44.063561 50.176266 44.851562 49.322266 C 44.940562 49.225266 45.047733 49.138516 45.177734 49.103516 C 45.288734 49.072516 45.381703 49.018219 45.470703 48.949219 C 45.825703 48.676219 46.143937 48.360875 46.460938 48.046875 C 48.001942 46.506875 49.342622 44.798641 50.640625 43.056641 C 51.356627 42.094641 51.984062 41.082078 52.414062 39.955078 C 52.684064 39.249078 53.013608 38.569531 53.349609 37.894531 C 53.58361 37.428531 53.798265 36.950172 53.947266 36.451172 C 54.235267 35.497172 54.518062 34.542984 54.789062 33.583984 C 54.997063 32.853984 55.188563 32.117516 55.226562 31.353516 C 55.249563 30.902516 55.315515 30.462875 55.478516 30.046875 C 55.743516 29.378875 55.834313 28.689547 55.820312 28.060547 C 55.824312 27.188547 55.724891 26.404953 55.587891 25.626953 C 55.28689 23.908953 54.811033 22.234609 54.207031 20.599609 C 52.972028 17.258609 51.30791 14.127453 49.503906 11.064453 C 49.184905 10.522453 48.770392 10.075454 48.275391 9.6894531 C 47.748389 9.2764531 47.206298 8.8839531 46.654297 8.5019531 C 45.965295 8.0249531 45.29411 7.52375 44.662109 6.96875 C 43.766106 6.18075 42.772691 5.5340156 41.679688 5.0410156 C 40.893685 4.6880156 40.164502 4.2422031 39.4375 3.7832031 C 38.170497 2.9852031 36.858567 2.2832969 35.351562 2.0292969 C 34.781562 1.9332969 34.263188 1.6697344 33.742188 1.4277344 C 32.192183 0.70673441 30.568613 0.30510937 28.849609 0.28710938 z M 27.255859 3.1210938 C 27.581407 3.1175312 27.907624 3.1239687 28.234375 3.1367188 C 29.166378 3.1727188 30.089951 3.2744688 31.001953 3.4804688 C 31.666955 3.6304687 32.288437 3.8886406 32.898438 4.1816406 C 33.992441 4.7056406 35.131029 5.1381719 36.207031 5.7011719 C 36.793033 6.0081719 37.316482 6.415375 37.896484 6.734375 C 39.704488 7.726375 41.335496 8.9689059 42.9375 10.253906 C 43.382501 10.610906 43.801264 10.994281 44.322266 11.238281 C 44.780267 11.451281 45.15814 11.758047 45.494141 12.123047 C 45.772141 12.427047 45.993078 12.773953 46.205078 13.126953 C 47.01308 14.475953 47.721904 15.873469 48.253906 17.355469 C 48.364906 17.661469 48.404375 17.984875 48.484375 18.296875 C 48.575375 18.650875 48.682516 18.998953 48.978516 19.251953 C 49.103517 19.360953 49.137547 19.523641 49.185547 19.681641 C 49.339547 20.194641 49.555859 20.686594 49.755859 21.183594 C 50.11686 22.084594 50.524749 22.969672 50.84375 23.888672 C 51.094751 24.609672 51.150703 25.349516 51.095703 26.103516 C 51.005702 27.371516 50.900484 28.637344 50.771484 29.902344 C 50.635483 31.241344 50.509267 32.581531 50.197266 33.894531 C 50.083266 34.379531 49.910204 34.839391 49.658203 35.275391 C 49.348202 35.817391 49.15722 36.415 48.949219 37 C 48.639218 37.876 48.250674 38.714813 47.763672 39.507812 C 47.623672 39.735813 47.504235 39.978031 47.365234 40.207031 C 47.268234 40.367031 47.266641 40.55575 47.181641 40.71875 C 47.04164 40.98975 46.876453 41.245328 46.689453 41.486328 C 45.47245 43.068328 44.116223 44.519969 42.574219 45.792969 C 42.349219 45.976969 42.108517 46.133391 41.853516 46.275391 C 41.498516 46.473391 41.176642 46.721016 40.931641 47.041016 C 40.49564 47.615016 39.94933 48.06575 39.361328 48.46875 C 38.171325 49.28375 36.9073 49.958062 35.529297 50.414062 C 34.444294 50.774062 33.326597 50.942219 32.183594 50.949219 C 31.618593 50.951219 31.056235 50.949219 30.490234 50.949219 C 29.522232 50.961219 28.556939 50.951672 27.585938 50.888672 C 27.403937 50.876672 27.222017 50.852078 27.041016 50.830078 C 27.001016 50.825078 26.953828 50.821828 26.923828 50.798828 C 26.573827 50.539828 26.153095 50.504875 25.746094 50.421875 C 24.20209 50.112875 22.672815 49.728484 21.132812 49.396484 C 20.13881 49.180484 19.249111 48.761891 18.412109 48.212891 C 17.395106 47.545891 16.33819 46.953781 15.242188 46.425781 C 14.918186 46.269781 14.603735 46.091578 14.302734 45.892578 C 14.008734 45.697578 13.742594 45.484969 13.558594 45.167969 C 13.384593 44.866969 13.120798 44.630734 12.841797 44.427734 C 12.204795 43.963734 11.696142 43.379094 11.244141 42.746094 C 10.576139 41.809094 9.8379397 40.936594 8.9609375 40.183594 C 8.4359362 39.733594 8.067813 39.178766 7.8828125 38.509766 C 7.7948123 38.190766 7.6858753 37.881031 7.546875 37.582031 C 7.4398747 37.351031 7.3277193 37.126266 7.1367188 36.947266 C 7.0127184 36.831266 6.92725 36.682719 6.90625 36.511719 C 6.8522498 36.049719 6.7019692 35.614594 6.5429688 35.183594 C 6.0829676 33.935594 5.7818601 32.645609 5.5058594 31.349609 C 5.2658588 30.219609 5.0654534 29.083547 4.9394531 27.935547 C 4.8504527 27.125547 4.879281 26.319672 4.9882812 25.513672 C 5.2112818 23.870672 5.5638425 22.255641 6.0898438 20.681641 C 6.2678442 20.147641 6.4683275 19.623953 6.7363281 19.126953 C 6.8143283 18.984953 6.8999059 18.847656 7.0039062 18.722656 C 7.318907 18.347656 7.5646245 17.929375 7.765625 17.484375 C 7.8776253 17.235375 7.9960621 16.988531 8.1640625 16.769531 C 8.2550627 16.652531 8.3523278 16.547609 8.4863281 16.474609 C 8.6093284 16.408609 8.6884844 16.290641 8.7714844 16.181641 C 8.9694849 15.922641 9.1459684 15.650328 9.2929688 15.361328 C 10.107971 13.762328 11.163295 12.325687 12.279297 10.929688 C 13.066299 9.9456871 13.903216 9.0075312 14.824219 8.1445312 C 14.987219 7.9915313 15.157937 7.8469375 15.335938 7.7109375 C 15.629938 7.4859375 15.956124 7.3534531 16.328125 7.3144531 C 16.793126 7.2654531 17.205312 7.0920625 17.570312 6.7890625 C 18.512314 6.0070625 19.559342 5.3849375 20.652344 4.8359375 C 21.834347 4.2429375 23.053605 3.7364062 24.349609 3.4414062 C 25.308112 3.2231563 26.279217 3.1317812 27.255859 3.1210938 z M 33.265625 8.9667969 C 32.975141 9.0075312 32.726734 9.217125 32.646484 9.515625 L 32.064453 11.6875 L 30.199219 9.8222656 C 29.906219 9.5292656 29.431672 9.5292656 29.138672 9.8222656 C 28.845672 10.115266 28.845672 10.589813 29.138672 10.882812 L 31.617188 13.361328 L 30.904297 16.017578 L 27.341797 12.455078 C 27.048797 12.162078 26.57425 12.162078 26.28125 12.455078 C 25.98825 12.748078 25.98825 13.224578 26.28125 13.517578 L 30.455078 17.691406 L 27.984375 26.910156 L 21.236328 20.162109 L 22.763672 14.458984 C 22.870672 14.059984 22.632422 13.648016 22.232422 13.541016 C 21.834422 13.437016 21.422453 13.672266 21.314453 14.072266 L 20.011719 18.935547 L 18.066406 16.990234 L 18.972656 13.607422 C 19.079656 13.207422 18.843359 12.796453 18.443359 12.689453 C 18.042359 12.585453 17.631437 12.81875 17.523438 13.21875 L 16.841797 15.765625 L 15.251953 14.175781 C 14.958953 13.882781 14.482453 13.882781 14.189453 14.175781 C 13.896453 14.468781 13.896453 14.943328 14.189453 15.236328 L 15.78125 16.826172 L 13.232422 17.509766 C 12.832422 17.616766 12.594172 18.027734 12.701172 18.427734 C 12.791172 18.762734 13.094781 18.984375 13.425781 18.984375 C 13.490781 18.984375 13.556094 18.975071 13.621094 18.957031 L 17.003906 18.050781 L 18.953125 19.998047 L 14.085938 21.300781 C 13.684938 21.407781 13.447686 21.81875 13.554688 22.21875 C 13.644687 22.55375 13.948297 22.775391 14.279297 22.775391 C 14.343297 22.775391 14.407656 22.76699 14.472656 22.75 L 20.175781 21.222656 L 26.925781 27.970703 L 17.705078 30.441406 L 13.53125 26.267578 C 13.23825 25.974578 12.763703 25.974578 12.470703 26.267578 C 12.177703 26.560578 12.177703 27.035125 12.470703 27.328125 L 16.033203 30.890625 L 13.375 31.601562 L 10.898438 29.125 C 10.605436 28.832 10.130891 28.832 9.8378906 29.125 C 9.5448906 29.418 9.5448906 29.892547 9.8378906 30.185547 L 11.701172 32.050781 L 9.5273438 32.632812 C 9.1273437 32.739812 8.8910469 33.152734 8.9980469 33.552734 C 9.0880469 33.887734 9.3916564 34.107422 9.7226562 34.107422 C 9.7876562 34.107422 9.8529687 34.100021 9.9179688 34.082031 L 12.089844 33.5 L 11.408203 36.046875 C 11.301203 36.446875 11.539453 36.859797 11.939453 36.966797 C 12.004453 36.983797 12.068813 36.990234 12.132812 36.990234 C 12.463814 36.990234 12.768422 36.770547 12.857422 36.435547 L 13.763672 33.052734 L 16.419922 32.339844 L 15.117188 37.207031 C 15.010186 37.607031 15.246484 38.019953 15.646484 38.126953 C 15.712484 38.143953 15.777797 38.150391 15.841797 38.150391 C 16.172797 38.150391 16.477406 37.930703 16.566406 37.595703 L 18.09375 31.890625 L 27.3125 29.419922 C 28.041681 28.936679 29.124944 27.671583 29.433594 27.298828 L 31.904297 18.080078 L 37.607422 16.552734 C 38.006422 16.445734 38.243719 16.034766 38.136719 15.634766 C 38.029719 15.234766 37.62775 14.997516 37.21875 15.103516 L 32.353516 16.40625 L 33.066406 13.748047 L 36.447266 12.841797 C 36.847266 12.734797 37.085516 12.323828 36.978516 11.923828 C 36.871516 11.524828 36.467594 11.287578 36.058594 11.392578 L 33.513672 12.074219 L 34.095703 9.9042969 C 34.203703 9.5042969 33.963453 9.091375 33.564453 8.984375 C 33.462953 8.957625 33.362453 8.9532189 33.265625 8.9667969 z M 37.191406 19.908203 L 35.431641 21.683594 C 35.463511 22.397123 35.629257 23.083709 35.949219 23.71875 C 36.682219 25.17075 38.093094 26.182625 39.996094 26.640625 C 38.307094 27.789625 37.805703 28.991484 37.720703 29.896484 C 37.633703 30.823484 37.945141 31.735359 38.619141 32.568359 C 36.538141 32.739359 34.939453 33.582375 34.064453 34.984375 C 33.615453 35.704375 33.396203 36.525813 33.408203 37.382812 C 31.527203 36.423814 29.256828 37.050297 27.298828 39.029297 C 27.214828 38.364297 26.992859 37.793312 26.630859 37.320312 C 25.950859 36.433312 24.823094 35.964844 23.371094 35.964844 C 22.592467 35.964844 21.729564 36.112369 20.875 36.365234 L 17.003906 40.269531 L 18.595703 39.101562 C 19.907703 38.137563 21.869141 37.464844 23.369141 37.464844 C 24.043141 37.464844 24.9505 37.596422 25.4375 38.232422 C 25.9095 38.849422 25.961891 39.908875 25.587891 41.296875 L 24.298828 46.074219 L 26.947266 41.890625 C 28.008266 40.212625 29.766531 38.419922 31.519531 38.419922 C 32.422531 38.419922 33.287797 38.908047 34.091797 39.873047 L 38.099609 44.683594 L 35.341797 39.0625 C 34.766797 37.8905 34.765885 36.693391 35.337891 35.775391 C 36.168891 34.441391 38.0845 33.821609 40.5625 34.099609 L 43.710938 34.453125 L 41.056641 32.726562 C 39.782641 31.898564 39.127891 30.941203 39.212891 30.033203 C 39.319891 28.891203 40.589109 27.765328 42.787109 26.861328 L 46.214844 25.417969 L 42.417969 25.417969 C 39.919969 25.417969 38.048109 24.552969 37.287109 23.042969 C 36.827765 22.130616 36.805613 21.044486 37.191406 19.908203 z M 34.332031 22.792969 L 33.267578 23.867188 C 34.138872 24.97382 34.613281 26.329448 34.613281 27.759766 C 34.613281 29.445766 33.957625 31.029703 32.765625 32.220703 C 31.572625 33.413703 29.986781 34.070312 28.300781 34.070312 C 26.889142 34.070312 25.553252 33.603583 24.455078 32.753906 L 23.390625 33.830078 C 24.775866 34.955842 26.491158 35.570312 28.300781 35.570312 C 30.387781 35.570312 32.350172 34.75725 33.826172 33.28125 C 35.302172 31.80625 36.113281 29.845766 36.113281 27.759766 C 36.113281 25.926625 35.485574 24.189179 34.332031 22.792969 z "
   id="path30" />

</svg>