<?xml version="1.0" encoding="UTF-8" standalone="no"?>
<!-- Generator: Adobe Illustrator 16.0.0, SVG Export Plug-In . SVG Version: 6.00 Build 0)  -->

<svg
   xmlns:dc="http://purl.org/dc/elements/1.1/"
   xmlns:cc="http://creativecommons.org/ns#"
   xmlns:rdf="http://www.w3.org/1999/02/22-rdf-syntax-ns#"
   xmlns:svg="http://www.w3.org/2000/svg"
   xmlns="http://www.w3.org/2000/svg"
   xmlns:xlink="http://www.w3.org/1999/xlink"
   xmlns:sodipodi="http://sodipodi.sourceforge.net/DTD/sodipodi-0.dtd"
   xmlns:inkscape="http://www.inkscape.org/namespaces/inkscape"
   version="1.1"
   id="Fond"
   x="0px"
   y="0px"
   width="446.25"
   height="623.625"
   viewBox="0 0 446.25 623.625"
   enable-background="new 0 0 178.58 249.45"
   xml:space="preserve"
   sodipodi:docname="ETS-Type2-GradientBas.svg"
   inkscape:version="0.92.0 r15299"><metadata
   id="metadata321"><rdf:RDF><cc:Work
       rdf:about=""><dc:format>image/svg+xml</dc:format><dc:type
         rdf:resource="http://purl.org/dc/dcmitype/StillImage" /><dc:title /></cc:Work></rdf:RDF></metadata><defs
   id="defs319">
	
	
	

		
		
		
		
			

		
			

		

		

	
			<defs
   id="defs249">
				<path
   inkscape:connector-curvature="0"
   d="m 171.543,25.691 -0.875,-1 c -0.094,-0.108 -0.23,-0.17 -0.374,-0.171 -0.001,0 -0.001,0 -0.002,0 -0.143,0 -0.278,0.061 -0.374,0.168 -0.019,0.021 -1.885,2.082 -4.876,2.082 -0.838,0 -1.458,0.037 -1.813,0.104 L 15.106,26.882 C 14.666,26.807 14.044,26.77 13.208,26.77 10.234,26.77 8.35,24.708 8.331,24.687 8.236,24.581 8.1,24.52 7.958,24.52 7.852,24.532 7.676,24.582 7.581,24.69 l -0.875,1 c -0.171,0.196 -0.16,0.495 0.021,0.681 0.305,0.314 1.855,2.21 1.855,3.648 0,0.062 0.015,0.122 0.041,0.178 l -0.25,20.01 c 0,2.757 2.243,5 5,5 h 151.459 c 2.757,0 5,-2.243 5,-5 L 169.79,29.278 c 0.412,-1.446 1.717,-2.893 1.728,-2.904 0.189,-0.185 0.199,-0.484 0.025,-0.683 z M 165.084,54 H 13.125 c -1.93,0 -3.5,-1.57 -3.5,-3.5 v -15 c 0,-1.93 1.57,-3.5 3.5,-3.5 h 151.959 c 1.93,0 3.5,1.57 3.5,3.5 v 15 c 0,1.93 -1.57,3.5 -3.5,3.5 z"
   id="SVGID_10_" />
			</defs>
			<clipPath
   id="SVGID_11_">
				<use
   height="100%"
   width="100%"
   y="0"
   x="0"
   style="overflow:visible"
   id="use251"
   overflow="visible"
   xlink:href="#SVGID_10_" />
			</clipPath>
			
		
				
					<linearGradient
   id="SVGID_12_"
   gradientUnits="userSpaceOnUse"
   x1="5.21"
   y1="39.419899"
   x2="36.042"
   y2="39.419899"
   gradientTransform="matrix(-1,0,0,1,178.21,0)">
					<stop
   offset="0.2832"
   style="stop-color:#560F19"
   id="stop254" />
					<stop
   offset="1"
   style="stop-color:#BE0A26"
   id="stop256" />
				</linearGradient>
				
				
			
		
		
		
		
			

		
			

		

		

	
			<defs
   id="defs35">
				<path
   inkscape:connector-curvature="0"
   d="M 169.75,238.095 V 137.327 c 0.411,-1.443 1.717,-2.894 1.729,-2.905 0.187,-0.186 0.196,-0.484 0.022,-0.683 l -0.875,-1 c -0.095,-0.108 -0.239,-0.196 -0.376,-0.171 -0.143,0 -0.278,0.061 -0.373,0.167 -0.019,0.021 -1.903,2.083 -4.877,2.083 -0.841,0 -1.462,0.037 -1.813,0.104 l -148.08,0.007 c -0.438,-0.074 -1.059,-0.111 -1.898,-0.111 -2.974,0 -4.858,-2.062 -4.877,-2.083 -0.095,-0.106 -0.23,-0.167 -0.373,-0.167 -10e-4,0 -0.002,0 -0.003,0 -0.143,0.002 -0.279,0.062 -0.374,0.171 l -0.875,1 c -0.171,0.196 -0.16,0.495 0.021,0.681 0.305,0.314 1.855,2.211 1.855,3.648 0,0.062 0.015,0.123 0.042,0.18 v 98.906 c -0.027,0.062 -0.042,0.13 -0.042,0.199 0,1.438 -1.55,3.334 -1.854,3.646 -0.186,0.187 -0.196,0.484 -0.023,0.683 l 0.875,1 c 0.095,0.108 0.251,0.182 0.377,0.171 0.142,0 0.277,-0.062 0.373,-0.167 0.019,-0.021 1.903,-2.083 4.877,-2.083 0.359,0 0.662,-0.009 0.913,-0.021 h 149.944 c 0.273,0.012 0.575,0.021 0.935,0.021 2.974,0 4.858,2.062 4.877,2.083 0.095,0.105 0.23,0.167 0.373,0.167 0.168,-0.013 0.282,-0.062 0.376,-0.171 l 0.875,-1 c 0.172,-0.195 0.16,-0.494 -0.021,-0.681 -0.013,-0.013 -1.319,-1.463 -1.73,-2.906 z m -160,-95.402 c 0,-1.93 1.57,-3.5 3.5,-3.5 H 165 c 1.93,0 3.5,1.57 3.5,3.5 v 93.14 c 0,1.93 -1.57,3.5 -3.5,3.5 H 13.25 c -1.93,0 -3.5,-1.57 -3.5,-3.5 z"
   id="SVGID_4_" />
			</defs>
			<clipPath
   id="SVGID_5_">
				<use
   height="100%"
   width="100%"
   y="0"
   x="0"
   style="overflow:visible"
   id="use37"
   overflow="visible"
   xlink:href="#SVGID_4_" />
			</clipPath>
			
		
				
					<linearGradient
   id="SVGID_6_"
   gradientUnits="userSpaceOnUse"
   x1="4.6259999"
   y1="187.332"
   x2="35.375999"
   y2="187.332"
   gradientTransform="matrix(-2.6009004,0,0,2.6009004,454.9688,-14.568279)">
					<stop
   offset="0.2832"
   style="stop-color:#560F19"
   id="stop40" />
					<stop
   offset="1"
   style="stop-color:#BE0A26"
   id="stop42" />
				</linearGradient>
				
				
			</defs><sodipodi:namedview
   pagecolor="#ffffff"
   bordercolor="#666666"
   borderopacity="1"
   objecttolerance="10"
   gridtolerance="10"
   guidetolerance="10"
   inkscape:pageopacity="0"
   inkscape:pageshadow="2"
   inkscape:window-width="1280"
   inkscape:window-height="961"
   id="namedview317"
   showgrid="false"
   fit-margin-top="0"
   fit-margin-left="0"
   fit-margin-right="0"
   fit-margin-bottom="0"
   inkscape:zoom="0.94608139"
   inkscape:cx="164.76134"
   inkscape:cy="260.97532"
   inkscape:window-x="1272"
   inkscape:window-y="-8"
   inkscape:window-maximized="1"
   inkscape:current-layer="Fond" />

<path
   style="fill:#be0a26;stroke-width:2.60090041"
   d="M 434.375 49.205078 C 434.00307 49.205078 433.65203 49.364282 433.40234 49.642578 C 433.35294 49.697198 428.49999 55.058594 420.7207 55.058594 C 418.54115 55.058594 416.92918 55.153862 416.00586 55.328125 L 361.41406 55.332031 L 361.38086 68.660156 L 420.83008 68.660156 C 425.84982 68.660156 429.93164 72.743934 429.93164 77.763672 L 429.93164 116.77734 C 429.93164 121.79708 425.84982 125.88086 420.83008 125.88086 L 361.24023 125.88086 L 361.23242 129.01953 L 420.17383 129.01953 C 427.34451 129.01953 433.17773 123.18632 433.17773 116.01562 L 433.06836 61.580078 C 434.13993 57.819176 437.53584 54.055954 437.56445 54.027344 C 438.05602 53.546178 438.08149 52.769532 437.62891 52.251953 L 435.35352 49.650391 C 435.10903 49.369494 434.75539 49.207679 434.38086 49.205078 L 434.375 49.205078 z M 434.26562 330.22852 C 433.89369 330.22852 433.54201 330.38641 433.29492 330.66211 C 433.24552 330.71671 428.34641 336.08008 420.61133 336.08008 C 418.42398 336.08008 416.80745 336.17532 415.89453 336.34961 L 362.95898 336.35156 L 362.95898 347.45898 L 420.61133 347.45898 C 425.63107 347.45898 429.71484 351.54276 429.71484 356.5625 L 429.71484 598.81055 C 429.71484 603.83028 425.63107 607.91211 420.61133 607.91211 L 362.95898 607.91211 L 362.95898 611.16211 L 418.17969 611.16211 C 418.88974 611.19331 419.67501 611.2168 420.61133 611.2168 C 428.34641 611.2168 433.24551 616.58015 433.29492 616.63477 C 433.54201 616.90786 433.89369 617.06836 434.26562 617.06836 C 434.70258 617.03456 434.99965 616.90655 435.24414 616.62305 L 437.51953 614.02344 C 437.96688 613.51627 437.93558 612.73832 437.46484 612.25195 C 437.43104 612.21815 434.03381 608.44646 432.96484 604.69336 L 432.96484 342.60547 C 434.03381 338.85237 437.43168 335.07939 437.46289 335.05078 C 437.94926 334.56702 437.9721 333.79102 437.51953 333.27344 L 435.24414 330.67188 C 434.99705 330.39098 434.62194 330.16349 434.26562 330.22852 z "
   id="path32" />
</svg>