<?xml version="1.0" encoding="UTF-8" standalone="no"?>
<!-- Generator: Adobe Illustrator 16.0.0, SVG Export Plug-In . SVG Version: 6.00 Build 0)  -->

<svg
   xmlns:dc="http://purl.org/dc/elements/1.1/"
   xmlns:cc="http://creativecommons.org/ns#"
   xmlns:rdf="http://www.w3.org/1999/02/22-rdf-syntax-ns#"
   xmlns:svg="http://www.w3.org/2000/svg"
   xmlns="http://www.w3.org/2000/svg"
   xmlns:sodipodi="http://sodipodi.sourceforge.net/DTD/sodipodi-0.dtd"
   xmlns:inkscape="http://www.inkscape.org/namespaces/inkscape"
   version="1.1"
   id="Fond"
   x="0px"
   y="0px"
   width="446.25"
   height="623.625"
   viewBox="0 0 446.25 623.625"
   enable-background="new 0 0 178.58 249.45"
   xml:space="preserve"
   sodipodi:docname="ETS-Type2-Couleur1.svg"
   inkscape:version="0.92.0 r15299"><metadata
   id="metadata321"><rdf:RDF><cc:Work
       rdf:about=""><dc:format>image/svg+xml</dc:format><dc:type
         rdf:resource="http://purl.org/dc/dcmitype/StillImage" /><dc:title /></cc:Work></rdf:RDF></metadata><defs
   id="defs319">
	
	
	

		
		
		
		
			

		
			

		

		

	
		
		
		
		
			

		
			

		

		

	
		
		
		
		
			

		
			

		

		

	</defs><sodipodi:namedview
   pagecolor="#ffffff"
   bordercolor="#666666"
   borderopacity="1"
   objecttolerance="10"
   gridtolerance="10"
   guidetolerance="10"
   inkscape:pageopacity="0"
   inkscape:pageshadow="2"
   inkscape:window-width="1280"
   inkscape:window-height="961"
   id="namedview317"
   showgrid="false"
   fit-margin-top="0"
   fit-margin-left="0"
   fit-margin-right="0"
   fit-margin-bottom="0"
   inkscape:zoom="0.94608139"
   inkscape:cx="-15.455713"
   inkscape:cy="260.97532"
   inkscape:window-x="1272"
   inkscape:window-y="-8"
   inkscape:window-maximized="1"
   inkscape:current-layer="Fond" />

<path
   style="display:inline;fill:#be0a26;stroke-width:2.60090041"
   d="M 12.160156 49.205078 C 11.88446 49.236288 11.426773 49.367541 11.179688 49.648438 L 8.9042969 52.248047 C 8.4595429 52.757824 8.4882213 53.535764 8.9589844 54.019531 C 9.752259 54.836214 13.783203 59.767718 13.783203 63.507812 C 13.783203 63.669069 13.822998 63.825053 13.890625 63.970703 L 13.240234 116.01562 C 13.240234 123.18631 19.073459 129.01953 26.244141 129.01953 L 420.17383 129.01953 C 427.34451 129.01953 433.17773 123.18631 433.17773 116.01562 L 433.06836 61.580078 C 434.13993 57.819176 437.53584 54.055954 437.56445 54.027344 C 438.05602 53.546178 438.08149 52.769532 437.62891 52.251953 L 435.35352 49.650391 C 435.10903 49.369494 434.75539 49.207679 434.38086 49.205078 L 434.375 49.205078 C 434.00307 49.205078 433.65203 49.364282 433.40234 49.642578 C 433.35294 49.697198 428.49999 55.058594 420.7207 55.058594 C 418.54115 55.058594 416.92918 55.153862 416.00586 55.328125 L 30.751953 55.349609 C 29.607556 55.154541 27.988805 55.058594 25.814453 55.058594 C 18.079375 55.058594 13.180277 49.695244 13.130859 49.640625 C 12.883774 49.36493 12.529483 49.205078 12.160156 49.205078 z M 25.599609 68.660156 L 420.83008 68.660156 C 425.84982 68.660156 429.93164 72.743934 429.93164 77.763672 L 429.93164 116.77734 C 429.93164 121.79708 425.84982 125.88086 420.83008 125.88086 L 25.599609 125.88086 C 20.579871 125.88086 16.496094 121.79708 16.496094 116.77734 L 16.496094 77.763672 C 16.496094 72.743934 20.579871 68.660156 25.599609 68.660156 z M 12.160156 130.98633 C 11.88446 131.01753 11.426773 131.14684 11.179688 131.42773 L 8.9042969 134.0293 C 8.4595429 134.53908 8.4882213 135.31701 8.9589844 135.80078 C 9.752259 136.61746 13.783203 141.54897 13.783203 145.28906 C 13.783203 145.45032 13.822998 145.6063 13.890625 145.75195 L 13.240234 315.81055 C 13.240234 322.98124 19.073459 328.81836 26.244141 328.81836 L 383.86719 328.81836 C 391.03788 328.81836 396.87305 322.98124 396.87305 315.81055 L 396.76367 143.36133 C 397.83524 139.60043 401.2292 135.8372 401.25781 135.80859 C 401.74938 135.32742 401.77485 134.54883 401.32227 134.03125 L 399.04688 131.42969 C 398.80239 131.1488 398.44875 130.98893 398.07422 130.98633 L 398.06836 130.98633 C 397.69643 130.98633 397.34539 131.14554 397.0957 131.42383 C 397.0463 131.47843 392.19336 136.83789 384.41406 136.83789 C 382.23451 136.83789 380.62254 136.93509 379.69922 137.10938 L 30.751953 137.12891 C 29.607556 136.93384 27.988805 136.83789 25.814453 136.83789 C 18.079375 136.83789 13.180277 131.47454 13.130859 131.41992 C 12.883774 131.14423 12.529483 130.98633 12.160156 130.98633 z M 25.599609 150.44141 L 384.52344 150.44141 C 389.54318 150.44141 393.62695 154.52323 393.62695 159.54297 L 393.62695 316.57227 C 393.62695 321.59201 389.54318 325.67578 384.52344 325.67578 L 25.599609 325.67578 C 20.579871 325.67578 16.496094 321.59201 16.496094 316.57227 L 16.496094 159.54297 C 16.496094 154.52323 20.579871 150.44141 25.599609 150.44141 z M 12.154297 330.22852 C 11.782368 330.23352 11.428727 330.38837 11.181641 330.67188 L 8.90625 333.27344 C 8.461496 333.78322 8.4901744 334.56116 8.9609375 335.04492 C 9.7542121 335.86161 13.785156 340.7957 13.785156 344.5332 C 13.785156 344.69445 13.824303 344.8537 13.894531 345.00195 L 13.894531 602.24609 C 13.824311 602.40735 13.785156 602.58421 13.785156 602.76367 C 13.785156 606.50377 9.7535643 611.43461 8.9628906 612.24609 C 8.4791231 612.73245 8.4543414 613.50586 8.9042969 614.02344 L 11.179688 616.62305 C 11.426773 616.90395 11.832442 617.09697 12.160156 617.06836 C 12.529483 617.06836 12.881173 616.90786 13.130859 616.63477 C 13.180279 616.58017 18.079375 611.2168 25.814453 611.2168 C 26.748176 611.2168 27.536627 611.19331 28.189453 611.16211 L 418.17969 611.16211 C 418.88974 611.19331 419.67501 611.2168 420.61133 611.2168 C 428.34641 611.2168 433.24551 616.58015 433.29492 616.63477 C 433.54201 616.90786 433.89369 617.06836 434.26562 617.06836 C 434.70258 617.03456 434.99965 616.90655 435.24414 616.62305 L 437.51953 614.02344 C 437.96688 613.51627 437.93558 612.73832 437.46484 612.25195 C 437.43104 612.21815 434.03381 608.44646 432.96484 604.69336 L 432.96484 342.60547 C 434.03381 338.85237 437.43168 335.07939 437.46289 335.05078 C 437.94926 334.56702 437.9721 333.79102 437.51953 333.27344 L 435.24414 330.67188 C 434.99705 330.39098 434.62194 330.16349 434.26562 330.22852 C 433.89369 330.22852 433.54201 330.38641 433.29492 330.66211 C 433.24552 330.71671 428.34641 336.08008 420.61133 336.08008 C 418.42398 336.08008 416.80745 336.17532 415.89453 336.34961 L 30.753906 336.36914 C 29.614711 336.17667 28.000514 336.08008 25.818359 336.08008 C 18.083281 336.08008 13.18223 330.71672 13.132812 330.66211 C 12.885727 330.38641 12.534038 330.22852 12.162109 330.22852 L 12.154297 330.22852 z M 25.923828 347.45898 L 420.61133 347.45898 C 425.63107 347.45898 429.71484 351.54276 429.71484 356.5625 L 429.71484 598.81055 C 429.71484 603.83028 425.63107 607.91211 420.61133 607.91211 L 25.923828 607.91211 C 20.904091 607.91211 16.820312 603.83028 16.820312 598.81055 L 16.820312 356.5625 C 16.820312 351.54276 20.904091 347.45898 25.923828 347.45898 z "
   id="path32" />
</svg>