<?xml version="1.0" encoding="UTF-8" standalone="no"?>
<!-- Generator: Adobe Illustrator 16.0.0, SVG Export Plug-In . SVG Version: 6.00 Build 0)  -->

<svg
   xmlns:dc="http://purl.org/dc/elements/1.1/"
   xmlns:cc="http://creativecommons.org/ns#"
   xmlns:rdf="http://www.w3.org/1999/02/22-rdf-syntax-ns#"
   xmlns:svg="http://www.w3.org/2000/svg"
   xmlns="http://www.w3.org/2000/svg"
   xmlns:xlink="http://www.w3.org/1999/xlink"
   xmlns:sodipodi="http://sodipodi.sourceforge.net/DTD/sodipodi-0.dtd"
   xmlns:inkscape="http://www.inkscape.org/namespaces/inkscape"
   version="1.1"
   id="Fond"
   x="0px"
   y="0px"
   width="446.25"
   height="623.625"
   viewBox="0 0 446.25 623.62501"
   enable-background="new 0 0 178.58 249.45"
   xml:space="preserve"
   sodipodi:docname="ETS-Type1-GradientHaut.svg"
   inkscape:version="0.92.0 r15299"><metadata
   id="metadata336"><rdf:RDF><cc:Work
       rdf:about=""><dc:format>image/svg+xml</dc:format><dc:type
         rdf:resource="http://purl.org/dc/dcmitype/StillImage" /><dc:title /></cc:Work></rdf:RDF></metadata><defs
   id="defs334">
	
	
	

			<defs
   id="defs264">
				<path
   id="SVGID_13_"
   d="m 157.584,25.691 -0.875,-1 c -0.094,-0.108 -0.23,-0.17 -0.374,-0.171 -0.001,0 -0.001,0 -0.002,0 -0.143,0 -0.278,0.061 -0.374,0.168 -0.019,0.021 -1.885,2.082 -4.876,2.082 -0.838,0 -1.458,0.037 -1.813,0.104 L 15.106,26.882 C 14.666,26.807 14.044,26.77 13.208,26.77 10.234,26.77 8.35,24.708 8.331,24.687 8.236,24.581 8.1,24.52 7.958,24.52 7.852,24.532 7.676,24.582 7.581,24.69 l -0.875,1 c -0.171,0.196 -0.16,0.495 0.021,0.681 0.305,0.314 1.855,2.21 1.855,3.648 0,0.062 0.015,0.122 0.041,0.178 l -0.25,10.677 c 0,2.757 2.243,5 5,5 h 137.5 c 2.757,0 5,-2.243 5,-5 l -0.042,-11.596 c 0.412,-1.446 1.717,-2.893 1.728,-2.904 0.189,-0.185 0.199,-0.484 0.025,-0.683 z m -6.459,18.976 h -138 c -1.93,0 -3.5,-1.57 -3.5,-3.5 V 35.5 c 0,-1.93 1.57,-3.5 3.5,-3.5 h 138 c 1.93,0 3.5,1.57 3.5,3.5 v 5.667 c 0,1.93 -1.57,3.5 -3.5,3.5 z"
   inkscape:connector-curvature="0" />
			</defs>
			<clipPath
   id="SVGID_14_">
				<use
   xlink:href="#SVGID_13_"
   overflow="visible"
   id="use266"
   style="overflow:visible"
   x="0"
   y="0"
   width="100%"
   height="100%" />
			</clipPath>
			
		
				
					<linearGradient
   gradientTransform="matrix(-1,0,0,1,178.21,0)"
   y2="7.6104002"
   x2="50.000999"
   y1="7.6104002"
   x1="19.250999"
   gradientUnits="userSpaceOnUse"
   id="SVGID_15_">
					<stop
   id="stop269"
   style="stop-color:#560F19"
   offset="0.2832" />
					<stop
   id="stop271"
   style="stop-color:#BE0A26"
   offset="1" />
				</linearGradient>
				
				
			
		
		
		
		
			
		
			
		
		
	
			<defs
   id="defs193">
				<path
   id="SVGID_7_"
   d="m 157.584,47.316 -0.875,-1 c -0.094,-0.108 -0.23,-0.17 -0.374,-0.171 -0.001,0 -0.001,0 -0.002,0 -0.143,0 -0.278,0.061 -0.374,0.168 -0.019,0.021 -1.885,2.082 -4.876,2.082 -0.838,0 -1.458,0.037 -1.813,0.104 L 15.106,48.507 c -0.44,-0.075 -1.062,-0.112 -1.898,-0.112 -2.974,0 -4.858,-2.062 -4.877,-2.083 C 8.236,46.206 8.1,46.145 7.958,46.145 7.852,46.157 7.676,46.207 7.581,46.315 l -0.875,1 c -0.171,0.196 -0.16,0.495 0.021,0.681 0.305,0.314 1.855,2.21 1.855,3.648 0,0.062 0.015,0.122 0.041,0.178 l -0.25,65.385 c 0,2.757 2.243,5 5,5 h 137.5 c 2.757,0 5,-2.243 5,-5 l -0.042,-66.304 c 0.412,-1.446 1.717,-2.893 1.728,-2.904 0.189,-0.185 0.199,-0.484 0.025,-0.683 z M 151.125,121 h -138 c -1.93,0 -3.5,-1.57 -3.5,-3.5 V 57.125 c 0,-1.93 1.57,-3.5 3.5,-3.5 h 138 c 1.93,0 3.5,1.57 3.5,3.5 V 117.5 c 0,1.93 -1.57,3.5 -3.5,3.5 z"
   inkscape:connector-curvature="0" />
			</defs>
			<clipPath
   id="SVGID_8_">
				<use
   xlink:href="#SVGID_7_"
   overflow="visible"
   id="use195"
   style="overflow:visible"
   x="0"
   y="0"
   width="100%"
   height="100%" />
			</clipPath>
			
		
				
					<linearGradient
   gradientTransform="matrix(-1,0,0,1,178.21,0)"
   y2="83.943398"
   x2="50.000999"
   y1="83.943398"
   x1="19.250999"
   gradientUnits="userSpaceOnUse"
   id="SVGID_9_">
					<stop
   id="stop198"
   style="stop-color:#560F19"
   offset="0.2832" />
					<stop
   id="stop200"
   style="stop-color:#BE0A26"
   offset="1" />
				</linearGradient>
				
				
			
			<defs
   id="defs35">
				<path
   id="SVGID_4_"
   d="M 169.75,238.137 V 126.759 c 0.411,-1.443 1.717,-2.894 1.729,-2.905 0.187,-0.186 0.196,-0.485 0.022,-0.683 l -0.875,-1 c -0.095,-0.109 -0.239,-0.196 -0.376,-0.17 -0.143,0 -0.278,0.061 -0.373,0.167 -0.019,0.021 -1.903,2.083 -4.877,2.083 -0.841,0 -1.462,0.037 -1.813,0.104 l -148.08,0.007 c -0.438,-0.075 -1.059,-0.112 -1.898,-0.112 -2.974,0 -4.858,-2.062 -4.877,-2.083 C 8.236,122.061 8.101,122 7.959,122 c -10e-4,0 -0.002,0 -0.003,0 -0.143,0.001 -0.279,0.062 -0.374,0.17 l -0.875,1 c -0.171,0.196 -0.16,0.495 0.021,0.681 0.305,0.314 1.855,2.21 1.855,3.648 0,0.062 0.015,0.123 0.042,0.18 v 109.517 c -0.027,0.062 -0.042,0.13 -0.042,0.199 0,1.438 -1.55,3.334 -1.854,3.646 -0.186,0.187 -0.196,0.484 -0.023,0.683 l 0.875,1 c 0.095,0.108 0.251,0.182 0.377,0.171 0.142,0 0.277,-0.062 0.373,-0.167 0.019,-0.021 1.903,-2.083 4.877,-2.083 0.359,0 0.662,-0.009 0.913,-0.021 h 149.944 c 0.273,0.012 0.575,0.021 0.935,0.021 2.974,0 4.858,2.062 4.877,2.083 0.095,0.105 0.23,0.167 0.373,0.167 0.168,-0.013 0.282,-0.062 0.376,-0.171 l 0.875,-1 c 0.172,-0.195 0.16,-0.494 -0.021,-0.681 -0.013,-0.013 -1.319,-1.463 -1.73,-2.906 z M 9.75,132.125 c 0,-1.93 1.57,-3.5 3.5,-3.5 H 165 c 1.93,0 3.5,1.57 3.5,3.5 v 103.75 c 0,1.93 -1.57,3.5 -3.5,3.5 H 13.25 c -1.93,0 -3.5,-1.57 -3.5,-3.5 z"
   inkscape:connector-curvature="0" />
			</defs>
			<clipPath
   id="SVGID_5_">
				<use
   xlink:href="#SVGID_4_"
   overflow="visible"
   id="use37"
   style="overflow:visible"
   x="0"
   y="0"
   width="100%"
   height="100%" />
			</clipPath>
			
		
				
					<linearGradient
   gradientTransform="matrix(-1.4994807,0,0,1,180.52061,0)"
   y2="182.06841"
   x2="35.375999"
   y1="182.06841"
   x1="4.6259999"
   gradientUnits="userSpaceOnUse"
   id="SVGID_6_">
					<stop
   offset="0.32315284"
   style="stop-color:#be0a26;stop-opacity:1"
   id="stop4511" />
					<stop
   id="stop42"
   style="stop-color:#560f19;stop-opacity:1"
   offset="1" />
				</linearGradient>
				
				
			
		
		
		
		
			
		
			
		
		
	
		
		
		
		
		
			
		
			
		
		
	<linearGradient
   inkscape:collect="always"
   xlink:href="#SVGID_6_"
   id="linearGradient4510"
   gradientUnits="userSpaceOnUse"
   x1="269.81836"
   y1="333.80341"
   x2="438.64343"
   y2="332.55273" /></defs><sodipodi:namedview
   pagecolor="#ffffff"
   bordercolor="#666666"
   borderopacity="1"
   objecttolerance="10"
   gridtolerance="10"
   guidetolerance="10"
   inkscape:pageopacity="0"
   inkscape:pageshadow="2"
   inkscape:window-width="1280"
   inkscape:window-height="961"
   id="namedview332"
   showgrid="false"
   inkscape:zoom="0.79956408"
   inkscape:cx="-71.384433"
   inkscape:cy="218.1017"
   inkscape:window-x="1272"
   inkscape:window-y="-8"
   inkscape:window-maximized="1"
   inkscape:current-layer="Fond" />

<path
   style="display:inline;fill:url(#linearGradient4510);stroke-width:2.60575104;fill-opacity:1"
   d="M 398.79492 48.037109 C 398.4223 48.037109 398.07046 48.195794 397.82031 48.474609 C 397.77081 48.529329 392.90904 53.900391 385.11523 53.900391 C 382.93162 53.900391 381.31567 53.997291 380.39062 54.171875 L 325.50977 54.175781 L 325.50977 67.529297 L 385.22461 67.529297 C 390.25371 67.529297 394.34375 71.619338 394.34375 76.648438 L 394.34375 91.416016 C 394.34375 96.445115 390.25371 100.53516 385.22461 100.53516 L 325.50977 100.53516 L 325.50977 103.67969 L 384.56836 103.67969 C 391.75241 103.67969 397.5957 97.836399 397.5957 90.652344 L 397.48633 60.435547 C 398.5599 56.667631 401.96157 52.897804 401.99023 52.869141 C 402.48272 52.387077 402.50801 51.606435 402.05469 51.087891 L 399.77539 48.482422 C 399.53045 48.201001 399.17601 48.039715 398.80078 48.037109 L 398.79492 48.037109 z M 398.79492 104.38672 C 398.4223 104.38672 398.07046 104.5454 397.82031 104.82422 C 397.77081 104.87892 392.90904 110.25 385.11523 110.25 C 382.93162 110.25 381.31567 110.3469 380.39062 110.52148 L 325.50977 110.52539 L 325.50977 123.87695 L 385.22461 123.87695 C 390.25371 123.87695 394.34375 127.96895 394.34375 132.99805 L 394.34375 290.32031 C 394.34375 295.34941 390.25371 299.43945 385.22461 299.43945 L 325.50977 299.43945 L 325.50977 302.58594 L 384.56836 302.58594 C 391.75241 302.58594 397.5957 296.7407 397.5957 289.55664 L 397.48633 116.78516 C 398.5599 113.01724 401.96157 109.24741 401.99023 109.21875 C 402.48272 108.73669 402.50801 107.95604 402.05469 107.4375 L 399.77539 104.83203 C 399.53045 104.55061 399.17601 104.38932 398.80078 104.38672 L 398.79492 104.38672 z "
   id="path4508" />
</svg>