<?xml version="1.0" encoding="UTF-8" standalone="no"?>
<!-- Generator: Adobe Illustrator 16.0.0, SVG Export Plug-In . SVG Version: 6.00 Build 0)  -->

<svg
   xmlns:dc="http://purl.org/dc/elements/1.1/"
   xmlns:cc="http://creativecommons.org/ns#"
   xmlns:rdf="http://www.w3.org/1999/02/22-rdf-syntax-ns#"
   xmlns:svg="http://www.w3.org/2000/svg"
   xmlns="http://www.w3.org/2000/svg"
   xmlns:sodipodi="http://sodipodi.sourceforge.net/DTD/sodipodi-0.dtd"
   xmlns:inkscape="http://www.inkscape.org/namespaces/inkscape"
   version="1.1"
   id="Fond"
   x="0px"
   y="0px"
   width="446.25"
   height="623.625"
   viewBox="0 0 446.25 623.62501"
   enable-background="new 0 0 178.58 249.45"
   xml:space="preserve"
   sodipodi:docname="ETS-Type1-Couleur1.svg"
   inkscape:version="0.92.0 r15299"><metadata
   id="metadata336"><rdf:RDF><cc:Work
       rdf:about=""><dc:format>image/svg+xml</dc:format><dc:type
         rdf:resource="http://purl.org/dc/dcmitype/StillImage" /><dc:title /></cc:Work></rdf:RDF></metadata><defs
   id="defs334">
	
	
	

		
		
		
		
			

		
			

		

		

	
		
		
		
		
		
			

		
			

		

		

	
		
		
		
		
			

		
			

		

		

	</defs><sodipodi:namedview
   pagecolor="#ffffff"
   bordercolor="#666666"
   borderopacity="1"
   objecttolerance="10"
   gridtolerance="10"
   guidetolerance="10"
   inkscape:pageopacity="0"
   inkscape:pageshadow="2"
   inkscape:window-width="1280"
   inkscape:window-height="961"
   id="namedview332"
   showgrid="false"
   inkscape:zoom="0.79956408"
   inkscape:cx="-30.713523"
   inkscape:cy="244.70347"
   inkscape:window-x="1272"
   inkscape:window-y="-8"
   inkscape:window-maximized="1"
   inkscape:current-layer="Fond" />

<path
   style="display:inline;fill:#be0a26;stroke-width:2.60575104"
   d="M 12.166016 48.037109 C 11.889807 48.068379 11.431141 48.199048 11.183594 48.480469 L 8.9042969 51.085938 C 8.4587135 51.596665 8.4873434 52.376658 8.9589844 52.861328 C 9.7537384 53.679533 13.792969 58.620118 13.792969 62.367188 C 13.792969 62.528745 13.830692 62.684156 13.898438 62.830078 L 13.248047 90.652344 C 13.248047 97.8364 19.093289 103.67969 26.277344 103.67969 L 384.56836 103.67969 C 391.75242 103.67969 397.5957 97.8364 397.5957 90.652344 L 397.48633 60.435547 C 398.5599 56.667631 401.96157 52.897804 401.99023 52.869141 C 402.48272 52.387077 402.50814 51.606435 402.05469 51.087891 L 399.77539 48.482422 C 399.53045 48.201001 399.17601 48.039714 398.80078 48.037109 L 398.79492 48.037109 C 398.4223 48.037109 398.07046 48.195793 397.82031 48.474609 C 397.77081 48.529329 392.90903 53.900391 385.11523 53.900391 C 382.93161 53.900391 381.31566 53.997287 380.39062 54.171875 L 30.792969 54.191406 C 29.646438 53.995975 28.026064 53.900391 25.847656 53.900391 C 18.098153 53.900391 13.188181 48.527377 13.138672 48.472656 C 12.891125 48.196446 12.536033 48.037109 12.166016 48.037109 z M 25.630859 67.529297 L 385.22461 67.529297 C 390.25371 67.529297 394.34375 71.619339 394.34375 76.648438 L 394.34375 91.416016 C 394.34375 96.445116 390.25371 100.53516 385.22461 100.53516 L 25.630859 100.53516 C 20.601759 100.53516 16.509766 96.445116 16.509766 91.416016 L 16.509766 76.648438 C 16.509766 71.619338 20.601759 67.529297 25.630859 67.529297 z M 12.166016 104.38672 C 11.889807 104.41802 11.431141 104.54866 11.183594 104.83008 L 8.9042969 107.43555 C 8.4587135 107.94628 8.4873432 108.72628 8.9589844 109.21094 C 9.7537384 110.02915 13.792969 114.96777 13.792969 118.71484 C 13.792969 118.8764 13.832645 119.03377 13.900391 119.17969 L 13.248047 289.55664 C 13.248047 296.74069 19.093289 302.58594 26.277344 302.58594 L 384.56836 302.58594 C 391.75242 302.58594 397.5957 296.74069 397.5957 289.55664 L 397.48633 116.78516 C 398.5599 113.01725 401.96157 109.24742 401.99023 109.21875 C 402.48272 108.73669 402.50814 107.95605 402.05469 107.4375 L 399.77539 104.83203 C 399.53045 104.55061 399.17601 104.38933 398.80078 104.38672 L 398.79492 104.38672 C 398.4223 104.38672 398.07046 104.5454 397.82031 104.82422 C 397.77081 104.87892 392.90903 110.25 385.11523 110.25 C 382.93161 110.25 381.31566 110.34688 380.39062 110.52148 L 30.792969 110.54102 C 29.646438 110.34559 28.026064 110.25 25.847656 110.25 C 18.098153 110.25 13.188181 104.87699 13.138672 104.82227 C 12.891125 104.54606 12.536033 104.38672 12.166016 104.38672 z M 25.630859 123.87695 L 385.22461 123.87695 C 390.25371 123.87695 394.34375 127.96895 394.34375 132.99805 L 394.34375 290.32031 C 394.34375 295.34941 390.25371 299.43945 385.22461 299.43945 L 25.630859 299.43945 C 20.601759 299.43945 16.509766 295.34941 16.509766 290.32031 L 16.509766 132.99805 C 16.509766 127.96895 20.601759 123.87695 25.630859 123.87695 z M 12.162109 302.04688 C 11.789487 302.04987 11.435046 302.20686 11.1875 302.48828 L 8.90625 305.09375 C 8.4606665 305.60448 8.4892963 306.38447 8.9609375 306.86914 C 9.7556916 307.68734 13.794922 312.62793 13.794922 316.375 C 13.794922 316.53655 13.833946 316.69522 13.904297 316.84375 L 13.904297 602.21875 C 13.833947 602.38031 13.794922 602.55653 13.794922 602.73633 C 13.794922 606.4834 9.756992 611.42333 8.9648438 612.23633 C 8.4801741 612.7236 8.4535017 613.49904 8.9042969 614.01758 L 11.183594 616.62305 C 11.431141 616.90447 11.837692 617.09702 12.166016 617.06836 C 12.536033 617.06836 12.888519 616.90641 13.138672 616.63281 C 13.188182 616.57811 18.098153 611.20508 25.847656 611.20508 C 26.783121 611.20508 27.572519 611.18159 28.226562 611.15039 L 418.94336 611.15039 C 419.65473 611.18169 420.44084 611.20508 421.37891 611.20508 C 429.12842 611.20508 434.03838 616.57809 434.08789 616.63281 C 434.33544 616.90641 434.68596 617.06836 435.05859 617.06836 C 435.49635 617.03446 435.79412 616.90707 436.03906 616.62305 L 438.31836 614.01758 C 438.76655 613.50946 438.73529 612.72946 438.26367 612.24219 C 438.22977 612.20829 434.82682 608.43001 433.75586 604.66992 L 433.75586 314.44727 C 434.82682 310.68717 438.23046 306.90562 438.26172 306.87695 C 438.749 306.39228 438.77179 305.6136 438.31836 305.09766 L 436.03906 302.49219 C 435.79151 302.20816 435.41557 301.98108 435.05859 302.04883 C 434.68596 302.04883 434.33544 302.20817 434.08789 302.48438 C 434.03839 302.53908 429.12842 307.91211 421.37891 307.91211 C 419.18748 307.91211 417.56892 308.00704 416.6543 308.18164 L 30.794922 308.20117 C 29.653603 308.00573 28.035834 307.9082 25.849609 307.9082 C 18.100105 307.9082 13.190135 302.53519 13.140625 302.48047 C 12.890473 302.20426 12.539939 302.04688 12.169922 302.04688 L 12.162109 302.04688 z M 25.957031 319.30859 L 421.37891 319.30859 C 426.40801 319.30859 430.5 323.40059 430.5 328.42969 L 430.5 598.77539 C 430.5 603.80449 426.40801 607.89648 421.37891 607.89648 L 25.957031 607.89648 C 20.927931 607.89648 16.835938 603.80449 16.835938 598.77539 L 16.835938 328.42969 C 16.835938 323.40059 20.927931 319.30859 25.957031 319.30859 z "
   id="path32" />
</svg>