<?xml version="1.0" encoding="UTF-8" standalone="no"?>
<!-- Generator: Adobe Illustrator 16.0.0, SVG Export Plug-In . SVG Version: 6.00 Build 0)  -->

<svg
   xmlns:dc="http://purl.org/dc/elements/1.1/"
   xmlns:cc="http://creativecommons.org/ns#"
   xmlns:rdf="http://www.w3.org/1999/02/22-rdf-syntax-ns#"
   xmlns:svg="http://www.w3.org/2000/svg"
   xmlns="http://www.w3.org/2000/svg"
   xmlns:sodipodi="http://sodipodi.sourceforge.net/DTD/sodipodi-0.dtd"
   xmlns:inkscape="http://www.inkscape.org/namespaces/inkscape"
   version="1.1"
   id="Fond"
   x="0px"
   y="0px"
   width="35.439945"
   height="25.340261"
   viewBox="0 0 35.439945 25.340262"
   enable-background="new 0 0 178.58 249.45"
   xml:space="preserve"
   sodipodi:docname="icon-eagle.svg"
   inkscape:version="0.92.0 r15299"><metadata
   id="metadata336"><rdf:RDF><cc:Work
       rdf:about=""><dc:format>image/svg+xml</dc:format><dc:type
         rdf:resource="http://purl.org/dc/dcmitype/StillImage" /><dc:title></dc:title></cc:Work></rdf:RDF></metadata><defs
   id="defs334">
	
	
	

		
		
		
		
			

		
			

		

		

	
			
			
		
				
				
				
				
			
				
				
				
			
					
					
				
					
					
				
					
					
				</defs><sodipodi:namedview
   pagecolor="#ffffff"
   bordercolor="#666666"
   borderopacity="1"
   objecttolerance="10"
   gridtolerance="10"
   guidetolerance="10"
   inkscape:pageopacity="0"
   inkscape:pageshadow="2"
   inkscape:window-width="1280"
   inkscape:window-height="961"
   id="namedview332"
   showgrid="false"
   inkscape:zoom="9.0460349"
   inkscape:cx="3.118977"
   inkscape:cy="2.5229254"
   inkscape:window-x="1272"
   inkscape:window-y="-8"
   inkscape:window-maximized="1"
   inkscape:current-layer="Fond"
   fit-margin-top="0"
   fit-margin-left="0"
   fit-margin-right="0"
   fit-margin-bottom="0" />

<path
   style="clip-rule:evenodd;display:inline;fill:#74ffff;fill-rule:evenodd;stroke-width:2.60575104;fill-opacity:1"
   d="M 17.580078 0.6484375 C 17.452388 0.6484375 17.207783 0.6847565 17.033203 0.9140625 C 17.020173 0.9270915 16.856103 1.1210787 16.845703 1.1367188 C 16.478293 1.6161768 16.181156 2.1468087 15.910156 2.6835938 L 15.513672 3.4863281 C 15.302612 3.9240941 15.089989 4.3656302 14.855469 4.7851562 C 14.511509 4.2535833 14.159714 3.7210216 13.802734 3.1972656 C 13.383204 2.5770966 12.944294 1.9645719 12.464844 1.3417969 C 12.415334 1.2688359 12.159584 1.0078375 12.083984 0.9609375 C 12.013624 0.9166375 11.935622 0.8984375 11.857422 0.8984375 C 11.698472 0.8984375 11.537851 0.9765025 11.394531 1.0703125 C 11.180851 1.2136285 11.084606 1.5636482 11.128906 1.8164062 L 11.724609 5.6152344 C 11.766299 5.8810204 11.829419 6.1437219 11.886719 6.4042969 C 11.938819 6.6231799 11.988891 6.8429686 12.025391 7.0566406 L 7.4648438 3.9453125 C 6.3574038 3.1948565 5.2370281 2.4724169 4.0800781 1.7949219 C 4.0175381 1.7558349 3.7429219 1.6386869 3.6699219 1.6230469 C 3.6386219 1.6152269 3.6113781 1.6132812 3.5800781 1.6132812 C 3.3481581 1.6132812 3.1778144 1.8084597 3.0527344 2.0273438 C 2.9120244 2.2748898 3.0324362 2.6743525 3.2226562 2.8828125 L 6.4746094 6.3027344 C 7.1937994 7.0688254 7.9058225 7.8491244 8.6015625 8.6464844 C 8.7657225 8.8314924 8.9243775 9.0168112 9.0859375 9.2070312 C 8.5752075 9.1236473 6.0449219 8.6875 6.0449219 8.6875 C 5.2136819 8.549395 4.3736169 8.4277794 3.4355469 8.3496094 C 3.2270869 8.3496094 2.9857512 8.473857 2.8632812 8.640625 C 2.7512812 8.794364 2.8000969 9.0396014 2.8417969 9.2246094 C 2.8834869 9.4096174 3.0969019 9.6184313 3.2636719 9.7070312 C 4.0219419 10.110922 4.7996619 10.479593 5.5761719 10.849609 L 6.1523438 11.126953 C 7.0721737 11.567325 8.0352481 12.03873 8.9550781 12.585938 C 6.5265181 13.758525 3.9699031 15.068695 1.0019531 16.658203 C 0.80912311 16.759828 0.68095625 16.955598 0.66015625 17.171875 C 0.63931625 17.390758 0.73492687 17.602129 0.90429688 17.740234 C 1.0189469 17.831438 1.3469169 17.890625 1.4980469 17.890625 L 2.4667969 17.746094 C 3.4543769 17.587143 4.4427644 17.408961 5.4277344 17.234375 L 7.5019531 16.873047 C 8.2498031 16.745365 9.0001894 16.627668 9.7558594 16.523438 C 9.7454294 16.544284 7.9628906 19.396484 7.9628906 19.396484 C 7.5459706 20.076585 7.0633819 20.895276 6.6699219 21.8125 C 6.6125219 21.93497 6.5741562 22.162029 6.5976562 22.294922 C 6.6523863 22.607612 6.9229813 22.833984 7.2382812 22.833984 C 7.3763813 22.833984 7.5956531 22.753959 7.6894531 22.667969 L 8.6328125 21.990234 L 9.9785156 20.998047 C 10.280785 20.779164 10.577863 20.559418 11.007812 20.275391 C 11.596713 19.887134 12.183209 19.496284 12.824219 19.183594 C 13.022259 19.084576 13.181571 18.938277 13.306641 18.732422 C 13.4601 18.466821 13.61784 18.204869 13.775391 17.943359 C 13.915112 18.460904 14.087014 18.967165 14.326172 19.447266 C 14.584142 19.971022 14.917714 20.437243 15.339844 20.859375 L 15.865234 20.462891 L 15.412109 20.929688 C 15.534579 21.052157 15.701074 21.115234 15.865234 21.115234 C 15.956434 21.115234 16.051378 21.095728 16.142578 21.048828 C 16.390128 20.934175 16.537731 20.682454 16.519531 20.414062 L 16.490234 20.015625 C 16.472034 19.6873 16.462231 19.339391 16.519531 19.013672 C 16.563831 18.773943 16.696461 18.58475 16.957031 18.394531 C 17.175911 18.230368 17.424267 18.10493 17.773438 17.919922 C 18.078308 17.753154 18.377435 17.567822 18.671875 17.382812 L 19.269531 17.015625 C 19.69505 16.766519 20.098386 16.571038 20.505859 16.365234 C 20.53756 16.469549 20.588522 16.57303 20.646484 16.666016 C 20.766354 16.856236 21.070177 16.966797 21.304688 16.966797 C 21.317718 16.966797 21.957031 16.9375 21.957031 16.9375 C 21.957031 16.9375 22.687395 16.938159 22.859375 16.943359 C 22.908885 17.08407 23.010984 17.20568 23.146484 17.28125 C 23.068314 17.309913 22.992188 17.354779 22.929688 17.412109 C 22.741678 17.581483 22.671141 17.841649 22.744141 18.083984 L 22.970703 18.792969 C 22.934203 18.821629 22.9037 18.852192 22.875 18.888672 C 22.75776 19.0372 22.69265 19.228406 22.71875 19.408203 C 22.52331 19.548913 22.405616 19.809751 22.416016 20.046875 L 22.429688 20.273438 C 22.302038 20.395907 22.226562 20.565644 22.226562 20.748047 L 22.226562 21.429688 C 22.226562 21.786675 22.543401 22.125659 22.900391 22.130859 L 22.935547 22.28125 C 23.003297 22.523585 23.242684 22.649059 23.490234 22.693359 C 23.518934 22.698559 23.545519 22.701172 23.574219 22.701172 C 23.660209 22.701172 23.745372 22.680364 23.826172 22.646484 C 23.904342 22.680354 23.990172 22.701172 24.076172 22.701172 C 24.081382 22.701172 24.187475 22.695967 24.234375 22.685547 C 24.320365 22.909641 24.527194 23.073549 24.777344 23.099609 C 24.798144 23.102209 24.820984 23.103516 24.833984 23.103516 C 25.016384 23.103516 25.182874 23.029373 25.302734 22.904297 C 25.323584 22.904297 25.483716 22.898443 25.541016 22.882812 C 25.731236 22.828091 25.882738 22.695418 25.960938 22.523438 C 26.033897 22.552097 26.111241 22.568359 26.181641 22.568359 C 26.304111 22.568359 26.450457 22.526077 26.554688 22.460938 C 26.833458 22.283746 26.95321 21.890805 26.8125 21.59375 C 26.7943 21.531212 26.771447 21.46879 26.748047 21.40625 C 26.768847 21.37759 26.788441 21.345723 26.806641 21.314453 C 26.926501 21.270156 27.0442 21.192755 27.125 21.109375 C 27.22663 21.002539 27.313184 20.836033 27.333984 20.679688 C 27.459064 20.815187 27.573504 20.953045 27.677734 21.085938 C 27.802814 21.231859 28.061086 21.375 28.253906 21.375 C 28.491026 21.375 28.764256 21.194788 28.878906 20.986328 C 28.998776 20.772656 29.210106 20.60041 29.509766 20.355469 C 29.955356 19.995875 30.293453 19.55362 30.564453 19.167969 C 30.976163 18.58428 31.387098 18.121322 31.830078 17.746094 C 32.338198 17.310933 32.683496 16.760808 32.847656 16.117188 C 32.886746 15.971265 32.951074 15.817887 33.115234 15.523438 C 33.321094 15.320188 33.447216 15.053554 33.478516 14.777344 C 33.501966 14.576701 33.581956 14.362114 33.660156 14.140625 C 33.991096 13.252064 34.201724 12.325357 34.371094 11.525391 C 34.522234 10.82705 34.642513 10.123584 34.751953 9.2402344 C 34.798863 9.0421974 34.816641 8.6636141 34.425781 8.3300781 C 33.518971 7.5665931 32.5657 6.9059301 31.59375 6.3613281 C 30.07721 5.5066421 28.569324 4.9780102 26.990234 4.7382812 C 26.416974 4.6522903 25.843578 4.6061231 25.048828 4.5957031 C 23.772008 4.5957031 22.546923 4.7862285 21.408203 5.1640625 C 20.476702 5.473909 19.612359 5.8981106 18.828125 6.4296875 C 18.860884 6.2663439 18.859195 6.095529 18.820312 5.7714844 L 18.669922 4.3496094 C 18.596962 3.5704894 18.523518 2.7882328 18.398438 2.0117188 L 18.267578 1.2792969 C 18.238918 1.0578079 18.064578 0.80279437 17.861328 0.70898438 C 17.824848 0.69074437 17.621778 0.6562375 17.580078 0.6484375 z M 16.488281 6.84375 L 16.498047 6.9394531 C 16.54781 7.3805135 16.630952 7.8856299 16.787109 8.4121094 C 16.665692 8.6005282 16.555848 8.7927875 16.462891 8.9921875 C 16.366481 9.2032535 16.284497 9.4197699 16.216797 9.6699219 C 16.169887 9.8627479 16.212821 10.118393 16.337891 10.277344 C 16.181974 10.385283 16.026346 10.502884 15.865234 10.646484 C 15.179924 11.261441 14.680572 11.837511 14.294922 12.462891 C 14.012591 12.919215 13.810741 13.401177 13.675781 13.896484 C 13.658405 13.858745 13.643397 13.818921 13.619141 13.787109 C 13.494071 13.625552 13.095828 13.539062 12.892578 13.539062 C 12.613758 13.588575 12.335461 13.638647 12.056641 13.685547 C 12.395391 13.500538 12.726373 13.31261 13.039062 13.132812 C 13.315273 13.015555 13.539088 12.661637 13.492188 12.367188 C 13.492188 12.361957 13.488281 12.356116 13.488281 12.353516 C 13.605541 12.350906 13.721295 12.347014 13.828125 12.333984 C 14.104335 12.318349 14.399009 12.109536 14.474609 11.84375 C 14.521509 11.687405 14.504553 11.511809 14.439453 11.363281 C 14.580163 11.337224 14.721959 11.270238 14.818359 11.173828 C 14.969459 11.022694 15.037147 10.716925 14.998047 10.505859 C 14.998047 10.505859 14.6641 8.7677011 14.625 8.5644531 C 14.7579 8.6582621 14.934812 8.7363281 15.070312 8.7363281 C 15.328282 8.7363281 15.542811 8.6037816 15.800781 8.1660156 L 15.996094 7.8066406 C 16.168074 7.4939506 16.321519 7.177277 16.480469 6.859375 C 16.483469 6.854155 16.485281 6.84895 16.488281 6.84375 z M 13.505859 14.873047 C 13.484072 15.134509 13.483531 15.389252 13.482422 15.644531 C 13.290859 15.762136 13.103551 15.885476 12.878906 16.039062 C 13.108064 15.655742 13.311336 15.26503 13.505859 14.873047 z "
   id="path290" />
</svg>