<?xml version="1.0" encoding="UTF-8" standalone="no"?>
<!-- Generator: Adobe Illustrator 16.0.0, SVG Export Plug-In . SVG Version: 6.00 Build 0)  -->

<svg
   xmlns:dc="http://purl.org/dc/elements/1.1/"
   xmlns:cc="http://creativecommons.org/ns#"
   xmlns:rdf="http://www.w3.org/1999/02/22-rdf-syntax-ns#"
   xmlns:svg="http://www.w3.org/2000/svg"
   xmlns="http://www.w3.org/2000/svg"
   xmlns:sodipodi="http://sodipodi.sourceforge.net/DTD/sodipodi-0.dtd"
   xmlns:inkscape="http://www.inkscape.org/namespaces/inkscape"
   version="1.1"
   id="Fond"
   x="0px"
   y="0px"
   width="34.168182"
   height="25.44173"
   viewBox="0 0 34.168182 25.441731"
   enable-background="new 0 0 178.58 249.45"
   xml:space="preserve"
   sodipodi:docname="icon-eye.svg"
   inkscape:version="0.92.0 r15299"><metadata
   id="metadata336"><rdf:RDF><cc:Work
       rdf:about=""><dc:format>image/svg+xml</dc:format><dc:type
         rdf:resource="http://purl.org/dc/dcmitype/StillImage" /><dc:title /></cc:Work></rdf:RDF></metadata><defs
   id="defs334">
	
	
	

		
		
		
		
		
			

		
			

		

		

	
			
			
		
				
			
				
			
					
					
				
					
					
				</defs><sodipodi:namedview
   pagecolor="#ffffff"
   bordercolor="#666666"
   borderopacity="1"
   objecttolerance="10"
   gridtolerance="10"
   guidetolerance="10"
   inkscape:pageopacity="0"
   inkscape:pageshadow="2"
   inkscape:window-width="1280"
   inkscape:window-height="961"
   id="namedview332"
   showgrid="false"
   inkscape:zoom="9.0460351"
   inkscape:cx="-0.61348576"
   inkscape:cy="2.7764575"
   inkscape:window-x="1272"
   inkscape:window-y="-8"
   inkscape:window-maximized="1"
   inkscape:current-layer="Fond"
   fit-margin-top="0"
   fit-margin-left="0"
   fit-margin-right="0"
   fit-margin-bottom="0" />

<path
   style="clip-rule:evenodd;display:inline;fill:#3effff;fill-opacity:1;fill-rule:evenodd;stroke-width:2.60575104"
   d="M 10.8125 0.65429688 C 8.6002201 0.65429688 7.0085644 0.9999625 6.8339844 1.0390625 C 4.3741544 1.5966925 2.2006732 3.0515444 0.87695312 5.0214844 C 0.58511313 5.4436144 0.70507812 6.1933594 0.70507812 6.1933594 C 0.78846813 6.6676094 1.5133819 7.1953125 1.9824219 7.1953125 L 1.984375 7.1953125 C 2.370025 7.1718625 2.7140644 6.9728537 2.9277344 6.6523438 C 3.9700344 5.1123437 5.6818969 3.9136506 7.4042969 3.5253906 C 8.6472369 3.2439706 10.066248 3.0898438 11.392578 3.0898438 C 13.782048 3.0898438 15.838179 3.5651869 17.505859 4.4980469 C 18.045249 4.8029169 18.537496 5.0896862 18.972656 5.3476562 C 20.635126 6.3222062 21.944934 7.0897112 23.646484 7.3007812 C 24.748265 7.4388237 26.225703 7.595573 27.822266 7.5957031 C 29.616809 7.5955516 31.213223 7.3933233 32.5625 7 C 32.84914 6.91661 33.100161 6.7312906 33.269531 6.4628906 C 33.358131 6.3143706 33.462341 6.0537162 33.300781 5.5039062 C 33.139221 4.9540862 32.912861 4.7871719 32.738281 4.7011719 C 32.574121 4.6282219 32.39855 4.5878906 32.21875 4.5878906 C 32.15622 4.5878906 31.9323 4.6204719 31.875 4.6386719 C 30.53043 5.0347419 28.889167 5.234375 26.992188 5.234375 C 25.512117 5.234375 24.350529 5.1093875 23.917969 5.0546875 C 22.714109 4.9035475 21.783491 4.3846688 20.238281 3.4804688 L 19.796875 3.2109375 C 19.471155 3.0076875 19.049765 2.7430094 18.578125 2.4746094 C 16.449225 1.2837894 13.76482 0.65429688 10.8125 0.65429688 z M 11.197266 6.2871094 C 10.900206 6.2871094 10.602387 6.2975469 10.310547 6.3105469 C 9.792007 6.3366069 9.273745 6.3710438 8.765625 6.4648438 C 8.200175 6.5716737 7.6606287 6.7498425 6.8867188 7.0078125 C 6.1805587 7.2397225 5.5751706 7.6513494 5.0878906 8.2246094 C 4.7517506 8.6128694 4.4415888 9.0179875 4.1367188 9.4296875 C 3.5087287 10.271347 2.9340987 11.02554 2.1054688 11.84375 C 1.8709487 12.07306 1.6336194 12.303903 1.3808594 12.533203 C 1.1776094 12.621803 0.89853 12.747208 0.75 13.054688 C 0.61715 13.338717 0.62686062 13.692512 0.77539062 14.007812 C 0.91349063 14.307472 1.1566119 14.524676 1.6386719 14.628906 C 1.8028319 14.628906 1.9543388 14.576819 2.1054688 14.511719 L 4.21875 14.449219 C 4.42982 14.449219 4.6411494 14.460241 4.8496094 14.494141 C 4.9590494 14.512441 5.0774156 14.535156 5.1660156 14.535156 C 5.2077156 14.535156 5.239525 14.530578 5.265625 14.517578 C 5.299525 15.106478 5.3203125 15.754193 5.3203125 16.345703 C 5.3203125 16.442113 5.0755975 16.702388 4.9609375 16.830078 L 4.7128906 17.126953 C 4.4549306 17.517813 4.3378406 17.940489 4.3691406 18.380859 C 4.3952006 18.737849 4.5057494 19.068182 4.6933594 19.357422 C 4.8314694 19.576302 5.0421869 19.732979 5.2480469 19.886719 C 5.3210069 19.941439 5.4407094 20.03125 5.4746094 20.03125 C 5.4800094 20.03125 5.484375 20.028437 5.484375 20.023438 C 5.724105 20.977148 5.8683913 21.91087 6.0195312 22.875 L 6.0976562 23.384766 C 6.1419562 23.627106 6.2049956 23.911282 6.3535156 24.195312 C 6.5202856 24.521033 6.7641162 24.716137 7.0976562 24.773438 C 7.1263163 24.776438 7.3723375 24.79685 7.3984375 24.78125 C 7.6824675 24.78125 7.9451675 24.718812 8.1796875 24.601562 C 8.4923775 24.450422 8.6868156 24.157214 8.7285156 23.646484 C 8.7780456 23.005474 8.8052844 22.364323 8.8339844 21.720703 L 8.875 20.738281 C 8.89586 20.157201 8.9191875 19.577181 8.9921875 18.988281 C 9.0182475 18.774611 9.0436281 18.599679 9.1113281 18.474609 C 9.2155181 18.284389 9.2741094 18.073052 9.2871094 17.851562 C 9.3075094 17.567532 9.3105469 17.285973 9.3105469 17.001953 C 9.3131469 16.790883 9.3222656 15.822266 9.3222656 15.822266 C 9.3431156 15.837906 10.015625 16.361328 10.015625 16.361328 C 10.354375 16.632328 10.698354 16.90609 11.052734 17.15625 C 14.711204 19.73854 18.136614 21.645672 21.521484 22.982422 C 23.217824 23.654712 24.657348 23.992834 26.048828 24.052734 L 26.570312 24.064453 C 27.763742 24.064453 28.839229 23.888897 29.855469 23.529297 C 30.806569 23.198367 31.576431 22.737997 32.207031 22.123047 C 32.821981 21.518507 33.229053 20.798679 33.414062 19.980469 C 33.515663 19.524459 33.541688 19.032242 33.492188 18.482422 C 33.453098 17.958672 33.303549 17.472269 33.042969 17.037109 C 32.537459 16.187639 31.691347 15.697266 30.716797 15.697266 C 30.380647 15.697266 30.045776 15.75774 29.722656 15.875 C 28.643876 16.27368 27.973156 17.529251 28.228516 18.675781 C 28.444796 19.665961 29.296789 20.359375 30.505859 20.359375 L 30.533203 20.359375 C 30.869353 20.325505 31.288925 20.155121 31.515625 19.863281 C 31.434845 20.048291 31.323664 20.223855 31.177734 20.390625 C 30.857234 20.755435 30.438482 21.044138 29.888672 21.273438 C 29.015742 21.643458 28.093066 21.822266 27.066406 21.822266 C 26.740686 21.822266 26.411008 21.801478 26.080078 21.767578 C 25.311378 21.684198 24.542772 21.50017 23.794922 21.21875 C 22.815162 20.85395 21.783309 20.386457 20.542969 19.748047 C 18.038849 18.466017 15.960729 17.120051 14.167969 15.619141 C 13.818799 15.322091 13.460483 15.026892 13.126953 14.701172 C 13.179063 14.693372 13.22915 14.689641 13.28125 14.681641 C 14.2584 14.551351 15.2468 14.346525 16.21875 14.078125 C 17.14639 13.822765 18.042424 13.480037 18.933594 13.123047 L 19.255859 12.998047 C 19.727499 12.813037 20.199693 12.626429 20.501953 12.417969 C 20.715623 12.371069 20.947111 12.347656 21.212891 12.347656 C 21.392691 12.347656 21.575412 12.3594 21.757812 12.375 C 21.757812 12.375 22.628754 12.45575 22.871094 12.46875 C 23.139484 12.48705 23.405438 12.493953 23.673828 12.501953 C 23.673828 12.501953 24.238094 12.509766 24.246094 12.509766 C 25.796514 12.509766 27.74644 12.724504 29.3125 12.896484 C 29.9952 12.972054 31.466797 13.111328 31.466797 13.111328 C 31.769067 13.137398 32.070687 13.161375 32.529297 13.234375 C 32.719517 13.234375 32.93743 13.138108 33.0625 12.992188 C 33.18494 12.848868 33.243544 12.603636 33.214844 12.416016 C 33.173144 12.145026 33.191331 11.653308 33.269531 11.142578 C 33.272131 11.082648 33.253881 10.834644 33.238281 10.777344 C 33.141871 10.368234 32.840099 10.115856 32.417969 10.097656 C 32.415369 10.097656 31.402344 10.130859 31.402344 10.130859 C 31.060994 10.138759 29.943327 10.158203 28.929688 10.158203 C 28.273038 10.158203 27.660346 10.150353 27.347656 10.126953 C 26.409586 10.059193 25.467367 10.009791 24.529297 9.9628906 C 23.744967 9.9211906 23.034265 9.8282075 22.359375 9.6796875 C 21.311865 9.4451675 20.563537 9.1506531 19.935547 8.7207031 C 19.208547 8.2230031 18.400773 7.8933725 17.783203 7.6640625 C 16.084253 7.0230525 14.626662 6.6388019 12.951172 6.4199219 C 12.596782 6.3730719 12.245005 6.3274406 11.890625 6.3066406 C 11.658705 6.2934406 11.429176 6.2871094 11.197266 6.2871094 z M 15.599609 9.515625 C 16.347469 9.713665 16.979479 9.9418906 17.537109 10.212891 C 17.800289 10.337971 18.010924 10.451054 18.240234 10.646484 C 18.039594 10.828884 17.808109 10.996651 17.537109 11.150391 C 16.982079 11.463081 16.324736 11.704289 15.472656 11.917969 C 15.358006 11.944069 15.245509 11.972694 15.130859 11.996094 C 15.537389 11.243034 15.693409 10.414615 15.599609 9.515625 z M 6.8476562 10.052734 C 6.8554662 10.912634 7.0928131 11.689682 7.5644531 12.382812 C 7.0537231 12.354152 6.5400269 12.315125 6.0292969 12.265625 L 5.0234375 12.158203 L 5.0390625 12.140625 C 5.3908325 11.747165 5.742005 11.347269 6.046875 10.912109 C 6.260545 10.609839 6.5245362 10.326334 6.8476562 10.052734 z M 30.658203 17.558594 L 30.662109 17.558594 C 31.099869 17.574234 31.480404 17.881244 31.589844 18.308594 C 31.660444 18.584804 31.684863 18.892358 31.664062 19.267578 C 31.609343 19.022638 31.380772 18.646484 30.445312 18.646484 L 30.4375 18.646484 C 30.29158 18.646484 30.197975 18.612597 30.171875 18.591797 C 30.080635 18.521447 30.002625 18.41943 30.015625 18.15625 C 30.026045 17.82011 30.296003 17.558594 30.658203 17.558594 z "
   id="path234" />
</svg>