<?xml version="1.0" encoding="UTF-8" standalone="no"?>
<!-- Generator: Adobe Illustrator 16.0.0, SVG Export Plug-In . SVG Version: 6.00 Build 0)  -->

<svg
   xmlns:dc="http://purl.org/dc/elements/1.1/"
   xmlns:cc="http://creativecommons.org/ns#"
   xmlns:rdf="http://www.w3.org/1999/02/22-rdf-syntax-ns#"
   xmlns:svg="http://www.w3.org/2000/svg"
   xmlns="http://www.w3.org/2000/svg"
   xmlns:sodipodi="http://sodipodi.sourceforge.net/DTD/sodipodi-0.dtd"
   xmlns:inkscape="http://www.inkscape.org/namespaces/inkscape"
   version="1.1"
   id="Layer_1"
   x="0px"
   y="0px"
   width="56.693px"
   height="56.693px"
   viewBox="-7.087 -7.087 56.693 56.693"
   enable-background="new -7.087 -7.087 56.693 56.693"
   xml:space="preserve"
   sodipodi:docname="Localite-Forteresse.svg"
   inkscape:version="0.92.0 r15299"><metadata
   id="metadata17"><rdf:RDF><cc:Work
       rdf:about=""><dc:format>image/svg+xml</dc:format><dc:type
         rdf:resource="http://purl.org/dc/dcmitype/StillImage" /></cc:Work></rdf:RDF></metadata><defs
   id="defs15">
	
	
	
</defs><sodipodi:namedview
   pagecolor="#ffffff"
   bordercolor="#666666"
   borderopacity="1"
   objecttolerance="10"
   gridtolerance="10"
   guidetolerance="10"
   inkscape:pageopacity="0"
   inkscape:pageshadow="2"
   inkscape:window-width="1280"
   inkscape:window-height="961"
   id="namedview13"
   showgrid="false"
   inkscape:zoom="4.1627714"
   inkscape:cx="-3.8435933"
   inkscape:cy="28.3465"
   inkscape:window-x="1272"
   inkscape:window-y="-8"
   inkscape:window-maximized="1"
   inkscape:current-layer="Layer_1" />
<path
   d="M 28.851562 0.28515625 C 27.582563 0.27115625 26.317734 0.30667188 25.052734 0.38867188 C 24.253734 0.44067187 23.487672 0.60875 22.763672 0.96875 C 22.199672 1.24975 21.602234 1.4611875 20.990234 1.6171875 C 20.176234 1.8251875 19.385328 2.0949219 18.611328 2.4199219 C 17.555328 2.8629219 16.521047 3.3422656 15.623047 4.0722656 C 15.287047 4.3452656 14.908172 4.5332187 14.451172 4.5742188 C 13.799172 4.6322187 13.249422 4.9578906 12.732422 5.3378906 C 12.468422 5.5308906 12.254719 5.7781875 12.011719 5.9921875 C 11.808719 6.1711875 11.599078 6.3471094 11.330078 6.4121094 C 11.193078 6.4461094 11.068078 6.4942656 10.955078 6.5722656 C 9.7650781 7.3782656 8.7404063 8.3507813 7.9414062 9.5507812 C 7.3864063 10.382781 6.9386875 11.275766 6.4296875 12.134766 C 6.2596875 12.422766 6.0860937 12.707797 5.8710938 12.966797 C 5.6990938 13.173797 5.4957969 13.314844 5.2167969 13.339844 C 4.9557969 13.363844 4.7639531 13.505609 4.6269531 13.724609 C 4.5129531 13.905609 4.42375 14.100875 4.34375 14.296875 C 4.06075 14.992875 3.7115313 15.644719 3.2695312 16.261719 C 2.5705313 17.240719 2.08775 18.336516 1.71875 19.478516 C 1.48475 20.203516 1.4577656 20.9845 1.1347656 21.6875 C 0.61676563 23.6825 0.43820313 25.701906 0.65820312 27.753906 C 0.81220312 29.186906 1.0855469 30.594234 1.4355469 31.990234 C 1.6425469 32.813234 1.8778594 33.632656 2.0058594 34.472656 C 2.0848594 34.991656 2.1161875 35.50825 2.1171875 36.03125 C 2.1181875 36.32825 2.1625 36.624406 2.4375 36.816406 C 2.5695 36.906406 2.673625 37.019438 2.765625 37.148438 C 2.988625 37.463438 3.1656406 37.806969 3.3066406 38.167969 C 3.7816406 39.383969 4.2723281 40.591766 4.8613281 41.759766 C 5.4863281 42.999766 6.2898906 44.100391 7.3378906 45.025391 C 8.0768906 45.676391 8.8227969 46.319547 9.5917969 46.935547 C 10.154797 47.386547 10.755406 47.788187 11.316406 48.242188 C 12.087406 48.863187 12.744891 49.597719 13.337891 50.386719 C 13.843891 51.059719 14.478 51.560391 15.25 51.900391 C 16.913 52.634391 18.570375 53.381234 20.234375 54.115234 C 21.224375 54.551234 22.238906 54.926734 23.253906 55.302734 C 23.648906 55.448734 24.050562 55.613062 24.351562 55.914062 C 24.565562 56.128062 24.807844 56.242688 25.089844 56.304688 C 25.646844 56.426687 26.211391 56.431859 26.775391 56.380859 C 27.387391 56.329859 27.978672 56.202187 28.513672 55.867188 C 28.825672 55.672187 29.182734 55.568781 29.552734 55.550781 C 29.971734 55.529781 30.385063 55.472187 30.789062 55.367188 C 31.694063 55.133187 32.60325 54.908109 33.53125 54.787109 C 34.41425 54.671109 35.270797 54.462094 36.091797 54.121094 C 38.129797 53.277094 40.1165 52.324109 42.0625 51.287109 C 43.0715 50.747109 44.065516 50.178219 44.853516 49.324219 C 44.942516 49.227219 45.049687 49.140469 45.179688 49.105469 C 45.290687 49.074469 45.383656 49.020172 45.472656 48.951172 C 45.827656 48.678172 46.145891 48.362828 46.462891 48.048828 C 48.003891 46.508828 49.344578 44.800594 50.642578 43.058594 C 51.359578 42.096594 51.987016 41.082078 52.416016 39.955078 C 52.686016 39.250078 53.015563 38.571484 53.351562 37.896484 C 53.584563 37.429484 53.799219 36.952125 53.949219 36.453125 C 54.237219 35.499125 54.519016 34.544937 54.791016 33.585938 C 54.998016 32.855938 55.189516 32.118469 55.228516 31.355469 C 55.251516 30.905469 55.317469 30.464828 55.480469 30.048828 C 55.745469 29.380828 55.833313 28.6925 55.820312 28.0625 C 55.822313 27.1885 55.724844 26.404 55.589844 25.625 C 55.288844 23.906 54.813984 22.233609 54.208984 20.599609 C 52.973984 17.259609 51.309859 14.128453 49.505859 11.064453 C 49.187859 10.522453 48.773344 10.0735 48.277344 9.6875 C 47.750344 9.2745 47.206297 8.883 46.654297 8.5 C 45.965297 8.022 45.294109 7.52375 44.662109 6.96875 C 43.766109 6.18075 42.773641 5.5320625 41.681641 5.0390625 C 40.895641 4.6860625 40.1635 4.24125 39.4375 3.78125 C 38.1705 2.98225 36.860516 2.2813437 35.353516 2.0273438 C 34.783516 1.9313437 34.262188 1.6707344 33.742188 1.4277344 C 32.192188 0.70673437 30.570562 0.30315625 28.851562 0.28515625 z M 27.257812 3.1230469 C 27.583313 3.1194844 27.909828 3.1239687 28.236328 3.1367188 C 29.168328 3.1737187 30.090906 3.2754688 31.003906 3.4804688 C 31.667906 3.6304687 32.287437 3.8905937 32.898438 4.1835938 C 33.992437 4.7075937 35.131984 5.1381719 36.208984 5.7011719 C 36.795984 6.0081719 37.316484 6.4173281 37.896484 6.7363281 C 38.065484 6.8293281 38.225625 6.9322969 38.390625 7.0292969 L 41.244141 7.0292969 C 42.348141 7.0292969 43.244141 7.9252969 43.244141 9.0292969 L 43.244141 10.501953 C 43.583141 10.779953 43.922266 11.053234 44.322266 11.240234 C 44.780266 11.453234 45.158141 11.759047 45.494141 12.123047 C 45.772141 12.427047 45.995031 12.773953 46.207031 13.126953 C 47.015031 14.476953 47.723859 15.874469 48.255859 17.355469 C 48.366859 17.662469 48.406328 17.986828 48.486328 18.298828 C 48.577328 18.652828 48.684469 19.000906 48.980469 19.253906 C 49.105469 19.362906 49.1395 19.525594 49.1875 19.683594 C 49.3415 20.197594 49.557813 20.688547 49.757812 21.185547 C 50.118813 22.086547 50.526703 22.969672 50.845703 23.888672 C 51.095703 24.610672 51.151656 25.350469 51.097656 26.105469 C 51.007656 27.373469 50.900484 28.639297 50.771484 29.904297 C 50.635484 31.243297 50.508266 32.583484 50.197266 33.896484 C 50.083266 34.381484 49.910203 34.841344 49.658203 35.277344 C 49.348203 35.819344 49.157219 36.416953 48.949219 37.001953 C 48.639219 37.877953 48.251672 38.716766 47.763672 39.509766 C 47.622672 39.738766 47.503234 39.979031 47.365234 40.207031 C 47.268234 40.367031 47.266641 40.557703 47.181641 40.720703 C 47.040641 40.991703 46.875453 41.246281 46.689453 41.488281 C 45.616453 42.884281 44.425516 44.170078 43.103516 45.330078 L 43.484375 47.609375 C 43.581375 48.189375 43.419062 48.782469 43.039062 49.230469 C 42.659062 49.679469 42.101672 49.939453 41.513672 49.939453 L 36.744141 49.939453 C 36.348141 50.115453 35.945297 50.278016 35.529297 50.416016 C 34.444297 50.776016 33.328547 50.944172 32.185547 50.951172 C 31.620547 50.953172 31.056234 50.951172 30.490234 50.951172 C 29.522234 50.963172 28.556797 50.953672 27.591797 50.888672 C 27.408797 50.876672 27.227875 50.853078 27.046875 50.830078 C 27.006875 50.825078 26.959688 50.821828 26.929688 50.798828 C 26.579687 50.539828 26.158953 50.504875 25.751953 50.421875 C 25.014953 50.274875 24.279875 50.107453 23.546875 49.939453 L 14.941406 49.939453 C 14.353406 49.939453 13.796016 49.681422 13.416016 49.232422 C 13.036016 48.783422 12.873703 48.189375 12.970703 47.609375 L 13.410156 44.976562 C 13.248156 44.768563 13.058703 44.582734 12.845703 44.427734 C 12.208703 43.963734 11.698094 43.377141 11.246094 42.744141 C 10.578094 41.807141 9.8398906 40.936594 8.9628906 40.183594 C 8.4378906 39.733594 8.0717187 39.178766 7.8867188 38.509766 C 7.7987187 38.191766 7.6887812 37.881031 7.5507812 37.582031 C 7.4447813 37.352031 7.3306719 37.126266 7.1386719 36.947266 C 7.0146719 36.832266 6.9292031 36.682719 6.9082031 36.511719 C 6.8542031 36.049719 6.7039219 35.614594 6.5449219 35.183594 C 6.0849219 33.935594 5.7838125 32.645609 5.5078125 31.349609 C 5.2678125 30.219609 5.0674063 29.083547 4.9414062 27.935547 C 4.8524063 27.124547 4.8812344 26.319672 4.9902344 25.513672 C 5.2132344 23.870672 5.5647969 22.255641 6.0917969 20.681641 C 6.2697969 20.148641 6.4702813 19.623953 6.7382812 19.126953 C 6.8152812 18.983953 6.9008594 18.846656 7.0058594 18.722656 C 7.3208594 18.347656 7.5685312 17.929375 7.7695312 17.484375 C 7.8825312 17.235375 7.9980156 16.988531 8.1660156 16.769531 C 8.2550156 16.651531 8.3542812 16.546656 8.4882812 16.472656 C 8.6112813 16.406656 8.6894375 16.290641 8.7734375 16.181641 C 8.9714375 15.923641 9.1469219 15.648375 9.2949219 15.359375 C 10.109922 13.761375 11.163297 12.323734 12.279297 10.927734 C 12.579297 10.552734 12.894938 10.192031 13.210938 9.8320312 L 13.210938 9.0292969 C 13.210938 7.9252969 14.106938 7.0292969 15.210938 7.0292969 L 17.179688 7.0292969 C 17.312687 6.9562969 17.448313 6.8900625 17.570312 6.7890625 C 18.512313 6.0070625 19.561297 5.3849375 20.654297 4.8359375 C 21.837297 4.2429375 23.055563 3.7383594 24.351562 3.4433594 C 25.310063 3.2251094 26.281312 3.1337344 27.257812 3.1230469 z M 15.210938 9.0292969 L 15.210938 16.742188 L 19.048828 21.037109 L 19.048828 36.236328 L 16.902344 36.236328 L 14.941406 47.9375 L 41.511719 47.9375 L 41.298828 46.666016 L 39.552734 36.236328 L 37.404297 36.236328 L 37.404297 21.037109 L 41.242188 16.742188 L 41.242188 9.0292969 L 36.763672 9.0292969 L 36.763672 12.679688 L 34.035156 12.679688 L 34.035156 9.0292969 L 29.556641 9.0292969 L 29.556641 12.679688 L 26.863281 12.679688 L 26.863281 9.0292969 L 22.384766 9.0292969 L 22.384766 12.679688 L 19.691406 12.679688 L 19.691406 9.0292969 L 15.210938 9.0292969 z M 21.335938 21.724609 L 22.886719 21.724609 L 22.886719 25.894531 L 21.335938 25.894531 L 21.335938 21.724609 z M 27.445312 21.724609 L 28.998047 21.724609 L 28.998047 25.894531 L 27.445312 25.894531 L 27.445312 21.724609 z M 33.605469 21.724609 L 35.15625 21.724609 L 35.15625 25.894531 L 33.605469 25.894531 L 33.605469 21.724609 z "
   transform="translate(-7.087,-7.087)"
   id="path2" />

</svg>