<?xml version="1.0" encoding="UTF-8" standalone="no"?>
<!-- Generator: Adobe Illustrator 16.0.0, SVG Export Plug-In . SVG Version: 6.00 Build 0)  -->

<svg
   xmlns:dc="http://purl.org/dc/elements/1.1/"
   xmlns:cc="http://creativecommons.org/ns#"
   xmlns:rdf="http://www.w3.org/1999/02/22-rdf-syntax-ns#"
   xmlns:svg="http://www.w3.org/2000/svg"
   xmlns="http://www.w3.org/2000/svg"
   xmlns:sodipodi="http://sodipodi.sourceforge.net/DTD/sodipodi-0.dtd"
   xmlns:inkscape="http://www.inkscape.org/namespaces/inkscape"
   version="1.1"
   id="Layer_1"
   x="0px"
   y="0px"
   width="56.693px"
   height="56.693px"
   viewBox="-7.087 -7.087 56.693 56.693"
   enable-background="new -7.087 -7.087 56.693 56.693"
   xml:space="preserve"
   sodipodi:docname="Organisation-Ville_franche.svg"
   inkscape:version="0.92.0 r15299"><metadata
   id="metadata21"><rdf:RDF><cc:Work
       rdf:about=""><dc:format>image/svg+xml</dc:format><dc:type
         rdf:resource="http://purl.org/dc/dcmitype/StillImage" /></cc:Work></rdf:RDF></metadata><defs
   id="defs19">
	
	
	
</defs><sodipodi:namedview
   pagecolor="#ffffff"
   bordercolor="#666666"
   borderopacity="1"
   objecttolerance="10"
   gridtolerance="10"
   guidetolerance="10"
   inkscape:pageopacity="0"
   inkscape:pageshadow="2"
   inkscape:window-width="1280"
   inkscape:window-height="961"
   id="namedview17"
   showgrid="false"
   inkscape:zoom="4.1627714"
   inkscape:cx="-3.8435933"
   inkscape:cy="28.3465"
   inkscape:window-x="1272"
   inkscape:window-y="-8"
   inkscape:window-maximized="1"
   inkscape:current-layer="Layer_1" />
<path
   d="M 28.851562 0.28515625 C 27.582563 0.27115625 26.317734 0.30667188 25.052734 0.38867188 C 24.253734 0.44067187 23.487672 0.60875 22.763672 0.96875 C 22.199672 1.24975 21.602234 1.4611875 20.990234 1.6171875 C 20.176234 1.8251875 19.385328 2.0949219 18.611328 2.4199219 C 17.555328 2.8629219 16.521047 3.3422656 15.623047 4.0722656 C 15.287047 4.3452656 14.908172 4.5332188 14.451172 4.5742188 C 13.799172 4.6322187 13.249422 4.9578906 12.732422 5.3378906 C 12.468422 5.5308906 12.254719 5.7781875 12.011719 5.9921875 C 11.808719 6.1711875 11.599078 6.3471094 11.330078 6.4121094 C 11.193078 6.4461094 11.068078 6.4942656 10.955078 6.5722656 C 9.7650781 7.3782656 8.7404062 8.3507813 7.9414062 9.5507812 C 7.3864063 10.382781 6.9386875 11.275766 6.4296875 12.134766 C 6.2596875 12.422766 6.0860938 12.707797 5.8710938 12.966797 C 5.6990938 13.173797 5.4957969 13.314844 5.2167969 13.339844 C 4.9557969 13.363844 4.7639531 13.505609 4.6269531 13.724609 C 4.5129531 13.905609 4.42375 14.100875 4.34375 14.296875 C 4.06075 14.992875 3.7115312 15.644719 3.2695312 16.261719 C 2.5705312 17.240719 2.08775 18.336516 1.71875 19.478516 C 1.48475 20.203516 1.4577656 20.9845 1.1347656 21.6875 C 0.61676563 23.6825 0.43820313 25.701906 0.65820312 27.753906 C 0.81220312 29.186906 1.0855469 30.594234 1.4355469 31.990234 C 1.6425469 32.813234 1.8778594 33.632656 2.0058594 34.472656 C 2.0848594 34.991656 2.1161875 35.50825 2.1171875 36.03125 C 2.1181875 36.32825 2.1625 36.624406 2.4375 36.816406 C 2.5695 36.906406 2.673625 37.019438 2.765625 37.148438 C 2.988625 37.463438 3.1656406 37.806969 3.3066406 38.167969 C 3.7816406 39.383969 4.2723281 40.591766 4.8613281 41.759766 C 5.4863281 42.999766 6.2898906 44.100391 7.3378906 45.025391 C 8.0768906 45.676391 8.8227969 46.319547 9.5917969 46.935547 C 10.154797 47.386547 10.755406 47.788187 11.316406 48.242188 C 12.087406 48.863187 12.744891 49.597719 13.337891 50.386719 C 13.843891 51.059719 14.478 51.560391 15.25 51.900391 C 16.913 52.634391 18.570375 53.381234 20.234375 54.115234 C 21.224375 54.551234 22.238906 54.926734 23.253906 55.302734 C 23.648906 55.448734 24.050562 55.613062 24.351562 55.914062 C 24.565562 56.128062 24.807844 56.242688 25.089844 56.304688 C 25.646844 56.426687 26.211391 56.431859 26.775391 56.380859 C 27.387391 56.329859 27.978672 56.202187 28.513672 55.867188 C 28.825672 55.672187 29.182734 55.568781 29.552734 55.550781 C 29.971734 55.529781 30.385063 55.472187 30.789062 55.367188 C 31.694063 55.133187 32.60325 54.908109 33.53125 54.787109 C 34.41425 54.671109 35.270797 54.462094 36.091797 54.121094 C 38.129797 53.277094 40.1165 52.324109 42.0625 51.287109 C 43.0715 50.747109 44.065516 50.178219 44.853516 49.324219 C 44.942516 49.227219 45.049687 49.140469 45.179688 49.105469 C 45.290687 49.074469 45.383656 49.020172 45.472656 48.951172 C 45.827656 48.678172 46.145891 48.362828 46.462891 48.048828 C 48.003891 46.508828 49.344578 44.800594 50.642578 43.058594 C 51.359578 42.096594 51.987016 41.082078 52.416016 39.955078 C 52.686016 39.250078 53.015563 38.571484 53.351562 37.896484 C 53.584563 37.429484 53.799219 36.952125 53.949219 36.453125 C 54.237219 35.499125 54.519016 34.544937 54.791016 33.585938 C 54.998016 32.855938 55.189516 32.118469 55.228516 31.355469 C 55.251516 30.905469 55.317469 30.464828 55.480469 30.048828 C 55.745469 29.380828 55.833313 28.6925 55.820312 28.0625 C 55.822312 27.1885 55.724844 26.404 55.589844 25.625 C 55.288844 23.906 54.813984 22.233609 54.208984 20.599609 C 52.973984 17.259609 51.309859 14.128453 49.505859 11.064453 C 49.187859 10.522453 48.773344 10.0735 48.277344 9.6875 C 47.750344 9.2745 47.206297 8.883 46.654297 8.5 C 45.965297 8.022 45.294109 7.52375 44.662109 6.96875 C 43.766109 6.18075 42.773641 5.5320625 41.681641 5.0390625 C 40.895641 4.6860625 40.1635 4.24125 39.4375 3.78125 C 38.1705 2.98225 36.860516 2.2813437 35.353516 2.0273438 C 34.783516 1.9313437 34.262188 1.6707344 33.742188 1.4277344 C 32.192188 0.70673437 30.570562 0.30315625 28.851562 0.28515625 z M 27.257812 3.1210938 C 27.583313 3.1175312 27.907875 3.1239687 28.234375 3.1367188 C 29.166375 3.1737187 30.090906 3.2754688 31.003906 3.4804688 C 31.667906 3.6304687 32.287438 3.8886406 32.898438 4.1816406 C 33.992438 4.7056406 35.130031 5.1381719 36.207031 5.7011719 C 36.794031 6.0081719 37.316484 6.415375 37.896484 6.734375 C 39.704484 7.726375 41.3355 8.9689063 42.9375 10.253906 C 43.3815 10.609906 43.801266 10.994281 44.322266 11.238281 C 44.780266 11.451281 45.158141 11.759047 45.494141 12.123047 C 45.726141 12.377047 45.916656 12.663078 46.097656 12.955078 C 48.060656 13.688078 49.143969 14.967562 49.667969 15.851562 C 50.731969 17.648563 50.867188 19.882781 50.117188 22.050781 C 50.373188 22.657781 50.628703 23.265672 50.845703 23.888672 C 51.095703 24.610672 51.151656 25.350469 51.097656 26.105469 C 51.007656 27.373469 50.900484 28.639297 50.771484 29.904297 C 50.698484 30.631297 50.625391 31.355125 50.525391 32.078125 C 50.654391 33.057125 50.599078 34.061828 50.330078 35.048828 C 49.973078 36.355828 49.281797 37.505453 48.341797 38.439453 C 48.164797 38.802453 47.978625 39.163766 47.765625 39.509766 C 47.624625 39.738766 47.505188 39.979031 47.367188 40.207031 C 47.270188 40.367031 47.268594 40.557703 47.183594 40.720703 C 47.042594 40.991703 46.877406 41.246281 46.691406 41.488281 C 45.474406 43.070281 44.118172 44.520922 42.576172 45.794922 C 42.351172 45.979922 42.110469 46.136344 41.855469 46.277344 C 41.501469 46.474344 41.178594 46.721969 40.933594 47.042969 C 40.496594 47.616969 39.951281 48.066703 39.363281 48.470703 C 38.173281 49.285703 36.90925 49.960016 35.53125 50.416016 C 34.44625 50.776016 33.328547 50.944172 32.185547 50.951172 C 31.620547 50.953172 31.056234 50.951172 30.490234 50.951172 C 29.522234 50.963172 28.556797 50.953672 27.591797 50.888672 C 27.408797 50.876672 27.227875 50.853078 27.046875 50.830078 C 27.006875 50.825078 26.959688 50.821828 26.929688 50.798828 C 26.579687 50.539828 26.158953 50.504875 25.751953 50.421875 C 24.207953 50.111875 22.679625 49.728484 21.140625 49.396484 C 20.145625 49.180484 19.256922 48.761891 18.419922 48.212891 C 17.401922 47.545891 16.344047 46.953781 15.248047 46.425781 C 15.124047 46.365781 15.012578 46.288656 14.892578 46.222656 C 11.610578 45.910656 8.7612344 43.934422 7.4902344 40.982422 C 6.8762344 39.555422 6.7091719 38.071578 6.9511719 36.642578 C 6.9361719 36.599578 6.9161563 36.559672 6.9101562 36.513672 C 6.8561562 36.051672 6.705875 35.616547 6.546875 35.185547 C 6.086875 33.937547 5.7857656 32.647562 5.5097656 31.351562 C 5.2697656 30.221563 5.0693594 29.0855 4.9433594 27.9375 C 4.8543594 27.1265 4.8831875 26.321625 4.9921875 25.515625 C 5.1951875 24.016625 5.5147969 22.543563 5.9667969 21.101562 C 5.8727969 20.357563 5.9064688 19.583734 6.1054688 18.802734 C 6.6544688 16.639734 8.25725 14.741281 10.40625 13.488281 C 10.98425 12.603281 11.617297 11.757687 12.279297 10.929688 C 13.066297 9.9456875 13.903219 9.0075312 14.824219 8.1445312 C 14.987219 7.9915312 15.157938 7.8469375 15.335938 7.7109375 C 15.629938 7.4869375 15.956125 7.3544531 16.328125 7.3144531 C 16.793125 7.2654531 17.205312 7.0901094 17.570312 6.7871094 C 18.512313 6.0051094 19.559344 5.3849375 20.652344 4.8359375 C 21.835344 4.2429375 23.055563 3.7364062 24.351562 3.4414062 C 25.310063 3.2231563 26.281312 3.1317812 27.257812 3.1210938 z M 30.621094 9.2460938 C 28.025094 9.2350937 25.038281 10.422641 23.363281 11.306641 C 22.185281 11.927641 18.054719 14.401937 14.511719 15.085938 C 9.9397188 15.969938 7.2975156 20.369266 9.9785156 22.572266 C 14.436516 26.234266 14.590922 30.979844 11.294922 34.464844 C 7.6549219 38.311844 11.389703 43.860375 16.595703 43.234375 C 21.801703 42.608375 23.996484 43.279734 26.646484 45.927734 C 30.084484 49.364734 37.563344 47.985656 39.402344 43.222656 C 40.255344 41.011656 41.422531 38.539344 44.269531 37.527344 C 47.617531 36.338344 48.614313 32.596953 46.445312 30.001953 C 44.836313 28.076953 44.651562 26.083219 46.851562 22.074219 C 48.658563 18.780219 47.238078 15.113531 42.205078 15.394531 C 38.468078 15.603531 36.853719 13.114891 34.136719 10.462891 C 33.235719 9.5838906 31.982094 9.2520938 30.621094 9.2460938 z M 28.9375 15.574219 C 36.2445 15.574219 42.185547 21.512313 42.185547 28.820312 C 42.185547 36.128312 36.2435 42.068359 28.9375 42.068359 C 21.6295 42.068359 15.6875 36.128312 15.6875 28.820312 C 15.6875 21.512313 21.6295 15.574219 28.9375 15.574219 z M 28.9375 17.125 C 22.4685 17.125 17.242188 22.350359 17.242188 28.818359 C 17.242188 35.286359 22.4675 40.515625 28.9375 40.515625 C 35.4055 40.515625 40.632812 35.288312 40.632812 28.820312 C 40.632812 22.352313 35.4045 17.125 28.9375 17.125 z M 28.964844 19.380859 C 29.575844 19.380859 30.070312 19.877281 30.070312 20.488281 C 30.070312 21.100281 29.575844 21.595703 28.964844 21.595703 C 28.352844 21.595703 27.855469 21.100281 27.855469 20.488281 C 27.855469 19.877281 28.352844 19.380859 28.964844 19.380859 z M 20.607422 22.679688 L 22.107422 22.679688 L 22.107422 24.304688 L 23.845703 24.304688 L 23.845703 22.679688 L 25.345703 22.679688 L 25.345703 29.013672 L 27.121094 29.013672 C 27.322094 28.138672 27.694391 27.432875 28.150391 26.921875 C 28.412391 26.628875 28.695469 26.393797 28.980469 26.216797 C 29.264469 26.393797 29.548547 26.629828 29.810547 26.923828 C 30.266547 27.434828 30.640797 28.139672 30.841797 29.013672 L 32.519531 29.013672 L 32.519531 22.679688 L 34.019531 22.679688 L 34.019531 24.304688 L 35.759766 24.304688 L 35.759766 22.679688 L 37.259766 22.679688 L 37.259766 35.179688 L 36.605469 35.179688 L 21.261719 35.179688 L 20.607422 35.179688 L 20.607422 22.679688 z M 28.087891 23.470703 C 28.092891 23.472703 28.095609 23.475516 28.099609 23.478516 L 28.087891 23.498047 L 28.087891 23.470703 z M 22.107422 25.804688 L 22.107422 33.679688 L 26.955078 33.679688 L 26.955078 32.863281 L 26.960938 32.863281 L 26.960938 30.513672 L 25.345703 30.513672 L 25.345703 32.179688 L 23.845703 32.179688 L 23.845703 25.804688 L 22.107422 25.804688 z M 34.021484 25.804688 L 34.021484 32.179688 L 32.521484 32.179688 L 32.521484 30.513672 L 31.003906 30.513672 L 31.003906 33.679688 L 35.761719 33.679688 L 35.761719 25.804688 L 34.021484 25.804688 z M 28.982422 28.324219 C 28.686422 28.804219 28.460938 29.464656 28.460938 30.347656 L 28.460938 33.679688 L 29.503906 33.679688 L 29.503906 30.347656 C 29.503906 29.464656 29.277422 28.805219 28.982422 28.324219 z M 28.933594 36.257812 C 29.544594 36.257812 30.039062 36.752281 30.039062 37.363281 C 30.039062 37.975281 29.544594 38.472656 28.933594 38.472656 C 28.321594 38.472656 27.824219 37.975281 27.824219 37.363281 C 27.824219 36.752281 28.321594 36.257812 28.933594 36.257812 z "
   transform="translate(-7.087,-7.087)"
   id="path2" />



</svg>