<?xml version="1.0" encoding="UTF-8" standalone="no"?>
<!-- Generator: Adobe Illustrator 16.0.0, SVG Export Plug-In . SVG Version: 6.00 Build 0)  -->

<svg
   xmlns:dc="http://purl.org/dc/elements/1.1/"
   xmlns:cc="http://creativecommons.org/ns#"
   xmlns:rdf="http://www.w3.org/1999/02/22-rdf-syntax-ns#"
   xmlns:svg="http://www.w3.org/2000/svg"
   xmlns="http://www.w3.org/2000/svg"
   xmlns:sodipodi="http://sodipodi.sourceforge.net/DTD/sodipodi-0.dtd"
   xmlns:inkscape="http://www.inkscape.org/namespaces/inkscape"
   version="1.1"
   id="Layer_1"
   x="0px"
   y="0px"
   width="56.693px"
   height="56.693px"
   viewBox="-7.087 -7.087 56.693 56.693"
   enable-background="new -7.087 -7.087 56.693 56.693"
   xml:space="preserve"
   sodipodi:docname="Organisation-Royaume.svg"
   inkscape:version="0.92.0 r15299"><metadata
   id="metadata11"><rdf:RDF><cc:Work
       rdf:about=""><dc:format>image/svg+xml</dc:format><dc:type
         rdf:resource="http://purl.org/dc/dcmitype/StillImage" /></cc:Work></rdf:RDF></metadata><defs
   id="defs9" /><sodipodi:namedview
   pagecolor="#ffffff"
   bordercolor="#666666"
   borderopacity="1"
   objecttolerance="10"
   gridtolerance="10"
   guidetolerance="10"
   inkscape:pageopacity="0"
   inkscape:pageshadow="2"
   inkscape:window-width="1280"
   inkscape:window-height="961"
   id="namedview7"
   showgrid="false"
   inkscape:zoom="4.1627714"
   inkscape:cx="-3.8435933"
   inkscape:cy="28.3465"
   inkscape:window-x="-8"
   inkscape:window-y="-8"
   inkscape:window-maximized="1"
   inkscape:current-layer="Layer_1" />
<path
   d="M 28.851562 0.28515625 C 27.582563 0.27115625 26.317734 0.30667188 25.052734 0.38867188 C 24.253734 0.44067187 23.487672 0.60875 22.763672 0.96875 C 22.199672 1.24975 21.602234 1.4611875 20.990234 1.6171875 C 20.176234 1.8251875 19.385328 2.0949219 18.611328 2.4199219 C 17.555328 2.8629219 16.521047 3.3422656 15.623047 4.0722656 C 15.287047 4.3452656 14.908172 4.5332188 14.451172 4.5742188 C 13.799172 4.6322187 13.249422 4.9578906 12.732422 5.3378906 C 12.468422 5.5308906 12.254719 5.7781875 12.011719 5.9921875 C 11.808719 6.1711875 11.599078 6.3471094 11.330078 6.4121094 C 11.193078 6.4461094 11.068078 6.4942656 10.955078 6.5722656 C 9.7650781 7.3782656 8.7404062 8.3507813 7.9414062 9.5507812 C 7.3864063 10.382781 6.9386875 11.275766 6.4296875 12.134766 C 6.2596875 12.422766 6.0860938 12.707797 5.8710938 12.966797 C 5.6990938 13.173797 5.4957969 13.314844 5.2167969 13.339844 C 4.9557969 13.363844 4.7639531 13.505609 4.6269531 13.724609 C 4.5129531 13.905609 4.42375 14.100875 4.34375 14.296875 C 4.06075 14.992875 3.7115312 15.644719 3.2695312 16.261719 C 2.5705312 17.240719 2.08775 18.336516 1.71875 19.478516 C 1.48475 20.203516 1.4577656 20.9845 1.1347656 21.6875 C 0.61676563 23.6825 0.43820313 25.701906 0.65820312 27.753906 C 0.81220312 29.186906 1.0855469 30.594234 1.4355469 31.990234 C 1.6425469 32.813234 1.8778594 33.632656 2.0058594 34.472656 C 2.0848594 34.991656 2.1161875 35.50825 2.1171875 36.03125 C 2.1181875 36.32825 2.1625 36.624406 2.4375 36.816406 C 2.5695 36.906406 2.673625 37.019438 2.765625 37.148438 C 2.988625 37.463438 3.1656406 37.806969 3.3066406 38.167969 C 3.7816406 39.383969 4.2723281 40.591766 4.8613281 41.759766 C 5.4863281 42.999766 6.2898906 44.100391 7.3378906 45.025391 C 8.0768906 45.676391 8.8227969 46.319547 9.5917969 46.935547 C 10.154797 47.386547 10.755406 47.788187 11.316406 48.242188 C 12.087406 48.863187 12.744891 49.597719 13.337891 50.386719 C 13.843891 51.059719 14.478 51.560391 15.25 51.900391 C 16.913 52.634391 18.570375 53.381234 20.234375 54.115234 C 21.224375 54.551234 22.238906 54.926734 23.253906 55.302734 C 23.648906 55.448734 24.050562 55.613062 24.351562 55.914062 C 24.565562 56.128062 24.807844 56.242688 25.089844 56.304688 C 25.646844 56.426687 26.211391 56.431859 26.775391 56.380859 C 27.387391 56.329859 27.978672 56.202187 28.513672 55.867188 C 28.825672 55.672187 29.182734 55.568781 29.552734 55.550781 C 29.971734 55.529781 30.385063 55.472187 30.789062 55.367188 C 31.694063 55.133187 32.60325 54.908109 33.53125 54.787109 C 34.41425 54.671109 35.270797 54.462094 36.091797 54.121094 C 38.129797 53.277094 40.1165 52.324109 42.0625 51.287109 C 43.0715 50.747109 44.065516 50.178219 44.853516 49.324219 C 44.942516 49.227219 45.049687 49.140469 45.179688 49.105469 C 45.290687 49.074469 45.383656 49.020172 45.472656 48.951172 C 45.827656 48.678172 46.145891 48.362828 46.462891 48.048828 C 48.003891 46.508828 49.344578 44.800594 50.642578 43.058594 C 51.359578 42.096594 51.987016 41.082078 52.416016 39.955078 C 52.686016 39.250078 53.015563 38.571484 53.351562 37.896484 C 53.584563 37.429484 53.799219 36.952125 53.949219 36.453125 C 54.237219 35.499125 54.519016 34.544937 54.791016 33.585938 C 54.998016 32.855938 55.189516 32.118469 55.228516 31.355469 C 55.251516 30.905469 55.317469 30.464828 55.480469 30.048828 C 55.745469 29.380828 55.833313 28.6925 55.820312 28.0625 C 55.822312 27.1885 55.724844 26.404 55.589844 25.625 C 55.288844 23.906 54.813984 22.233609 54.208984 20.599609 C 52.973984 17.259609 51.309859 14.128453 49.505859 11.064453 C 49.187859 10.522453 48.773344 10.0735 48.277344 9.6875 C 47.750344 9.2745 47.206297 8.883 46.654297 8.5 C 45.965297 8.022 45.294109 7.52375 44.662109 6.96875 C 43.766109 6.18075 42.773641 5.5320625 41.681641 5.0390625 C 40.895641 4.6860625 40.1635 4.24125 39.4375 3.78125 C 38.1705 2.98225 36.860516 2.2813437 35.353516 2.0273438 C 34.783516 1.9313437 34.262188 1.6707344 33.742188 1.4277344 C 32.192188 0.70673437 30.570562 0.30315625 28.851562 0.28515625 z M 27.257812 3.1210938 C 27.583313 3.1175312 27.909828 3.1220156 28.236328 3.1347656 C 29.168328 3.1717656 30.090906 3.2735156 31.003906 3.4785156 C 31.667906 3.6285156 32.287437 3.8886406 32.898438 4.1816406 C 33.992437 4.7056406 35.131984 5.1362188 36.208984 5.6992188 C 36.795984 6.0062188 37.316484 6.415375 37.896484 6.734375 C 39.704484 7.726375 41.3355 8.9669531 42.9375 10.251953 C 43.3815 10.607953 43.801266 10.994281 44.322266 11.238281 C 44.780266 11.451281 45.158141 11.757094 45.494141 12.121094 C 45.772141 12.425094 45.995031 12.772 46.207031 13.125 C 47.015031 14.475 47.723859 15.872516 48.255859 17.353516 C 48.366859 17.660516 48.406328 17.984875 48.486328 18.296875 C 48.577328 18.650875 48.684469 18.998953 48.980469 19.251953 C 49.105469 19.360953 49.1395 19.523641 49.1875 19.681641 C 49.3415 20.195641 49.557813 20.686594 49.757812 21.183594 C 50.118813 22.084594 50.526703 22.967719 50.845703 23.886719 C 51.095703 24.610719 51.151656 25.350469 51.097656 26.105469 C 51.007656 27.373469 50.900484 28.639297 50.771484 29.904297 C 50.635484 31.243297 50.508266 32.583484 50.197266 33.896484 C 50.083266 34.381484 49.910203 34.841344 49.658203 35.277344 C 49.348203 35.819344 49.157219 36.416953 48.949219 37.001953 C 48.639219 37.877953 48.251672 38.716766 47.763672 39.509766 C 47.717672 39.584766 47.675813 39.661281 47.632812 39.738281 C 47.632812 39.748281 47.634766 39.758578 47.634766 39.767578 C 47.634766 40.031578 47.583234 40.283672 47.490234 40.513672 C 47.069234 41.716672 46.335234 43.179875 45.490234 43.796875 C 45.215234 43.997875 44.894641 44.125969 44.556641 44.167969 C 44.475641 44.177969 44.3935 44.184359 44.3125 44.193359 C 43.7575 44.750359 43.184219 45.288969 42.574219 45.792969 C 42.349219 45.977969 42.108516 46.134391 41.853516 46.275391 C 41.499516 46.472391 41.176641 46.720016 40.931641 47.041016 C 40.494641 47.615016 39.949328 48.06475 39.361328 48.46875 C 38.171328 49.28375 36.907297 49.958062 35.529297 50.414062 C 34.444297 50.774062 33.326594 50.942219 32.183594 50.949219 C 31.618594 50.951219 31.054281 50.949219 30.488281 50.949219 C 29.520281 50.961219 28.554844 50.951719 27.589844 50.886719 C 27.406844 50.874719 27.225922 50.851125 27.044922 50.828125 C 27.004922 50.823125 26.957734 50.819875 26.927734 50.796875 C 26.577734 50.537875 26.157 50.502922 25.75 50.419922 C 24.206 50.109922 22.677672 49.726531 21.138672 49.394531 C 20.143672 49.178531 19.254969 48.759938 18.417969 48.210938 C 17.399969 47.543937 16.342094 46.951828 15.246094 46.423828 C 14.921094 46.267828 14.606641 46.089625 14.306641 45.890625 C 14.012641 45.696625 13.747453 45.482063 13.564453 45.164062 C 13.390453 44.863062 13.126656 44.628781 12.847656 44.425781 C 12.762656 44.363781 12.695234 44.28375 12.615234 44.21875 C 12.453234 44.19975 12.294719 44.187969 12.136719 44.167969 C 11.798719 44.125969 11.476172 43.997875 11.201172 43.796875 C 10.332172 43.160875 9.5819687 41.629203 9.1679688 40.408203 C 9.1649687 40.398203 9.1631563 40.387906 9.1601562 40.378906 C 9.0901563 40.316906 9.0348906 40.242641 8.9628906 40.181641 C 8.4378906 39.731641 8.0697656 39.176812 7.8847656 38.507812 C 7.7967656 38.189812 7.6868281 37.879078 7.5488281 37.580078 C 7.4428281 37.350078 7.3306719 37.126266 7.1386719 36.947266 C 7.0146719 36.832266 6.92725 36.680766 6.90625 36.509766 C 6.85225 36.047766 6.7039219 35.612641 6.5449219 35.181641 C 6.0849219 33.933641 5.7838125 32.643656 5.5078125 31.347656 C 5.2678125 30.217656 5.0654531 29.083547 4.9394531 27.935547 C 4.8504531 27.124547 4.8812344 26.317719 4.9902344 25.511719 C 5.2132344 23.868719 5.5647969 22.255641 6.0917969 20.681641 C 6.2697969 20.148641 6.4683281 19.623953 6.7363281 19.126953 C 6.8133281 18.983953 6.9008594 18.844703 7.0058594 18.720703 C 7.3208594 18.345703 7.5665781 17.927422 7.7675781 17.482422 C 7.8805781 17.233422 7.9960625 16.986578 8.1640625 16.767578 C 8.2540625 16.650578 8.3542812 16.546656 8.4882812 16.472656 C 8.6112813 16.406656 8.6894375 16.290641 8.7734375 16.181641 C 8.9714375 15.923641 9.1469219 15.648375 9.2949219 15.359375 C 10.109922 13.761375 11.163297 12.323734 12.279297 10.927734 C 13.066297 9.9437344 13.905172 9.0055781 14.826172 8.1425781 C 14.989172 7.9895781 15.159891 7.8449844 15.337891 7.7089844 C 15.631891 7.4849844 15.956125 7.3544531 16.328125 7.3144531 C 16.793125 7.2654531 17.205312 7.0901094 17.570312 6.7871094 C 18.512313 6.0051094 19.561297 5.3829844 20.654297 4.8339844 C 21.837297 4.2409844 23.055563 3.7364062 24.351562 3.4414062 C 25.310063 3.2231563 26.281312 3.1317812 27.257812 3.1210938 z M 28.347656 13.525391 C 25.976656 18.502391 23.813125 24.299094 23.703125 27.746094 C 24.376125 28.485094 24.992609 29.426625 25.474609 30.390625 C 26.012609 31.466625 26.400391 32.508453 26.400391 33.439453 L 26.400391 34.035156 L 25.824219 34.179688 C 20.321219 35.554688 16.064422 35.565109 11.857422 34.162109 L 11.335938 33.988281 L 11.335938 33.439453 C 11.335938 32.175453 11.219703 29.57775 12.595703 27.84375 C 12.495703 27.65675 12.372469 27.485125 12.230469 27.328125 C 11.882469 26.944125 11.366594 26.503516 10.808594 26.103516 C 10.249594 25.704516 9.6450469 25.341844 9.1230469 25.089844 C 9.0150469 25.037844 8.9310781 25.017563 8.8300781 24.976562 C 8.9090781 27.190562 9.2237344 30.856125 9.8027344 34.328125 C 10.032734 35.710125 10.304375 37.047609 10.609375 38.224609 C 23.200375 39.425609 33.493938 39.425609 46.085938 38.224609 C 46.390938 37.047609 46.661578 35.710125 46.892578 34.328125 C 47.470578 30.857125 47.785281 27.190563 47.863281 24.976562 C 47.762281 25.017563 47.679266 25.037844 47.572266 25.089844 C 47.050266 25.341844 46.444766 25.703516 45.884766 26.103516 C 45.325766 26.502516 44.810891 26.944125 44.462891 27.328125 C 44.323891 27.481125 44.202516 27.650984 44.103516 27.833984 C 45.549516 29.576984 45.357422 32.207453 45.357422 33.439453 L 45.357422 33.988281 L 44.837891 34.162109 C 40.630891 35.564109 36.373141 35.554688 30.869141 34.179688 L 30.292969 34.033203 L 30.292969 33.439453 C 30.292969 32.508453 30.682703 31.466625 31.220703 30.390625 C 31.702703 29.426625 32.318234 28.484141 32.990234 27.744141 C 32.880234 24.298141 30.718656 18.501391 28.347656 13.525391 z M 28.347656 16.179688 L 31.880859 26.779297 L 28.347656 32.076172 L 24.814453 26.777344 L 27.638672 18.306641 L 28.347656 16.179688 z M 28.347656 20.908203 L 26.462891 26.558594 L 27.095703 27.507812 C 27.518703 25.481813 28.123953 23.551188 29.001953 22.867188 L 28.347656 20.908203 z M 11.060547 39.767578 C 11.517547 41.114578 12.111813 41.983641 12.382812 42.181641 C 23.026813 43.496641 33.6675 43.496641 44.3125 42.181641 C 44.5835 41.983641 45.176812 41.114578 45.632812 39.767578 C 33.430812 40.900578 23.263547 40.900578 11.060547 39.767578 z "
   transform="translate(-7.087,-7.087)"
   id="path2" />

</svg>