<?xml version="1.0" encoding="UTF-8" standalone="no"?>
<!-- Created with Inkscape (http://www.inkscape.org/) -->

<svg
   xmlns:dc="http://purl.org/dc/elements/1.1/"
   xmlns:cc="http://creativecommons.org/ns#"
   xmlns:rdf="http://www.w3.org/1999/02/22-rdf-syntax-ns#"
   xmlns:svg="http://www.w3.org/2000/svg"
   xmlns="http://www.w3.org/2000/svg"
   xmlns:sodipodi="http://sodipodi.sourceforge.net/DTD/sodipodi-0.dtd"
   xmlns:inkscape="http://www.inkscape.org/namespaces/inkscape"
   version="1.1"
   width="215.66068mm"
   height="304.67227mm"
   viewBox="0 0 21566.068 30467.227"
   id="svg4095"
   xml:space="preserve"
   style="fill-rule:evenodd"
   sodipodi:docname="card-santorini.svg"
   inkscape:version="0.92.0 r15299"><sodipodi:namedview
   pagecolor="#ffffff"
   bordercolor="#666666"
   borderopacity="1"
   objecttolerance="10"
   gridtolerance="10"
   guidetolerance="10"
   inkscape:pageopacity="0"
   inkscape:pageshadow="2"
   inkscape:window-width="1280"
   inkscape:window-height="961"
   id="namedview558"
   showgrid="false"
   inkscape:zoom="11.313709"
   inkscape:cx="519.86357"
   inkscape:cy="62.286571"
   inkscape:window-x="1272"
   inkscape:window-y="-8"
   inkscape:window-maximized="1"
   inkscape:current-layer="svg4095"
   fit-margin-top="5"
   fit-margin-left="5"
   fit-margin-right="5"
   fit-margin-bottom="5" /><title
   id="title3536">Ancient Greek key patterns 2</title><metadata
   id="metadata5203"><rdf:RDF><cc:Work
       rdf:about=""><dc:format>image/svg+xml</dc:format><dc:type
         rdf:resource="http://purl.org/dc/dcmitype/StillImage" /><dc:title>Ancient Greek key patterns 2</dc:title><cc:license
         rdf:resource="http://creativecommons.org/publicdomain/zero/1.0/" /><dc:subject><rdf:Bag><rdf:li>ancient greek key patterns</rdf:li><rdf:li>ancient greek</rdf:li><rdf:li>greek key patterns</rdf:li><rdf:li>key patterns</rdf:li><rdf:li>patterns</rdf:li><rdf:li>ancient greek key</rdf:li></rdf:Bag></dc:subject><dc:rights><cc:Agent><dc:title /></cc:Agent></dc:rights><dc:creator><cc:Agent><dc:title>Craftsmanspace</dc:title></cc:Agent></dc:creator><dc:publisher><cc:Agent><dc:title>www.craftsmanspace.com</dc:title></cc:Agent></dc:publisher><dc:description>Collection of free Ancient Greek key patterns.</dc:description></cc:Work><cc:License
       rdf:about="http://creativecommons.org/publicdomain/zero/1.0/"><cc:permits
         rdf:resource="http://creativecommons.org/ns#Reproduction" /><cc:permits
         rdf:resource="http://creativecommons.org/ns#Distribution" /><cc:permits
         rdf:resource="http://creativecommons.org/ns#DerivativeWorks" /></cc:License></rdf:RDF></metadata>
 <defs
   id="defs4097">
  <style
   type="text/css"
   id="style4099" />
 
  
  
  
  
  
  
  
  
  
  
  
  
  
  
  
  
  
  
  
  
  
  
  
  
  
  
  
  
  
  
  
  
  
  
  
  
  
  
  
  
  
  
  
  
  
  
  
  
  
  
  
  
  
  
  
  
  
  
  
  
  
  
  
  
  
  
  
  
  
  
  
  
  
  
  
  
  
  
  
  
  
  
  
  
  
  
  
  
  
  
  
  
  
  
  
  
  
  
  
  
  
  
  
  
  
  
  
  
  
  
  
  
  
  
  
  
  
  
  
  
  
  
  
  
  
  
  
  
  
  
  
  
  
  
  
  
  
  
  
  
  
  
  
  
  
  
  
  
  
  
  
  
  
  
  
  
  
  
  
  
  
  
  
  
  
  
  
  
  
  
  
  
  
  
  
  
  
  
  
  
  
  
  
  
  
  
  
  
  
  
  
  
  
  
  
  
  
  
  
  
  
  
  
  
  
  
  
  
  
  
  
  
  
  
  
  
  
  
  
  
  
  
  
  
  
  
  
  
  
  
  
  
  
  
  
  
  
  
  
  
  
  
  
  
  
  
  
  
  
  
  
  
  
  
  
  
  
  
  
  
  
  
  
  
  
  
  
  
  
  
  
  
  
  
  
  
  
  
  
  
  
  
  
  
  
  
  
  
  
  
  
  
  
  
  
  
  
  
  
  
  
  
  
  
  
  
  
  
  
  
  
  
  
  
  
  
  
  
  
  
  
  
  
  
  
  
  
  
  
  
  
  
  
  
  
  
  
  
  
  
  
  
  
  
  
  
  
  
  
  
  
  
  
  
  
  
  
  
  
  
  
  
  
  
  
  
  
  
  
  
  
  
  
  
  
  
  
  
  
  
  
  
  
  
  
  
  
  
  
  
  
  
  
  
  
  
  
  
  
  
  
  
  
  
  
  
  
  
  
  
  
  
  
  
  
  
  
  
  
  
  
  
  
  
  
  
  
  
  
  
  
  
  
  
  
  
  
  
  
  
  
  
  
  
  
  
  
  
  
  
  
  
  
  
  
  
  
  
  
  
  
  
  
  
  
  
  
  
  
  
  
  
  
  
  
  
  
  
  
  
  
  
  
  
  
  
  
  
  
  
  
  
  
  
  
  
  
  
  
  
  
  
  
  
  
  
  
  
  
  
  
  
  
  
  
  
  
  
  
  
  
  
  
  
  
  
  
  
  
  
  
  
  
  
  
  
  
  
  
  
  
  
  
  
  
  
  
  
  
  
 <style
   id="style4099-9"
   type="text/css" /></defs>
 



<path
   style="opacity:1;vector-effect:none;fill:#050000;fill-opacity:1;fill-rule:evenodd;stroke:none;stroke-width:1.90508544;stroke-linecap:butt;stroke-linejoin:miter;stroke-miterlimit:4;stroke-dasharray:none;stroke-dashoffset:0;stroke-opacity:1;paint-order:normal"
   d="M 22.519531 23.113281 L 22.519531 86.933594 L 22.519531 1065.1152 L 22.519531 1128.9355 L 728.51953 1128.9355 L 792.26758 1128.9355 L 792.33984 1128.9355 L 792.33984 62.794922 L 792.26758 62.794922 L 792.26758 23.113281 L 22.519531 23.113281 z M 86.339844 86.933594 L 728.51953 86.933594 L 728.51953 1065.1152 L 86.339844 1065.1152 L 86.339844 86.933594 z "
   transform="scale(26.458334)"
   id="rect6621" /><path
   style="fill:#f9cd5f;fill-opacity:1;fill-rule:evenodd;stroke:#000000;stroke-width:1.30900002;stroke-miterlimit:4;stroke-dasharray:none"
   d="m 18.951172,18.951172 v 8.011719 l 0.05664,1097.589809 v 8.0118 h 8.011719 761.111329 8.01172 v -8.0118 c 0.058,-365.90783 -0.043,-731.73175 -0.043,-1097.589809 V 18.951172 H 788.08786 26.962861 Z m 8.011719,8.011719 H 788.08789 V 475.58789 h 0.043 V 1124.5527 H 27.019531 V 675.92773 387.51367 h -0.05664 z m 56.074218,56.074218 0.05664,977.431691 v 8.0097 H 243.33789 v -8.0097 H 91.103516 L 91.046875,91.046875 H 283.28906 V 83.037109 H 91.046875 Z m 200.306641,0 v 8.009766 h 96.12891 96.11523 96.12695 v -8.009766 h -96.12695 -96.11523 z m 288.42578,0 v 8.009766 h 152.23438 l 0.043,969.421925 H 531.80469 v 8.0097 h 192.24219 8.00976 l -0.043,-977.431625 V 83.037109 Z M 243.39258,1060.4688 v 8.0097 H 435.63477 531.75 v -8.0097 h -96.11523 z"
   transform="scale(26.458334)"
   id="path6619"
   inkscape:connector-curvature="0"
   sodipodi:nodetypes="ccccccccccccccccccccccccccccccccccccccccccccccccccccccccccccc" /><path
   style="fill:#f9a030;fill-opacity:1;fill-rule:evenodd;stroke:#000000;stroke-width:0.10880883"
   d="M 67.015625,34.972656 V 99.101562 H 59.005859 V 83.080078 H 34.972656 v 40.041012 h 32.042969 v 24.03125 H 59.005859 V 131.13086 H 34.972656 v 40.05469 H 67.015625 V 195.2168 H 59.005859 V 179.19531 H 34.972656 v 40.05274 h 32.042969 v 24.08789 H 59.005859 V 227.25977 H 34.972656 v 40.10742 h 32.042969 v 24.0332 H 59.005859 V 275.37891 H 34.972656 v 40.03906 h 32.042969 v 24.03125 H 59.005859 V 323.42773 H 34.972656 v 40.05469 h 32.042969 v 24.03125 H 59.0625 59.005859 V 371.49219 H 34.972656 v 40.05469 h 0.05664 31.986328 v 24.03124 H 59.0625 v -16.02148 h -0.05664 -23.976562 -0.05664 v 16.02148 h 0.05664 v 24.01954 h 32.042969 v 24.03125 H 59.0625 V 467.60742 H 35.029297 v 40.05469 h 32.042969 v 24.03125 H 59.0625 V 515.67188 H 35.029297 v 40.05468 h 32.042969 v 24.08789 H 59.0625 V 563.73828 H 35.029297 v 40.10742 h 32.042969 v 24.03321 H 59.0625 V 611.85742 H 35.029297 v 40.03906 h 32.042969 v 24.03125 H 59.0625 V 659.90625 H 35.029297 v 40.05469 h 32.042969 v 24.03125 H 59.0625 V 707.9707 H 35.029297 v 40.04102 0.0137 h 32.042969 v 24.01758 H 59.0625 V 756.02148 H 35.029297 v 0.0137 16.02148 24.01953 0.0117 l 0.01172,-0.0117 h 32.03125 v 24.03125 H 59.0625 V 804.08594 H 35.029297 v 40.05273 h 32.042969 v 24.08789 H 59.0625 V 852.15039 H 35.029297 v 40.10742 h 32.042969 v 24.03321 H 59.0625 V 900.26953 H 35.029297 v 40.03906 h 32.042969 v 24.03125 H 59.0625 V 948.31836 H 35.029297 v 40.05469 h 32.042969 v 24.03125 H 59.0625 V 996.38281 H 35.029297 v 40.05469 h 32.042969 v 24.0313 H 59.0625 v -16.0215 H 35.029297 v 16.0215 24.0312 h 64.128906 v 8.0098 H 83.136719 v 24.0332 H 123.17773 V 1084.5 h 24.03125 v 8.0098 H 131.1875 v 24.0332 h 40.05469 V 1084.5 h 24.03125 v 8.0098 h -16.02149 v 24.0332 h 40.05274 V 1084.5 h 24.08789 v 8.0098 h -16.07617 v 24.0332 h 40.10742 V 1084.5 h 24.0332 v 8.0098 h -16.02148 v 24.0332 h 40.03906 V 1084.5 h 24.03125 v 8.0098 h -16.02148 v 24.0332 h 40.05468 V 1084.5 h 24.03125 v 8.0098 h -16.02148 v 24.0332 h 40.05469 V 1084.5 h 24.01757 v 8.0098 h -16.02148 v 24.0332 H 459.6543 V 1084.5 h 24.03125 v 8.0098 h -16.02149 v 24.0332 H 507.7168 V 1084.5 h 24.08789 v 8.0098 5.8515 H 531.75 v -5.8515 h -16.02148 v 24.0332 h 40.10742 V 1084.5 h 24.0332 v 8.0098 h -16.02148 v 24.0332 h 40.03906 V 1084.5 h 24.03125 v 8.0098 h -16.02149 v 24.0332 h 40.05469 V 1084.5 h 24.03125 v 8.0098 h -16.02148 v 24.0332 h 40.05468 V 1084.5 h 24.03126 v 8.0098 h -16.02149 v 24.0332 h 16.02149 24.03124 v -64.1289 h 8.00977 v 16.0214 h 24.0332 v -40.041 h -32.04297 v -24.0312 h 8.00977 v 16.0215 h 24.0332 v -40.05472 h -32.04297 v -24.03125 h 8.00977 v 16.02148 h 24.0332 v -40.05273 h -32.04297 v -24.08789 h 8.00977 v 16.07617 h 24.0332 v -40.10742 h -32.04297 v -24.01758 h 8.00977 v 16.00586 h 24.0332 v -40.03906 h -32.04297 v -24.03125 h 8.00977 v 16.02148 h 24.0332 v -40.04101 -0.0137 h -32.04297 v -24.01758 h 8.00977 v 16.00782 0.0137 h 24.0332 v -40.05469 -0.0137 h -32.04297 v -24.01758 h 8.00977 v 16.00781 0.0137 h 24.0332 v -0.0137 -16.02148 -24.01758 h -32.04297 v -24.08789 h 8.00977 v 16.07617 h 24.0332 v -40.10937 h -32.04297 v -24.03321 h 8.00977 v 16.02149 h 24.0332 V 595.74805 H 748.07812 V 571.7168 h 8.00977 v 16.02148 h 24.0332 v -40.05469 h -32.04297 v -24.03125 h 8.00977 v 16.02149 h 24.0332 v -40.05469 h -32.04297 v -24.03125 h 7.9668 0.043 v 16.02149 h 24.0332 v -16.02149 -24.03125 l -0.043,0.043 v -0.0449 h -32.04296 v -24.03125 h 8.00976 v 16.02148 h 24.0332 v -40.03906 h -32.04296 v -24.0332 h 8.00976 v 16.02343 h 24.0332 V 355.43945 H 748.03516 V 331.4082 h 8.00976 v 16.02149 h 24.0332 v -40.05274 h -32.04296 v -24.08789 h 8.00976 v 16.07617 h 24.0332 v -40.10742 h -32.04296 v -24.0332 h 8.00976 v 16.02148 h 24.0332 v -40.03906 h -32.04296 v -24.03125 h 8.00976 v 16.02149 h 24.0332 v -40.05469 h -32.04296 v -24.03125 h 8.00976 v 16.02148 h 24.0332 V 115.07812 H 748.03516 V 91.046875 h 8.00976 v 16.021485 h 24.0332 V 91.046875 67.015625 h -64.1289 V 59.005859 H 731.9707 V 34.972656 h -40.04101 v 32.042969 h -24.03125 v -8.009766 h 16.02148 V 34.972656 h -40.05469 v 32.042969 h -24.03125 v -8.009766 h 16.02149 V 34.972656 h -40.05274 v 32.042969 h -24.08789 v -8.009766 h 16.07618 V 34.972656 h -40.10743 v 32.042969 h -24.0332 v -8.009766 h 16.02149 V 34.972656 h -40.03907 v 32.042969 h -24.03125 v -8.009766 h 16.02149 V 34.972656 h -16.03516 -24.01953 -0.0137 v 32.042969 h -24.01758 v -8.009766 h 16.00781 0.0137 V 34.972656 h -0.0137 -40.04101 v 32.042969 h -24.03125 v -8.009766 h 16.02148 V 34.972656 H 379.47266 355.43945 V 67.015625 H 331.4082 v -8.009766 h 16.02149 V 34.972656 h -40.05274 v 32.042969 h -24.08789 v -8.009766 h 16.07617 V 34.972656 h -40.10742 v 32.042969 h -24.0332 v -8.009766 h 16.02148 V 34.972656 h -40.03906 v 32.042969 h -24.03125 v -8.009766 h 16.02149 V 34.972656 h -40.05469 v 32.042969 h -24.03125 v -8.009766 h 16.02148 V 34.972656 H 115.07812 V 67.015625 H 91.046875 V 59.005859 H 107.06836 V 34.972656 H 91.046875 Z m 8.009766,8.011719 h 16.021484 8.009766 v 8.009766 h -8.009766 v 0.04297 h -8.009766 v 23.988282 h 8.009766 32.042965 V 42.984375 h 24.03125 v 8.009766 h -16.02148 v 24.03125 H 171.1543 V 42.984375 h 24.03125 v 8.009766 h -16.02149 v 24.03125 H 219.2168 V 42.984375 h 24.01953 v 8.009766 h -16.00781 v 24.03125 h 40.03906 V 42.984375 h 24.08789 v 8.009766 H 275.2793 v 24.03125 h 40.10742 V 42.984375 h 24.0332 v 8.009766 h -16.02148 v 24.03125 h 40.05273 V 42.984375 h 16.02149 8.00976 v 8.009766 h -8.00976 -8.01172 v 24.03125 h 8.01172 32.04296 V 42.984375 h 24.01758 v 8.009766 h -16.00781 v 24.03125 h 40.04102 0.0137 V 42.984375 h 16.00781 8.02344 v 8.009766 h -8.02344 -7.99805 -0.0137 v 24.03125 h 0.0137 7.99805 32.05469 V 42.984375 h 24.01953 v 8.009766 H 515.6543 v 24.03125 h 40.03906 V 42.984375 h 24.08789 v 8.009766 h -16.07617 v 24.03125 H 603.8125 V 42.984375 h 24.0332 v 8.009766 h -16.02148 v 24.03125 h 40.05273 V 42.984375 h 24.03125 v 8.009766 h -16.02148 v 24.03125 h 40.05469 V 42.984375 h 24.01757 v 8.009766 h -16.00781 v 24.03125 h 64.11524 v 16.021484 8.009766 h -8.00977 v -8.009766 h -0.043 v -8.009766 h -23.98828 v 8.009766 32.042965 h 32.04102 v 24.03125 h -8.00977 v -16.02148 h -24.03125 v 40.05469 h 32.04102 v 24.03125 h -8.00977 v -16.02149 h -24.03125 v 40.05274 h 32.04102 v 24.01953 h -8.00977 v -16.00781 h -24.03125 v 40.03906 h 32.04102 v 24.08789 h -8.00977 V 275.2793 h -24.03125 v 40.10742 h 32.04102 v 24.0332 h -8.00977 v -16.02148 h -24.03125 v 40.05273 h 32.04102 v 24.03125 h -8.00977 v -16.02148 h -24.03125 v 40.05468 h 32.04102 v 24.01758 h -8.00977 v -16.00781 h -24.03125 v 40.04102 h 32.04102 v 16.02148 h 0.043 v 8.00977 h -8.00977 v -8.00977 h -0.043 v -8.00977 -0.002 h -24.03125 v 8.01172 h 0.043 v 32.04297 h 32.04102 v 24.03125 h -8.00977 v -16.02149 h -24.03125 v 40.05469 h 32.04102 v 24.03125 h -8.00977 v -16.02148 h -24.03125 v 40.05273 h 32.04102 v 24.01953 h -8.00977 v -16.00781 h -24.03125 v 40.03906 h 32.04102 v 24.08985 h -8.00977 v -16.07617 h -24.03125 v 40.10742 h 32.04102 v 24.01758 h -8.00977 v -8.00977 -7.99609 h -24.03125 v 7.99609 32.04297 0.0137 h 32.04102 v 24.01758 h -8.00977 v -16.02149 h -24.03125 v 40.05469 0.0137 h 32.04102 v 24.01758 h -8.00977 v -16.02148 h -24.03125 v 40.05273 0.002 h 32.04102 v 24.01757 h -8.00977 v -16.00781 h -24.03125 v 40.03906 h 32.04102 v 24.08789 h -8.00977 v -16.07617 h -24.03125 v 40.10742 h 32.04102 v 24.03321 h -8.00977 v -16.02149 h -24.03125 v 40.05274 h 32.04102 v 24.0312 h -8.00977 v -16.02144 h -24.03125 v 40.05464 h 32.04102 v 24.0176 h -8.00977 v -16.0078 h -24.03125 v 64.1152 h -16.02148 -8.00977 v -8.0097 h 8.00977 v -0.043 h 8.00976 v -23.9883 h -8.00976 -32.04297 v 32.041 h -24.03125 v -8.0097 h 16.02148 v -24.0313 h -40.05469 v 32.041 H 619.9082 v -8.0097 h 16.02149 v -24.0313 h -40.05274 v 32.041 h -24.01953 v -8.0097 h 16.00781 v -24.0313 h -40.03906 v 32.041 h -24.08789 v -8.0097 h 16.07617 v -24.0313 h -40.10742 v 32.041 h -24.0332 v -8.0097 h 16.02148 v -24.0313 h -40.05273 v 32.041 H 427.625 v -8.0097 h 16.00781 v -24.0313 h -40.05469 v 32.041 h -24.01757 v -8.0097 h 16.02148 v -24.0313 h -40.05469 v 32.041 h -24.03125 v -8.0097 h 16.02149 v -24.0313 h -40.05274 v 32.041 h -24.01953 v -8.0097 h 16.00781 v -24.0313 h -40.03906 v 32.041 h -24.08789 v -8.0097 h 16.07617 v -24.0313 h -40.10742 v 32.041 h -24.0332 v -8.0097 h 16.02148 v -24.0313 h -40.05273 v 32.041 h -24.03125 v -8.0097 h 16.02148 v -24.0313 h -40.05468 v 32.041 H 91.148438 v -8.0097 h 16.007812 v -24.0313 H 43.041016 v -16.0214 -8.0098 h 8.009765 v 8.0098 h 0.04297 v 8.0097 h 23.988281 v -8.0097 -32.043 H 43.041016 v -24.0313 h 8.009765 v 16.0215 h 24.03125 V 980.36133 H 43.041016 v -24.03125 h 8.009765 v 16.02148 h 24.03125 V 932.29883 H 43.041016 V 908.2793 h 8.009765 v 16.00781 h 24.03125 V 884.24805 H 43.041016 v -24.08789 h 8.009765 v 16.07617 h 24.03125 V 836.12891 H 43.041016 V 812.0957 h 8.009765 v 16.02149 h 24.03125 V 788.06445 H 43.041016 v -24.01757 h 8.009765 v 16.00781 h 0.04297 v 0.0117 H 75.082031 V 772.05664 740 H 43.041016 v -24.01758 h 8.009765 v 16.00781 0.0137 h 24.03125 v -0.0137 -40.04101 H 43.041016 v -24.03125 h 8.009765 v 16.02148 h 24.03125 v -8.01172 -32.04101 H 43.041016 v -24.01953 h 8.009765 V 635.875 h 24.03125 V 595.83594 H 43.041016 v -24.08789 h 8.009765 v 16.07617 h 24.03125 V 547.7168 H 43.041016 v -24.03516 h 8.009765 v 16.02344 h 24.03125 V 499.65039 H 43.041016 v -24.03125 h 8.009765 v 16.02148 h 24.03125 V 451.58594 H 43.041016 v -24.01758 h 7.953125 v 8.00976 h 0.05664 v 7.99805 h 24.03125 v -40.04101 h -0.05664 -31.984375 v -16.02149 h -0.05664 v -8.00976 h 8.009766 v 16.02148 h 0.05664 23.97461 0.05664 v -8.01172 h -0.05664 V 355.4707 H 42.984375 v -24.03125 h 8.009766 v 16.02149 h 24.03125 V 307.4082 H 42.984375 v -24.01953 h 8.009766 v 16.00781 h 24.03125 V 259.35742 H 42.984375 v -24.08789 h 8.009766 v 16.07617 h 24.03125 V 211.23828 H 42.984375 v -24.0332 h 8.009766 v 16.02148 h 24.03125 V 163.17383 H 42.984375 v -24.03125 h 8.009766 v 16.02148 h 24.03125 V 115.10938 H 42.984375 V 91.091797 h 8.009766 v 16.007813 h 24.03125 z"
   transform="scale(26.458334)"
   id="polygon5169"
   inkscape:connector-curvature="0"
   sodipodi:nodetypes="ccccccccccccccccccccccccccccccccccccccccccccccccccccccccccccccccccccccccccccccccccccccccccccccccccccccccccccccccccccccccccccccccccccccccccccccccccccccccccccccccccccccccccccccccccccccccccccccccccccccccccccccccccccccccccccccccccccccccccccccccccccccccccccccccccccccccccccccccccccccccccccccccccccccccccccccccccccccccccccccccccccccccccccccccccccccccccccccccccccccccccccccccccccccccccccccccccccccccccccccccccccccccccccccccccccccccccccccccccccccccccccccccccccccccccccccccccccccccccccccccccccccccccccccccccccccccccccccccccccccccccccccccccccccccccccccccccccccccccccccccccccccccccccccccccccccccccccccccccccccccccccccccccccccccccccccccccccccccccccccccccccccccccccccccccccccccccccccccccccccccccccccccccccccccccccccccccccccccccccccccccccccccccccccccccccccccccccccccccccccccccccccccccccccccccccccccccccccccccccccccccccccccccccccccccccccccccccccccccccccccccccccccccccccccccccccccccccccccccccccccccccccccccccccccccccccccccccccccccccccc" /><path
   style="fill:#f4e7d5;fill-opacity:1;fill-rule:evenodd;stroke:#b9b1a6;stroke-width:132.29167175;stroke-linecap:butt;stroke-linejoin:miter;stroke-miterlimit:4;stroke-dasharray:none;stroke-opacity:1"
   d="m 9135.5891,21867.677 c -4519.1592,3.075 -5201.6326,56.164 -5460.597,286.65 -552.9923,492.183 -284.4318,1604.191 387.4699,1604.191 225.5933,0 638.6856,-178.944 729.3613,-316.001 98.8216,-149.367 55.6238,-453.202 -82.1656,-577.898 -194.5365,-176.053 -618.8252,-130.835 -618.8252,65.939 0,104.33 55.7596,150.367 202.3131,167.174 248.8898,28.54 241.7863,252.627 -9.1467,288.354 -391.3981,55.725 -638.6499,-345.891 -440.6966,-715.77 175.106,-327.189 764.6107,-317.88 1121.8437,17.725 384.6054,361.318 124.1369,1099.572 -455.3728,1290.825 -246.9753,81.509 -931.2894,57.025 -1190.9867,-42.632 -67.9569,-26.076 -213.9437,46.183 -370.1066,183.296 l -257.762,226.446 c -214.2561,97.353 -76.0677,1142.33 -76.0677,1459.239 v 267.891 c -112.3043,1126.049 -162.7227,2698.203 19.3786,2900.03 3513.9277,-527.381 11057.2782,411.737 16237.2482,-63.82 172.848,-206.132 103.173,-997.421 100.304,-1658.557 -49.256,-966.364 246.142,-3005.294 -252.491,-3121.204 -151.657,-142.473 -217.58,-153.611 -665.954,-112.396 -934.32,85.886 -1396.889,-198.166 -1397.537,-858.191 -0.286,-314.938 278.639,-655.259 603.942,-736.906 443.498,-111.311 880.652,339.027 704.453,725.744 -126.395,277.4 -660.58,340.24 -660.58,77.722 0,-61.549 82.439,-114.966 197.973,-128.261 142.411,-16.386 197.972,-63.137 197.972,-166.709 0,-211.529 -409.376,-238.697 -607.766,-40.307 -195.464,195.461 -187.37,403.654 23.771,614.794 357.335,357.334 939.486,297.512 1195.741,-122.783 186.049,-305.153 93.775,-675.594 -8.94,-991.774 -396.928,-933.884 -4316.326,-517.145 -6985.155,-521.467 -812.136,-1.238 -1536.0305,-1.783 -2181.6209,-1.344 z"
   id="path4630"
   inkscape:connector-curvature="0"
   sodipodi:nodetypes="scsccsccscccccccccccccccscscccccs" /><path
   style="fill:#9b9488;stroke-width:72.00374603"
   d="m 17011.075,29553.672 c -389.46,12.133 -786.454,19.237 -1188.92,22.169 402.477,-2.958 799.453,-10.036 1188.92,-22.169 z m -3209.52,7.336 c 228.884,4.44 456.951,7.983 684.248,10.698 -227.277,-2.726 -455.383,-6.258 -684.248,-10.698 z m 819.847,12.351 c 99.21,1.032 198.045,1.746 296.829,2.381 -98.778,-0.635 -197.625,-1.349 -296.829,-2.381 z m 491.288,3.36 c 94.111,0.344 188.156,0.662 281.791,0.609 -93.614,0 -187.701,-0.265 -281.791,-0.609 z"
   id="path4565"
   inkscape:connector-curvature="0" /><path
   style="fill:#f4e7d5;stroke-width:88.77386475"
   d="m 7838.0457,1667.7766 c -5951.5038,-0.1109 -5475.0622,33.2374 -5358.2258,540.3806 38.3123,166.2981 62.6809,781.5278 54.1569,1367.1517 -14.067,966.4859 2.5243,1079.6942 179.4205,1226.2818 107.1862,88.8217 242.3054,235.0984 300.3952,325.0446 81.5822,126.3192 222.0571,169.1487 616.9649,187.9989 1177.426,56.2052 7331.8026,-12.5891 7581.6026,-84.7492 155.987,-45.0612 307.428,-48.169 356.826,-7.2348 134.583,111.5259 6257.856,107.1425 6420.332,-4.5992 96.736,-66.5255 188.51,-68.1546 329.023,-5.8394 262.74,116.522 649.126,109.1181 770.083,-14.6762 138.817,-142.0727 152.639,-2203.1287 16.174,-2414.4262 -78.804,-122.0193 -79.494,-193.1308 -2.428,-256.9869 147.887,-122.5506 133.691,-663.8651 -20.154,-769.6688 -88.264,-60.6969 -2597.317,-87.3352 -8280.115,-87.85 -1132.3619,-0.1024 -2113.8395,-0.8047 -2964.0553,-0.8269 z"
   id="path4500"
   inkscape:connector-curvature="0" /><path
   style="fill:#e7d9cc;stroke-width:88.77386475"
   d="m 7838.0457,1667.7766 c -5951.5038,-0.1109 -5475.0622,33.2374 -5358.2258,540.3806 38.3123,166.2981 62.6809,781.5278 54.1569,1367.1517 -14.067,966.4859 2.5243,1079.6942 179.4205,1226.2818 107.1862,88.8217 242.3054,235.0984 300.3952,325.0446 81.5822,126.3192 222.0571,169.1487 616.9649,187.9989 1177.426,56.2052 7331.8026,-12.5891 7581.6026,-84.7492 155.987,-45.0612 307.428,-48.169 356.826,-7.2348 134.583,111.5259 6257.856,107.1425 6420.332,-4.5992 96.736,-66.5255 188.51,-68.1546 329.023,-5.8394 262.74,116.522 649.126,109.1181 770.083,-14.6762 138.817,-142.0727 152.639,-2203.1287 16.174,-2414.4262 -78.804,-122.0193 -79.494,-193.1308 -2.428,-256.9869 147.887,-122.5506 133.691,-663.8651 -20.154,-769.6688 -88.264,-60.6969 -2597.317,-87.3352 -8280.115,-87.85 -1132.3619,-0.1024 -2113.8395,-0.8047 -2964.0553,-0.8269 z m -3836.3033,148.4665 -62.425,205.7239 c -78.1166,257.9078 28.0567,259.5921 441.42,6.873 l 325.4066,-199.006 6334.237,-4.3925 6334.187,-4.3408 441.007,223.5006 c 242.593,122.9605 610.958,368.9508 818.503,546.7367 l 377.289,323.2877 1.292,778.092 c 1.21,775.2623 0.217,778.4566 -270.164,871.2647 -149.255,51.2321 -445.468,223.0771 -658.255,381.8888 l -386.953,288.8197 -780.159,-48.3693 c -429.087,-26.5988 -905.559,-48.6196 -1058.798,-48.8857 -201.112,-0.3503 -263.698,-32.5742 -225.154,-115.8071 29.368,-63.4206 -9.86,-158.7352 -87.127,-211.8733 -89.263,-61.3878 -140.405,-65.6966 -140.405,-11.7306 0,46.7138 -70.459,143.3523 -156.579,214.7155 -131.864,109.271 -393.625,127.4014 -1657.935,115.0834 -1188.352,-11.5776 -1501.252,-37.361 -1501.252,-123.92 0,-60.1437 -43.927,-109.3988 -97.565,-109.3988 -53.636,0 -97.41,41.4679 -97.41,92.0871 0,63.137 -177.463,78.7398 -565.134,49.6094 -396.34,-29.7815 -620.362,-9.095 -749.825,69.35 -142.359,86.2628 -565.257,108.7617 -1848.516,98.4951 -1982.4221,-15.8594 -2195.9782,-41.0359 -1658.6587,-196.0087 211.6969,-61.0563 447.3557,-111.5708 523.5859,-112.2412 76.2298,-0.6692 218.939,-61.5673 317.2415,-135.2889 146.6998,-110.0148 223.2043,-117.2101 426.744,-40.3593 318.4187,120.2219 311.6376,121.1681 430.4128,-62.7351 170.3597,-263.7798 -33.21,-570.9729 -378.4264,-570.9729 -326.5109,0 -427.7344,-84.7151 -336.5685,-281.5849 44.0798,-95.1918 130.3544,-120.3942 295.279,-86.0928 212.607,44.2185 227.3358,29.4148 167.2767,-168.8788 -55.7451,-184.0575 -39.8042,-209.0871 103.8696,-163.4008 93.3225,29.6759 212.8369,31.8108 265.6686,4.7542 117.9333,-60.3992 -289.9304,-436.2007 -473.4078,-436.2007 -190.5863,0 -706.6052,498.0678 -711.6879,686.9348 -7.2599,269.5897 -149.3986,386.889 -391.8106,323.1327 -120.9323,-31.8069 -344.6835,-64.9963 -497.1275,-73.7423 -355.3319,-20.3851 -448.6642,-101.1153 -316.1564,-273.4199 64.5488,-83.934 196.229,-126.4474 337.8607,-108.934 223.6169,27.651 225.8656,22.9823 61.4432,-127.5891 -93.8647,-85.9541 -170.7388,-198.7792 -170.7388,-250.8374 0,-123.5953 -318.0882,-122.1175 -468.1368,2.2221 -64.3634,53.3357 -116.9956,194.358 -116.9956,313.3659 0,119.008 -67.4262,262.8225 -149.8616,319.5153 -82.437,56.6931 -137.2426,179.2891 -121.8531,272.4899 25.9414,157.1051 -11.1201,167.4677 -508.3926,141.8002 -592.4227,-30.5784 -738.9984,-97.5555 -647.2473,-295.6927 41.3435,-89.281 124.6579,-115.5962 256.6768,-80.8736 227.2339,59.7643 234.579,38.3786 82.3206,-238.5383 -79.665,-144.8926 -189.3774,-205.7239 -370.5717,-205.7239 -141.5748,0 -309.0259,-42.7474 -372.1222,-95.033 -87.9454,-72.8784 -159.2963,-61.6573 -305.8726,48.2658 -230.2386,172.6635 -400.2283,109.9965 -327.4219,-120.7161 32.4343,-102.7786 -33.0507,-263.5517 -169.7053,-416.7188 -209.1002,-234.3644 -212.1866,-255.5085 -52.1417,-352.4849 377.8919,-228.9786 -76.7196,-336.4564 -648.1258,-153.2206 -134.4258,43.1075 -159.4628,10.619 -135.7023,-176.1133 28.4316,-223.4409 45.0526,-229.5895 679.8551,-252.9562 z m 14732.8976,10.387 c 275.246,2.243 279.156,35.3976 279.156,279.8796 0,155.563 -14.571,282.9285 -32.453,282.9285 -17.88,0 -204.476,-125.8054 -414.548,-279.5179 l -381.837,-279.4662 414.445,-3.4623 c 51.178,-0.4157 95.913,-0.6824 135.237,-0.3617 z M 4754.3063,2240.5067 c -51.9753,-1.7867 -157.8245,47.351 -312.4356,158.75 -140.1548,100.9843 -251.0959,267.0434 -251.0959,375.946 0,177.8926 31.0036,164.4642 351.2447,-153.1689 235.9498,-234.0234 298.9096,-378.5493 212.2868,-381.5271 z m 2856.7248,7.0796 c -64.6121,-2.3857 -145.9323,42.3725 -179.8339,126.659 -21.2325,52.7806 30.9354,95.9114 115.8584,95.9114 84.9233,0 154.4092,-57.5771 154.4092,-127.9508 0,-62.4352 -40.1806,-92.7644 -90.4337,-94.6196 z m -1969.9055,54.7254 c -145.915,4.3022 -296.9982,91.8379 -362.9752,248.667 -101.8577,242.1284 -101.5932,242.4658 274.8153,242.4658 400.9913,0 521.5207,-109.8931 376.5661,-343.4416 -64.5536,-104.0104 -174.9158,-151.0371 -288.4062,-147.6912 z m -1374.2315,1304.158 c 19.4551,-1.9545 38.5823,32.4247 72.5538,101.5441 39.6959,80.7694 27.4216,183.9574 -27.2852,229.2885 -137.0592,113.5787 -210.5834,-18.2325 -119.6827,-214.5088 35.2293,-76.072 54.958,-114.3691 74.4141,-116.3238 z m -1336.8176,327.4218 c 80.3542,1.1459 103.9357,85.0339 39.1708,209.6514 -41.4182,79.6986 -65.5574,226.6942 -53.7435,326.6985 11.8128,100.0051 -25.6731,181.8494 -83.1472,181.8494 -135.9606,0 -136.3249,-620.5323 -0.4135,-690.1389 38.201,-19.5638 71.3491,-28.4414 98.1334,-28.0604 z m 16056.8475,867.3373 c 95.43,-1.1761 130.053,67.9249 68.42,201.0214 -40.401,87.2442 -170.334,133.7085 -368.815,131.8265 l -306.596,-2.9456 290.577,-196.732 c 131.21,-88.8442 242.19,-132.2551 316.414,-133.1703 z M 3241.4789,4979.5127 c 73.669,0 171.1981,25.5979 266.5987,76.6876 113.9888,61.0441 87.127,78.5656 -121.8531,79.5301 -147.5007,0.6805 -268.1491,-35.083 -268.1491,-79.5301 0,-51.0897 49.7327,-76.6876 123.4035,-76.6876 z"
   id="path4502"
   inkscape:connector-curvature="0" /><path
   style="fill:#dbd0c5;stroke-width:88.77386475"
   d="m 7838.0457,1667.7766 c -5951.5038,-0.1109 -5475.0622,33.2374 -5358.2258,540.3806 38.3123,166.2981 62.6809,781.5278 54.1569,1367.1517 -14.067,966.4859 2.5243,1079.6942 179.4205,1226.2818 107.1862,88.8217 242.3054,235.0984 300.3952,325.0446 81.5822,126.3192 222.0571,169.1487 616.9649,187.9989 1177.426,56.2052 7331.8026,-12.5891 7581.6026,-84.7492 155.987,-45.0612 307.428,-48.169 356.826,-7.2348 134.583,111.5259 6257.856,107.1425 6420.332,-4.5992 96.736,-66.5255 188.51,-68.1546 329.023,-5.8394 262.74,116.522 649.126,109.1181 770.083,-14.6762 138.817,-142.0727 152.639,-2203.1287 16.174,-2414.4262 -78.804,-122.0193 -79.494,-193.1308 -2.428,-256.9869 147.887,-122.5506 133.691,-663.8651 -20.154,-769.6688 -88.264,-60.6969 -2597.317,-87.3352 -8280.115,-87.85 -1132.3619,-0.1024 -2113.8395,-0.8047 -2964.0553,-0.8269 z m 8577.7183,124.1786 c 1593.137,0.9394 2536.196,6.2753 2573.744,16.3298 124.329,33.2924 172.086,512.5544 60.307,605.1827 -33.873,28.067 -143.644,14.7324 -243.861,-29.714 -258.429,-114.6095 -230.859,26.1769 61.546,314.1411 219.032,215.7084 243.861,311.3063 243.861,940.8728 0,711.7908 -98.425,1013.3232 -330.729,1013.3232 -70.854,0 -326.707,125.2588 -568.544,278.2774 l -439.663,278.1744 -3011.909,-8.0616 c -1656.551,-4.4055 -3060.36,-38.7537 -3119.603,-76.3262 -59.38,-37.6613 -343.9,-30.8972 -633.967,14.9347 -309.894,48.9641 -2035.8651,79.1723 -4199.1217,73.5872 l -3673.0574,-9.457 -58.9627,-194.7166 c -32.4411,-107.1039 -121.0691,-194.7169 -196.8873,-194.7169 -196.7817,0 -231.2378,-172.2806 -230.8386,-1153.263 l 0.3101,-870.2827 332.3828,-210.013 c 324.802,-205.2932 452.936,-407.3373 210.4266,-331.8144 -543.5514,169.2727 -560.8445,165.1711 -560.8445,-133.3768 V 1829.834 l 1584.8129,-6.8729 c 5084.3436,-21.8749 9545.3718,-32.5714 12200.5978,-31.0059 z m 2572.039,2931.7073 c 99.168,4.8365 136.432,92.7237 107.435,262.568 -25.306,148.2058 -101.803,196.7595 -340.444,215.9558 -435.343,35.0165 -478.305,-98.8005 -108.727,-338.4807 150.055,-97.3148 264.608,-143.8045 341.736,-140.0431 z m -13144.9845,90.1237 c -110.4386,0 -173.7092,36.2722 -140.5598,80.7188 33.1509,44.4463 123.5768,80.8736 200.8663,80.8736 77.2877,0 140.5599,-36.4273 140.5599,-80.8736 0,-44.4466 -90.4324,-80.7188 -200.8664,-80.7188 z"
   id="path4504"
   inkscape:connector-curvature="0" /><path
   style="opacity:1;vector-effect:none;fill:none;fill-opacity:1;fill-rule:evenodd;stroke:#b9b1a6;stroke-width:130.51895142;stroke-linecap:butt;stroke-linejoin:miter;stroke-miterlimit:4;stroke-dasharray:none;stroke-dashoffset:0;stroke-opacity:1;paint-order:normal"
   d="m 7838.0457,1667.7766 c -5951.5039,-0.1109 -5475.0622,33.2374 -5358.2258,540.3806 38.3123,166.2981 62.6809,781.5278 54.1569,1367.1517 -14.067,966.4859 2.5243,1079.6942 179.4205,1226.2818 107.1862,88.8217 242.3054,235.0984 300.3952,325.0446 81.5822,126.3192 222.0571,169.1487 616.9649,187.9989 1177.426,56.2052 7331.8026,-12.5891 7581.6026,-84.7492 155.987,-45.0612 307.428,-48.169 356.826,-7.2348 134.583,111.5259 6257.856,107.1425 6420.332,-4.5992 96.736,-66.5255 188.51,-68.1546 329.023,-5.8394 262.74,116.522 649.126,109.1181 770.083,-14.6762 138.817,-142.0727 152.639,-2203.1287 16.174,-2414.4262 -78.804,-122.0193 -79.494,-193.1308 -2.428,-256.9869 147.887,-122.5506 133.691,-663.8651 -20.154,-769.6688 -88.264,-60.6969 -2597.317,-87.3352 -8280.115,-87.85 -1132.3621,-0.1024 -2113.8395,-0.8047 -2964.0553,-0.8269 z"
   id="rect4559"
   inkscape:connector-curvature="0" /><path
   style="opacity:0.57099998;fill:#8effff;fill-opacity:1;fill-rule:evenodd;stroke:#00ffff;stroke-width:43.49750137;stroke-linecap:butt;stroke-linejoin:miter;stroke-miterlimit:4;stroke-dasharray:none;stroke-opacity:1"
   d="m 17239.369,24639.331 c -218.585,-46.175 -621.964,-58.855 -971.306,248.77 l -40.766,202.374 420.86,84.778 -184.399,915.401 1400.67,282.152 -75.98,377.179 165.617,33.362 75.98,-377.179 367.989,74.128 32.432,-161.001 -367.99,-74.128 265.932,-1320.148 -165.617,-33.361 -265.932,1320.147 -795.772,-160.301 c 844.309,-420.423 767.955,-1279.953 138.282,-1412.173 z m -59.202,116.605 -71.347,354.185 -703.797,-141.774 c 227.075,-225.339 507.082,-232.602 775.144,-212.411 z m 127.75,25.734 c 137.033,61.411 232.356,140.405 275.736,420.226 l -347.084,-66.041 z m -499.132,410.64 753.839,151.515 c -312.821,539.001 -603.769,622.182 -912.297,635.112 z"
   id="path6523"
   inkscape:connector-curvature="0"
   sodipodi:nodetypes="ccccccccccccccccccccccccccccc" /></svg>